<svg width="38" height="38" viewBox="0 0 38 38" fill="none" xmlns="http://www.w3.org/2000/svg">
<path d="M26.3935 31.2845L19.7206 31.9032L12.7677 31.2845L15.7286 28.2648L17.1427 27.6755L18.3801 28.1911L19.5733 28.2058L20.7812 28.1911L21.4146 27.5724L23.4327 28.2648L26.3935 31.2845Z" fill="url(#paint0_linear_1_285)"/>
<path d="M17.4815 28.0585C17.0543 29.0897 16.0821 31.3287 15.9495 31.5644L13.9167 31.3877C14.0198 31.2551 15.5371 29.0897 16.3767 28.0438C16.745 28.0438 17.1132 28.0585 17.4815 28.0585Z" fill="url(#paint1_linear_1_285)"/>
<path d="M21.8712 27.7344L23.4327 28.2647L26.3935 31.2845L23.2706 31.5791C23.2559 30.2534 22.6667 28.8834 21.8712 27.7344Z" fill="black"/>
<path d="M26.3935 31.2845V31.2993L25.3919 33.3026L20.7812 33.5236H18.3801L13.7841 33.3026L12.7677 31.2993V31.2845H26.3935Z" fill="url(#paint2_linear_1_285)"/>
<path d="M26.3935 31.2993L25.3918 33.3026L20.7812 33.5236H18.3801H18.2622C18.4193 33.5039 18.5765 33.4794 18.7336 33.4499C19.4259 33.3616 20.1183 33.229 20.7664 32.9786C21.6944 32.625 22.5783 32.0358 23.2706 31.2845H26.3935V31.2993Z" fill="black"/>
<path d="M26.0106 34.2159L13.1654 34.2307C13.1507 34.1717 13.1507 34.0244 13.1507 33.9655C13.1507 33.5825 13.4453 33.2732 13.8136 33.2732H25.3477C25.7159 33.2732 26.0253 33.5825 26.0253 33.9655C26.0253 34.0244 26.0253 34.157 26.0106 34.2159Z" fill="url(#paint3_linear_1_285)"/>
<g style="mix-blend-mode:multiply" opacity="0.5">
<path d="M26.0253 33.9655C26.0253 34.0244 26.0253 34.157 26.0106 34.2159L13.1654 34.2307C13.1507 34.1717 13.1507 34.0244 13.1507 33.9655C13.1507 33.9361 13.1507 33.9017 13.1507 33.8624H26.0106C26.0204 33.9017 26.0253 33.9361 26.0253 33.9655Z" fill="#221F1F"/>
</g>
<path d="M28.1612 37H11C11 35.4238 11.9722 34.1423 13.1949 34.1423H25.9811C27.189 34.1423 28.1612 35.4238 28.1612 37Z" fill="url(#paint4_linear_1_285)"/>
<path d="M28.1612 37H15.5518C16.7302 36.8822 17.9087 36.617 19.0135 36.2782C20.0299 35.9541 22.1658 35.2765 23.1233 34.1423H25.9811C27.189 34.1423 28.1612 35.4238 28.1612 37Z" fill="#020202"/>
<path d="M20.5454 2.79546C20.5454 3.25211 20.1477 3.60564 19.6469 3.60564C19.146 3.60564 18.7336 3.25211 18.7336 2.79546C18.7336 2.35354 19.146 2 19.6469 2C20.1477 2 20.5454 2.35354 20.5454 2.79546Z" fill="url(#paint5_linear_1_285)"/>
<path d="M20.5454 2.79546C20.5454 3.25211 20.1477 3.60564 19.6469 3.60564C19.146 3.60564 18.7336 3.25211 18.7336 2.79546C18.7336 2.35354 19.146 2 19.6469 2C20.1477 2 20.5454 2.35354 20.5454 2.79546Z" fill="url(#paint6_linear_1_285)"/>
<path style="mix-blend-mode:screen" opacity="0.5" d="M18.7336 2.83965C18.7336 2.82492 18.7336 2.81019 18.7336 2.79546C18.7336 2.35354 19.146 2 19.6469 2C19.7451 2 19.8384 2.00982 19.9268 2.02946C20.2361 2.20623 20.2803 2.85438 19.8237 3.09007C19.4701 3.26684 18.7925 3.20791 18.7336 2.83965Z" fill="url(#paint7_linear_1_285)"/>
<path d="M20.5455 2.79546C20.5455 3.25211 20.1478 3.60564 19.6469 3.60564C19.3523 3.60564 19.1019 3.48779 18.9251 3.2963C18.984 3.35522 19.1166 3.38468 19.1903 3.39941C19.2786 3.41905 19.3719 3.42888 19.4701 3.42888C19.6764 3.39941 19.8826 3.2963 20.0446 3.16373C20.3687 2.86911 20.3393 2.26515 20.0446 2.07365C20.0446 2.07365 20.0397 2.07365 20.0299 2.07365C20.3393 2.20623 20.5455 2.47139 20.5455 2.79546Z" fill="black"/>
<path d="M24.1103 5.82994C24.1103 7.14097 22.1069 8.21631 19.6469 8.21631C17.1869 8.21631 15.1982 7.14097 15.1982 5.82994C15.1982 4.51892 17.1869 3.45831 19.6469 3.45831C22.1069 3.45831 24.1103 4.51892 24.1103 5.82994Z" fill="url(#paint8_linear_1_285)"/>
<path d="M24.1103 5.82994C24.1103 7.14097 22.1069 8.21631 19.6469 8.21631C17.1869 8.21631 15.1982 7.14097 15.1982 5.82994C15.1982 4.51892 17.1869 3.45831 19.6469 3.45831C22.1069 3.45831 24.1103 4.51892 24.1103 5.82994Z" fill="url(#paint9_linear_1_285)"/>
<g style="mix-blend-mode:screen">
<path style="mix-blend-mode:screen" opacity="0.5" d="M19.8236 8.08373C19.7058 8.09355 19.583 8.09847 19.4554 8.09847C17.614 8.09847 15.6401 7.28828 15.6401 6.00671C15.6401 4.72515 17.614 3.45831 19.4554 3.45831C19.583 3.45831 19.7058 3.46322 19.8236 3.47304C18.1444 3.60562 16.8481 4.57784 16.8481 5.78575C16.8481 6.97894 18.1444 7.96589 19.8236 8.08373Z" fill="url(#paint10_linear_1_285)"/>
</g>
<g style="mix-blend-mode:multiply" opacity="0.5">
<path d="M24.1103 5.82994C24.1103 7.14097 22.1069 8.21631 19.6469 8.21631C18.9693 8.21631 18.3211 8.12792 17.7466 7.98061C17.7957 7.98061 17.8498 7.98061 17.9087 7.98061C20.3687 7.98061 22.3573 6.92001 22.3573 5.60898C22.3573 4.65149 21.3115 3.84131 19.8089 3.45831C22.1953 3.5025 24.1103 4.54838 24.1103 5.82994Z" fill="url(#paint11_linear_1_285)"/>
</g>
<path d="M24.7732 4.76937L22.4015 12.0168H16.7597L14.3881 4.76937H14.4028C14.6237 5.24075 15.0951 5.56482 15.6402 5.56482C16.3472 5.56482 16.9512 4.99033 16.9954 4.28326C17.2163 4.73991 17.6877 5.06398 18.2328 5.06398C18.9398 5.06398 19.5291 4.50421 19.588 3.81187C19.6322 4.50421 20.2361 5.07872 20.9432 5.07872C21.4735 5.07872 21.9449 4.75464 22.1658 4.28326H22.1806C22.1953 5.00506 22.7993 5.59429 23.5358 5.59429C24.0808 5.59429 24.5669 5.25548 24.7732 4.76937Z" fill="url(#paint12_linear_1_285)"/>
<path d="M18.1591 12.0168H17.3784C17.29 11.4571 16.1852 7.58292 15.7875 6.10985C16.2736 6.12459 16.7744 5.8447 16.8923 5.3144C16.8923 5.27511 16.8972 5.24566 16.907 5.22602C16.9659 5.06398 17.0101 4.88721 17.0101 4.71044C17.0298 4.62206 17.0347 4.52876 17.0249 4.43056C17.0396 4.53367 17.069 4.63678 17.0985 4.7399C17.1722 4.94613 17.2753 5.13762 17.3489 5.32912C17.4078 5.44697 17.5846 5.78578 18.056 5.85943C18.1297 7.30304 18.1297 11.2508 18.1738 11.7959C18.164 11.8843 18.1591 11.9579 18.1591 12.0168Z" fill="url(#paint13_linear_1_285)"/>
<path d="M24.7732 4.76937L22.4015 12.0169H17.9234C18.6157 11.8695 19.2934 11.4571 19.75 11.0299C20.678 10.1461 21.1641 8.70246 21.5029 7.47981C21.6895 6.79238 21.8565 6.09022 22.0038 5.37333C22.0627 5.03453 22.1658 4.66626 22.1806 4.29799C22.21 5.01979 22.814 5.59429 23.5358 5.59429C24.0808 5.59429 24.5669 5.25548 24.7732 4.76937Z" fill="black"/>
<path style="mix-blend-mode:multiply" d="M16.9954 4.28326C17.2163 4.73991 17.6877 5.06398 18.2327 5.06398C18.9398 5.06398 19.529 4.50421 19.588 3.81187C19.6321 4.50421 20.2361 5.07872 20.9432 5.07872C21.4735 5.07872 21.9449 4.75464 22.1658 4.28326H22.1806C22.1953 5.00506 22.7992 5.59429 23.5358 5.59429C24.0808 5.59429 24.5669 5.25548 24.7731 4.76937L24.7142 4.96086C24.4491 5.44697 23.7862 6.47812 23.0055 6.24243C22.1216 5.97728 22.1511 4.41584 22.1511 4.41584C22.1511 4.41584 21.7681 5.90363 20.8106 5.85944C19.7205 5.80052 19.5585 3.98864 19.5585 3.98864C19.5438 4.50422 19.4406 5.75633 18.38 5.8889C17.1574 6.03621 16.9954 4.28326 16.9954 4.28326Z" fill="url(#paint14_linear_1_285)"/>
<path style="mix-blend-mode:multiply" d="M14.3881 4.76936H14.4028C14.6237 5.24074 15.0951 5.56482 15.6402 5.56482C16.3472 5.56482 16.9512 4.99032 16.9954 4.28325C17.0838 5.15236 16.7744 6.10985 15.8022 6.13931C15.1099 6.16877 14.609 5.2702 14.3881 4.76936Z" fill="url(#paint15_linear_1_285)"/>
<path d="M22.4015 12.6208V12.6355H16.7597C17.0249 12.5324 17.0249 12.1347 16.7892 12.0168H22.4015C22.1511 12.12 22.1511 12.5177 22.4015 12.6208Z" fill="url(#paint16_linear_1_285)"/>
<path d="M24.6553 27.1452L20.1035 27.5282H19.1902L14.5206 27.1452C19.2344 17.6145 16.7008 14.3295 16.7008 14.3295H19.5732H22.4752C22.4752 14.3295 19.9415 17.6145 24.6553 27.1452Z" fill="url(#paint17_linear_1_285)"/>
<path d="M17.4373 21.4003C18.1443 18.7782 18.0118 14.8157 17.2163 14.3296L17.9087 14.3001C18.0854 14.3001 18.8514 16.9663 18.5863 20.428C18.4979 21.6065 17.7908 26.4971 17.4667 27.3367L15.2571 27.1599C16.3472 25.3628 16.8922 23.4036 17.4373 21.4003Z" fill="url(#paint18_linear_1_285)"/>
<path d="M22.4752 14.3295C22.4752 14.3295 19.9415 17.6145 24.6553 27.1452L22.1069 27.3514C22.3132 25.6869 21.4588 24.0518 20.8843 22.5345C20.2509 20.8258 19.8384 18.9844 19.9562 17.1578C20.0004 16.4066 20.2214 15.6406 20.5897 14.963C20.7222 14.742 20.8695 14.5358 21.0316 14.3295H22.4752Z" fill="black"/>
<path d="M22.3573 13.4752H16.8039C16.5682 13.4752 16.3619 13.2837 16.3619 13.048C16.3619 12.7976 16.5682 12.6061 16.8039 12.6061H22.3573C22.593 12.6061 22.7992 12.7976 22.7992 13.048C22.7992 13.2837 22.593 13.4752 22.3573 13.4752Z" fill="url(#paint19_linear_1_285)"/>
<path style="mix-blend-mode:screen" opacity="0.5" d="M17.9234 13.4752H17.0543C16.9856 13.3966 16.9267 13.3082 16.8776 13.21C16.7597 12.9007 16.9512 12.7092 17.2016 12.6061H18.0413C17.835 12.7976 17.7025 13.048 17.8351 13.3426C17.8645 13.3868 17.8792 13.431 17.9234 13.4752Z" fill="url(#paint20_linear_1_285)"/>
<path style="mix-blend-mode:multiply" opacity="0.7" d="M22.7992 13.0332C22.7992 13.0431 22.7992 13.048 22.7992 13.048C22.7992 13.2837 22.593 13.4752 22.3573 13.4752H16.8039C16.5682 13.4752 16.3619 13.2837 16.3619 13.048C16.3619 13.048 16.3668 13.0431 16.3767 13.0332H22.7992Z" fill="url(#paint21_linear_1_285)"/>
<path d="M22.4015 14.3296H16.7597C16.5092 14.3296 16.3177 14.1381 16.3177 13.9024C16.3177 13.6519 16.5092 13.4604 16.7597 13.4604H22.4015C22.6519 13.4604 22.8434 13.6519 22.8434 13.9024C22.8434 14.1381 22.6519 14.3296 22.4015 14.3296Z" fill="url(#paint22_linear_1_285)"/>
<path style="mix-blend-mode:screen" opacity="0.5" d="M17.8792 14.3296H16.9659C16.686 14.0939 16.6124 13.6667 17.0101 13.4604H17.9087C17.835 13.5194 17.7613 13.593 17.7172 13.6814C17.6582 13.814 17.6582 13.9613 17.7024 14.0791C17.7319 14.197 17.7908 14.2706 17.8792 14.3296Z" fill="url(#paint23_linear_1_285)"/>
<path style="mix-blend-mode:multiply" opacity="0.7" d="M22.8434 13.9466C22.814 14.1675 22.6372 14.3296 22.4015 14.3296H16.7597C16.524 14.3296 16.3325 14.1528 16.3177 13.9318C16.3767 13.9416 16.4307 13.9466 16.4798 13.9466H22.8434Z" fill="url(#paint24_linear_1_285)"/>
<path d="M23.4474 28.2647H15.7285L14.5206 27.1452H24.6406L23.4474 28.2647Z" fill="url(#paint25_linear_1_285)"/>
<path d="M24.6405 27.1452L23.4474 28.2647H19.8531C20.516 28.0143 21.5766 27.6755 22.1216 27.1452H24.6405Z" fill="black"/>
<g style="mix-blend-mode:screen" opacity="0.5">
<path d="M16.0821 34.0981C15.4045 34.7757 15.2572 36.0572 15.2572 36.9558H12.149C12.311 35.5269 13.4011 34.3043 14.2113 34.0981H16.0821Z" fill="url(#paint26_linear_1_285)"/>
</g>
<defs>
<linearGradient id="paint0_linear_1_285" x1="397.017" y1="197.773" x2="1090.57" y2="197.773" gradientUnits="userSpaceOnUse">
<stop stop-color="#434546"/>
<stop offset="0.0001" stop-color="#2D2B2C"/>
<stop offset="0.9" stop-color="#201E1E"/>
</linearGradient>
<linearGradient id="paint1_linear_1_285" x1="15.6991" y1="28.0438" x2="15.6991" y2="31.5644" gradientUnits="userSpaceOnUse">
<stop stop-color="white" stop-opacity="0"/>
<stop offset="1" stop-color="white" stop-opacity="0.5"/>
</linearGradient>
<linearGradient id="paint2_linear_1_285" x1="19.5806" y1="31.2845" x2="19.5806" y2="33.5236" gradientUnits="userSpaceOnUse">
<stop stop-color="#252727"/>
<stop offset="1" stop-color="#434546"/>
</linearGradient>
<linearGradient id="paint3_linear_1_285" x1="19.588" y1="33.2732" x2="19.588" y2="34.2307" gradientUnits="userSpaceOnUse">
<stop stop-color="#252727"/>
<stop offset="1" stop-color="#434546"/>
</linearGradient>
<linearGradient id="paint4_linear_1_285" x1="494.946" y1="146.451" x2="1368.45" y2="146.451" gradientUnits="userSpaceOnUse">
<stop stop-color="#434546"/>
<stop offset="0.0001" stop-color="#2D2B2C"/>
<stop offset="0.9" stop-color="#201E1E"/>
</linearGradient>
<linearGradient id="paint5_linear_1_285" x1="1123.43" y1="889.921" x2="1139.58" y2="912.703" gradientUnits="userSpaceOnUse">
<stop stop-color="#A3A5A8"/>
<stop offset="0.4" stop-color="#434546"/>
<stop offset="0.9" stop-color="#201E1E"/>
</linearGradient>
<linearGradient id="paint6_linear_1_285" x1="69.8282" y1="65.1018" x2="162.052" y2="65.1018" gradientUnits="userSpaceOnUse">
<stop stop-color="#434546"/>
<stop offset="0.0001" stop-color="#2D2B2C"/>
<stop offset="0.9" stop-color="#201E1E"/>
</linearGradient>
<linearGradient id="paint7_linear_1_285" x1="887.604" y1="659.239" x2="900.251" y2="678.393" gradientUnits="userSpaceOnUse">
<stop stop-color="#FEFEFE"/>
<stop offset="0.9" stop-color="#434546"/>
</linearGradient>
<linearGradient id="paint8_linear_1_285" x1="5525.51" y1="2698.39" x2="5525.51" y2="2799.26" gradientUnits="userSpaceOnUse">
<stop stop-color="#A3A5A8"/>
<stop offset="0.4" stop-color="#434546"/>
<stop offset="0.9" stop-color="#201E1E"/>
</linearGradient>
<linearGradient id="paint9_linear_1_285" x1="19.6543" y1="3.45831" x2="19.6543" y2="8.21631" gradientUnits="userSpaceOnUse">
<stop stop-color="#252727"/>
<stop offset="1" stop-color="#434546"/>
</linearGradient>
<linearGradient id="paint10_linear_1_285" x1="1858.89" y1="3457.12" x2="1858.89" y2="2926.29" gradientUnits="userSpaceOnUse">
<stop stop-color="#FEFEFE"/>
<stop offset="0.9" stop-color="#434546"/>
</linearGradient>
<linearGradient id="paint11_linear_1_285" x1="4029.39" y1="2698.39" x2="4029.39" y2="2799.26" gradientUnits="userSpaceOnUse">
<stop stop-color="#A3A5A8"/>
<stop offset="0.4" stop-color="#434546"/>
<stop offset="0.9" stop-color="#201E1E"/>
</linearGradient>
<linearGradient id="paint12_linear_1_285" x1="307.248" y1="326.267" x2="835.85" y2="326.267" gradientUnits="userSpaceOnUse">
<stop stop-color="#434546"/>
<stop offset="0.0001" stop-color="#2D2B2C"/>
<stop offset="0.9" stop-color="#201E1E"/>
</linearGradient>
<linearGradient id="paint13_linear_1_285" x1="16.9807" y1="4.43056" x2="16.9807" y2="12.0168" gradientUnits="userSpaceOnUse">
<stop stop-color="white" stop-opacity="0"/>
<stop offset="1" stop-color="white" stop-opacity="0.5"/>
</linearGradient>
<linearGradient id="paint14_linear_1_285" x1="4481.44" y1="1412.11" x2="5029.77" y2="1412.11" gradientUnits="userSpaceOnUse">
<stop stop-color="#A3A5A8"/>
<stop offset="0.4" stop-color="#434546"/>
<stop offset="0.9" stop-color="#201E1E"/>
</linearGradient>
<linearGradient id="paint15_linear_1_285" x1="1519.25" y1="1070.99" x2="1704.34" y2="1070.99" gradientUnits="userSpaceOnUse">
<stop stop-color="#A3A5A8"/>
<stop offset="0.4" stop-color="#434546"/>
<stop offset="0.9" stop-color="#201E1E"/>
</linearGradient>
<linearGradient id="paint16_linear_1_285" x1="19.5806" y1="12.0168" x2="19.5806" y2="12.6355" gradientUnits="userSpaceOnUse">
<stop stop-color="#252727"/>
<stop offset="1" stop-color="#434546"/>
</linearGradient>
<linearGradient id="paint17_linear_1_285" x1="300.319" y1="533.037" x2="816.174" y2="533.037" gradientUnits="userSpaceOnUse">
<stop stop-color="#434546"/>
<stop offset="0.0001" stop-color="#2D2B2C"/>
<stop offset="0.9" stop-color="#201E1E"/>
</linearGradient>
<linearGradient id="paint18_linear_1_285" x1="16.9493" y1="14.3001" x2="16.9493" y2="27.3367" gradientUnits="userSpaceOnUse">
<stop stop-color="white" stop-opacity="0"/>
<stop offset="1" stop-color="white" stop-opacity="0.5"/>
</linearGradient>
<linearGradient id="paint19_linear_1_285" x1="197.893" y1="46.7622" x2="525.551" y2="46.7622" gradientUnits="userSpaceOnUse">
<stop stop-color="#434546"/>
<stop offset="0.0001" stop-color="#2D2B2C"/>
<stop offset="0.9" stop-color="#201E1E"/>
</linearGradient>
<linearGradient id="paint20_linear_1_285" x1="545.278" y1="659.486" x2="545.278" y2="560.059" gradientUnits="userSpaceOnUse">
<stop stop-color="#FEFEFE"/>
<stop offset="0.9" stop-color="#434546"/>
</linearGradient>
<linearGradient id="paint21_linear_1_285" x1="3797.62" y1="293.166" x2="4078.93" y2="293.166" gradientUnits="userSpaceOnUse">
<stop stop-color="#A3A5A8"/>
<stop offset="0.2" stop-color="#434546"/>
<stop offset="0.9" stop-color="#201E1E"/>
</linearGradient>
<linearGradient id="paint22_linear_1_285" x1="200.342" y1="47.6165" x2="532.499" y2="47.6165" gradientUnits="userSpaceOnUse">
<stop stop-color="#434546"/>
<stop offset="0.0001" stop-color="#2D2B2C"/>
<stop offset="0.9" stop-color="#201E1E"/>
</linearGradient>
<linearGradient id="paint23_linear_1_285" x1="534.392" y1="660.34" x2="534.392" y2="560.914" gradientUnits="userSpaceOnUse">
<stop stop-color="#FEFEFE"/>
<stop offset="0.9" stop-color="#434546"/>
</linearGradient>
<linearGradient id="paint24_linear_1_285" x1="3847.55" y1="268.479" x2="4136.63" y2="268.479" gradientUnits="userSpaceOnUse">
<stop stop-color="#A3A5A8"/>
<stop offset="0.2" stop-color="#434546"/>
<stop offset="0.9" stop-color="#201E1E"/>
</linearGradient>
<linearGradient id="paint25_linear_1_285" x1="19.5806" y1="27.1452" x2="19.5806" y2="28.2647" gradientUnits="userSpaceOnUse">
<stop stop-color="#252727"/>
<stop offset="1" stop-color="#434546"/>
</linearGradient>
<linearGradient id="paint26_linear_1_285" x1="14.1155" y1="34.0981" x2="14.1155" y2="36.9558" gradientUnits="userSpaceOnUse">
<stop stop-color="white" stop-opacity="0"/>
<stop offset="1" stop-color="white" stop-opacity="0.5"/>
</linearGradient>
</defs>
</svg>
