<svg width="38" height="38" viewBox="0 0 38 38" fill="none" xmlns="http://www.w3.org/2000/svg">
<path d="M25.3302 31.202H20.9353H17.4406H13.0458L16.0375 27.5749L16.2493 27.2175L19.188 27.244L22.1267 27.2175L22.2591 27.5749L25.3302 31.202Z" fill="url(#paint0_linear_1_239)"/>
<path d="M20.1014 27.244L22.1267 27.2175L22.2591 27.5749L25.3302 31.202H21.0412C21.0765 31.149 21.1074 31.0961 21.1339 31.0431C21.3589 30.593 21.3325 30.0768 21.2133 29.6135C21.0148 28.753 20.5382 27.9985 20.1014 27.244Z" fill="black"/>
<path d="M15.6271 31.1622H13.3767C13.6944 30.871 16.5008 27.7867 16.7788 27.2704C17.1759 27.2175 17.5862 27.2969 17.9834 27.2969C17.7186 27.8926 15.7462 31.0034 15.6271 31.1622Z" fill="url(#paint1_linear_1_239)"/>
<path d="M25.3302 31.1623L23.8873 33.6774H21.1471H17.2288H14.4887L13.0458 31.1623H19.188H25.3302Z" fill="url(#paint2_linear_1_239)"/>
<path d="M22.868 27.0851H15.5079C18.0363 22.2799 17.6656 17.2893 17.6656 17.2893L19.188 17.4879L20.7103 17.2893C20.7103 17.2893 20.3396 22.2799 22.868 27.0851Z" fill="url(#paint3_linear_1_239)"/>
<path d="M22.868 27.0851H21.0942C20.6309 26.1982 20.2602 25.2716 20.0087 24.292C19.7042 23.1271 19.5586 21.5783 19.5189 20.3737C19.466 18.5072 19.4263 17.8983 19.5454 17.382C19.5454 17.3291 20.525 17.3555 20.5382 17.3158L20.7103 17.2893C20.7103 17.2893 20.3396 22.2799 22.868 27.0851Z" fill="black"/>
<path d="M17.9701 27.0851H16.2228C18.3805 22.0416 17.9966 18.3086 18.0363 17.7924C18.0628 17.4879 18.2349 17.6335 18.1687 17.3158C18.2746 17.2629 18.3805 17.2232 18.4996 17.1967C18.5261 17.5144 18.3937 21.6577 18.3275 22.677C18.2349 24.1464 18.076 25.6158 17.9701 27.0851Z" fill="url(#paint4_linear_1_239)"/>
<path d="M22.8548 27.0851L22.2591 27.5749H16.0374L15.5079 27.0851H22.8548Z" fill="url(#paint5_linear_1_239)"/>
<path d="M24.43 34.4849L13.9592 34.5114C13.9459 34.4584 13.9327 34.326 13.9327 34.2731C13.9327 33.9289 14.1974 33.6509 14.5284 33.6509H23.8476C24.1785 33.6509 24.4433 33.9289 24.4433 34.2731C24.4433 34.326 24.4433 34.4452 24.43 34.4849Z" fill="url(#paint6_linear_1_239)"/>
<g style="mix-blend-mode:multiply" opacity="0.5">
<path d="M24.4433 34.2731C24.4433 34.326 24.4433 34.4452 24.43 34.4849L13.9592 34.5114C13.9459 34.4584 13.9327 34.326 13.9327 34.2731C13.9327 34.2378 13.9371 34.2069 13.9459 34.1804H24.43C24.4389 34.2069 24.4433 34.2378 24.4433 34.2731Z" fill="#221F1F"/>
</g>
<path d="M26.3627 37H12C12 37 12 36.9956 12 36.9868C12 35.5836 12.8869 34.4319 13.9724 34.4319H24.4036C25.489 34.4319 26.3627 35.5836 26.3627 36.9868C26.3627 36.9956 26.3627 37 26.3627 37Z" fill="url(#paint7_linear_1_239)"/>
<path d="M26.3627 36.9868C26.3627 36.9956 26.3627 37 26.3627 37H12C15.3359 36.7617 18.632 35.4645 19.466 35.0673C19.7572 34.935 20.1543 34.7232 20.4191 34.4319H24.4036C25.489 34.4319 26.3627 35.5836 26.3627 36.9868Z" fill="black"/>
<path d="M21.0809 6.91113C21.0809 7.26854 20.2337 7.55977 19.1879 7.55977C18.1422 7.55977 17.295 7.26854 17.295 6.91113C17.295 6.55371 18.1422 6.27573 19.1879 6.27573C20.2337 6.27573 21.0809 6.55371 21.0809 6.91113Z" fill="url(#paint8_linear_1_239)"/>
<path style="mix-blend-mode:screen" opacity="0.5" d="M18.3805 7.52005C18.0628 7.4671 17.7848 7.41415 17.573 7.32149C17.573 7.17588 17.5995 7.03026 17.6392 6.88465C17.7186 6.63313 17.8775 6.50076 18.076 6.35515C18.1907 6.3375 18.3143 6.31985 18.4467 6.3022C18.2878 6.54048 18.2349 6.8317 18.2349 7.10969C18.2349 7.26854 18.2878 7.40092 18.3805 7.52005Z" fill="url(#paint9_linear_1_239)"/>
<g style="mix-blend-mode:multiply" opacity="0.3">
<path d="M19.1747 6.58019C18.5393 6.58019 17.9701 6.61991 17.6921 6.52724C18.0363 6.36839 18.5791 6.27573 19.188 6.27573C19.7837 6.27573 20.3132 6.36839 20.6573 6.514C20.3926 6.6199 19.8366 6.58019 19.1747 6.58019Z" fill="#221F1F"/>
</g>
<g style="mix-blend-mode:multiply" opacity="0.5">
<path d="M21.0809 6.91112C21.0809 7.26853 20.2337 7.55976 19.1879 7.55976C18.1422 7.55976 17.295 7.26853 17.295 6.91112C17.295 6.80522 17.3744 6.71256 17.5068 6.61989C17.2553 6.88464 18.3937 6.77875 19.1615 6.77875C19.9557 6.77875 21.028 6.88465 20.8559 6.60666C21.0015 6.69932 21.0809 6.80522 21.0809 6.91112Z" fill="#221F1F"/>
</g>
<path d="M20.5382 4.89901L19.8234 4.4357L20.2999 5.9183H18.076L18.5394 4.4357L17.8378 4.89901V3.059L18.6717 3.33699L18.3011 2H18.9497H19.4263H20.0749L19.7043 3.33699L20.5382 3.059V4.89901Z" fill="url(#paint10_linear_1_239)"/>
<path d="M17.8378 3.059L18.6717 3.33699L18.3011 2H19.9558C19.9028 2.47655 19.8102 2.93986 19.6116 3.3767C19.413 3.81354 19.0424 4.15771 18.5394 4.15771C18.1819 4.15771 17.9701 3.99886 17.8378 3.77382V3.059Z" fill="url(#paint11_linear_1_239)"/>
<g style="mix-blend-mode:multiply" opacity="0.5">
<path d="M20.5382 4.89904L19.8234 4.43573L20.3 5.91833H18.076L18.2614 5.33588C18.2702 5.34471 18.2746 5.34912 18.2746 5.34912C18.4599 5.65358 18.7776 5.36235 18.8835 5.16379C19.0821 4.76666 19.1748 4.32983 19.2145 3.87976C19.2233 3.87976 19.2321 3.87976 19.241 3.87976C19.6646 3.82681 20.1014 3.82681 20.5382 3.81357V4.89904Z" fill="#221F1F"/>
</g>
<path style="mix-blend-mode:screen" opacity="0.5" d="M17.8378 3.059L18.6717 3.33699L18.3011 2C18.3011 2 19.1615 3.44289 18.8968 3.54879C18.6585 3.65469 17.8378 3.059 17.8378 3.059Z" fill="url(#paint12_linear_1_239)"/>
<path d="M20.5382 4.89901L19.8234 4.4357L20.3 5.9183H19.2145V2H20.0749L19.7043 3.33699L20.5382 3.059V4.89901Z" fill="url(#paint13_linear_1_239)"/>
<path d="M19.2145 3.89296V2H20.0749L19.7043 3.33699L20.5382 3.059V3.93267C20.2867 4.118 19.9955 4.21066 19.6778 4.15771C19.466 4.118 19.3204 4.06505 19.2145 3.89296Z" fill="url(#paint14_linear_1_239)"/>
<g style="mix-blend-mode:multiply" opacity="0.5">
<path d="M20.3 5.91833H19.2145V3.99889C19.2233 4.00771 19.2277 4.01654 19.2277 4.02536C19.2939 5.21674 19.7705 5.64034 20.1279 5.40207C20.1411 5.40207 20.3 5.91833 20.3 5.91833Z" fill="#221F1F"/>
</g>
<path style="mix-blend-mode:screen" opacity="0.5" d="M19.7042 3.33699L20.5382 3.059C20.5382 3.059 19.7704 3.50908 19.5189 3.5885C19.1483 3.6944 20.0749 2 20.0749 2L19.7042 3.33699Z" fill="url(#paint15_linear_1_239)"/>
<path d="M20.4323 6.46106H17.9436C17.7318 6.46106 17.5598 6.28897 17.5598 6.06393C17.5598 5.85213 17.7318 5.68004 17.9436 5.68004H20.4323C20.6441 5.68004 20.8162 5.85213 20.8162 6.06393C20.8162 6.28897 20.6441 6.46106 20.4323 6.46106Z" fill="url(#paint16_linear_1_239)"/>
<path style="mix-blend-mode:screen" opacity="0.5" d="M18.5128 6.46106H18.0363C18.001 6.43458 17.9657 6.40369 17.9304 6.36839C17.7318 6.15659 17.851 5.79918 18.0892 5.68004H18.579C18.4334 5.7727 18.3408 5.91831 18.354 6.11688C18.3672 6.24925 18.4202 6.36839 18.5128 6.46106Z" fill="url(#paint17_linear_1_239)"/>
<g style="mix-blend-mode:multiply" opacity="0.5">
<g style="mix-blend-mode:multiply">
<path d="M20.8029 5.94479C20.8118 5.98892 20.8162 6.02863 20.8162 6.06393C20.8162 6.28897 20.6441 6.46106 20.4323 6.46106H17.9436C17.7318 6.46106 17.5598 6.28897 17.5598 6.06393C17.5598 6.02863 17.5642 5.98892 17.573 5.94479C17.6259 6.11688 17.7716 6.22278 17.9436 6.22278H20.4323C20.6044 6.22278 20.75 6.11688 20.8029 5.94479Z" fill="#221F1F"/>
</g>
</g>
<path d="M21.0942 18.0041H17.2818C16.9905 18.0041 16.7523 17.7659 16.7523 17.4746C16.7523 17.1834 16.9905 16.9451 17.2818 16.9451H21.0942C21.3854 16.9451 21.6237 17.1834 21.6237 17.4746C21.6237 17.7659 21.3854 18.0041 21.0942 18.0041Z" fill="black"/>
<path d="M17.9966 18.0041H17.2818C17.2288 18.0041 16.7125 17.329 17.3744 16.9451H17.9569C17.7583 17.1172 17.6524 17.2761 17.6921 17.5806C17.7054 17.7394 17.851 17.9644 17.9966 18.0041Z" fill="url(#paint18_linear_1_239)"/>
<path d="M16.8185 17.2231C16.8979 17.051 17.07 16.9451 17.2818 16.9451H21.0942C21.2928 16.9451 21.4781 17.051 21.5575 17.2231H16.8185Z" fill="url(#paint19_linear_1_239)"/>
<path d="M21.584 17.66C21.5178 17.8586 21.3192 18.0042 21.0942 18.0042H17.2818C17.0567 18.0042 16.8582 17.8586 16.792 17.66H21.584Z" fill="url(#paint20_linear_1_239)"/>
<path d="M23.596 9.9425C23.1327 11.2133 21.478 15.7141 21.478 15.7141H20.5514H17.8112H16.8979C16.8979 15.7141 15.2432 11.2133 14.7798 9.9425C14.3165 8.65846 14.3033 7.73184 15.3358 7.33471C15.6006 7.22881 15.8786 7.16262 16.1566 7.10967C16.7522 7.00377 17.3479 6.93758 17.9436 6.88463C18.2437 6.85816 18.5437 6.84492 18.8438 6.84492C19.7439 6.81845 20.6573 6.88464 21.5575 7.00377C22.0605 7.06996 22.5768 7.14939 23.0401 7.33471C24.0726 7.73184 24.0593 8.65846 23.596 9.9425Z" fill="url(#paint21_linear_1_239)"/>
<path d="M23.5961 9.9425C23.1328 11.2133 21.4781 15.7141 21.4781 15.7141H19.5322C19.6381 15.2507 19.744 14.7742 19.8499 14.3109C20.1411 12.9607 20.525 11.6501 20.8162 10.2999C21.1869 8.55256 21.1869 7.94363 20.7765 7.33471C20.6574 7.16262 20.5647 7.00377 20.4323 6.88463C20.803 6.9111 21.178 6.95082 21.5575 7.00377C22.0605 7.06996 22.5768 7.14938 23.0401 7.33471C24.0726 7.73183 24.0594 8.65846 23.5961 9.9425Z" fill="black"/>
<path d="M16.7391 7.01702C17.1494 6.95084 17.5465 6.91112 17.9437 6.88465C18.0584 6.87582 18.1687 6.87141 18.2746 6.87141C17.6392 7.0435 17.3745 7.42739 17.348 8.26135C17.3347 8.89675 17.4804 9.88957 17.5465 10.525C17.6171 11.1692 17.6922 11.8178 17.7716 12.4709C17.904 13.6358 18.0496 14.8007 18.1952 15.9656C17.7583 15.9656 17.3745 15.9259 17.1229 15.8597C16.9244 15.3567 15.8257 10.4853 15.6668 9.74396C15.4815 8.92323 15.455 8.16869 15.9978 7.48034C16.1963 7.24206 16.4346 7.05674 16.7391 7.01702Z" fill="url(#paint22_linear_1_239)"/>
<path d="M21.3987 16.9452H16.9508C16.6199 16.9452 16.3419 16.6672 16.3419 16.323C16.3419 15.9788 16.6199 15.7141 16.9508 15.7141H21.3987C21.7296 15.7141 22.0076 15.9788 22.0076 16.323C22.0076 16.6672 21.7296 16.9452 21.3987 16.9452Z" fill="url(#paint23_linear_1_239)"/>
<path d="M18.0496 16.9452H17.1097C17.0435 16.9452 16.9244 16.7996 16.8847 16.7598C16.8317 16.6892 16.792 16.6098 16.7655 16.5216C16.7126 16.3362 16.6993 16.1377 16.8052 15.9788C16.845 15.8862 17.0171 15.7141 17.123 15.7141H18.0363C17.7981 15.9126 17.7186 16.2701 17.7981 16.601C17.8245 16.7598 17.9304 16.8657 18.0496 16.9452Z" fill="url(#paint24_linear_1_239)"/>
<g style="mix-blend-mode:multiply" opacity="0.5">
<path d="M21.9546 16.5745C21.8619 16.7996 21.6501 16.9452 21.3986 16.9452H16.9508C16.6993 16.9452 16.4875 16.7996 16.3948 16.5745H21.9546Z" fill="#221F1F"/>
</g>
<g style="mix-blend-mode:screen" opacity="0.5">
<path d="M16.8714 34.3922C16.2625 35.0012 16.1433 36.1528 16.1301 36.9603H13.337C13.4958 35.6763 14.4754 34.5776 15.2035 34.3922H16.8714Z" fill="url(#paint25_linear_1_239)"/>
</g>
<defs>
<linearGradient id="paint0_linear_1_239" x1="359.466" y1="183.808" x2="984.744" y2="183.808" gradientUnits="userSpaceOnUse">
<stop stop-color="#434546"/>
<stop offset="0.0001" stop-color="#2D2B2C"/>
<stop offset="0.9" stop-color="#201E1E"/>
</linearGradient>
<linearGradient id="paint1_linear_1_239" x1="15.68" y1="27.2522" x2="15.68" y2="31.1622" gradientUnits="userSpaceOnUse">
<stop stop-color="white" stop-opacity="0"/>
<stop offset="1" stop-color="white" stop-opacity="0.5"/>
</linearGradient>
<linearGradient id="paint2_linear_1_239" x1="19.188" y1="31.1623" x2="19.188" y2="33.6774" gradientUnits="userSpaceOnUse">
<stop stop-color="#252727"/>
<stop offset="1" stop-color="#434546"/>
</linearGradient>
<linearGradient id="paint3_linear_1_239" x1="223.062" y1="402.263" x2="597.689" y2="402.263" gradientUnits="userSpaceOnUse">
<stop stop-color="#434546"/>
<stop offset="0.0001" stop-color="#2D2B2C"/>
<stop offset="0.9" stop-color="#201E1E"/>
</linearGradient>
<linearGradient id="paint4_linear_1_239" x1="17.3629" y1="17.1967" x2="17.3629" y2="27.0851" gradientUnits="userSpaceOnUse">
<stop stop-color="white" stop-opacity="0"/>
<stop offset="1" stop-color="white" stop-opacity="0.5"/>
</linearGradient>
<linearGradient id="paint5_linear_1_239" x1="19.1813" y1="27.0851" x2="19.1813" y2="27.5749" gradientUnits="userSpaceOnUse">
<stop stop-color="#252727"/>
<stop offset="1" stop-color="#434546"/>
</linearGradient>
<linearGradient id="paint6_linear_1_239" x1="19.188" y1="33.6509" x2="19.188" y2="34.5114" gradientUnits="userSpaceOnUse">
<stop stop-color="#252727"/>
<stop offset="1" stop-color="#434546"/>
</linearGradient>
<linearGradient id="paint7_linear_1_239" x1="417.028" y1="135.357" x2="1148.09" y2="135.357" gradientUnits="userSpaceOnUse">
<stop stop-color="#434546"/>
<stop offset="0.0001" stop-color="#2D2B2C"/>
<stop offset="0.9" stop-color="#201E1E"/>
</linearGradient>
<linearGradient id="paint8_linear_1_239" x1="1854.99" y1="723.669" x2="1854.99" y2="743.701" gradientUnits="userSpaceOnUse">
<stop stop-color="#201E1E"/>
<stop offset="0.2" stop-color="#A3A5A8"/>
<stop offset="0.6" stop-color="#434546"/>
<stop offset="1" stop-color="#201E1E"/>
</linearGradient>
<linearGradient id="paint9_linear_1_239" x1="437.986" y1="686.717" x2="437.986" y2="705.715" gradientUnits="userSpaceOnUse">
<stop stop-color="#FEFEFE"/>
<stop offset="0.9" stop-color="#434546"/>
</linearGradient>
<linearGradient id="paint10_linear_1_239" x1="1296.5" y1="2087.32" x2="1328.91" y2="2087.32" gradientUnits="userSpaceOnUse">
<stop stop-color="#A3A5A8"/>
<stop offset="0.4" stop-color="#434546"/>
<stop offset="0.9" stop-color="#201E1E"/>
</linearGradient>
<linearGradient id="paint11_linear_1_239" x1="77.5655" y1="86.7982" x2="185.372" y2="86.7982" gradientUnits="userSpaceOnUse">
<stop stop-color="#434546"/>
<stop offset="0.0001" stop-color="#2D2B2C"/>
<stop offset="0.9" stop-color="#201E1E"/>
</linearGradient>
<linearGradient id="paint12_linear_1_239" x1="545.119" y1="858.275" x2="532.111" y2="847.944" gradientUnits="userSpaceOnUse">
<stop stop-color="#FEFEFE"/>
<stop offset="0.6" stop-color="#434546"/>
</linearGradient>
<linearGradient id="paint13_linear_1_239" x1="674.869" y1="2203.3" x2="658.322" y2="2203.3" gradientUnits="userSpaceOnUse">
<stop stop-color="#A3A5A8"/>
<stop offset="0.4" stop-color="#434546"/>
<stop offset="0.9" stop-color="#201E1E"/>
</linearGradient>
<linearGradient id="paint14_linear_1_239" x1="56.5443" y1="87.3789" x2="123.923" y2="87.3789" gradientUnits="userSpaceOnUse">
<stop stop-color="#434546"/>
<stop offset="0.0001" stop-color="#2D2B2C"/>
<stop offset="0.9" stop-color="#201E1E"/>
</linearGradient>
<linearGradient id="paint15_linear_1_239" x1="550.366" y1="855.991" x2="563.258" y2="846.931" gradientUnits="userSpaceOnUse">
<stop stop-color="#FEFEFE"/>
<stop offset="0.6" stop-color="#434546"/>
</linearGradient>
<linearGradient id="paint16_linear_1_239" x1="1595.3" y1="441.331" x2="1595.3" y2="448.595" gradientUnits="userSpaceOnUse">
<stop stop-color="#201E1E"/>
<stop offset="0.2" stop-color="#A3A5A8"/>
<stop offset="0.6" stop-color="#434546"/>
<stop offset="1" stop-color="#201E1E"/>
</linearGradient>
<linearGradient id="paint17_linear_1_239" x1="376.399" y1="441.331" x2="376.399" y2="448.595" gradientUnits="userSpaceOnUse">
<stop stop-color="#FEFEFE"/>
<stop offset="0.9" stop-color="#434546"/>
</linearGradient>
<linearGradient id="paint18_linear_1_239" x1="17.5184" y1="16.9451" x2="17.5184" y2="18.0041" gradientUnits="userSpaceOnUse">
<stop stop-color="white" stop-opacity="0"/>
<stop offset="1" stop-color="white" stop-opacity="0.5"/>
</linearGradient>
<linearGradient id="paint19_linear_1_239" x1="150.459" y1="27.8703" x2="391.676" y2="27.8703" gradientUnits="userSpaceOnUse">
<stop stop-color="#434546"/>
<stop offset="0.0001" stop-color="#2D2B2C"/>
<stop offset="0.9" stop-color="#201E1E"/>
</linearGradient>
<linearGradient id="paint20_linear_1_239" x1="151.926" y1="31.186" x2="395.838" y2="31.186" gradientUnits="userSpaceOnUse">
<stop stop-color="#434546"/>
<stop offset="0.0001" stop-color="#2D2B2C"/>
<stop offset="0.9" stop-color="#201E1E"/>
</linearGradient>
<linearGradient id="paint21_linear_1_239" x1="280.121" y1="355.624" x2="759.596" y2="355.624" gradientUnits="userSpaceOnUse">
<stop stop-color="#434546"/>
<stop offset="0.0001" stop-color="#2D2B2C"/>
<stop offset="0.9" stop-color="#201E1E"/>
</linearGradient>
<linearGradient id="paint22_linear_1_239" x1="16.9107" y1="6.87141" x2="16.9107" y2="15.9656" gradientUnits="userSpaceOnUse">
<stop stop-color="white" stop-opacity="0"/>
<stop offset="1" stop-color="white" stop-opacity="0.5"/>
</linearGradient>
<linearGradient id="paint23_linear_1_239" x1="176.114" y1="64.0958" x2="464.496" y2="64.0958" gradientUnits="userSpaceOnUse">
<stop stop-color="#434546"/>
<stop offset="0.0001" stop-color="#2D2B2C"/>
<stop offset="0.9" stop-color="#201E1E"/>
</linearGradient>
<linearGradient id="paint24_linear_1_239" x1="17.3875" y1="15.7141" x2="17.3875" y2="16.9452" gradientUnits="userSpaceOnUse">
<stop stop-color="white" stop-opacity="0"/>
<stop offset="1" stop-color="white" stop-opacity="0.5"/>
</linearGradient>
<linearGradient id="paint25_linear_1_239" x1="15.1042" y1="34.3922" x2="15.1042" y2="36.9603" gradientUnits="userSpaceOnUse">
<stop stop-color="white" stop-opacity="0"/>
<stop offset="1" stop-color="white" stop-opacity="0.5"/>
</linearGradient>
</defs>
</svg>
