<svg width="34" height="38" viewBox="0 0 34 38" fill="none" xmlns="http://www.w3.org/2000/svg">
<g filter="url(#filter0_f_1_347)">
<ellipse cx="16.5" cy="33" rx="11.5" ry="1" fill="#3D3D3D"/>
</g>
<path d="M15.7743 25.6942L9.37432 25.5754C9.37432 25.5754 9.37432 26.3773 9.37432 26.6149C9.37432 26.8376 9.65645 27.3425 10.2356 27.6394C10.8295 27.9513 10.8889 28.5304 10.592 28.8571C10.295 29.1838 10.1762 29.2283 10.1762 29.5995H14.1855H17.3632H21.3725C21.3725 29.2283 21.2537 29.1838 20.9567 28.8571C20.6597 28.5304 20.7191 27.9513 21.3131 27.6394C21.8922 27.3425 22.1743 26.8376 22.1743 26.6149C22.1743 26.3773 22.1743 25.5754 22.1743 25.5754L15.7743 25.6942Z" fill="url(#paint0_linear_1_347)"/>
<path d="M11.7056 29.4065L12.9233 29.4214C12.953 29.4214 12.9381 28.7532 12.9381 28.6789C12.9233 28.3671 12.8936 28.0404 12.7302 27.7731C12.5669 27.5058 12.2848 27.3276 12.1214 27.0455C11.9284 26.7337 11.9432 26.3476 12.0175 25.9912C12.0323 25.9467 12.0769 25.7833 12.166 25.7833L9.86434 25.7536C9.86434 26.0506 9.80494 26.1991 9.86434 26.4812C9.96828 27.0752 10.3098 27.3425 10.8444 27.5801C11.2602 27.7731 11.4978 28.1592 11.6314 28.5898C11.6462 28.6641 11.869 29.4065 11.7056 29.4065Z" fill="url(#paint1_linear_1_347)"/>
<path opacity="0.5" d="M18.6254 25.6348C18.1353 26.6891 18.0165 27.3425 16.7989 27.6097C16.1604 27.7582 13.2203 27.7434 12.2551 27.6988C11.2899 27.6543 10.0128 27.8919 9.46341 26.9118C9.58221 27.1494 9.84949 27.4464 10.2356 27.6394C10.8295 27.9513 10.8889 28.5304 10.592 28.8571C10.295 29.1838 10.1762 29.2283 10.1762 29.5995H21.3725C21.3725 29.2283 21.2537 29.1838 20.9567 28.8571C20.6597 28.5304 20.7191 27.9513 21.3131 27.6394C21.8922 27.3425 22.1743 26.8376 22.1743 26.6149C22.1743 26.3773 22.1743 25.5754 22.1743 25.5754L18.6254 25.6348Z" fill="#020202"/>
<path d="M22.2634 29.9411C22.2634 29.555 21.9664 29.2432 21.5952 29.2432H9.95346C9.58223 29.2432 9.28524 29.555 9.28524 29.9411C9.28524 30.0005 9.30009 30.149 9.31494 30.2084L22.2486 30.1935C22.2634 30.1341 22.2634 30.0005 22.2634 29.9411Z" fill="url(#paint2_linear_1_347)"/>
<g style="mix-blend-mode:multiply" opacity="0.5">
<path d="M22.2634 29.8372H9.30009C9.29019 29.8768 9.28524 29.9114 9.28524 29.9411C9.28524 30.0005 9.30009 30.149 9.31494 30.2084L22.2486 30.1935C22.2634 30.1341 22.2634 30.0005 22.2634 29.9411C22.2634 29.9114 22.2634 29.8768 22.2634 29.8372Z" fill="#221F1F"/>
</g>
<path d="M24.4314 33C24.4314 31.4111 23.4365 30.1193 22.2189 30.1193H9.32978C8.11214 30.1193 7.11725 31.4111 7.11725 33H24.4314Z" fill="url(#paint3_linear_1_347)"/>
<path d="M22.2189 30.1193H19.353C18.3878 31.2626 16.2198 31.9457 15.2101 32.2724C14.0815 32.6139 12.9084 32.8812 11.7056 33H24.4314C24.4314 31.4111 23.4365 30.1193 22.2189 30.1193Z" fill="#020202"/>
<path d="M16.6504 4.1777C16.992 5.38049 18.2393 4.2074 21.7289 6.82086C25.2184 9.43431 25.649 13.9188 25.5154 14.3791C25.3669 14.8394 22.3377 16.1907 20.6449 18.0468C18.9669 19.903 18.6551 21.7591 18.6551 21.7591C18.6551 21.7591 20.9419 24.6844 20.9419 24.6102C20.9419 24.5359 22.0852 25.6793 22.0852 25.2932C22.0852 24.8775 22.8574 24.3132 23.1247 24.0459C23.3474 23.8232 23.5999 23.5856 23.7929 23.3331C24.0602 22.9916 23.9711 22.7689 23.7335 22.4422C23.2286 21.7888 21.8922 20.3633 22.6941 19.5021C23.4662 18.7002 24.5354 18.1211 25.4857 17.5568C26.4658 16.9628 27.52 16.5025 28.5149 15.9531C29.2722 15.5522 29.0198 15.27 28.5892 13.1615C28.3219 11.8993 27.8319 10.6074 27.2676 9.44916C26.1242 7.02875 24.476 5.06866 22.3674 3.4204C21.1943 2.49975 19.8727 1.77214 18.3878 1.50485C16.8138 1.22272 15.1061 1.43061 13.5618 1.78699C12.5818 2.00973 11.6166 2.32155 10.6811 2.70763C9.59708 3.15311 8.88432 3.49464 9.38919 3.98467C9.87921 4.47469 11.1562 5.9002 11.1562 5.9002C11.9136 5.57352 16.3089 2.98977 16.6504 4.1777Z" fill="black"/>
<path d="M10.6365 4.17772C10.3989 3.91043 10.2208 3.58375 9.96832 3.34617C9.84952 3.21252 9.71588 3.18282 9.59709 3.21252C9.22586 3.45011 9.09222 3.68769 9.3892 3.98468C9.87922 4.4747 11.1563 5.90022 11.1563 5.90022C11.275 5.85567 11.4681 5.75173 11.7205 5.61809C11.5423 5.3805 10.8147 4.40045 10.6365 4.17772Z" fill="url(#paint4_linear_1_347)"/>
<path d="M11.9581 4.01437C11.7948 3.67284 11.6166 3.31645 11.4829 2.96007C11.4087 2.72249 11.3344 2.49975 11.082 2.5443C10.9434 2.60369 10.8098 2.65814 10.6811 2.70764C10.6712 2.70764 10.6662 2.70764 10.6662 2.70764C10.6266 2.74723 10.592 2.78188 10.5623 2.81158C10.488 3.03432 10.6068 3.27191 10.6811 3.49465C10.79 3.79163 10.9187 4.07872 11.0671 4.3559C11.1463 4.51429 11.2305 4.66773 11.3196 4.81622C11.5126 5.05381 11.6908 5.30625 11.8245 5.57354C12.0323 5.45474 12.2848 5.32109 12.5521 5.18745C12.2848 4.86077 12.1363 4.4153 11.9581 4.01437Z" fill="url(#paint5_linear_1_347)"/>
<path d="M13.1163 2.79676C13.0421 2.52948 12.9678 1.93551 12.5669 2.0543C12.4332 2.09885 12.2848 2.17309 12.1363 2.18794C12.0472 2.24734 11.9581 2.30673 11.9432 2.41068C11.8987 2.57402 11.9284 2.72251 11.9581 2.88585C12.0323 3.22738 12.1363 3.56892 12.2551 3.88075C12.4134 4.28663 12.6015 4.67766 12.8193 5.05384C13.0866 4.9202 13.3687 4.78655 13.6509 4.65291C13.4727 4.02924 13.2945 3.42043 13.1163 2.79676Z" fill="url(#paint6_linear_1_347)"/>
<path d="M14.527 2.98979C14.5122 2.63341 14.5419 2.20279 14.4379 1.86126C14.3934 1.72761 14.334 1.65337 14.2449 1.63852C14.0865 1.66822 13.9231 1.70286 13.7548 1.74246C13.5915 1.8464 13.4579 2.00975 13.4579 2.23249C13.4579 2.54432 13.5618 2.871 13.6361 3.18283C13.7548 3.6283 13.8588 4.05893 13.9776 4.50441C14.1706 4.41531 14.3637 4.34106 14.5567 4.26682C14.5567 3.83619 14.5419 3.42042 14.527 2.98979Z" fill="url(#paint7_linear_1_347)"/>
<path d="M16.101 3.86594C16.1307 3.57886 16.1554 3.29176 16.1752 3.00468C16.2049 2.66315 16.2792 2.30677 16.2792 1.96524C16.2792 1.78705 16.2643 1.50491 16.0861 1.40097C15.7793 1.42077 15.4773 1.45047 15.1803 1.49007C15.0318 1.60886 15.017 1.8019 15.0021 1.99494C15.0021 2.35132 15.0318 2.72255 15.0615 3.07893C15.0912 3.39076 15.1209 3.71744 15.1803 4.04412C15.5367 3.92533 15.8485 3.86594 16.101 3.86594Z" fill="url(#paint8_linear_1_347)"/>
<path d="M19.7985 3.46497C19.9915 3.03435 20.3479 2.36613 19.8876 1.9949C19.848 1.9553 19.8034 1.92065 19.7539 1.89095C19.6252 1.84146 19.4916 1.79691 19.353 1.75732C19.2936 1.74742 19.2392 1.74246 19.1897 1.74246C18.9372 1.80186 18.8333 2.0543 18.7739 2.29188C18.6551 2.70766 18.566 3.15314 18.4918 3.56892C18.4027 4.05894 18.3284 4.53411 18.2393 5.02414C18.4769 5.08353 18.7293 5.15778 19.0263 5.27657C19.2788 4.66776 19.5312 4.05894 19.7985 3.46497Z" fill="url(#paint9_linear_1_347)"/>
<path d="M21.5061 4.26682C21.6843 3.99954 22.1743 3.53921 21.9664 3.18283C21.9367 3.13829 21.8922 3.07889 21.8476 3.03434C21.6299 2.87595 21.4071 2.73241 21.1794 2.60372C21.1695 2.59382 21.1547 2.58887 21.1349 2.58887C20.8082 2.48492 20.6449 2.70766 20.5409 2.9601C20.3479 3.37587 20.1548 3.7768 19.9766 4.17773C19.7787 4.59351 19.5807 5.00433 19.3827 5.41021C19.6945 5.5587 20.036 5.72205 20.4221 5.94479C20.7785 5.38052 21.1349 4.81624 21.5061 4.26682Z" fill="url(#paint10_linear_1_347)"/>
<path d="M21.9813 7.0139C22.2288 6.71691 22.4812 6.42488 22.7386 6.1378C22.9911 5.84082 23.2732 5.55868 23.5405 5.26169C23.689 5.0835 23.8523 4.84592 23.7038 4.60834C23.6741 4.56874 23.6494 4.52913 23.6296 4.48953C23.392 4.28165 23.1544 4.07376 22.9168 3.86588C22.9069 3.86588 22.902 3.86588 22.902 3.86588C22.6644 3.80648 22.4713 3.92527 22.3229 4.08861C22.0704 4.3559 21.8774 4.66773 21.6843 4.94986C21.4468 5.28645 21.2191 5.62797 21.0013 5.97445C20.9518 6.05365 20.9023 6.13285 20.8528 6.21205C21.1201 6.39024 21.4171 6.58327 21.7289 6.82086C21.8081 6.88025 21.8922 6.9446 21.9813 7.0139Z" fill="url(#paint11_linear_1_347)"/>
<path d="M23.3029 8.33553C23.6741 8.03855 24.0602 7.77126 24.4017 7.45943C24.6838 7.22184 25.0848 6.92486 25.2481 6.59818C25.3075 6.47938 25.2927 6.36059 25.263 6.2418C25.0155 5.94482 24.7581 5.65278 24.4908 5.36569C24.4908 5.36569 24.4908 5.36075 24.4908 5.35085C24.2087 5.20236 23.9859 5.38054 23.8077 5.58843C23.4959 5.94481 23.1692 6.28634 22.8722 6.62788C22.6792 6.85061 22.4862 7.07335 22.308 7.29609C22.6792 7.62277 23.0059 7.97915 23.3029 8.33553Z" fill="url(#paint12_linear_1_347)"/>
<path d="M25.3818 8.92947C25.6045 8.75128 25.857 8.57308 26.05 8.35034C26.1539 8.2464 26.2876 8.09791 26.3024 7.93457C26.3321 7.78608 26.2727 7.66729 26.1985 7.54849C26.1094 7.44455 26.0203 7.34061 25.9015 7.32576C25.7233 7.28121 25.5303 7.34061 25.3669 7.4297C25.0848 7.57819 24.8175 7.78608 24.5799 7.97912C24.2532 8.2464 23.9563 8.52854 23.6741 8.84038C23.882 9.14726 24.0701 9.44919 24.2384 9.74617C24.6393 9.50858 25.0254 9.22645 25.3818 8.92947Z" fill="url(#paint13_linear_1_347)"/>
<path d="M25.6788 12.909C26.0351 12.8348 26.3618 12.7457 26.6885 12.6269C26.9558 12.5378 27.2082 12.419 27.4607 12.2854C27.6388 12.1963 27.9655 12.0775 28.0101 11.8399C28.0546 11.5726 27.9507 11.3053 27.8913 11.0529C27.8616 10.9341 27.8319 10.7114 27.6982 10.652C27.6883 10.6421 27.6735 10.6371 27.6537 10.6371C27.2973 10.5926 26.9112 10.8005 26.5994 10.9341C26.2579 11.0974 25.9015 11.2608 25.56 11.439C25.3966 11.5281 25.2481 11.6172 25.0848 11.7211C25.2184 12.1666 25.3224 12.5824 25.3966 12.9536C25.5154 12.9239 25.6194 12.9239 25.6788 12.909Z" fill="url(#paint14_linear_1_347)"/>
<path d="M25.2036 14.7058C25.5154 14.7206 25.8272 14.7949 26.1391 14.7503C26.5153 14.7107 26.8865 14.681 27.2528 14.6612C27.5795 14.6464 27.9061 14.6315 28.2328 14.587C28.3665 14.5721 28.5446 14.5425 28.6634 14.4682C28.7525 14.394 28.7971 14.3197 28.8268 14.2306C28.7525 13.9336 28.6783 13.5921 28.5892 13.1615C28.5595 13.0229 28.5248 12.8843 28.4853 12.7457C28.4655 12.7358 28.4407 12.7259 28.411 12.716C28.0398 12.6269 27.6388 12.7605 27.2825 12.8793C26.6737 13.0575 26.0945 13.3248 25.4857 13.5179C25.5451 13.9633 25.5451 14.2752 25.5154 14.3791C25.4857 14.4682 25.3669 14.5722 25.2036 14.7058Z" fill="url(#paint15_linear_1_347)"/>
<path d="M27.7428 15.1216C27.2231 15.0919 26.7034 15.1067 26.1836 15.0622C25.7827 15.0325 25.3669 15.0473 24.9957 14.8692C24.9858 14.8692 24.9809 14.8642 24.9809 14.8543C24.7433 15.0177 24.4314 15.2107 24.0899 15.4186C24.7433 15.7304 25.4263 15.9828 26.0946 16.2798C26.5252 16.458 26.8964 16.6065 27.3716 16.4877C27.4508 16.4778 27.525 16.458 27.5943 16.4283C27.9062 16.2798 28.218 16.1165 28.515 15.9531C28.5892 15.9234 28.6486 15.8937 28.6932 15.8492C28.7031 15.7898 28.708 15.7255 28.708 15.6562C28.6783 15.1216 28.1734 15.1364 27.7428 15.1216Z" fill="url(#paint16_linear_1_347)"/>
<path d="M25.8718 16.8738C25.6787 16.6213 25.3372 16.4432 25.0551 16.3095C24.5651 16.0868 24.0305 15.9234 23.5108 15.7898C23.1395 16.0274 22.7386 16.2798 22.3525 16.562C22.3921 16.5917 22.4268 16.6213 22.4565 16.651C22.7089 16.8589 22.9613 17.052 23.1989 17.2896C23.4662 17.5568 23.7929 17.8835 24.179 17.9726C24.4017 18.032 24.6245 18.0023 24.8472 17.9281C25.0551 17.8093 25.2778 17.6905 25.4857 17.5568C25.6144 17.4776 25.7431 17.4034 25.8718 17.3341C25.946 17.1708 25.9609 17.0074 25.8718 16.8738Z" fill="url(#paint17_linear_1_347)"/>
<path d="M20.9567 18.4775C21.1547 18.6754 21.3576 18.8685 21.5655 19.0566C21.7882 19.2645 22.0407 19.5021 22.3228 19.606C22.4218 19.6357 22.5109 19.6505 22.5901 19.6505C22.6198 19.6011 22.6544 19.5516 22.694 19.5021C23.0504 19.1457 23.4513 18.8338 23.8671 18.5369C23.8572 18.4874 23.8374 18.4379 23.8077 18.3884C23.6889 18.1656 23.4959 17.9726 23.3029 17.8092C22.8722 17.4826 22.3971 17.1856 21.9516 16.8737C21.4764 17.2301 21.0309 17.6162 20.6449 18.0468C20.6251 18.0666 20.6053 18.0914 20.5855 18.1211C20.7043 18.2399 20.8379 18.3587 20.9567 18.4775Z" fill="url(#paint18_linear_1_347)"/>
<path d="M19.0709 21.0464C19.2639 21.0613 19.457 21.0761 19.65 21.0761C20.0509 21.0613 20.4518 21.0464 20.8676 21.0464C21.2339 21.0365 21.6051 21.0316 21.9813 21.0316C22.2189 21.0316 22.4565 21.0019 22.605 20.8088C22.5307 20.6455 22.4862 20.4821 22.4565 20.3336C22.3525 20.1852 22.2041 20.0812 22.0259 19.9773C21.7437 19.8288 21.4467 19.6506 21.1795 19.4724C20.8528 19.2794 20.5409 19.0863 20.1994 18.9081C20.1549 18.8784 20.0806 18.8487 20.0212 18.819C19.3827 19.6951 19.0412 20.497 18.8481 21.0464C18.9273 21.0365 19.0016 21.0365 19.0709 21.0464Z" fill="url(#paint19_linear_1_347)"/>
<path d="M20.7934 23.749C21.1646 23.5856 21.5359 23.3777 21.8922 23.1699C22.1892 23.0065 22.5159 22.8283 22.8129 22.6353C23.095 22.4422 23.3326 22.2344 23.3029 21.9077C23.2138 21.7889 23.1099 21.6552 23.0059 21.5067C22.8129 21.4176 22.605 21.4028 22.3823 21.4176C21.9219 21.4473 21.4616 21.477 20.9864 21.4919C20.1994 21.5216 19.4421 21.6552 18.6551 21.7146C18.6551 21.7443 18.6551 21.7592 18.6551 21.7592C18.6551 21.7592 19.6649 23.0362 20.3331 23.8826C20.4964 23.8381 20.6449 23.8084 20.7934 23.749Z" fill="url(#paint20_linear_1_347)"/>
<path d="M23.1841 22.6649C22.8723 22.8431 22.5456 23.0065 22.2337 23.1847C21.6843 23.5262 21.1498 23.8826 20.5855 24.1796C20.7934 24.4469 20.9419 24.625 20.9419 24.6102C20.9419 24.5359 22.0853 25.6793 22.0853 25.2933C22.0853 24.8775 22.8574 24.3132 23.1247 24.0459C23.3474 23.8232 23.5999 23.5856 23.7929 23.3332C24.0008 23.051 23.986 22.858 23.8523 22.6204C23.6444 22.4571 23.392 22.561 23.1841 22.6649Z" fill="url(#paint21_linear_1_347)"/>
<path d="M25.4263 11.0381C25.753 10.8599 26.0648 10.6817 26.4064 10.548C26.6885 10.4292 27.1785 10.2807 27.327 9.98376C27.3864 9.87982 27.3864 9.74617 27.3567 9.61253C27.327 9.55313 27.2973 9.49869 27.2676 9.44919C27.2082 9.3106 27.1439 9.17696 27.0746 9.04826C27.0251 8.95917 26.9706 8.88492 26.9112 8.82553C26.8716 8.78593 26.8271 8.75623 26.7776 8.73643C26.5549 8.61764 26.3173 8.72158 26.1242 8.85523C25.753 9.07796 25.4115 9.34525 25.0699 9.61253C24.8621 9.77587 24.6393 9.95406 24.4463 10.1323C24.6393 10.5183 24.8027 10.9193 24.9363 11.2905C25.1046 11.2113 25.2679 11.1272 25.4263 11.0381Z" fill="url(#paint22_linear_1_347)"/>
<path d="M18.0759 1.46032C17.9274 1.44052 17.774 1.42567 17.6156 1.41577C17.5265 1.41577 17.4424 1.42072 17.3632 1.43062C17.3186 1.44547 17.2741 1.47516 17.2444 1.50486C17.081 1.68305 17.1107 2.02458 17.0959 2.24732C17.081 2.7225 17.081 3.19767 17.0959 3.65799C17.0959 4.02427 17.1157 4.39056 17.1553 4.75684C17.3186 4.81623 17.5414 4.86078 17.8087 4.92018C17.8285 4.83108 17.8483 4.74199 17.8681 4.65289C18.0165 4.05892 18.1205 3.46495 18.2096 2.85614C18.2393 2.64825 18.4175 1.96519 18.2838 1.60881C18.2244 1.53951 18.1551 1.49002 18.0759 1.46032Z" fill="url(#paint23_linear_1_347)"/>
<path d="M22.1149 25.4121V25.0705C21.4764 23.3777 19.3827 21.3137 19.3827 21.3137C20.437 17.0371 26.1242 14.7949 26.1242 14.7949C25.0254 5.45476 17.7196 4.25198 17.7196 4.25198C17.7344 3.43527 16.9474 1 16.9474 1C15.5813 1.77216 14.1409 3.24223 13.8439 3.58376C13.5469 3.92529 13.8736 4.17773 13.8736 4.17773C12.062 4.742 10.191 6.13782 10.0128 6.36056C9.83465 6.5833 11.1265 7.04362 11.1265 7.04362C8.05275 9.1522 5.86992 12.9239 5.86992 12.9239C4.80078 13.0872 4.72653 13.4882 4.97897 14.4979C5.23141 15.5225 5.91447 16.3392 5.91447 16.3392C5.46899 17.2896 7.08756 16.6213 7.08756 16.6213C6.93906 17.0223 6.95391 17.5123 7.3103 17.4677C7.66668 17.4381 11.0523 16.7104 11.1562 16.6065C11.275 16.5174 11.6314 14.0524 11.6314 14.0524C13.3539 12.9981 15.9377 13.5921 15.9377 13.5921C15.9377 13.5921 13.9924 15.671 11.4978 18.136C9.0031 20.5861 8.8843 22.2343 8.8843 22.2343C10.6514 23.9717 10.1613 25.3081 10.1613 25.3081L22.1149 25.4121Z" fill="url(#paint24_linear_1_347)"/>
<path d="M14.3191 18.3736C14.8537 17.8093 15.4179 17.2747 15.8931 16.755C17.2741 15.2849 18.6253 13.7406 19.4124 11.8696C18.9817 12.8942 17.4968 13.9782 16.695 14.7504C16.1455 15.2552 15.5813 15.7453 15.0021 16.2204C14.4676 16.6659 13.933 17.1411 13.3984 17.6014C12.9084 18.032 12.4035 18.4478 11.9432 18.923C11.4977 19.3833 11.0523 19.8882 10.785 20.497C10.4731 21.1801 10.5622 21.9819 10.978 22.6056C11.2899 23.0956 11.7353 23.4817 12.0323 23.9717C11.9284 23.0956 12.0026 22.1453 12.2847 21.3137C12.656 20.2149 13.4578 19.2497 14.3191 18.3736Z" fill="url(#paint25_linear_1_347)"/>
<g style="mix-blend-mode:multiply">
<path d="M12.953 25.3378C12.4927 25.2041 12.0027 25.0408 11.6166 24.7735C11.2157 24.5062 11.1117 23.9568 10.8444 23.5707C10.6563 23.2935 10.4385 23.0411 10.1911 22.8134C10.0129 22.6501 9.80498 22.5016 9.64164 22.2937C9.35951 21.9373 9.58225 21.4028 9.77528 21.0612C10.0723 20.5118 10.488 20.0366 10.8444 19.5318C11.2008 19.012 11.5572 18.5072 11.9878 18.0468C12.1809 17.8538 12.359 17.6459 12.5521 17.4677C12.9382 17.0519 13.3391 16.6807 13.74 16.3095C14.7498 15.4037 15.8338 14.5721 16.8583 13.696C17.3781 13.2654 17.8978 12.8199 18.3878 12.3596C18.6402 12.1072 18.8778 11.8547 19.1154 11.6023C19.3382 11.3647 19.6797 11.0529 19.7391 10.741C19.8133 10.3995 19.5163 10.1619 19.3085 9.95404C19.0709 9.71645 18.8333 9.47886 18.5809 9.25612C18.3136 9.01853 18.0314 8.7661 17.7344 8.55821C17.6008 8.46911 17.4672 8.39487 17.3187 8.30577C17.3286 8.31567 17.3385 8.32557 17.3484 8.33547C17.7196 8.79579 18.0908 9.41946 18.1948 9.99858C18.3136 10.6371 17.9572 11.1123 17.4375 11.439C16.9029 11.7656 16.3386 11.8696 15.7001 11.825C14.9725 11.7805 14.2152 11.6171 13.4876 11.6765C13.2797 11.6914 12.6115 11.7805 12.7154 11.3796C12.7748 11.142 12.9382 10.9341 13.0718 10.741C13.2797 10.4886 13.4579 10.2213 13.6658 9.96888C13.8737 9.68675 14.0964 9.43431 14.3488 9.18188C13.7549 9.49371 13.1609 9.82039 12.5966 10.1916C12.2106 10.4441 11.7799 10.6965 11.4978 11.038C11.2305 11.3647 11.0672 11.7359 10.9484 12.1369C10.7108 12.9833 10.5771 13.8445 10.3989 14.7058C10.3247 15.0176 10.295 15.4631 10.0723 15.7155C9.89408 15.9086 9.65649 15.9679 9.3892 15.9531C9.35951 15.9531 9.32981 15.9234 9.34466 15.8937C9.37436 15.6264 9.62679 15.4779 9.71589 15.2403C9.87923 14.884 9.38921 14.6612 9.13677 14.5424C8.73584 14.3642 8.5428 14.7652 8.26067 14.9582C7.99338 15.1364 7.71125 15.2997 7.38457 15.3294C7.36972 15.3294 7.34002 15.2997 7.34002 15.2849C7.29547 15.0918 7.26577 14.884 7.10243 14.7503C6.92424 14.6018 6.7312 14.5276 6.52331 14.4236C6.22633 14.29 5.92934 14.1118 5.91449 13.7406C5.8848 12.9387 6.46391 12.122 6.95394 11.5429C7.68155 10.7113 8.45371 9.90949 9.30011 9.18188C9.68619 8.85519 10.0723 8.49881 10.5177 8.21668C10.889 7.99394 11.2751 7.78605 11.6314 7.51877C11.7057 7.42967 11.7799 7.34058 11.8393 7.25148C11.6463 7.14754 11.4087 7.10299 11.186 7.11784C11.1167 7.12773 11.0474 7.13764 10.9781 7.14754C7.99338 9.27097 5.86995 12.9239 5.86995 12.9239C4.80081 13.0872 4.72656 13.4881 4.979 14.4979C5.23143 15.5225 5.91449 16.3392 5.91449 16.3392C5.46902 17.2895 7.08758 16.6213 7.08758 16.6213C6.93909 17.0222 6.95394 17.5123 7.31032 17.4677C7.6667 17.438 11.0523 16.7104 11.1563 16.6065C11.2751 16.5174 11.6314 14.0524 11.6314 14.0524C13.3539 12.9981 15.9377 13.5921 15.9377 13.5921C15.9377 13.5921 13.9925 15.671 11.4978 18.1359C9.00313 20.586 8.88433 22.2343 8.88433 22.2343C10.6514 23.9717 10.1614 25.3081 10.1614 25.3081L12.953 25.3378Z" fill="url(#paint26_linear_1_347)"/>
</g>
<g style="mix-blend-mode:multiply">
<path d="M19.3827 21.3137C20.437 17.0371 26.1242 14.7949 26.1242 14.7949C25.0254 5.45476 17.7196 4.25198 17.7196 4.25198C17.7344 3.43527 16.9474 1 16.9474 1C15.5813 1.77216 14.1409 3.24223 13.8439 3.58376C13.5469 3.92529 13.8736 4.17773 13.8736 4.17773C12.062 4.742 10.191 6.13782 10.0128 6.36056C9.9089 6.47935 10.295 6.68724 10.6365 6.85058C10.3247 6.31601 11.676 5.52901 12.0769 5.36566C12.9381 5.03898 13.8736 5.08353 14.6458 5.46961C14.6458 5.43991 14.6309 5.42506 14.6309 5.41021C14.4676 5.05383 14.3637 4.6529 14.3191 4.26682C14.2449 3.61346 14.5864 3.03434 15.017 2.57402C15.507 2.0543 16.0268 1.53457 16.6801 1.22274C16.7098 1.20789 16.7544 1.22274 16.7544 1.25244C16.9623 1.71276 16.9474 2.26219 16.9326 2.75221C16.9177 3.24223 16.888 3.7174 16.7098 4.17773C16.4871 4.72715 16.1456 5.29142 15.6852 5.70719C15.6555 5.75669 15.6308 5.81114 15.611 5.87054C15.6506 5.87054 15.6902 5.86558 15.7298 5.85569C15.809 5.82599 15.8882 5.79629 15.9674 5.76659C16.0565 5.7369 16.1604 5.7072 16.2495 5.69235C16.3287 5.68245 16.4079 5.67749 16.4871 5.67749C16.6554 5.65769 16.8237 5.65769 16.992 5.67749C17.482 5.73689 17.972 5.88538 18.4175 6.07842C19.353 6.47935 20.1697 7.13272 20.7785 7.94943C21.5507 8.98887 22.1446 10.1619 22.5307 11.3944C22.694 11.9142 22.8574 12.419 23.0356 12.9239C23.1247 13.1912 23.2732 13.5327 23.2138 13.8297C23.2286 13.8445 23.2286 13.8742 23.2138 13.9039C23.1247 14.1267 22.8722 14.1712 22.6792 14.2752C22.3327 14.4732 21.9961 14.6811 21.6695 14.8988C21.0161 15.3592 20.3627 15.8343 19.7688 16.3541C19.1896 16.8589 18.6848 17.4232 18.2096 18.032C17.7344 18.626 17.2741 19.2496 16.8583 19.8882C16.7841 19.9921 16.2198 20.9128 16.3534 20.987C16.591 21.1058 16.7544 21.3137 16.9177 21.5216C17.3483 22.0858 17.779 22.5907 18.0611 23.2589C18.2838 23.8232 18.462 24.4172 18.5214 25.026C18.5214 25.1299 18.5363 25.2636 18.5363 25.3824L22.1149 25.4121V25.0705C21.4764 23.3777 19.3827 21.3137 19.3827 21.3137Z" fill="url(#paint27_linear_1_347)"/>
</g>
<path d="M11.7057 8.63249C11.8245 8.57309 11.9729 8.58794 12.1066 8.58794C12.2848 8.60279 12.463 8.61764 12.6412 8.63249C12.8936 8.64734 13.1312 8.63249 13.3094 8.43945C13.4876 8.23156 13.6212 7.96427 13.8736 7.81578C14.1261 7.65244 14.3488 7.44455 14.3488 7.44455C14.1558 7.4891 14.0221 7.44455 14.0221 7.44455L14.0964 7.41485C14.0964 7.41485 13.6064 7.22181 12.9084 7.31091C12.2996 7.3703 11.7502 7.74154 11.7502 7.74154L11.8542 7.75638C11.8542 7.75638 11.7205 7.89003 11.5869 8.26126C11.5423 8.40975 11.4532 9.00372 11.4532 9.00372C11.4532 9.00372 11.5869 8.69188 11.7057 8.63249Z" fill="black"/>
<path d="M5.85508 14.2455C5.85508 14.2455 6.21146 14.5573 6.3154 15.0622C6.4342 15.5522 6.59754 15.7601 6.67178 15.5819C6.74603 15.4038 7.10241 14.884 6.93907 14.7801C6.77573 14.6761 5.85508 14.2455 5.85508 14.2455Z" fill="black"/>
<path d="M7.16183 16.5174C7.20638 16.458 7.29548 16.3689 7.38457 16.265C7.48357 16.1561 7.59741 16.0423 7.7261 15.9235C7.7954 15.874 7.86964 15.8245 7.94884 15.775C8.01813 15.7255 8.09733 15.6809 8.18643 15.6413C8.26067 15.5968 8.34976 15.5671 8.43886 15.5374C8.52795 15.4978 8.6121 15.4631 8.6913 15.4334C8.78039 15.3938 8.85959 15.3542 8.92889 15.3146C8.99818 15.2751 9.06253 15.2305 9.12192 15.181C9.18132 15.1365 9.22587 15.0919 9.25557 15.0325C9.28527 14.988 9.31496 14.9434 9.31496 14.8989C9.32486 14.8494 9.32486 14.8147 9.31496 14.7949C9.30506 14.7751 9.30012 14.7652 9.30012 14.7652C9.30012 14.7652 9.30012 14.7751 9.30012 14.7949C9.31496 14.8246 9.31496 14.8543 9.30012 14.884C9.28527 14.9286 9.27042 14.9731 9.22587 15.0177C9.18627 15.0573 9.14172 15.0969 9.09223 15.1365C8.97343 15.2107 8.82494 15.2849 8.6616 15.3592C8.5824 15.3889 8.49826 15.4186 8.40916 15.4483C8.32007 15.478 8.23097 15.5077 8.14188 15.5522C8.05278 15.5918 7.96864 15.6364 7.88944 15.6859C7.81025 15.7453 7.736 15.8047 7.66671 15.8641C7.53306 15.9829 7.42912 16.1165 7.34002 16.2353C7.25093 16.3392 7.19153 16.4432 7.14698 16.5174C7.10244 16.5768 7.08759 16.6214 7.08759 16.6214C7.08759 16.6214 7.11234 16.5867 7.16183 16.5174Z" fill="black"/>
<path d="M9.12188 14.6167C9.00309 14.6167 8.91399 14.5276 8.91399 14.5276C8.91399 14.5276 8.94369 14.7801 9.15158 14.8543C9.37432 14.9434 9.35947 15.2404 9.35947 15.2404C9.52281 15.0919 9.47826 14.8543 9.47826 14.8543C9.52281 14.8692 9.6416 14.9434 9.6416 14.9434C9.6416 14.9434 9.58221 14.7207 9.50796 14.6761C9.37432 14.5722 9.06248 14.5276 9.06248 14.5276L9.12188 14.6167Z" fill="black"/>
<path d="M15.9674 3.15314C15.4031 3.86591 14.5567 4.0441 14.8834 4.29653C15.2101 4.56382 15.1655 5.72206 15.3289 5.17264C15.4922 4.63807 16.3386 2.84132 16.3386 2.84132C16.398 2.72252 16.502 2.45523 15.9674 3.15314Z" fill="black"/>
<path d="M13.8885 4.25195C13.9033 4.2965 13.933 4.3559 13.9627 4.43014C13.9924 4.50934 14.0271 4.59843 14.0667 4.69743C14.1112 4.78652 14.1706 4.87561 14.2151 4.96471C14.2745 5.06865 14.3339 5.15775 14.3933 5.23199C14.423 5.27654 14.4527 5.32109 14.4824 5.35079C14.5121 5.39039 14.5418 5.42503 14.5715 5.45473C14.6012 5.48443 14.6309 5.51413 14.6606 5.52898C14.6804 5.54877 14.7002 5.56858 14.72 5.58838C14.7596 5.61807 14.7794 5.63292 14.7794 5.63292C14.7794 5.63292 14.7646 5.61808 14.7349 5.57353C14.725 5.55373 14.7052 5.53393 14.6755 5.51413C14.6606 5.48443 14.6458 5.45474 14.6161 5.42504C14.5765 5.35574 14.527 5.27654 14.4676 5.18745C14.423 5.09835 14.3636 5.00926 14.3042 4.92016C14.2003 4.72712 14.0815 4.54893 14.0073 4.41529C13.9677 4.34599 13.933 4.29155 13.9033 4.25195C13.8736 4.2074 13.8736 4.1777 13.8736 4.1777C13.8736 4.1777 13.8736 4.2074 13.8885 4.25195Z" fill="black"/>
<path d="M15.8931 5.76657C15.9525 5.73687 16.0565 5.70717 16.1604 5.66263C16.2792 5.61808 16.4129 5.55868 16.5465 5.48443C16.6802 5.41019 16.8286 5.33595 16.9623 5.24685C17.0959 5.15776 17.2296 5.06866 17.3484 4.96471C17.3979 4.91521 17.4474 4.86077 17.4969 4.80137C17.5464 4.75188 17.586 4.69742 17.6157 4.63803C17.6454 4.59348 17.675 4.53408 17.6899 4.48954C17.7097 4.44004 17.7196 4.40044 17.7196 4.37074C17.7344 4.3262 17.7196 4.2965 17.7196 4.28165C17.7196 4.30145 17.7146 4.33115 17.7047 4.37074C17.7047 4.40044 17.675 4.43014 17.6602 4.47469C17.6404 4.51429 17.6107 4.55884 17.5711 4.60834C17.5414 4.66773 17.4969 4.69743 17.4523 4.75683C17.4028 4.80633 17.3484 4.85087 17.289 4.89047C17.2296 4.93996 17.1652 4.98946 17.0959 5.03896C17.0365 5.08351 16.9771 5.12806 16.9029 5.1726C16.7692 5.2617 16.6356 5.33594 16.502 5.41019C16.3683 5.48443 16.2495 5.55868 16.1456 5.61808C15.9228 5.72202 15.7892 5.79627 15.7892 5.79627C15.7892 5.79627 15.8189 5.78142 15.8931 5.76657Z" fill="black"/>
<path d="M22.6495 25.6051C22.6495 25.3081 22.4119 25.0706 22.115 25.0706H9.43376C9.13678 25.0706 8.89919 25.3081 8.89919 25.6051C8.89919 25.9021 9.13678 26.1397 9.43376 26.1397H22.115C22.4119 26.1397 22.6495 25.9021 22.6495 25.6051Z" fill="url(#paint28_linear_1_347)"/>
<path d="M22.115 25.0706H14.8983C15.2398 25.323 15.2101 25.9318 14.824 26.1397H22.115C22.4119 26.1397 22.6495 25.9021 22.6495 25.6051C22.6495 25.3081 22.4119 25.0706 22.115 25.0706Z" fill="#020202"/>
<path d="M14.4676 8.72156C14.8537 9.0037 14.4824 9.53828 14.2894 9.80556C14.1112 10.058 13.9182 10.2956 13.7251 10.5332C13.6212 10.6668 13.3539 10.9192 13.3688 11.1123C13.3688 11.2014 13.8736 11.0974 13.933 11.0974C14.1409 11.0677 14.3637 11.0826 14.5715 11.1123C15.1952 11.2162 15.8931 11.4538 16.4871 11.142C17.7938 10.4589 16.7247 8.79581 16.1753 7.9791C15.7892 7.41483 15.3882 6.77632 15.1655 6.12296C15.1556 6.18235 15.1408 6.24671 15.121 6.316C15.0913 6.65753 14.9873 7.01391 14.8685 7.32574C14.6903 7.72667 14.4527 8.08305 14.1261 8.35033C14.0073 8.44933 13.8835 8.52853 13.7548 8.58793C13.9924 8.57308 14.2894 8.60277 14.4676 8.72156Z" fill="url(#paint29_linear_1_347)"/>
<path d="M22.7386 13.1169C22.4862 11.2014 20.9864 8.61763 20.4815 7.94942C19.8281 7.11786 18.9223 6.27145 17.8681 6.03387C17.5711 5.95962 17.2444 5.90023 16.9771 5.88538C21.1794 8.17215 22.6643 12.4784 22.7386 13.1169Z" fill="url(#paint30_linear_1_347)"/>
<path d="M16.3386 1.38609C16.3287 1.38609 16.3188 1.38609 16.3089 1.38609C16.205 1.49003 16.101 1.56428 15.9822 1.63852C15.3289 2.1434 14.334 3.00465 13.9924 3.42042C13.6063 3.8659 13.7103 3.95499 13.8736 4.17773C13.8736 4.17773 12.8045 4.40047 10.9335 5.6478C10.4286 5.98933 10.0871 6.27147 10.0128 6.36056C10.0029 6.36056 9.998 6.36551 9.998 6.37541C9.998 6.38531 9.998 6.39026 9.998 6.39026C9.998 6.39026 9.998 6.39521 9.998 6.40511C9.998 6.41501 9.998 6.42491 9.998 6.43481C9.998 6.43481 9.998 6.43975 9.998 6.44965C10.0079 6.44965 10.0128 6.45461 10.0128 6.46451C10.0128 6.46451 10.0178 6.46451 10.0277 6.46451C10.0277 6.47441 10.0277 6.47935 10.0277 6.47935C10.0376 6.48925 10.0425 6.4942 10.0425 6.4942C10.0524 6.5041 10.0623 6.514 10.0722 6.5239C10.0821 6.5338 10.097 6.5437 10.1168 6.5536C10.1168 6.5635 10.1168 6.56844 10.1168 6.56844C10.1267 6.56844 10.1366 6.57835 10.1465 6.59814C10.1564 6.59814 10.1613 6.59814 10.1613 6.59814C10.1811 6.60804 10.196 6.61795 10.2059 6.62784H10.2207C10.2306 6.63774 10.2405 6.64765 10.2504 6.65755C10.2603 6.65755 10.2653 6.65755 10.2653 6.65755C10.2851 6.66744 10.2999 6.67735 10.3098 6.68725H10.3247C10.6514 6.86544 11.1265 7.04362 11.1265 7.04362C8.1567 9.09281 6.00357 12.7012 5.86992 12.909C5.86992 12.9189 5.86992 12.9239 5.86992 12.9239C4.80078 13.0872 4.72654 13.4882 4.97897 14.4979C5.11262 15.0622 5.39475 15.5671 5.60264 15.9086C5.51355 15.5374 5.45415 15.181 5.45415 14.8097C5.45415 14.4682 5.54324 13.9633 5.92932 13.8445C6.18176 13.7554 6.43419 13.8297 6.68663 13.9039C7.01331 13.9782 7.36969 14.0227 7.71122 14.0079C9.98315 13.8742 10.2653 11.2014 10.7702 9.50859C11.0226 8.64734 11.3938 7.77123 12.1363 7.23666C12.6412 6.89513 13.2351 6.65755 13.8439 6.65755C14.3637 6.65755 15.1507 6.65754 15.0764 5.92993C15.0022 5.15777 14.2746 4.34107 14.9428 3.64316C15.3289 3.24223 15.908 2.97494 16.2198 2.51462C16.5316 2.05429 16.7098 1.56428 16.8732 1.04456C16.695 1.15345 16.5168 1.26729 16.3386 1.38609Z" fill="url(#paint31_linear_1_347)"/>
<g style="mix-blend-mode:screen" opacity="0.5">
<path d="M10.5623 30.1193C9.74557 30.3272 8.64673 31.5596 8.48339 33H11.6166C11.6166 32.0942 11.7651 30.8023 12.4481 30.1193H10.5623Z" fill="url(#paint32_linear_1_347)"/>
</g>
<defs>
<filter id="filter0_f_1_347" x="1" y="28" width="31" height="10" filterUnits="userSpaceOnUse" color-interpolation-filters="sRGB">
<feFlood flood-opacity="0" result="BackgroundImageFix"/>
<feBlend mode="normal" in="SourceGraphic" in2="BackgroundImageFix" result="shape"/>
<feGaussianBlur stdDeviation="2" result="effect1_foregroundBlur_1_347"/>
</filter>
<linearGradient id="paint0_linear_1_347" x1="-3246.94" y1="3139.05" x2="-2137.19" y2="3139.05" gradientUnits="userSpaceOnUse">
<stop stop-color="#A3A5A8"/>
<stop offset="0.3" stop-color="#434546"/>
<stop offset="0.6" stop-color="#201E1E"/>
</linearGradient>
<linearGradient id="paint1_linear_1_347" x1="11.3899" y1="25.7536" x2="11.3899" y2="29.4214" gradientUnits="userSpaceOnUse">
<stop stop-color="white" stop-opacity="0"/>
<stop offset="1" stop-color="white" stop-opacity="0.5"/>
</linearGradient>
<linearGradient id="paint2_linear_1_347" x1="-3457.19" y1="779.973" x2="-2569.48" y2="779.973" gradientUnits="userSpaceOnUse">
<stop stop-color="#A3A5A8"/>
<stop offset="0.4" stop-color="#434546"/>
<stop offset="0.9" stop-color="#201E1E"/>
</linearGradient>
<linearGradient id="paint3_linear_1_347" x1="-463.828" y1="143.332" x2="-1345.12" y2="143.332" gradientUnits="userSpaceOnUse">
<stop stop-color="#434546"/>
<stop offset="0.0001" stop-color="#2D2B2C"/>
<stop offset="0.9" stop-color="#201E1E"/>
</linearGradient>
<linearGradient id="paint4_linear_1_347" x1="10.4736" y1="3.202" x2="10.4736" y2="5.90022" gradientUnits="userSpaceOnUse">
<stop stop-color="white" stop-opacity="0"/>
<stop offset="1" stop-color="white" stop-opacity="0.5"/>
</linearGradient>
<linearGradient id="paint5_linear_1_347" x1="11.5454" y1="2.53857" x2="11.5454" y2="5.57354" gradientUnits="userSpaceOnUse">
<stop stop-color="white" stop-opacity="0"/>
<stop offset="1" stop-color="white" stop-opacity="0.5"/>
</linearGradient>
<linearGradient id="paint6_linear_1_347" x1="12.7857" y1="2.03879" x2="12.7857" y2="5.05384" gradientUnits="userSpaceOnUse">
<stop stop-color="white" stop-opacity="0"/>
<stop offset="1" stop-color="white" stop-opacity="0.5"/>
</linearGradient>
<linearGradient id="paint7_linear_1_347" x1="14.0073" y1="1.63852" x2="14.0073" y2="4.50441" gradientUnits="userSpaceOnUse">
<stop stop-color="white" stop-opacity="0"/>
<stop offset="1" stop-color="white" stop-opacity="0.5"/>
</linearGradient>
<linearGradient id="paint8_linear_1_347" x1="15.6407" y1="1.40097" x2="15.6407" y2="4.04412" gradientUnits="userSpaceOnUse">
<stop stop-color="white" stop-opacity="0"/>
<stop offset="1" stop-color="white" stop-opacity="0.5"/>
</linearGradient>
<linearGradient id="paint9_linear_1_347" x1="19.1761" y1="1.74246" x2="19.1761" y2="5.27658" gradientUnits="userSpaceOnUse">
<stop stop-color="white" stop-opacity="0"/>
<stop offset="1" stop-color="white" stop-opacity="0.5"/>
</linearGradient>
<linearGradient id="paint10_linear_1_347" x1="20.6998" y1="2.56271" x2="20.6998" y2="5.94479" gradientUnits="userSpaceOnUse">
<stop stop-color="white" stop-opacity="0"/>
<stop offset="1" stop-color="white" stop-opacity="0.5"/>
</linearGradient>
<linearGradient id="paint11_linear_1_347" x1="22.3076" y1="3.85034" x2="22.3076" y2="7.0139" gradientUnits="userSpaceOnUse">
<stop stop-color="white" stop-opacity="0"/>
<stop offset="1" stop-color="white" stop-opacity="0.5"/>
</linearGradient>
<linearGradient id="paint12_linear_1_347" x1="23.7985" y1="5.29605" x2="23.7985" y2="8.33553" gradientUnits="userSpaceOnUse">
<stop stop-color="white" stop-opacity="0"/>
<stop offset="1" stop-color="white" stop-opacity="0.5"/>
</linearGradient>
<linearGradient id="paint13_linear_1_347" x1="24.9922" y1="7.31061" x2="24.9922" y2="9.74617" gradientUnits="userSpaceOnUse">
<stop stop-color="white" stop-opacity="0"/>
<stop offset="1" stop-color="white" stop-opacity="0.5"/>
</linearGradient>
<linearGradient id="paint14_linear_1_347" x1="26.5528" y1="10.631" x2="26.5528" y2="12.9536" gradientUnits="userSpaceOnUse">
<stop stop-color="white" stop-opacity="0"/>
<stop offset="1" stop-color="white" stop-opacity="0.5"/>
</linearGradient>
<linearGradient id="paint15_linear_1_347" x1="27.0152" y1="12.687" x2="27.0152" y2="14.7644" gradientUnits="userSpaceOnUse">
<stop stop-color="white" stop-opacity="0"/>
<stop offset="1" stop-color="white" stop-opacity="0.5"/>
</linearGradient>
<linearGradient id="paint16_linear_1_347" x1="26.399" y1="14.8543" x2="26.399" y2="16.5304" gradientUnits="userSpaceOnUse">
<stop stop-color="white" stop-opacity="0"/>
<stop offset="1" stop-color="white" stop-opacity="0.5"/>
</linearGradient>
<linearGradient id="paint17_linear_1_347" x1="24.1428" y1="15.7898" x2="24.1428" y2="18.0042" gradientUnits="userSpaceOnUse">
<stop stop-color="white" stop-opacity="0"/>
<stop offset="1" stop-color="white" stop-opacity="0.5"/>
</linearGradient>
<linearGradient id="paint18_linear_1_347" x1="22.2263" y1="16.8737" x2="22.2263" y2="19.6505" gradientUnits="userSpaceOnUse">
<stop stop-color="white" stop-opacity="0"/>
<stop offset="1" stop-color="white" stop-opacity="0.5"/>
</linearGradient>
<linearGradient id="paint19_linear_1_347" x1="20.7266" y1="18.819" x2="20.7266" y2="21.0761" gradientUnits="userSpaceOnUse">
<stop stop-color="white" stop-opacity="0"/>
<stop offset="1" stop-color="white" stop-opacity="0.5"/>
</linearGradient>
<linearGradient id="paint20_linear_1_347" x1="20.9803" y1="21.4126" x2="20.9803" y2="23.8826" gradientUnits="userSpaceOnUse">
<stop stop-color="white" stop-opacity="0"/>
<stop offset="1" stop-color="white" stop-opacity="0.5"/>
</linearGradient>
<linearGradient id="paint21_linear_1_347" x1="22.2684" y1="22.5353" x2="22.2684" y2="25.3731" gradientUnits="userSpaceOnUse">
<stop stop-color="white" stop-opacity="0"/>
<stop offset="1" stop-color="white" stop-opacity="0.5"/>
</linearGradient>
<linearGradient id="paint22_linear_1_347" x1="25.9112" y1="8.68442" x2="25.9112" y2="11.2905" gradientUnits="userSpaceOnUse">
<stop stop-color="white" stop-opacity="0"/>
<stop offset="1" stop-color="white" stop-opacity="0.5"/>
</linearGradient>
<linearGradient id="paint23_linear_1_347" x1="17.7089" y1="1.41577" x2="17.7089" y2="4.92018" gradientUnits="userSpaceOnUse">
<stop stop-color="white" stop-opacity="0"/>
<stop offset="1" stop-color="white" stop-opacity="0.5"/>
</linearGradient>
<linearGradient id="paint24_linear_1_347" x1="-573.583" y1="960.394" x2="-1656.03" y2="960.394" gradientUnits="userSpaceOnUse">
<stop stop-color="#434546"/>
<stop offset="0.0001" stop-color="#2D2B2C"/>
<stop offset="0.9" stop-color="#201E1E"/>
</linearGradient>
<linearGradient id="paint25_linear_1_347" x1="15.0054" y1="11.8696" x2="15.0054" y2="23.9717" gradientUnits="userSpaceOnUse">
<stop stop-color="white" stop-opacity="0"/>
<stop offset="1" stop-color="white" stop-opacity="0.5"/>
</linearGradient>
<linearGradient id="paint26_linear_1_347" x1="1.82601" y1="19.71" x2="16.0812" y2="13.2506" gradientUnits="userSpaceOnUse">
<stop stop-color="#D9D9D9" stop-opacity="0"/>
<stop offset="0.46875" stop-color="#757575"/>
<stop offset="1" stop-color="#030303"/>
</linearGradient>
<linearGradient id="paint27_linear_1_347" x1="18.0599" y1="1" x2="18.0599" y2="25.4121" gradientUnits="userSpaceOnUse">
<stop stop-color="#D9D9D9" stop-opacity="0"/>
<stop offset="0.46875" stop-color="#757575"/>
<stop offset="1" stop-color="#030303"/>
</linearGradient>
<linearGradient id="paint28_linear_1_347" x1="-3713.32" y1="827.356" x2="-2452.41" y2="827.356" gradientUnits="userSpaceOnUse">
<stop stop-color="#A3A5A8"/>
<stop offset="0.9" stop-color="#050505"/>
</linearGradient>
<linearGradient id="paint29_linear_1_347" x1="15.2392" y1="6.12296" x2="15.2392" y2="11.2971" gradientUnits="userSpaceOnUse">
<stop stop-color="white" stop-opacity="0"/>
<stop offset="1" stop-color="white" stop-opacity="0.5"/>
</linearGradient>
<linearGradient id="paint30_linear_1_347" x1="19.8578" y1="5.88538" x2="19.8578" y2="13.1169" gradientUnits="userSpaceOnUse">
<stop stop-color="white" stop-opacity="0"/>
<stop offset="1" stop-color="white" stop-opacity="0.5"/>
</linearGradient>
<linearGradient id="paint31_linear_1_347" x1="10.8656" y1="1.04456" x2="10.8656" y2="15.9086" gradientUnits="userSpaceOnUse">
<stop stop-color="white" stop-opacity="0"/>
<stop offset="1" stop-color="white" stop-opacity="0.5"/>
</linearGradient>
<linearGradient id="paint32_linear_1_347" x1="10.4658" y1="30.1193" x2="10.4658" y2="33" gradientUnits="userSpaceOnUse">
<stop stop-color="white" stop-opacity="0"/>
<stop offset="1" stop-color="white" stop-opacity="0.5"/>
</linearGradient>
</defs>
</svg>
