<svg width="33" height="36" viewBox="0 0 33 36" fill="none" xmlns="http://www.w3.org/2000/svg">
<g filter="url(#filter0_f_1_464)">
<ellipse cx="15.5" cy="31" rx="11.5" ry="1" fill="#3D3D3D"/>
</g>
<path d="M23.8143 28.0652L10.2895 28.0808C10.2739 28.0186 10.2584 27.8634 10.2584 27.8013C10.2584 27.3975 10.569 27.0714 10.9572 27.0714H23.1156C23.5038 27.0714 23.8143 27.3975 23.8143 27.8013C23.8143 27.8634 23.8299 28.0031 23.8143 28.0652Z" fill="url(#paint0_linear_1_464)"/>
<g style="mix-blend-mode:multiply" opacity="0.5">
<path d="M23.8143 27.8013C23.8143 27.8634 23.8299 28.0031 23.8143 28.0652L10.2895 28.0808C10.2739 28.0187 10.2584 27.8634 10.2584 27.8013C10.2584 27.7702 10.2636 27.734 10.2739 27.6926H23.8143C23.8143 27.734 23.8143 27.7702 23.8143 27.8013Z" fill="#221F1F"/>
</g>
<path d="M26.0814 31H8.0069C8.0069 29.3385 9.03175 27.9876 10.305 27.9876H23.7678C25.0566 27.9876 26.0814 29.3385 26.0814 31Z" fill="url(#paint1_linear_1_464)"/>
<path d="M26.0814 31H8.0069C11.4696 30.9534 13.1156 30.5807 13.5348 30.4876C15.3671 30.0994 17.1373 29.3851 18.597 28.2205C18.6798 28.148 18.7626 28.0704 18.8454 27.9876H23.7678C25.0566 27.9876 26.0814 29.3385 26.0814 31Z" fill="#221F1F"/>
<path d="M20.5069 4.46273C20.5069 6.37267 18.9541 7.92546 17.0441 7.92546C15.1187 7.92546 13.5814 6.37267 13.5814 4.46273C13.5814 2.55279 15.1187 1 17.0441 1C18.9541 1 20.5069 2.55279 20.5069 4.46273Z" fill="url(#paint2_linear_1_464)"/>
<path d="M20.5069 4.46273C20.5069 6.37267 18.9541 7.92546 17.0441 7.92546C15.1187 7.92546 13.5814 6.37267 13.5814 4.46273C13.5814 2.55279 15.1187 1 17.0441 1C18.9541 1 20.5069 2.55279 20.5069 4.46273Z" fill="url(#paint3_linear_1_464)"/>
<path d="M22.8206 19.5559L17.5566 19.8665H16.5162L11.2523 19.5559C14.8082 17.6926 15.1032 10.705 15.1032 10.705L15.2119 9.95963L17.0442 10.146L18.861 9.95963L18.9696 10.705C18.9696 10.705 19.2647 17.6926 22.8206 19.5559Z" fill="url(#paint4_linear_1_464)"/>
<path d="M17.5411 10.0994L18.861 9.95963L18.9696 10.705C18.9696 10.705 19.2647 17.6926 22.8206 19.5559L19.8082 19.7267C19.6529 19.6025 19.5028 19.4679 19.3578 19.323C18.6436 18.5621 18.2709 17.5683 18.069 16.5745C17.8361 15.4099 17.7429 14.2453 17.6808 13.0652C17.6342 12.0714 17.5721 11.0776 17.5411 10.0994Z" fill="#221F1F"/>
<path d="M12.3702 9.50931H16.6404H17.4323H21.7025L18.9851 10.705H17.4323H16.6404H15.0876L12.3702 9.50931Z" fill="url(#paint5_linear_1_464)"/>
<path d="M24.5131 24.2609C24.42 26.264 23.1467 27.0714 23.1467 27.0714H10.9262C10.9262 27.0714 9.65287 26.264 9.5597 24.2609C9.41995 21.264 11.9044 20.3323 11.9044 20.3323L14.8392 20.1149L17.0286 20.1925L19.2336 20.1149L22.1684 20.3323C22.1684 20.3323 24.6529 21.264 24.5131 24.2609Z" fill="url(#paint6_linear_1_464)"/>
<path d="M24.5131 24.2609C24.4199 26.264 23.1466 27.0714 23.1466 27.0714H19.5752C19.9945 26.6677 20.3516 26.1863 20.6156 25.6739C21.0659 24.8354 21.3143 23.8572 21.2522 22.8944C21.1746 21.8385 20.6 20.9224 19.9013 20.1615L22.1684 20.3323C22.1684 20.3323 24.6528 21.264 24.5131 24.2609Z" fill="#221F1F"/>
<path d="M22.8206 19.5559L22.1684 20.3323H18.8299H15.1653H11.9044L11.2523 19.5559H22.8206Z" fill="url(#paint7_linear_1_464)"/>
<g opacity="0.5">
<path d="M20.5069 4.46274C20.5069 6.37268 18.9541 7.92547 17.0442 7.92547C15.4603 7.92547 14.1404 6.86957 13.7212 5.441C14.3423 6.27951 15.3516 6.83851 16.5007 6.83851C18.4106 6.83851 19.9634 5.28572 19.9634 3.37578C19.9634 3.03417 19.9013 2.70808 19.8081 2.39752C20.2429 2.97206 20.5069 3.68634 20.5069 4.46274Z" fill="black"/>
</g>
<path d="M21.7025 9.50933H17.4323H16.6404H12.3702L15.0876 7.31989H16.6404H17.4323H18.9851L21.7025 9.50933Z" fill="url(#paint8_linear_1_464)"/>
<path d="M21.7025 9.50933H17.4323H16.6404H12.3702L15.0876 7.31989H16.6404H17.4323H18.9851L21.7025 9.50933Z" fill="url(#paint9_linear_1_464)"/>
<path d="M17.3858 7.31989H18.9852L21.7026 9.50933H19.2026C19.1249 9.36958 19.0318 9.22982 18.9386 9.1056C18.6591 8.7174 18.302 8.39132 17.9914 8.03418C17.7895 7.80126 17.5877 7.5528 17.3858 7.31989Z" fill="#221F1F"/>
<path d="M12.0287 27.972H14.0783C13.4572 28.2205 12.9603 28.7795 12.774 29.4783C12.6342 29.9596 12.6187 30.4876 12.6343 31H9.6684C9.69945 28.3292 11.9821 28.0031 12.0287 27.972Z" fill="url(#paint10_linear_1_464)"/>
<path d="M12.7895 20.3323H14.8702C14.6994 20.6273 14.5286 20.9379 14.4199 21.1087C13.9696 21.7919 13.597 22.5217 13.4106 23.3292C13.2243 24.1367 13.2553 25.0062 13.4572 25.8292C13.5504 26.1708 13.6901 26.5124 13.8765 26.8075C13.9386 26.9006 14.0007 26.9938 14.0628 27.087H11.982C11.982 27.087 11.982 27.0818 11.982 27.0714C11.9976 27.0714 11.9665 27.0714 11.8734 26.9938C11.7336 26.8696 11.6249 26.7143 11.5162 26.559C11.2988 26.2485 11.1435 25.9224 11.0193 25.5652C10.7709 24.913 10.7398 24.1988 10.8485 23.5155C11.0349 22.3199 11.7026 20.9845 12.7895 20.3634C12.7999 20.3634 12.7999 20.353 12.7895 20.3323Z" fill="url(#paint11_linear_1_464)"/>
<path d="M17.1839 7.30436H15.8019C15.7553 7.25777 15.5069 7.07143 15.4137 7.00932C15.274 6.91615 15.1498 6.80746 15.0255 6.68324C14.7771 6.43479 14.5908 6.13975 14.42 5.84472C14.1094 5.22361 13.9696 4.50932 14.0162 3.82609C14.0783 3.14286 14.3423 2.49069 14.7926 1.97827C14.9479 1.79193 15.1342 1.60559 15.3361 1.45031C15.7398 1.21739 16.2057 1.06212 16.687 1.01553C15.5845 1.55901 14.8082 2.70808 14.8082 3.9969C14.8082 5.51864 15.7864 6.91616 17.1839 7.30436Z" fill="url(#paint12_linear_1_464)"/>
<path d="M15.4914 10.6895H16.7181C16.7181 11.0621 16.7026 11.559 16.687 11.9317C16.6094 13.205 16.4231 14.4938 16.3144 15.7671C16.2523 16.4037 16.1901 17.0559 16.0349 17.677C15.8796 18.2982 15.6156 18.9659 15.3206 19.5404C15.3206 19.5404 15.3206 19.5456 15.3206 19.5559H12.3547C12.3703 19.587 13.0535 18.9503 13.1001 18.8882C13.861 17.9876 14.2957 16.8851 14.6063 15.7671C14.9013 14.7578 15.1187 13.7329 15.274 12.7081C15.3361 12.3354 15.4448 11.559 15.4914 11.0932C15.5224 10.8913 15.5224 10.736 15.5069 10.705C15.5069 10.705 15.5017 10.6998 15.4914 10.6895Z" fill="url(#paint13_linear_1_464)"/>
<path d="M15.3361 9.50932C15.3516 9.50932 15.3516 9.50932 15.3516 9.52485H13.628C13.7522 9.3851 13.892 9.2764 14.0162 9.13665C14.3733 8.79503 14.715 8.46895 15.0721 8.12733C15.305 7.89441 15.6622 7.63044 15.8174 7.31988C15.8174 7.31988 15.8123 7.3147 15.8019 7.30435H17.1839C17.2046 7.3147 17.2253 7.31988 17.246 7.31988C16.8578 7.69255 15.6156 8.96585 15.4603 9.15218C15.2584 9.40063 15.3361 9.4938 15.3361 9.50932Z" fill="url(#paint14_linear_1_464)"/>
<defs>
<filter id="filter0_f_1_464" x="0" y="26" width="31" height="10" filterUnits="userSpaceOnUse" color-interpolation-filters="sRGB">
<feFlood flood-opacity="0" result="BackgroundImageFix"/>
<feBlend mode="normal" in="SourceGraphic" in2="BackgroundImageFix" result="shape"/>
<feGaussianBlur stdDeviation="2" result="effect1_foregroundBlur_1_464"/>
</filter>
<linearGradient id="paint0_linear_1_464" x1="14693.4" y1="805.558" x2="15840.8" y2="805.558" gradientUnits="userSpaceOnUse">
<stop stop-color="#201E1E"/>
<stop offset="0.2" stop-color="#A3A5A8"/>
<stop offset="0.6" stop-color="#434546"/>
<stop offset="1" stop-color="#201E1E"/>
</linearGradient>
<linearGradient id="paint1_linear_1_464" x1="517.709" y1="146.376" x2="1437.7" y2="146.376" gradientUnits="userSpaceOnUse">
<stop stop-color="#434546"/>
<stop offset="0.0001" stop-color="#2D2B2C"/>
<stop offset="0.9" stop-color="#201E1E"/>
</linearGradient>
<linearGradient id="paint2_linear_1_464" x1="7817.89" y1="4179.82" x2="8133.69" y2="4179.82" gradientUnits="userSpaceOnUse">
<stop stop-color="#A3A5A8"/>
<stop offset="0.4" stop-color="#434546"/>
<stop offset="0.9" stop-color="#201E1E"/>
</linearGradient>
<linearGradient id="paint3_linear_1_464" x1="208.879" y1="273.171" x2="561.386" y2="273.171" gradientUnits="userSpaceOnUse">
<stop stop-color="#434546"/>
<stop offset="0.0001" stop-color="#2D2B2C"/>
<stop offset="0.9" stop-color="#201E1E"/>
</linearGradient>
<linearGradient id="paint4_linear_1_464" x1="337.479" y1="399.299" x2="926.307" y2="399.299" gradientUnits="userSpaceOnUse">
<stop stop-color="#434546"/>
<stop offset="0.0001" stop-color="#2D2B2C"/>
<stop offset="0.9" stop-color="#201E1E"/>
</linearGradient>
<linearGradient id="paint5_linear_1_464" x1="10332" y1="796.489" x2="10819.2" y2="796.489" gradientUnits="userSpaceOnUse">
<stop stop-color="#201E1E"/>
<stop offset="0.2" stop-color="#A3A5A8"/>
<stop offset="0.6" stop-color="#434546"/>
<stop offset="1" stop-color="#201E1E"/>
</linearGradient>
<linearGradient id="paint6_linear_1_464" x1="431.561" y1="293.506" x2="1193.27" y2="293.506" gradientUnits="userSpaceOnUse">
<stop stop-color="#434546"/>
<stop offset="0.0001" stop-color="#2D2B2C"/>
<stop offset="0.9" stop-color="#201E1E"/>
</linearGradient>
<linearGradient id="paint7_linear_1_464" x1="12518.9" y1="580.814" x2="13443.2" y2="580.814" gradientUnits="userSpaceOnUse">
<stop stop-color="#201E1E"/>
<stop offset="0.2" stop-color="#A3A5A8"/>
<stop offset="0.6" stop-color="#434546"/>
<stop offset="1" stop-color="#201E1E"/>
</linearGradient>
<linearGradient id="paint8_linear_1_464" x1="10425.3" y1="1417.54" x2="10942.4" y2="1417.54" gradientUnits="userSpaceOnUse">
<stop stop-color="#A3A5A8"/>
<stop offset="0.4" stop-color="#434546"/>
<stop offset="0.9" stop-color="#201E1E"/>
</linearGradient>
<linearGradient id="paint9_linear_1_464" x1="275.541" y1="93.3652" x2="750.555" y2="93.3652" gradientUnits="userSpaceOnUse">
<stop stop-color="#434546"/>
<stop offset="0.0001" stop-color="#2D2B2C"/>
<stop offset="0.9" stop-color="#201E1E"/>
</linearGradient>
<linearGradient id="paint10_linear_1_464" x1="11.8734" y1="27.972" x2="11.8734" y2="31" gradientUnits="userSpaceOnUse">
<stop stop-color="white" stop-opacity="0"/>
<stop offset="1" stop-color="white" stop-opacity="0.5"/>
</linearGradient>
<linearGradient id="paint11_linear_1_464" x1="12.8297" y1="20.3323" x2="12.8297" y2="27.087" gradientUnits="userSpaceOnUse">
<stop stop-color="white" stop-opacity="0"/>
<stop offset="1" stop-color="white" stop-opacity="0.5"/>
</linearGradient>
<linearGradient id="paint12_linear_1_464" x1="15.5957" y1="1.01553" x2="15.5957" y2="7.30436" gradientUnits="userSpaceOnUse">
<stop stop-color="white" stop-opacity="0"/>
<stop offset="1" stop-color="white" stop-opacity="0.5"/>
</linearGradient>
<linearGradient id="paint13_linear_1_464" x1="14.5364" y1="10.6895" x2="14.5364" y2="19.557" gradientUnits="userSpaceOnUse">
<stop stop-color="white" stop-opacity="0"/>
<stop offset="1" stop-color="white" stop-opacity="0.5"/>
</linearGradient>
<linearGradient id="paint14_linear_1_464" x1="15.437" y1="7.30435" x2="15.437" y2="9.52485" gradientUnits="userSpaceOnUse">
<stop stop-color="white" stop-opacity="0"/>
<stop offset="1" stop-color="white" stop-opacity="0.5"/>
</linearGradient>
</defs>
</svg>
