<svg width="34" height="38" viewBox="0 0 34 38" fill="none" xmlns="http://www.w3.org/2000/svg">
<g filter="url(#filter0_f_1_535)">
<ellipse cx="16.5" cy="33" rx="11.5" ry="1" fill="#3D3D3D"/>
</g>
<path d="M20.8766 8.33704C20.9355 9.26522 18.5341 12.1676 18.5341 12.1676H14.4678C14.4678 12.1676 12.0663 9.26522 12.1252 8.33704C12.1547 7.83612 12.8619 6.06816 13.5101 4.5212C13.9226 5.25785 15.0718 7.21733 15.1013 7.2026C15.1455 7.18787 15.6317 6.68695 15.6022 6.64275C15.5727 6.61328 14.5414 4.62433 13.9521 3.47516C14.291 2.67958 14.5562 2.09025 14.6151 1.98712C14.7477 1.7072 15.0571 1.67773 15.0571 1.67773H17.93C17.93 1.67773 18.2394 1.7072 18.3867 1.98712C18.5341 2.28178 20.8029 7.4236 20.8766 8.33704Z" fill="url(#paint0_linear_1_535)"/>
<path d="M13.5101 4.52118C13.9521 5.28729 15.0276 7.14365 15.1013 7.20258C15.1013 7.21732 14.674 7.20259 14.4236 6.89319C14.2468 6.6722 14.1878 6.55433 14.07 6.30387C13.8195 5.75875 13.6427 5.09577 13.5101 4.52118Z" fill="black"/>
<path d="M20.8766 8.33704C20.9355 9.26522 18.5341 12.1676 18.5341 12.1676H14.4678C14.4678 12.1676 14.3352 12.0056 14.1289 11.7551C14.3548 11.814 14.5905 11.8582 14.8361 11.8877C17.3702 12.1529 19.4033 9.54514 19.1234 7.17313C18.9613 5.92083 18.4162 4.66852 17.768 3.60775C17.3702 2.93003 16.825 2.22285 16.1768 1.67773H17.93C17.93 1.67773 18.2394 1.7072 18.3867 1.98712C18.5341 2.28178 20.8029 7.4236 20.8766 8.33704Z" fill="black"/>
<path d="M15.0424 5.58197C14.7919 5.09578 14.4972 4.5212 14.2321 4.00554C14.4531 3.19523 14.6888 2.39965 14.9098 1.7072C14.9982 1.67774 15.0571 1.67773 15.0571 1.67773H15.9116C15.6022 2.69431 15.2634 4.04974 15.0424 5.58197Z" fill="url(#paint1_linear_1_535)"/>
<path d="M15.9558 12.1676H15.4107C14.453 11.3278 13.5543 10.0755 13.4217 8.18972C13.3775 7.57093 13.5985 6.43649 13.9079 5.21365C14.2468 5.78824 14.6593 6.49543 14.895 6.89322C14.8754 7.18788 14.8557 7.49235 14.8361 7.80665C14.7477 10.3702 15.2928 11.5488 15.9558 12.1676Z" fill="url(#paint2_linear_1_535)"/>
<path d="M18.2689 2.00184H14.733C14.453 2.00184 14.2321 1.76611 14.2321 1.50092C14.2321 1.22099 14.453 1 14.733 1H18.2689C18.5341 1 18.7698 1.22099 18.7698 1.50092C18.7698 1.76611 18.5341 2.00184 18.2689 2.00184Z" fill="url(#paint3_linear_1_535)"/>
<path d="M15.9116 2.00184H14.733C14.7133 2.00184 14.6937 1.99692 14.6741 1.9871C14.5415 1.66298 14.5562 1.25046 14.7919 1H15.838C15.7348 1.16206 15.7054 1.41252 15.7348 1.58932C15.7643 1.73665 15.8232 1.87415 15.9116 2.00184Z" fill="url(#paint4_linear_1_535)"/>
<path style="mix-blend-mode:multiply" opacity="0.5" d="M18.7256 1.69244C18.6519 1.86924 18.4751 2.00184 18.2689 2.00184H14.733C14.5267 2.00184 14.3499 1.86924 14.2762 1.69244C14.3057 1.69244 14.3352 1.69244 14.3646 1.69244H18.7256Z" fill="url(#paint5_linear_1_535)"/>
<path d="M18.6077 13.0368H14.4678C14.1879 13.0368 13.9669 12.8158 13.9669 12.5359C13.9669 12.256 14.1879 12.035 14.4678 12.035H18.6077C18.8877 12.035 19.1087 12.256 19.1087 12.5359C19.1087 12.8158 18.8877 13.0368 18.6077 13.0368Z" fill="#1C1C1C"/>
<path d="M15.6611 13.0368H15.0129C14.9245 12.9681 14.841 12.8895 14.7624 12.8011C14.6446 12.6538 14.5562 12.4622 14.6593 12.2854C14.733 12.1528 14.8508 12.0792 14.9834 12.035H15.6464C15.4991 12.197 15.4254 12.4328 15.4696 12.6538C15.4991 12.8011 15.558 12.9337 15.6611 13.0368Z" fill="url(#paint6_linear_1_535)"/>
<path style="mix-blend-mode:multiply" d="M19.1087 12.4622C19.1087 12.4917 19.1087 12.5162 19.1087 12.5359C19.1087 12.8158 18.8877 13.0368 18.6077 13.0368H14.4678C14.1879 13.0368 13.9669 12.8158 13.9669 12.5359C13.9669 12.5162 13.9718 12.4917 13.9816 12.4622H19.1087Z" fill="url(#paint7_linear_1_535)"/>
<path d="M20.4935 23.7477H16.7514H16.3388H12.6114C15.8674 16.8379 14.1289 14.1271 14.1289 14.1271L14.1141 13.5967L16.5451 13.6998L18.9908 13.5967L18.976 14.1271C18.976 14.1271 17.2375 16.8379 20.4935 23.7477Z" fill="url(#paint8_linear_1_535)"/>
<path d="M18.976 14.1271C18.976 14.1271 17.2375 16.8379 20.4935 23.7477H18.8287C18.0184 22.0387 17.267 20.3002 16.9429 18.4291C16.7514 17.3241 16.7219 16.1455 16.9282 15.0405C17.0018 14.5838 17.1344 14.0976 17.3407 13.6703L18.9908 13.5967L18.976 14.1271Z" fill="black"/>
<path d="M14.7477 23.7477H12.9797C13.8784 22.3923 14.6888 19.6519 14.9245 17.4862C15.1307 15.6593 14.8214 14.3481 14.5709 13.6262L15.1749 13.6409C15.4254 14.4217 15.7643 15.7477 15.8232 17.4862C15.8969 19.6814 15.4696 22.407 14.7477 23.7477Z" fill="url(#paint9_linear_1_535)"/>
<path d="M18.9171 14.1418H14.1731C13.849 14.1418 13.5985 13.8913 13.5985 13.5819C13.5985 13.2578 13.849 12.9926 14.1731 12.9926H18.9171C19.2265 12.9926 19.4917 13.2578 19.4917 13.5819C19.4917 13.8913 19.2265 14.1418 18.9171 14.1418Z" fill="#1C1C1C"/>
<path d="M15.3665 14.1418H14.5562C14.4482 14.0436 14.3548 13.9306 14.2763 13.8029C14.1731 13.5967 14.1879 13.3757 14.3352 13.1989C14.4236 13.0957 14.5267 13.0368 14.6593 12.9926H15.3076C15.0424 13.1694 14.8656 13.4346 15.0129 13.7735C15.0866 13.9355 15.2192 14.0534 15.3665 14.1418Z" fill="url(#paint10_linear_1_535)"/>
<path style="mix-blend-mode:multiply" d="M19.477 13.4788C19.4868 13.5083 19.4917 13.5427 19.4917 13.582C19.4917 13.8913 19.2265 14.1418 18.9171 14.1418H14.1731C13.849 14.1418 13.5985 13.8913 13.5985 13.582C13.5985 13.5427 13.5985 13.5083 13.5985 13.4788H19.477Z" fill="url(#paint11_linear_1_535)"/>
<path d="M20.523 25V25.0147H16.9135H16.1915H12.582V25C13.2597 24.9116 13.2744 23.8655 12.6114 23.7329H16.1915H16.9135H20.4788C19.8159 23.8655 19.8306 24.9116 20.523 25Z" fill="url(#paint12_linear_1_535)"/>
<path d="M20.523 25V25.0147H18.1215C17.7532 24.8379 17.5912 24.558 17.709 24.1455C17.7532 23.9834 17.8563 23.8508 17.9889 23.7329H20.4788C19.8158 23.8655 19.8306 24.9116 20.523 25Z" fill="black"/>
<path d="M23.337 27.9024C23.2781 28.1234 23.0571 28.3149 22.9098 28.4622C22.6888 28.6832 21.8048 29.4788 21.7901 29.4788C21.7901 29.4788 18.7109 29.4494 16.5451 29.4494C14.3794 29.4494 11.3149 29.4788 11.3149 29.4788C11.3002 29.4788 10.4015 28.6832 10.1952 28.4622C10.0331 28.3149 9.82688 28.1234 9.76795 27.9024C9.72375 27.7256 9.81215 27.5193 9.95948 27.4015C10.151 27.2247 10.3425 27.0626 10.5341 26.8858C10.7109 26.7385 10.8877 26.5912 11.0497 26.4291C11.3738 26.1344 12.3757 25.1915 12.5819 25H14.453H18.6372H20.5083C20.7293 25.1915 21.7311 26.1344 22.0405 26.4291C22.2173 26.5912 22.3941 26.7385 22.5562 26.8858C22.7477 27.0626 22.9392 27.2247 23.1455 27.4015C23.2781 27.5193 23.3812 27.7256 23.337 27.9024Z" fill="url(#paint13_linear_1_535)"/>
<path d="M23.337 27.9024C23.2781 28.1234 23.0571 28.3149 22.9098 28.4622C22.6888 28.6832 21.8048 29.4788 21.7901 29.4788C21.7901 29.4788 21.2155 29.4641 20.3905 29.4641C20.5378 29.302 20.6998 29.1252 20.8472 28.9484C21.1271 28.6243 21.3186 28.2413 21.3776 27.7993C21.4365 27.2689 20.7735 26.6943 20.4347 26.2523C20.0958 25.825 19.7422 25.4273 19.3886 25H20.5083C20.7293 25.1915 21.7312 26.1344 22.0405 26.4291C22.2173 26.5912 22.3941 26.7385 22.5562 26.8858C22.7477 27.0626 22.9393 27.2247 23.1455 27.4015C23.2781 27.5193 23.3812 27.7256 23.337 27.9024Z" fill="black"/>
<path d="M11.6833 29.4641C11.4475 29.4788 11.3149 29.4788 11.3149 29.4788C11.3002 29.4788 10.4015 28.6832 10.1952 28.4622C10.0626 28.3297 10.21 28.1971 10.1363 28.0203C10.5635 27.6667 12.9798 25.3241 13.2449 25H14.2615C12.744 27.4899 12.2431 27.8287 11.6833 29.4641Z" fill="url(#paint14_linear_1_535)"/>
<path d="M23.337 27.814C23.337 27.8435 23.337 27.873 23.337 27.9024C23.2781 28.1234 23.0571 28.3149 22.9098 28.4623C22.6888 28.6833 21.8048 29.4789 21.7901 29.4789C21.7901 29.4789 18.7109 29.4494 16.5451 29.4494C14.3794 29.4494 11.3149 29.4789 11.3149 29.4789C11.3002 29.4789 10.4015 28.6833 10.1952 28.4623C10.0332 28.3149 9.8269 28.1234 9.76796 27.9024C9.75814 27.873 9.75323 27.8435 9.75323 27.814H23.337Z" fill="url(#paint15_linear_1_535)"/>
<path d="M23.337 27.814C23.337 27.8435 23.337 27.873 23.337 27.9024C23.2781 28.1234 23.0571 28.3149 22.9098 28.4623C22.6888 28.6833 21.8048 29.4789 21.7901 29.4789C21.7901 29.4789 18.1216 29.4641 16.1031 29.4494C16.3192 29.4297 16.5304 29.4003 16.7367 29.361C17.6796 29.2137 18.151 28.9632 18.9319 28.3591C19.1234 28.2118 19.3002 28.035 19.4033 27.814H23.337Z" fill="black"/>
<path d="M23.0129 30.2155L10.1657 30.2302C10.1657 30.1713 10.151 30.0239 10.151 29.965C10.151 29.5819 10.4457 29.2726 10.814 29.2726H22.3646C22.733 29.2726 23.0276 29.5819 23.0276 29.965C23.0276 30.0239 23.0276 30.1565 23.0129 30.2155Z" fill="url(#paint16_linear_1_535)"/>
<g style="mix-blend-mode:multiply" opacity="0.5">
<path d="M23.0276 29.965C23.0276 30.0239 23.0276 30.1565 23.0129 30.2155L10.1657 30.2302C10.1657 30.1713 10.151 30.0239 10.151 29.965C10.151 29.9355 10.1559 29.9012 10.1657 29.8619H23.0129C23.0227 29.9012 23.0276 29.9355 23.0276 29.965Z" fill="#221F1F"/>
</g>
<path d="M25.1786 33H8C8 31.4235 8.98711 30.1418 10.1952 30.1418H22.9834C24.1915 30.1418 25.1786 31.4235 25.1786 33Z" fill="url(#paint17_linear_1_535)"/>
<path d="M25.1786 33H12.5525C13.7459 32.8821 14.9098 32.6169 16.0295 32.2781C17.0313 31.9539 19.1823 31.2762 20.1252 30.1418H22.9834C24.1915 30.1418 25.1786 31.4235 25.1786 33Z" fill="#020202"/>
<g style="mix-blend-mode:screen" opacity="0.5">
<path d="M13.2007 30.1418C12.523 30.8195 12.3757 32.1013 12.3757 33H9.26703C9.42909 31.5709 10.5193 30.348 11.3444 30.1418H13.2007Z" fill="url(#paint18_linear_1_535)"/>
</g>
<defs>
<filter id="filter0_f_1_535" x="1" y="28" width="31" height="10" filterUnits="userSpaceOnUse" color-interpolation-filters="sRGB">
<feFlood flood-opacity="0" result="BackgroundImageFix"/>
<feBlend mode="normal" in="SourceGraphic" in2="BackgroundImageFix" result="shape"/>
<feGaussianBlur stdDeviation="2" result="effect1_foregroundBlur_1_535"/>
</filter>
<linearGradient id="paint0_linear_1_535" x1="258.974" y1="413.93" x2="704.528" y2="413.93" gradientUnits="userSpaceOnUse">
<stop stop-color="#434546"/>
<stop offset="0.0001" stop-color="#2D2B2C"/>
<stop offset="0.9" stop-color="#201E1E"/>
</linearGradient>
<linearGradient id="paint1_linear_1_535" x1="15.0718" y1="1.67773" x2="15.0718" y2="5.58197" gradientUnits="userSpaceOnUse">
<stop stop-color="white" stop-opacity="0"/>
<stop offset="1" stop-color="white" stop-opacity="0.5"/>
</linearGradient>
<linearGradient id="paint2_linear_1_535" x1="14.6859" y1="5.21365" x2="14.6859" y2="12.1676" gradientUnits="userSpaceOnUse">
<stop stop-color="white" stop-opacity="0"/>
<stop offset="1" stop-color="white" stop-opacity="0.5"/>
</linearGradient>
<linearGradient id="paint3_linear_1_535" x1="142.197" y1="40.3723" x2="373.168" y2="40.3723" gradientUnits="userSpaceOnUse">
<stop stop-color="#434546"/>
<stop offset="0.0001" stop-color="#2D2B2C"/>
<stop offset="0.9" stop-color="#201E1E"/>
</linearGradient>
<linearGradient id="paint4_linear_1_535" x1="15.251" y1="1" x2="15.251" y2="2.00184" gradientUnits="userSpaceOnUse">
<stop stop-color="white" stop-opacity="0"/>
<stop offset="1" stop-color="white" stop-opacity="0.5"/>
</linearGradient>
<linearGradient id="paint5_linear_1_535" x1="1580.45" y1="180.958" x2="1580.45" y2="183.061" gradientUnits="userSpaceOnUse">
<stop stop-color="#A3A5A8"/>
<stop offset="0.4" stop-color="#434546"/>
<stop offset="0.9" stop-color="#201E1E"/>
</linearGradient>
<linearGradient id="paint6_linear_1_535" x1="15.1375" y1="12.035" x2="15.1375" y2="13.0368" gradientUnits="userSpaceOnUse">
<stop stop-color="white" stop-opacity="0"/>
<stop offset="1" stop-color="white" stop-opacity="0.5"/>
</linearGradient>
<linearGradient id="paint7_linear_1_535" x1="1826.46" y1="387.146" x2="1826.46" y2="392.432" gradientUnits="userSpaceOnUse">
<stop stop-color="#A3A5A8"/>
<stop offset="0.4" stop-color="#434546"/>
<stop offset="0.9" stop-color="#201E1E"/>
</linearGradient>
<linearGradient id="paint8_linear_1_535" x1="234.888" y1="412.531" x2="636.089" y2="412.531" gradientUnits="userSpaceOnUse">
<stop stop-color="#434546"/>
<stop offset="0.0001" stop-color="#2D2B2C"/>
<stop offset="0.9" stop-color="#201E1E"/>
</linearGradient>
<linearGradient id="paint9_linear_1_535" x1="14.4056" y1="13.6262" x2="14.4056" y2="23.7477" gradientUnits="userSpaceOnUse">
<stop stop-color="white" stop-opacity="0"/>
<stop offset="1" stop-color="white" stop-opacity="0.5"/>
</linearGradient>
<linearGradient id="paint10_linear_1_535" x1="14.7881" y1="12.9926" x2="14.7881" y2="14.1418" gradientUnits="userSpaceOnUse">
<stop stop-color="white" stop-opacity="0"/>
<stop offset="1" stop-color="white" stop-opacity="0.5"/>
</linearGradient>
<linearGradient id="paint11_linear_1_535" x1="2090.95" y1="449.921" x2="2090.95" y2="456.882" gradientUnits="userSpaceOnUse">
<stop stop-color="#A3A5A8"/>
<stop offset="0.4" stop-color="#434546"/>
<stop offset="0.9" stop-color="#201E1E"/>
</linearGradient>
<linearGradient id="paint12_linear_1_535" x1="2494.96" y1="964.168" x2="2885.66" y2="964.168" gradientUnits="userSpaceOnUse">
<stop stop-color="#201E1E"/>
<stop offset="0.2" stop-color="#A3A5A8"/>
<stop offset="0.6" stop-color="#434546"/>
<stop offset="1" stop-color="#201E1E"/>
</linearGradient>
<linearGradient id="paint13_linear_1_535" x1="393.019" y1="201.018" x2="1084.79" y2="201.018" gradientUnits="userSpaceOnUse">
<stop stop-color="#434546"/>
<stop offset="0.0001" stop-color="#2D2B2C"/>
<stop offset="0.9" stop-color="#201E1E"/>
</linearGradient>
<linearGradient id="paint14_linear_1_535" x1="12.1989" y1="25" x2="12.1989" y2="29.4788" gradientUnits="userSpaceOnUse">
<stop stop-color="white" stop-opacity="0"/>
<stop offset="1" stop-color="white" stop-opacity="0.5"/>
</linearGradient>
<linearGradient id="paint15_linear_1_535" x1="3921.89" y1="1295.41" x2="5084.66" y2="1295.41" gradientUnits="userSpaceOnUse">
<stop stop-color="#201E1E"/>
<stop offset="0.2" stop-color="#A3A5A8"/>
<stop offset="0.6" stop-color="#434546"/>
<stop offset="1" stop-color="#201E1E"/>
</linearGradient>
<linearGradient id="paint16_linear_1_535" x1="4035.38" y1="731.895" x2="4668.91" y2="731.895" gradientUnits="userSpaceOnUse">
<stop stop-color="#201E1E"/>
<stop offset="0.2" stop-color="#A3A5A8"/>
<stop offset="0.6" stop-color="#434546"/>
<stop offset="1" stop-color="#201E1E"/>
</linearGradient>
<linearGradient id="paint17_linear_1_535" x1="492.438" y1="142.469" x2="1366.83" y2="142.469" gradientUnits="userSpaceOnUse">
<stop stop-color="#434546"/>
<stop offset="0.0001" stop-color="#2D2B2C"/>
<stop offset="0.9" stop-color="#201E1E"/>
</linearGradient>
<linearGradient id="paint18_linear_1_535" x1="11.2339" y1="30.1418" x2="11.2339" y2="33" gradientUnits="userSpaceOnUse">
<stop stop-color="white" stop-opacity="0"/>
<stop offset="1" stop-color="white" stop-opacity="0.5"/>
</linearGradient>
</defs>
</svg>
