<svg width="65" height="36" viewBox="0 0 65 36" fill="none" xmlns="http://www.w3.org/2000/svg">
<path fill-rule="evenodd" clip-rule="evenodd" d="M59.6591 19.7161C59.6591 19.7161 65.4249 23.8577 64.9752 25.8315C64.5254 27.8054 57.5604 29.1517 57.5604 29.1517C57.5604 29.1517 55.3579 35.849 53.3283 35.9974C51.2987 36.1457 47.8393 30.0416 47.8393 30.0416C47.8393 30.0416 40.7243 30.0416 39.9055 28.1933C39.0868 26.3449 43.9416 21.1879 43.9416 21.1879C43.9416 21.1879 41.739 14.4905 43.2612 13.2013C44.7834 11.912 51.2411 14.8214 51.2411 14.8214C51.2411 14.8214 57.0068 10.6912 58.7596 11.7066C60.5124 12.7221 59.6591 19.7161 59.6591 19.7161Z" fill="url(#paint0_linear_1403_18159)"/>
<path fill-rule="evenodd" clip-rule="evenodd" d="M58.1369 20.3892C58.1369 20.3892 62.8648 23.812 62.5073 25.3979C62.1499 26.9839 56.4187 28.1362 56.4187 28.1362C56.4187 28.1362 54.6082 33.6242 52.9592 33.8409C51.3102 34.0577 48.4503 28.9463 48.4503 28.9463C48.4503 28.9463 42.6154 28.9463 41.9466 27.4288C41.2778 25.9114 45.2446 21.7241 45.2446 21.7241C45.2446 21.7241 43.4457 16.2247 44.6911 15.1294C45.9365 14.0341 51.241 16.4643 51.241 16.4643C51.241 16.4643 55.969 13.0415 57.4104 13.9086C58.8518 14.7758 58.1369 20.3892 58.1369 20.3892Z" fill="#432444"/>
<path fill-rule="evenodd" clip-rule="evenodd" d="M61.9883 25.3181C61.6423 26.8698 56.1533 27.9308 56.1533 27.9308C56.1533 27.9308 54.4236 33.202 52.8322 33.3503C51.2409 33.4986 48.6808 28.9691 48.5309 28.6839C48.5309 28.6839 42.9381 28.6839 42.2923 27.2349C41.6466 25.7859 45.4635 21.7241 45.4635 21.7241C45.4635 21.7241 43.7338 16.4643 44.933 15.4033C46.1323 14.3422 51.2062 16.6811 51.2062 16.6811C51.2062 16.6811 55.7266 13.4294 57.1104 14.2395C58.4942 15.0496 57.8138 20.5375 57.8138 20.5375C57.8138 20.5375 62.3342 23.7778 61.9883 25.3181Z" fill="url(#paint1_linear_1403_18159)"/>
<path fill-rule="evenodd" clip-rule="evenodd" d="M13.0253 14.2395C13.0253 14.2395 19.287 10.8851 20.8898 12.1288C22.4927 13.3724 20.7284 20.1839 20.7284 20.1839C20.7284 20.1839 25.883 25.0443 25.1796 26.9382C24.4761 28.8322 17.3842 29.2201 17.3842 29.2201C17.3842 29.2201 14.3168 35.5752 12.2757 35.4953C10.2346 35.4155 7.66309 28.8778 7.66309 28.8778C7.66309 28.8778 0.605779 27.9537 0.0407322 26.0141C-0.524315 24.0745 4.97628 19.5906 4.97628 19.5906C4.97628 19.5906 3.6847 12.665 5.36831 11.6039C7.05192 10.5429 13.0253 14.2395 13.0253 14.2395Z" fill="url(#paint2_linear_1403_18159)"/>
<path fill-rule="evenodd" clip-rule="evenodd" d="M12.9675 15.9167C12.9675 15.9167 18.1106 13.1556 19.4252 14.1824C20.7398 15.2093 19.2868 20.7999 19.2868 20.7999C19.2868 20.7999 23.5189 24.7818 22.9423 26.3335C22.3657 27.8852 16.5423 28.2503 16.5423 28.2503C16.5423 28.2503 14.0169 33.4644 12.3563 33.396C10.6958 33.3275 8.55092 27.9308 8.55092 27.9308C8.55092 27.9308 2.78515 27.1778 2.28929 25.5805C1.79343 23.9832 6.33688 20.3093 6.33688 20.3093C6.33688 20.3093 5.27595 14.6046 6.67127 13.7032C8.06659 12.8019 12.9675 15.9167 12.9675 15.9167Z" fill="#432444"/>
<path fill-rule="evenodd" clip-rule="evenodd" d="M12.9563 16.2361C12.9563 16.2361 17.8803 13.6005 19.1372 14.5818C20.3941 15.563 19.0104 20.914 19.0104 20.914C19.0104 20.914 23.058 24.7248 22.4698 26.2194C21.8817 27.714 16.335 28.0449 16.335 28.0449C16.335 28.0449 13.925 33.0422 12.3221 32.9852C10.7192 32.9282 8.66651 27.7825 8.66651 27.7825C8.66651 27.7825 3.11986 27.0523 2.68166 25.5006C2.24346 23.9489 6.55628 20.4462 6.55628 20.4462C6.55628 20.4462 5.54146 15.0039 6.86759 14.1254C8.19372 13.2468 12.9563 16.2361 12.9563 16.2361Z" fill="url(#paint3_linear_1403_18159)"/>
<path fill-rule="evenodd" clip-rule="evenodd" d="M38.5333 7.70185C38.5333 7.70185 46.7783 8.74011 47.4471 10.9992C48.116 13.2583 41.7391 18.5294 41.7391 18.5294C41.7391 18.5294 43.2843 26.6187 41.3239 27.9422C39.3635 29.2657 32.3177 24.8959 32.3177 24.8959C32.3177 24.8959 25.0298 28.855 23.1501 27.4174C21.2705 25.9798 23.2886 17.9932 23.2886 17.9932C23.2886 17.9932 17.2344 12.3569 18.0301 10.1435C18.8258 7.93004 27.1285 7.37097 27.1285 7.37097C27.1285 7.37097 30.6803 -0.0679871 33.0558 0.000469596C35.4313 0.0689263 38.5333 7.70185 38.5333 7.70185Z" fill="url(#paint4_linear_1403_18159)"/>
<path fill-rule="evenodd" clip-rule="evenodd" d="M37.2649 9.25355C37.2649 9.25355 44.0339 10.0978 44.5874 11.9576C45.1409 13.8173 39.894 18.1415 39.894 18.1415C39.894 18.1415 41.1741 24.7704 39.5596 25.8657C37.9452 26.961 32.1679 23.367 32.1679 23.367C32.1679 23.367 26.183 26.6073 24.6378 25.4321C23.0925 24.257 24.7531 17.6965 24.7531 17.6965C24.7531 17.6965 19.783 13.0757 20.4403 11.2502C21.0976 9.42469 27.9127 8.96831 27.9127 8.96831C27.9127 8.96831 30.8187 2.86425 32.7675 2.9213C34.7164 2.97834 37.2649 9.25355 37.2649 9.25355Z" fill="#432444"/>
<path fill-rule="evenodd" clip-rule="evenodd" d="M37.034 9.55024C37.034 9.55024 43.5148 10.3717 44.0337 12.1402C44.5526 13.9087 39.5479 18.0617 39.5479 18.0617C39.5479 18.0617 40.7702 24.4168 39.225 25.455C37.6797 26.4933 32.1446 23.059 32.1446 23.059C32.1446 23.059 26.3788 26.1738 24.9374 25.0443C23.496 23.9147 25.0527 17.6395 25.0527 17.6395C25.0527 17.6395 20.2901 13.2127 20.9244 11.467C21.5586 9.72139 28.074 9.28782 28.074 9.28782C28.074 9.28782 30.8531 3.44618 32.6866 3.50322C34.5201 3.56027 37.034 9.55024 37.034 9.55024Z" fill="url(#paint5_linear_1403_18159)"/>
<defs>
<linearGradient id="paint0_linear_1403_18159" x1="52.5928" y1="36.0935" x2="52.0728" y2="11.7011" gradientUnits="userSpaceOnUse">
<stop stop-color="#C1BDF1"/>
<stop offset="1" stop-color="#FBF9FE"/>
</linearGradient>
<linearGradient id="paint1_linear_1403_18159" x1="52.1057" y1="33.3503" x2="52.1057" y2="14.1026" gradientUnits="userSpaceOnUse">
<stop stop-color="#48365E"/>
<stop offset="1" stop-color="#685763"/>
</linearGradient>
<linearGradient id="paint2_linear_1403_18159" x1="21.8399" y1="28.1303" x2="-0.450057" y2="17.9103" gradientUnits="userSpaceOnUse">
<stop stop-color="#C1BDF1"/>
<stop offset="1" stop-color="#FBF9FE"/>
</linearGradient>
<linearGradient id="paint3_linear_1403_18159" x1="9.6134" y1="33.4931" x2="9.63993" y2="14.5728" gradientUnits="userSpaceOnUse">
<stop stop-color="#48365E"/>
<stop offset="1" stop-color="#685763"/>
</linearGradient>
<linearGradient id="paint4_linear_1403_18159" x1="40.5397" y1="28.353" x2="26.3656" y2="3.5436" gradientUnits="userSpaceOnUse">
<stop stop-color="#C1BDF1"/>
<stop offset="1" stop-color="#FBF9FE"/>
</linearGradient>
<linearGradient id="paint5_linear_1403_18159" x1="32.4675" y1="25.6604" x2="32.4675" y2="3.50322" gradientUnits="userSpaceOnUse">
<stop stop-color="#48365E"/>
<stop offset="1" stop-color="#685763"/>
</linearGradient>
</defs>
</svg>
