<svg width="65" height="36" viewBox="0 0 65 36" fill="none" xmlns="http://www.w3.org/2000/svg">
<path fill-rule="evenodd" clip-rule="evenodd" d="M59.6514 19.716C59.6514 19.716 65.4143 23.8577 64.9763 25.8315C64.5383 27.8053 57.5536 29.1517 57.5536 29.1517C57.5536 29.1517 55.3522 35.849 53.3352 35.9973C51.3181 36.1457 47.8489 30.0416 47.8489 30.0416C47.8489 30.0416 40.7258 30.0416 39.919 28.1933C39.1122 26.3449 43.9416 21.1879 43.9416 21.1879C43.9416 21.1879 41.7401 14.4905 43.2615 13.2012C44.783 11.912 51.249 14.8328 51.249 14.8328C51.249 14.8328 57.0119 10.6912 58.7524 11.7066C60.4928 12.722 59.6514 19.716 59.6514 19.716Z" fill="url(#paint0_linear_1403_18169)"/>
<path fill-rule="evenodd" clip-rule="evenodd" d="M58.0724 20.3664C58.0724 20.3664 62.798 23.7892 62.4407 25.3751C62.0834 26.961 56.3435 28.1134 56.3435 28.1134C56.3435 28.1134 54.5455 33.6127 52.8857 33.8181C51.226 34.0235 48.3906 28.9235 48.3906 28.9235C48.3906 28.9235 42.547 28.9235 41.8785 27.406C41.21 25.8885 45.1864 21.7013 45.1864 21.7013C45.1864 21.7013 43.3769 16.2019 44.6332 15.1066C45.8895 14.0113 51.1799 16.4415 51.1799 16.4415C51.1799 16.4415 55.9055 13.0187 57.3463 13.8858C58.787 14.7529 58.0724 20.3664 58.0724 20.3664Z" fill="#432444"/>
<path fill-rule="evenodd" clip-rule="evenodd" d="M61.9566 25.3181C61.6108 26.8697 56.1245 27.9308 56.1245 27.9308C56.1245 27.9308 54.3956 33.202 52.805 33.3503C51.2144 33.4987 48.6556 28.9691 48.5058 28.6838C48.5058 28.6838 42.9158 28.6839 42.2703 27.2349C41.6249 25.7859 45.44 21.7241 45.44 21.7241C45.44 21.7241 43.711 16.4643 44.9097 15.4032C46.1084 14.3422 51.1798 16.6811 51.1798 16.6811C51.1798 16.6811 55.698 13.4294 57.0811 14.2395C58.4642 15.0496 57.7842 20.5375 57.7842 20.5375C57.7842 20.5375 62.2908 23.7892 61.9566 25.3181Z" fill="url(#paint1_linear_1403_18169)"/>
<path fill-rule="evenodd" clip-rule="evenodd" d="M13.0175 14.2395C13.0175 14.2395 19.276 10.8851 20.8781 12.1287C22.4802 13.3724 20.7052 20.1838 20.7052 20.1838C20.7052 20.1838 25.8573 25.0442 25.1657 26.9382C24.4742 28.8322 17.3627 29.2201 17.3627 29.2201C17.3627 29.2201 14.2968 35.5752 12.2567 35.4953C10.2167 35.4154 7.64638 28.8778 7.64638 28.8778C7.64638 28.8778 0.592517 27.9536 0.0392735 26.014C-0.51397 24.0744 4.96082 19.5905 4.96082 19.5905C4.96082 19.5905 3.66993 12.665 5.36424 11.5469C7.05854 10.4287 13.0175 14.2395 13.0175 14.2395Z" fill="url(#paint2_linear_1403_18169)"/>
<path fill-rule="evenodd" clip-rule="evenodd" d="M12.96 15.9167C12.96 15.9167 18.089 13.1556 19.4145 14.1824C20.74 15.2093 19.2646 20.7999 19.2646 20.7999C19.2646 20.7999 23.4947 24.7818 22.9299 26.3335C22.3651 27.8852 16.533 28.2503 16.533 28.2503C16.533 28.2503 14.0089 33.4644 12.3376 33.4074C10.6663 33.3503 8.52252 27.9651 8.52252 27.9651C8.52252 27.9651 2.75956 27.2121 2.27547 25.6147C1.79138 24.0174 6.32107 20.3435 6.32107 20.3435C6.32107 20.3435 5.26069 14.6388 6.6438 13.7375C8.0269 12.8361 12.96 15.9167 12.96 15.9167Z" fill="url(#paint3_linear_1403_18169)"/>
<path fill-rule="evenodd" clip-rule="evenodd" d="M12.9485 16.2362C12.9485 16.2362 17.8585 13.6006 19.1264 14.5818C20.3942 15.563 18.9881 20.914 18.9881 20.914C18.9881 20.914 23.0452 24.7248 22.4459 26.2194C21.8465 27.7141 16.3141 28.045 16.3141 28.045C16.3141 28.045 13.9052 33.0423 12.3031 32.9852C10.701 32.9282 8.64934 27.7825 8.64934 27.7825C8.64934 27.7825 3.1169 27.0523 2.66739 25.5006C2.21788 23.949 6.63231 20.4805 6.63231 20.4805C6.63231 20.4805 5.61801 15.0382 6.94349 14.1596C8.26897 13.2811 12.9485 16.2362 12.9485 16.2362Z" fill="url(#paint4_radial_1403_18169)"/>
<g style="mix-blend-mode:soft-light" opacity="0.5">
<path fill-rule="evenodd" clip-rule="evenodd" d="M9.95166 28.5698C9.95166 28.5698 11.208 31.6732 12.2568 31.8101C13.3057 31.947 15.7146 27.2463 15.7146 27.2463C15.7146 27.2463 19.7256 26.3107 20.325 25.2154C20.9243 24.1201 17.7662 20.9483 17.7662 20.9483C17.7662 20.9483 19.4951 16.4986 18.9995 15.2435C19.3526 16.1633 19.5073 17.146 19.4537 18.1285C19.4001 19.111 19.1394 20.0715 18.6883 20.9483C18.6883 20.9483 22.7108 24.8275 22.2037 26.208C21.6966 27.5886 16.1295 27.8624 16.1295 27.8624C16.1295 27.8624 14.7118 32.6544 12.5219 32.7799C10.989 32.8141 9.95166 28.5698 9.95166 28.5698Z" fill="white"/>
</g>
<path fill-rule="evenodd" clip-rule="evenodd" d="M8.81062 20.7429C8.87665 20.8289 8.92435 20.9273 8.95089 21.032C8.97743 21.1368 8.98224 21.2458 8.965 21.3524C8.94776 21.4591 8.90885 21.5612 8.85061 21.6525C8.79238 21.7439 8.71604 21.8226 8.6262 21.8839C8.49751 21.9688 8.34658 22.0148 8.1919 22.0161C8.03723 22.0175 7.88553 21.9741 7.75535 21.8914C7.62518 21.8087 7.52219 21.6902 7.45901 21.5504C7.39583 21.4107 7.3752 21.2557 7.39964 21.1045C7.42408 20.9533 7.49254 20.8125 7.59661 20.6992C7.70069 20.5859 7.83586 20.5051 7.98561 20.4668C8.13535 20.4284 8.29314 20.4341 8.43967 20.4831C8.5862 20.5322 8.71513 20.6225 8.81062 20.7429Z" fill="white"/>
<path fill-rule="evenodd" clip-rule="evenodd" d="M38.4437 7.70185C38.4437 7.70185 46.6847 8.74011 47.3532 10.9992C48.0217 13.2583 41.6479 18.5294 41.6479 18.5294C41.6479 18.5294 43.2038 26.6187 41.2329 27.9422C39.262 29.2657 32.2312 24.8959 32.2312 24.8959C32.2312 24.8959 24.9468 28.855 23.0681 27.4174C21.1894 25.9798 23.218 17.9932 23.218 17.9932C23.218 17.9932 17.1553 12.3569 17.9621 10.1435C18.7689 7.93004 27.0561 7.37099 27.0561 7.37099C27.0561 7.37099 30.5945 -0.0679872 32.9689 0.000469595C35.3432 0.0689263 38.4437 7.70185 38.4437 7.70185Z" fill="url(#paint5_linear_1403_18169)"/>
<path fill-rule="evenodd" clip-rule="evenodd" d="M37.2332 9.25353C37.2332 9.25353 44.0105 10.0978 44.5522 11.9576C45.0939 13.8173 39.8727 18.1415 39.8727 18.1415C39.8727 18.1415 41.1405 24.7704 39.5269 25.8657C37.9133 26.961 32.1388 23.367 32.1388 23.367C32.1388 23.367 26.1568 26.6073 24.6124 25.4322C23.0679 24.257 24.7391 17.6965 24.7391 17.6965C24.7391 17.6965 19.76 13.1327 20.4285 11.2502C21.097 9.36763 27.8857 8.96829 27.8857 8.96829C27.8857 8.96829 30.7902 2.86425 32.7497 2.9213C34.7091 2.97834 37.2332 9.25353 37.2332 9.25353Z" fill="#432444"/>
<mask id="mask0_1403_18169" style="mask-type:luminance" maskUnits="userSpaceOnUse" x="19" y="0" width="31" height="29">
<path d="M49.278 0.867615H19.6104V28.7637H49.278V0.867615Z" fill="white"/>
</mask>
<g mask="url(#mask0_1403_18169)">
<path fill-rule="evenodd" clip-rule="evenodd" d="M37.0028 9.55017C37.0028 9.55017 43.4918 10.3602 44.022 12.1401C44.5522 13.92 39.5269 18.0616 39.5269 18.0616C39.5269 18.0616 40.7487 24.4281 39.2042 25.4664C37.6597 26.5046 32.1158 23.0704 32.1158 23.0704C32.1158 23.0704 26.3528 26.1852 24.9121 25.0556C23.4713 23.9261 25.0273 17.6395 25.0273 17.6395C25.0273 17.6395 20.2556 13.2126 20.8895 11.4669C21.5235 9.7213 28.0471 9.28774 28.0471 9.28774C28.0471 9.28774 30.8364 3.4347 32.6575 3.49175C34.4786 3.54879 37.0028 9.55017 37.0028 9.55017Z" fill="url(#paint6_linear_1403_18169)"/>
</g>
<defs>
<linearGradient id="paint0_linear_1403_18169" x1="52.5555" y1="36.0801" x2="52.0354" y2="11.6877" gradientUnits="userSpaceOnUse">
<stop stop-color="#C1BDF1"/>
<stop offset="1" stop-color="#FBF9FE"/>
</linearGradient>
<linearGradient id="paint1_linear_1403_18169" x1="47.48" y1="30.5322" x2="56.8675" y2="14.1113" gradientUnits="userSpaceOnUse">
<stop stop-color="#48365E"/>
<stop offset="1" stop-color="#685763"/>
</linearGradient>
<linearGradient id="paint2_linear_1403_18169" x1="22.0547" y1="27.6064" x2="-0.228141" y2="17.3946" gradientUnits="userSpaceOnUse">
<stop stop-color="#C1BDF1"/>
<stop offset="1" stop-color="#FBF9FE"/>
</linearGradient>
<linearGradient id="paint3_linear_1403_18169" x1="1.12645" y1="27.9014" x2="17.8152" y2="15.8295" gradientUnits="userSpaceOnUse">
<stop stop-color="#C44C25"/>
<stop offset="1" stop-color="#FF5E42"/>
</linearGradient>
<radialGradient id="paint4_radial_1403_18169" cx="0" cy="0" r="1" gradientUnits="userSpaceOnUse" gradientTransform="translate(5.59716 20.2589) rotate(-35.3296) scale(9.69257 9.66047)">
<stop stop-color="#FFC62D"/>
<stop offset="1" stop-color="#FF9200"/>
</radialGradient>
<linearGradient id="paint5_linear_1403_18169" x1="40.5183" y1="28.353" x2="26.3406" y2="3.54963" gradientUnits="userSpaceOnUse">
<stop stop-color="#C1BDF1"/>
<stop offset="1" stop-color="#FBF9FE"/>
</linearGradient>
<linearGradient id="paint6_linear_1403_18169" x1="20.8319" y1="14.5817" x2="44.0566" y2="14.5817" gradientUnits="userSpaceOnUse">
<stop stop-color="#48365E"/>
<stop offset="1" stop-color="#685763"/>
</linearGradient>
</defs>
</svg>
