<svg width="65" height="36" viewBox="0 0 65 36" fill="none" xmlns="http://www.w3.org/2000/svg">
<path fill-rule="evenodd" clip-rule="evenodd" d="M59.6636 19.6943C59.6636 19.6943 65.4193 23.8258 64.9756 25.7915C64.5319 27.7571 57.5591 29.1093 57.5591 29.1093C57.5591 29.1093 55.3531 35.7949 53.3247 35.9952C51.2962 36.1955 47.8352 30.0483 47.8352 30.0483C47.8352 30.0483 40.7229 30.0482 39.8989 28.2078C39.0748 26.3674 43.9304 21.2092 43.9304 21.2092C43.9304 21.2092 41.7372 14.5235 43.2585 13.1839C44.7798 11.8443 51.2455 14.8115 51.2455 14.8115C51.2455 14.8115 57.0013 10.6799 58.7508 11.694C60.5003 12.7081 59.6636 19.6943 59.6636 19.6943Z" fill="url(#paint0_linear_1170_12532)"/>
<path fill-rule="evenodd" clip-rule="evenodd" d="M58.1169 20.3704C58.1169 20.3704 62.8457 23.7508 62.4907 25.3784C62.1358 27.006 56.3927 28.1077 56.3927 28.1077C56.3927 28.1077 54.5925 33.5914 52.919 33.7542C51.2455 33.917 48.4184 28.8715 48.4184 28.8715C48.4184 28.8715 42.5739 28.8715 41.902 27.3566C41.2301 25.8416 45.2109 21.6224 45.2109 21.6224C45.2109 21.6224 43.4106 16.1262 44.6531 15.037C45.8955 13.9478 51.2075 16.3641 51.2075 16.3641C51.2075 16.3641 55.9363 12.9712 57.3816 13.8601C58.8268 14.7491 58.1169 20.3704 58.1169 20.3704Z" fill="url(#paint1_linear_1170_12532)"/>
<path fill-rule="evenodd" clip-rule="evenodd" d="M57.8 20.4957C57.8 20.4957 62.3386 23.7383 61.9837 25.2908C61.6287 26.8432 56.1518 27.8949 56.1518 27.8949C56.1518 27.8949 54.4277 33.1533 52.8303 33.3035C51.2329 33.4538 48.5198 28.6336 48.5198 28.6336C48.5198 28.6336 42.9162 28.6336 42.2823 27.1813C41.6484 25.729 45.4391 21.6851 45.4391 21.6851C45.4391 21.6851 43.7149 16.4267 44.9193 15.4251C46.1237 14.4236 51.1821 16.6771 51.1821 16.6771C51.1821 16.6771 55.7208 13.4345 57.09 14.1732C58.4592 14.9118 57.8 20.4957 57.8 20.4957Z" fill="url(#paint2_radial_1170_12532)"/>
<g style="mix-blend-mode:soft-light" opacity="0.5">
<path fill-rule="evenodd" clip-rule="evenodd" d="M45.2616 23.1372C45.2616 23.1372 42.9796 25.6412 43.3219 26.6178C43.6642 27.5943 48.9762 27.6945 48.9762 27.6945C48.9762 27.6945 51.5117 30.862 52.7795 30.9371C54.0473 31.0122 55.5686 26.8181 55.5686 26.8181C55.5686 26.8181 60.3608 26.4424 61.299 25.4534C60.6158 26.1607 59.7902 26.7189 58.8753 27.0919C57.9604 27.465 56.9765 27.6447 55.987 27.6194C55.987 27.6194 54.1994 32.8652 52.7161 33.028C51.2328 33.1907 48.5831 28.3205 48.5831 28.3205C48.5831 28.3205 43.6008 29.1217 42.5358 27.2187C41.8512 25.9542 45.2616 23.1372 45.2616 23.1372Z" fill="white"/>
</g>
<path fill-rule="evenodd" clip-rule="evenodd" d="M51.9048 18.7429C51.8556 18.8341 51.7886 18.9147 51.7075 18.98C51.6264 19.0453 51.5329 19.0939 51.4326 19.123C51.3322 19.1522 51.227 19.1613 51.123 19.1498C51.019 19.1383 50.9184 19.1063 50.8271 19.0559C50.6431 18.9554 50.5066 18.7874 50.4472 18.5881C50.3879 18.3889 50.4105 18.1746 50.5102 17.9917C50.6119 17.81 50.7821 17.6751 50.9839 17.6165C51.1856 17.5579 51.4026 17.5803 51.5878 17.6787C51.6802 17.7272 51.7618 17.7934 51.8279 17.8735C51.894 17.9536 51.9433 18.0459 51.9728 18.145C52.0023 18.2441 52.0115 18.3481 51.9998 18.4507C51.9881 18.5534 51.9558 18.6527 51.9048 18.7429Z" fill="white"/>
<path fill-rule="evenodd" clip-rule="evenodd" d="M13.0219 14.2232C13.0219 14.2232 19.2847 10.8804 20.8821 12.1198C22.4795 13.3593 20.7173 20.1576 20.7173 20.1576C20.7173 20.1576 25.8772 25.0028 25.1799 26.8933C24.4826 28.7838 17.3704 29.222 17.3704 29.222C17.3704 29.222 14.3023 35.5696 12.2993 35.4819C10.2962 35.3943 7.6465 28.8715 7.6465 28.8715C7.6465 28.8715 0.597629 27.945 0.0398055 26.0169C-0.518018 24.0888 4.97148 19.6067 4.97148 19.6067C4.97148 19.6067 3.70368 12.6832 5.37716 11.5689C7.05063 10.4547 13.0219 14.2232 13.0219 14.2232Z" fill="url(#paint3_linear_1170_12532)"/>
<path fill-rule="evenodd" clip-rule="evenodd" d="M12.9585 15.9383C12.9585 15.9383 18.093 13.1839 19.4115 14.1981C20.73 15.2122 19.2721 20.8086 19.2721 20.8086C19.2721 20.8086 23.5064 24.7899 22.9359 26.3298C22.3654 27.8698 16.5336 28.2454 16.5336 28.2454C16.5336 28.2454 13.9981 33.4537 12.3373 33.3911C10.6765 33.3285 8.53394 27.9699 8.53394 27.9699C8.53394 27.9699 2.74019 27.2062 2.28378 25.6162C1.82738 24.0262 6.32799 20.3579 6.32799 20.3579C6.32799 20.3579 5.26307 14.6864 6.65763 13.7599C8.05219 12.8334 12.9585 15.9383 12.9585 15.9383Z" fill="url(#paint4_linear_1170_12532)"/>
<path fill-rule="evenodd" clip-rule="evenodd" d="M12.9458 16.2137C12.9458 16.2137 17.8648 13.5846 19.1326 14.5611C20.4004 15.5377 18.9931 20.8837 18.9931 20.8837C18.9931 20.8837 23.0501 24.6396 22.5049 26.1796C21.9598 27.7195 16.3688 28.0075 16.3688 28.0075C16.3688 28.0075 13.96 33.0155 12.35 32.9403C10.7399 32.8652 8.69877 27.7446 8.69877 27.7446C8.69877 27.7446 3.14588 27.0184 2.71483 25.491C2.28379 23.9636 6.51818 20.483 6.51818 20.483C6.51818 20.483 5.50395 15.0494 6.83512 14.1605C8.1663 13.2716 12.9458 16.2137 12.9458 16.2137Z" fill="url(#paint5_radial_1170_12532)"/>
<g style="mix-blend-mode:soft-light" opacity="0.5">
<path fill-rule="evenodd" clip-rule="evenodd" d="M9.94115 28.5334C9.94115 28.5334 11.2089 31.6259 12.2992 31.7636C13.3895 31.9013 15.7096 27.1938 15.7096 27.1938C15.7096 27.1938 19.7284 26.2548 20.337 25.153C20.9455 24.0513 17.8014 20.8963 17.8014 20.8963C17.8014 20.8963 19.5382 16.4642 19.0692 15.1997C19.4191 16.1147 19.5717 17.0919 19.5172 18.0686C19.4626 19.0452 19.202 19.9998 18.7522 20.8713C18.7522 20.8713 22.7838 24.7399 22.2767 26.1171C21.7695 27.4943 16.204 27.7697 16.204 27.7697C16.204 27.7697 14.7841 32.5523 12.5908 32.6775C10.9934 32.7652 9.94115 28.5334 9.94115 28.5334Z" fill="white"/>
</g>
<path fill-rule="evenodd" clip-rule="evenodd" d="M8.81286 20.721C8.93272 20.8929 8.97992 21.1042 8.9444 21.31C8.90888 21.5158 8.79346 21.6997 8.6227 21.8227C8.4506 21.9404 8.23861 21.9866 8.03233 21.9515C7.82606 21.9164 7.64197 21.8027 7.51971 21.6349C7.4581 21.5511 7.41381 21.4561 7.38939 21.3553C7.36496 21.2546 7.36087 21.15 7.37735 21.0477C7.39384 20.9454 7.43057 20.8473 7.48545 20.759C7.54033 20.6707 7.61228 20.594 7.6972 20.5331C7.8713 20.4148 8.0853 20.3682 8.29366 20.4032C8.50202 20.4383 8.6883 20.5523 8.81286 20.721Z" fill="white"/>
<path fill-rule="evenodd" clip-rule="evenodd" d="M38.4663 7.70026C38.4663 7.70026 46.7195 8.7269 47.3408 10.993C47.962 13.2591 41.6231 18.5049 41.6231 18.5049C41.6231 18.5049 43.1698 26.5803 41.2047 27.9074C39.2396 29.2345 32.2034 24.8651 32.2034 24.8651C32.2034 24.8651 24.9137 28.8088 23.0247 27.3691C21.1357 25.9293 23.1768 17.9666 23.1768 17.9666C23.1768 17.9666 17.1168 12.3326 17.9155 10.1291C18.7142 7.92562 27.0182 7.34974 27.0182 7.34974C27.0182 7.34974 30.5553 -0.0745532 32.9388 0.000566225C35.3222 0.0756856 38.4663 7.70026 38.4663 7.70026Z" fill="url(#paint6_linear_1170_12532)"/>
<path fill-rule="evenodd" clip-rule="evenodd" d="M37.2619 9.24028C37.2619 9.24028 44.0318 10.0916 44.577 11.9445C45.1221 13.7975 39.8862 18.1168 39.8862 18.1168C39.8862 18.1168 41.154 24.7399 39.5566 25.8291C37.9592 26.9184 32.1527 23.3252 32.1527 23.3252C32.1527 23.3252 26.1688 26.5678 24.6221 25.3784C23.0754 24.189 24.7489 17.6661 24.7489 17.6661C24.7489 17.6661 19.7665 13.0463 20.4257 11.2309C21.085 9.41551 27.9057 8.9648 27.9057 8.9648C27.9057 8.9648 30.8089 2.86759 32.7613 2.91767C34.7136 2.96774 37.2619 9.24028 37.2619 9.24028Z" fill="url(#paint7_linear_1170_12532)"/>
<path fill-rule="evenodd" clip-rule="evenodd" d="M37.021 9.54072C37.021 9.54072 43.512 10.3545 44.0318 12.1323C44.5516 13.9102 39.5439 18.0417 39.5439 18.0417C39.5439 18.0417 40.8116 24.3893 39.2142 25.4285C37.6168 26.4676 32.14 23.0371 32.14 23.0371C32.14 23.0371 26.4097 26.1421 24.9264 25.0153C23.4431 23.8885 25.0405 17.6161 25.0405 17.6161C25.0405 17.6161 20.2863 13.1965 20.9075 11.4562C21.5287 9.71595 28.0578 9.2903 28.0578 9.2903C28.0578 9.2903 30.8469 3.44351 32.7232 3.50611C34.5995 3.56871 37.021 9.54072 37.021 9.54072Z" fill="url(#paint8_radial_1170_12532)"/>
<g style="mix-blend-mode:soft-light" opacity="0.5">
<path fill-rule="evenodd" clip-rule="evenodd" d="M25.687 19.2186C25.687 19.2186 24.7489 22.9746 25.687 23.851C26.6252 24.7273 32.0259 21.8102 32.0259 21.8102C32.0259 21.8102 36.4885 23.6256 37.8197 22.9996C39.1509 22.3736 38.3268 17.228 38.3268 17.228C38.3268 17.228 43.0303 14.1856 43.3979 12.6456C43.0983 13.7489 42.5694 14.7784 41.8447 15.6686C41.12 16.5589 40.2156 17.2903 39.1889 17.8164C39.1889 17.8164 40.3426 24.2015 38.9227 25.1655C37.5027 26.1296 32.0006 22.6615 32.0006 22.6615C32.0006 22.6615 27.3605 26.2423 25.1926 24.8901C23.7473 23.9261 25.687 19.2186 25.687 19.2186Z" fill="white"/>
</g>
<path fill-rule="evenodd" clip-rule="evenodd" d="M29.9975 11.0305C29.9942 11.2741 29.8939 11.5065 29.7183 11.6776C29.5427 11.8486 29.306 11.9445 29.0593 11.9445C28.8139 11.9445 28.5785 11.8482 28.4049 11.6768C28.2314 11.5054 28.1339 11.2729 28.1339 11.0305C28.1339 10.7882 28.2314 10.5556 28.4049 10.3842C28.5785 10.2128 28.8139 10.1165 29.0593 10.1165C29.1819 10.1149 29.3036 10.1373 29.4174 10.1825C29.5311 10.2277 29.6347 10.2948 29.722 10.3798C29.8092 10.4648 29.8786 10.5662 29.9259 10.6779C29.9732 10.7896 29.9975 10.9095 29.9975 11.0305Z" fill="white"/>
<defs>
<linearGradient id="paint0_linear_1170_12532" x1="52.5821" y1="35.9548" x2="52.0646" y2="11.6166" gradientUnits="userSpaceOnUse">
<stop stop-color="#C1BDF1"/>
<stop offset="1" stop-color="#FBF9FE"/>
</linearGradient>
<linearGradient id="paint1_linear_1170_12532" x1="43.2265" y1="17.3736" x2="61.3137" y2="27.4259" gradientUnits="userSpaceOnUse">
<stop stop-color="#C44C25"/>
<stop offset="1" stop-color="#FF5E42"/>
</linearGradient>
<radialGradient id="paint2_radial_1170_12532" cx="0" cy="0" r="1" gradientUnits="userSpaceOnUse" gradientTransform="translate(52.1589 18.0591) rotate(28.458) scale(9.7339 9.66805)">
<stop stop-color="#FFC62D"/>
<stop offset="1" stop-color="#FF9200"/>
</radialGradient>
<linearGradient id="paint3_linear_1170_12532" x1="23.1647" y1="23.989" x2="0.886555" y2="13.7669" gradientUnits="userSpaceOnUse">
<stop stop-color="#C1BDF1"/>
<stop offset="1" stop-color="#FBF9FE"/>
</linearGradient>
<linearGradient id="paint4_linear_1170_12532" x1="2.22217" y1="24.2857" x2="18.8993" y2="12.1934" gradientUnits="userSpaceOnUse">
<stop stop-color="#C44C25"/>
<stop offset="1" stop-color="#FF5E42"/>
</linearGradient>
<radialGradient id="paint5_radial_1170_12532" cx="0" cy="0" r="1" gradientUnits="userSpaceOnUse" gradientTransform="translate(6.69567 16.6582) rotate(-35.2653) scale(9.68435 9.64465)">
<stop stop-color="#FFC62D"/>
<stop offset="1" stop-color="#FF9200"/>
</radialGradient>
<linearGradient id="paint6_linear_1170_12532" x1="40.5328" y1="28.3206" x2="26.3999" y2="3.528" gradientUnits="userSpaceOnUse">
<stop stop-color="#C1BDF1"/>
<stop offset="1" stop-color="#FBF9FE"/>
</linearGradient>
<linearGradient id="paint7_linear_1170_12532" x1="20.375" y1="14.4861" x2="44.615" y2="14.4861" gradientUnits="userSpaceOnUse">
<stop stop-color="#C44C25"/>
<stop offset="1" stop-color="#FF5E42"/>
</linearGradient>
<radialGradient id="paint8_radial_1170_12532" cx="0" cy="0" r="1" gradientUnits="userSpaceOnUse" gradientTransform="translate(29.9087 10.2168) scale(11.41 11.2679)">
<stop stop-color="#FFC62D"/>
<stop offset="1" stop-color="#FF9200"/>
</radialGradient>
</defs>
</svg>
