<svg width="14" height="19" viewBox="0 0 14 19" fill="none" xmlns="http://www.w3.org/2000/svg">
<g filter="url(#filter0_d_1403_23305)">
<path fill-rule="evenodd" clip-rule="evenodd" d="M1.10788 6.69487H10.8921C11.5015 6.69487 12 7.27909 12 7.99314V15.7017C12 16.4158 11.5015 17 10.8921 17H1.10788C0.498545 17 0 16.4158 0 15.7017V7.99314C0 7.27909 0.498545 6.69487 1.10788 6.69487ZM6.5589 12.0482C7.25438 11.6145 7.54234 11.0919 7.57345 10.6839C7.74017 8.5032 4.37798 8.45491 4.42407 10.6852C4.43231 11.0853 4.68685 11.5844 5.32295 12.0462C5.1433 13.0292 5.0482 13.6312 5.0482 14.6493C5.65062 14.6493 6.25322 14.6493 6.85573 14.6493C6.85573 13.6312 6.73856 13.031 6.5589 12.0482ZM8.08396 5.76261C8.10523 1.13123 3.91595 1.15345 3.91595 5.84373C3.22127 5.84373 2.52667 5.84373 1.83199 5.84373C1.83199 -1.92012 10.1678 -1.94847 10.1678 5.76261C9.47324 5.76261 10.1678 5.76261 8.08396 5.76261Z" fill="white"/>
</g>
<defs>
<filter id="filter0_d_1403_23305" x="0" y="0" width="14" height="19" filterUnits="userSpaceOnUse" color-interpolation-filters="sRGB">
<feFlood flood-opacity="0" result="BackgroundImageFix"/>
<feColorMatrix in="SourceAlpha" type="matrix" values="0 0 0 0 0 0 0 0 0 0 0 0 0 0 0 0 0 0 127 0" result="hardAlpha"/>
<feOffset dx="2" dy="2"/>
<feComposite in2="hardAlpha" operator="out"/>
<feColorMatrix type="matrix" values="0 0 0 0 0 0 0 0 0 0 0 0 0 0 0 0 0 0 0.25 0"/>
<feBlend mode="normal" in2="BackgroundImageFix" result="effect1_dropShadow_1403_23305"/>
<feBlend mode="normal" in="SourceGraphic" in2="effect1_dropShadow_1403_23305" result="shape"/>
</filter>
</defs>
</svg>
