<svg width="65" height="36" viewBox="0 0 65 36" fill="none" xmlns="http://www.w3.org/2000/svg">
<path fill-rule="evenodd" clip-rule="evenodd" d="M59.6636 19.6943C59.6636 19.6943 65.4193 23.8258 64.9756 25.7915C64.5319 27.7571 57.559 29.1093 57.559 29.1093C57.559 29.1093 55.3531 35.7949 53.3247 35.9952C51.2962 36.1955 47.8352 30.0483 47.8352 30.0483C47.8352 30.0483 40.7229 30.0482 39.8989 28.2078C39.0748 26.3674 43.9304 21.2092 43.9304 21.2092C43.9304 21.2092 41.7371 14.5235 43.2585 13.1839C44.7798 11.8443 51.2455 14.8115 51.2455 14.8115C51.2455 14.8115 57.0012 10.6799 58.7508 11.694C60.5003 12.7081 59.6636 19.6943 59.6636 19.6943Z" fill="url(#paint0_linear_1403_18200)"/>
<path fill-rule="evenodd" clip-rule="evenodd" d="M58.117 20.3704C58.117 20.3704 62.8458 23.7508 62.4908 25.3784C62.1359 27.006 56.3928 28.1077 56.3928 28.1077C56.3928 28.1077 54.5926 33.5914 52.9191 33.7542C51.2456 33.917 48.4185 28.8715 48.4185 28.8715C48.4185 28.8715 42.574 28.8715 41.9021 27.3566C41.2302 25.8416 45.211 21.6224 45.211 21.6224C45.211 21.6224 43.4107 16.1262 44.6532 15.037C45.8956 13.9478 51.2076 16.3641 51.2076 16.3641C51.2076 16.3641 55.9364 12.9712 57.3817 13.8601C58.827 14.7491 58.117 20.3704 58.117 20.3704Z" fill="url(#paint1_linear_1403_18200)"/>
<path fill-rule="evenodd" clip-rule="evenodd" d="M57.8001 20.4956C57.8001 20.4956 62.3387 23.7382 61.9838 25.2907C61.6288 26.8432 56.152 27.8949 56.152 27.8949C56.152 27.8949 54.4278 33.1532 52.8304 33.3035C51.233 33.4537 48.5199 28.6336 48.5199 28.6336C48.5199 28.6336 42.9163 28.6335 42.2824 27.1812C41.6485 25.7289 45.4392 21.685 45.4392 21.685C45.4392 21.685 43.715 16.4267 44.9194 15.4251C46.1238 14.4235 51.1823 16.6771 51.1823 16.6771C51.1823 16.6771 55.7209 13.4344 57.0901 14.1731C58.4593 14.9118 57.8001 20.4956 57.8001 20.4956Z" fill="url(#paint2_radial_1403_18200)"/>
<g style="mix-blend-mode:soft-light" opacity="0.5">
<path fill-rule="evenodd" clip-rule="evenodd" d="M45.2614 23.1372C45.2614 23.1372 42.9794 25.6412 43.3217 26.6178C43.664 27.5943 48.976 27.6945 48.976 27.6945C48.976 27.6945 51.5115 30.862 52.7793 30.9371C54.0471 31.0122 55.5684 26.8181 55.5684 26.8181C55.5684 26.8181 60.3606 26.4424 61.2988 25.4534C60.6156 26.1607 59.79 26.7189 58.8751 27.0919C57.9602 27.465 56.9763 27.6447 55.9868 27.6194C55.9868 27.6194 54.1992 32.8652 52.7159 33.028C51.2326 33.1907 48.583 28.3205 48.583 28.3205C48.583 28.3205 43.6006 29.1217 42.5356 27.2187C41.851 25.9542 45.2614 23.1372 45.2614 23.1372Z" fill="white"/>
</g>
<path fill-rule="evenodd" clip-rule="evenodd" d="M51.9045 18.7428C51.8554 18.834 51.7883 18.9147 51.7073 18.9799C51.6262 19.0452 51.5327 19.0938 51.4324 19.123C51.332 19.1521 51.2267 19.1613 51.1228 19.1497C51.0188 19.1382 50.9182 19.1062 50.8269 19.0558C50.6429 18.9554 50.5063 18.7873 50.447 18.5881C50.3877 18.3888 50.4103 18.1745 50.51 17.9917C50.6117 17.8099 50.7819 17.6751 50.9836 17.6165C51.1854 17.5579 51.4024 17.5802 51.5876 17.6787C51.68 17.7272 51.7616 17.7934 51.8277 17.8734C51.8938 17.9535 51.9431 18.0458 51.9726 18.1449C52.0021 18.2441 52.0113 18.348 51.9996 18.4507C51.9879 18.5533 51.9556 18.6526 51.9045 18.7428Z" fill="white"/>
<path fill-rule="evenodd" clip-rule="evenodd" d="M13.0219 14.2232C13.0219 14.2232 19.2847 10.8804 20.8821 12.1198C22.4795 13.3593 20.7173 20.1576 20.7173 20.1576C20.7173 20.1576 25.8772 25.0028 25.1799 26.8933C24.4826 28.7838 17.3704 29.222 17.3704 29.222C17.3704 29.222 14.3023 35.5696 12.2993 35.4819C10.2962 35.3943 7.6465 28.8715 7.6465 28.8715C7.6465 28.8715 0.597629 27.945 0.0398055 26.0169C-0.518018 24.0888 4.97148 19.6067 4.97148 19.6067C4.97148 19.6067 3.70368 12.6832 5.37716 11.5689C7.05063 10.4547 13.0219 14.2232 13.0219 14.2232Z" fill="url(#paint3_linear_1403_18200)"/>
<path fill-rule="evenodd" clip-rule="evenodd" d="M12.9587 15.9383C12.9587 15.9383 18.0932 13.1839 19.4117 14.1981C20.7302 15.2122 19.2722 20.8086 19.2722 20.8086C19.2722 20.8086 23.5066 24.7899 22.9361 26.3298C22.3656 27.8698 16.5338 28.2454 16.5338 28.2454C16.5338 28.2454 13.9983 33.4537 12.3375 33.3911C10.6767 33.3285 8.53413 27.9699 8.53413 27.9699C8.53413 27.9699 2.74037 27.2062 2.28397 25.6162C1.82757 24.0262 6.32818 20.3579 6.32818 20.3579C6.32818 20.3579 5.26325 14.6864 6.65781 13.7599C8.05237 12.8334 12.9587 15.9383 12.9587 15.9383Z" fill="url(#paint4_linear_1403_18200)"/>
<path fill-rule="evenodd" clip-rule="evenodd" d="M12.9459 16.2137C12.9459 16.2137 17.8649 13.5846 19.1327 14.5611C20.4004 15.5377 18.9932 20.8837 18.9932 20.8837C18.9932 20.8837 23.0501 24.6396 22.505 26.1796C21.9598 27.7195 16.3689 28.0075 16.3689 28.0075C16.3689 28.0075 13.9601 33.0155 12.35 32.9403C10.7399 32.8652 8.69882 27.7446 8.69882 27.7446C8.69882 27.7446 3.14594 27.0184 2.71489 25.491C2.28385 23.9636 6.51824 20.483 6.51824 20.483C6.51824 20.483 5.50401 15.0494 6.83518 14.1605C8.16635 13.2716 12.9459 16.2137 12.9459 16.2137Z" fill="url(#paint5_radial_1403_18200)"/>
<g style="mix-blend-mode:soft-light" opacity="0.5">
<path fill-rule="evenodd" clip-rule="evenodd" d="M9.94092 28.5334C9.94092 28.5334 11.2087 31.6258 12.299 31.7635C13.3893 31.9012 15.7093 27.1937 15.7093 27.1937C15.7093 27.1937 19.7282 26.2547 20.3367 25.153C20.9453 24.0512 17.8012 20.8963 17.8012 20.8963C17.8012 20.8963 19.538 16.4642 19.0689 15.1996C19.4189 16.1147 19.5715 17.0919 19.5169 18.0685C19.4624 19.0452 19.2018 19.9998 18.752 20.8712C18.752 20.8712 22.7835 24.7398 22.2764 26.117C21.7693 27.4942 16.2038 27.7697 16.2038 27.7697C16.2038 27.7697 14.7838 32.5523 12.5906 32.6775C10.9932 32.7651 9.94092 28.5334 9.94092 28.5334Z" fill="white"/>
</g>
<path fill-rule="evenodd" clip-rule="evenodd" d="M8.8131 20.721C8.93296 20.8929 8.98016 21.1042 8.94464 21.31C8.90913 21.5158 8.7937 21.6997 8.62294 21.8227C8.45084 21.9404 8.23885 21.9866 8.03257 21.9515C7.8263 21.9164 7.64221 21.8027 7.51995 21.6349C7.45834 21.5511 7.41405 21.4561 7.38963 21.3553C7.3652 21.2546 7.36111 21.15 7.3776 21.0477C7.39408 20.9454 7.43081 20.8473 7.48569 20.759C7.54057 20.6707 7.61252 20.594 7.69744 20.5331C7.87154 20.4148 8.08554 20.3682 8.2939 20.4032C8.50226 20.4383 8.68854 20.5523 8.8131 20.721Z" fill="white"/>
<path fill-rule="evenodd" clip-rule="evenodd" d="M38.4661 7.70026C38.4661 7.70026 46.7193 8.7269 47.3405 10.993C47.9618 13.2591 41.6229 18.5049 41.6229 18.5049C41.6229 18.5049 43.1695 26.5803 41.2045 27.9074C39.2394 29.2345 32.2032 24.8651 32.2032 24.8651C32.2032 24.8651 24.9135 28.8088 23.0245 27.3691C21.1355 25.9293 23.1766 17.9666 23.1766 17.9666C23.1766 17.9666 17.1166 12.3326 17.9153 10.1291C18.714 7.92562 27.018 7.34974 27.018 7.34974C27.018 7.34974 30.5551 -0.0745532 32.9385 0.000566225C35.322 0.0756856 38.4661 7.70026 38.4661 7.70026Z" fill="url(#paint6_linear_1403_18200)"/>
<path fill-rule="evenodd" clip-rule="evenodd" d="M37.262 9.24021C37.262 9.24021 44.0319 10.0915 44.5771 11.9445C45.1222 13.7974 39.8863 18.1168 39.8863 18.1168C39.8863 18.1168 41.154 24.7398 39.5566 25.8291C37.9592 26.9183 32.1528 23.3251 32.1528 23.3251C32.1528 23.3251 26.1689 26.5677 24.6222 25.3783C23.0755 24.1889 24.7489 17.6661 24.7489 17.6661C24.7489 17.6661 19.7666 13.0462 20.4258 11.2308C21.0851 9.41545 27.9057 8.96474 27.9057 8.96474C27.9057 8.96474 30.8089 2.86752 32.7613 2.9176C34.7137 2.96768 37.262 9.24021 37.262 9.24021Z" fill="url(#paint7_linear_1403_18200)"/>
<path fill-rule="evenodd" clip-rule="evenodd" d="M37.0211 9.54072C37.0211 9.54072 43.5121 10.3545 44.0319 12.1323C44.5517 13.9102 39.5439 18.0417 39.5439 18.0417C39.5439 18.0417 40.8117 24.3893 39.2143 25.4285C37.6169 26.4676 32.1401 23.0371 32.1401 23.0371C32.1401 23.0371 26.4097 26.1421 24.9264 25.0153C23.4431 23.8885 25.0405 17.6161 25.0405 17.6161C25.0405 17.6161 20.2863 13.1965 20.9075 11.4562C21.5288 9.71595 28.0578 9.2903 28.0578 9.2903C28.0578 9.2903 30.847 3.44351 32.7233 3.50611C34.5996 3.56871 37.0211 9.54072 37.0211 9.54072Z" fill="url(#paint8_radial_1403_18200)"/>
<g style="mix-blend-mode:soft-light" opacity="0.5">
<path fill-rule="evenodd" clip-rule="evenodd" d="M25.6869 19.2186C25.6869 19.2186 24.7487 22.9746 25.6869 23.851C26.625 24.7273 32.0258 21.8102 32.0258 21.8102C32.0258 21.8102 36.4884 23.6256 37.8195 22.9996C39.1507 22.3736 38.3266 17.228 38.3266 17.228C38.3266 17.228 43.0301 14.1856 43.3978 12.6456C43.0982 13.7489 42.5692 14.7784 41.8445 15.6686C41.1199 16.5589 40.2154 17.2903 39.1887 17.8164C39.1887 17.8164 40.3424 24.2015 38.9225 25.1655C37.5026 26.1296 32.0004 22.6615 32.0004 22.6615C32.0004 22.6615 27.3603 26.2423 25.1924 24.8901C23.7471 23.9261 25.6869 19.2186 25.6869 19.2186Z" fill="white"/>
</g>
<path fill-rule="evenodd" clip-rule="evenodd" d="M29.9974 11.0305C29.9941 11.2741 29.8938 11.5065 29.7182 11.6776C29.5426 11.8486 29.3059 11.9445 29.0593 11.9445C28.8138 11.9445 28.5784 11.8482 28.4048 11.6768C28.2313 11.5054 28.1338 11.2729 28.1338 11.0305C28.1338 10.7882 28.2313 10.5556 28.4048 10.3842C28.5784 10.2128 28.8138 10.1165 29.0593 10.1165C29.1819 10.1149 29.3036 10.1373 29.4173 10.1825C29.5311 10.2277 29.6346 10.2948 29.7219 10.3798C29.8092 10.4648 29.8785 10.5662 29.9258 10.6779C29.9731 10.7896 29.9974 10.9095 29.9974 11.0305Z" fill="white"/>
<defs>
<linearGradient id="paint0_linear_1403_18200" x1="52.5821" y1="35.9548" x2="52.0646" y2="11.6166" gradientUnits="userSpaceOnUse">
<stop stop-color="#C1BDF1"/>
<stop offset="1" stop-color="#FBF9FE"/>
</linearGradient>
<linearGradient id="paint1_linear_1403_18200" x1="43.2266" y1="17.3736" x2="61.3138" y2="27.4259" gradientUnits="userSpaceOnUse">
<stop stop-color="#C44C25"/>
<stop offset="1" stop-color="#FF5E42"/>
</linearGradient>
<radialGradient id="paint2_radial_1403_18200" cx="0" cy="0" r="1" gradientUnits="userSpaceOnUse" gradientTransform="translate(52.159 18.0591) rotate(28.458) scale(9.7339 9.66805)">
<stop stop-color="#FFC62D"/>
<stop offset="1" stop-color="#FF9200"/>
</radialGradient>
<linearGradient id="paint3_linear_1403_18200" x1="23.1647" y1="23.989" x2="0.886555" y2="13.7669" gradientUnits="userSpaceOnUse">
<stop stop-color="#C1BDF1"/>
<stop offset="1" stop-color="#FBF9FE"/>
</linearGradient>
<linearGradient id="paint4_linear_1403_18200" x1="2.22236" y1="24.2857" x2="18.8995" y2="12.1934" gradientUnits="userSpaceOnUse">
<stop stop-color="#C44C25"/>
<stop offset="1" stop-color="#FF5E42"/>
</linearGradient>
<radialGradient id="paint5_radial_1403_18200" cx="0" cy="0" r="1" gradientUnits="userSpaceOnUse" gradientTransform="translate(6.69573 16.6582) rotate(-35.2653) scale(9.68435 9.64465)">
<stop stop-color="#FFC62D"/>
<stop offset="1" stop-color="#FF9200"/>
</radialGradient>
<linearGradient id="paint6_linear_1403_18200" x1="40.5325" y1="28.3206" x2="26.3997" y2="3.528" gradientUnits="userSpaceOnUse">
<stop stop-color="#C1BDF1"/>
<stop offset="1" stop-color="#FBF9FE"/>
</linearGradient>
<linearGradient id="paint7_linear_1403_18200" x1="20.3751" y1="14.486" x2="44.6151" y2="14.486" gradientUnits="userSpaceOnUse">
<stop stop-color="#C44C25"/>
<stop offset="1" stop-color="#FF5E42"/>
</linearGradient>
<radialGradient id="paint8_radial_1403_18200" cx="0" cy="0" r="1" gradientUnits="userSpaceOnUse" gradientTransform="translate(29.9088 10.2168) scale(11.41 11.2679)">
<stop stop-color="#FFC62D"/>
<stop offset="1" stop-color="#FF9200"/>
</radialGradient>
</defs>
</svg>
