<svg width="82" height="45" viewBox="0 0 82 45" fill="none" xmlns="http://www.w3.org/2000/svg">
<g filter="url(#filter0_d_3409_6555)">
<rect x="7.5" y="8.23291" width="67" height="29" rx="3.5" stroke="url(#paint0_linear_3409_6555)" stroke-width="3" shape-rendering="crispEdges"/>
<rect x="7.5" y="8.23291" width="67" height="29" rx="3.5" stroke="url(#paint1_linear_3409_6555)" stroke-opacity="0.2" stroke-width="3" shape-rendering="crispEdges"/>
<path fill-rule="evenodd" clip-rule="evenodd" d="M7.8844 7.73291C7.65019 7.73471 7.42588 7.88493 7.26027 8.15091C7.09465 8.41688 7.00112 8.77711 7 9.15325V35.3125C7.0011 35.6886 7.09462 36.0489 7.26024 36.3149C7.42586 36.5809 7.65017 36.7311 7.8844 36.7329H73.1156C73.3498 36.7311 73.5741 36.5809 73.7397 36.3149C73.9054 36.0489 73.9989 35.6886 74 35.3125V9.15325C73.9989 8.77709 73.9054 8.41685 73.7397 8.15087C73.5741 7.88489 73.3498 7.73468 73.1156 7.73291H7.8844Z" fill="url(#paint2_linear_3409_6555)"/>
<path style="mix-blend-mode:screen" opacity="0.5" fill-rule="evenodd" clip-rule="evenodd" d="M9 35.1773C17.6176 32.3485 64.1624 20.5572 73 17.5836V11.153C72.9989 10.6101 72.9097 10.0903 72.7517 9.70643C72.5936 9.32259 72.3796 9.10582 72.1561 9.10327H9.84406C9.62053 9.10573 9.40644 9.32246 9.24838 9.70632C9.09031 10.0902 9.00105 10.6101 9 11.153V35.1773Z" fill="url(#paint3_linear_3409_6555)"/>
</g>
<defs>
<filter id="filter0_d_3409_6555" x="0" y="0.73291" width="82" height="44" filterUnits="userSpaceOnUse" color-interpolation-filters="sRGB">
<feFlood flood-opacity="0" result="BackgroundImageFix"/>
<feColorMatrix in="SourceAlpha" type="matrix" values="0 0 0 0 0 0 0 0 0 0 0 0 0 0 0 0 0 0 127 0" result="hardAlpha"/>
<feOffset/>
<feGaussianBlur stdDeviation="3"/>
<feComposite in2="hardAlpha" operator="out"/>
<feColorMatrix type="matrix" values="0 0 0 0 0 0 0 0 0 0 0 0 0 0 0 0 0 0 0.7 0"/>
<feBlend mode="normal" in2="BackgroundImageFix" result="effect1_dropShadow_3409_6555"/>
<feBlend mode="normal" in="SourceGraphic" in2="effect1_dropShadow_3409_6555" result="shape"/>
</filter>
<linearGradient id="paint0_linear_3409_6555" x1="3.43333" y1="1.1819" x2="72.3068" y2="24.8716" gradientUnits="userSpaceOnUse">
<stop stop-color="#C3FD67"/>
<stop offset="1" stop-color="#436D00"/>
</linearGradient>
<linearGradient id="paint1_linear_3409_6555" x1="16.7386" y1="12.937" x2="4.10503" y2="-3.60536" gradientUnits="userSpaceOnUse">
<stop stop-color="#33FF00"/>
<stop offset="1" stop-opacity="0"/>
</linearGradient>
<linearGradient id="paint2_linear_3409_6555" x1="61.5041" y1="55.965" x2="0.961506" y2="18.2666" gradientUnits="userSpaceOnUse">
<stop stop-color="#65BA09"/>
<stop offset="1" stop-color="#8CE30B"/>
</linearGradient>
<linearGradient id="paint3_linear_3409_6555" x1="9" y1="22.1403" x2="73" y2="22.1403" gradientUnits="userSpaceOnUse">
<stop stop-color="#47B009"/>
<stop offset="1" stop-color="#010D01"/>
</linearGradient>
</defs>
</svg>
