<svg width="72" height="72" viewBox="0 0 72 72" fill="none" xmlns="http://www.w3.org/2000/svg">
<g filter="url(#filter0_d_1448_6824)">
<path fill-rule="evenodd" clip-rule="evenodd" d="M35.9999 5.99994C41.9333 5.99994 47.7335 7.7594 52.667 11.0558C57.6004 14.3523 61.4456 19.0376 63.7162 24.5194C65.9868 30.0012 66.5809 36.0332 65.4234 41.8526C64.2659 47.672 61.4087 53.0175 57.2131 57.2131C53.0176 61.4087 47.6721 64.2659 41.8527 65.4235C36.0333 66.5811 30.0013 65.987 24.5196 63.7164C19.0378 61.4458 14.3524 57.6006 11.056 52.6672C7.75953 47.7337 6.00004 41.9336 6 36.0001C6 28.0436 9.16071 20.413 14.7868 14.7869C20.4128 9.16074 28.0434 5.99999 35.9999 5.99994Z" fill="url(#paint0_linear_1448_6824)"/>
<path fill-rule="evenodd" clip-rule="evenodd" d="M13.8073 36.0001C13.8073 30.1142 16.1454 24.4694 20.3074 20.3075C24.4693 16.1456 30.114 13.8074 35.9999 13.8074C41.8857 13.8074 47.5305 16.1456 51.6924 20.3075C55.8544 24.4694 58.1925 30.1142 58.1925 36.0001C58.4847 35.1996 59.0159 34.5082 59.7142 34.0198C60.4125 33.5313 61.2441 33.2693 62.0963 33.2693C62.9485 33.2693 63.78 33.5313 64.4783 34.0198C65.1766 34.5082 65.7078 35.1996 66 36.0001C66 32.0604 65.2241 28.1593 63.7164 24.5196C62.2088 20.8798 59.9989 17.5726 57.2132 14.7868C54.4274 12.0011 51.1203 9.79127 47.4805 8.28362C43.8407 6.77598 39.9397 6 36 6C32.0604 6 28.1593 6.77598 24.5195 8.28362C20.8797 9.79127 17.5725 12.0011 14.7868 14.7868C12.001 17.5726 9.79124 20.8798 8.2836 24.5196C6.77595 28.1593 6 32.0604 6 36.0001C6.29217 35.1996 6.82338 34.5083 7.52165 34.0198C8.21992 33.5313 9.05151 33.2693 9.90367 33.2693C10.7558 33.2693 11.5874 33.5313 12.2856 34.0198C12.9839 34.5083 13.5151 35.1996 13.8073 36.0001Z" fill="url(#paint1_linear_1448_6824)"/>
<g style="mix-blend-mode:screen">
<path fill-rule="evenodd" clip-rule="evenodd" d="M35.4315 13.2251C39.8234 13.2251 44.1167 14.5275 47.7685 16.9676C51.4203 19.4076 54.2665 22.8758 55.9472 26.9334C57.6279 30.9911 58.0676 35.456 57.2108 39.7636C56.354 44.0711 54.239 48.0279 51.1334 51.1335C48.0278 54.2391 44.0711 56.354 39.7635 57.2108C35.4559 58.0676 30.9911 57.6278 26.9334 55.9471C22.8758 54.2663 19.4077 51.4201 16.9677 47.7683C14.5276 44.1165 13.2253 39.8231 13.2253 35.4312C13.2253 29.5417 15.5649 23.8935 19.7294 19.7291C23.8939 15.5646 29.5421 13.2251 35.4315 13.2251Z" fill="#F7E984"/>
</g>
<path fill-rule="evenodd" clip-rule="evenodd" d="M35.9999 13.8073C40.3891 13.8073 44.6798 15.1088 48.3294 17.5474C51.9789 19.9859 54.8235 23.4519 56.5032 27.5071C58.1829 31.5623 58.6224 36.0245 57.7661 40.3294C56.9098 44.6344 54.7962 48.5887 51.6925 51.6925C48.5888 54.7962 44.6345 56.9098 40.3296 57.7661C36.0246 58.6225 31.5624 58.183 27.5073 56.5033C23.4521 54.8237 19.9861 51.9792 17.5475 48.3297C15.1089 44.6801 13.8073 40.3894 13.8073 36.0001C13.8072 30.1142 16.1454 24.4694 20.3073 20.3074C24.4692 16.1455 30.114 13.8073 35.9999 13.8073Z" fill="url(#paint2_radial_1448_6824)"/>
<path style="mix-blend-mode:screen" fill-rule="evenodd" clip-rule="evenodd" d="M17.7465 48.6257L48.626 17.7463C45.9947 15.9299 43.0028 14.702 39.8542 14.1461C36.7055 13.5902 33.4741 13.7195 30.3799 14.525L14.525 30.3799C13.7195 33.474 13.5902 36.7055 14.1461 39.8541C14.7021 43.0027 15.9301 45.9945 17.7465 48.6257Z" fill="url(#paint3_radial_1448_6824)"/>
<path style="mix-blend-mode:screen" fill-rule="evenodd" clip-rule="evenodd" d="M56.3469 27.9534L27.9532 56.3471L27.7084 56.5917C30.0769 57.5458 32.593 58.082 35.1447 58.1764L35.685 57.6363L57.6361 35.6851L58.1765 35.1447C58.0819 32.593 57.5457 30.077 56.5918 27.7084L56.3469 27.9534Z" fill="url(#paint4_radial_1448_6824)"/>
<path fill-rule="evenodd" clip-rule="evenodd" d="M35.9999 6.78077C41.7789 6.78078 47.4282 8.49448 52.2332 11.7051C57.0383 14.9158 60.7833 19.4792 62.9948 24.8183C65.2063 30.1575 65.785 36.0325 64.6575 41.7005C63.5301 47.3684 60.7473 52.5748 56.6609 56.6612C52.5745 60.7476 47.3682 63.5304 41.7002 64.6579C36.0323 65.7853 30.1573 65.2067 24.8182 62.9951C19.4791 60.7836 14.9156 57.0385 11.705 52.2335C8.49433 47.4284 6.78064 41.7791 6.78062 36.0001C6.78061 32.163 7.5364 28.3634 9.0048 24.8184C10.4732 21.2733 12.6255 18.0522 15.3387 15.3389C18.052 12.6256 21.2731 10.4734 24.8182 9.00494C28.3632 7.53653 32.1628 6.78076 35.9999 6.78077ZM35.9999 5.99994C41.9333 5.99994 47.7335 7.7594 52.667 11.0558C57.6004 14.3523 61.4456 19.0376 63.7162 24.5194C65.9868 30.0012 66.5809 36.0332 65.4234 41.8526C64.2659 47.672 61.4087 53.0175 57.2131 57.2131C53.0176 61.4087 47.6721 64.2659 41.8527 65.4235C36.0333 66.5811 30.0013 65.987 24.5196 63.7164C19.0378 61.4458 14.3524 57.6006 11.056 52.6672C7.75953 47.7337 6.00004 41.9336 6 36.0001C6 28.0436 9.16071 20.413 14.7868 14.7869C20.4128 9.16074 28.0434 5.99999 35.9999 5.99994Z" fill="url(#paint5_linear_1448_6824)"/>
<g style="mix-blend-mode:screen">
<path fill-rule="evenodd" clip-rule="evenodd" d="M7.49103 29.5671C9.22937 23.3428 12.957 17.8584 18.1047 13.9513C23.2524 10.0442 29.5374 7.92925 35.9999 7.92925C42.4624 7.92925 48.7474 10.0442 53.8951 13.9513C59.0428 17.8584 62.7704 23.3428 64.5088 29.5671C63.0472 23.0979 59.4288 17.3182 54.248 13.1773C49.0672 9.03646 42.6321 6.78076 35.9999 6.78076C29.3676 6.78076 22.9326 9.03646 17.7518 13.1773C12.571 17.3182 8.95265 23.0979 7.49103 29.5671Z" fill="#F7E984"/>
</g>
<path d="M28.75 46.3333H32.875V38.3333H41.125V46.3333H45.25V34.3333L37 28.3333L28.75 34.3333V46.3333ZM26 48.9999V32.9999L37 24.9999L48 32.9999V48.9999H38.375V40.9999H35.625V48.9999H26Z" fill="#FFFBA9"/>
<path d="M27.75 44.3333H31.875V36.3333H40.125V44.3333H44.25V32.3333L36 26.3333L27.75 32.3333V44.3333ZM25 46.9999V30.9999L36 22.9999L47 30.9999V46.9999H37.375V38.9999H34.625V46.9999H25Z" fill="#753D29"/>
<path d="M27.75 45.3333H31.875V37.3333H40.125V45.3333H44.25V33.3333L36 27.3333L27.75 33.3333V45.3333ZM25 47.9999V31.9999L36 23.9999L47 31.9999V47.9999H37.375V39.9999H34.625V47.9999H25Z" fill="#9D5225"/>
</g>
<defs>
<filter id="filter0_d_1448_6824" x="0" y="-6.10352e-05" width="72" height="72" filterUnits="userSpaceOnUse" color-interpolation-filters="sRGB">
<feFlood flood-opacity="0" result="BackgroundImageFix"/>
<feColorMatrix in="SourceAlpha" type="matrix" values="0 0 0 0 0 0 0 0 0 0 0 0 0 0 0 0 0 0 127 0" result="hardAlpha"/>
<feOffset/>
<feGaussianBlur stdDeviation="3"/>
<feComposite in2="hardAlpha" operator="out"/>
<feColorMatrix type="matrix" values="0 0 0 0 0 0 0 0 0 0 0 0 0 0 0 0 0 0 0.7 0"/>
<feBlend mode="normal" in2="BackgroundImageFix" result="effect1_dropShadow_1448_6824"/>
<feBlend mode="normal" in="SourceGraphic" in2="effect1_dropShadow_1448_6824" result="shape"/>
</filter>
<linearGradient id="paint0_linear_1448_6824" x1="36" y1="65.9999" x2="36" y2="5.99994" gradientUnits="userSpaceOnUse">
<stop stop-color="#DE8B00"/>
<stop offset="1" stop-color="#FFC75E"/>
</linearGradient>
<linearGradient id="paint1_linear_1448_6824" x1="36" y1="36.0001" x2="36" y2="5.99991" gradientUnits="userSpaceOnUse">
<stop stop-color="#FFB805"/>
<stop offset="1" stop-color="#FFE89C"/>
</linearGradient>
<radialGradient id="paint2_radial_1448_6824" cx="0" cy="0" r="1" gradientUnits="userSpaceOnUse" gradientTransform="translate(25.531 16.6978) scale(49.2578 49.2579)">
<stop stop-color="#FFEEB8"/>
<stop offset="1" stop-color="#FFBF00"/>
</radialGradient>
<radialGradient id="paint3_radial_1448_6824" cx="0" cy="0" r="1" gradientUnits="userSpaceOnUse" gradientTransform="translate(27.9451 3.73549) scale(49.7054 49.7056)">
<stop stop-color="#FFFD9E"/>
<stop offset="1"/>
</radialGradient>
<radialGradient id="paint4_radial_1448_6824" cx="0" cy="0" r="1" gradientUnits="userSpaceOnUse" gradientTransform="translate(46.214 20.3687) scale(42.1981 42.1982)">
<stop stop-color="#FFFD9E"/>
<stop offset="1"/>
</radialGradient>
<linearGradient id="paint5_linear_1448_6824" x1="36" y1="65.9999" x2="36" y2="5.99994" gradientUnits="userSpaceOnUse">
<stop stop-color="#CF8000"/>
<stop offset="1" stop-color="#F5B133"/>
</linearGradient>
</defs>
</svg>
