<svg width="136" height="282" viewBox="0 0 136 282" fill="none" xmlns="http://www.w3.org/2000/svg">
<g filter="url(#filter0_f_1_1450)">
<rect x="61.4733" y="3.66082" width="171.953" height="257.93" rx="20" transform="rotate(7.5 61.4733 3.66082)" fill="white" fill-opacity="0.1" stroke="url(#paint0_linear_1_1450)"/>
<path d="M143.74 104.479C143.371 109.935 127.144 125.011 127.144 125.011L103.441 121.89C103.441 121.89 91.5831 103.117 92.7249 97.7628C93.2811 94.8654 98.7603 85.1021 103.726 76.5818C105.577 81.1067 110.772 93.4111 110.944 93.4337C111.213 93.3818 114.432 90.8349 114.208 90.5433C114.145 90.3602 109.659 77.9745 107.106 70.8233C109.692 66.4456 111.69 63.2138 112.112 62.6578C113.1 61.1278 114.926 61.1935 114.926 61.1935L131.674 63.3983C131.674 63.3983 133.455 63.8075 134.099 65.5524C134.731 67.3831 144.011 99.0977 143.74 104.479Z" fill="url(#paint1_linear_1_1450)"/>
<path d="M103.727 76.5825C105.715 81.3876 110.56 93.0344 110.944 93.4344C110.847 93.509 108.454 93.1065 107.231 91.1108C106.37 89.6868 106.117 88.9545 105.622 87.4041C104.494 84.0228 103.973 80.0224 103.727 76.5825Z" fill="#AEAEAF"/>
<g style="mix-blend-mode:multiply" opacity="0.5">
<path d="M143.74 104.479C143.371 109.935 127.144 125.011 127.144 125.011L103.441 121.89C103.441 121.89 102.792 120.844 101.793 119.14C103.025 119.739 104.365 120.177 105.814 120.455C120.371 124.032 134.224 110.391 134.338 96.2515C134.429 88.9243 132.212 81.2058 129.248 74.5247C127.449 70.2687 124.825 65.6421 121.453 62.0528L131.674 63.3983C131.674 63.3983 133.455 63.8075 134.099 65.5524C134.731 67.3831 144.011 99.0977 143.74 104.479Z" fill="#D0D0D1"/>
</g>
<path style="mix-blend-mode:screen" opacity="0.5" d="M143.74 104.479C143.371 109.935 127.144 125.011 127.144 125.011L103.441 121.89C103.441 121.89 91.5831 103.117 92.7249 97.7628C93.2811 94.8654 98.7603 85.1021 103.726 76.5818C105.577 81.1067 110.772 93.4111 110.944 93.4337C111.213 93.3818 114.432 90.8349 114.208 90.5433C114.145 90.3602 109.659 77.9745 107.106 70.8233C109.692 66.4456 111.69 63.2138 112.112 62.6578C113.1 61.1278 114.926 61.1935 114.926 61.1935L131.674 63.3983C131.674 63.3983 133.455 63.8075 134.099 65.5524C134.731 67.3831 144.011 99.0977 143.74 104.479Z" fill="url(#paint2_linear_1_1450)"/>
<path opacity="0.5" d="M111.844 83.9413C110.757 80.915 109.395 77.3281 108.245 74.1186C110.241 69.5759 112.225 65.1191 114.045 61.2522C114.583 61.1483 114.926 61.1935 114.926 61.1935L119.908 61.8493C117.324 67.5378 114.223 75.1677 111.844 83.9413Z" fill="url(#paint3_linear_1_1450)"/>
<path opacity="0.5" d="M112.115 123.033L108.937 122.615C103.924 116.887 99.7213 108.994 100.396 97.8996C100.613 94.2586 102.772 87.8151 105.514 80.9242C107.048 84.5337 108.91 88.9727 109.99 91.3866C109.585 93.1389 109.233 94.9274 108.934 96.7521C106.463 111.542 108.639 118.906 112.115 123.033Z" fill="url(#paint4_linear_1_1450)"/>
<path d="M133.314 65.5365L112.788 62.8342C111.156 62.6194 110.049 61.0756 110.253 59.5297C110.467 57.8979 111.937 56.6934 113.568 56.9082L134.095 59.6105C135.726 59.8254 136.834 61.3691 136.619 63.0009C136.415 64.5468 134.946 65.7514 133.314 65.5365Z" fill="url(#paint5_linear_1_1450)"/>
<path style="mix-blend-mode:screen" opacity="0.5" d="M119.659 63.7388L112.788 62.8342C112.674 62.8191 112.563 62.7754 112.456 62.7031C111.932 60.7119 112.334 58.3184 113.912 56.9534L120.01 57.7562C119.273 58.7077 118.909 60.1451 118.945 61.1983C119.003 62.0798 119.242 62.9266 119.659 63.7388Z" fill="url(#paint6_linear_1_1450)"/>
<path style="mix-blend-mode:multiply" opacity="0.5" d="M136.3 64.0956C135.649 65.0583 134.517 65.6956 133.314 65.5373L112.788 62.835C111.586 62.6767 110.657 61.768 110.277 60.6696C110.506 60.6998 110.707 60.7261 110.879 60.7488L136.3 64.0956Z" fill="url(#paint7_linear_1_1450)"/>
<path d="M126.907 130.135L102.774 126.957C101.142 126.743 100.023 125.285 100.238 123.653C100.453 122.021 101.911 120.902 103.543 121.117L127.676 124.295C129.308 124.509 130.426 125.967 130.211 127.599C129.997 129.231 128.539 130.349 126.907 130.135Z" fill="url(#paint8_linear_1_1450)"/>
<path style="mix-blend-mode:screen" opacity="0.5" d="M109.73 127.873L105.951 127.376C105.489 126.907 105.062 126.385 104.672 125.809C104.012 124.849 103.73 123.676 104.467 122.724C104.912 121.997 105.741 121.669 106.548 121.513L110.413 122.022C109.43 122.853 108.734 124.16 108.822 125.482C108.88 126.363 109.208 127.193 109.73 127.873Z" fill="url(#paint9_linear_1_1450)"/>
<path style="mix-blend-mode:multiply" opacity="0.5" d="M130.268 127.171C130.245 127.343 130.226 127.486 130.211 127.6C129.996 129.232 128.539 130.351 126.907 130.136L102.774 126.959C101.142 126.744 100.023 125.286 100.238 123.654C100.253 123.54 100.272 123.397 100.294 123.225L130.268 127.171Z" fill="url(#paint10_linear_1_1450)"/>
<path d="M129.605 193.923L107.877 191.062L105.472 190.746L83.7435 187.885C107.929 150.179 99.9615 133.053 99.9615 133.053L100.283 129.95L114.374 132.417L128.624 133.682L128.131 136.762C128.131 136.762 116.002 151.242 129.605 193.923Z" fill="url(#paint11_linear_1_1450)"/>
<g style="mix-blend-mode:multiply" opacity="0.5">
<path d="M128.131 136.762C128.131 136.762 116.003 151.242 129.605 193.923L119.986 192.656C116.563 182.158 113.517 171.447 113.064 160.291C112.795 153.703 113.528 146.809 115.492 140.515C116.37 137.835 117.504 135.188 119.035 132.856L128.624 133.682L128.131 136.762Z" fill="#D0D0D1"/>
</g>
<path style="mix-blend-mode:screen" opacity="0.5" d="M129.605 193.923L107.877 191.062L105.472 190.746L83.7435 187.885C107.929 150.179 99.9615 133.053 99.9615 133.053L100.283 129.95L114.374 132.417L128.624 133.682L128.131 136.762C128.131 136.762 116.002 151.242 129.605 193.923Z" fill="url(#paint12_linear_1_1450)"/>
<path opacity="0.5" d="M96.1965 189.524L85.8905 188.167C92.0724 181.03 98.985 165.689 102.021 153.245C104.637 142.668 103.84 134.787 102.934 130.387L106.432 131.022C107.293 135.766 108.251 143.756 107.26 153.935C106.016 166.702 101.422 182.349 96.1965 189.524Z" fill="url(#paint13_linear_1_1450)"/>
<path d="M127.777 136.801L100.208 133.172C98.3187 132.923 97.0509 131.271 97.2996 129.381C97.5371 127.578 99.2006 126.224 101.09 126.473L128.659 130.102C130.548 130.351 131.89 132.1 131.653 133.904C131.404 135.793 129.666 137.05 127.777 136.801Z" fill="url(#paint14_linear_1_1450)"/>
<path style="mix-blend-mode:screen" opacity="0.5" d="M107.165 134.087L102.441 133.466C101.919 132.785 101.408 132.019 101.081 131.19C100.626 129.994 100.882 128.717 101.876 127.799C102.385 127.255 103.117 127.002 103.838 126.834L107.617 127.332C106.021 128.17 104.713 129.483 105.386 131.669C105.691 132.67 106.374 133.459 107.165 134.087Z" fill="url(#paint15_linear_1_1450)"/>
<path style="mix-blend-mode:multiply" opacity="0.5" d="M131.635 133.379C131.612 133.551 131.618 133.726 131.653 133.906C131.404 135.795 129.666 137.052 127.777 136.803L100.208 133.173C98.3184 132.925 97.0506 131.272 97.2994 129.383C97.322 129.211 97.3446 129.039 97.3672 128.868L131.635 133.379Z" fill="url(#paint16_linear_1_1450)"/>
<path d="M128.891 201.343L128.879 201.429L107.838 198.659L103.629 198.105L82.588 195.335L82.5993 195.249C86.6178 195.254 87.5064 189.167 83.7434 187.885L104.613 190.633L108.821 191.187L129.605 193.923C125.639 194.187 124.922 200.296 128.891 201.343Z" fill="url(#paint17_linear_1_1450)"/>
<g style="mix-blend-mode:multiply" opacity="0.5">
<path d="M128.891 201.343L128.879 201.429L114.88 199.586C112.783 198.261 112.15 196.431 113.143 194.202C113.525 193.291 114.228 192.598 115.005 192.001L129.605 193.923C125.639 194.187 124.922 200.296 128.891 201.343Z" fill="#D0D0D1"/>
</g>
<path d="M142.981 220.41C142.468 221.653 141.13 222.525 140.147 223.357C138.689 224.475 132.925 228.434 132.839 228.423C132.839 228.423 114.912 225.888 102.287 224.226C89.6624 222.564 71.776 220.384 71.776 220.384C71.6901 220.373 67.0617 215.045 65.9431 213.587C65.2086 212.53 64.142 211.341 63.968 210.007C63.8461 208.943 64.5196 207.808 65.4802 207.148C66.746 206.383 67.9906 205.557 69.2141 204.669C70.3578 203.946 71.5015 203.223 72.5706 202.403C74.6862 200.934 81.2499 196.206 82.5992 195.248L93.5064 196.684L117.897 199.895L128.805 201.331C129.86 202.606 134.976 208.871 136.64 210.837C137.546 211.918 138.463 212.912 139.295 213.896C140.305 215.077 141.293 216.197 142.26 217.257C143.017 218.143 143.46 219.424 142.981 220.41Z" fill="url(#paint18_linear_1_1450)"/>
<g style="mix-blend-mode:multiply" opacity="0.5">
<path d="M142.981 220.41C142.468 221.653 141.13 222.525 140.147 223.357C138.689 224.475 132.925 228.435 132.839 228.423C132.839 228.423 129.501 227.896 124.606 227.252C125.675 226.432 126.755 225.525 127.75 224.608C129.63 222.933 131.041 220.847 131.724 218.316C132.474 215.269 129.062 211.325 127.414 208.574C125.767 205.824 124.011 203.234 122.278 200.472L128.805 201.331C129.86 202.606 134.977 208.871 136.64 210.838C137.546 211.918 138.464 212.912 139.295 213.896C140.305 215.077 141.293 216.197 142.26 217.257C143.017 218.143 143.46 219.424 142.981 220.41Z" fill="#D0D0D1"/>
</g>
<path style="mix-blend-mode:screen" opacity="0.5" d="M142.981 220.41C142.468 221.653 141.13 222.525 140.147 223.357C138.689 224.475 132.925 228.434 132.839 228.423C132.839 228.423 114.912 225.888 102.287 224.226C89.6624 222.564 71.776 220.384 71.776 220.384C71.6901 220.373 67.0617 215.045 65.9431 213.587C65.2086 212.53 64.142 211.341 63.968 210.007C63.8461 208.943 64.5196 207.808 65.4802 207.148C66.746 206.383 67.9906 205.557 69.2141 204.669C70.3578 203.946 71.5015 203.223 72.5706 202.403C74.6862 200.934 81.2499 196.206 82.5992 195.248L93.5064 196.684L117.897 199.895L128.805 201.331C129.86 202.606 134.976 208.871 136.64 210.837C137.546 211.918 138.463 212.912 139.295 213.896C140.305 215.077 141.293 216.197 142.26 217.257C143.017 218.143 143.46 219.424 142.981 220.41Z" fill="url(#paint19_linear_1_1450)"/>
<path opacity="0.5" d="M73.8486 220.57C72.5604 220.4 71.7761 220.384 71.7761 220.384C71.6902 220.373 67.0619 215.045 65.9432 213.587C65.272 212.713 66.3185 212.064 66.0248 210.977C68.7981 209.158 84.6695 197.443 86.4641 195.757L92.3042 196.526C81.6332 209.887 78.3785 211.38 73.8486 220.57Z" fill="url(#paint20_linear_1_1450)"/>
<path d="M143.146 219.82C143.112 220.077 143.089 220.249 142.981 220.41C142.468 221.653 141.13 222.525 140.147 223.357C138.689 224.475 132.925 228.435 132.839 228.423C132.839 228.423 114.912 225.888 102.287 224.226C89.6624 222.564 71.776 220.384 71.776 220.384C71.6902 220.373 67.0618 215.045 65.9432 213.588C65.2087 212.53 64.142 211.341 63.9681 210.007C63.9048 209.824 63.9274 209.653 63.9614 209.395L143.146 219.82Z" fill="url(#paint21_linear_1_1450)"/>
<g style="mix-blend-mode:multiply" opacity="0.5">
<path d="M143.146 219.82C143.112 220.077 143.09 220.249 142.981 220.41C142.468 221.653 141.13 222.525 140.147 223.357C138.689 224.475 132.925 228.435 132.839 228.423C132.839 228.423 111.38 225.511 99.711 223.887C100.936 223.874 102.19 223.864 103.472 223.858C109.081 223.723 112.033 222.539 117.037 219.703C118.267 218.991 119.444 218.01 120.215 216.801L143.146 219.82Z" fill="#D0D0D1"/>
</g>
<path d="M139.402 233.657L64.5003 223.883C64.4596 223.528 64.5727 222.669 64.6179 222.326C64.9119 220.093 66.867 218.515 69.0141 218.798L136.347 227.662C138.494 227.945 139.974 229.975 139.68 232.208C139.635 232.551 139.533 233.324 139.402 233.657Z" fill="url(#paint22_linear_1_1450)"/>
<g style="mix-blend-mode:multiply" opacity="0.5">
<path d="M139.68 232.207C139.635 232.551 139.533 233.324 139.402 233.656L64.5004 223.882C64.4597 223.528 64.5728 222.669 64.618 222.325C64.6406 222.153 64.667 221.953 64.6971 221.724L139.673 231.595C139.701 231.831 139.703 232.036 139.68 232.207Z" fill="#B9B8B9"/>
</g>
<path d="M149.89 251.55L49.7501 238.366C49.7501 238.366 49.7538 238.338 49.7614 238.28C50.9599 229.177 57.6978 222.462 64.7402 223.39L139.287 233.204C146.33 234.131 151.1 242.36 149.902 251.464C149.894 251.521 149.89 251.55 149.89 251.55Z" fill="url(#paint23_linear_1_1450)"/>
<g style="mix-blend-mode:multiply" opacity="0.5">
<path d="M149.902 251.464C149.894 251.521 149.89 251.55 149.89 251.55L76.2881 241.86C83.3351 242.089 90.3234 241.436 97.1106 240.32C103.199 239.2 116.27 236.814 122.626 231.01L139.287 233.204C146.33 234.131 151.1 242.36 149.902 251.464Z" fill="#D0D0D1"/>
</g>
<g style="mix-blend-mode:screen" opacity="0.5">
<path d="M82.1744 225.685C77.7895 229.127 75.947 236.485 75.1714 241.713L57.1359 239.339C59.1773 231.132 66.4712 224.841 71.3531 224.26L82.1744 225.685Z" fill="url(#paint24_linear_1_1450)"/>
</g>
</g>
<defs>
<filter id="filter0_f_1_1450" x="27.7438" y="3.59791" width="204.275" height="278.294" filterUnits="userSpaceOnUse" color-interpolation-filters="sRGB">
<feFlood flood-opacity="0" result="BackgroundImageFix"/>
<feBlend mode="normal" in="SourceGraphic" in2="BackgroundImageFix" result="shape"/>
<feGaussianBlur stdDeviation="1" result="effect1_foregroundBlur_1_1450"/>
</filter>
<linearGradient id="paint0_linear_1_1450" x1="61.4733" y1="3.66082" x2="147.45" y2="261.591" gradientUnits="userSpaceOnUse">
<stop stop-color="#292F95"/>
<stop offset="1" stop-color="white" stop-opacity="0"/>
</linearGradient>
<linearGradient id="paint1_linear_1_1450" x1="14484.6" y1="19570.6" x2="18004.7" y2="20701.7" gradientUnits="userSpaceOnUse">
<stop stop-color="#E1E2E2"/>
<stop offset="0.3" stop-color="#C3C2C2"/>
<stop offset="0.9" stop-color="#B9B7B8"/>
</linearGradient>
<linearGradient id="paint2_linear_1_1450" x1="14498.1" y1="20493" x2="16177" y2="20714.1" gradientUnits="userSpaceOnUse">
<stop stop-color="#FEFEFE"/>
<stop offset="0.9" stop-color="#C3C2C2"/>
</linearGradient>
<linearGradient id="paint3_linear_1_1450" x1="2044.25" y1="8768.58" x2="2569.69" y2="7073.58" gradientUnits="userSpaceOnUse">
<stop stop-color="#FEFEFE"/>
<stop offset="0.5" stop-color="#FEFEFE"/>
<stop offset="1" stop-color="#FEFEFE"/>
</linearGradient>
<linearGradient id="paint4_linear_1_1450" x1="2226.05" y1="15309.5" x2="3272.95" y2="12247.4" gradientUnits="userSpaceOnUse">
<stop stop-color="#FEFEFE"/>
<stop offset="0.5" stop-color="#FEFEFE"/>
<stop offset="1" stop-color="#FEFEFE"/>
</linearGradient>
<linearGradient id="paint5_linear_1_1450" x1="9186.4" y1="3020.19" x2="9178.84" y2="3077.67" gradientUnits="userSpaceOnUse">
<stop stop-color="#E1E2E2"/>
<stop offset="0.4" stop-color="#C3C2C2"/>
<stop offset="0.9" stop-color="#B9B7B8"/>
</linearGradient>
<linearGradient id="paint6_linear_1_1450" x1="2549.9" y1="2144.07" x2="2544.67" y2="2183.77" gradientUnits="userSpaceOnUse">
<stop offset="0.1" stop-color="#FEFEFE"/>
<stop offset="0.9" stop-color="#FEFEFE"/>
</linearGradient>
<linearGradient id="paint7_linear_1_1450" x1="9205.84" y1="1796.28" x2="9204.2" y2="1808.72" gradientUnits="userSpaceOnUse">
<stop stop-color="#E1E2E2"/>
<stop offset="0.4" stop-color="#C3C2C2"/>
<stop offset="0.9" stop-color="#B9B7B8"/>
</linearGradient>
<linearGradient id="paint8_linear_1_1450" x1="10402.7" y1="3652.15" x2="10395.7" y2="3705.88" gradientUnits="userSpaceOnUse">
<stop stop-color="#E1E2E2"/>
<stop offset="0.4" stop-color="#C3C2C2"/>
<stop offset="0.9" stop-color="#B9B7B8"/>
</linearGradient>
<linearGradient id="paint9_linear_1_1450" x1="1940.93" y1="2538.13" x2="1933.86" y2="2591.86" gradientUnits="userSpaceOnUse">
<stop stop-color="#FEFEFE"/>
<stop offset="0.9" stop-color="#C3C2C2"/>
</linearGradient>
<linearGradient id="paint10_linear_1_1450" x1="10510.5" y1="2741.24" x2="10506.4" y2="2772.05" gradientUnits="userSpaceOnUse">
<stop stop-color="#E1E2E2"/>
<stop offset="0.4" stop-color="#C3C2C2"/>
<stop offset="0.9" stop-color="#B9B7B8"/>
</linearGradient>
<linearGradient id="paint11_linear_1_1450" x1="12287.6" y1="24510.9" x2="14273.4" y2="24772.3" gradientUnits="userSpaceOnUse">
<stop stop-color="#E1E2E2"/>
<stop offset="0.5" stop-color="#C3C2C2"/>
<stop offset="0.9" stop-color="#B9B7B8"/>
</linearGradient>
<linearGradient id="paint12_linear_1_1450" x1="12287.6" y1="24510.9" x2="13993.7" y2="24735.5" gradientUnits="userSpaceOnUse">
<stop stop-color="#FEFEFE"/>
<stop offset="0.9" stop-color="#C3C2C2"/>
</linearGradient>
<linearGradient id="paint13_linear_1_1450" x1="205.117" y1="27761.2" x2="797.02" y2="23265.2" gradientUnits="userSpaceOnUse">
<stop offset="0.1" stop-color="#FEFEFE"/>
<stop offset="1" stop-color="#FEFEFE"/>
</linearGradient>
<linearGradient id="paint14_linear_1_1450" x1="11903.1" y1="4216.8" x2="11893.8" y2="4287.81" gradientUnits="userSpaceOnUse">
<stop stop-color="#E1E2E2"/>
<stop offset="0.4" stop-color="#C3C2C2"/>
<stop offset="0.9" stop-color="#B9B7B8"/>
</linearGradient>
<linearGradient id="paint15_linear_1_1450" x1="2093.99" y1="2925.4" x2="2084.64" y2="2996.41" gradientUnits="userSpaceOnUse">
<stop stop-color="#FEFEFE"/>
<stop offset="0.9" stop-color="#C3C2C2"/>
</linearGradient>
<linearGradient id="paint16_linear_1_1450" x1="12024.4" y1="3162.88" x2="12019" y2="3203.46" gradientUnits="userSpaceOnUse">
<stop stop-color="#E1E2E2"/>
<stop offset="0.4" stop-color="#C3C2C2"/>
<stop offset="0.9" stop-color="#B9B7B8"/>
</linearGradient>
<linearGradient id="paint17_linear_1_1450" x1="14118.4" y1="5438.72" x2="16400.6" y2="5739.17" gradientUnits="userSpaceOnUse">
<stop stop-color="#B9B7B8"/>
<stop offset="0.2" stop-color="#E1E2E2"/>
<stop offset="0.6" stop-color="#C3C2C2"/>
<stop offset="1" stop-color="#B9B7B8"/>
</linearGradient>
<linearGradient id="paint18_linear_1_1450" x1="23050.7" y1="15338.9" x2="28949.5" y2="16115.5" gradientUnits="userSpaceOnUse">
<stop stop-color="#E1E2E2"/>
<stop offset="0.4" stop-color="#C3C2C2"/>
<stop offset="0.9" stop-color="#B9B7B8"/>
</linearGradient>
<linearGradient id="paint19_linear_1_1450" x1="23050.7" y1="15338.9" x2="28949.5" y2="16115.5" gradientUnits="userSpaceOnUse">
<stop stop-color="#FEFEFE"/>
<stop offset="0.9" stop-color="#C3C2C2"/>
</linearGradient>
<linearGradient id="paint20_linear_1_1450" x1="5571.86" y1="13367.1" x2="6316.78" y2="12768.7" gradientUnits="userSpaceOnUse">
<stop offset="0.1" stop-color="#FEFEFE"/>
<stop offset="1" stop-color="#FEFEFE"/>
</linearGradient>
<linearGradient id="paint21_linear_1_1450" x1="22272.3" y1="7867.38" x2="29050.5" y2="8759.75" gradientUnits="userSpaceOnUse">
<stop stop-color="#B9B7B8"/>
<stop offset="0.2" stop-color="#E1E2E2"/>
<stop offset="0.6" stop-color="#C3C2C2"/>
<stop offset="1" stop-color="#B9B7B8"/>
</linearGradient>
<linearGradient id="paint22_linear_1_1450" x1="21889.4" y1="5847.61" x2="27023.6" y2="6523.55" gradientUnits="userSpaceOnUse">
<stop stop-color="#E1E2E2"/>
<stop offset="0.4" stop-color="#C3C2C2"/>
<stop offset="0.9" stop-color="#B9B7B8"/>
</linearGradient>
<linearGradient id="paint23_linear_1_1450" x1="28465.8" y1="12288.4" x2="40142.1" y2="13825.6" gradientUnits="userSpaceOnUse">
<stop stop-color="#E1E2E2"/>
<stop offset="0.4" stop-color="#C3C2C2"/>
<stop offset="0.9" stop-color="#B9B7B8"/>
</linearGradient>
<linearGradient id="paint24_linear_1_1450" x1="5990.8" y1="9682.07" x2="6077.44" y2="9108.5" gradientUnits="userSpaceOnUse">
<stop offset="0.1" stop-color="#FEFEFE"/>
<stop offset="0.7" stop-color="#FEFEFE"/>
</linearGradient>
</defs>
</svg>
