<svg width="72" height="72" viewBox="0 0 72 72" fill="none" xmlns="http://www.w3.org/2000/svg">
<g filter="url(#filter0_d_1448_6809)">
<path fill-rule="evenodd" clip-rule="evenodd" d="M35.9999 5.99994C41.9333 5.99994 47.7335 7.7594 52.667 11.0558C57.6004 14.3523 61.4456 19.0376 63.7162 24.5194C65.9868 30.0012 66.5809 36.0332 65.4234 41.8526C64.2659 47.672 61.4087 53.0175 57.2131 57.2131C53.0176 61.4087 47.6721 64.2659 41.8527 65.4235C36.0333 66.5811 30.0013 65.987 24.5196 63.7164C19.0378 61.4458 14.3524 57.6006 11.056 52.6672C7.75953 47.7337 6.00004 41.9336 6 36.0001C6 28.0436 9.16071 20.413 14.7868 14.7869C20.4128 9.16074 28.0434 5.99999 35.9999 5.99994Z" fill="url(#paint0_linear_1448_6809)"/>
<path fill-rule="evenodd" clip-rule="evenodd" d="M13.8073 36.0001C13.8073 30.1142 16.1454 24.4694 20.3074 20.3075C24.4693 16.1456 30.114 13.8074 35.9999 13.8074C41.8857 13.8074 47.5305 16.1456 51.6924 20.3075C55.8544 24.4694 58.1925 30.1142 58.1925 36.0001C58.4847 35.1996 59.0159 34.5082 59.7142 34.0198C60.4125 33.5313 61.2441 33.2693 62.0963 33.2693C62.9485 33.2693 63.78 33.5313 64.4783 34.0198C65.1766 34.5082 65.7078 35.1996 66 36.0001C66 32.0604 65.2241 28.1593 63.7164 24.5196C62.2088 20.8798 59.9989 17.5726 57.2132 14.7868C54.4274 12.0011 51.1203 9.79127 47.4805 8.28362C43.8407 6.77598 39.9397 6 36 6C32.0604 6 28.1593 6.77598 24.5195 8.28362C20.8797 9.79127 17.5725 12.0011 14.7868 14.7868C12.001 17.5726 9.79124 20.8798 8.2836 24.5196C6.77595 28.1593 6 32.0604 6 36.0001C6.29217 35.1996 6.82338 34.5083 7.52165 34.0198C8.21992 33.5313 9.05151 33.2693 9.90367 33.2693C10.7558 33.2693 11.5874 33.5313 12.2856 34.0198C12.9839 34.5083 13.5151 35.1996 13.8073 36.0001Z" fill="url(#paint1_linear_1448_6809)"/>
<g style="mix-blend-mode:screen">
<path fill-rule="evenodd" clip-rule="evenodd" d="M35.4315 13.2251C39.8234 13.2251 44.1167 14.5275 47.7685 16.9676C51.4203 19.4076 54.2665 22.8758 55.9472 26.9334C57.6279 30.9911 58.0676 35.456 57.2108 39.7636C56.354 44.0711 54.239 48.0279 51.1334 51.1335C48.0278 54.2391 44.0711 56.354 39.7635 57.2108C35.4559 58.0676 30.9911 57.6278 26.9334 55.9471C22.8758 54.2663 19.4077 51.4201 16.9677 47.7683C14.5276 44.1165 13.2253 39.8231 13.2253 35.4312C13.2253 29.5417 15.5649 23.8935 19.7294 19.7291C23.8939 15.5646 29.5421 13.2251 35.4315 13.2251Z" fill="#F7E984"/>
</g>
<path fill-rule="evenodd" clip-rule="evenodd" d="M35.9999 13.8073C40.3891 13.8073 44.6798 15.1088 48.3294 17.5474C51.9789 19.9859 54.8235 23.4519 56.5032 27.5071C58.1829 31.5623 58.6224 36.0245 57.7661 40.3294C56.9098 44.6344 54.7962 48.5887 51.6925 51.6925C48.5888 54.7962 44.6345 56.9098 40.3296 57.7661C36.0246 58.6225 31.5624 58.183 27.5073 56.5033C23.4521 54.8237 19.9861 51.9792 17.5475 48.3297C15.1089 44.6801 13.8073 40.3894 13.8073 36.0001C13.8072 30.1142 16.1454 24.4694 20.3073 20.3074C24.4692 16.1455 30.114 13.8073 35.9999 13.8073Z" fill="url(#paint2_radial_1448_6809)"/>
<path style="mix-blend-mode:screen" fill-rule="evenodd" clip-rule="evenodd" d="M17.7465 48.6257L48.626 17.7463C45.9947 15.9299 43.0028 14.702 39.8542 14.1461C36.7055 13.5902 33.4741 13.7195 30.3799 14.525L14.525 30.3799C13.7195 33.474 13.5902 36.7055 14.1461 39.8541C14.7021 43.0027 15.9301 45.9945 17.7465 48.6257Z" fill="url(#paint3_radial_1448_6809)"/>
<path style="mix-blend-mode:screen" fill-rule="evenodd" clip-rule="evenodd" d="M56.3469 27.9534L27.9532 56.3471L27.7084 56.5917C30.0769 57.5458 32.593 58.082 35.1447 58.1764L35.685 57.6363L57.6361 35.6851L58.1765 35.1447C58.0819 32.593 57.5457 30.077 56.5918 27.7084L56.3469 27.9534Z" fill="url(#paint4_radial_1448_6809)"/>
<path fill-rule="evenodd" clip-rule="evenodd" d="M35.9999 6.78077C41.7789 6.78078 47.4282 8.49448 52.2332 11.7051C57.0383 14.9158 60.7833 19.4792 62.9948 24.8183C65.2063 30.1575 65.785 36.0325 64.6575 41.7005C63.5301 47.3684 60.7473 52.5748 56.6609 56.6612C52.5745 60.7476 47.3682 63.5304 41.7002 64.6579C36.0323 65.7853 30.1573 65.2067 24.8182 62.9951C19.4791 60.7836 14.9156 57.0385 11.705 52.2335C8.49433 47.4284 6.78064 41.7791 6.78062 36.0001C6.78061 32.163 7.5364 28.3634 9.0048 24.8184C10.4732 21.2733 12.6255 18.0522 15.3387 15.3389C18.052 12.6256 21.2731 10.4734 24.8182 9.00494C28.3632 7.53653 32.1628 6.78076 35.9999 6.78077ZM35.9999 5.99994C41.9333 5.99994 47.7335 7.7594 52.667 11.0558C57.6004 14.3523 61.4456 19.0376 63.7162 24.5194C65.9868 30.0012 66.5809 36.0332 65.4234 41.8526C64.2659 47.672 61.4087 53.0175 57.2131 57.2131C53.0176 61.4087 47.6721 64.2659 41.8527 65.4235C36.0333 66.5811 30.0013 65.987 24.5196 63.7164C19.0378 61.4458 14.3524 57.6006 11.056 52.6672C7.75953 47.7337 6.00004 41.9336 6 36.0001C6 28.0436 9.16071 20.413 14.7868 14.7869C20.4128 9.16074 28.0434 5.99999 35.9999 5.99994Z" fill="url(#paint5_linear_1448_6809)"/>
<g style="mix-blend-mode:screen">
<path fill-rule="evenodd" clip-rule="evenodd" d="M7.49103 29.5671C9.22937 23.3428 12.957 17.8584 18.1047 13.9513C23.2524 10.0442 29.5374 7.92925 35.9999 7.92925C42.4624 7.92925 48.7474 10.0442 53.8951 13.9513C59.0428 17.8584 62.7704 23.3428 64.5088 29.5671C63.0472 23.0979 59.4288 17.3182 54.248 13.1773C49.0672 9.03646 42.6321 6.78076 35.9999 6.78076C29.3676 6.78076 22.9326 9.03646 17.7518 13.1773C12.571 17.3182 8.95265 23.0979 7.49103 29.5671Z" fill="#F7E984"/>
</g>
<path fill-rule="evenodd" clip-rule="evenodd" d="M33.7277 25.2933H45.3989C46.0283 25.2951 46.6315 25.546 47.0766 25.9911C47.5217 26.4362 47.7726 27.0393 47.7744 27.6688C47.7725 28.2982 47.5216 28.9015 47.0765 29.3466C46.6314 29.7917 46.0283 30.0426 45.3989 30.0445H33.7277C33.0982 30.0426 32.4951 29.7917 32.05 29.3466C31.605 28.9015 31.354 28.2984 31.3521 27.669C31.354 27.0395 31.6048 26.4362 32.0499 25.9911C32.495 25.546 33.0982 25.2951 33.7277 25.2933ZM33.7277 33.6246H45.3989C46.0284 33.6264 46.6315 33.8773 47.0766 34.3224C47.5217 34.7675 47.7726 35.3707 47.7744 36.0001C47.7725 36.6296 47.5216 37.2327 47.0765 37.6778C46.6314 38.1229 46.0283 38.3738 45.3989 38.3757H33.7277C33.0982 38.3738 32.4951 38.1229 32.05 37.6778C31.6049 37.2327 31.354 36.6296 31.3521 36.0001C31.3539 35.3707 31.6048 34.7675 32.0499 34.3224C32.495 33.8773 33.0982 33.6264 33.7277 33.6246ZM33.7277 41.9556H45.3989C46.0283 41.9574 46.6315 42.2083 47.0766 42.6534C47.5217 43.0985 47.7726 43.7016 47.7744 44.3311C47.7726 44.9606 47.5217 45.5638 47.0766 46.0089C46.6315 46.454 46.0284 46.7048 45.3989 46.7066H33.7277C33.0982 46.7048 32.495 46.454 32.0499 46.0089C31.6048 45.5637 31.3539 44.9606 31.3521 44.3311C31.354 43.7016 31.6048 43.0985 32.0499 42.6534C32.495 42.2083 33.0982 41.9574 33.7277 41.9556ZM26.6011 25.2933C27.0709 25.2933 27.5302 25.4326 27.9209 25.6936C28.3115 25.9546 28.616 26.3257 28.7958 26.7597C28.9756 27.1938 29.0226 27.6714 28.931 28.1322C28.8393 28.5931 28.6131 29.0163 28.2809 29.3486C27.9487 29.6808 27.5253 29.907 27.0645 29.9987C26.6037 30.0903 26.1261 30.0433 25.692 29.8635C25.258 29.6837 24.8869 29.3792 24.6259 28.9886C24.3649 28.5979 24.2256 28.1386 24.2256 27.6688C24.2256 27.0388 24.4759 26.4345 24.9214 25.989C25.3669 25.5436 25.9711 25.2933 26.6011 25.2933ZM26.6011 33.6246C27.0709 33.6246 27.5302 33.7639 27.9209 34.025C28.3115 34.286 28.616 34.657 28.7958 35.0911C28.9756 35.5251 29.0226 36.0028 28.931 36.4636C28.8393 36.9244 28.6131 37.3477 28.2809 37.6799C27.9487 38.0121 27.5253 38.2384 27.0645 38.33C26.6037 38.4217 26.1261 38.3746 25.692 38.1948C25.258 38.015 24.8869 37.7106 24.6259 37.3199C24.3649 36.9293 24.2256 36.47 24.2256 36.0001C24.2256 35.3701 24.4759 34.7659 24.9214 34.3204C25.3669 33.8749 25.9711 33.6246 26.6011 33.6246ZM26.6011 41.9556C27.0709 41.9556 27.5302 42.0949 27.9209 42.3559C28.3115 42.617 28.616 42.988 28.7958 43.422C28.9756 43.8561 29.0226 44.3337 28.931 44.7945C28.8393 45.2554 28.6131 45.6786 28.2809 46.0109C27.9487 46.3431 27.5253 46.5693 27.0645 46.661C26.6037 46.7527 26.1261 46.7056 25.692 46.5258C25.258 46.346 24.8869 46.0415 24.6259 45.6509C24.3649 45.2602 24.2256 44.8009 24.2256 44.3311C24.2256 43.7011 24.4759 43.0969 24.9214 42.6514C25.3669 42.2059 25.9711 41.9556 26.6011 41.9556Z" fill="url(#paint6_linear_1448_6809)"/>
<g style="mix-blend-mode:screen">
<path fill-rule="evenodd" clip-rule="evenodd" d="M24.2256 29.2181C24.2259 29.5632 24.3014 29.904 24.4467 30.2169C24.5921 30.5297 24.8038 30.8072 25.0673 31.03C25.3308 31.2528 25.6396 31.4155 25.9723 31.5068C26.305 31.5981 26.6536 31.6159 26.9938 31.5588C27.3341 31.5018 27.6579 31.3713 27.9426 31.1765C28.2273 30.9817 28.4662 30.7271 28.6426 30.4306C28.819 30.1341 28.9287 29.8028 28.9641 29.4596C28.9995 29.1164 28.9597 28.7696 28.8475 28.4434C28.6861 28.9107 28.383 29.3161 27.9804 29.6031C27.5777 29.8901 27.0956 30.0443 26.6011 30.0443C26.1067 30.0443 25.6246 29.8901 25.2219 29.6031C24.8193 29.3161 24.5161 28.9107 24.3547 28.4434C24.2689 28.6926 24.2252 28.9545 24.2256 29.2181ZM28.8475 36.7747C28.6861 37.2421 28.383 37.6475 27.9804 37.9345C27.5777 38.2214 27.0956 38.3756 26.6011 38.3756C26.1067 38.3756 25.6246 38.2214 25.2219 37.9345C24.8193 37.6475 24.5161 37.2421 24.3547 36.7747C24.2317 37.1325 24.1959 37.5144 24.2503 37.8888C24.3046 38.2632 24.4477 38.6192 24.6674 38.9271C24.8872 39.2351 25.1773 39.4861 25.5136 39.6593C25.85 39.8325 26.2228 39.9229 26.6011 39.9229C26.9794 39.9229 27.3523 39.8325 27.6886 39.6593C28.025 39.4861 28.3151 39.2351 28.5348 38.9271C28.7546 38.6192 28.8976 38.2632 28.952 37.8888C29.0063 37.5144 28.9705 37.1325 28.8475 36.7747ZM26.6011 46.7066C26.1067 46.7066 25.6246 46.5524 25.222 46.2654C24.8193 45.9785 24.5162 45.5732 24.3547 45.1059C24.2317 45.4636 24.1959 45.8456 24.2503 46.22C24.3046 46.5944 24.4477 46.9503 24.6674 47.2583C24.8872 47.5662 25.1773 47.8173 25.5136 47.9905C25.85 48.1637 26.2228 48.254 26.6011 48.254C26.9794 48.254 27.3523 48.1637 27.6886 47.9905C28.025 47.8173 28.3151 47.5662 28.5348 47.2583C28.7546 46.9503 28.8976 46.5944 28.952 46.22C29.0063 45.8456 28.9705 45.4636 28.8475 45.1059C28.6861 45.5732 28.3829 45.9785 27.9803 46.2654C27.5777 46.5524 27.0955 46.7066 26.6011 46.7066ZM33.7277 39.9248H45.3989C46.0283 39.9229 46.6314 39.6721 47.0765 39.227C47.5216 38.7819 47.7725 38.1788 47.7744 37.5493C47.7746 37.2856 47.7305 37.0238 47.6439 36.7747C47.4816 37.2412 47.1783 37.6457 46.7762 37.9325C46.374 38.2193 45.8928 38.3741 45.3989 38.3756H33.7277C33.2338 38.3741 32.7525 38.2193 32.3503 37.9325C31.9482 37.6458 31.645 37.2412 31.4827 36.7747C31.396 37.0238 31.3519 37.2856 31.3521 37.5493C31.354 38.1787 31.6049 38.7819 32.05 39.227C32.4951 39.6721 33.0982 39.9229 33.7277 39.9248ZM33.7277 31.5939H45.3989C46.0284 31.5919 46.6315 31.341 47.0765 30.8959C47.5216 30.4508 47.7725 29.8476 47.7744 29.2181C47.7746 28.9545 47.7305 28.6926 47.6439 28.4436C47.4815 28.91 47.1783 29.3145 46.7762 29.6013C46.374 29.8881 45.8928 30.0429 45.3989 30.0445H33.7277C33.2338 30.0429 32.7525 29.8881 32.3503 29.6013C31.9482 29.3146 31.645 28.91 31.4827 28.4436C31.396 28.6926 31.3519 28.9545 31.3521 29.2181C31.354 29.8476 31.6049 30.4507 32.05 30.8959C32.4951 31.341 33.0982 31.5919 33.7277 31.5939ZM45.3989 46.7066H33.7277C33.2338 46.7051 32.7525 46.5504 32.3503 46.2636C31.9482 45.9769 31.645 45.5723 31.4827 45.1059C31.396 45.3549 31.3519 45.6168 31.3521 45.8804C31.354 46.5099 31.6048 47.1131 32.0499 47.5582C32.495 48.0033 33.0982 48.2541 33.7277 48.256H45.3989C46.0284 48.2541 46.6315 48.0033 47.0766 47.5582C47.5217 47.1131 47.7726 46.5099 47.7744 45.8804C47.7746 45.6168 47.7305 45.3549 47.6439 45.1059C47.4816 45.5723 47.1783 45.9768 46.7762 46.2636C46.374 46.5503 45.8928 46.7051 45.3989 46.7066Z" fill="#F7E984"/>
</g>
<path fill-rule="evenodd" clip-rule="evenodd" d="M24.2256 27.6688C24.225 28.046 24.3146 28.4178 24.4869 28.7533C24.6866 28.3645 24.9895 28.0383 25.3625 27.8105C25.7355 27.5827 26.1641 27.4622 26.6011 27.4622C27.0381 27.4622 27.4667 27.5827 27.8397 27.8105C28.2127 28.0383 28.5156 28.3645 28.7153 28.7533C28.8793 28.4335 28.9687 28.0806 28.9766 27.7213C28.9845 27.3619 28.9107 27.0055 28.7609 26.6788C28.6111 26.3521 28.3891 26.0636 28.1117 25.8351C27.8342 25.6066 27.5085 25.4441 27.1592 25.3597C26.8098 25.2753 26.4458 25.2713 26.0947 25.3479C25.7435 25.4246 25.4143 25.5799 25.1319 25.8022C24.8495 26.0245 24.6212 26.308 24.4642 26.6313C24.3072 26.9547 24.2256 27.3094 24.2256 27.6688ZM33.7277 25.2933C33.0982 25.2951 32.495 25.546 32.0499 25.9912C31.6048 26.4363 31.3539 27.0395 31.3521 27.669C31.3518 28.0464 31.4423 28.4183 31.6158 28.7535C31.8156 28.3654 32.1183 28.0396 32.4908 27.8119C32.8632 27.5842 33.2911 27.4632 33.7277 27.4622H45.3989C45.8354 27.4632 46.2633 27.5842 46.6358 27.8119C47.0083 28.0396 47.3109 28.3654 47.5108 28.7535C47.6843 28.4183 47.7747 28.0463 47.7744 27.6688C47.7726 27.0394 47.5217 26.4362 47.0766 25.9911C46.6315 25.546 46.0283 25.2951 45.3989 25.2933H33.7277ZM28.9766 36.0002C28.9764 35.6409 28.8947 35.2863 28.7377 34.9631C28.5806 34.64 28.3524 34.3566 28.07 34.1345C27.7876 33.9123 27.4585 33.7571 27.1075 33.6805C26.7564 33.6039 26.3926 33.6079 26.0433 33.6923C25.6941 33.7766 25.3685 33.9391 25.0912 34.1675C24.8138 34.3959 24.5918 34.6842 24.442 35.0108C24.2921 35.3374 24.2184 35.6937 24.2262 36.0529C24.2339 36.4121 24.3231 36.7649 24.4869 37.0846C24.6866 36.6958 24.9895 36.3696 25.3625 36.1419C25.7355 35.9141 26.1641 35.7936 26.6011 35.7936C27.0381 35.7936 27.4667 35.9141 27.8397 36.1419C28.2127 36.3696 28.5156 36.6958 28.7153 37.0846C28.8875 36.7491 28.9771 36.3773 28.9766 36.0002ZM33.7277 33.6246C33.0982 33.6264 32.495 33.8773 32.0499 34.3224C31.6048 34.7675 31.3539 35.3707 31.3521 36.0002C31.3518 36.3775 31.4423 36.7495 31.6158 37.0846C31.8157 36.6966 32.1184 36.3709 32.4908 36.1432C32.8633 35.9155 33.2912 35.7946 33.7277 35.7936H45.3989C45.8354 35.7946 46.2633 35.9155 46.6357 36.1432C47.0082 36.3709 47.3109 36.6966 47.5108 37.0846C47.6843 36.7495 47.7747 36.3775 47.7744 36.0002C47.7726 35.3707 47.5218 34.7675 47.0766 34.3224C46.6315 33.8773 46.0284 33.6264 45.3989 33.6246H33.7277ZM28.9766 44.3311C28.9764 43.9718 28.8947 43.6172 28.7377 43.2941C28.5806 42.9709 28.3524 42.6876 28.07 42.4654C27.7876 42.2432 27.4585 42.088 27.1075 42.0114C26.7564 41.9348 26.3926 41.9389 26.0433 42.0232C25.6941 42.1076 25.3685 42.2701 25.0912 42.4985C24.8138 42.7269 24.5918 43.0152 24.442 43.3417C24.2921 43.6683 24.2184 44.0246 24.2262 44.3838C24.2339 44.743 24.3231 45.0958 24.4869 45.4156C24.6866 45.0268 24.9895 44.7006 25.3625 44.4728C25.7355 44.245 26.1641 44.1245 26.6011 44.1245C27.0381 44.1245 27.4667 44.245 27.8397 44.4728C28.2127 44.7006 28.5156 45.0268 28.7153 45.4156C28.8875 45.0801 28.9771 44.7083 28.9766 44.3311ZM33.7277 41.9556C33.0982 41.9574 32.495 42.2083 32.0499 42.6534C31.6048 43.0985 31.354 43.7017 31.3521 44.3311C31.3518 44.7085 31.4422 45.0805 31.6158 45.4156C31.8157 45.0275 32.1184 44.7019 32.4908 44.4742C32.8633 44.2465 33.2912 44.1256 33.7277 44.1245H45.3989C45.8354 44.1256 46.2632 44.2465 46.6357 44.4742C47.0081 44.7019 47.3109 45.0275 47.5108 45.4156C47.6843 45.0804 47.7747 44.7085 47.7744 44.3311C47.7726 43.7017 47.5217 43.0985 47.0766 42.6534C46.6315 42.2083 46.0283 41.9574 45.3989 41.9556H33.7277Z" fill="#753D29"/>
</g>
<defs>
<filter id="filter0_d_1448_6809" x="0" y="-6.10352e-05" width="72" height="72" filterUnits="userSpaceOnUse" color-interpolation-filters="sRGB">
<feFlood flood-opacity="0" result="BackgroundImageFix"/>
<feColorMatrix in="SourceAlpha" type="matrix" values="0 0 0 0 0 0 0 0 0 0 0 0 0 0 0 0 0 0 127 0" result="hardAlpha"/>
<feOffset/>
<feGaussianBlur stdDeviation="3"/>
<feComposite in2="hardAlpha" operator="out"/>
<feColorMatrix type="matrix" values="0 0 0 0 0 0 0 0 0 0 0 0 0 0 0 0 0 0 0.7 0"/>
<feBlend mode="normal" in2="BackgroundImageFix" result="effect1_dropShadow_1448_6809"/>
<feBlend mode="normal" in="SourceGraphic" in2="effect1_dropShadow_1448_6809" result="shape"/>
</filter>
<linearGradient id="paint0_linear_1448_6809" x1="36" y1="65.9999" x2="36" y2="5.99994" gradientUnits="userSpaceOnUse">
<stop stop-color="#DE8B00"/>
<stop offset="1" stop-color="#FFC75E"/>
</linearGradient>
<linearGradient id="paint1_linear_1448_6809" x1="36" y1="36.0001" x2="36" y2="5.99991" gradientUnits="userSpaceOnUse">
<stop stop-color="#FFB805"/>
<stop offset="1" stop-color="#FFE89C"/>
</linearGradient>
<radialGradient id="paint2_radial_1448_6809" cx="0" cy="0" r="1" gradientUnits="userSpaceOnUse" gradientTransform="translate(25.531 16.6978) scale(49.2578 49.2579)">
<stop stop-color="#FFEEB8"/>
<stop offset="1" stop-color="#FFBF00"/>
</radialGradient>
<radialGradient id="paint3_radial_1448_6809" cx="0" cy="0" r="1" gradientUnits="userSpaceOnUse" gradientTransform="translate(27.9451 3.73549) scale(49.7054 49.7056)">
<stop stop-color="#FFFD9E"/>
<stop offset="1"/>
</radialGradient>
<radialGradient id="paint4_radial_1448_6809" cx="0" cy="0" r="1" gradientUnits="userSpaceOnUse" gradientTransform="translate(46.214 20.3687) scale(42.1981 42.1982)">
<stop stop-color="#FFFD9E"/>
<stop offset="1"/>
</radialGradient>
<linearGradient id="paint5_linear_1448_6809" x1="36" y1="65.9999" x2="36" y2="5.99994" gradientUnits="userSpaceOnUse">
<stop stop-color="#CF8000"/>
<stop offset="1" stop-color="#F5B133"/>
</linearGradient>
<linearGradient id="paint6_linear_1448_6809" x1="36" y1="46.7066" x2="36" y2="25.2933" gradientUnits="userSpaceOnUse">
<stop stop-color="#D68329"/>
<stop offset="1" stop-color="#954B25"/>
</linearGradient>
</defs>
</svg>
