<svg width="109" height="264" viewBox="0 0 109 264" fill="none" xmlns="http://www.w3.org/2000/svg">
<path d="M100.724 220.008H67.6336H41.3205H8.22986L30.7555 192.798L32.3502 190.107L54.4771 190.306L76.604 190.107L77.6007 192.798L100.724 220.008Z" fill="url(#paint0_linear_1_1589)"/>
<g style="mix-blend-mode:multiply" opacity="0.5">
<path d="M61.3536 190.306L76.6033 190.107L77.6 192.798L100.724 220.008H68.4303C68.6961 219.676 68.9286 219.31 69.128 218.912C70.8224 215.523 70.623 211.636 69.726 208.147C68.2309 201.668 64.6428 195.987 61.3536 190.306Z" fill="#D0D0D1"/>
</g>
<path style="mix-blend-mode:screen" opacity="0.5" d="M69.1286 219.812H8.32945C8.32945 219.812 8.36265 219.778 8.4291 219.712C8.62844 219.513 8.72811 219.413 8.92745 219.214C8.92745 219.114 9.12681 218.915 9.12681 218.915C15.0074 211.938 22.981 201.572 31.0544 192.601C33.8451 189.512 47.7991 190.01 51.6862 190.608C51.7859 190.608 63.1483 191.405 65.2414 215.725C65.3411 217.619 67.7332 218.715 69.1286 219.812Z" fill="url(#paint1_linear_1_1589)"/>
<path style="mix-blend-mode:screen" opacity="0.5" d="M27.6658 219.81H10.7217C13.1138 217.618 34.1443 194.394 36.3371 190.507C39.3272 190.108 42.417 190.607 45.4071 190.706C43.4137 195.092 28.5628 218.614 27.6658 219.81Z" fill="url(#paint2_linear_1_1589)"/>
<path d="M100.724 219.811L89.8596 238.748H69.2278H39.7253H19.0935L8.12968 219.811H54.4766H100.724Z" fill="url(#paint3_linear_1_1589)"/>
<path d="M82.1856 189.112H26.7687C45.8058 152.831 43.015 115.355 43.015 115.355L54.4771 116.85L65.9393 115.355C65.9393 115.355 63.1485 152.831 82.1856 189.112Z" fill="url(#paint4_linear_1_1589)"/>
<g style="mix-blend-mode:multiply" opacity="0.5">
<path d="M82.1854 189.112H68.8295C65.341 182.434 62.5503 175.357 60.6565 168.081C58.3641 159.31 57.2677 147.549 56.9687 138.579C56.57 124.525 56.1713 119.84 57.0684 116.053C57.1681 115.654 64.5437 115.854 64.6434 115.555L65.9391 115.355C65.9391 115.355 63.1483 152.831 82.1854 189.112Z" fill="#D0D0D1"/>
</g>
<path style="mix-blend-mode:screen" opacity="0.5" d="M68.6304 189.112H26.7687C33.945 175.358 38.0315 161.404 40.3239 149.443C41.3206 144.061 43.5134 128.512 43.2144 120.638C43.1147 114.957 55.3742 110.472 56.8692 119.442C57.6666 124.127 57.4673 140.872 58.165 145.656C59.5604 155.423 56.1715 165.39 59.2613 174.859C61.0554 180.241 64.0455 185.524 68.6304 189.112Z" fill="url(#paint5_linear_1_1589)"/>
<path style="mix-blend-mode:screen" opacity="0.5" d="M45.3065 189.113H32.1499C48.3963 151.138 45.5058 123.031 45.8048 119.144C46.0041 116.851 47.2002 117.948 46.8015 115.556C47.5989 115.157 48.3962 114.858 49.2933 114.658C49.4926 117.051 48.3963 148.248 47.9976 155.922C47.2999 166.986 46.0041 178.049 45.3065 189.113Z" fill="url(#paint6_linear_1_1589)"/>
<path d="M82.086 189.111L77.6008 192.799H30.7555L26.7687 189.111H82.086Z" fill="url(#paint7_linear_1_1589)"/>
<path d="M93.9454 244.827L15.1059 245.027C15.0062 244.628 14.9065 243.631 14.9065 243.233C14.9065 240.641 16.8999 238.548 19.3917 238.548H89.4602C91.952 238.548 94.0451 240.641 94.0451 243.233C94.0451 243.631 94.045 244.528 93.9454 244.827Z" fill="url(#paint8_linear_1_1589)"/>
<g style="mix-blend-mode:multiply" opacity="0.5">
<path d="M94.0451 243.234C94.0451 243.632 94.045 244.529 93.9454 244.828L15.1059 245.028C15.0062 244.629 14.9065 243.632 14.9065 243.234C14.9065 242.968 14.9397 242.735 15.0062 242.536H93.9454C93.9454 242.735 93.9786 242.968 94.0451 243.234Z" fill="#B9B8B9"/>
</g>
<path d="M108.498 263.764H0.355225C0.355225 263.764 0.355225 263.731 0.355225 263.665C0.355225 253.1 7.03316 244.428 15.2062 244.428H93.647C101.92 244.428 108.498 253.1 108.498 263.665C108.498 263.731 108.498 263.764 108.498 263.764Z" fill="#F1F1F1"/>
<g style="mix-blend-mode:multiply" opacity="0.5">
<path d="M108.498 263.665C108.498 263.731 108.498 263.764 108.498 263.764H0.355225C25.4723 261.97 50.2903 252.203 56.5695 249.213C58.7623 248.216 61.7524 246.621 63.7458 244.428H93.647C101.92 244.428 108.498 253.1 108.498 263.665Z" fill="#D0D0D1"/>
</g>
<path d="M68.7297 37.2141C68.7297 39.9052 62.3508 41.9983 54.4768 41.9983C46.6029 41.9983 40.2239 39.9052 40.2239 37.2141C40.2239 34.523 46.6029 32.4299 54.4768 32.4299C62.3508 32.4299 68.7297 34.523 68.7297 37.2141Z" fill="white"/>
<g opacity="0.9">
<path d="M48.2967 41.6994C46.0043 41.4003 43.9112 40.902 42.3164 40.304C42.3164 39.2076 42.5158 38.1112 42.8148 37.0149C43.4128 35.1211 44.6089 34.0247 46.1039 33.028C46.9678 32.8951 47.8648 32.7622 48.795 32.6293C47.6987 34.4234 47.2003 36.6161 47.3 38.7092C47.3 39.9053 47.6987 40.902 48.2967 41.6994Z" fill="#FEFEFE" style="mix-blend-mode:screen"/>
</g>
<g style="mix-blend-mode:multiply" opacity="0.3">
<path d="M54.377 34.7223C49.5928 34.7223 45.307 35.0214 43.1142 34.3237C45.8054 33.1276 49.8918 32.4299 54.4767 32.4299C58.9619 32.4299 62.9487 33.1276 65.5402 34.224C63.5467 35.0214 59.3606 34.7223 54.377 34.7223Z" fill="#272227"/>
</g>
<g style="mix-blend-mode:multiply" opacity="0.5">
<path d="M68.7297 37.2142C68.7297 39.9053 62.3508 41.9984 54.4768 41.9984C46.6029 41.9984 40.2239 39.9053 40.2239 37.2142C40.2239 36.4168 40.8219 35.7191 41.8186 35.0214C39.9249 37.0148 48.4966 36.2174 54.2775 36.2174C60.2577 36.2174 68.3311 37.0148 67.0354 34.9217C68.0321 35.6194 68.7297 36.4168 68.7297 37.2142Z" fill="#B9B8B9"/>
</g>
<path d="M64.6433 22.0634L59.2611 18.5749L62.8492 29.738H46.1046L49.593 18.5749L44.3105 22.0634V8.20914L50.5897 10.3022L47.7989 0.235487H52.6828H56.271H61.0552L58.2644 10.3022L64.6433 8.20914V22.0634Z" fill="white"/>
<path style="mix-blend-mode:screen" opacity="0.5" d="M44.3105 8.20914L50.5897 10.3022L47.7989 0.235487H60.2578C59.8591 3.82363 59.1614 7.31211 57.6664 10.5016C56.0716 13.8904 53.3805 16.4818 49.593 16.4818C46.9019 16.4818 45.3072 15.2858 44.3105 13.5914V8.20914Z" fill="url(#paint9_linear_1_1589)"/>
<path style="mix-blend-mode:screen" opacity="0.5" d="M44.3105 8.20914L50.5897 10.3022L47.7989 0.235487C47.7989 0.235487 54.2775 11.0996 52.2841 11.897C50.4901 12.6943 44.3105 8.20914 44.3105 8.20914Z" fill="url(#paint10_linear_1_1589)"/>
<path d="M64.6422 22.0634L59.26 18.5749L62.8482 29.738H54.6752V0.235487H61.0541L58.2633 10.3022L64.6422 8.20914V22.0634Z" fill="#E1E2E2"/>
<path d="M63.8466 33.8245H45.1085C43.5138 33.8245 42.2181 32.4291 42.2181 30.8343C42.2181 29.2396 43.5138 27.9439 45.1085 27.9439H63.8466C65.4413 27.9439 66.737 29.2396 66.737 30.8343C66.737 32.4291 65.4413 33.8245 63.8466 33.8245Z" fill="white"/>
<g opacity="0.9">
<path d="M49.394 33.8245H45.7062C45.4404 33.6251 45.2078 33.3926 45.0085 33.1268C43.5134 31.5321 44.4105 28.8409 46.2045 27.9439H49.8923C48.796 28.6416 47.9986 29.738 48.198 31.233C48.198 32.2297 48.6963 33.1268 49.394 33.8245Z" fill="#FEFEFE" style="mix-blend-mode:screen"/>
</g>
<g style="mix-blend-mode:multiply" opacity="0.5">
<g style="mix-blend-mode:multiply">
<path d="M66.5377 29.9367C66.6706 30.2689 66.737 30.5679 66.737 30.8337C66.737 32.4285 65.4413 33.8238 63.8466 33.8238H45.1085C43.5138 33.8238 42.2181 32.4285 42.2181 30.8337C42.2181 30.5679 42.2513 30.2689 42.3177 29.9367C42.7164 31.1327 43.8128 32.0298 45.1085 32.0298H63.8466C65.1423 32.0298 66.2387 31.1327 66.5377 29.9367Z" fill="#B9B8B9"/>
</g>
</g>
<path d="M68.8299 120.737H40.1247C37.932 120.737 36.1379 118.943 36.1379 116.751C36.1379 114.558 37.932 112.664 40.1247 112.664H68.8299C71.0226 112.664 72.8167 114.558 72.8167 116.751C72.8167 118.943 71.0226 120.737 68.8299 120.737Z" fill="white"/>
<path d="M45.5061 120.737H40.1238C39.6255 120.737 35.7383 115.654 40.7219 112.664H45.2071C43.712 114.059 42.9146 115.255 43.2136 117.548C43.3133 118.744 44.4097 120.438 45.5061 120.737Z" fill="white"/>
<path opacity="0.5" d="M36.5358 114.857C37.2335 113.561 38.5292 112.664 40.124 112.664H68.8291C70.3242 112.664 71.7196 113.561 72.3176 114.857H36.5358Z" fill="#6F6B6F"/>
<path opacity="0.5" d="M72.5164 118.147C72.0181 119.642 70.523 120.738 68.8286 120.738H40.1234C38.3294 120.738 36.934 119.642 36.3359 118.147H72.5164Z" fill="#6F6B6F"/>
<path d="M87.5676 60.0383C84.0792 69.6067 71.6203 103.495 71.6203 103.495H64.743H44.1112H37.2339C37.2339 103.495 24.7751 69.6067 21.2866 60.0383C17.7982 50.3703 17.6985 43.3933 25.4728 40.4032C27.4662 39.6058 29.5593 39.1075 31.6524 38.7088C36.0379 37.8117 40.6227 37.4131 45.1079 37.0144C47.3671 36.8151 49.5931 36.7154 51.7858 36.7154C58.6631 36.516 65.5404 37.0144 72.318 37.9114C76.0058 38.4098 79.893 39.0078 83.4811 40.4032C91.2554 43.3933 91.0561 50.3703 87.5676 60.0383Z" fill="url(#paint11_linear_1_1589)"/>
<g style="mix-blend-mode:multiply" opacity="0.5">
<path d="M87.5665 60.0375C84.078 69.6059 71.6192 103.494 71.6192 103.494H57.0673C57.8646 99.9722 58.662 96.4505 59.4594 92.9288C61.6521 82.7624 64.5426 72.7953 66.7353 62.7286C69.5261 49.572 69.5261 44.9872 66.3366 40.3027C65.5393 39.1066 64.8416 37.9106 63.7452 37.0135C66.6024 37.2129 69.4597 37.5119 72.3169 37.9106C76.0047 38.4089 79.8918 39.0069 83.48 40.4023C91.2543 43.3925 91.055 50.3694 87.5665 60.0375Z" fill="#D0D0D1"/>
</g>
<path style="mix-blend-mode:screen" opacity="0.5" d="M19.5917 54.5565C17.3989 46.2838 20.9871 42.0976 25.4722 40.4032C27.4657 39.6058 29.5588 39.1075 31.6518 38.7088C36.0374 37.8117 40.6222 37.4131 45.1074 37.0144C47.3666 36.8151 49.5926 36.7154 51.7853 36.7154C58.6626 36.516 65.5399 37.0144 72.3175 37.9114C73.6464 38.1108 74.9754 38.3101 76.3043 38.5095C79.0951 39.0078 78.5967 44.2904 78.4971 45.9848C77.3566 60.127 60.955 104.392 60.955 104.392C60.955 104.392 38.3298 106.485 37.2334 103.395C31.6518 87.3481 23.1798 67.9123 19.5917 54.5565Z" fill="url(#paint12_linear_1_1589)"/>
<path style="mix-blend-mode:screen" opacity="0.5" d="M36.038 38.0104C39.0281 37.5121 42.1179 37.2131 45.108 37.0137C45.9718 36.9473 46.8024 36.9141 47.5998 36.9141C42.8156 38.2098 40.7225 41.1002 40.6228 47.3795C40.5232 52.1637 41.6195 59.639 42.1179 64.3235C42.6495 69.2406 43.2142 74.1577 43.8123 79.0748C44.809 87.8458 45.9054 96.6169 46.9021 105.388C43.7126 105.388 40.7225 105.089 38.9284 104.59C37.4334 100.803 29.1607 64.1242 27.9646 58.5426C26.5692 52.363 26.3699 46.6818 30.4564 41.4989C31.9515 39.7048 33.7455 38.3095 36.038 38.0104Z" fill="url(#paint13_linear_1_1589)"/>
<path d="M71.0224 112.764H37.6327C35.0413 112.764 33.0479 110.671 33.0479 108.079C33.0479 105.488 35.0413 103.395 37.6327 103.395H71.0224C73.6138 103.395 75.7069 105.488 75.7069 108.079C75.7069 110.671 73.6138 112.764 71.0224 112.764Z" fill="url(#paint14_linear_1_1589)"/>
<path d="M45.9058 112.764H38.8291C38.3308 112.764 37.4338 111.667 37.1347 111.368C36.7361 110.87 36.4371 110.172 36.2377 109.574C35.7394 108.179 35.7393 106.684 36.5367 105.388C36.8357 104.79 38.0318 103.395 38.8291 103.395C38.9288 103.395 45.8061 103.395 45.8061 103.395C44.012 104.989 43.414 107.681 44.012 110.073C44.2114 111.368 45.0087 112.166 45.9058 112.764Z" fill="white"/>
<path opacity="0.5" d="M75.3075 109.974C74.6098 111.569 72.9154 112.765 71.0217 112.765H37.632C35.7383 112.765 34.0439 111.569 33.3462 109.974H75.3075Z" fill="#6F6B6F"/>
<g style="mix-blend-mode:screen" opacity="0.5">
<path d="M37.0341 244.131C32.4492 248.716 31.5522 257.387 31.4525 263.467H10.422C11.5183 253.799 18.9937 245.527 24.4755 244.131H37.0341Z" fill="white"/>
</g>
<defs>
<linearGradient id="paint0_linear_1_1589" x1="40456.1" y1="13248" x2="46172.2" y2="13248" gradientUnits="userSpaceOnUse">
<stop stop-color="#E1E2E2"/>
<stop offset="0.4" stop-color="#C3C2C2"/>
<stop offset="0.9" stop-color="#B9B7B8"/>
</linearGradient>
<linearGradient id="paint1_linear_1_1589" x1="26778.2" y1="13141.6" x2="31891.4" y2="13141.6" gradientUnits="userSpaceOnUse">
<stop stop-color="#FEFEFE"/>
<stop offset="0.7" stop-color="#C3C2C2"/>
<stop offset="0.9" stop-color="#B9B7B8"/>
</linearGradient>
<linearGradient id="paint2_linear_1_1589" x1="15227.2" y1="13887.2" x2="15447.5" y2="12670.6" gradientUnits="userSpaceOnUse">
<stop stop-color="#FEFEFE"/>
<stop offset="0.7" stop-color="#C3C2C2"/>
<stop offset="0.9" stop-color="#B9B7B8"/>
</linearGradient>
<linearGradient id="paint3_linear_1_1589" x1="38795.8" y1="9054.12" x2="49490.4" y2="9054.12" gradientUnits="userSpaceOnUse">
<stop stop-color="#E7E8E8"/>
<stop offset="0.9" stop-color="#AEAEAE"/>
</linearGradient>
<linearGradient id="paint4_linear_1_1589" x1="24748.3" y1="26793" x2="27347.3" y2="26793" gradientUnits="userSpaceOnUse">
<stop stop-color="#E1E2E2"/>
<stop offset="0.4" stop-color="#C3C2C2"/>
<stop offset="0.9" stop-color="#B9B7B8"/>
</linearGradient>
<linearGradient id="paint5_linear_1_1589" x1="19124.1" y1="27081.3" x2="20882.3" y2="27081.3" gradientUnits="userSpaceOnUse">
<stop offset="0.2" stop-color="#FEFEFE"/>
<stop offset="0.8" stop-color="#C3C2C2"/>
<stop offset="1" stop-color="#B9B7B8"/>
</linearGradient>
<linearGradient id="paint6_linear_1_1589" x1="5381.5" y1="32688.3" x2="5381.5" y2="26352.3" gradientUnits="userSpaceOnUse">
<stop offset="0.2" stop-color="#FEFEFE"/>
<stop offset="0.8" stop-color="#C3C2C2"/>
<stop offset="1" stop-color="#B9B7B8"/>
</linearGradient>
<linearGradient id="paint7_linear_1_1589" x1="24300" y1="1795.88" x2="27447.5" y2="1795.88" gradientUnits="userSpaceOnUse">
<stop stop-color="#E7E8E8"/>
<stop offset="0.9" stop-color="#AEAEAE"/>
</linearGradient>
<linearGradient id="paint8_linear_1_1589" x1="33007.8" y1="3382.61" x2="39243.9" y2="3382.61" gradientUnits="userSpaceOnUse">
<stop stop-color="#E7E8E8"/>
<stop offset="0.9" stop-color="#AEAEAE"/>
</linearGradient>
<linearGradient id="paint9_linear_1_1589" x1="7128.11" y1="4578.45" x2="8179.04" y2="4592.54" gradientUnits="userSpaceOnUse">
<stop stop-color="#FEFEFE"/>
<stop offset="0.8" stop-color="#C3C2C2"/>
</linearGradient>
<linearGradient id="paint10_linear_1_1589" x1="4016.1" y1="3085.13" x2="3918.16" y2="3007.34" gradientUnits="userSpaceOnUse">
<stop stop-color="#FEFEFE"/>
<stop offset="0.6" stop-color="#C3C2C2"/>
</linearGradient>
<linearGradient id="paint11_linear_1_1589" x1="31602.8" y1="18934.2" x2="35358.5" y2="18934.2" gradientUnits="userSpaceOnUse">
<stop stop-color="#E1E2E2"/>
<stop offset="0.4" stop-color="#C3C2C2"/>
<stop offset="0.9" stop-color="#B9B7B8"/>
</linearGradient>
<linearGradient id="paint12_linear_1_1589" x1="26522.2" y1="19411.7" x2="30454.3" y2="19458.3" gradientUnits="userSpaceOnUse">
<stop stop-color="#FEFEFE"/>
<stop offset="0.8" stop-color="#C3C2C2"/>
</linearGradient>
<linearGradient id="paint13_linear_1_1589" x1="11705.4" y1="17710" x2="14243.9" y2="21492.5" gradientUnits="userSpaceOnUse">
<stop stop-color="#FEFEFE"/>
<stop offset="0.9" stop-color="#C3C2C2"/>
</linearGradient>
<linearGradient id="paint14_linear_1_1589" x1="19502.6" y1="3379.75" x2="21456.4" y2="3379.75" gradientUnits="userSpaceOnUse">
<stop stop-color="#E7E8E8"/>
<stop offset="0.9" stop-color="#AEAEAE"/>
</linearGradient>
</defs>
</svg>
