<svg width="121" height="283" viewBox="0 0 121 283" fill="none" xmlns="http://www.w3.org/2000/svg">
<g filter="url(#filter0_f_1_1489)">
<rect x="-106.436" y="26.3992" width="171.953" height="257.93" rx="20" transform="rotate(-7.5 -106.436 26.3992)" fill="white" fill-opacity="0.1" stroke="url(#paint0_linear_1_1489)"/>
<g filter="url(#filter1_f_1_1489)">
<ellipse cx="15.0335" cy="240.723" rx="67.647" ry="5.88235" transform="rotate(-7.5 15.0335 240.723)" fill="#3D3D3D"/>
</g>
<path d="M37.8604 185.081L38.1553 187.322L21.2052 189.553L-1.39497 192.528L-18.3451 194.76L-18.6401 192.519C-18.6401 192.519 -15.6811 130.686 -15.131 116.045C-14.5809 101.405 -25.6989 102.769 -25.6989 102.769L-25.8196 101.101L-13.6427 99.4975L8.95746 96.5221L21.2317 94.9062L21.4497 96.5622C21.4497 96.5622 10.3573 98.1217 14.6779 112.121C18.9985 126.12 37.8604 185.081 37.8604 185.081Z" fill="url(#paint1_linear_1_1489)"/>
<g style="mix-blend-mode:multiply" opacity="0.5">
<path d="M7.19128 96.6561L21.2318 94.9067L21.4498 96.5628C21.4498 96.5628 10.3574 98.1222 14.678 112.122C18.9986 126.121 37.8605 185.082 37.8605 185.082L38.1555 187.322L25.6864 188.964C25.1121 188.114 24.566 187.228 24.0481 186.305C19.4126 178.195 6.36202 115.198 4.77993 109.956C3.53373 105.76 1.61054 98.6792 7.19128 96.6561Z" fill="#D0D0D1"/>
</g>
<path style="mix-blend-mode:screen" opacity="0.5" d="M37.8604 185.081L38.1553 187.322L21.2052 189.553L-1.39497 192.528L-18.3451 194.76L-18.6401 192.519C-18.6401 192.519 -15.6811 130.686 -15.131 116.045C-14.5809 101.405 -25.6989 102.769 -25.6989 102.769L-25.8196 101.101L-13.6427 99.4975L8.95746 96.5221L21.2317 94.9062L21.4497 96.5622C21.4497 96.5622 10.3573 98.1217 14.6779 112.121C18.9985 126.12 37.8604 185.081 37.8604 185.081Z" fill="url(#paint2_linear_1_1489)"/>
<path d="M33.6646 87.719L30.6066 91.5902L17.2608 93.3472L-22.4844 98.5798L-35.8302 100.337L-39.786 97.389L-3.71474 87.5858L33.6646 87.719Z" fill="#AEAEAF"/>
<path d="M11.3705 211.957L59.0065 209.451C59.08 209.508 59.1535 209.564 59.227 209.62L51.4344 218.178L27.6652 221.307L0.583951 224.873L-23.1852 228.002L-32.9272 221.753C-32.8708 221.679 -32.782 221.601 -32.6606 221.519L11.3705 211.957Z" fill="url(#paint3_linear_1_1489)"/>
<path style="mix-blend-mode:multiply" d="M56.1897 212.895L51.4347 218.179L-23.1849 228.003L-29.1455 224.13L56.1897 212.895Z" fill="url(#paint4_linear_1_1489)"/>
<path d="M59.0064 209.452L-32.6607 221.52C-20.4307 211.288 -17.6632 194.671 -17.6632 194.671L9.99487 191.723L37.4734 187.412C37.4734 187.412 44.4474 202.747 59.0064 209.452Z" fill="url(#paint5_linear_1_1489)"/>
<g style="mix-blend-mode:multiply" opacity="0.5">
<path d="M26.1016 189.107L37.4735 187.412C37.4735 187.412 44.4475 202.747 59.0065 209.452L37.3804 212.299C37.2334 212.186 37.0779 212.008 36.9138 211.766C31.458 204.952 28.4709 197.318 26.1016 189.107Z" fill="#D0D0D1"/>
</g>
<path style="mix-blend-mode:screen" opacity="0.5" d="M59.0064 209.452L-32.6607 221.52C-20.4307 211.288 -17.6632 194.671 -17.6632 194.671L9.99487 191.723L37.4734 187.412C37.4734 187.412 44.4474 202.747 59.0064 209.452Z" fill="url(#paint6_linear_1_1489)"/>
<path d="M57.2384 222.369L-27.5969 233.637C-27.7456 233.26 -27.9712 232.299 -28.0225 231.909C-28.356 229.377 -26.677 227.074 -24.2416 226.754L52.1314 216.699C54.5668 216.378 56.7844 218.168 57.1178 220.7C57.1691 221.09 57.2845 221.967 57.2384 222.369Z" fill="url(#paint7_linear_1_1489)"/>
<g style="mix-blend-mode:multiply" opacity="0.5">
<path d="M57.1178 220.7C57.1691 221.09 57.2845 221.967 57.2384 222.369L-27.5969 233.637C-27.7456 233.26 -27.9713 232.299 -28.0226 231.909C-28.0482 231.714 -28.0457 231.483 -28.0149 231.214L57.028 220.018C57.0622 220.278 57.0921 220.505 57.1178 220.7Z" fill="#B9B8B9"/>
</g>
<path d="M73.9824 238.895L-39.603 253.849C-39.603 253.849 -39.6073 253.817 -39.6158 253.752C-40.9753 243.426 -35.5643 234.092 -27.5763 233.04L56.9796 221.908C64.9676 220.856 72.6101 228.472 73.9696 238.798C73.9781 238.863 73.9824 238.895 73.9824 238.895Z" fill="url(#paint8_linear_1_1489)"/>
<g style="mix-blend-mode:multiply" opacity="0.5">
<path d="M73.9695 238.798C73.978 238.863 73.9823 238.895 73.9823 238.895L-9.502 249.886C-1.71401 248.068 5.7509 245.302 12.8594 242.086C19.2015 239.071 32.8212 232.62 38.0811 224.396L56.9795 221.908C64.9675 220.856 72.6101 228.472 73.9695 238.798Z" fill="#D0D0D1"/>
</g>
<path d="M-3.85725 63.9202L-1.72723 59.7747L0.914698 79.8422L-2.08742 77.3634L-3.85725 63.9202Z" fill="url(#paint9_linear_1_1489)"/>
<path d="M-2.08769 77.3632L1.01184 79.8291L-10.5164 81.8424L-7.73774 78.1071L-2.08769 77.3632Z" fill="url(#paint10_linear_1_1489)"/>
<path d="M15.6307 62.1475L17.7608 58.002L20.3257 77.4849L17.298 74.8114L15.6307 62.1475Z" fill="url(#paint11_linear_1_1489)"/>
<path d="M17.2979 74.8111L20.3257 77.4846L11.4609 78.6517L10.9659 75.6447L17.2979 74.8111Z" fill="url(#paint12_linear_1_1489)"/>
<path d="M29.7403 57.9106L33.6647 87.7195L-39.7859 97.3895L-43.7103 67.5806C-39.1526 63.8093 -31.9207 64.5419 -31.9207 64.5419L-29.3814 83.83L-20.8089 82.7014L-23.3739 63.2185C-18.752 59.9342 -12.7352 61.2233 -12.7352 61.2233L-10.0933 81.2907L-5.02773 80.6238L-4.15099 80.5084L0.817151 79.8543L-1.82477 59.7869C-1.82477 59.7869 3.65337 56.9845 8.96778 58.9606L11.5328 78.4435L20.1052 77.315L17.5659 58.0269C17.5659 58.0269 24.4592 55.4346 29.7403 57.9106Z" fill="url(#paint13_linear_1_1489)"/>
<g style="mix-blend-mode:multiply" opacity="0.5">
<path d="M29.7402 57.9106L33.6646 87.7194L8.43418 91.0411C11.3514 89.8642 14.0943 88.1156 16.5783 85.9057C21.1821 81.7318 22.1252 76.8507 22.1222 70.8059C22.2141 66.235 21.7088 61.6437 20.5343 57.2396C23.0415 56.7113 26.6715 56.4316 29.7402 57.9106Z" fill="#D0D0D1"/>
</g>
<path style="mix-blend-mode:screen" opacity="0.5" d="M29.7403 57.9106L33.6647 87.7195L-39.7859 97.3895L-43.7103 67.5806C-39.1526 63.8093 -31.9207 64.5419 -31.9207 64.5419L-29.3814 83.83L-20.8089 82.7014L-23.3739 63.2185C-18.752 59.9342 -12.7352 61.2233 -12.7352 61.2233L-10.0933 81.2907L-5.02773 80.6238L-4.15099 80.5084L0.817151 79.8543L-1.82477 59.7869C-1.82477 59.7869 3.65337 56.9845 8.96778 58.9606L11.5328 78.4435L20.1052 77.315L17.5659 58.0269C17.5659 58.0269 24.4592 55.4346 29.7403 57.9106Z" fill="url(#paint14_linear_1_1489)"/>
<path style="mix-blend-mode:screen" opacity="0.5" d="M-4.06404 114.292C-4.07304 131.537 -1.27832 173.09 -0.907763 192.465L-13.182 194.081C-11.9887 175.293 -12.1814 134.686 -11.5109 117.948C-11.0604 108.573 -13.1067 101.311 -19.3387 100.645L-13.6426 99.4985L-12.0815 97.8065C-8.99752 97.896 -4.09077 99.0339 -4.06404 114.292Z" fill="url(#paint15_linear_1_1489)"/>
<path style="mix-blend-mode:screen" opacity="0.5" d="M-8.11195 218.288L-27.5949 220.853C-19.7302 215.854 -13.9017 201.41 -13.169 194.178L-1.13575 192.991C-1.17368 200.23 -0.32178 211.218 -8.11195 218.288Z" fill="url(#paint16_linear_1_1489)"/>
<path d="M31.3861 95.2544L-35.5378 104.065C-36.6093 104.206 -37.6015 103.445 -37.7426 102.373C-37.8836 101.302 -37.1223 100.31 -36.0508 100.168L30.8731 91.3578C31.9446 91.2167 32.8394 91.9908 32.9804 93.0624C33.1215 94.134 32.4576 95.1133 31.3861 95.2544Z" fill="url(#paint17_linear_1_1489)"/>
<path style="mix-blend-mode:multiply" opacity="0.5" d="M32.9547 92.8667C32.9632 92.9316 32.9718 92.9966 32.9803 93.0615C33.1214 94.1331 32.4575 95.1124 31.3859 95.2535L-35.5379 104.064C-36.6095 104.205 -37.6016 103.444 -37.7427 102.372C-37.7512 102.307 -37.7641 102.21 -37.7812 102.08C-37.6427 102.128 -37.5086 102.143 -37.3787 102.126L32.9547 92.8667Z" fill="url(#paint18_linear_1_1489)"/>
<path d="M39.0787 190.57L-18.3959 198.136C-20.1494 198.367 -21.803 197.098 -22.0338 195.345C-22.2647 193.591 -20.9958 191.938 -19.2424 191.707L38.2322 184.14C39.9857 183.909 41.6393 185.178 41.8701 186.932C42.101 188.685 40.8321 190.339 39.0787 190.57Z" fill="url(#paint19_linear_1_1489)"/>
<path style="mix-blend-mode:multiply" opacity="0.5" d="M41.7085 186.457C41.7214 186.554 41.8444 186.736 41.8701 186.931C42.1009 188.685 40.8321 190.338 39.0786 190.569L-18.396 198.136C-20.1495 198.367 -21.8031 197.098 -22.0339 195.344C-22.0595 195.149 -22.0485 194.983 -22.0006 194.844L41.7085 186.457Z" fill="url(#paint20_linear_1_1489)"/>
</g>
<defs>
<filter id="filter0_f_1_1489" x="-106.499" y="3.89187" width="204.275" height="278.294" filterUnits="userSpaceOnUse" color-interpolation-filters="sRGB">
<feFlood flood-opacity="0" result="BackgroundImageFix"/>
<feBlend mode="normal" in="SourceGraphic" in2="BackgroundImageFix" result="shape"/>
<feGaussianBlur stdDeviation="1" result="effect1_foregroundBlur_1_1489"/>
</filter>
<filter id="filter1_f_1_1489" x="-56.0393" y="226.14" width="142.146" height="29.1661" filterUnits="userSpaceOnUse" color-interpolation-filters="sRGB">
<feFlood flood-opacity="0" result="BackgroundImageFix"/>
<feBlend mode="normal" in="SourceGraphic" in2="BackgroundImageFix" result="shape"/>
<feGaussianBlur stdDeviation="2" result="effect1_foregroundBlur_1_1489"/>
</filter>
<linearGradient id="paint0_linear_1_1489" x1="-106.436" y1="26.3992" x2="-20.4597" y2="284.329" gradientUnits="userSpaceOnUse">
<stop stop-color="#292F95"/>
<stop offset="1" stop-color="white" stop-opacity="0"/>
</linearGradient>
<linearGradient id="paint1_linear_1_1489" x1="5962.39" y1="33223.5" x2="8838.26" y2="32844.8" gradientUnits="userSpaceOnUse">
<stop stop-color="#E1E2E2"/>
<stop offset="0.4" stop-color="#C3C2C2"/>
<stop offset="0.9" stop-color="#B9B7B8"/>
</linearGradient>
<linearGradient id="paint2_linear_1_1489" x1="6081.04" y1="33207.8" x2="9329.82" y2="32780.1" gradientUnits="userSpaceOnUse">
<stop offset="0.1" stop-color="#FEFEFE"/>
<stop offset="0.7" stop-color="#C3C2C2"/>
</linearGradient>
<linearGradient id="paint3_linear_1_1489" x1="-1556.77" y1="5880.14" x2="5391.66" y2="4965.36" gradientUnits="userSpaceOnUse">
<stop stop-color="#C3C2C2"/>
<stop offset="1" stop-color="#B9B7B8"/>
</linearGradient>
<linearGradient id="paint4_linear_1_1489" x1="-1803.72" y1="2702.84" x2="4630.55" y2="1855.75" gradientUnits="userSpaceOnUse">
<stop stop-color="#C3C2C2"/>
<stop offset="1" stop-color="#B9B7B8"/>
</linearGradient>
<linearGradient id="paint5_linear_1_1489" x1="2121.59" y1="11201.2" x2="9647.46" y2="10210.4" gradientUnits="userSpaceOnUse">
<stop stop-color="#E1E2E2"/>
<stop offset="0.4" stop-color="#C3C2C2"/>
<stop offset="0.9" stop-color="#B9B7B8"/>
</linearGradient>
<linearGradient id="paint6_linear_1_1489" x1="2964.93" y1="11090.2" x2="9913.3" y2="10175.4" gradientUnits="userSpaceOnUse">
<stop offset="0.1" stop-color="#FEFEFE"/>
<stop offset="0.7" stop-color="#C3C2C2"/>
</linearGradient>
<linearGradient id="paint7_linear_1_1489" x1="537.696" y1="3278.93" x2="6361.3" y2="2512.24" gradientUnits="userSpaceOnUse">
<stop stop-color="#E1E2E2"/>
<stop offset="0.4" stop-color="#C3C2C2"/>
<stop offset="0.9" stop-color="#B9B7B8"/>
</linearGradient>
<linearGradient id="paint8_linear_1_1489" x1="1282.25" y1="9504.4" x2="14526.3" y2="7760.79" gradientUnits="userSpaceOnUse">
<stop stop-color="#E1E2E2"/>
<stop offset="0.4" stop-color="#C3C2C2"/>
<stop offset="0.9" stop-color="#B9B7B8"/>
</linearGradient>
<linearGradient id="paint9_linear_1_1489" x1="1004.13" y1="6456.14" x2="1011.23" y2="6455.21" gradientUnits="userSpaceOnUse">
<stop stop-color="#E1E2E2"/>
<stop offset="0.4" stop-color="#C3C2C2"/>
<stop offset="0.9" stop-color="#B9B7B8"/>
</linearGradient>
<linearGradient id="paint10_linear_1_1489" x1="825.652" y1="1103.24" x2="827.44" y2="1116.82" gradientUnits="userSpaceOnUse">
<stop stop-color="#E1E2E2"/>
<stop offset="0.4" stop-color="#C3C2C2"/>
<stop offset="0.9" stop-color="#B9B7B8"/>
</linearGradient>
<linearGradient id="paint11_linear_1_1489" x1="1053.4" y1="6276.14" x2="1060.5" y2="6275.21" gradientUnits="userSpaceOnUse">
<stop stop-color="#E1E2E2"/>
<stop offset="0.4" stop-color="#C3C2C2"/>
<stop offset="0.9" stop-color="#B9B7B8"/>
</linearGradient>
<linearGradient id="paint12_linear_1_1489" x1="869.01" y1="997.398" x2="870.52" y2="1008.87" gradientUnits="userSpaceOnUse">
<stop stop-color="#E1E2E2"/>
<stop offset="0.4" stop-color="#C3C2C2"/>
<stop offset="0.9" stop-color="#B9B7B8"/>
</linearGradient>
<linearGradient id="paint13_linear_1_1489" x1="1715.65" y1="10479.9" x2="7753.29" y2="9684.98" gradientUnits="userSpaceOnUse">
<stop stop-color="#E1E2E2"/>
<stop offset="0.2" stop-color="#C3C2C2"/>
<stop offset="0.7" stop-color="#B9B7B8"/>
</linearGradient>
<linearGradient id="paint14_linear_1_1489" x1="5865.55" y1="11465.5" x2="5111.98" y2="9771.78" gradientUnits="userSpaceOnUse">
<stop offset="0.1" stop-color="#C3C2C2"/>
<stop offset="0.9" stop-color="#FEFEFE"/>
</linearGradient>
<linearGradient id="paint15_linear_1_1489" x1="2611.27" y1="43645.4" x2="1301.32" y2="33695.3" gradientUnits="userSpaceOnUse">
<stop offset="0.1" stop-color="#FEFEFE"/>
<stop offset="0.9" stop-color="#FEFEFE"/>
</linearGradient>
<linearGradient id="paint16_linear_1_1489" x1="2166.33" y1="11782.3" x2="2085.86" y2="11171" gradientUnits="userSpaceOnUse">
<stop offset="0.1" stop-color="#FEFEFE"/>
<stop offset="0.7" stop-color="#FEFEFE"/>
</linearGradient>
<linearGradient id="paint17_linear_1_1489" x1="858.929" y1="1393.57" x2="6205.59" y2="689.668" gradientUnits="userSpaceOnUse">
<stop stop-color="#E1E2E2"/>
<stop offset="0.2" stop-color="#C3C2C2"/>
<stop offset="0.9" stop-color="#B9B7B8"/>
</linearGradient>
<linearGradient id="paint18_linear_1_1489" x1="782.032" y1="809.476" x2="6128.69" y2="105.575" gradientUnits="userSpaceOnUse">
<stop stop-color="#E1E2E2"/>
<stop offset="0.2" stop-color="#C3C2C2"/>
<stop offset="0.9" stop-color="#B9B7B8"/>
</linearGradient>
<linearGradient id="paint19_linear_1_1489" x1="4159.46" y1="2575.12" x2="4166.91" y2="2631.7" gradientUnits="userSpaceOnUse">
<stop stop-color="#E1E2E2"/>
<stop offset="0.4" stop-color="#C3C2C2"/>
<stop offset="0.9" stop-color="#B9B7B8"/>
</linearGradient>
<linearGradient id="paint20_linear_1_1489" x1="3985.93" y1="1355.83" x2="3990.27" y2="1388.78" gradientUnits="userSpaceOnUse">
<stop stop-color="#E1E2E2"/>
<stop offset="0.4" stop-color="#C3C2C2"/>
<stop offset="0.9" stop-color="#B9B7B8"/>
</linearGradient>
</defs>
</svg>
