<svg width="72" height="72" viewBox="0 0 72 72" fill="none" xmlns="http://www.w3.org/2000/svg">
<g filter="url(#filter0_d_1448_6794)">
<path fill-rule="evenodd" clip-rule="evenodd" d="M35.9999 6C41.9333 6 47.7335 7.75946 52.6669 11.0559C57.6004 14.3523 61.4456 19.0377 63.7162 24.5195C65.9868 30.0012 66.5809 36.0332 65.4234 41.8526C64.2659 47.6721 61.4087 53.0176 57.2131 57.2131C53.0176 61.4087 47.6721 64.266 41.8527 65.4235C36.0333 66.5811 30.0013 65.987 24.5196 63.7164C19.0378 61.4459 14.3524 57.6007 11.056 52.6672C7.75953 47.7338 6.00004 41.9336 6 36.0002C6 28.0437 9.16071 20.413 14.7868 14.7869C20.4128 9.1608 28.0434 6.00005 35.9999 6Z" fill="url(#paint0_linear_1448_6794)"/>
<path fill-rule="evenodd" clip-rule="evenodd" d="M13.8073 36.0002C13.8073 30.1143 16.1455 24.4695 20.3074 20.3076C24.4693 16.1456 30.1141 13.8075 35.9999 13.8075C41.8858 13.8075 47.5305 16.1456 51.6925 20.3076C55.8544 24.4695 58.1925 30.1143 58.1925 36.0002C58.4847 35.1996 59.0159 34.5083 59.7142 34.0198C60.4125 33.5314 61.2441 33.2694 62.0963 33.2694C62.9484 33.2694 63.78 33.5314 64.4783 34.0198C65.1766 34.5083 65.7078 35.1996 66 36.0002C66 28.0436 62.8393 20.413 57.2132 14.7869C51.5871 9.16078 43.9565 6.00006 36 6.00006C28.0435 6.00006 20.4129 9.16078 14.7868 14.7869C9.16071 20.413 6 28.0436 6 36.0002C6.29217 35.1996 6.82341 34.5083 7.52168 34.0198C8.21995 33.5314 9.05148 33.2694 9.90364 33.2694C10.7558 33.2694 11.5874 33.5314 12.2856 34.0198C12.9839 34.5083 13.5151 35.1996 13.8073 36.0002Z" fill="url(#paint1_linear_1448_6794)"/>
<g style="mix-blend-mode:screen">
<path fill-rule="evenodd" clip-rule="evenodd" d="M35.4315 13.2252C39.8235 13.2252 44.1168 14.5276 47.7686 16.9676C51.4203 19.4077 54.2666 22.8758 55.9473 26.9335C57.628 30.9911 58.0677 35.4561 57.2109 39.7636C56.354 44.0712 54.2391 48.028 51.1335 51.1335C48.0279 54.2391 44.0711 56.354 39.7636 57.2108C35.456 58.0677 30.9911 57.6279 26.9335 55.9471C22.8758 54.2664 19.4077 51.4201 16.9677 47.7683C14.5277 44.1166 13.2253 39.8232 13.2253 35.4312C13.2254 29.5418 15.565 23.8936 19.7294 19.7291C23.8939 15.5647 29.5421 13.2251 35.4315 13.2252Z" fill="#F7E984"/>
</g>
<path fill-rule="evenodd" clip-rule="evenodd" d="M35.9999 13.8073C40.3892 13.8073 44.6799 15.1089 48.3294 17.5474C51.979 19.986 54.8235 23.452 56.5032 27.5072C58.1829 31.5623 58.6224 36.0245 57.7661 40.3295C56.9098 44.6344 54.7962 48.5888 51.6925 51.6925C48.5888 54.7962 44.6345 56.9099 40.3296 57.7662C36.0246 58.6225 31.5625 58.1831 27.5073 56.5034C23.4521 54.8237 19.9861 51.9793 17.5475 48.3297C15.1089 44.6802 13.8073 40.3895 13.8073 36.0002C13.8073 30.1143 16.1454 24.4695 20.3073 20.3075C24.4692 16.1455 30.1141 13.8073 35.9999 13.8073Z" fill="url(#paint2_radial_1448_6794)"/>
<path style="mix-blend-mode:screen" fill-rule="evenodd" clip-rule="evenodd" d="M17.7466 48.6258L48.626 17.7464C45.9947 15.93 43.0029 14.7021 39.8542 14.1462C36.7056 13.5903 33.4741 13.7195 30.3799 14.5251L14.5251 30.3799C13.7195 33.4741 13.5903 36.7055 14.1462 39.8541C14.7021 43.0028 15.9301 45.9946 17.7466 48.6258Z" fill="url(#paint3_radial_1448_6794)"/>
<path style="mix-blend-mode:screen" fill-rule="evenodd" clip-rule="evenodd" d="M56.347 27.9534L27.9534 56.3472L27.7084 56.5917C30.0769 57.5459 32.5929 58.082 35.1447 58.1764L35.6849 57.6364L57.6362 35.6852L58.1764 35.1448C58.0819 32.5931 57.5457 30.0771 56.5918 27.7085L56.347 27.9534Z" fill="url(#paint4_radial_1448_6794)"/>
<path fill-rule="evenodd" clip-rule="evenodd" d="M35.9999 6.78083C41.7789 6.78081 47.4282 8.49447 52.2332 11.7051C57.0383 14.9157 60.7834 19.4792 62.995 24.8183C65.2065 30.1574 65.7852 36.0324 64.6578 41.7004C63.5304 47.3684 60.7475 52.5748 56.6611 56.6612C52.5748 60.7476 47.3684 63.5305 41.7005 64.6579C36.0325 65.7854 30.1575 65.2067 24.8184 62.9952C19.4793 60.7837 14.9158 57.0386 11.7052 52.2335C8.49453 47.4285 6.78084 41.7792 6.78082 36.0002C6.78081 28.2508 9.85924 20.8187 15.3389 15.339C20.8185 9.85934 28.2505 6.78087 35.9999 6.78083ZM35.9999 6C41.9333 6 47.7335 7.75946 52.6669 11.0559C57.6004 14.3523 61.4456 19.0377 63.7162 24.5195C65.9868 30.0012 66.5809 36.0332 65.4234 41.8526C64.2659 47.6721 61.4087 53.0176 57.2131 57.2131C53.0176 61.4087 47.6721 64.266 41.8527 65.4235C36.0333 66.5811 30.0013 65.987 24.5196 63.7164C19.0378 61.4459 14.3524 57.6007 11.056 52.6672C7.75953 47.7338 6.00004 41.9336 6 36.0002C6 28.0437 9.16071 20.413 14.7868 14.7869C20.4128 9.1608 28.0434 6.00005 35.9999 6Z" fill="url(#paint5_linear_1448_6794)"/>
<g style="mix-blend-mode:screen">
<path fill-rule="evenodd" clip-rule="evenodd" d="M7.49103 29.5672C9.22937 23.3428 12.957 17.8584 18.1047 13.9514C23.2525 10.0443 29.5374 7.92931 35.9999 7.92931C42.4624 7.92931 48.7474 10.0443 53.8951 13.9514C59.0428 17.8584 62.7705 23.3428 64.5088 29.5672C63.0472 23.098 59.4288 17.3182 54.248 13.1774C49.0672 9.03652 42.6322 6.78082 35.9999 6.78082C29.3677 6.78082 22.9326 9.03652 17.7518 13.1774C12.5711 17.3182 8.95265 23.098 7.49103 29.5672Z" fill="#F7E984"/>
</g>
<path fill-rule="evenodd" clip-rule="evenodd" d="M38.846 23.6C40.2306 23.9164 41.5519 24.4641 42.7543 25.22L46.0017 23.1589L48.8409 25.9982L46.7796 29.2458C47.5354 30.4482 48.0832 31.7694 48.4 33.1539L52.1521 33.9925V38.0077L48.4 38.8459C48.0833 40.2305 47.5355 41.5519 46.7798 42.7546L48.8409 46.0017L46.0017 48.841L42.7543 46.7795C41.5518 47.5354 40.2305 48.0831 38.846 48.3999L38.0076 52.1522H33.9924L33.154 48.3999C31.7693 48.0834 30.448 47.5356 29.2455 46.7795L25.9984 48.841L23.1591 46.0017L25.2202 42.7542C24.4644 41.5517 23.9166 40.2304 23.6 38.8459L19.8477 38.0077L19.8479 33.9925L23.6004 33.1539C23.917 31.7695 24.4646 30.4483 25.2202 29.2458L23.1591 25.9982L25.9984 23.1589L29.2453 25.22C30.4478 24.4641 31.7692 23.9164 33.1538 23.6L33.9922 19.8477H38.0074L38.846 23.6ZM35.9999 28.4151C37.5001 28.4151 38.9665 28.8599 40.2138 29.6934C41.4612 30.5268 42.4333 31.7114 43.0074 33.0973C43.5815 34.4833 43.7317 36.0083 43.4391 37.4796C43.1464 38.951 42.424 40.3025 41.3633 41.3632C40.3025 42.424 38.9511 43.1464 37.4798 43.4391C36.0085 43.7318 34.4834 43.5816 33.0975 43.0075C31.7115 42.4335 30.5269 41.4614 29.6935 40.2141C28.86 38.9667 28.4151 37.5003 28.4151 36.0002C28.4151 35.0041 28.6112 34.0178 28.9924 33.0975C29.3736 32.1773 29.9323 31.3411 30.6366 30.6368C31.3409 29.9324 32.1771 29.3737 33.0973 28.9925C34.0175 28.6113 35.0039 28.4151 35.9999 28.4151Z" fill="url(#paint6_linear_1448_6794)"/>
<g style="mix-blend-mode:screen">
<path fill-rule="evenodd" clip-rule="evenodd" d="M35.9999 28.4151C33.9883 28.4152 32.059 29.2143 30.6366 30.6368C29.2142 32.0593 28.4151 33.9885 28.4151 36.0002C28.4151 36.2589 28.4282 36.5174 28.4541 36.7748C28.6459 34.9069 29.5236 33.1766 30.9175 31.9185C32.3113 30.6604 34.1223 29.9639 35.9999 29.9639C37.8776 29.9639 39.6885 30.6604 41.0824 31.9185C42.4762 33.1766 43.3539 34.9069 43.5457 36.7748C43.5718 36.5174 43.5848 36.2589 43.5848 36.0002C43.5848 35.0041 43.3886 34.0178 43.0074 33.0975C42.6263 32.1773 42.0676 31.3411 41.3633 30.6368C40.6589 29.9324 39.8228 29.3737 38.9025 28.9925C37.9823 28.6113 36.996 28.4151 35.9999 28.4151ZM29.2455 46.7796L25.9984 48.8411L23.1591 46.0018V47.5511L25.9984 50.3902L29.2455 48.3289C30.448 49.085 31.7693 49.6327 33.154 49.9491L33.9924 53.7016H38.0076L38.846 49.9491C40.2306 49.6327 41.5519 49.0849 42.7543 48.3289L46.0017 50.3902L48.8409 47.5511V46.0018L46.0017 48.8411L42.7543 46.7796C41.5518 47.5354 40.2305 48.0832 38.846 48.3999L38.0076 52.1523H33.9924L33.154 48.3999C31.7693 48.0834 30.448 47.5356 29.2455 46.7796ZM23.1591 27.5474L24.7517 30.057C24.898 29.7802 25.0542 29.5098 25.2202 29.2458L23.1591 25.9982V27.5474ZM25.2202 42.7542C24.4644 41.5517 23.9166 40.2304 23.6 38.8459L19.8477 38.0077V39.5571L23.6 40.3951C23.8465 41.4736 24.2337 42.515 24.7517 43.4925L25.2202 42.7542ZM48.4 38.8459C48.0833 40.2305 47.5355 41.5519 46.7798 42.7546L47.2483 43.4925C47.7663 42.515 48.1535 41.4736 48.4 40.3951L52.1521 39.5571V38.0077L48.4 38.8459ZM47.2483 30.0566L48.8409 27.5474V25.9982L46.7796 29.2458C46.9454 29.5096 47.1016 29.7799 47.2483 30.0566Z" fill="#F7E984"/>
</g>
<path fill-rule="evenodd" clip-rule="evenodd" d="M23.1591 25.9982L24.0013 27.325L25.9984 25.3279L29.2454 27.389C30.4479 26.6332 31.7692 26.0855 33.1538 25.769L33.9923 22.0167H38.0074L38.846 25.769C40.2305 26.0855 41.5518 26.6332 42.7543 27.389L46.0017 25.3279L47.9987 27.325L48.8409 25.9982L46.0017 23.1589L42.7543 25.22C41.5519 24.4641 40.2306 23.9164 38.846 23.6L38.0074 19.8477H33.9923L33.1538 23.6C31.7692 23.9164 30.4478 24.4641 29.2454 25.22L25.9984 23.1589L23.1591 25.9982ZM23.6004 33.1539L19.8479 33.9925V36.1614L23.6004 35.3228C23.917 33.9384 24.4646 32.6172 25.2202 31.4147V29.2458L24.5765 30.4005C24.1457 31.2774 23.8181 32.2014 23.6004 33.1539ZM46.7796 31.4147C47.5354 32.6172 48.0832 33.9384 48.4 35.3228L52.1521 36.1612V33.9925L48.4 33.1539C48.1822 32.2013 47.8545 31.2771 47.4236 30.4001L46.7796 29.2458V31.4147ZM25.2202 44.9231V42.7542L23.1591 46.0017L24.0013 46.8436L25.2202 44.9231ZM46.7798 44.9235L47.9987 46.8436L48.8409 46.0017L46.7798 42.7546V44.9235Z" fill="#753D29"/>
</g>
<defs>
<filter id="filter0_d_1448_6794" x="0" y="0" width="72" height="72" filterUnits="userSpaceOnUse" color-interpolation-filters="sRGB">
<feFlood flood-opacity="0" result="BackgroundImageFix"/>
<feColorMatrix in="SourceAlpha" type="matrix" values="0 0 0 0 0 0 0 0 0 0 0 0 0 0 0 0 0 0 127 0" result="hardAlpha"/>
<feOffset/>
<feGaussianBlur stdDeviation="3"/>
<feComposite in2="hardAlpha" operator="out"/>
<feColorMatrix type="matrix" values="0 0 0 0 0 0 0 0 0 0 0 0 0 0 0 0 0 0 0.7 0"/>
<feBlend mode="normal" in2="BackgroundImageFix" result="effect1_dropShadow_1448_6794"/>
<feBlend mode="normal" in="SourceGraphic" in2="effect1_dropShadow_1448_6794" result="shape"/>
</filter>
<linearGradient id="paint0_linear_1448_6794" x1="36" y1="66" x2="36" y2="6" gradientUnits="userSpaceOnUse">
<stop stop-color="#DE8B00"/>
<stop offset="1" stop-color="#FFC75E"/>
</linearGradient>
<linearGradient id="paint1_linear_1448_6794" x1="36" y1="36.0002" x2="36" y2="5.99997" gradientUnits="userSpaceOnUse">
<stop stop-color="#FFB805"/>
<stop offset="1" stop-color="#FFE89C"/>
</linearGradient>
<radialGradient id="paint2_radial_1448_6794" cx="0" cy="0" r="1" gradientUnits="userSpaceOnUse" gradientTransform="translate(25.531 16.6978) scale(49.2577 49.2579)">
<stop stop-color="#FFEEB8"/>
<stop offset="1" stop-color="#FFBF00"/>
</radialGradient>
<radialGradient id="paint3_radial_1448_6794" cx="0" cy="0" r="1" gradientUnits="userSpaceOnUse" gradientTransform="translate(27.9451 3.73555) scale(49.7054 49.7056)">
<stop stop-color="#FFFD9E"/>
<stop offset="1"/>
</radialGradient>
<radialGradient id="paint4_radial_1448_6794" cx="0" cy="0" r="1" gradientUnits="userSpaceOnUse" gradientTransform="translate(46.214 20.3687) scale(42.198 42.1982)">
<stop stop-color="#FFFD9E"/>
<stop offset="1"/>
</radialGradient>
<linearGradient id="paint5_linear_1448_6794" x1="36" y1="66" x2="36" y2="6" gradientUnits="userSpaceOnUse">
<stop stop-color="#CF8000"/>
<stop offset="1" stop-color="#F5B133"/>
</linearGradient>
<linearGradient id="paint6_linear_1448_6794" x1="35.9999" y1="52.1522" x2="35.9999" y2="19.8477" gradientUnits="userSpaceOnUse">
<stop stop-color="#D68329"/>
<stop offset="1" stop-color="#954B25"/>
</linearGradient>
</defs>
</svg>
