<svg width="42" height="46" viewBox="0 0 42 46" fill="none" xmlns="http://www.w3.org/2000/svg">
<g filter="url(#filter0_d_1561_17324)">
<path fill-rule="evenodd" clip-rule="evenodd" d="M4 42.0001L7.81063 37.0466H34.7887L38 42.0001H4Z" fill="url(#paint0_radial_1561_17324)"/>
<path d="M21.0001 34.0245C29.9231 34.0245 37.1566 27.3033 37.1566 19.0122C37.1566 10.7212 29.9231 4 21.0001 4C12.0771 4 4.84363 10.7212 4.84363 19.0122C4.84363 27.3033 12.0771 34.0245 21.0001 34.0245Z" fill="url(#paint1_radial_1561_17324)" fill-opacity="0.6"/>
<path style="mix-blend-mode:screen" opacity="0.93" d="M21.0001 34.0245C29.9231 34.0245 37.1566 27.3033 37.1566 19.0122C37.1566 10.7212 29.9231 4 21.0001 4C12.0771 4 4.84363 10.7212 4.84363 19.0122C4.84363 27.3033 12.0771 34.0245 21.0001 34.0245Z" fill="url(#paint2_radial_1561_17324)" fill-opacity="0.6"/>
<g style="mix-blend-mode:screen" opacity="0.93">
<path d="M21.0001 4.37373C25.177 4.37812 29.1814 5.92179 32.1349 8.66609C35.0884 11.4104 36.7497 15.1312 36.7544 19.0122C36.7497 22.8933 35.0884 26.6141 32.1349 29.3584C29.1814 32.1027 25.177 33.6464 21.0001 33.6507C16.8233 33.6464 12.8189 32.1027 9.86539 29.3584C6.91191 26.6141 5.25057 22.8933 5.24585 19.0122C5.25057 15.1312 6.91191 11.4104 9.86539 8.6661C12.8189 5.9218 16.8233 4.37812 21.0001 4.37373ZM21.0001 4C18.8784 4 16.7775 4.3883 14.8173 5.14274C12.8571 5.89717 11.076 7.00297 9.57576 8.39698C8.07549 9.791 6.88541 11.4459 6.07347 13.2673C5.26153 15.0887 4.84363 17.0408 4.84363 19.0122C4.84363 20.9837 5.26153 22.9358 6.07347 24.7572C6.88541 26.5785 8.07549 28.2335 9.57576 29.6275C11.076 31.0215 12.8571 32.1273 14.8173 32.8817C16.7775 33.6362 18.8784 34.0245 21.0001 34.0245C23.1218 34.0245 25.2228 33.6362 27.183 32.8817C29.1432 32.1273 30.9242 31.0215 32.4245 29.6275C33.9248 28.2335 35.1149 26.5785 35.9268 24.7572C36.7387 22.9358 37.1566 20.9837 37.1566 19.0122C37.1566 17.0408 36.7387 15.0887 35.9268 13.2673C35.1149 11.4459 33.9248 9.791 32.4245 8.39698C30.9242 7.00296 29.1432 5.89717 27.183 5.14274C25.2228 4.3883 23.1218 4 21.0001 4Z" fill="url(#paint3_radial_1561_17324)" fill-opacity="0.6"/>
</g>
<path fill-rule="evenodd" clip-rule="evenodd" d="M11.5448 36.0576L10.3763 37.0465H32.6931L31.5118 36.0868L11.5448 36.0576Z" fill="#68134C"/>
<path opacity="0.2" fill-rule="evenodd" clip-rule="evenodd" d="M9.15479 42.0001L11.2379 37.0466H18.9605L17.1823 42.0001H9.15479Z" fill="#FFD62F"/>
<path opacity="0.2" fill-rule="evenodd" clip-rule="evenodd" d="M18.1984 42.0001L19.8752 37.0466H21.5348L20.2308 42.0001H18.1984Z" fill="#FFD62F"/>
<path opacity="0.5" fill-rule="evenodd" clip-rule="evenodd" d="M30.4426 37.0466L31.2559 42.0001H37.1565L33.9484 37.0466H30.4426Z" fill="#590A43"/>
<path fill-rule="evenodd" clip-rule="evenodd" d="M7.81055 37.0466C7.81055 37.0466 22.267 38.3156 34.7888 37.0466H7.81055Z" fill="#D37B4F"/>
<path fill-rule="evenodd" clip-rule="evenodd" d="M11.5448 36.0576C11.5448 36.0576 19.4725 36.9623 31.5118 36.0868L11.5448 36.0576Z" fill="#569DFF"/>
<g style="mix-blend-mode:multiply" opacity="0.2">
<path fill-rule="evenodd" clip-rule="evenodd" d="M18.7041 5.27832C18.7417 5.28718 18.7793 5.29604 18.8149 5.30624C19.0181 5.36484 19.2143 5.44258 19.4005 5.53825C19.5549 5.62219 19.6669 5.74608 19.8 5.83017C20.0402 5.97411 20.297 6.09244 20.5657 6.1829C20.8889 6.29842 21.1548 6.47811 21.4733 6.59958C22.3057 6.91594 23.2656 6.779 24.1418 6.76675C24.3267 6.77045 24.5116 6.76197 24.6952 6.74137C24.8288 6.73039 24.9635 6.74082 25.0933 6.7722C25.4058 6.8019 25.7004 6.92234 25.9351 7.11641C26.0409 7.25801 26.1033 7.42358 26.1159 7.59554C26.1769 7.83073 26.1977 7.91635 25.9394 7.93096C25.4907 7.95697 24.9537 7.89729 24.8097 8.41584C24.7018 8.73667 24.6183 9.06416 24.5599 9.39588C24.5152 9.77062 24.3371 10.1983 24.5038 10.573C24.6286 10.8506 24.9951 10.9511 25.2525 11.1081C25.498 11.2298 25.7248 11.3816 25.9267 11.5595C26.0439 11.7163 26.1401 11.8858 26.2133 12.0642C26.2694 12.2049 26.373 12.325 26.5085 12.4066C26.644 12.4882 26.8042 12.527 26.9654 12.5173C27.0947 12.4985 27.101 12.4516 27.2412 12.4938C27.3773 12.5546 27.5009 12.6372 27.6063 12.7377C27.9039 12.9815 28.119 13.3121 28.4177 13.5495C28.6316 13.7018 28.8549 13.8423 29.0864 13.9705C29.2161 14.078 29.3542 14.1762 29.4998 14.2644C29.5846 14.2984 29.705 14.3113 29.7972 14.3431C30.0468 14.4065 30.2622 14.5537 30.4016 14.7562C30.7736 15.2689 31.0271 15.8478 31.146 16.4562C31.2048 16.8182 31.046 16.9252 30.7119 17.0194C30.426 17.1009 29.9911 17.1091 29.7868 17.3265C29.6507 17.5339 29.5289 17.7491 29.4222 17.9709C29.3695 18.0728 29.2952 18.1636 29.2036 18.2381C29.1121 18.3125 29.0052 18.3689 28.8896 18.4039C28.4392 18.434 27.9873 18.4399 27.5362 18.4214C27.0395 18.4685 26.3702 18.7656 26.382 19.2874C26.3677 19.5347 26.3032 19.7772 26.192 20.0022C26.1286 20.1645 25.9969 20.3729 26.1732 20.5162C26.2901 20.6111 26.5237 20.5961 26.6478 20.6805C26.71 20.7288 26.7594 20.7899 26.7919 20.8589C26.8245 20.9279 26.8394 21.0029 26.8355 21.0782C26.88 21.3312 26.8902 21.5884 26.8659 21.8438C26.7726 22.0691 26.6189 22.2686 26.4195 22.4233C26.2201 22.5781 25.9816 22.6831 25.7263 22.7284C25.2012 22.8174 24.6799 22.935 24.1853 22.6901C23.8708 22.5346 23.6357 22.2373 23.2398 22.2876C23.0245 22.3471 22.8197 22.4352 22.6317 22.5493C22.416 22.6137 22.2051 22.6911 22.0003 22.7811C21.8118 22.8863 21.6134 22.9752 21.4075 23.0466C21.1146 23.1592 20.8146 23.2548 20.509 23.333C20.1545 23.3726 19.7965 23.376 19.4412 23.3433C19.1477 23.3147 18.8565 23.2683 18.5695 23.2044C18.2334 23.1268 17.8871 23.0944 17.5412 23.1083C17.2819 23.1491 17.0266 23.2186 16.762 23.2488C16.0275 23.325 15.985 22.5989 15.9641 22.089C15.931 21.748 15.9462 21.4044 16.0096 21.0671C16.086 20.7974 16.1333 20.5212 16.1509 20.2428C16.1643 19.9662 16.1559 19.6891 16.126 19.4136C16.0946 19.3085 16.0838 19.1989 16.0944 19.0903C16.1447 18.9137 16.262 18.7598 16.4245 18.657C16.773 18.3619 17.158 18.1063 17.5714 17.8957C18.0057 17.7256 18.2696 18.1344 18.4883 18.4029C18.6133 18.5551 18.7944 18.7322 19.0108 18.7031C19.2128 18.6752 19.3551 18.5395 19.5791 18.528C19.6888 18.5186 19.7987 18.5433 19.8916 18.5983C19.9845 18.6533 20.055 18.7354 20.0921 18.8318C20.1337 18.9205 20.1353 19.0049 20.1858 19.0933C20.237 19.1785 20.3316 19.2173 20.3109 19.3281C20.2711 19.56 19.8989 19.4718 19.7168 19.4664C19.3933 19.4564 19.3355 19.4726 19.1849 19.7393C19.0998 19.8934 18.9763 20.1476 19.1768 20.2631C19.3194 20.3436 19.6616 20.2441 19.8183 20.2524C20.4844 20.2849 21.1588 20.3204 21.4158 19.6089C21.4966 19.3864 21.4024 19.2932 21.3976 19.0828C21.3919 18.8674 21.5559 18.6572 21.54 18.4287C21.5169 18.1281 21.1989 17.8582 21.016 17.6197C20.7872 17.3271 20.5277 17.0564 20.2412 16.8116C20.0658 16.6715 19.8626 16.5646 19.6431 16.4969C19.4139 16.4036 19.3469 16.1724 19.1678 16.0254C18.8354 15.7566 18.4711 15.7885 18.0628 15.7446C17.7078 15.7217 17.353 15.7928 17.0397 15.9498C16.2659 16.223 15.5306 16.5826 14.8501 17.0207C14.3022 17.4453 13.7048 17.8116 13.0691 18.1125C12.7629 18.2331 12.4463 18.3292 12.1225 18.4C12.0174 18.4224 12.0217 18.3768 11.9278 18.4685C11.845 18.5769 11.7771 18.6944 11.7256 18.8183C11.6831 19.0498 11.662 19.2841 11.6624 19.5189C11.6497 19.7229 11.6556 19.9276 11.6801 20.1307C11.6893 20.4292 11.7206 20.7129 11.7394 21.0079C11.7713 21.4848 11.2969 21.796 11.2325 22.2751C11.1408 22.9549 11.4316 23.4768 11.6255 24.118C11.804 24.6176 11.9505 25.1266 12.0641 25.6424C12.1201 25.9693 12.0915 26.2705 12.1811 26.5974C12.3204 26.9992 12.4861 27.3926 12.6775 27.7754C12.8029 28.089 12.9886 28.3788 13.2255 28.6308C13.3916 28.7675 13.5468 28.9152 13.6899 29.0727C13.9478 29.4031 14.2025 29.7412 14.4678 30.0695C14.626 30.2257 14.8115 30.3559 15.0166 30.4545C15.214 30.5778 15.428 30.687 15.6289 30.8109C16.1549 31.1315 16.7342 31.7009 17.3993 31.7086C17.5943 31.711 17.793 31.6711 17.9878 31.6851C18.1416 31.715 18.2926 31.7561 18.4394 31.8081C18.5623 31.8326 18.6832 31.8654 18.801 31.9062C18.9806 31.9658 19.1687 32.0004 19.3592 32.0086C19.5318 32.0322 19.6997 32.0793 19.8575 32.1484C19.9389 32.1819 20.0579 32.2755 20.1436 32.2832C20.2571 32.2951 20.267 32.2371 20.3636 32.192C20.4702 32.14 20.5786 32.1297 20.6891 32.0866C21.0119 31.9416 21.3832 31.9206 21.7225 32.0283C21.8671 32.1079 22.0215 32.1712 22.1823 32.2168C22.4807 32.3025 22.8013 32.293 23.0931 32.1899C23.0887 32.1982 23.0838 32.2063 23.0783 32.2141C19.6726 32.9734 16.0872 32.5814 12.9642 31.1082C12.9392 31.0055 12.9156 30.9046 12.897 30.806C12.8275 30.5268 12.6844 30.2679 12.4807 30.0527C12.2305 29.732 12.013 29.3903 11.8313 29.032C11.6605 28.7213 11.4589 28.4262 11.229 28.1504C10.9453 27.7947 10.7608 27.3893 10.4741 27.0299C10.1848 26.7134 9.86071 26.4259 9.50716 26.1719C9.06214 25.7279 8.72194 25.2023 8.5084 24.629C8.38854 24.3851 8.36067 24.1019 8.2273 23.8642C8.14541 23.72 8.0383 23.5985 7.96501 23.4457C7.76681 23.051 7.50516 22.6866 7.18905 22.365C6.98444 22.1696 6.73318 22.2051 6.48995 22.1212C6.23338 22.032 6.15261 21.7361 5.98139 21.5638C5.87168 21.4707 5.73844 21.4047 5.59403 21.3721C5.44962 21.3395 5.29868 21.3412 5.15518 21.3771C4.80429 19.5796 4.84343 17.735 5.27032 15.9517C5.69721 14.1684 6.50326 12.4823 7.6411 10.9924C7.87946 11.3017 7.97008 11.9442 8.12453 12.1107C8.21909 12.2122 8.35676 12.259 8.44855 12.3765C8.52013 12.4849 8.5784 12.6004 8.62228 12.7209C8.71193 12.9026 8.82962 13.128 9.05937 13.1043C9.28763 13.0786 9.47901 12.719 9.70276 12.9271C9.81261 13.0325 9.80066 13.2057 9.93021 13.3207C10.0374 13.405 10.1337 13.5007 10.2171 13.6058C10.3458 13.795 10.4592 13.9928 10.5563 14.1976C10.6172 14.2876 10.6987 14.3639 10.7952 14.4211C10.8686 14.4799 10.9707 14.6304 11.05 14.6652C11.3352 14.7949 11.424 14.4531 11.495 14.2771C11.5267 14.175 11.5652 14.0748 11.6104 13.9772C11.6688 13.8752 11.7296 13.8627 11.8089 13.7837C11.9937 13.5746 12.0946 13.3123 12.0942 13.0417C12.113 12.6394 12.1926 12.2416 12.3306 11.8599C12.3686 11.709 12.4432 11.5682 12.5487 11.4481C12.6466 11.3536 12.7411 11.2587 12.8361 11.1605C12.9438 11.0481 13.0416 10.9279 13.1287 10.801C13.2563 10.6267 13.4377 10.5016 13.5717 10.3316C13.7279 10.1287 13.8248 9.89162 13.8531 9.64352C13.8432 9.55621 13.7734 9.48644 13.7755 9.39102C13.7757 9.29695 13.8387 9.24022 13.8126 9.14391C13.7544 8.92397 13.348 8.71356 13.1668 8.59923C12.8701 8.42093 12.5384 8.2989 12.1908 8.24015C11.8548 8.20113 11.5156 8.19127 11.1777 8.2107C10.9915 8.213 10.8071 8.17668 10.638 8.10437C10.7536 8.02081 10.8727 7.93773 10.9932 7.85651C13.247 6.33255 15.9221 5.43811 18.7041 5.27832ZM17.6365 14.7074C17.5766 14.7877 17.6504 14.9687 17.7163 15.0296C17.8491 15.1566 18.1119 15.1476 18.2893 15.1904C18.4751 15.2412 18.6749 15.2222 18.8457 15.1373L18.6878 15.0843C18.9225 15.0827 19.2008 15.1487 19.3082 14.8855C19.3334 14.8228 19.3313 14.7534 19.3023 14.6921C19.2734 14.6308 19.2198 14.5824 19.1531 14.5571C18.9371 14.418 18.6891 14.3276 18.4289 14.2931C18.2609 14.3031 18.1024 14.3694 17.983 14.4797C17.8579 14.5422 17.7416 14.6186 17.6365 14.7074ZM22.5599 7.82695C22.4891 7.98636 22.4782 8.16329 22.5289 8.32917C22.5736 8.47552 22.6427 8.61445 22.7337 8.74088C22.9603 8.95469 23.256 9.09359 23.5757 9.13629C23.7387 9.1802 24.1582 9.23077 23.805 8.99027C23.9227 8.97732 24.0353 8.93853 24.1336 8.8771C24.1983 8.82018 24.2576 8.75827 24.311 8.69203C24.4395 8.55424 24.499 8.38307 24.6142 8.24C24.7049 8.12055 24.809 8.01033 24.9246 7.91115C25.0273 7.83061 25.145 7.79687 25.15 7.65395C25.1553 7.6178 25.1463 7.58111 25.1248 7.55061C25.1032 7.52012 25.0705 7.49789 25.0327 7.48801C24.9253 7.46804 24.8155 7.46067 24.706 7.46607C24.5975 7.45662 24.4904 7.449 24.3807 7.44597C24.0639 7.42878 23.7519 7.52789 23.4361 7.53563C23.2707 7.52467 23.1046 7.5368 22.9431 7.57162C22.864 7.58785 22.7892 7.61885 22.7233 7.66274C22.6574 7.70664 22.6019 7.7625 22.5599 7.82695ZM13.3597 7.57779C13.3259 7.71845 13.3242 7.86415 13.3547 8.00546C13.3853 8.14677 13.4474 8.28056 13.5371 8.39816C13.776 8.73855 14.0788 9.03617 14.4312 9.27677C14.5487 9.3749 14.6892 9.44603 14.8416 9.48446C15.0131 9.53128 15.174 9.63929 15.0036 9.47208C15.2255 9.40315 15.4428 9.32232 15.6546 9.23002C15.9211 9.11592 16.2189 9.05765 16.4975 8.9668C17.0022 8.84892 17.4647 8.60996 17.8388 8.27382C17.953 8.15046 18.0336 8.00334 18.0738 7.84492C18.1139 7.68649 18.1125 7.52141 18.0694 7.36364C17.9839 7.144 17.8334 6.95121 17.6353 6.80737C17.3864 6.65895 17.1088 6.55675 16.8181 6.50644C16.5349 6.43567 16.2359 6.44063 15.9556 6.52076C15.76 6.58425 15.579 6.68625 15.3786 6.73584C15.2764 6.76196 15.1822 6.78271 15.0824 6.81578C14.9578 6.84609 14.8286 6.8571 14.7001 6.84837C14.5215 6.83122 14.3416 6.86505 14.1842 6.94536C14.0292 7.04125 13.8844 7.15024 13.7337 7.25178C13.5794 7.32682 13.4501 7.43954 13.3597 7.57779Z" fill="#4D1154" fill-opacity="0.6"/>
</g>
<g style="mix-blend-mode:multiply" opacity="0.2">
<path fill-rule="evenodd" clip-rule="evenodd" d="M29.5385 28.3069C29.4807 28.2882 29.4279 28.258 29.3838 28.2185C29.344 28.1818 29.3042 28.1359 29.2654 28.0975C29.1981 28.0175 29.1232 27.9434 29.0415 27.8759C28.9596 27.8214 28.8935 27.8449 28.8042 27.8406C28.7509 27.8379 28.695 27.8264 28.641 27.8203C28.6121 27.8137 28.5827 27.8091 28.553 27.8066C28.5174 27.8108 28.4813 27.8114 28.4455 27.8083C28.3718 27.7951 28.3125 27.7495 28.2378 27.7373C28.1786 27.7351 28.1205 27.7215 28.0671 27.6975C28.0268 27.6732 28.0131 27.634 27.983 27.6019C27.9443 27.5635 27.8998 27.5306 27.8509 27.5042C27.687 27.4064 27.4914 27.4052 27.3239 27.3218C27.1716 27.246 27.1979 27.0174 27.1619 26.886C27.1559 26.8645 27.1357 26.8461 27.136 26.8226C27.1421 26.7966 27.152 26.7715 27.1654 26.748C27.181 26.7067 27.1825 26.6619 27.1699 26.6197C27.1627 26.5931 27.1431 26.6102 27.1506 26.5702C27.1551 26.5465 27.1972 26.5145 27.217 26.5015C27.2458 26.4839 27.2786 26.4728 27.3128 26.4691C27.347 26.4653 27.3817 26.469 27.414 26.4799C27.4889 26.4956 27.5642 26.5088 27.639 26.5245C27.7056 26.5452 27.7735 26.562 27.8423 26.5748C27.9121 26.5813 27.9797 26.5649 28.0496 26.572C28.1983 26.5966 28.3327 26.6699 28.4283 26.7786C28.5402 26.8741 28.6388 27.0278 28.812 27.01C28.882 27.0028 28.8824 26.9746 28.9292 26.9397C28.9796 26.902 29.0539 26.88 29.094 26.8278C29.1118 26.7917 29.1257 26.7541 29.1354 26.7154C29.1483 26.6615 29.165 26.6084 29.1855 26.5566C29.213 26.4998 29.2574 26.4982 29.3003 26.4593C29.3268 26.4351 29.31 26.4359 29.3249 26.406C29.3386 26.3763 29.3595 26.35 29.3859 26.3291C29.4327 26.2802 29.4881 26.2392 29.5499 26.2078C29.6043 26.1859 29.6536 26.1542 29.6947 26.1146C29.7466 26.0616 29.7944 26.0053 29.8379 25.9461C29.8824 25.8845 29.9109 25.8141 29.9211 25.7404C29.9218 25.7045 29.9193 25.6686 29.9138 25.633C29.9214 25.5281 29.9514 25.4257 30.0021 25.3317C30.0583 25.1897 30.2228 24.97 30.0515 24.8448C30.0002 24.8073 29.9304 24.8105 29.8853 24.7634C29.7886 24.6624 29.8511 24.5272 29.8924 24.4173C29.9701 24.2373 30.0808 24.0711 30.2194 23.9261C30.2513 23.8762 30.2943 23.8333 30.3455 23.8003C30.3968 23.7672 30.4551 23.7448 30.5165 23.7345C30.7872 23.7073 30.984 23.9032 31.2458 23.9233C31.5044 23.9074 31.7592 23.8578 32.0029 23.7759C32.137 23.7448 32.2786 23.7588 32.4026 23.8154C32.445 23.8412 32.4831 23.8726 32.5156 23.9088C32.5819 23.9858 32.5541 24.0437 32.5736 24.1283C32.5868 24.1747 32.6159 24.2158 32.6567 24.2452C32.7622 24.3487 32.7222 24.5558 32.7322 24.6846C32.7372 24.8806 32.7935 25.0724 32.8963 25.2436C33.0251 25.4346 33.1664 25.618 33.3194 25.7929C33.4385 25.9193 33.5471 26.054 33.6443 26.1956C33.7033 26.3004 33.7377 26.4155 33.7452 26.5335C33.7594 26.6103 33.7532 26.689 33.7272 26.7631C33.7012 26.8371 33.6562 26.904 33.596 26.9582C33.4715 27.0667 33.3951 27.0164 33.2478 26.981C33.2003 26.9695 33.1025 26.9372 33.0547 26.9669C32.9833 27.0113 33.0117 27.1409 33.0164 27.2071C33.0206 27.2659 33.0554 27.3898 32.9816 27.4264C32.902 27.4435 32.82 27.4487 32.7386 27.4419C32.6788 27.4451 32.6121 27.464 32.564 27.4288C32.5266 27.4013 32.521 27.3573 32.4977 27.3217C32.4567 27.2589 32.3914 27.2472 32.3277 27.2124C32.2841 27.1817 32.2447 27.1463 32.2103 27.1068C32.1533 27.069 32.1018 27.0245 32.0568 26.9747C31.9975 26.8823 32.0197 26.7861 31.9245 26.706C31.8881 26.6821 31.8548 26.6545 31.8251 26.6237C31.8082 26.5944 31.7944 26.5637 31.784 26.532C31.7506 26.4594 31.6926 26.3518 31.5933 26.348C31.4919 26.3441 31.4344 26.4711 31.4178 26.5449C31.4028 26.6117 31.4053 26.7117 31.3249 26.7371C31.257 26.7586 31.191 26.7218 31.1279 26.7671C30.9292 26.9099 31.1112 27.1607 31.1174 27.3414C31.1267 27.6136 30.8904 27.7721 30.6845 27.9219C30.6647 27.9363 30.6523 27.959 30.6332 27.9726C30.5989 27.997 30.5773 27.9876 30.5419 28.0035C30.4977 28.0307 30.4653 28.0717 30.4507 28.1191C30.4218 28.1692 30.4062 28.225 30.4052 28.2818C30.4139 28.3531 30.4188 28.4247 30.4198 28.4964C30.4133 28.5276 30.3996 28.5572 30.3798 28.5831C30.36 28.609 30.3344 28.6306 30.3048 28.6465C30.2751 28.6624 30.2422 28.6722 30.2082 28.6753C30.1741 28.6784 30.1397 28.6747 30.1074 28.6643C30.0199 28.6457 29.949 28.5535 29.8674 28.5183C29.8007 28.4951 29.7365 28.4662 29.6754 28.4321C29.6439 28.4063 29.6138 28.3791 29.5853 28.3504C29.5403 28.3134 29.4807 28.3016 29.5385 28.3069Z" fill="#4D1154"/>
</g>
<path style="mix-blend-mode:screen" fill-rule="evenodd" clip-rule="evenodd" d="M28.3851 9.56211L31.5117 9.1731C31.5117 9.1731 34.8847 13.1885 33.7497 21.0781H31.4716C31.4716 21.0781 31.2857 14.5368 28.3851 9.56211Z" fill="url(#paint4_linear_1561_17324)"/>
<g style="mix-blend-mode:soft-light">
<path fill-rule="evenodd" clip-rule="evenodd" d="M8.31677 26.926L11.0349 24.9197C11.0349 24.9197 14.4679 30.0695 22.4985 31.4906V33.429C22.4985 33.429 12.864 34.2315 8.31677 26.926Z" fill="white"/>
</g>
<path style="mix-blend-mode:screen" fill-rule="evenodd" clip-rule="evenodd" d="M6.81799 13.4427L8.55542 14.7551C8.55542 14.7551 10.8443 10.8843 11.8987 9.56227L10.6381 8.10449C10.6381 8.10449 7.37688 11.0298 6.81799 13.4427Z" fill="url(#paint5_linear_1561_17324)"/>
</g>
<defs>
<filter id="filter0_d_1561_17324" x="0" y="0" width="42" height="46" filterUnits="userSpaceOnUse" color-interpolation-filters="sRGB">
<feFlood flood-opacity="0" result="BackgroundImageFix"/>
<feColorMatrix in="SourceAlpha" type="matrix" values="0 0 0 0 0 0 0 0 0 0 0 0 0 0 0 0 0 0 127 0" result="hardAlpha"/>
<feOffset/>
<feGaussianBlur stdDeviation="2"/>
<feComposite in2="hardAlpha" operator="out"/>
<feColorMatrix type="matrix" values="0 0 0 0 0 0 0 0 0 0 0 0 0 0 0 0 0 0 0.7 0"/>
<feBlend mode="normal" in2="BackgroundImageFix" result="effect1_dropShadow_1561_17324"/>
<feBlend mode="normal" in="SourceGraphic" in2="effect1_dropShadow_1561_17324" result="shape"/>
</filter>
<radialGradient id="paint0_radial_1561_17324" cx="0" cy="0" r="1" gradientUnits="userSpaceOnUse" gradientTransform="translate(21.0001 39.5235) scale(12.1678 11.306)">
<stop stop-color="#AC4A31"/>
<stop offset="1" stop-color="#8C3832"/>
</radialGradient>
<radialGradient id="paint1_radial_1561_17324" cx="0" cy="0" r="1" gradientUnits="userSpaceOnUse" gradientTransform="translate(22.462 12.3169) scale(22.5577 16.8678)">
<stop stop-color="#002CAC"/>
<stop offset="1" stop-color="#00C7EF"/>
</radialGradient>
<radialGradient id="paint2_radial_1561_17324" cx="0" cy="0" r="1" gradientUnits="userSpaceOnUse" gradientTransform="translate(21.0001 19.0122) scale(16.1565 15.0122)">
<stop offset="0.72067"/>
<stop offset="0.96168" stop-color="white"/>
</radialGradient>
<radialGradient id="paint3_radial_1561_17324" cx="0" cy="0" r="1" gradientUnits="userSpaceOnUse" gradientTransform="translate(21.0001 19.0122) scale(16.1565 15.0122)">
<stop offset="0.53073"/>
<stop offset="0.96168" stop-color="#6863FF"/>
</radialGradient>
<linearGradient id="paint4_linear_1561_17324" x1="31.1841" y1="21.0781" x2="31.1841" y2="9.1731" gradientUnits="userSpaceOnUse">
<stop stop-color="#001B3E"/>
<stop offset="1" stop-color="#FFFF95"/>
</linearGradient>
<linearGradient id="paint5_linear_1561_17324" x1="9.35834" y1="14.7551" x2="9.35834" y2="8.10449" gradientUnits="userSpaceOnUse">
<stop stop-color="#001B3E"/>
<stop offset="1" stop-color="#FFFF95"/>
</linearGradient>
</defs>
</svg>
