<svg width="26" height="37" viewBox="0 0 26 37" fill="none" xmlns="http://www.w3.org/2000/svg">
<path fill-rule="evenodd" clip-rule="evenodd" d="M12.9746 10.9478C15.5407 10.9478 18.0492 11.7087 20.1829 13.1344C22.3166 14.56 23.9796 16.5864 24.9616 18.9572C25.9436 21.328 26.2005 23.9367 25.6999 26.4536C25.1993 28.9704 23.9636 31.2822 22.149 33.0968C20.3345 34.9113 18.0227 36.147 15.5058 36.6477C12.989 37.1483 10.3802 36.8913 8.00945 35.9093C5.63865 34.9273 3.61228 33.2643 2.18661 31.1307C0.760948 28.997 0 26.4885 0 23.9224C-3.93964e-06 22.2185 0.335592 20.5313 0.987625 18.9572C1.63966 17.383 2.59537 15.9527 3.80017 14.7479C5.00497 13.5431 6.43528 12.5874 8.00943 11.9354C9.58358 11.2833 11.2708 10.9477 12.9746 10.9478Z" fill="url(#paint0_radial_3434_12949)"/>
<path style="mix-blend-mode:multiply" fill-rule="evenodd" clip-rule="evenodd" d="M12.9746 10.9478C15.5407 10.9478 18.0492 11.7087 20.1829 13.1344C22.3166 14.56 23.9796 16.5864 24.9616 18.9572C25.9436 21.328 26.2005 23.9367 25.6999 26.4536C25.1993 28.9704 23.9636 31.2822 22.149 33.0968C20.3345 34.9113 18.0227 36.147 15.5058 36.6477C12.989 37.1483 10.3802 36.8913 8.00945 35.9093C5.63865 34.9273 3.61228 33.2643 2.18661 31.1307C0.760948 28.997 0 26.4885 0 23.9224C-3.93964e-06 22.2185 0.335592 20.5313 0.987625 18.9572C1.63966 17.383 2.59537 15.9527 3.80017 14.7479C5.00497 13.5431 6.43528 12.5874 8.00943 11.9354C9.58358 11.2833 11.2708 10.9477 12.9746 10.9478Z" fill="url(#paint1_radial_3434_12949)"/>
<path style="mix-blend-mode:screen" opacity="0.4" fill-rule="evenodd" clip-rule="evenodd" d="M16.9758 14.1845C19.8978 17.1065 19.288 22.4535 15.6139 26.1276C11.9398 29.8017 6.59271 30.4115 3.67081 27.4896C0.748909 24.5677 1.35871 19.2206 5.03281 15.5465C8.70691 11.8724 14.0539 11.2626 16.9758 14.1845Z" fill="url(#paint2_radial_3434_12949)"/>
<path style="mix-blend-mode:screen" opacity="0.75" fill-rule="evenodd" clip-rule="evenodd" d="M5.54251 16.1634C8.4501 13.2557 12.6095 12.7008 14.8328 14.924C17.056 17.1472 16.501 21.3066 13.5933 24.2143C10.6856 27.122 6.5262 27.6769 4.303 25.4537C2.0798 23.2305 2.63471 19.0711 5.54251 16.1634Z" fill="url(#paint3_radial_3434_12949)"/>
<path style="mix-blend-mode:screen" fill-rule="evenodd" clip-rule="evenodd" d="M22.6005 17.2072C23.7942 19.1029 24.4237 21.2992 24.4155 23.5394C24.4148 25.5448 23.9095 27.5177 22.946 29.2765C21.9825 31.0353 20.5919 32.5233 18.9023 33.6035C17.2126 34.6836 15.2783 35.3212 13.2776 35.4574C11.2768 35.5936 9.27394 35.2241 7.45351 34.3829C9.77993 34.9387 12.2177 34.807 14.4707 34.0038C16.7237 33.2005 18.695 31.7603 20.145 29.8581C21.595 27.9558 22.4615 25.6734 22.639 23.2881C22.8166 20.9028 22.2976 18.5172 21.1452 16.4213C20.7562 15.7136 22.1289 16.462 22.6005 17.2072Z" fill="url(#paint4_radial_3434_12949)"/>
<path style="mix-blend-mode:screen" fill-rule="evenodd" clip-rule="evenodd" d="M12.9746 10.9478C15.5407 10.9478 18.0492 11.7087 20.1829 13.1344C22.3166 14.56 23.9796 16.5864 24.9616 18.9572C25.9436 21.328 26.2005 23.9367 25.6999 26.4536C25.1993 28.9704 23.9636 31.2822 22.149 33.0968C20.3345 34.9113 18.0227 36.147 15.5058 36.6477C12.989 37.1483 10.3802 36.8913 8.00945 35.9093C5.63865 34.9273 3.61228 33.2643 2.18661 31.1307C0.760948 28.997 0 26.4885 0 23.9224C-3.93964e-06 22.2185 0.335592 20.5313 0.987625 18.9572C1.63966 17.383 2.59537 15.9527 3.80017 14.7479C5.00497 13.5431 6.43528 12.5874 8.00943 11.9354C9.58358 11.2833 11.2708 10.9477 12.9746 10.9478Z" fill="url(#paint5_radial_3434_12949)"/>
<path fill-rule="evenodd" clip-rule="evenodd" d="M17.664 7.75439L24.6316 11.7772L22.1824 15.299C21.8831 15.8174 20.2203 15.4178 18.4686 14.4064C16.7168 13.395 15.5394 12.1549 15.8387 11.6365L17.664 7.75439Z" fill="url(#paint6_radial_3434_12949)"/>
<path fill-rule="evenodd" clip-rule="evenodd" d="M21.7431 8.73461C23.6671 9.84541 24.9604 11.2076 24.6316 11.777C24.3029 12.3464 22.4766 11.9075 20.5525 10.7966C18.6285 9.6857 17.3352 8.32361 17.664 7.75421C17.9927 7.18481 19.819 7.62371 21.7431 8.73461Z" fill="url(#paint7_radial_3434_12949)"/>
<g style="mix-blend-mode:multiply" opacity="0.5">
<path fill-rule="evenodd" clip-rule="evenodd" d="M16.1327 12.5471L17.9876 8.75537C17.6864 8.37107 17.5531 8.03817 17.6382 7.80957L15.8387 11.6367L15.8152 11.6866C15.7378 11.8946 15.8589 12.1975 16.1327 12.5471Z" fill="#1181C7"/>
</g>
<path style="mix-blend-mode:screen" fill-rule="evenodd" clip-rule="evenodd" d="M18.6189 9.41797C17.9816 10.6621 17.3442 11.9061 16.7069 13.1501C17.0683 13.4723 17.4535 13.7667 17.8594 14.0307C18.5347 12.8157 19.21 11.6006 19.8853 10.3854C19.4393 10.0954 19.016 9.77199 18.6189 9.41797Z" fill="url(#paint8_radial_3434_12949)"/>
<path style="mix-blend-mode:screen" opacity="0.6" fill-rule="evenodd" clip-rule="evenodd" d="M22.7155 11.7827C21.956 12.9563 21.1965 14.13 20.4371 15.3037C21.3277 15.5903 22.0022 15.611 22.1824 15.2989L24.5971 11.8267C24.3575 12.1168 23.6434 12.0812 22.7155 11.7827Z" fill="url(#paint9_linear_3434_12949)"/>
<path d="M21.6786 10.0721C21.476 10.2645 20.7474 10.0416 20.5778 9.59103C20.4435 9.23392 20.9523 8.53762 21.2145 8.33102C21.3913 7.64891 21.6802 7.00092 22.0694 6.41353C21.9978 5.77552 22.0841 5.12969 22.3206 4.53283C22.0587 3.87263 21.9605 3.15882 22.0345 2.45242C21.9322 2.31627 21.8619 2.15875 21.829 1.99164C21.7961 1.82452 21.8014 1.65214 21.8445 1.48736C21.8876 1.32258 21.9674 1.16966 22.0779 1.04005C22.1884 0.910428 22.3267 0.807455 22.4826 0.738822C22.5992 0.693823 22.7244 0.675711 22.849 0.685836C22.9735 0.695961 23.0942 0.734065 23.202 0.797302C23.3097 0.860539 23.4019 0.947284 23.4715 1.05107C23.5411 1.15486 23.5863 1.27301 23.6039 1.39673C23.978 2.10551 24.1279 2.91122 24.0338 3.70712C24.1506 4.43901 24.0886 5.18828 23.8531 5.89102C23.7921 6.62508 23.5433 7.3311 23.1306 7.94122C22.8446 8.76795 22.3434 9.50351 21.6786 10.0721Z" fill="url(#paint10_radial_3434_12949)"/>
<g style="mix-blend-mode:multiply">
<path fill-rule="evenodd" clip-rule="evenodd" d="M23.3977 3.8423C24.2466 3.9587 23.7566 5.6676 22.7987 6.0351C24.195 6.0494 23.1451 7.7027 22.2678 7.9346C23.1128 8.4757 21.7959 10.1466 20.6465 9.7222C20.8912 10.0829 21.4967 10.2447 21.6786 10.072C22.3434 9.50338 22.8446 8.76783 23.1306 7.9411C23.5433 7.33098 23.7921 6.62495 23.8531 5.8909C24.0886 5.18816 24.1506 4.43888 24.0338 3.707C24.1279 2.91109 23.978 2.10539 23.6039 1.3966C23.5748 1.18165 23.4618 0.986932 23.2897 0.854977C23.1175 0.723021 22.9001 0.664544 22.685 0.692303C22.7852 0.701292 22.881 0.737675 22.9619 0.797474C23.0427 0.857273 23.1056 0.938182 23.1436 1.03133C23.1815 1.12448 23.1931 1.22627 23.1771 1.32557C23.161 1.42487 23.118 1.51785 23.0526 1.5943C23.8875 1.6287 23.9594 3.2249 23.3977 3.8423Z" fill="#CBBBA0"/>
</g>
<path style="mix-blend-mode:screen" fill-rule="evenodd" clip-rule="evenodd" d="M22.1715 1.06263C21.9241 1.34623 21.815 1.97633 22.0117 2.16443C22.036 2.18816 22.0673 2.2036 22.1009 2.20856C22.1345 2.21351 22.1688 2.20773 22.199 2.19203C22.5183 1.93478 22.762 1.5959 22.9042 1.21134C23.0181 0.662036 22.4417 0.752831 22.1715 1.06263ZM22.8815 1.98033C22.6525 2.17663 22.3293 2.46884 22.2927 2.51154C22.2094 2.60877 22.1541 2.72686 22.1329 2.85314C22.1071 3.19646 22.1307 3.54171 22.2029 3.87834C22.2598 4.19344 22.4315 4.37944 22.6578 4.21684C23.0852 3.96117 23.4088 3.56289 23.5714 3.09213C23.6313 2.81837 23.646 2.53664 23.6149 2.25813C23.5536 1.78023 23.2374 1.67533 22.8815 1.98033ZM23.1356 4.17533C22.9208 4.27655 22.7207 4.40626 22.5406 4.56094C22.2851 4.80344 22.0307 5.79943 22.199 5.98233C22.2297 6.00657 22.2661 6.02237 22.3048 6.02818C22.3435 6.03398 22.383 6.02959 22.4194 6.01544C22.715 5.93025 22.9819 5.76632 23.1915 5.54118C23.4011 5.31603 23.5455 5.03815 23.6094 4.73724C23.7363 4.28334 23.6887 3.88163 23.1356 4.17533ZM23.0034 6.15313C22.7991 6.18014 22.6023 6.24766 22.4244 6.35174C22.2466 6.45582 22.0913 6.59436 21.9677 6.75923C21.7647 7.07989 21.5931 7.41936 21.4553 7.77294C21.4113 7.86445 21.3851 7.96352 21.3782 8.06484C21.3794 8.15044 21.5044 8.13313 21.6522 8.08283C22.0001 7.95376 22.3346 7.79092 22.6508 7.59664C22.9997 7.35174 23.4695 6.75274 23.2679 6.30744C23.2418 6.26029 23.2034 6.22107 23.1569 6.19391C23.1103 6.16675 23.0573 6.15266 23.0034 6.15313ZM22.0117 8.19154C21.7242 8.2147 21.4493 8.31922 21.219 8.49289C20.9888 8.66656 20.8127 8.90219 20.7115 9.17224C20.6856 9.24104 20.663 9.34943 20.7226 9.39263C21.0496 9.62933 22.0695 8.99503 22.2872 8.57723C22.4068 8.34763 22.2683 8.16564 22.0117 8.19154Z" fill="url(#paint11_radial_3434_12949)"/>
<path style="mix-blend-mode:screen" opacity="0.35" fill-rule="evenodd" clip-rule="evenodd" d="M7.2892 15.4037C9.5255 13.9559 12.2357 14.1684 13.3426 15.8783C14.4496 17.5881 13.534 20.1478 11.2977 21.5956C9.06141 23.0433 6.35121 22.8309 5.24431 21.121C4.13742 19.4112 5.0529 16.8515 7.2892 15.4037Z" fill="url(#paint12_radial_3434_12949)"/>
<defs>
<radialGradient id="paint0_radial_3434_12949" cx="0" cy="0" r="1" gradientUnits="userSpaceOnUse" gradientTransform="translate(10.1227 16.4338) scale(20.4397 20.4397)">
<stop stop-color="#4D6187"/>
<stop offset="0.87732" stop-color="#0F2036"/>
</radialGradient>
<radialGradient id="paint1_radial_3434_12949" cx="0" cy="0" r="1" gradientUnits="userSpaceOnUse" gradientTransform="translate(13.1556 28.8257) scale(23.6535 23.6535)">
<stop offset="0.53532" stop-color="white"/>
<stop offset="0.58259" stop-color="#EDEDED"/>
<stop offset="0.67715" stop-color="#BFBFBF"/>
<stop offset="0.81032" stop-color="#757575"/>
<stop offset="0.97555" stop-color="#101010"/>
<stop offset="1"/>
</radialGradient>
<radialGradient id="paint2_radial_3434_12949" cx="0" cy="0" r="1" gradientUnits="userSpaceOnUse" gradientTransform="translate(6.61827 12.9701) scale(17.5307 17.5307)">
<stop stop-color="#312169"/>
<stop offset="1"/>
</radialGradient>
<radialGradient id="paint3_radial_3434_12949" cx="0" cy="0" r="1" gradientUnits="userSpaceOnUse" gradientTransform="translate(3.43895 11.8019) scale(21.881 21.881)">
<stop stop-color="#232C69"/>
<stop offset="1"/>
</radialGradient>
<radialGradient id="paint4_radial_3434_12949" cx="0" cy="0" r="1" gradientUnits="userSpaceOnUse" gradientTransform="translate(12.1897 15.5276) scale(20.1194 20.1194)">
<stop stop-color="#232C69"/>
<stop offset="1"/>
</radialGradient>
<radialGradient id="paint5_radial_3434_12949" cx="0" cy="0" r="1" gradientUnits="userSpaceOnUse" gradientTransform="translate(11.9311 22.7645) scale(15.134 15.134)">
<stop offset="0.83271"/>
<stop offset="0.85469" stop-color="#000812"/>
<stop offset="0.89862" stop-color="#001C40"/>
<stop offset="0.9598" stop-color="#003B89"/>
<stop offset="1" stop-color="#0052BD"/>
</radialGradient>
<radialGradient id="paint6_radial_3434_12949" cx="0" cy="0" r="1" gradientUnits="userSpaceOnUse" gradientTransform="translate(19.81 8.76006) scale(9.9937 9.99369)">
<stop stop-color="#4D6187"/>
<stop offset="0.86245" stop-color="#0F2036"/>
</radialGradient>
<radialGradient id="paint7_radial_3434_12949" cx="0" cy="0" r="1" gradientUnits="userSpaceOnUse" gradientTransform="translate(17.5153 10.4232) scale(10.9272 10.9272)">
<stop stop-color="#374969"/>
<stop offset="0.86245" stop-color="#141B24"/>
</radialGradient>
<radialGradient id="paint8_radial_3434_12949" cx="0" cy="0" r="1" gradientUnits="userSpaceOnUse" gradientTransform="translate(16.6886 8.04046) scale(8.23491 8.23493)">
<stop stop-color="#232C69"/>
<stop offset="1"/>
</radialGradient>
<linearGradient id="paint9_linear_3434_12949" x1="20.9924" y1="12.4924" x2="23.0892" y2="13.9677" gradientUnits="userSpaceOnUse">
<stop offset="0.17472"/>
<stop offset="0.28312" stop-color="#000812"/>
<stop offset="0.49985" stop-color="#001C40"/>
<stop offset="0.80167" stop-color="#003B89"/>
<stop offset="1" stop-color="#0052BD"/>
</linearGradient>
<radialGradient id="paint10_radial_3434_12949" cx="0" cy="0" r="1" gradientUnits="userSpaceOnUse" gradientTransform="translate(21.0013 1.1439) scale(10.0079 10.0079)">
<stop stop-color="#AD8550"/>
<stop offset="0.36821" stop-color="#96723E"/>
<stop offset="1" stop-color="#664918"/>
</radialGradient>
<radialGradient id="paint11_radial_3434_12949" cx="0" cy="0" r="1" gradientUnits="userSpaceOnUse" gradientTransform="translate(20.3 4.95866) scale(4.92545 4.92544)">
<stop offset="0.34573" stop-color="#B17F4A"/>
<stop offset="1"/>
</radialGradient>
<radialGradient id="paint12_radial_3434_12949" cx="0" cy="0" r="1" gradientUnits="userSpaceOnUse" gradientTransform="translate(3.87597 8.93305) rotate(12.0808) scale(15.3826 15.3826)">
<stop stop-color="#636BA3"/>
<stop offset="1"/>
</radialGradient>
</defs>
</svg>
