<svg width="51" height="50" viewBox="0 0 51 50" fill="none" xmlns="http://www.w3.org/2000/svg">
<g filter="url(#filter0_d_1561_1725)">
<path d="M3.6958 27.8224L6.95775 24.5561L11.4502 28.6673L11.4515 28.6676L11.4526 28.6683L11.4534 28.6695L11.4536 28.6708C12.9132 29.514 14.2748 30.5166 15.5136 31.6602C16.7626 32.7972 17.8838 34.0674 18.8571 35.4484L23.6508 39.8365L20.3888 43.1027C18.8429 44.7962 15.1093 44.0116 11.3048 41.4306C10.3415 40.7771 9.42774 40.0532 8.57108 39.2648C7.78171 38.5437 7.04027 37.7717 6.35152 36.9537C6.29835 36.8897 6.24514 36.8257 6.19189 36.7619C3.27389 33.1903 2.14639 29.5194 3.6958 27.8224Z" fill="#323F4F"/>
<path opacity="0.38" d="M3.69577 27.8223L6.95773 24.556L11.4501 28.6672L11.4515 28.6675L11.4526 28.6683L11.4534 28.6694L11.4536 28.6708C11.4536 31.1666 11.2019 33.453 11.2019 33.453C11.2019 33.453 7.37963 33.9571 6.35149 36.9536C6.29833 36.8896 6.24512 36.8257 6.19186 36.7618C3.27387 33.1902 2.14636 29.5193 3.69577 27.8223Z" fill="#131226"/>
<path d="M6.95889 24.5557C8.87548 22.4559 14.1667 24.1725 18.7757 28.3937C23.3885 32.6113 25.5685 37.7358 23.6519 39.8355C22.1071 41.527 18.3715 40.7427 14.5674 38.1623C13.6045 37.5092 12.6912 36.7857 11.8351 35.9975C10.983 35.2211 10.1881 34.3841 9.45657 33.4929C6.53666 29.9225 5.41042 26.2506 6.95889 24.5557Z" fill="#B4BECF"/>
<path d="M8.22854 24.9193C9.95754 23.025 14.7309 24.5736 18.8889 28.3817C23.0501 32.1863 25.0167 36.8094 23.2878 38.7036C21.8942 40.2293 18.5243 39.5219 15.0924 37.1941C14.2238 36.6049 13.3999 35.9522 12.6275 35.2411C11.8589 34.5407 11.1418 33.7857 10.4818 32.9819C7.84762 29.7608 6.8318 26.4484 8.22854 24.9193Z" fill="#707A87"/>
<path d="M10.4818 32.9822C10.4642 32.6984 10.4828 32.4135 10.5372 32.1344C11.0841 29.4024 15.7273 28.1731 15.7273 28.1731L18.661 33.5722C18.661 33.5722 16.8963 36.1249 15.0925 37.1943C14.2238 36.6052 13.3999 35.9524 12.6275 35.2414C11.859 34.541 11.1419 33.7859 10.4818 32.9822Z" fill="#323F4F"/>
<path d="M23.9152 37.8767L17.9005 32.6834L17.3442 33.2327L23.551 38.7036L23.9152 37.8767Z" fill="#B4BECF"/>
<path d="M14.1042 29.4602L8.6958 24.1628L7.60134 24.9784L13.7608 30.2031L14.1042 29.4602Z" fill="#B4BECF"/>
<path d="M16.0778 32.1957L15.1835 31.3669L10.8527 34.5958L12.7228 36.2363L16.0778 32.1957Z" fill="#B4BECF"/>
<path d="M13.035 21.6842C13.0543 21.6154 13.0804 21.5488 13.113 21.4852C14.3115 18.812 24.8067 5.71498 30.2422 2.54467C30.3593 2.47006 30.4727 2.40972 30.5827 2.34934C35.2168 -0.086137 40.8331 -0.60809 44.1447 0.691322C44.6123 0.867386 45.0556 1.10245 45.4638 1.39083C47.0806 2.55891 47.9705 5.69724 47.999 9.05941C48.0273 11.7967 47.4777 14.6864 46.2828 16.7706C43.62 21.4214 29.8345 32.0829 26.8986 33.6521C25.3987 34.4544 23.1651 34.5645 21.3426 34.4758C20.2988 34.4255 19.2591 34.3105 18.2295 34.1314C17.7499 33.9074 17.2897 33.6438 16.8538 33.3432C16.3246 32.9884 15.8263 32.5894 15.3645 32.1502C14.444 31.2348 13.683 30.1717 13.113 29.0048C13.113 29.0048 11.9395 24.4461 13.035 21.6842Z" fill="#7384A0"/>
<path d="M16.8538 33.3432C17.4499 33.2958 18.0414 33.202 18.623 33.0626C19.54 32.8404 20.4252 32.5028 21.2575 32.058C21.4064 31.9799 21.5623 31.8947 21.7114 31.806C26.0122 29.2781 39.117 16.2913 40.1098 14.9635C40.7516 14.1043 42.4358 9.33266 43.4108 5.26764C43.8118 3.77148 44.0577 2.23795 44.1447 0.691318C44.6123 0.867386 45.0556 1.10245 45.4638 1.39082C47.0806 2.55891 47.9705 5.69724 47.999 9.0594C48.0273 11.7967 47.4777 14.6864 46.2828 16.7706C43.62 21.4214 29.8345 32.0829 26.8986 33.6521C25.3987 34.4544 23.1651 34.5645 21.3426 34.4758C20.2988 34.4255 19.2591 34.3105 18.2295 34.1314C17.7499 33.9074 17.2897 33.6438 16.8538 33.3432Z" fill="#B4BECF"/>
<path d="M30.2422 2.54471C30.3593 2.4701 30.4727 2.40976 30.5827 2.34939C35.2168 -0.0860931 40.8331 -0.608046 44.1447 0.691364C44.6123 0.867431 45.0556 1.1025 45.4638 1.39087C47.0806 2.55896 47.9705 5.69728 47.999 9.05945C48.0273 11.7967 47.4777 14.6865 46.2828 16.7706C46.2828 16.7706 43.7831 17.051 40.1098 14.9635C38.7748 14.1992 37.5265 13.2921 36.3869 12.2582C35.031 11.0501 33.8422 9.66628 32.8519 8.1434C31.7186 6.412 30.8397 4.5265 30.2422 2.54471Z" fill="#323F4F"/>
<path d="M13.0336 21.6843C14.3686 24.5653 16.145 27.2197 18.2987 29.5514C19.1664 30.5184 20.1621 31.3619 21.2583 32.0585C24.3744 34.0146 26.8978 33.6527 26.8978 33.6527C23.9641 35.2242 18.2303 34.132 18.2303 34.132C17.7496 33.9087 17.2888 33.6447 16.8529 33.343C15.2321 32.2674 13.9379 30.7662 13.1117 29.0037C13.1117 29.0037 11.9396 24.4458 13.0336 21.6843Z" fill="#323F4F"/>
<path d="M40.9597 16.3609C40.0754 16.1229 39.3216 16.5674 39.7995 17.2501C40.2772 17.9328 41.4389 16.4899 40.9597 16.3609Z" fill="#7384A0"/>
<path d="M38.5709 18.5482C38.1429 18.0663 36.9327 18.8216 37.4105 19.5734C37.8882 20.3252 39.1168 19.1633 38.5709 18.5482Z" fill="#7384A0"/>
<path d="M35.9088 21.2133C35.2945 20.9399 34.0659 21.555 34.7484 22.3067C35.431 23.0585 35.9088 21.2133 35.9088 21.2133Z" fill="#7384A0"/>
<path d="M32.769 24.8356C31.6528 24.3547 30.5166 25.519 31.2674 26.2025C32.0182 26.8859 33.2449 25.0406 32.769 24.8356Z" fill="#7384A0"/>
<path d="M28.9467 28.0926C28.3324 27.3645 27.2403 28.3896 27.9228 28.868C28.6055 29.3465 29.561 28.8208 28.9467 28.0926Z" fill="#7384A0"/>
<path d="M25.8069 30.5767C25.4704 29.9589 23.8957 31.1235 24.51 31.7385C25.1243 32.3535 26.2163 31.3285 25.8069 30.5767Z" fill="#7384A0"/>
<path opacity="0.38" d="M13.035 21.684C13.0542 21.6152 13.0803 21.5486 13.113 21.4851C14.3115 18.8118 24.8067 5.71481 30.2422 2.5445C30.3592 2.46989 30.4726 2.40955 30.5826 2.34917C35.2168 -0.0863048 40.833 -0.608258 44.1447 0.691154C44.6123 0.867218 45.0555 1.10228 45.4637 1.39066C47.0806 2.55875 47.9704 5.69707 47.9989 9.05924C47.6514 8.15033 46.0522 6.13016 43.4108 5.26748C41.0813 4.50413 37.9397 4.64272 34.1247 7.23791C33.7097 7.5219 33.2855 7.82366 32.8518 8.14319C24.8386 14.058 14.5668 25.7596 16.0771 29.459C16.6227 30.8484 17.4962 32.0848 18.6229 33.0625C19.212 33.5868 19.8923 33.9984 20.6299 34.2768L21.3426 34.4756C20.2988 34.4254 19.2591 34.3103 18.2295 34.1312C17.7498 33.9073 17.2896 33.6436 16.8538 33.343C16.3245 32.9883 15.8263 32.5892 15.3645 32.15C14.444 31.2347 13.683 30.1715 13.1129 29.0046C13.1129 29.0046 11.9394 24.446 13.035 21.684Z" fill="#131226"/>
<path opacity="0.16" d="M24.6992 33.8018C36.1648 26.7534 44.0979 18.6605 45.0693 16.7236C46.0406 14.7868 46.9527 9.85548 46.284 8.82046C45.6151 7.78558 40.7401 12.8386 39.6511 13.8126C38.562 14.7868 20.9957 30.1095 20.2634 31.3671C19.5311 32.6247 20.2607 33.4568 21.4768 33.8018C22.6929 34.1468 24.3111 34.0404 24.6992 33.8018Z" fill="white"/>
</g>
<defs>
<filter id="filter0_d_1561_1725" x="0" y="0" width="51" height="50" filterUnits="userSpaceOnUse" color-interpolation-filters="sRGB">
<feFlood flood-opacity="0" result="BackgroundImageFix"/>
<feColorMatrix in="SourceAlpha" type="matrix" values="0 0 0 0 0 0 0 0 0 0 0 0 0 0 0 0 0 0 127 0" result="hardAlpha"/>
<feOffset dy="3"/>
<feGaussianBlur stdDeviation="1.5"/>
<feComposite in2="hardAlpha" operator="out"/>
<feColorMatrix type="matrix" values="0 0 0 0 0 0 0 0 0 0 0 0 0 0 0 0 0 0 0.3 0"/>
<feBlend mode="normal" in2="BackgroundImageFix" result="effect1_dropShadow_1561_1725"/>
<feBlend mode="normal" in="SourceGraphic" in2="effect1_dropShadow_1561_1725" result="shape"/>
</filter>
</defs>
</svg>
