<svg width="28" height="34" viewBox="0 0 28 34" fill="none" xmlns="http://www.w3.org/2000/svg">
<path fill-rule="evenodd" clip-rule="evenodd" d="M23.8529 8.18817C28.5026 11.7196 29.4013 19.1993 25.7375 25.5452C22.0736 31.8911 15.1467 34.8527 9.76351 32.5916C8.34114 31.9918 6.95965 31.2994 5.62793 30.5188L12.8089 18.0809L19.99 5.64307C21.3319 6.406 22.6223 7.25619 23.8529 8.18817Z" fill="url(#paint0_linear_3412_17866)"/>
<path style="mix-blend-mode:screen" fill-rule="evenodd" clip-rule="evenodd" d="M23.6999 9.87381C26.9158 12.3143 28.0045 17.7407 26.0979 22.4721C24.1912 27.2034 19.9654 29.5615 16.368 28.0683C15.4086 27.6678 14.4775 27.2027 13.5811 26.6762L17.318 17.403L21.055 8.12976C21.9737 8.6528 22.8572 9.2354 23.6999 9.87381Z" fill="url(#paint1_radial_3412_17866)"/>
<path style="mix-blend-mode:multiply" fill-rule="evenodd" clip-rule="evenodd" d="M24.1671 9.60969C28.1301 12.6279 29.0049 19.134 26.0282 24.71C23.2604 29.8947 18.0757 32.5655 13.6967 31.3861C12.3624 31.7904 10.9604 31.922 9.57414 31.773C8.1879 31.624 6.84584 31.1975 5.62793 30.5188C6.95965 31.2994 8.34114 31.9919 9.76351 32.5916C15.1467 34.8527 22.0736 31.8912 25.7375 25.5453C29.4014 19.1993 28.5026 11.7196 23.8529 8.1882C22.6279 7.26037 21.3435 6.41364 20.0079 5.65344C21.4446 6.49208 22.6444 7.6824 23.4943 9.11243C23.7193 9.27365 23.9425 9.43873 24.1671 9.60969Z" fill="url(#paint2_radial_3412_17866)"/>
<g style="mix-blend-mode:screen">
<path fill-rule="evenodd" clip-rule="evenodd" d="M20.7932 6.21907C26.0697 9.26545 27.2356 17.1242 23.3973 23.7723C19.5591 30.4204 12.1702 33.34 6.89363 30.2936C1.61713 27.2472 0.45122 19.3885 4.28957 12.7404C8.12779 6.09235 15.5167 3.17268 20.7932 6.21907Z" fill="#FCCE3A"/>
</g>
<path fill-rule="evenodd" clip-rule="evenodd" d="M19.9899 5.64308C25.5674 8.86323 26.8739 17.0424 22.9079 23.9117C18.942 30.7808 11.2054 33.7389 5.62784 30.5188C0.0503457 27.2985 -1.25624 19.1195 2.70984 12.2502C6.6757 5.38093 14.4123 2.42286 19.9899 5.64308Z" fill="url(#paint3_radial_3412_17866)"/>
<g style="mix-blend-mode:screen">
<path fill-rule="evenodd" clip-rule="evenodd" d="M14.2352 28.1268C14.1831 28.2997 14.086 28.4557 13.9539 28.5788C13.8217 28.7018 13.6592 28.7875 13.4829 28.827C13.3318 28.8719 13.1725 28.8826 13.0167 28.8583C12.8609 28.8339 12.7125 28.7752 12.5822 28.6863C10.9491 29.1009 9.22344 28.9468 7.68952 28.2496C3.26288 26.1846 1.82687 19.8959 4.48233 14.2033C5.75331 11.3328 8.02616 9.02344 10.876 7.70687C10.9048 7.5032 10.9958 7.31339 11.1365 7.16336C11.2772 7.01333 11.4608 6.91039 11.6622 6.86862C11.8443 6.81081 12.0389 6.80495 12.2242 6.8517C12.4095 6.89845 12.578 6.99595 12.7109 7.13326C13.2949 7.01539 13.8902 6.96311 14.4857 6.97741C14.5664 6.86655 14.6788 6.78275 14.8081 6.73704C14.9374 6.69134 15.0775 6.68588 15.21 6.72137C15.3227 6.7413 15.429 6.78772 15.5202 6.8568C15.6115 6.92589 15.685 7.01567 15.7347 7.11874C16.277 7.22792 16.8045 7.40117 17.3059 7.63485C21.7328 9.6999 23.1687 15.9886 20.5132 21.6812C19.2576 24.5106 17.0306 26.7971 14.2352 28.1268Z" fill="#FFFCE4"/>
</g>
<path fill-rule="evenodd" clip-rule="evenodd" d="M18.083 8.17652C22.254 10.5847 23.1248 16.8851 20.0281 22.2488C16.9312 27.6125 11.0396 30.0085 6.86858 27.6004C2.69756 25.1922 1.82657 18.8919 4.92342 13.5281C8.02016 8.16443 13.912 5.7684 18.083 8.17652Z" fill="url(#paint4_radial_3412_17866)"/>
<path style="mix-blend-mode:multiply" opacity="0.5" fill-rule="evenodd" clip-rule="evenodd" d="M7.19772 15.6524C10.1297 10.5741 15.7079 8.30558 19.657 10.5856C20.2147 10.9077 20.7217 11.3104 21.1617 11.7808C20.5656 10.2699 19.4821 9.00135 18.083 8.1764C13.912 5.76829 8.02021 8.16429 4.92343 13.528C1.82656 18.8917 2.69757 25.1921 6.86859 27.6003C7.16747 27.7729 7.47891 27.9228 7.8003 28.0486C4.95016 25.3338 4.6033 20.1459 7.19772 15.6524Z" fill="url(#paint5_radial_3412_17866)"/>
<path fill-rule="evenodd" clip-rule="evenodd" d="M6.29875 14.3221C9.13303 9.41296 14.3086 6.98993 18.3634 8.46074C18.4927 8.50758 18.6208 8.55845 18.7477 8.61337C18.6382 8.53193 18.5259 8.45359 18.4109 8.37837C18.304 8.30833 18.1947 8.24104 18.083 8.17653C13.912 5.76841 8.02021 8.16441 4.92343 13.5281C1.82656 18.8919 2.69757 25.1922 6.86859 27.6004C6.98029 27.6649 7.0932 27.7259 7.20732 27.7836C7.32999 27.8456 7.45395 27.9036 7.57919 27.9577C7.46822 27.8752 7.36015 27.7897 7.25498 27.7012C3.9537 24.9251 3.46447 19.2313 6.29875 14.3221Z" fill="url(#paint6_linear_3412_17866)"/>
<path style="mix-blend-mode:multiply" fill-rule="evenodd" clip-rule="evenodd" d="M15.4483 8.04566C16.438 7.98613 17.4296 8.12732 18.3634 8.46074C18.4927 8.50758 18.6208 8.55845 18.7477 8.61337C18.6382 8.53193 18.5259 8.45359 18.4109 8.37837C18.304 8.30833 18.1947 8.24104 18.083 8.17653C13.912 5.76841 8.02021 8.16441 4.92343 13.5281C1.82656 18.8919 2.69757 25.1922 6.86859 27.6004C6.98029 27.6649 7.0932 27.7259 7.20732 27.7836C7.32999 27.8456 7.45395 27.9036 7.57919 27.9577C7.46822 27.8752 7.36015 27.7897 7.25498 27.7012C6.74735 27.2728 6.30187 26.7757 5.9314 26.2243C2.8559 23.6431 2.34643 18.3248 4.91254 13.7284C7.35755 9.34924 11.7869 7.0722 15.4483 8.04566Z" fill="url(#paint7_radial_3412_17866)"/>
<path style="mix-blend-mode:screen" fill-rule="evenodd" clip-rule="evenodd" d="M19.0083 10.5093C11.6169 7.14829 4.71292 16.7812 5.72927 23.0001C9.81854 21.4734 16.6182 18.1235 19.0083 10.5093Z" fill="url(#paint8_radial_3412_17866)"/>
<path style="mix-blend-mode:screen" fill-rule="evenodd" clip-rule="evenodd" d="M17 7.5C17 8.98336 16.5601 10.4334 15.736 11.6668C14.9119 12.9001 13.7406 13.8614 12.3701 14.4291C10.9997 14.9968 9.49168 15.1453 8.03683 14.8559C6.58197 14.5665 5.2456 13.8522 4.1967 12.8033C3.14781 11.7544 2.4335 10.418 2.14411 8.96317C1.85472 7.50832 2.00325 6.00032 2.57091 4.62987C3.13856 3.25943 4.09986 2.08809 5.33323 1.26398C6.56659 0.439867 8.01664 6.80696e-10 9.5 6.807e-10C10.4849 -1.32685e-05 11.4602 0.19397 12.3701 0.570876C13.2801 0.947782 14.1069 1.50023 14.8033 2.19667C15.4998 2.89311 16.0522 3.71991 16.4291 4.62986C16.806 5.5398 17 6.51508 17 7.5Z" fill="url(#paint9_radial_3412_17866)"/>
<defs>
<linearGradient id="paint0_linear_3412_17866" x1="12.0922" y1="34.2509" x2="26.4542" y2="9.3752" gradientUnits="userSpaceOnUse">
<stop stop-color="#E86F0C"/>
<stop offset="0.68773" stop-color="#FC940D"/>
<stop offset="1" stop-color="#E86F0C"/>
</linearGradient>
<radialGradient id="paint1_radial_3412_17866" cx="0" cy="0" r="1" gradientUnits="userSpaceOnUse" gradientTransform="translate(17.3497 17.6435) scale(13.4868 13.4868)">
<stop stop-color="#FFF369"/>
<stop offset="0.11021" stop-color="#FAEF67"/>
<stop offset="0.23412" stop-color="#EDE262"/>
<stop offset="0.36472" stop-color="#D6CC58"/>
<stop offset="0.49992" stop-color="#B7AE4B"/>
<stop offset="0.63879" stop-color="#8E873B"/>
<stop offset="0.78066" stop-color="#5C5826"/>
<stop offset="0.92227" stop-color="#23210E"/>
<stop offset="1"/>
</radialGradient>
<radialGradient id="paint2_radial_3412_17866" cx="0" cy="0" r="1" gradientUnits="userSpaceOnUse" gradientTransform="translate(10.2774 16.7246) scale(19.5732 19.5732)">
<stop offset="0.51487" stop-color="white"/>
<stop offset="0.679" stop-color="#E6DDC3"/>
<stop offset="1" stop-color="#B09444"/>
</radialGradient>
<radialGradient id="paint3_radial_3412_17866" cx="0" cy="0" r="1" gradientUnits="userSpaceOnUse" gradientTransform="translate(7.66087 5.1329) scale(25.099 25.099)">
<stop stop-color="#FCF80D"/>
<stop offset="1" stop-color="#FC9C0D"/>
</radialGradient>
<radialGradient id="paint4_radial_3412_17866" cx="0" cy="0" r="1" gradientUnits="userSpaceOnUse" gradientTransform="translate(0.440667 2.64502) scale(30.6685 30.6685)">
<stop stop-color="#FCF80D"/>
<stop offset="1" stop-color="#F78A0C"/>
</radialGradient>
<radialGradient id="paint5_radial_3412_17866" cx="0" cy="0" r="1" gradientUnits="userSpaceOnUse" gradientTransform="translate(17.5413 20.2249) scale(17.7181 17.7182)">
<stop offset="0.51487" stop-color="white"/>
<stop offset="0.68506" stop-color="#FFE2C3"/>
<stop offset="1" stop-color="#FFA84B"/>
</radialGradient>
<linearGradient id="paint6_linear_3412_17866" x1="3.43629" y1="25.6188" x2="14.4809" y2="6.48887" gradientUnits="userSpaceOnUse">
<stop stop-color="#FC940D"/>
<stop offset="1" stop-color="#E86F0C"/>
</linearGradient>
<radialGradient id="paint7_radial_3412_17866" cx="0" cy="0" r="1" gradientUnits="userSpaceOnUse" gradientTransform="translate(17.8563 20.9736) scale(17.1765)">
<stop offset="0.51487" stop-color="white"/>
<stop offset="0.679" stop-color="#E6DDC3"/>
<stop offset="1" stop-color="#B09444"/>
</radialGradient>
<radialGradient id="paint8_radial_3412_17866" cx="0" cy="0" r="1" gradientUnits="userSpaceOnUse" gradientTransform="translate(-0.161148 2.99234) scale(22.84 22.84)">
<stop stop-color="#FFF369"/>
<stop offset="0.11021" stop-color="#FAEF67"/>
<stop offset="0.23412" stop-color="#EDE262"/>
<stop offset="0.36472" stop-color="#D6CC58"/>
<stop offset="0.49992" stop-color="#B7AE4B"/>
<stop offset="0.63879" stop-color="#8E873B"/>
<stop offset="0.78066" stop-color="#5C5826"/>
<stop offset="0.92227" stop-color="#23210E"/>
<stop offset="1"/>
</radialGradient>
<radialGradient id="paint9_radial_3412_17866" cx="0" cy="0" r="1" gradientUnits="userSpaceOnUse" gradientTransform="translate(9.49999 7.49993) scale(7.49996)">
<stop stop-color="#FFF200"/>
<stop offset="0.06692" stop-color="#E1D600"/>
<stop offset="0.21246" stop-color="#A69E00"/>
<stop offset="0.35781" stop-color="#746E00"/>
<stop offset="0.49949" stop-color="#4A4600"/>
<stop offset="0.63685" stop-color="#2A2800"/>
<stop offset="0.76857" stop-color="#131200"/>
<stop offset="0.89229" stop-color="#050500"/>
<stop offset="1"/>
</radialGradient>
</defs>
</svg>
