<svg width="16" height="16" viewBox="0 0 16 16" fill="none" xmlns="http://www.w3.org/2000/svg">
<path d="M16 0.941177V11.9216C16 12.1712 15.9008 12.4106 15.7243 12.5871C15.5478 12.7636 15.3084 12.8627 15.0588 12.8627C14.8092 12.8627 14.5698 12.7636 14.3933 12.5871C14.2168 12.4106 14.1176 12.1712 14.1176 11.9216V1.88235H4.07843C3.82882 1.88235 3.58942 1.78319 3.41292 1.60669C3.23641 1.43018 3.13725 1.19079 3.13725 0.941177C3.13725 0.691561 3.23641 0.452169 3.41292 0.275664C3.58942 0.0991594 3.82882 0 4.07843 0H15.0588C15.3084 0 15.5478 0.0991594 15.7243 0.275664C15.9008 0.452169 16 0.691561 16 0.941177ZM12.8627 4.07843V15.0588C12.8627 15.3084 12.7636 15.5478 12.5871 15.7243C12.4106 15.9008 12.1712 16 11.9216 16H0.941177C0.691561 16 0.452169 15.9008 0.275664 15.7243C0.0991594 15.5478 0 15.3084 0 15.0588V4.07843C0 3.82882 0.0991594 3.58942 0.275664 3.41292C0.452169 3.23641 0.691561 3.13725 0.941177 3.13725H11.9216C12.1712 3.13725 12.4106 3.23641 12.5871 3.41292C12.7636 3.58942 12.8627 3.82882 12.8627 4.07843ZM10.9804 5.01961H1.88235V14.1176H10.9804V5.01961Z" fill="#F8F8F8"/>
</svg>
