<svg width="31" height="31" viewBox="0 0 31 31" fill="none" xmlns="http://www.w3.org/2000/svg">
<g filter="url(#filter0_d_3434_13013)">
<path fill-rule="evenodd" clip-rule="evenodd" d="M20.5942 4.47825L27.1061 9.72048L28.19 13.3902L23.2116 13.3382L15.0863 9.59509L8.57436 4.35286L7.49043 0.683105L12.4689 0.735119L20.5942 4.47825Z" fill="url(#paint0_radial_3434_13013)"/>
<path fill-rule="evenodd" clip-rule="evenodd" d="M7.49043 0.683105L1.08253 2.92619L2.56214 7.93437L8.57436 4.35286L7.49043 0.683105Z" fill="url(#paint1_radial_3434_13013)"/>
<path fill-rule="evenodd" clip-rule="evenodd" d="M8.57437 4.35303L2.56215 7.93454L11.4491 15.0883L15.0863 9.59526L8.57437 4.35303Z" fill="url(#paint2_radial_3434_13013)"/>
<path fill-rule="evenodd" clip-rule="evenodd" d="M15.0863 9.59521L23.2116 13.3383L22.5372 20.1967L11.449 15.0882L15.0863 9.59521Z" fill="url(#paint3_radial_3434_13013)"/>
<path fill-rule="evenodd" clip-rule="evenodd" d="M28.19 13.3904L29.3324 20.2673L22.5372 20.1968L23.2116 13.3384L28.19 13.3904Z" fill="url(#paint4_radial_3434_13013)"/>
<path fill-rule="evenodd" clip-rule="evenodd" d="M2.56215 7.93457L6.44181 26.7793L11.4491 15.0883L2.56215 7.93457Z" fill="url(#paint5_radial_3434_13013)"/>
<path fill-rule="evenodd" clip-rule="evenodd" d="M11.449 15.0879L22.5372 20.1964L6.4418 26.7789L11.449 15.0879Z" fill="url(#paint6_radial_3434_13013)"/>
<path fill-rule="evenodd" clip-rule="evenodd" d="M29.3325 20.2674L6.4418 26.7793L22.5372 20.1968L29.3325 20.2674Z" fill="url(#paint7_radial_3434_13013)"/>
<path fill-rule="evenodd" clip-rule="evenodd" d="M1.08253 2.92627L6.4418 26.7792L2.56214 7.93444L1.08253 2.92627Z" fill="#85F2FF"/>
<path style="mix-blend-mode:screen" opacity="0.5" fill-rule="evenodd" clip-rule="evenodd" d="M14.3524 1.60254C16.5874 3.7716 20.9984 10.5378 22.1776 12.8622L23.2114 13.3384L25.4963 13.3622L25.8854 13.3662C23.3686 10.4373 21.1589 7.25784 19.2911 3.87786L14.3524 1.60254Z" fill="url(#paint8_radial_3434_13013)"/>
<g style="mix-blend-mode:screen" opacity="0.75">
<path fill-rule="evenodd" clip-rule="evenodd" d="M3.52162 12.5952C3.43933 9.22274 4.83868 10.233 6.30676 11.7432C10.9149 16.4828 9.38653 19.2214 7.38252 24.5827C8.73794 21.4179 10.0934 18.2531 11.4489 15.0883C8.48656 12.7038 5.52427 10.3192 2.56197 7.93457C2.88186 9.48811 3.20174 11.0416 3.52162 12.5952Z" fill="#9FDFFF"/>
</g>
<path style="mix-blend-mode:screen" opacity="0.5" fill-rule="evenodd" clip-rule="evenodd" d="M14.8922 16.6748C19.4381 18.7789 17.5407 21.2244 13.6975 23.1479L6.44191 26.7792L22.5375 20.197L14.8922 16.6748Z" fill="url(#paint9_radial_3434_13013)"/>
<g style="mix-blend-mode:screen">
<path fill-rule="evenodd" clip-rule="evenodd" d="M8.57429 4.35307L7.58462 1.00293C7.93868 2.70935 8.15715 3.31902 7.66172 4.05408C6.89438 5.0203 5.97329 5.85368 4.93536 6.52083L8.57429 4.35307Z" fill="#8FFCFF"/>
</g>
<path fill-rule="evenodd" clip-rule="evenodd" d="M15.0862 9.59498L8.57429 4.35303L4.93536 6.52079C6.75955 5.53894 7.85332 5.18126 8.54733 5.44253C9.6195 5.95779 10.6227 6.60572 11.5333 7.37112C13.0381 8.5013 13.6993 9.65015 13.7101 10.2665C13.7234 11.0271 13.001 12.5195 12.0302 14.2105L15.0862 9.59498Z" fill="white"/>
<g style="mix-blend-mode:screen" opacity="0.5">
<path fill-rule="evenodd" clip-rule="evenodd" d="M15.0862 9.59521L12.0302 14.2108C13.4389 12.1985 14.5413 11.2695 15.3128 11.0871C16.3524 10.8413 17.8688 11.1805 20.8224 12.2379L15.0862 9.59521Z" fill="#8FFCFF"/>
</g>
<path style="mix-blend-mode:screen" fill-rule="evenodd" clip-rule="evenodd" d="M11.0595 0.720167L7.49017 0.683105L8.22032 3.15487L8.57429 4.35314L15.0862 9.59509L18.2359 11.0462C16.273 9.30103 11.255 2.24993 11.0595 0.720167Z" fill="url(#paint10_radial_3434_13013)"/>
</g>
<defs>
<filter id="filter0_d_3434_13013" x="0.0825348" y="0.683105" width="30.2499" height="30.0962" filterUnits="userSpaceOnUse" color-interpolation-filters="sRGB">
<feFlood flood-opacity="0" result="BackgroundImageFix"/>
<feColorMatrix in="SourceAlpha" type="matrix" values="0 0 0 0 0 0 0 0 0 0 0 0 0 0 0 0 0 0 127 0" result="hardAlpha"/>
<feOffset dy="3"/>
<feGaussianBlur stdDeviation="0.5"/>
<feComposite in2="hardAlpha" operator="out"/>
<feColorMatrix type="matrix" values="0 0 0 0 0 0 0 0 0 0 0 0 0 0 0 0 0 0 0.3 0"/>
<feBlend mode="normal" in2="BackgroundImageFix" result="effect1_dropShadow_3434_13013"/>
<feBlend mode="normal" in="SourceGraphic" in2="effect1_dropShadow_3434_13013" result="shape"/>
</filter>
<radialGradient id="paint0_radial_3434_13013" cx="0" cy="0" r="1" gradientUnits="userSpaceOnUse" gradientTransform="translate(9.06562 4.61737) scale(25.9958)">
<stop stop-color="#C4EEFF"/>
<stop offset="0.329" stop-color="#4CCAFF"/>
<stop offset="1" stop-color="#003EB0"/>
</radialGradient>
<radialGradient id="paint1_radial_3434_13013" cx="0" cy="0" r="1" gradientUnits="userSpaceOnUse" gradientTransform="translate(0.369882 -0.50015) scale(9.88384)">
<stop stop-color="#A5E2FF"/>
<stop offset="1" stop-color="#218CF3"/>
</radialGradient>
<radialGradient id="paint2_radial_3434_13013" cx="0" cy="0" r="1" gradientUnits="userSpaceOnUse" gradientTransform="translate(8.69633 5.24993) scale(28.5812 28.5812)">
<stop stop-color="#A5E2FF"/>
<stop offset="1" stop-color="#0088FF"/>
</radialGradient>
<radialGradient id="paint3_radial_3434_13013" cx="0" cy="0" r="1" gradientUnits="userSpaceOnUse" gradientTransform="translate(13.3161 28.0518) scale(19.8641)">
<stop stop-color="#A5E2FF"/>
<stop offset="1" stop-color="#0069C2"/>
</radialGradient>
<radialGradient id="paint4_radial_3434_13013" cx="0" cy="0" r="1" gradientUnits="userSpaceOnUse" gradientTransform="translate(30.6053 9.19671) scale(14.4313 14.4313)">
<stop stop-color="#4CCAFF"/>
<stop offset="1" stop-color="#003EB0"/>
</radialGradient>
<radialGradient id="paint5_radial_3434_13013" cx="0" cy="0" r="1" gradientUnits="userSpaceOnUse" gradientTransform="translate(0.383288 19.1712) scale(12.6068)">
<stop stop-color="#A5E2FF"/>
<stop offset="1" stop-color="#218CF3"/>
</radialGradient>
<radialGradient id="paint6_radial_3434_13013" cx="0" cy="0" r="1" gradientUnits="userSpaceOnUse" gradientTransform="translate(9.9256 30.9746) scale(23.1736)">
<stop stop-color="#77D6FF"/>
<stop offset="1" stop-color="#001FB0"/>
</radialGradient>
<radialGradient id="paint7_radial_3434_13013" cx="0" cy="0" r="1" gradientUnits="userSpaceOnUse" gradientTransform="translate(6.8318 27.6466) scale(21.0244)">
<stop stop-color="#A5E2FF"/>
<stop offset="1" stop-color="#0081FF"/>
</radialGradient>
<radialGradient id="paint8_radial_3434_13013" cx="0" cy="0" r="1" gradientUnits="userSpaceOnUse" gradientTransform="translate(23.6994 13.948) scale(12.2684)">
<stop stop-color="#00000D"/>
<stop offset="1" stop-color="white"/>
</radialGradient>
<radialGradient id="paint9_radial_3434_13013" cx="0" cy="0" r="1" gradientUnits="userSpaceOnUse" gradientTransform="translate(11.2949 15.5655) scale(13.1899 13.1899)">
<stop offset="0.31227" stop-color="#00000D"/>
<stop offset="1" stop-color="#1CB4FF"/>
</radialGradient>
<radialGradient id="paint10_radial_3434_13013" cx="0" cy="0" r="1" gradientUnits="userSpaceOnUse" gradientTransform="translate(23.2083 -4.48061) scale(21.4103 21.4103)">
<stop offset="0.56877" stop-color="#00000D"/>
<stop offset="0.5969" stop-color="#030613"/>
<stop offset="0.6343" stop-color="#0D1524"/>
<stop offset="0.67693" stop-color="#1C2F3F"/>
<stop offset="0.72346" stop-color="#315466"/>
<stop offset="0.77314" stop-color="#4C8298"/>
<stop offset="0.82464" stop-color="#6DBAD3"/>
<stop offset="0.85874" stop-color="#85E3FF"/>
</radialGradient>
</defs>
</svg>
