<svg width="48" height="43" viewBox="0 0 48 43" fill="none" xmlns="http://www.w3.org/2000/svg">
    <g filter="url(#filter0_d_0_4)">
        <path d="M42.6623 5.06202C41.3589 3.1785 38.421 1.34086 36.1333 0.977991L30.3286 0.0576777C28.0411 -0.304926 25.3535 1.08045 24.3565 3.13665L21.8572 8.29185C20.8603 10.3479 20.7108 13.7752 21.5253 15.9076L23.5456 21.1989C24.3597 23.3322 26.9166 24.938 29.2277 24.7689L35.0867 24.3402C37.3977 24.1712 40.4841 22.5863 41.9457 20.8184L45.6133 16.3826C47.0747 14.6147 47.2046 11.6278 45.901 9.74411L42.6623 5.06202Z" fill="url(#paint0_radial_0_4)"/>
        <path d="M22.1164 15.9326C21.3023 13.8002 21.4518 10.3726 22.4487 8.3168L24.3762 4.34075C25.3733 2.28467 27.06 2.25733 28.1244 4.28072L30.5126 8.82031C31.5773 10.8437 31.4373 14.0756 30.2016 16.0024L27.397 20.3748C26.1614 22.3015 24.4841 22.1338 23.67 20.0006L22.1164 15.9326Z" fill="url(#paint1_radial_0_4)"/>
        <path d="M29.085 3.77469C28.0206 1.75133 29.0215 0.392676 31.3091 0.755402L35.8149 1.46984C38.1028 1.83281 41.0405 3.67056 42.3436 5.55409L44.8402 9.16309C46.1435 11.0466 45.3155 12.5071 43.0003 12.4092L37.6235 12.1815C35.3085 12.0836 32.5433 10.3479 31.4791 8.32487L29.085 3.77469Z" fill="url(#paint2_radial_0_4)"/>
        <path d="M31.1213 16.5774C32.3568 14.6506 35.262 13.154 37.577 13.2521L42.9546 13.4799C45.2697 13.5777 45.9682 15.1041 44.5067 16.8719L41.6709 20.3021C40.2092 22.0697 37.123 23.6543 34.8119 23.8234L30.2649 24.1562C27.9541 24.3253 27.0742 22.8873 28.31 20.9605L31.1213 16.5774Z" fill="url(#paint3_radial_0_4)"/>
        <path d="M40.9009 8.784C40.492 8.19191 40.6714 7.72577 41.2696 7.72024C41.8483 7.71617 42.6367 8.1471 43.0624 8.70191C43.5041 9.27891 43.4088 9.79539 42.8155 9.83792C42.2004 9.88107 41.3276 9.39946 40.9009 8.784Z" fill="url(#paint4_linear_0_4)"/>
        <path d="M41.0005 8.41411C40.9165 8.29474 40.9515 8.19672 41.0771 8.19385C41.1516 8.19955 41.2239 8.22106 41.2891 8.25689C41.3543 8.29272 41.4108 8.34202 41.4548 8.4014C41.5402 8.52015 41.509 8.62033 41.3836 8.62465C41.3079 8.61946 41.2343 8.5979 41.1681 8.5615C41.1019 8.5251 41.0446 8.47477 41.0005 8.41411Z" fill="white"/>
        <path d="M34.8699 9.01131C34.5333 8.31734 34.9423 7.77343 35.742 7.76611C36.1507 7.77919 36.55 7.88924 36.906 8.08686C37.262 8.28449 37.5641 8.56384 37.7866 8.90107C38.1802 9.57476 37.8816 10.1865 37.074 10.2445C36.6274 10.2545 36.1865 10.145 35.7983 9.92785C35.41 9.71064 35.0892 9.39385 34.8699 9.01131Z" fill="url(#paint5_linear_0_4)"/>
        <path d="M35.1368 8.57585C35.0669 8.43638 35.1488 8.32158 35.3182 8.31787C35.4051 8.31857 35.4905 8.34107 35.5661 8.38324C35.6418 8.42541 35.7052 8.48585 35.7505 8.55885C35.823 8.69748 35.7459 8.81506 35.576 8.8208C35.4875 8.82105 35.4004 8.79858 35.3233 8.75563C35.2463 8.71267 35.182 8.6507 35.1368 8.57585Z" fill="white"/>
        <path d="M38.7347 5.65122C38.4063 5.17595 38.6223 4.836 39.1921 4.87399C39.8214 4.95298 40.3962 5.2653 40.799 5.74708C41.1568 6.21455 41.0077 6.59429 40.4386 6.5816C40.1046 6.5508 39.7807 6.45222 39.4874 6.29208C39.1941 6.13193 38.9378 5.91372 38.7347 5.65122Z" fill="url(#paint6_linear_0_4)"/>
        <path d="M38.8658 5.38063C38.7981 5.2844 38.8414 5.21274 38.9606 5.21971C39.0936 5.23461 39.2151 5.30082 39.2984 5.40377C39.3672 5.49926 39.3271 5.57262 39.2075 5.56673C39.1407 5.55982 39.0761 5.53978 39.0174 5.50781C38.9587 5.47584 38.9071 5.43259 38.8658 5.38063Z" fill="white"/>
        <path d="M33.1095 5.39025C32.8479 4.85196 33.2607 4.4734 33.9992 4.5229C34.7136 4.57167 35.5077 5.00726 35.8055 5.51547C36.1143 6.04404 35.7873 6.47376 35.0386 6.45699C34.2626 6.43854 33.3826 5.95117 33.1095 5.39025Z" fill="url(#paint7_linear_0_4)"/>
        <path d="M33.3835 5.08581C33.3293 4.97714 33.4127 4.89755 33.5684 4.90644C33.6439 4.91027 33.7176 4.93118 33.7836 4.96755C33.8497 5.00392 33.9063 5.05477 33.9491 5.11615C34.0055 5.22435 33.926 5.30632 33.7694 5.29864C33.6926 5.29533 33.6177 5.27434 33.5507 5.23738C33.4837 5.20041 33.4264 5.1485 33.3835 5.08581Z" fill="white"/>
        <path d="M36.9791 3.11324C36.7096 2.72318 36.9467 2.47249 37.4879 2.53899C38.0522 2.62463 38.5677 2.90311 38.9437 3.32546C39.2393 3.71167 39.0572 3.99436 38.5145 3.94548C37.9131 3.87167 37.3635 3.57376 36.9791 3.11324Z" fill="url(#paint8_linear_0_4)"/>
        <path d="M37.1286 2.91205C37.0732 2.8332 37.1208 2.78034 37.2342 2.79352C37.353 2.81007 37.4615 2.86881 37.5393 2.95866C37.5961 3.03751 37.5509 3.09168 37.4371 3.07921C37.3167 3.06307 37.2068 3.00349 37.1286 2.91205Z" fill="white"/>
        <path d="M31.7265 2.54636C31.5179 2.11605 31.9238 1.85026 32.6083 1.93449C33.2721 2.01707 33.9847 2.40495 34.2259 2.81597C34.4746 3.24212 34.1367 3.54876 33.4421 3.48609C32.7249 3.42103 31.9439 2.99239 31.7265 2.54636Z" fill="url(#paint9_linear_0_4)"/>
        <path d="M31.9992 2.32993C31.9557 2.2433 32.0377 2.18685 32.1819 2.20364C32.2487 2.20943 32.3135 2.22895 32.372 2.26095C32.4306 2.29295 32.4817 2.3367 32.5219 2.38937C32.5671 2.47615 32.4881 2.53402 32.3435 2.51831C32.2757 2.51303 32.2099 2.49348 32.1505 2.46097C32.0911 2.42847 32.0395 2.38377 31.9992 2.32993Z" fill="white"/>
        <path d="M24.6492 16.2766C25.0125 15.8251 25.5174 15.9395 25.7768 16.5593C26.0432 17.198 25.9377 18.0992 25.5438 18.5454C25.1593 18.9787 24.6605 18.7976 24.4246 18.1663C24.1964 17.552 24.2961 16.7173 24.6492 16.2766Z" fill="url(#paint10_linear_0_4)"/>
        <path d="M25.0016 16.3391C25.0774 16.2463 25.1801 16.2714 25.231 16.3969C25.256 16.4618 25.2648 16.5317 25.2567 16.6008C25.2486 16.6698 25.2237 16.7359 25.1843 16.7935C25.1075 16.8862 25.0053 16.858 24.9551 16.7325C24.931 16.6679 24.9226 16.5987 24.9307 16.5303C24.9388 16.462 24.9631 16.3965 25.0016 16.3391Z" fill="white"/>
        <path d="M22.6011 11.0818C22.8971 10.6269 23.2974 10.6263 23.4955 11.1001C23.5905 11.3847 23.621 11.6862 23.5851 11.9836C23.5491 12.281 23.4475 12.5671 23.2873 12.8219C22.9769 13.2668 22.5812 13.217 22.3996 12.7308C22.317 12.457 22.2923 12.1694 22.327 11.8858C22.3616 11.6023 22.4549 11.3286 22.6011 11.0818Z" fill="url(#paint11_linear_0_4)"/>
        <path d="M22.8819 11.0661C22.9436 10.9723 23.0251 10.9734 23.0644 11.0696C23.0825 11.1268 23.0882 11.187 23.081 11.2465C23.0738 11.3059 23.0539 11.3632 23.0226 11.4146C22.96 11.5079 22.8786 11.5048 22.8405 11.4084C22.8227 11.3516 22.8172 11.2919 22.8243 11.2329C22.8315 11.174 22.8511 11.1172 22.8819 11.0661Z" fill="white"/>
        <path d="M25.26 11.136C25.6286 10.6224 26.1438 10.6216 26.4107 11.1598C26.5401 11.4797 26.5868 11.8261 26.5467 12.1681C26.5066 12.51 26.3809 12.8369 26.1807 13.1193C25.7909 13.6204 25.2812 13.5565 25.0386 13.0018C24.9273 12.695 24.8893 12.3671 24.9277 12.0435C24.9661 11.7199 25.0798 11.4094 25.26 11.136Z" fill="url(#paint12_linear_0_4)"/>
        <path d="M25.6197 11.1196C25.6966 11.0133 25.8013 11.0149 25.8538 11.1241C25.8785 11.1883 25.8872 11.2574 25.8791 11.3255C25.871 11.3936 25.8464 11.4589 25.8074 11.5158C25.7296 11.6215 25.6249 11.6171 25.5735 11.5075C25.5494 11.4438 25.5411 11.3755 25.5491 11.3081C25.5571 11.2407 25.5813 11.1761 25.6197 11.1196Z" fill="white"/>
        <path d="M25.863 6.06171C26.2367 5.48734 26.7617 5.37398 27.0356 5.83318C27.3167 6.30639 27.2141 7.18322 26.8087 7.76596C26.4131 8.33336 25.8939 8.38345 25.6443 7.90342C25.402 7.43595 25.4988 6.62251 25.863 6.06171Z" fill="url(#paint13_linear_0_4)"/>
        <path d="M26.2293 5.96685C26.3072 5.84809 26.414 5.82652 26.4679 5.92022C26.4927 5.98349 26.5015 6.05175 26.4936 6.11911C26.4856 6.18647 26.4611 6.25092 26.4222 6.30692C26.3432 6.42497 26.2369 6.44413 26.1842 6.34994C26.1601 6.28718 26.1516 6.21966 26.1594 6.15301C26.1673 6.08636 26.1913 6.02253 26.2293 5.96685Z" fill="white"/>
        <path d="M28.7187 11.2075C29.1944 10.6165 29.881 10.615 30.2527 11.2392C30.4357 11.6023 30.5088 12.0093 30.4635 12.4119C30.4182 12.8146 30.2564 13.1961 29.9972 13.511C29.4884 14.0855 28.8089 14.0002 28.4732 13.3545C28.3187 13.007 28.2601 12.6256 28.3032 12.2487C28.3463 11.8718 28.4896 11.5127 28.7187 11.2075Z" fill="url(#paint14_linear_0_4)"/>
        <path d="M29.1948 11.1891C29.2946 11.0671 29.4341 11.0693 29.5067 11.1951C29.5415 11.2678 29.5551 11.3486 29.5461 11.4285C29.5371 11.5083 29.5057 11.5842 29.4555 11.6477C29.4398 11.6753 29.4167 11.6982 29.3886 11.7138C29.3605 11.7293 29.3286 11.7369 29.2963 11.7357C29.2641 11.7346 29.2329 11.7247 29.206 11.7072C29.1792 11.6896 29.1578 11.6651 29.1442 11.6364C29.1107 11.5643 29.0977 11.4846 29.1066 11.4059C29.1155 11.3271 29.146 11.2522 29.1948 11.1891Z" fill="white"/>
        <path d="M31.3057 20.9087C31.5289 20.5442 31.8512 20.2484 32.2364 20.0544C32.6215 19.8604 33.0541 19.7761 33.4854 19.8109C34.2646 19.9204 34.5521 20.5662 34.1512 21.247C33.9284 21.5905 33.6172 21.8701 33.2491 22.0574C32.881 22.2447 32.4691 22.333 32.0551 22.3133C31.264 22.2344 30.9188 21.6102 31.3057 20.9087Z" fill="url(#paint15_linear_0_4)"/>
        <path d="M31.9976 20.5364C32.0438 20.4618 32.11 20.4012 32.1891 20.3615C32.2681 20.3217 32.3569 20.3042 32.4454 20.311C32.4806 20.3118 32.5148 20.3221 32.5444 20.3407C32.574 20.3593 32.5978 20.3856 32.6132 20.4167C32.6286 20.4477 32.635 20.4823 32.6318 20.5167C32.6285 20.5511 32.6156 20.584 32.5947 20.6117C32.5485 20.6854 32.4827 20.7452 32.4043 20.7847C32.326 20.8243 32.2381 20.8419 32.1503 20.8358C32.1151 20.8354 32.0807 20.8255 32.0509 20.8071C32.021 20.7888 31.9969 20.7628 31.9811 20.7318C31.9654 20.7009 31.9586 20.6663 31.9615 20.6319C31.9644 20.5974 31.9769 20.5644 31.9976 20.5364Z" fill="white"/>
        <path d="M40.2751 16.391C40.7367 15.6571 41.6722 15.1872 42.3449 15.3487C43.0015 15.5076 43.1425 16.2075 42.6814 16.9072C42.2267 17.595 41.3433 18.0458 40.6869 17.9219C40.0156 17.794 39.8222 17.1132 40.2751 16.391Z" fill="url(#paint16_linear_0_4)"/>
        <path d="M40.9359 16.0353C40.9787 15.9635 41.0415 15.9052 41.1169 15.8673C41.1923 15.8294 41.2771 15.8134 41.3614 15.8213C41.5 15.8528 41.5346 15.9991 41.4397 16.1476C41.3969 16.2185 41.3346 16.2761 41.26 16.3138C41.1853 16.3515 41.1014 16.3677 41.0179 16.3605C40.8786 16.3301 40.8416 16.1845 40.9359 16.0353Z" fill="white"/>
    </g>
    <g filter="url(#filter1_d_0_4)">
        <path d="M15.6587 13.1277C13.3844 12.6898 9.98102 13.4147 8.09522 14.7384L3.31054 18.0974C1.42458 19.4213 0.505774 22.264 1.26844 24.4151L3.18059 29.8076C3.943 31.9585 6.28925 34.4978 8.39415 35.4509L13.6164 37.8151C15.7214 38.7685 18.6884 38.1424 20.2099 36.4243L24.0681 32.0688C25.5897 30.3506 26.6498 27.0906 26.4237 24.8232L25.8567 19.1342C25.6306 16.8673 23.5852 14.6544 21.3111 14.2165L15.6587 13.1277Z" fill="url(#paint17_radial_0_4)"/>
        <path d="M8.83243 35.0597C6.72729 34.1067 4.38139 31.5669 3.61885 29.4165L2.144 25.2571C1.38158 23.1064 2.56067 21.9211 4.76516 22.6231L9.71152 24.1992C11.9161 24.9012 14.1289 27.2954 14.6293 29.5195L15.7647 34.5664C16.2647 36.7903 14.9521 37.8308 12.8474 36.8771L8.83243 35.0597Z" fill="url(#paint18_radial_0_4)"/>
        <path d="M5.0862 21.5992C2.88196 20.897 2.62118 19.2393 4.50712 17.9157L8.22108 15.3082C10.1068 13.9844 13.5101 13.2597 15.7843 13.6976L20.1412 14.5367C22.4156 14.9747 22.8721 16.5855 21.1564 18.1161L17.1714 21.6721C15.4555 23.2029 12.2481 23.8809 10.0439 23.1786L5.0862 21.5992Z" fill="url(#paint19_radial_0_4)"/>
        <path d="M15.694 29.2923C15.1938 27.0682 16.1881 23.9961 17.9038 22.4654L21.8893 18.909C23.6052 17.3781 25.1938 17.9805 25.4199 20.2472L25.8586 24.6463C26.0845 26.9132 25.0245 30.1736 23.5029 31.8913L20.5086 35.2717C18.987 36.9897 17.3326 36.5754 16.8322 34.3516L15.694 29.2923Z" fill="url(#paint20_radial_0_4)"/>
        <path d="M5.50641 19.7346C4.89332 19.5046 4.97269 18.9477 5.54494 18.5084C6.10887 18.1003 6.80421 17.9071 7.50205 17.9645C8.20255 18.0569 8.48977 18.5268 7.99847 19.0643C7.43184 19.6829 6.22604 20.0031 5.50641 19.7346Z" fill="url(#paint21_linear_0_4)"/>
        <path d="M5.4918 19.2836C5.36891 19.2441 5.37585 19.128 5.50131 19.0259C5.56201 18.9763 5.6327 18.9399 5.70875 18.9191C5.78479 18.8983 5.86445 18.8935 5.9425 18.9051C6.06963 18.9382 6.07842 19.0506 5.95566 19.1571C5.89322 19.2115 5.81898 19.2511 5.7386 19.273C5.65821 19.295 5.57381 19.2985 5.4918 19.2836Z" fill="white"/>
        <path d="M11.5833 18.3999C10.9703 18.1697 11.0498 17.613 11.6218 17.1735C12.1859 16.7655 12.8813 16.5723 13.5792 16.6295C14.2793 16.722 14.5668 17.192 14.0756 17.7297C13.5089 18.348 12.3032 18.6682 11.5833 18.3999Z" fill="url(#paint22_linear_0_4)"/>
        <path d="M11.5688 17.9488C11.4462 17.9092 11.4532 17.7931 11.5785 17.6906C11.6393 17.6413 11.71 17.605 11.7859 17.5842C11.8619 17.5634 11.9415 17.5586 12.0195 17.57C12.1468 17.6034 12.1558 17.7153 12.0325 17.8226C11.9699 17.8767 11.8957 17.9162 11.8154 17.9381C11.7351 17.96 11.6508 17.9636 11.5688 17.9488Z" fill="white"/>
        <path d="M17.7103 17.1404C17.0972 16.9103 17.1765 16.3532 17.7489 15.9142C18.3127 15.506 19.0081 15.3127 19.7059 15.3703C20.4061 15.4626 20.6936 15.9324 20.2023 16.4701C19.6357 17.0886 18.4298 17.4087 17.7103 17.1404Z" fill="url(#paint23_linear_0_4)"/>
        <path d="M17.6958 16.6892C17.5725 16.6498 17.5797 16.5337 17.7051 16.4316C17.7658 16.3819 17.8365 16.3454 17.9125 16.3245C17.9886 16.3036 18.0683 16.2988 18.1464 16.3103C18.2737 16.3436 18.2822 16.4559 18.1592 16.563C18.0967 16.6172 18.0226 16.6567 17.9423 16.6786C17.862 16.7004 17.7777 16.7041 17.6958 16.6892Z" fill="white"/>
        <path d="M7.15268 29.413C6.98555 28.6483 7.37287 28.1155 8.10163 28.3066C8.91987 28.5226 9.71327 29.5084 9.77167 30.3896C9.82285 31.1824 9.23673 31.4793 8.53368 31.1546C8.19238 30.9754 7.89313 30.7277 7.65525 30.4278C7.41737 30.1278 7.24616 29.782 7.15268 29.413Z" fill="url(#paint24_linear_0_4)"/>
        <path d="M7.40176 29.0775C7.36921 28.9142 7.45137 28.8144 7.58901 28.8578C7.66871 28.8929 7.73851 28.9465 7.79238 29.0141C7.84625 29.0817 7.88256 29.1611 7.89818 29.2456C7.92634 29.4105 7.83636 29.5012 7.69969 29.4523C7.62411 29.4165 7.55792 29.364 7.50626 29.299C7.45459 29.234 7.41884 29.1582 7.40176 29.0775Z" fill="white"/>
        <path d="M18.8422 32.6267C18.6159 31.9809 18.9109 30.9826 19.4978 30.4113C20.0781 29.8475 20.7115 29.9264 20.918 30.5722C21.1204 31.2093 20.8341 32.1699 20.2749 32.7332C19.7078 33.3028 19.0659 33.262 18.8422 32.6267Z" fill="url(#paint25_linear_0_4)"/>
        <path d="M19.0331 31.9158C19.015 31.835 19.0179 31.751 19.0413 31.6715C19.0648 31.592 19.1082 31.5196 19.1674 31.4608C19.2876 31.3437 19.421 31.3568 19.4664 31.4897C19.484 31.5701 19.481 31.6535 19.4576 31.7324C19.4341 31.8114 19.391 31.8833 19.3321 31.9417C19.2125 32.0595 19.0792 32.0482 19.0331 31.9158Z" fill="white"/>
        <path d="M23.0946 28.4184C22.9099 27.7716 23.1958 26.8148 23.7303 26.2942C24.2591 25.7805 24.8194 25.8987 24.988 26.5446C25.0528 26.9142 25.0303 27.2935 24.9222 27.6531C24.8141 28.0128 24.6233 28.3432 24.3646 28.6188C23.8468 29.139 23.2777 29.0555 23.0946 28.4184Z" fill="url(#paint26_linear_0_4)"/>
        <path d="M23.2812 27.7357C23.2664 27.6582 23.2704 27.5783 23.2931 27.5026C23.3158 27.4268 23.3564 27.3575 23.4117 27.3003C23.5208 27.193 23.6394 27.2145 23.6761 27.3475C23.6906 27.4247 23.6863 27.5043 23.6637 27.5796C23.6411 27.655 23.6008 27.7241 23.546 27.7813C23.4373 27.8884 23.3187 27.8683 23.2812 27.7357Z" fill="white"/>
        <path d="M21.6154 23.256C21.5267 22.8541 21.5414 22.4368 21.6583 22.042C21.7752 21.6472 21.9905 21.2873 22.2848 20.995C22.8531 20.4848 23.4618 20.669 23.6497 21.3908C23.728 21.783 23.7093 22.1879 23.5952 22.5715C23.4811 22.9552 23.2748 23.3062 22.9938 23.5951C22.4381 24.1136 21.8204 23.9692 21.6154 23.256Z" fill="url(#paint27_linear_0_4)"/>
        <path d="M21.8113 22.5278C21.7934 22.4453 21.7967 22.3598 21.8207 22.2789C21.8447 22.198 21.8887 22.1242 21.9488 22.064C21.968 22.0388 21.9946 22.0197 22.0249 22.0095C22.0553 21.9992 22.0881 21.9982 22.1191 22.0066C22.1501 22.0149 22.1778 22.0322 22.1986 22.0563C22.2195 22.0803 22.2324 22.1099 22.2359 22.1413C22.2533 22.2234 22.25 22.3084 22.2261 22.3888C22.2022 22.4693 22.1585 22.5428 22.0989 22.6027C22.0799 22.6281 22.0535 22.6473 22.0232 22.6578C21.9929 22.6683 21.9601 22.6696 21.9291 22.6616C21.8981 22.6535 21.8702 22.6364 21.8492 22.6125C21.8282 22.5887 21.815 22.5591 21.8113 22.5278Z" fill="white"/>
        <path d="M17.0282 27.4612C16.7732 26.7337 17.0843 25.6681 17.7191 25.0967C18.3468 24.5338 19.0382 24.6797 19.2704 25.4059C19.4978 26.1208 19.1965 27.1436 18.5931 27.7083C17.9813 28.2791 17.28 28.1765 17.0282 27.4612Z" fill="url(#paint28_linear_0_4)"/>
        <path d="M17.2284 26.7014C17.2068 26.6154 17.2085 26.5254 17.2334 26.4403C17.2583 26.3551 17.3054 26.2779 17.3702 26.2163C17.5002 26.0989 17.6459 26.1256 17.6968 26.2751C17.718 26.3606 17.7162 26.45 17.6914 26.5346C17.6667 26.6192 17.6198 26.6959 17.5556 26.7573C17.4264 26.8751 17.2805 26.8501 17.2284 26.7014Z" fill="white"/>
    </g>
    <defs>
        <filter id="filter0_d_0_4" x="20" y="0" width="27.7999" height="28.7812" filterUnits="userSpaceOnUse" color-interpolation-filters="sRGB">
            <feFlood flood-opacity="0" result="BackgroundImageFix"/>
            <feColorMatrix in="SourceAlpha" type="matrix" values="0 0 0 0 0 0 0 0 0 0 0 0 0 0 0 0 0 0 127 0" result="hardAlpha"/>
            <feOffset dy="3"/>
            <feGaussianBlur stdDeviation="0.5"/>
            <feComposite in2="hardAlpha" operator="out"/>
            <feColorMatrix type="matrix" values="0 0 0 0 0 0 0 0 0 0 0 0 0 0 0 0 0 0 0.3 0"/>
            <feBlend mode="normal" in2="BackgroundImageFix" result="effect1_dropShadow_0_4"/>
            <feBlend mode="normal" in="SourceGraphic" in2="effect1_dropShadow_0_4" result="shape"/>
        </filter>
        <filter id="filter1_d_0_4" x="0" y="13" width="27.4541" height="29.2612" filterUnits="userSpaceOnUse" color-interpolation-filters="sRGB">
            <feFlood flood-opacity="0" result="BackgroundImageFix"/>
            <feColorMatrix in="SourceAlpha" type="matrix" values="0 0 0 0 0 0 0 0 0 0 0 0 0 0 0 0 0 0 127 0" result="hardAlpha"/>
            <feOffset dy="3"/>
            <feGaussianBlur stdDeviation="0.5"/>
            <feComposite in2="hardAlpha" operator="out"/>
            <feColorMatrix type="matrix" values="0 0 0 0 0 0 0 0 0 0 0 0 0 0 0 0 0 0 0.3 0"/>
            <feBlend mode="normal" in2="BackgroundImageFix" result="effect1_dropShadow_0_4"/>
            <feBlend mode="normal" in="SourceGraphic" in2="effect1_dropShadow_0_4" result="shape"/>
        </filter>
        <radialGradient id="paint0_radial_0_4" cx="0" cy="0" r="1" gradientUnits="userSpaceOnUse" gradientTransform="translate(34.6235 12.1333) rotate(32.0064) scale(27.1758 26.9753)">
            <stop stop-color="white"/>
            <stop offset="0.27734" stop-color="#E5E5E5"/>
            <stop offset="0.46388" stop-color="#D1D1D1"/>
            <stop offset="0.62403" stop-color="#C9C9C9"/>
            <stop offset="0.86688" stop-color="#B4B4B4"/>
            <stop offset="1" stop-color="#A6A6A6"/>
        </radialGradient>
        <radialGradient id="paint1_radial_0_4" cx="0" cy="0" r="1" gradientUnits="userSpaceOnUse" gradientTransform="translate(4.95224 13.6953) rotate(32.0064) scale(27.2066 27.0058)">
            <stop stop-color="white"/>
            <stop offset="0.27734" stop-color="#E5E5E5"/>
            <stop offset="0.46388" stop-color="#D1D1D1"/>
            <stop offset="0.62403" stop-color="#C9C9C9"/>
            <stop offset="0.86688" stop-color="#B4B4B4"/>
            <stop offset="1" stop-color="#A6A6A6"/>
        </radialGradient>
        <radialGradient id="paint2_radial_0_4" cx="0" cy="0" r="1" gradientUnits="userSpaceOnUse" gradientTransform="translate(39.9153 1.80866) rotate(32.0064) scale(53.9902 53.5917)">
            <stop stop-color="white"/>
            <stop offset="0.27734" stop-color="#E5E5E5"/>
            <stop offset="0.46388" stop-color="#D1D1D1"/>
            <stop offset="0.62403" stop-color="#C9C9C9"/>
            <stop offset="0.86688" stop-color="#B4B4B4"/>
            <stop offset="1" stop-color="#A6A6A6"/>
        </radialGradient>
        <radialGradient id="paint3_radial_0_4" cx="0" cy="0" r="1" gradientUnits="userSpaceOnUse" gradientTransform="translate(38.4652 24.4177) rotate(32.0064) scale(18.1515 18.0175)">
            <stop stop-color="white"/>
            <stop offset="0.27734" stop-color="#E5E5E5"/>
            <stop offset="0.46388" stop-color="#D1D1D1"/>
            <stop offset="0.62403" stop-color="#C9C9C9"/>
            <stop offset="0.86688" stop-color="#B4B4B4"/>
            <stop offset="1" stop-color="#A6A6A6"/>
        </radialGradient>
        <linearGradient id="paint4_linear_0_4" x1="47.3149" y1="2.79368" x2="37.6602" y2="14.0707" gradientUnits="userSpaceOnUse">
            <stop stop-color="#A6A6A6"/>
            <stop offset="0.24553" stop-color="#6F6F6F"/>
            <stop offset="0.49096" stop-color="#3F3F3F"/>
            <stop offset="0.7066" stop-color="#1D1D1D"/>
            <stop offset="0.88365" stop-color="#080808"/>
            <stop offset="1"/>
        </linearGradient>
        <linearGradient id="paint5_linear_0_4" x1="44.2152" y1="0.138827" x2="34.56" y2="11.4164" gradientUnits="userSpaceOnUse">
            <stop stop-color="#A6A6A6"/>
            <stop offset="0.24553" stop-color="#6F6F6F"/>
            <stop offset="0.49096" stop-color="#3F3F3F"/>
            <stop offset="0.7066" stop-color="#1D1D1D"/>
            <stop offset="0.88365" stop-color="#080808"/>
            <stop offset="1"/>
        </linearGradient>
        <linearGradient id="paint6_linear_0_4" x1="44.5117" y1="0.395148" x2="34.8587" y2="11.6701" gradientUnits="userSpaceOnUse">
            <stop stop-color="#A6A6A6"/>
            <stop offset="0.24553" stop-color="#6F6F6F"/>
            <stop offset="0.49096" stop-color="#3F3F3F"/>
            <stop offset="0.7066" stop-color="#1D1D1D"/>
            <stop offset="0.88365" stop-color="#080808"/>
            <stop offset="1"/>
        </linearGradient>
        <linearGradient id="paint7_linear_0_4" x1="41.3735" y1="-2.29472" x2="31.7178" y2="8.9835" gradientUnits="userSpaceOnUse">
            <stop stop-color="#A6A6A6"/>
            <stop offset="0.24553" stop-color="#6F6F6F"/>
            <stop offset="0.49096" stop-color="#3F3F3F"/>
            <stop offset="0.7066" stop-color="#1D1D1D"/>
            <stop offset="0.88365" stop-color="#080808"/>
            <stop offset="1"/>
        </linearGradient>
        <linearGradient id="paint8_linear_0_4" x1="42.2297" y1="-1.55945" x2="32.5756" y2="9.71683" gradientUnits="userSpaceOnUse">
            <stop stop-color="#A6A6A6"/>
            <stop offset="0.24553" stop-color="#6F6F6F"/>
            <stop offset="0.49096" stop-color="#3F3F3F"/>
            <stop offset="0.7066" stop-color="#1D1D1D"/>
            <stop offset="0.88365" stop-color="#080808"/>
            <stop offset="1"/>
        </linearGradient>
        <linearGradient id="paint9_linear_0_4" x1="39.1263" y1="-4.21784" x2="29.4709" y2="7.05995" gradientUnits="userSpaceOnUse">
            <stop stop-color="#A6A6A6"/>
            <stop offset="0.24553" stop-color="#6F6F6F"/>
            <stop offset="0.49096" stop-color="#3F3F3F"/>
            <stop offset="0.7066" stop-color="#1D1D1D"/>
            <stop offset="0.88365" stop-color="#080808"/>
            <stop offset="1"/>
        </linearGradient>
        <linearGradient id="paint10_linear_0_4" x1="12.1935" y1="18.54" x2="34.5804" y2="16.4879" gradientUnits="userSpaceOnUse">
            <stop stop-color="#A6A6A6"/>
            <stop offset="0.24553" stop-color="#6F6F6F"/>
            <stop offset="0.49096" stop-color="#3F3F3F"/>
            <stop offset="0.7066" stop-color="#1D1D1D"/>
            <stop offset="0.88365" stop-color="#080808"/>
            <stop offset="1"/>
        </linearGradient>
        <linearGradient id="paint11_linear_0_4" x1="11.6787" y1="12.9376" x2="34.0678" y2="10.8852" gradientUnits="userSpaceOnUse">
            <stop stop-color="#A6A6A6"/>
            <stop offset="0.24553" stop-color="#6F6F6F"/>
            <stop offset="0.49096" stop-color="#3F3F3F"/>
            <stop offset="0.7066" stop-color="#1D1D1D"/>
            <stop offset="0.88365" stop-color="#080808"/>
            <stop offset="1"/>
        </linearGradient>
        <linearGradient id="paint12_linear_0_4" x1="11.7168" y1="13.3518" x2="34.1055" y2="11.2995" gradientUnits="userSpaceOnUse">
            <stop stop-color="#A6A6A6"/>
            <stop offset="0.24553" stop-color="#6F6F6F"/>
            <stop offset="0.49096" stop-color="#3F3F3F"/>
            <stop offset="0.7066" stop-color="#1D1D1D"/>
            <stop offset="0.88365" stop-color="#080808"/>
            <stop offset="1"/>
        </linearGradient>
        <linearGradient id="paint13_linear_0_4" x1="11.2485" y1="8.23167" x2="33.6352" y2="6.17955" gradientUnits="userSpaceOnUse">
            <stop stop-color="#A6A6A6"/>
            <stop offset="0.24553" stop-color="#6F6F6F"/>
            <stop offset="0.49096" stop-color="#3F3F3F"/>
            <stop offset="0.7066" stop-color="#1D1D1D"/>
            <stop offset="0.88365" stop-color="#080808"/>
            <stop offset="1"/>
        </linearGradient>
        <linearGradient id="paint14_linear_0_4" x1="11.7683" y1="13.895" x2="34.1544" y2="11.8429" gradientUnits="userSpaceOnUse">
            <stop stop-color="#A6A6A6"/>
            <stop offset="0.24553" stop-color="#6F6F6F"/>
            <stop offset="0.49096" stop-color="#3F3F3F"/>
            <stop offset="0.7066" stop-color="#1D1D1D"/>
            <stop offset="0.88365" stop-color="#080808"/>
            <stop offset="1"/>
        </linearGradient>
        <linearGradient id="paint15_linear_0_4" x1="37.8192" y1="31.7306" x2="29.5296" y2="13.7216" gradientUnits="userSpaceOnUse">
            <stop stop-color="#A6A6A6"/>
            <stop offset="0.24553" stop-color="#6F6F6F"/>
            <stop offset="0.49096" stop-color="#3F3F3F"/>
            <stop offset="0.7066" stop-color="#1D1D1D"/>
            <stop offset="0.88365" stop-color="#080808"/>
            <stop offset="1"/>
        </linearGradient>
        <linearGradient id="paint16_linear_0_4" x1="46.7274" y1="27.6323" x2="38.4363" y2="9.61996" gradientUnits="userSpaceOnUse">
            <stop stop-color="#A6A6A6"/>
            <stop offset="0.24553" stop-color="#6F6F6F"/>
            <stop offset="0.49096" stop-color="#3F3F3F"/>
            <stop offset="0.7066" stop-color="#1D1D1D"/>
            <stop offset="0.88365" stop-color="#080808"/>
            <stop offset="1"/>
        </linearGradient>
        <radialGradient id="paint17_radial_0_4" cx="0" cy="0" r="1" gradientUnits="userSpaceOnUse" gradientTransform="translate(14.1374 23.4016) rotate(-12.0436) scale(30.9939 30.5123)">
            <stop stop-color="white"/>
            <stop offset="0.27734" stop-color="#E5E5E5"/>
            <stop offset="0.46388" stop-color="#D1D1D1"/>
            <stop offset="0.62403" stop-color="#C9C9C9"/>
            <stop offset="0.86688" stop-color="#B4B4B4"/>
            <stop offset="1" stop-color="#A6A6A6"/>
        </radialGradient>
        <radialGradient id="paint18_radial_0_4" cx="0" cy="0" r="1" gradientUnits="userSpaceOnUse" gradientTransform="translate(-2.50206 44.3152) rotate(-12.0436) scale(25.633 25.2347)">
            <stop stop-color="white"/>
            <stop offset="0.27734" stop-color="#E5E5E5"/>
            <stop offset="0.46388" stop-color="#D1D1D1"/>
            <stop offset="0.62403" stop-color="#C9C9C9"/>
            <stop offset="0.86688" stop-color="#B4B4B4"/>
            <stop offset="1" stop-color="#A6A6A6"/>
        </radialGradient>
        <radialGradient id="paint19_radial_0_4" cx="0" cy="0" r="1" gradientUnits="userSpaceOnUse" gradientTransform="translate(11.5264 12.4809) rotate(-12.0436) scale(41.907 41.2558)">
            <stop stop-color="white"/>
            <stop offset="0.27734" stop-color="#E5E5E5"/>
            <stop offset="0.46388" stop-color="#D1D1D1"/>
            <stop offset="0.62403" stop-color="#C9C9C9"/>
            <stop offset="0.86688" stop-color="#B4B4B4"/>
            <stop offset="1" stop-color="#A6A6A6"/>
        </radialGradient>
        <radialGradient id="paint20_radial_0_4" cx="0" cy="0" r="1" gradientUnits="userSpaceOnUse" gradientTransform="translate(29.3703 31.8254) rotate(-12.0436) scale(27.2105 26.7877)">
            <stop stop-color="white"/>
            <stop offset="0.27734" stop-color="#E5E5E5"/>
            <stop offset="0.46388" stop-color="#D1D1D1"/>
            <stop offset="0.62403" stop-color="#C9C9C9"/>
            <stop offset="0.86688" stop-color="#B4B4B4"/>
            <stop offset="1" stop-color="#A6A6A6"/>
        </radialGradient>
        <linearGradient id="paint21_linear_0_4" x1="6.27519" y1="11.2377" x2="6.75241" y2="21.0084" gradientUnits="userSpaceOnUse">
            <stop stop-color="#A6A6A6"/>
            <stop offset="0.24553" stop-color="#6F6F6F"/>
            <stop offset="0.49096" stop-color="#3F3F3F"/>
            <stop offset="0.7066" stop-color="#1D1D1D"/>
            <stop offset="0.88365" stop-color="#080808"/>
            <stop offset="1"/>
        </linearGradient>
        <linearGradient id="paint22_linear_0_4" x1="12.4045" y1="10.9378" x2="12.8818" y2="20.7089" gradientUnits="userSpaceOnUse">
            <stop stop-color="#A6A6A6"/>
            <stop offset="0.24553" stop-color="#6F6F6F"/>
            <stop offset="0.49096" stop-color="#3F3F3F"/>
            <stop offset="0.7066" stop-color="#1D1D1D"/>
            <stop offset="0.88365" stop-color="#080808"/>
            <stop offset="1"/>
        </linearGradient>
        <linearGradient id="paint23_linear_0_4" x1="18.5797" y1="10.636" x2="19.057" y2="20.4071" gradientUnits="userSpaceOnUse">
            <stop stop-color="#A6A6A6"/>
            <stop offset="0.24553" stop-color="#6F6F6F"/>
            <stop offset="0.49096" stop-color="#3F3F3F"/>
            <stop offset="0.7066" stop-color="#1D1D1D"/>
            <stop offset="0.88365" stop-color="#080808"/>
            <stop offset="1"/>
        </linearGradient>
        <linearGradient id="paint24_linear_0_4" x1="3.56428" y1="36.4262" x2="10.4639" y2="26.6985" gradientUnits="userSpaceOnUse">
            <stop stop-color="#A6A6A6"/>
            <stop offset="0.24553" stop-color="#6F6F6F"/>
            <stop offset="0.49096" stop-color="#3F3F3F"/>
            <stop offset="0.7066" stop-color="#1D1D1D"/>
            <stop offset="0.88365" stop-color="#080808"/>
            <stop offset="1"/>
        </linearGradient>
        <linearGradient id="paint25_linear_0_4" x1="32.935" y1="36.7613" x2="10.9493" y2="27.7407" gradientUnits="userSpaceOnUse">
            <stop stop-color="#A6A6A6"/>
            <stop offset="0.24553" stop-color="#6F6F6F"/>
            <stop offset="0.49096" stop-color="#3F3F3F"/>
            <stop offset="0.7066" stop-color="#1D1D1D"/>
            <stop offset="0.88365" stop-color="#080808"/>
            <stop offset="1"/>
        </linearGradient>
        <linearGradient id="paint26_linear_0_4" x1="34.9687" y1="31.8001" x2="12.9862" y2="22.7809" gradientUnits="userSpaceOnUse">
            <stop stop-color="#A6A6A6"/>
            <stop offset="0.24553" stop-color="#6F6F6F"/>
            <stop offset="0.49096" stop-color="#3F3F3F"/>
            <stop offset="0.7066" stop-color="#1D1D1D"/>
            <stop offset="0.88365" stop-color="#080808"/>
            <stop offset="1"/>
        </linearGradient>
        <linearGradient id="paint27_linear_0_4" x1="36.5934" y1="27.842" x2="14.609" y2="18.822" gradientUnits="userSpaceOnUse">
            <stop stop-color="#A6A6A6"/>
            <stop offset="0.24553" stop-color="#6F6F6F"/>
            <stop offset="0.49096" stop-color="#3F3F3F"/>
            <stop offset="0.7066" stop-color="#1D1D1D"/>
            <stop offset="0.88365" stop-color="#080808"/>
            <stop offset="1"/>
        </linearGradient>
        <linearGradient id="paint28_linear_0_4" x1="34.517" y1="32.9059" x2="12.5314" y2="23.8854" gradientUnits="userSpaceOnUse">
            <stop stop-color="#A6A6A6"/>
            <stop offset="0.24553" stop-color="#6F6F6F"/>
            <stop offset="0.49096" stop-color="#3F3F3F"/>
            <stop offset="0.7066" stop-color="#1D1D1D"/>
            <stop offset="0.88365" stop-color="#080808"/>
            <stop offset="1"/>
        </linearGradient>
    </defs>
</svg>
