<svg width="82" height="45" viewBox="0 0 82 45" fill="none" xmlns="http://www.w3.org/2000/svg">
<g filter="url(#filter0_d_3418_4248)">
<rect x="7.5" y="7.86646" width="67" height="29" rx="3.5" stroke="url(#paint0_linear_3418_4248)" stroke-width="3" shape-rendering="crispEdges"/>
<rect x="7.5" y="7.86646" width="67" height="29" rx="3.5" stroke="url(#paint1_linear_3418_4248)" stroke-opacity="0.2" stroke-width="3" shape-rendering="crispEdges"/>
<path fill-rule="evenodd" clip-rule="evenodd" d="M7.8844 7.36646C7.65019 7.36825 7.42588 7.51847 7.26027 7.78445C7.09465 8.05043 7.00112 8.41065 7 8.78679V34.946C7.0011 35.3222 7.09462 35.6824 7.26024 35.9484C7.42586 36.2144 7.65017 36.3647 7.8844 36.3665H73.1156C73.3498 36.3647 73.5741 36.2144 73.7397 35.9484C73.9054 35.6824 73.9989 35.3222 74 34.946V8.78679C73.9989 8.41064 73.9054 8.0504 73.7397 7.78441C73.5741 7.51843 73.3498 7.36822 73.1156 7.36646H7.8844Z" fill="url(#paint2_linear_3418_4248)"/>
<path style="mix-blend-mode:screen" opacity="0.5" fill-rule="evenodd" clip-rule="evenodd" d="M9 34.8109C17.6176 31.982 64.1624 20.1907 73 17.2171V10.7865C72.9989 10.2437 72.9097 9.72382 72.7517 9.33998C72.5936 8.95614 72.3796 8.73937 72.1561 8.73682H9.84406C9.62053 8.73928 9.40644 8.95601 9.24838 9.33986C9.09031 9.72371 9.00105 10.2436 9 10.7865V34.8109Z" fill="url(#paint3_linear_3418_4248)"/>
</g>
<defs>
<filter id="filter0_d_3418_4248" x="0" y="0.366455" width="82" height="44" filterUnits="userSpaceOnUse" color-interpolation-filters="sRGB">
<feFlood flood-opacity="0" result="BackgroundImageFix"/>
<feColorMatrix in="SourceAlpha" type="matrix" values="0 0 0 0 0 0 0 0 0 0 0 0 0 0 0 0 0 0 127 0" result="hardAlpha"/>
<feOffset/>
<feGaussianBlur stdDeviation="3"/>
<feComposite in2="hardAlpha" operator="out"/>
<feColorMatrix type="matrix" values="0 0 0 0 0 0 0 0 0 0 0 0 0 0 0 0 0 0 0.7 0"/>
<feBlend mode="normal" in2="BackgroundImageFix" result="effect1_dropShadow_3418_4248"/>
<feBlend mode="normal" in="SourceGraphic" in2="effect1_dropShadow_3418_4248" result="shape"/>
</filter>
<linearGradient id="paint0_linear_3418_4248" x1="3.43333" y1="0.815443" x2="72.3068" y2="24.5051" gradientUnits="userSpaceOnUse">
<stop stop-color="#C3FD67"/>
<stop offset="1" stop-color="#436D00"/>
</linearGradient>
<linearGradient id="paint1_linear_3418_4248" x1="16.7386" y1="12.5705" x2="4.10503" y2="-3.97181" gradientUnits="userSpaceOnUse">
<stop stop-color="#33FF00"/>
<stop offset="1" stop-opacity="0"/>
</linearGradient>
<linearGradient id="paint2_linear_3418_4248" x1="61.5041" y1="55.5985" x2="0.961506" y2="17.9001" gradientUnits="userSpaceOnUse">
<stop stop-color="#65BA09"/>
<stop offset="1" stop-color="#8CE30B"/>
</linearGradient>
<linearGradient id="paint3_linear_3418_4248" x1="9" y1="21.7739" x2="73" y2="21.7739" gradientUnits="userSpaceOnUse">
<stop stop-color="#47B009"/>
<stop offset="1" stop-color="#010D01"/>
</linearGradient>
</defs>
</svg>
