<svg width="44" height="45" viewBox="0 0 44 45" fill="none" xmlns="http://www.w3.org/2000/svg">
<path fill-rule="evenodd" clip-rule="evenodd" d="M22 0.683228C26.3512 0.683228 30.6047 1.9735 34.2225 4.39089C37.8404 6.80827 40.6602 10.2442 42.3253 14.2642C43.9905 18.2841 44.4261 22.7076 43.5773 26.9752C42.7284 31.2427 40.6331 35.1628 37.5564 38.2395C34.4796 41.3163 30.5596 43.4116 26.2921 44.2605C22.0245 45.1094 17.601 44.6737 13.5811 43.0086C9.56108 41.3435 6.12514 38.5237 3.70773 34.9059C1.29033 31.288 2.73883e-05 27.0345 0 22.6834C-7.34537e-06 16.8486 2.31784 11.2528 6.44363 7.12696C10.5694 3.00113 16.1652 0.683257 22 0.683228Z" fill="url(#paint0_linear_3409_18286)"/>
<path fill-rule="evenodd" clip-rule="evenodd" d="M5.72537 22.6833C5.72537 20.5461 6.14633 18.4298 6.96421 16.4553C7.78208 14.4808 8.98086 12.6867 10.4921 11.1754C12.0033 9.66421 13.7974 8.46543 15.772 7.64755C17.7465 6.82968 19.8628 6.40872 22 6.40872C24.1372 6.40872 26.2535 6.82968 28.228 7.64755C30.2026 8.46543 31.9966 9.66421 33.5079 11.1754C35.0191 12.6867 36.2179 14.4808 37.0358 16.4553C37.8537 18.4298 38.2746 20.5461 38.2746 22.6833C38.4889 22.0963 38.8785 21.5893 39.3905 21.2311C39.9026 20.8729 40.5124 20.6808 41.1373 20.6808C41.7622 20.6808 42.372 20.8729 42.8841 21.2311C43.3962 21.5893 43.7857 22.0963 44 22.6833C44 16.8486 41.6821 11.2528 37.5563 7.127C33.4305 3.0012 27.8348 0.68335 22 0.68335C16.1652 0.68335 10.5694 3.0012 6.44365 7.127C2.31784 11.2528 0 16.8486 0 22.6833C0.214262 22.0963 0.603824 21.5893 1.11589 21.2311C1.62796 20.8729 2.23776 20.6808 2.86268 20.6808C3.4876 20.6808 4.09742 20.8729 4.60948 21.2311C5.12155 21.5893 5.51111 22.0963 5.72537 22.6833Z" fill="url(#paint1_linear_3409_18286)"/>
<g style="mix-blend-mode:screen">
<path fill-rule="evenodd" clip-rule="evenodd" d="M21.5833 5.98169C24.8041 5.98168 27.9525 6.93674 30.6305 8.7261C33.3085 10.5155 35.3957 13.0588 36.6283 16.0344C37.8608 19.01 38.1833 22.2843 37.555 25.4431C36.9266 28.602 35.3757 31.5037 33.0982 33.7811C30.8208 36.0585 27.9192 37.6095 24.7603 38.2378C21.6014 38.8662 18.3271 38.5437 15.3515 37.3111C12.3759 36.0786 9.83259 33.9914 8.04323 31.3134C6.25387 28.6354 5.29881 25.4869 5.29883 22.2661C5.29886 17.9472 7.01454 13.8052 10.0685 10.7513C13.1224 7.69741 17.2644 5.98172 21.5833 5.98169Z" fill="#F7E984"/>
</g>
<path fill-rule="evenodd" clip-rule="evenodd" d="M22.0002 6.40863C25.219 6.40863 28.3655 7.36312 31.0419 9.15139C33.7182 10.9397 35.8042 13.4814 37.036 16.4552C38.2678 19.429 38.5901 22.7013 37.9621 25.8582C37.3342 29.0152 35.7842 31.9151 33.5082 34.1911C31.2321 36.4672 28.3323 38.0172 25.1753 38.6451C22.0184 39.2731 18.7461 38.9509 15.7723 37.7191C12.7985 36.4873 10.2567 34.4014 8.46843 31.7251C6.68013 29.0487 5.72561 25.9022 5.72559 22.6834C5.72557 18.3671 7.4402 14.2275 10.4923 11.1754C13.5444 8.12332 17.6839 6.40865 22.0002 6.40863Z" fill="url(#paint2_radial_3409_18286)"/>
<path style="mix-blend-mode:screen" fill-rule="evenodd" clip-rule="evenodd" d="M8.61437 31.9422L31.2593 9.29728C29.3296 7.96527 27.1356 7.06478 24.8266 6.65713C22.5175 6.24948 20.1478 6.34425 17.8787 6.93499L6.25195 18.5619C5.6612 20.8309 5.56643 23.2007 5.97411 25.5096C6.38178 27.8186 7.28231 30.0126 8.61437 31.9422Z" fill="url(#paint3_radial_3409_18286)"/>
<path style="mix-blend-mode:screen" fill-rule="evenodd" clip-rule="evenodd" d="M36.9215 16.7824L16.0994 37.6045L15.9199 37.7838C17.6568 38.4835 19.5019 38.8767 21.3732 38.9459L21.7694 38.5499L37.8669 22.4524L38.2631 22.056C38.1937 20.1848 37.8006 18.3398 37.1011 16.6028L36.9215 16.7824Z" fill="url(#paint4_radial_3409_18286)"/>
<path fill-rule="evenodd" clip-rule="evenodd" d="M22 1.25583C26.2379 1.25585 30.3807 2.51256 33.9044 4.86704C37.4282 7.22153 40.1745 10.568 41.7963 14.4834C43.4181 18.3987 43.8424 22.7071 43.0157 26.8636C42.1889 31.0201 40.1481 34.8381 37.1514 37.8348C34.1548 40.8315 30.3368 42.8722 26.1802 43.699C22.0237 44.5258 17.7154 44.1015 13.8 42.4797C9.88467 40.8579 6.53816 38.1115 4.18368 34.5878C1.82919 31.0641 0.57248 26.9213 0.572466 22.6834C0.572463 19.8695 1.12671 17.0831 2.20354 14.4834C3.28037 11.8837 4.8587 9.52153 6.84843 7.5318C8.83816 5.54207 11.2003 3.96373 13.8 2.8869C16.3997 1.81007 19.1861 1.25583 22 1.25583ZM22 0.683228C26.3512 0.683228 30.6047 1.9735 34.2225 4.39089C37.8404 6.80827 40.6602 10.2442 42.3253 14.2642C43.9905 18.2841 44.4261 22.7076 43.5773 26.9752C42.7284 31.2427 40.6331 35.1628 37.5564 38.2395C34.4796 41.3163 30.5596 43.4116 26.2921 44.2605C22.0245 45.1094 17.601 44.6737 13.5811 43.0086C9.56108 41.3435 6.12514 38.5237 3.70773 34.9059C1.29033 31.288 2.73883e-05 27.0345 0 22.6834C-7.34537e-06 16.8486 2.31784 11.2528 6.44363 7.12696C10.5694 3.00113 16.1652 0.683257 22 0.683228Z" fill="url(#paint5_linear_3409_18286)"/>
<g style="mix-blend-mode:screen">
<path fill-rule="evenodd" clip-rule="evenodd" d="M1.09326 17.9659C2.36804 13.4013 5.10163 9.37944 8.87663 6.51427C12.6516 3.64909 17.2606 2.09809 21.9998 2.09809C26.739 2.09809 31.3479 3.64909 35.1229 6.51427C38.8979 9.37944 41.6315 13.4013 42.9063 17.9659C41.8344 13.2218 39.1809 8.98328 35.3817 5.94666C31.5825 2.91004 26.8634 1.25586 21.9998 1.25586C17.1361 1.25586 12.4171 2.91004 8.61783 5.94666C4.81859 8.98328 2.16511 13.2218 1.09326 17.9659Z" fill="#F7E984"/>
</g>
<g filter="url(#filter0_di_3409_18286)">
<path d="M14 30.6832V27.8832C14 27.3166 14.1458 26.7957 14.4375 26.3207C14.7292 25.8457 15.1167 25.4832 15.6 25.2332C16.6333 24.7166 17.6833 24.3291 18.75 24.0707C19.8167 23.8124 20.9 23.6832 22 23.6832C22.6167 23.6832 23.225 23.7207 23.825 23.7957C24.425 23.8707 25.025 23.9916 25.625 24.1582L23.95 25.8582C23.6167 25.8082 23.2917 25.7666 22.975 25.7332C22.6583 25.6999 22.3333 25.6832 22 25.6832C21.0667 25.6832 20.1417 25.7957 19.225 26.0207C18.3083 26.2457 17.4 26.5832 16.5 27.0332C16.35 27.1166 16.2292 27.2332 16.1375 27.3832C16.0458 27.5332 16 27.6999 16 27.8832V28.6832H22V30.6832H14ZM24 31.6832V28.6082L29.525 23.1082C29.675 22.9582 29.8417 22.8499 30.025 22.7832C30.2083 22.7166 30.3917 22.6832 30.575 22.6832C30.775 22.6832 30.9667 22.7207 31.15 22.7957C31.3333 22.8707 31.5 22.9832 31.65 23.1332L32.575 24.0582C32.7083 24.2082 32.8125 24.3749 32.8875 24.5582C32.9625 24.7416 33 24.9249 33 25.1082C33 25.2916 32.9667 25.4791 32.9 25.6707C32.8333 25.8624 32.725 26.0332 32.575 26.1832L27.075 31.6832H24ZM25.5 30.1832H26.45L29.475 27.1332L29.025 26.6582L28.55 26.2082L25.5 29.2332V30.1832ZM29.025 26.6582L28.55 26.2082L29.475 27.1332L29.025 26.6582ZM22 22.6832C20.9 22.6832 19.9583 22.2916 19.175 21.5082C18.3917 20.7249 18 19.7832 18 18.6832C18 17.5832 18.3917 16.6416 19.175 15.8582C19.9583 15.0749 20.9 14.6832 22 14.6832C23.1 14.6832 24.0417 15.0749 24.825 15.8582C25.6083 16.6416 26 17.5832 26 18.6832C26 19.7832 25.6083 20.7249 24.825 21.5082C24.0417 22.2916 23.1 22.6832 22 22.6832ZM22 20.6832C22.55 20.6832 23.0208 20.4874 23.4125 20.0957C23.8042 19.7041 24 19.2332 24 18.6832C24 18.1332 23.8042 17.6624 23.4125 17.2707C23.0208 16.8791 22.55 16.6832 22 16.6832C21.45 16.6832 20.9792 16.8791 20.5875 17.2707C20.1958 17.6624 20 18.1332 20 18.6832C20 19.2332 20.1958 19.7041 20.5875 20.0957C20.9792 20.4874 21.45 20.6832 22 20.6832Z" fill="#B56727"/>
</g>
<defs>
<filter id="filter0_di_3409_18286" x="14" y="14.6832" width="19" height="18" filterUnits="userSpaceOnUse" color-interpolation-filters="sRGB">
<feFlood flood-opacity="0" result="BackgroundImageFix"/>
<feColorMatrix in="SourceAlpha" type="matrix" values="0 0 0 0 0 0 0 0 0 0 0 0 0 0 0 0 0 0 127 0" result="hardAlpha"/>
<feOffset dy="1"/>
<feComposite in2="hardAlpha" operator="out"/>
<feColorMatrix type="matrix" values="0 0 0 0 0 0 0 0 0 0 0 0 0 0 0 0 0 0 0.25 0"/>
<feBlend mode="normal" in2="BackgroundImageFix" result="effect1_dropShadow_3409_18286"/>
<feBlend mode="normal" in="SourceGraphic" in2="effect1_dropShadow_3409_18286" result="shape"/>
<feColorMatrix in="SourceAlpha" type="matrix" values="0 0 0 0 0 0 0 0 0 0 0 0 0 0 0 0 0 0 127 0" result="hardAlpha"/>
<feOffset dy="1"/>
<feComposite in2="hardAlpha" operator="arithmetic" k2="-1" k3="1"/>
<feColorMatrix type="matrix" values="0 0 0 0 0 0 0 0 0 0 0 0 0 0 0 0 0 0 0.25 0"/>
<feBlend mode="normal" in2="shape" result="effect2_innerShadow_3409_18286"/>
</filter>
<linearGradient id="paint0_linear_3409_18286" x1="22" y1="44.6832" x2="22" y2="0.683228" gradientUnits="userSpaceOnUse">
<stop stop-color="#DE8B00"/>
<stop offset="1" stop-color="#FFC75E"/>
</linearGradient>
<linearGradient id="paint1_linear_3409_18286" x1="22" y1="22.6833" x2="22" y2="0.683211" gradientUnits="userSpaceOnUse">
<stop stop-color="#FFB805"/>
<stop offset="1" stop-color="#FFE89C"/>
</linearGradient>
<radialGradient id="paint2_radial_3409_18286" cx="0" cy="0" r="1" gradientUnits="userSpaceOnUse" gradientTransform="translate(14.323 8.52834) scale(36.1225)">
<stop stop-color="#FFEEB8"/>
<stop offset="1" stop-color="#FFBF00"/>
</radialGradient>
<radialGradient id="paint3_radial_3409_18286" cx="0" cy="0" r="1" gradientUnits="userSpaceOnUse" gradientTransform="translate(16.0933 -0.977324) scale(36.4507 36.4507)">
<stop stop-color="#FFFD9E"/>
<stop offset="1"/>
</radialGradient>
<radialGradient id="paint4_radial_3409_18286" cx="0" cy="0" r="1" gradientUnits="userSpaceOnUse" gradientTransform="translate(29.4906 11.2203) scale(30.9453 30.9453)">
<stop stop-color="#FFFD9E"/>
<stop offset="1"/>
</radialGradient>
<linearGradient id="paint5_linear_3409_18286" x1="22" y1="44.6832" x2="22" y2="0.683228" gradientUnits="userSpaceOnUse">
<stop stop-color="#CF8000"/>
<stop offset="1" stop-color="#F5B133"/>
</linearGradient>
</defs>
</svg>
