<svg width="90" height="91" viewBox="0 0 90 91" fill="none" xmlns="http://www.w3.org/2000/svg">
<g filter="url(#filter0_diii_3418_7843)">
<rect x="6" y="6.04956" width="78" height="78" rx="6" fill="white"/>
<rect x="7" y="7.04956" width="76" height="76" rx="5" stroke="url(#paint0_radial_3418_7843)" stroke-width="2"/>
<g clip-path="url(#clip0_3418_7843)">
<mask id="mask0_3418_7843" style="mask-type:luminance" maskUnits="userSpaceOnUse" x="10" y="10" width="70" height="71">
<path d="M80 10.0496H10V80.0496H80V10.0496Z" fill="white"/>
</mask>
<g mask="url(#mask0_3418_7843)">
<path d="M29.6908 10.0496H12.4145C11.081 10.0496 10 11.1306 10 12.4641V29.7403C10 31.0738 11.081 32.1548 12.4145 32.1548H29.6908C31.0243 32.1548 32.1053 31.0738 32.1053 29.7403V12.4641C32.1053 11.1306 31.0243 10.0496 29.6908 10.0496Z" fill="#1A212D" fill-opacity="0.8"/>
<path d="M26.7592 30.9267H15.3459C13.7378 29.3186 12.8362 28.417 11.228 26.8088V15.3955C12.8362 13.7874 13.7378 12.8857 15.3459 11.2776H26.7592C28.3674 12.8857 29.269 13.7874 30.8772 15.3955V26.8088C29.269 28.417 28.3674 29.3186 26.7592 30.9267Z" fill="url(#paint1_linear_3418_7843)"/>
<path d="M24.8246 15.5534L26.7594 11.2776H15.3462L17.2806 15.5534H24.8246Z" fill="url(#paint2_linear_3418_7843)"/>
<path style="mix-blend-mode:screen" d="M24.8246 15.5534L26.7593 11.2776C26.7593 11.2776 24.2051 13.7715 21.1968 13.7715C18.9991 13.7201 16.9049 12.8274 15.3459 11.2776L17.2806 15.5534H24.8246Z" fill="url(#paint3_linear_3418_7843)"/>
<path d="M17.2806 15.5534L15.3459 11.2776C13.7378 12.8857 12.8362 13.7874 11.228 15.3955L15.5038 17.3302C16.1977 16.6363 16.5867 16.2473 17.2806 15.5534Z" fill="url(#paint4_linear_3418_7843)"/>
<path d="M26.6014 17.3302L30.8772 15.3955C29.269 13.7874 28.3674 12.8857 26.7593 11.2776L24.8246 15.5534L26.6014 17.3302Z" fill="url(#paint5_linear_3418_7843)"/>
<path d="M15.5217 30.8132L17.3537 26.7644H24.7513L26.5837 30.8132H15.5217Z" fill="url(#paint6_linear_3418_7843)"/>
<path d="M24.6784 26.8777L26.4078 30.7001L15.5217 30.8135L17.4269 26.8777H24.6784ZM24.8246 26.651H17.2806L15.3459 30.9268H26.7593L24.8246 26.651Z" fill="#FC379A"/>
<path style="mix-blend-mode:screen" opacity="0.21" d="M17.2805 26.6511L26.7594 30.9266L24.8246 26.6511H17.2805Z" fill="url(#paint7_linear_3418_7843)"/>
<path d="M15.5039 17.33L11.228 15.3956V26.8089L15.5039 24.8741V17.33Z" fill="url(#paint8_linear_3418_7843)"/>
<path style="mix-blend-mode:screen" opacity="0.35" d="M15.5039 17.33L11.228 15.3956L15.5039 24.8741V17.33Z" fill="url(#paint9_linear_3418_7843)"/>
<path d="M24.8246 26.651L26.7593 30.9268C28.3674 29.3186 29.269 28.417 30.8772 26.8088L26.6014 24.8741L24.8246 26.651Z" fill="url(#paint10_linear_3418_7843)"/>
<path d="M26.6016 17.33V24.8741L30.877 26.8089V15.3956L26.6016 17.33Z" fill="url(#paint11_linear_3418_7843)"/>
<path style="mix-blend-mode:screen" opacity="0.43" d="M26.6016 17.33V24.8741L30.877 15.3956L26.6016 17.33Z" fill="url(#paint12_linear_3418_7843)"/>
<path d="M15.5038 24.8741L11.228 26.8088L15.3459 30.9268L17.2806 26.651C16.5867 25.9571 16.1977 25.5681 15.5038 24.8741Z" fill="url(#paint13_linear_3418_7843)"/>
<path opacity="0.75" d="M24.8247 26.651H17.2807C16.5868 25.9571 16.1978 25.5681 15.5039 24.8742V17.3302C16.1978 16.6364 16.5868 16.2473 17.2807 15.5535H24.8247L26.6014 17.3302V24.8742L24.8247 26.651Z" fill="url(#paint14_linear_3418_7843)"/>
<path style="mix-blend-mode:screen" d="M25.6906 25.785C25.9689 25.5068 26.2449 25.2307 26.6014 24.8742V17.3302C25.9075 16.6363 25.5185 16.2473 24.8247 15.5535H19.4076C20.6936 17.647 21.906 19.8208 23.272 21.9777C24.0789 23.2578 24.8851 24.5269 25.6906 25.785Z" fill="url(#paint15_linear_3418_7843)"/>
<path style="mix-blend-mode:screen" opacity="0.3" d="M15.5039 17.3303V24.8742C16.1978 25.5681 16.5868 25.9571 17.2807 26.651H21.2302C19.6663 23.1608 18.167 19.6445 16.732 16.1022C16.3317 16.5025 15.9936 16.8406 15.5039 17.3303Z" fill="url(#paint16_linear_3418_7843)"/>
<path style="mix-blend-mode:screen" d="M15.5039 22.4083V24.8742C16.1978 25.5681 16.5868 25.9571 17.2807 26.651H24.8247L26.6014 24.8742V21.9973C25.9548 23.8292 24.4845 24.5338 22.4029 24.8742C19.8986 25.2836 16.9616 24.2631 15.5039 22.4083Z" fill="url(#paint17_linear_3418_7843)"/>
<path d="M25.2535 14.997L26.7592 11.2776L24.9651 14.8526C24.8805 15.0213 24.7494 15.1621 24.5873 15.2585C24.4251 15.3549 24.2388 15.4027 24.0502 15.3963C23.673 15.3833 23.2958 15.3711 22.9185 15.362C21.2825 15.3225 19.6469 15.3038 18.0107 15.2934C17.8266 15.2923 17.6465 15.2407 17.4898 15.1443C17.3331 15.0479 17.2058 14.9103 17.1219 14.7465L15.3459 11.2776L16.7581 14.8481C16.8301 15.0299 16.8474 15.2289 16.8079 15.4204C16.7685 15.612 16.674 15.7879 16.5361 15.9266C16.3273 16.1364 16.1188 16.3465 15.9108 16.5571C15.7733 16.6964 15.5982 16.7925 15.4068 16.8335C15.2155 16.8746 15.0163 16.8589 14.8338 16.7882L11.228 15.3955L14.7263 17.2221C14.8867 17.3059 15.0216 17.4314 15.1166 17.5855C15.2116 17.7395 15.2632 17.9164 15.2661 18.0973C15.3022 20.3574 15.3508 22.6187 15.5038 24.8742C15.6623 22.5371 15.7089 20.1938 15.7455 17.8521C15.75 17.5865 15.8592 17.3333 16.0493 17.1478C16.401 16.8032 16.7492 16.4551 17.098 16.1077C17.2852 15.9215 17.5382 15.8164 17.8022 15.8153L18.8836 15.8101C20.7253 15.8013 22.4565 15.8676 24.2833 15.82C24.5185 15.8137 24.7484 15.8909 24.932 16.0381C25.5239 16.5136 26.0884 16.9231 26.6014 17.3302C26.2206 16.8918 25.8311 16.4611 25.4394 16.0326C25.3139 15.8951 25.2298 15.7249 25.1969 15.5416C25.164 15.3584 25.1836 15.1696 25.2535 14.997Z" fill="url(#paint18_linear_3418_7843)"/>
<path d="M26.7593 30.9268L25.1075 27.1116C25.0603 27.0026 25.0455 26.8823 25.0649 26.7652C25.0843 26.648 25.1371 26.5389 25.217 26.451C25.6876 25.9335 26.1554 25.4131 26.6014 24.8741C26.0362 25.3419 25.4917 25.8333 24.9493 26.3271C24.833 26.4332 24.6806 26.4907 24.5233 26.488C23.4136 26.4687 19.4589 26.4388 17.5847 26.4869C17.4258 26.4909 17.2714 26.4332 17.154 26.3261C16.6121 25.8328 16.0681 25.3418 15.5039 24.8741C15.9265 25.3842 16.3683 25.8777 16.8136 26.368C16.8919 26.4541 16.9443 26.5605 16.9648 26.6751C16.9852 26.7896 16.973 26.9076 16.9294 27.0155L15.3459 30.9268L17.2381 27.1566C17.2899 27.0532 17.3697 26.9665 17.4684 26.9064C17.5672 26.8461 17.6808 26.8149 17.7964 26.816C19.0843 26.829 22.9917 26.8416 24.2126 26.8453C24.3241 26.8456 24.4335 26.8762 24.529 26.9337C24.6246 26.9913 24.7027 27.0737 24.7551 27.1721L26.7593 30.9268Z" fill="url(#paint19_linear_3418_7843)"/>
<path d="M53.6381 10.0496H36.3619C35.0284 10.0496 33.9474 11.1306 33.9474 12.4641V29.7403C33.9474 31.0738 35.0284 32.1548 36.3619 32.1548H53.6381C54.9716 32.1548 56.0527 31.0738 56.0527 29.7403V12.4641C56.0527 11.1306 54.9716 10.0496 53.6381 10.0496Z" fill="#476993" fill-opacity="0.1"/>
<path d="M49.2596 16.1501L45 14.5758L40.7404 16.1501L38.4739 20.1364L39.261 24.6696L42.7336 27.6283H47.2666L50.739 24.6696L51.5262 20.1364L49.2596 16.1501Z" fill="#F8EE45"/>
<path d="M51.4124 13.6477L49.2598 16.1502L51.5262 20.1366L54.8244 19.6486L51.4124 13.6477Z" fill="#E6CA40"/>
<path d="M49.2598 16.1501L53.1184 16.6481L51.5262 20.1365L49.2598 16.1501Z" fill="#E6B740"/>
<path d="M54.8246 19.6487L51.5262 20.1365L50.739 24.6684L53.6393 26.4726L54.8246 19.6487Z" fill="#F8EE45"/>
<path d="M51.5262 20.1365L54.232 23.0607L50.739 24.6685L51.5262 20.1365Z" fill="#E6B740"/>
<path d="M53.6392 26.4726L50.7391 24.6685L47.2666 27.6283L48.4118 30.9266L53.6392 26.4726Z" fill="#E6CA40"/>
<path d="M50.7391 24.6685L51.0255 28.6996L47.2666 27.6283L50.7391 24.6685Z" fill="#E6B740"/>
<path d="M48.4118 30.9268L47.2665 27.6283H42.7335L41.5879 30.9266L48.4118 30.9268Z" fill="#E69040"/>
<path d="M47.2666 27.6283L45 30.9267L42.7336 27.6283H47.2666Z" fill="#E6A440"/>
<path d="M44.9999 11.2776L45.0001 14.5758L49.2596 16.1501L51.4119 13.6483L44.9999 11.2776Z" fill="#E6A440"/>
<path d="M45.0001 14.5759L48.206 12.463L49.2597 16.1502L45.0001 14.5759Z" fill="#E6CA40"/>
<path d="M38.5875 13.6477L40.7402 16.1502L38.4738 20.1366L35.1757 19.6486L38.5875 13.6477Z" fill="#E6B740"/>
<path d="M40.7404 16.1501L36.8817 16.6481L38.4738 20.1365L40.7404 16.1501Z" fill="#E6CA40"/>
<path d="M35.1754 19.6487L38.4737 20.1365L39.2609 24.6684L36.3606 26.4726L35.1754 19.6487Z" fill="#F8EE45"/>
<path d="M38.4737 20.1365L35.7681 23.0607L39.2609 24.6685L38.4737 20.1365Z" fill="#E6CA40"/>
<path d="M36.3608 26.4726L39.2609 24.6685L42.7334 27.6283L41.5882 30.9266L36.3608 26.4726Z" fill="#E6CA40"/>
<path d="M39.2609 24.6685L38.9745 28.6996L42.7334 27.6283L39.2609 24.6685Z" fill="#E6A440"/>
<path d="M45.0001 11.2776L44.9999 14.5758L40.7403 16.1501L38.588 13.6483L45.0001 11.2776Z" fill="#F8EE45"/>
<path d="M44.9999 14.5759L41.794 12.463L40.7402 16.1502L44.9999 14.5759Z" fill="#E6CA40"/>
<g style="mix-blend-mode:soft-light">
<path d="M46.3254 15.1188C46.7781 15.2692 47.2294 15.4238 47.6843 15.568C47.2445 15.3815 46.8009 15.2054 46.3589 15.0251C45.9769 14.8681 45.5915 14.7204 45.2072 14.5698C45.4986 14.366 45.7746 14.1404 46.033 13.8951C45.6762 14.0489 45.3318 14.2307 45.0028 14.4389C44.7744 14.2828 44.5416 14.1336 44.3029 13.9937C44.0427 13.8395 43.773 13.7028 43.4954 13.5843C43.7149 13.7936 43.9478 13.9881 44.1923 14.1665C44.3828 14.3069 44.5781 14.4395 44.7761 14.568L43.9006 14.8736L42.8333 15.2604C42.1943 15.4948 41.5524 15.7213 40.9153 15.961C41.1551 15.0986 41.3779 14.2312 41.5416 13.3463C41.1947 14.2302 40.9133 15.1334 40.6488 16.0415C39.7081 16.167 38.7696 16.3109 37.84 16.5245C38.7411 16.4967 39.6344 16.4061 40.5254 16.2971L39.5195 18.0921L38.4214 20.1059L38.41 20.1268L38.4142 20.1472C38.5394 20.7542 38.6583 21.3622 38.7918 21.9676C38.7143 21.3602 38.6226 20.7553 38.5367 20.1494L39.6945 18.1947L40.8186 16.2458C41.5182 15.9955 42.2105 15.7251 42.9069 15.4658L43.9694 15.0655L44.9735 14.6734H45.0328C45.4636 14.8221 45.8924 14.9763 46.3254 15.1188Z" fill="#F8F8F8"/>
</g>
<g style="mix-blend-mode:soft-light">
<path d="M50.1251 17.6721L41.4214 26.5102L42.7336 27.6284H43.6168L51.3317 19.7943L50.1251 17.6721Z" fill="#F8F8F8"/>
<path d="M49.2598 16.1502L45.7962 14.8701L38.7942 21.9803L39.2612 24.6696L40.5823 25.7953L49.5602 16.6786L49.2598 16.1502Z" fill="#F8F8F8"/>
</g>
<g style="mix-blend-mode:multiply">
<path d="M53.1184 16.6481L51.5262 20.1365L50.7391 24.6684L47.2666 27.6283L48.4119 30.9267L53.6392 26.4726L54.8246 19.6487L53.1184 16.6481Z" fill="#F5A57A"/>
</g>
<g style="mix-blend-mode:soft-light">
<path d="M51.1382 22.1484C51.0789 22.4257 51.0178 22.7028 50.9645 22.9812C50.8588 23.5248 50.7447 24.067 50.6456 24.6119L49.7992 25.3216C49.5092 25.5674 49.2139 25.807 48.928 26.0578L48.0657 26.8048C47.7875 27.0478 47.5056 27.2863 47.2303 27.5328L45.8384 27.5669C45.3624 27.5867 44.8863 27.5999 44.4103 27.6283C44.8863 27.6566 45.3624 27.6699 45.8384 27.6896L47.0716 27.7199C46.9413 27.9191 46.8118 28.1191 46.6879 28.3229C46.5328 28.5813 46.3838 28.8439 46.2454 29.1142C46.4476 28.8891 46.6389 28.6565 46.8242 28.4196C46.9911 28.2037 47.1533 27.9846 47.311 27.7622C47.6824 27.8735 48.0565 27.9751 48.4331 28.0672C48.6348 28.1144 48.8365 28.1613 49.0399 28.2019C49.2438 28.2404 49.4474 28.2806 49.6543 28.3088C49.4632 28.2236 49.2688 28.1502 49.0749 28.0754C48.8803 28.0026 48.6841 27.936 48.4877 27.8699C48.1564 27.7622 47.8231 27.6621 47.4876 27.5697C47.7275 27.3719 47.9647 27.1707 48.2038 26.9718L49.0777 26.2389C49.3706 25.9965 49.654 25.7427 49.9427 25.4952L50.8049 24.7481L50.84 24.6865C50.9333 24.1273 51.0099 23.5652 51.0958 23.0046C51.1394 22.7245 51.1753 22.443 51.213 22.1619C51.2511 21.8807 51.2888 21.5995 51.3212 21.3174C51.2565 21.5938 51.1972 21.8711 51.1382 22.1484Z" fill="#F8F8F8"/>
</g>
<g style="mix-blend-mode:soft-light">
<path d="M48.206 12.4629L47.2448 15.4055L44.9999 14.5758L40.7402 16.1501L38.4739 20.1365L38.9104 22.6501L35.768 23.0606L35.1754 19.6487L38.588 13.6483L45 11.2776L48.206 12.4629Z" fill="#FF5C00"/>
</g>
<path d="M77.5857 10.0496H60.3093C58.9758 10.0496 57.8948 11.1306 57.8948 12.4641V29.7403C57.8948 31.0738 58.9758 32.1548 60.3093 32.1548H77.5857C78.9193 32.1548 80 31.0738 80 29.7403V12.4641C80 11.1306 78.9193 10.0496 77.5857 10.0496Z" fill="#1A212D" fill-opacity="0.8"/>
<path d="M74.6542 30.9267H63.2407C61.6325 29.3186 60.731 28.417 59.1228 26.8088V15.3955C60.731 13.7874 61.6325 12.8857 63.2407 11.2776H74.6542C76.2624 12.8857 77.1638 13.7874 78.7719 15.3955V26.8088C77.1638 28.417 76.2624 29.3186 74.6542 30.9267Z" fill="url(#paint20_linear_3418_7843)"/>
<path d="M72.7193 15.5534L74.6542 11.2776H63.2408L65.1752 15.5534H72.7193Z" fill="url(#paint21_linear_3418_7843)"/>
<path style="mix-blend-mode:screen" d="M72.7194 15.5534L74.6542 11.2776C74.6542 11.2776 72.0998 13.7715 69.0916 13.7715C66.8939 13.7201 64.7997 12.8274 63.2407 11.2776L65.1754 15.5534H72.7194Z" fill="url(#paint22_linear_3418_7843)"/>
<path d="M65.1753 15.5534L63.2407 11.2776C61.6326 12.8857 60.731 13.7874 59.1228 15.3955L63.3986 17.3302C64.0925 16.6363 64.4815 16.2473 65.1753 15.5534Z" fill="url(#paint23_linear_3418_7843)"/>
<path d="M74.4964 17.3302L78.7719 15.3955C77.1637 13.7874 76.2623 12.8857 74.6542 11.2776L72.7194 15.5534L74.4964 17.3302Z" fill="url(#paint24_linear_3418_7843)"/>
<path d="M63.4165 30.8132L65.2485 26.7644H72.6463L74.4786 30.8132H63.4165Z" fill="url(#paint25_linear_3418_7843)"/>
<path d="M72.5733 26.8777L74.3024 30.7001L63.4165 30.8135L65.3216 26.8777H72.5733ZM72.7194 26.651H65.1754L63.2407 30.9268H74.6542L72.7194 26.651Z" fill="#FC379A"/>
<path style="mix-blend-mode:screen" opacity="0.21" d="M65.1753 26.6511L74.6542 30.9266L72.7194 26.6511H65.1753Z" fill="url(#paint26_linear_3418_7843)"/>
<path d="M63.3986 17.33L59.1228 15.3956V26.8089L63.3986 24.8741V17.33Z" fill="url(#paint27_linear_3418_7843)"/>
<path style="mix-blend-mode:screen" opacity="0.35" d="M63.3986 17.33L59.1228 15.3956L63.3986 24.8741V17.33Z" fill="url(#paint28_linear_3418_7843)"/>
<path d="M72.7194 26.651L74.6542 30.9268C76.2623 29.3186 77.1637 28.417 78.7719 26.8088L74.4964 24.8741L72.7194 26.651Z" fill="url(#paint29_linear_3418_7843)"/>
<path d="M74.4963 17.33V24.8741L78.7719 26.8089V15.3956L74.4963 17.33Z" fill="url(#paint30_linear_3418_7843)"/>
<path style="mix-blend-mode:screen" opacity="0.43" d="M74.4963 17.33V24.8741L78.7719 15.3956L74.4963 17.33Z" fill="url(#paint31_linear_3418_7843)"/>
<path d="M63.3986 24.8741L59.1228 26.8088L63.2407 30.9268L65.1753 26.651C64.4815 25.9571 64.0925 25.5681 63.3986 24.8741Z" fill="url(#paint32_linear_3418_7843)"/>
<path opacity="0.75" d="M72.7194 26.651H65.1755C64.4815 25.9571 64.0925 25.5681 63.3987 24.8742V17.3302C64.0925 16.6364 64.4815 16.2473 65.1755 15.5535H72.7194L74.4964 17.3302V24.8742L72.7194 26.651Z" fill="url(#paint33_linear_3418_7843)"/>
<path style="mix-blend-mode:screen" d="M73.5852 25.785C73.8634 25.5068 74.1397 25.2307 74.4965 24.8742V17.3302C73.8026 16.6363 73.4133 16.2473 72.7194 15.5535H67.3024C68.5884 17.647 69.8008 19.8208 71.1667 21.9777C71.9734 23.2578 72.7796 24.5269 73.5852 25.785Z" fill="url(#paint34_linear_3418_7843)"/>
<path style="mix-blend-mode:screen" opacity="0.3" d="M63.3987 17.3303V24.8742C64.0925 25.5681 64.4815 25.9571 65.1755 26.651H69.1249C67.5611 23.1608 66.0618 19.6445 64.6268 16.1022C64.2265 16.5025 63.8883 16.8406 63.3987 17.3303Z" fill="url(#paint35_linear_3418_7843)"/>
<path style="mix-blend-mode:screen" d="M63.3987 22.4083V24.8742C64.0925 25.5681 64.4815 25.9571 65.1755 26.651H72.7194L74.4964 24.8742V21.9973C73.8499 23.8292 72.3793 24.5338 70.2977 24.8742C67.7934 25.2836 64.8563 24.2631 63.3987 22.4083Z" fill="url(#paint36_linear_3418_7843)"/>
<path d="M73.1486 14.997L74.6542 11.2776L72.86 14.8526C72.7753 15.0213 72.6445 15.1621 72.4824 15.2585C72.3196 15.3549 72.1336 15.4027 71.9451 15.3963C71.5681 15.3833 71.1906 15.3711 70.8132 15.362C69.1773 15.3225 67.5417 15.3038 65.9054 15.2934C65.7214 15.2923 65.5413 15.2407 65.3845 15.1443C65.2278 15.0479 65.1006 14.9103 65.0167 14.7465L63.2407 11.2776L64.6529 14.8481C64.7248 15.0299 64.7422 15.2289 64.7027 15.4204C64.6633 15.612 64.5688 15.7879 64.4309 15.9266C64.2221 16.1364 64.0137 16.3465 63.8056 16.5571C63.6681 16.6964 63.4929 16.7925 63.3016 16.8335C63.1102 16.8746 62.9111 16.8589 62.7285 16.7882L59.1228 15.3955L62.6211 17.2221C62.7815 17.3059 62.9164 17.4314 63.0114 17.5855C63.1064 17.7395 63.158 17.9164 63.1608 18.0973C63.1969 20.3574 63.2456 22.6187 63.3986 24.8742C63.5571 22.5371 63.6037 20.1938 63.6403 17.8521C63.6448 17.5865 63.754 17.3333 63.944 17.1478C64.2957 16.8032 64.644 16.4551 64.9928 16.1077C65.18 15.9215 65.4329 15.8164 65.697 15.8153L66.7784 15.8101C68.6201 15.8013 70.3512 15.8676 72.1778 15.82C72.4136 15.8137 72.6432 15.8909 72.8268 16.0381C73.4188 16.5136 73.9831 16.9231 74.4964 17.3302C74.1151 16.8918 73.7258 16.4611 73.334 16.0326C73.2088 15.8951 73.1246 15.7249 73.0915 15.5416C73.0589 15.3584 73.0786 15.1696 73.1486 14.997Z" fill="url(#paint37_linear_3418_7843)"/>
<path d="M74.6542 30.9268L73.0025 27.1116C72.9552 27.0026 72.9404 26.8823 72.9595 26.7652C72.9791 26.648 73.0319 26.5389 73.1118 26.451C73.5827 25.9335 74.05 25.4131 74.4964 24.8741C73.9309 25.3419 73.3862 25.8333 72.844 26.3271C72.728 26.4332 72.5751 26.4907 72.4179 26.488C71.3083 26.4687 67.3537 26.4388 65.4795 26.4869C65.3206 26.4909 65.1662 26.4332 65.0488 26.3261C64.5069 25.8328 63.9629 25.3418 63.3987 24.8741C63.8212 25.3842 64.2631 25.8777 64.7084 26.368C64.7867 26.4541 64.8391 26.5605 64.8596 26.6751C64.88 26.7896 64.8677 26.9076 64.8241 27.0155L63.2407 30.9268L65.1329 27.1566C65.1847 27.0532 65.2645 26.9665 65.3632 26.9064C65.4619 26.8461 65.5755 26.8149 65.6912 26.816C66.9791 26.829 70.8864 26.8416 72.1072 26.8453C72.219 26.8456 72.3283 26.8762 72.424 26.9337C72.5192 26.9913 72.5972 27.0737 72.65 27.1721L74.6542 30.9268Z" fill="url(#paint38_linear_3418_7843)"/>
<path d="M12.4145 33.9969H29.6908C30.3311 33.9969 30.9453 34.2513 31.3981 34.7041C31.8509 35.1569 32.1053 35.7711 32.1053 36.4115V53.6877C32.1053 54.0048 32.0428 54.3187 31.9215 54.6117C31.8001 54.9047 31.6223 55.1708 31.3981 55.395C31.1739 55.6192 30.9077 55.7971 30.6148 55.9184C30.3218 56.0398 30.0078 56.1022 29.6908 56.1022H12.4145C11.7741 56.1022 11.16 55.8478 10.7072 55.395C10.2544 54.9422 10 54.3281 10 53.6877V36.4115C10 35.7711 10.2544 35.1569 10.7072 34.7041C11.16 34.2513 11.7741 33.9969 12.4145 33.9969Z" fill="#476993" fill-opacity="0.1"/>
<path d="M25.3124 40.0975L21.0527 38.5232L16.7931 40.0975L14.5266 44.0838L15.3137 48.6169L18.7863 51.5757H23.3193L26.7918 48.6169L27.5789 44.0838L25.3124 40.0975Z" fill="#F8EE45"/>
<path d="M27.4651 37.595L25.3124 40.0975L27.5788 44.0838L30.877 43.5959L27.4651 37.595Z" fill="#E6CA40"/>
<path d="M25.3124 40.0975L29.171 40.5955L27.5788 44.0839L25.3124 40.0975Z" fill="#E6B740"/>
<path d="M30.8772 43.5961L27.5788 44.0839L26.7916 48.6158L29.692 50.42L30.8772 43.5961Z" fill="#F8EE45"/>
<path d="M27.5788 44.0839L30.2846 47.0081L26.7916 48.6159L27.5788 44.0839Z" fill="#E6B740"/>
<path d="M29.6918 50.42L26.7917 48.6158L23.3192 51.5757L24.4645 54.874L29.6918 50.42Z" fill="#E6CA40"/>
<path d="M26.7917 48.6158L27.0781 52.647L23.3192 51.5757L26.7917 48.6158Z" fill="#E6B740"/>
<path d="M24.4644 54.8742L23.3191 51.5757H18.7861L17.6405 54.874L24.4644 54.8742Z" fill="#E69040"/>
<path d="M23.3192 51.5757L21.0526 54.8741L18.7863 51.5757H23.3192Z" fill="#E6A440"/>
<path d="M21.0526 35.225L21.0528 38.5232L25.3124 40.0975L27.4646 37.5957L21.0526 35.225Z" fill="#E6A440"/>
<path d="M21.0527 38.5232L24.2586 36.4103L25.3124 40.0974L21.0527 38.5232Z" fill="#E6CA40"/>
<path d="M14.6402 37.595L16.7929 40.0975L14.5264 44.0838L11.2283 43.5959L14.6402 37.595Z" fill="#E6B740"/>
<path d="M16.793 40.0975L12.9343 40.5955L14.5265 44.0839L16.793 40.0975Z" fill="#E6CA40"/>
<path d="M11.228 43.5961L14.5263 44.0839L15.3135 48.6158L12.4132 50.42L11.228 43.5961Z" fill="#F8EE45"/>
<path d="M14.5264 44.0839L11.8207 47.0081L15.3136 48.6159L14.5264 44.0839Z" fill="#E6CA40"/>
<path d="M12.4135 50.42L15.3135 48.6158L18.786 51.5757L17.6408 54.874L12.4135 50.42Z" fill="#E6CA40"/>
<path d="M15.3136 48.6158L15.0272 52.647L18.7861 51.5757L15.3136 48.6158Z" fill="#E6A440"/>
<path d="M21.0527 35.225L21.0525 38.5232L16.7929 40.0975L14.6406 37.5957L21.0527 35.225Z" fill="#F8EE45"/>
<path d="M21.0525 38.5232L17.8467 36.4103L16.7928 40.0974L21.0525 38.5232Z" fill="#E6CA40"/>
<g style="mix-blend-mode:soft-light">
<path d="M22.378 39.0661C22.8307 39.2165 23.282 39.371 23.7369 39.5153C23.2972 39.3288 22.8536 39.1527 22.4115 38.9724C22.0295 38.8153 21.6442 38.6677 21.2599 38.517C21.5512 38.3132 21.8272 38.0877 22.0857 37.8424C21.7289 37.9962 21.3844 38.178 21.0554 38.3862C20.8271 38.23 20.5942 38.0808 20.3555 37.941C20.0953 37.7868 19.8256 37.65 19.548 37.5316C19.7676 37.7408 20.0004 37.9353 20.245 38.1138C20.4354 38.2542 20.6308 38.3867 20.8287 38.5153L19.9533 38.8208L18.8859 39.2076C18.2469 39.4421 17.6051 39.6686 16.9679 39.9083C17.2077 39.0459 17.4305 38.1785 17.5943 37.2936C17.2474 38.1775 16.966 39.0807 16.7014 39.9888C15.7607 40.1143 14.8223 40.2582 13.8926 40.4718C14.7938 40.444 15.6871 40.3533 16.5781 40.2443L15.5721 42.0394L14.474 44.0531L14.4627 44.0741L14.4669 44.0945C14.592 44.7014 14.7109 45.3095 14.8444 45.9149C14.7669 45.3075 14.6752 44.7026 14.5893 44.0967L15.7472 42.1419L16.8713 40.1931C17.5709 39.9428 18.2632 39.6724 18.9596 39.4131L20.022 39.0128L21.0261 38.6207H21.0855C21.5162 38.7694 21.945 38.9235 22.378 39.0661Z" fill="#F8F8F8"/>
</g>
<g style="mix-blend-mode:soft-light">
<path d="M26.1777 41.6194L17.474 50.4574L18.7863 51.5757H19.6694L27.3843 43.7416L26.1777 41.6194Z" fill="#F8F8F8"/>
<path d="M25.3124 40.0975L21.8488 38.8174L14.8468 45.9275L15.3137 48.6169L16.6349 49.7425L25.6128 40.6259L25.3124 40.0975Z" fill="#F8F8F8"/>
</g>
<g style="mix-blend-mode:multiply">
<path d="M29.171 40.5955L27.5788 44.0839L26.7917 48.6158L23.3192 51.5757L24.4645 54.8741L29.6918 50.42L30.8772 43.5961L29.171 40.5955Z" fill="#F5A57A"/>
</g>
<g style="mix-blend-mode:soft-light">
<path d="M27.1908 46.0958C27.1315 46.3731 27.0705 46.6502 27.0171 46.9286C26.9114 47.4722 26.7973 48.0144 26.6982 48.5593L25.8518 49.269C25.5618 49.5148 25.2665 49.7544 24.9806 50.0052L24.1183 50.7522C23.8401 50.9952 23.5582 51.2337 23.2829 51.4802L21.891 51.5143C21.415 51.5341 20.939 51.5473 20.4629 51.5756C20.939 51.604 21.415 51.6173 21.891 51.637L23.1242 51.6673C22.9939 51.8665 22.8644 52.0665 22.7405 52.2703C22.5854 52.5287 22.4364 52.7913 22.2981 53.0615C22.5002 52.8365 22.6915 52.6039 22.8768 52.3669C23.0437 52.1511 23.2059 51.932 23.3637 51.7096C23.735 51.8209 24.1091 51.9225 24.4857 52.0146C24.6874 52.0618 24.8891 52.1087 25.0925 52.1493C25.2965 52.1878 25.5 52.228 25.7069 52.2562C25.5158 52.1709 25.3214 52.0976 25.1275 52.0228C24.9329 51.95 24.7367 51.8834 24.5403 51.8173C24.2091 51.7096 23.8757 51.6095 23.5402 51.5171C23.7802 51.3193 24.0173 51.1181 24.2564 50.9192L25.1303 50.1863C25.4232 49.9438 25.7066 49.6901 25.9953 49.4425L26.8575 48.6955L26.8926 48.6339C26.9859 48.0747 27.0625 47.5126 27.1484 46.952C27.192 46.6719 27.228 46.3904 27.2657 46.1093C27.3037 45.8281 27.3414 45.5469 27.3738 45.2648C27.3091 45.5411 27.2498 45.8184 27.1908 46.0958Z" fill="#F8F8F8"/>
</g>
<g style="mix-blend-mode:soft-light">
<path d="M24.2586 36.4103L23.2974 39.3529L21.0525 38.5232L16.7928 40.0975L14.5265 44.0838L14.963 46.5975L11.8206 47.008L11.228 43.5961L14.6406 37.5957L21.0526 35.225L24.2586 36.4103Z" fill="#FF5C00"/>
</g>
<path d="M36.3619 33.9969H53.6381C54.2785 33.9969 54.8927 34.2513 55.3455 34.7041C55.7983 35.1569 56.0527 35.7711 56.0527 36.4115V53.6877C56.0527 54.0048 55.9902 54.3187 55.8689 54.6117C55.7475 54.9047 55.5697 55.1708 55.3455 55.395C55.1213 55.6192 54.8551 55.7971 54.5621 55.9184C54.2692 56.0398 53.9552 56.1022 53.6381 56.1022H36.3619C35.7215 56.1022 35.1074 55.8478 34.6546 55.395C34.2018 54.9422 33.9474 54.3281 33.9474 53.6877V36.4115C33.9474 35.7711 34.2018 35.1569 34.6546 34.7041C35.1074 34.2513 35.7215 33.9969 36.3619 33.9969Z" fill="#1A212D" fill-opacity="0.8"/>
<path d="M45 54.8741C50.426 54.8741 54.8245 50.4755 54.8245 45.0495C54.8245 39.6236 50.426 35.225 45 35.225C39.574 35.225 35.1754 39.6236 35.1754 45.0495C35.1754 50.4755 39.574 54.8741 45 54.8741Z" fill="url(#paint39_linear_3418_7843)"/>
<path d="M54.0785 41.2892L50.55 42.7507V47.3485L54.0785 48.81C55.0732 46.4018 55.0732 43.6974 54.0785 41.2892Z" fill="url(#paint40_linear_3418_7843)"/>
<path style="mix-blend-mode:screen" d="M54.0785 41.2892L50.55 42.7507V47.3485L54.0785 48.81C55.0732 46.4018 55.0732 43.6974 54.0785 41.2892ZM53.8805 48.344L50.9048 47.1114V42.9877L53.8805 41.7552C54.6662 43.8812 54.6662 46.218 53.8805 48.344Z" fill="url(#paint41_linear_3418_7843)"/>
<path d="M39.4499 47.3485L35.9215 48.81C36.9217 51.2159 38.8337 53.1279 41.2395 54.1281L42.7011 50.5996L39.4499 47.3485Z" fill="url(#paint42_linear_3418_7843)"/>
<path style="mix-blend-mode:screen" d="M39.4499 47.3485C38.8083 47.6156 35.9215 48.81 35.9215 48.81C36.9217 51.2159 38.8337 53.1279 41.2395 54.1281C41.2395 54.1281 39.1187 50.2765 39.4499 47.3485Z" fill="url(#paint43_linear_3418_7843)"/>
<path d="M47.299 50.5996H42.7011L41.2396 54.128C43.6479 55.1227 46.3522 55.1228 48.7604 54.128L47.299 50.5996Z" fill="url(#paint44_linear_3418_7843)"/>
<g style="mix-blend-mode:screen">
<path d="M47.0619 50.9544L48.2945 53.93C46.1684 54.7156 43.8317 54.7156 41.7056 53.93L42.9382 50.9544H47.0619ZM47.299 50.5996H42.7011L41.2396 54.128C43.6479 55.1227 46.3522 55.1228 48.7604 54.128L47.299 50.5996Z" fill="url(#paint45_linear_3418_7843)"/>
</g>
<path d="M47.2988 50.5996L48.7604 54.1281C51.1662 53.1279 53.0782 51.2159 54.0784 48.81L50.55 47.3485L47.2988 50.5996Z" fill="url(#paint46_linear_3418_7843)"/>
<path d="M39.4499 42.7507L42.7011 39.4995L41.2395 35.9711C38.8337 36.9713 36.9216 38.8833 35.9215 41.2892L39.4499 42.7507Z" fill="url(#paint47_linear_3418_7843)"/>
<path style="mix-blend-mode:screen" opacity="0.47" d="M42.7011 39.4995C42.3266 38.6717 41.2395 35.9711 41.2395 35.9711C38.8337 36.9713 36.9216 38.8833 35.9215 41.2892C35.9215 41.2892 38.6428 36.4246 42.7011 39.4995Z" fill="url(#paint48_linear_3418_7843)"/>
<path d="M39.4499 47.3485V42.7507L35.9215 41.2892C34.9267 43.6974 34.9267 46.4018 35.9215 48.81L39.4499 47.3485Z" fill="url(#paint49_linear_3418_7843)"/>
<path style="mix-blend-mode:screen" d="M39.4499 47.3485V42.7507L35.9215 41.2892C37.6202 42.9556 38.839 45.0486 39.4499 47.3485Z" fill="url(#paint50_linear_3418_7843)"/>
<path d="M42.701 39.4995H47.2989L48.7604 35.971C46.3521 34.9763 43.6478 34.9763 41.2395 35.971L42.701 39.4995Z" fill="url(#paint51_linear_3418_7843)"/>
<path style="mix-blend-mode:screen" d="M42.701 39.4995H47.2989L48.7604 35.971C47.5683 35.477 46.2904 35.2235 45 35.225C45 38.7899 42.701 39.4995 42.701 39.4995Z" fill="url(#paint52_linear_3418_7843)"/>
<path d="M47.2988 39.4995L50.55 42.7507L54.0784 41.2892C53.0782 38.8833 51.1662 36.9713 48.7604 35.9711L47.2988 39.4995Z" fill="url(#paint53_linear_3418_7843)"/>
<path d="M42.7012 50.5998L39.4498 47.3484V42.7508L42.7012 39.4994H47.2988L50.5502 42.7508V47.3484L47.2988 50.5998H42.7012Z" fill="url(#paint54_linear_3418_7843)"/>
<path style="mix-blend-mode:screen" d="M42.7011 50.5997L39.45 47.3485C39.45 47.3485 42.6551 48.9436 45.4426 48.0738C49.9253 46.6752 50.55 42.7507 50.55 42.7507V47.3485L47.2989 50.5997H42.7011Z" fill="url(#paint55_linear_3418_7843)"/>
<path d="M39.6401 46.9834C39.6682 45.7076 39.6987 44.4313 39.7045 43.1553C39.7051 42.9647 39.7815 42.7824 39.9165 42.6481C40.8138 41.7572 41.7078 40.8633 42.5986 39.9663C42.7329 39.8312 42.9152 39.7549 43.1057 39.7542C44.3817 39.7483 45.6579 39.7185 46.9336 39.6903C47.1225 39.6862 47.3055 39.7564 47.4431 39.886C48.4693 40.8512 49.5001 41.811 50.5501 42.7507C49.6691 41.7664 48.7704 40.7991 47.8662 39.8365C47.7771 39.7416 47.7152 39.6244 47.6874 39.4972C47.6595 39.37 47.6666 39.2376 47.7079 39.1141L48.7604 35.9711L47.2996 38.903C47.2386 39.0254 47.144 39.1279 47.027 39.1986C46.91 39.2692 46.7752 39.3051 46.6385 39.3021C45.5305 39.2776 44.422 39.2543 43.3137 39.2469C43.1805 39.2461 43.0501 39.2085 42.9371 39.1381C42.8241 39.0678 42.7327 38.9674 42.6732 38.8483L41.2395 35.9711L42.2584 39.0134C42.301 39.1408 42.3072 39.2775 42.2762 39.4082C42.2452 39.5389 42.1783 39.6583 42.083 39.753C41.2876 40.5439 40.4944 41.3371 39.7037 42.1326C39.609 42.2279 39.4895 42.2948 39.3588 42.3258C39.2281 42.3569 39.0914 42.3506 38.964 42.308L35.9215 41.2892L38.7987 42.7228C38.9179 42.7823 39.0183 42.8737 39.0887 42.9869C39.1591 43.1 39.1968 43.2305 39.1975 43.3637C39.2049 44.4718 39.2287 45.58 39.2532 46.6878C39.2562 46.8245 39.2203 46.9592 39.1496 47.0763C39.0789 47.1934 38.9765 47.2879 38.8541 47.3488L35.9215 48.8101L39.0653 47.7573C39.1887 47.716 39.3211 47.7088 39.4483 47.7367C39.5754 47.7646 39.6927 47.8264 39.7876 47.9156C40.7502 48.8196 41.7173 49.7183 42.7011 50.5997C41.7609 49.5501 40.801 48.5192 39.8357 47.4929C39.7062 47.3553 39.6359 47.1723 39.6401 46.9834Z" fill="url(#paint56_linear_3418_7843)"/>
<path d="M53.6381 57.9443H36.3619C35.0284 57.9443 33.9474 59.0253 33.9474 60.3588V77.6352C33.9474 78.9689 35.0284 80.0496 36.3619 80.0496H53.6381C54.9716 80.0496 56.0527 78.9689 56.0527 77.6352V60.3588C56.0527 59.0253 54.9716 57.9443 53.6381 57.9443Z" fill="#476993" fill-opacity="0.1"/>
<path d="M49.9981 66.9263V71.0673L47.0708 73.9945H42.9295L40.0017 71.0673V66.9263L42.9295 63.9988H47.0708L49.9981 66.9263Z" fill="#1033E0"/>
<path d="M37.8826 75.7028L35.2255 69.2876C35.1587 69.0995 35.1587 68.8943 35.2255 68.7063L37.8826 62.2906C37.9687 62.1107 38.1138 61.9658 38.2937 61.8798L44.7094 59.2224C44.8974 59.1557 45.1025 59.1557 45.2906 59.2224L51.7064 61.8798C51.8863 61.9658 52.0313 62.1108 52.1173 62.2906L54.7747 68.7063C54.8412 68.8944 54.8412 69.0995 54.7747 69.2876L52.1173 75.7028C52.0313 75.8827 51.8863 76.0283 51.7064 76.1142L45.2906 78.7718C45.1025 78.8381 44.8974 78.8381 44.7094 78.7718L38.2937 76.1142C38.1138 76.0283 37.9687 75.8833 37.8826 75.7028Z" fill="url(#paint57_linear_3418_7843)"/>
<path d="M47.071 63.9988L45.0004 59.3295L51.8359 62.1599L47.071 63.9988Z" fill="url(#paint58_linear_3418_7843)"/>
<path d="M38.1628 75.8335L42.9296 73.9945L45.0004 78.6642L38.1628 75.8335Z" fill="url(#paint59_linear_3418_7843)"/>
<path d="M35.332 68.9971L40.0018 71.0674L38.1628 75.8336L35.332 68.9971Z" fill="url(#paint60_linear_3418_7843)"/>
<path d="M38.1628 62.1599L40.0018 66.9263L35.332 68.9971L38.1628 62.1599Z" fill="url(#paint61_linear_3418_7843)"/>
<path d="M42.9296 63.9988L38.1628 62.1599L45.0004 59.3295L42.9296 63.9988Z" fill="url(#paint62_linear_3418_7843)"/>
<path d="M49.9981 66.9263V71.0673L47.0708 73.9945H42.9295L40.0017 71.0673V66.9263L42.9295 63.9988H47.0708L49.9981 66.9263Z" fill="#1033E0"/>
<path d="M51.8359 75.8323L45.0004 78.6642L47.071 73.9945L51.8359 75.8323Z" fill="url(#paint63_linear_3418_7843)"/>
<path d="M54.668 68.9971L51.836 75.8324L49.9983 71.0674L54.668 68.9971Z" fill="url(#paint64_linear_3418_7843)"/>
<path opacity="0.3" d="M50.3132 71.1723L54.668 68.9971L49.9983 71.0674L51.836 75.8324L50.3132 71.1723Z" fill="#DEECE9"/>
<path d="M54.668 68.9971L49.9983 66.9263L51.836 62.1599L54.668 68.9971Z" fill="url(#paint65_linear_3418_7843)"/>
<path d="M47.0709 63.9988H42.9296L45.0003 59.3295L47.0709 63.9988Z" fill="url(#paint66_linear_3418_7843)"/>
<path opacity="0.3" d="M43.1396 63.7893L45.0003 59.3295L42.9296 63.9988H47.0709L43.1396 63.7893Z" fill="white"/>
<path d="M51.8359 62.1599L49.9982 66.9263L47.0709 63.9988L51.8359 62.1599Z" fill="url(#paint67_linear_3418_7843)"/>
<path d="M54.668 68.9972L49.9983 71.0674V66.9264L54.668 68.9972Z" fill="url(#paint68_radial_3418_7843)"/>
<path opacity="0.3" d="M50.208 67.3459L54.668 68.9972L49.9983 66.9264V71.0674L50.208 67.3459Z" fill="#B9E0E6"/>
<path d="M51.8359 75.8324L47.0709 73.9945L49.9982 71.0674L51.8359 75.8324Z" fill="url(#paint69_linear_3418_7843)"/>
<path d="M47.0709 73.9945L45.0003 78.6642L42.9296 73.9945H47.0709Z" fill="url(#paint70_linear_3418_7843)"/>
<path opacity="0.3" d="M43.2562 74.2573L47.0709 73.9945H42.9296L45.0003 78.6642L43.2562 74.2573Z" fill="#DEECE9"/>
<path d="M42.9296 73.9945L38.1628 75.8336L40.0018 71.0674L42.9296 73.9945Z" fill="url(#paint71_linear_3418_7843)"/>
<path opacity="0.3" d="M40.1069 71.4868L42.9296 73.9945L40.0018 71.0674L38.1628 75.8336L40.1069 71.4868Z" fill="#B9E0E6"/>
<path d="M40.0018 66.9264V71.0674L35.332 68.9972L40.0018 66.9264Z" fill="url(#paint72_linear_3418_7843)"/>
<path opacity="0.3" d="M35.332 68.9972L39.7923 67.241L40.0018 71.0674V66.9264L35.332 68.9972Z" fill="#B9E0E6"/>
<path d="M42.9296 63.9988L40.0018 66.9263L38.1628 62.1599L42.9296 63.9988Z" fill="url(#paint73_linear_3418_7843)"/>
<path opacity="0.3" d="M40.1224 66.4304L38.1628 62.1599L40.0018 66.9263L42.9296 63.9988L40.1224 66.4304Z" fill="#DEECE9"/>
<path d="M49.9981 66.9263V71.0673L47.0708 73.9945H42.9295L40.0017 71.0673V66.9263L42.9295 63.9988H47.0708L49.9981 66.9263Z" fill="url(#paint74_linear_3418_7843)"/>
<path opacity="0.5" d="M47.0708 63.9988H42.9295L40.0017 66.9263L42.9295 64.3137H47.0708L49.9981 66.9263L47.0708 63.9988Z" fill="#B6DDF9"/>
<path opacity="0.5" d="M47.0708 73.9945H42.9295L40.0017 71.0674L42.9295 73.6802H47.0708L49.9981 71.0674L47.0708 73.9945Z" fill="#B6DDF9"/>
<path opacity="0.3" d="M49.9981 66.9263V67.4352L45.8099 73.9945H42.9295L40.0017 71.0673V68.9791L44.8343 63.9988H47.0708L49.9981 66.9263Z" fill="#D1E8F9"/>
<path d="M77.5857 57.9443H60.3093C58.9758 57.9443 57.8948 59.0253 57.8948 60.3588V77.6352C57.8948 78.9689 58.9758 80.0496 60.3093 80.0496H77.5857C78.9193 80.0496 80 78.9689 80 77.6352V60.3588C80 59.0253 78.9193 57.9443 77.5857 57.9443Z" fill="#1A212D" fill-opacity="0.8"/>
<path d="M68.9474 78.8215C74.3736 78.8215 78.7719 74.4232 78.7719 68.9969C78.7719 63.5709 74.3736 59.1724 68.9474 59.1724C63.5214 59.1724 59.1228 63.5709 59.1228 68.9969C59.1228 74.4232 63.5214 78.8215 68.9474 78.8215Z" fill="url(#paint75_linear_3418_7843)"/>
<path d="M78.0259 65.2366L74.4977 66.6981V71.2959L78.0259 72.7573C79.0207 70.3492 79.0207 67.6448 78.0259 65.2366Z" fill="url(#paint76_linear_3418_7843)"/>
<path style="mix-blend-mode:screen" d="M78.0259 65.2366L74.4977 66.6981V71.2959L78.0259 72.7573C79.0207 70.3492 79.0207 67.6448 78.0259 65.2366ZM77.8276 72.2913L74.852 71.0588V66.9351L77.8276 65.7026C78.6136 67.8286 78.6136 70.1654 77.8276 72.2913Z" fill="url(#paint77_linear_3418_7843)"/>
<path d="M63.3973 71.2959L59.8689 72.7573C60.8691 75.1631 62.7811 77.0752 65.1869 78.0755L66.6485 74.5472L63.3973 71.2959Z" fill="url(#paint78_linear_3418_7843)"/>
<path style="mix-blend-mode:screen" d="M63.3973 71.2959C62.7557 71.563 59.8689 72.7573 59.8689 72.7573C60.8691 75.1631 62.7811 77.0752 65.1869 78.0755C65.1869 78.0755 63.0661 74.2242 63.3973 71.2959Z" fill="url(#paint79_linear_3418_7843)"/>
<path d="M71.2464 74.5472H66.6485L65.187 78.0755C67.5953 79.0702 70.2996 79.0702 72.7078 78.0755L71.2464 74.5472Z" fill="url(#paint80_linear_3418_7843)"/>
<g style="mix-blend-mode:screen">
<path d="M71.0093 74.9015L72.2417 77.8778C70.1158 78.6631 67.779 78.6631 65.653 77.8778L66.8856 74.9015H71.0093ZM71.2464 74.5472H66.6485L65.187 78.0755C67.5953 79.0702 70.2996 79.0702 72.7078 78.0755L71.2464 74.5472Z" fill="url(#paint81_linear_3418_7843)"/>
</g>
<path d="M71.2462 74.5472L72.7077 78.0755C75.1135 77.0752 77.0256 75.1631 78.0258 72.7573L74.4976 71.2959L71.2462 74.5472Z" fill="url(#paint82_linear_3418_7843)"/>
<path d="M63.3973 66.6981L66.6485 63.4469L65.1869 59.9185C62.7811 60.9187 60.869 62.8307 59.8689 65.2366L63.3973 66.6981Z" fill="url(#paint83_linear_3418_7843)"/>
<path style="mix-blend-mode:screen" opacity="0.47" d="M66.6485 63.4469C66.274 62.619 65.1869 59.9185 65.1869 59.9185C62.7811 60.9187 60.869 62.8307 59.8689 65.2366C59.8689 65.2366 62.5902 60.372 66.6485 63.4469Z" fill="url(#paint84_linear_3418_7843)"/>
<path d="M63.3973 71.2959V66.6981L59.8689 65.2366C58.8741 67.6448 58.8741 70.3492 59.8689 72.7573L63.3973 71.2959Z" fill="url(#paint85_linear_3418_7843)"/>
<path style="mix-blend-mode:screen" d="M63.3973 71.2959V66.6981L59.8689 65.2366C61.5676 66.9029 62.7864 68.996 63.3973 71.2959Z" fill="url(#paint86_linear_3418_7843)"/>
<path d="M66.6484 63.4469H71.2462L72.7077 59.9184C70.2995 58.9237 67.5952 58.9237 65.1869 59.9184L66.6484 63.4469Z" fill="url(#paint87_linear_3418_7843)"/>
<path style="mix-blend-mode:screen" d="M66.6484 63.4469H71.2463L72.7077 59.9184C71.5159 59.4244 70.2378 59.1709 68.9474 59.1724C68.9474 62.7373 66.6484 63.4469 66.6484 63.4469Z" fill="url(#paint88_linear_3418_7843)"/>
<path d="M71.2462 63.4469L74.4976 66.6981L78.0258 65.2366C77.0256 62.8307 75.1135 60.9187 72.7077 59.9185L71.2462 63.4469Z" fill="url(#paint89_linear_3418_7843)"/>
<path d="M66.6486 74.5472L63.3972 71.2957V66.6982L66.6486 63.4468H71.2462L74.4976 66.6982V71.2957L71.2462 74.5472H66.6486Z" fill="url(#paint90_linear_3418_7843)"/>
<path style="mix-blend-mode:screen" d="M66.6485 74.5471L63.3973 71.2958C63.3973 71.2958 66.6025 72.8911 69.39 72.021C73.8726 70.6225 74.4977 66.698 74.4977 66.698V71.2958L71.2463 74.5471H66.6485Z" fill="url(#paint91_linear_3418_7843)"/>
<path d="M63.5875 70.9307C63.6156 69.655 63.6461 68.3787 63.6518 67.1027C63.6525 66.9121 63.7288 66.7298 63.8639 66.5955C64.7612 65.7046 65.6552 64.8107 66.546 63.9137C66.6803 63.7786 66.8626 63.7023 67.0531 63.7016C68.3291 63.6957 69.6053 63.6659 70.8809 63.6377C71.0699 63.6336 71.2529 63.7038 71.3905 63.8334C72.4167 64.7986 73.4477 65.7584 74.4977 66.6981C73.6165 65.7138 72.7176 64.7465 71.8137 63.7839C71.7247 63.689 71.6627 63.5718 71.635 63.4446C71.6068 63.3174 71.6142 63.185 71.6553 63.0615L72.7078 59.9185L71.247 62.8504C71.186 62.9728 71.0914 63.0753 70.9744 63.146C70.8574 63.2166 70.7226 63.2525 70.5859 63.2495C69.4779 63.225 68.3694 63.2016 67.2611 63.1943C67.1279 63.1935 66.9975 63.1559 66.8845 63.0855C66.7715 63.0152 66.6801 62.9148 66.6206 62.7956L65.1869 59.9185L66.2057 62.9608C66.2484 63.0882 66.2546 63.2249 66.2236 63.3556C66.1926 63.4862 66.1257 63.6057 66.0304 63.7004C65.2349 64.4913 64.4418 65.2845 63.651 66.08C63.5564 66.1753 63.4369 66.2422 63.3062 66.2732C63.1755 66.3042 63.0388 66.298 62.9114 66.2554L59.8689 65.2366L62.7461 66.6701C62.8653 66.7296 62.9657 66.8211 63.0361 66.9342C63.1065 67.0474 63.1442 67.1779 63.1449 67.3111C63.1523 68.4192 63.1761 69.5274 63.2006 70.6352C63.2036 70.7719 63.1677 70.9066 63.097 71.0237C63.0263 71.1407 62.9238 71.2352 62.8015 71.2962L59.8689 72.7573L63.0127 71.7049C63.1361 71.6631 63.2685 71.6564 63.3957 71.684C63.5228 71.7122 63.6401 71.7736 63.735 71.8627C64.6975 72.7671 65.6647 73.6655 66.6485 74.5472C65.7083 73.4972 64.7484 72.4669 63.7831 71.4403C63.6536 71.3027 63.5833 71.1197 63.5875 70.9307Z" fill="url(#paint92_linear_3418_7843)"/>
<path d="M60.3093 33.9969H77.5857C77.9025 33.9969 78.2169 34.0594 78.5098 34.1807C78.8027 34.3021 79.0685 34.4799 79.2927 34.7041C79.5168 34.9283 79.6949 35.1945 79.8164 35.4875C79.9374 35.7804 80 36.0944 80 36.4115V53.6877C80 54.0048 79.9374 54.3187 79.8164 54.6117C79.6949 54.9047 79.5168 55.1708 79.2927 55.395C79.0685 55.6192 78.8027 55.7971 78.5098 55.9184C78.2169 56.0398 77.9025 56.1022 77.5857 56.1022H60.3093C59.6689 56.1022 59.0548 55.8478 58.602 55.395C58.1492 54.9422 57.8948 54.3281 57.8948 53.6877V36.4115C57.8948 36.0944 57.9572 35.7804 58.0786 35.4875C58.1999 35.1945 58.3778 34.9283 58.602 34.7041C58.8261 34.4799 59.0923 34.3021 59.3853 34.1807C59.6782 34.0594 59.9922 33.9969 60.3093 33.9969Z" fill="#476993" fill-opacity="0.1"/>
<path d="M73.2069 40.0975L68.9474 38.5232L64.6878 40.0975L62.4213 44.0838L63.2084 48.6169L66.6809 51.5757H71.2139L74.6867 48.6169L75.4733 44.0838L73.2069 40.0975Z" fill="#F8EE45"/>
<path d="M75.3597 37.595L73.2069 40.0975L75.4733 44.0838L78.7719 43.5959L75.3597 37.595Z" fill="#E6CA40"/>
<path d="M73.2069 40.0975L77.0655 40.5955L75.4733 44.0839L73.2069 40.0975Z" fill="#E6B740"/>
<path d="M78.7719 43.5961L75.4733 44.0839L74.6862 48.6158L77.5869 50.42L78.7719 43.5961Z" fill="#F8EE45"/>
<path d="M75.4733 44.0839L78.1794 47.0081L74.6862 48.6159L75.4733 44.0839Z" fill="#E6B740"/>
<path d="M77.5863 50.42L74.6862 48.6158L71.214 51.5757L72.359 54.874L77.5863 50.42Z" fill="#E6CA40"/>
<path d="M74.6862 48.6158L74.9729 52.647L71.214 51.5757L74.6862 48.6158Z" fill="#E6B740"/>
<path d="M72.3589 54.8742L71.2139 51.5757H66.6809L65.5353 54.874L72.3589 54.8742Z" fill="#E69040"/>
<path d="M71.2138 51.5757L68.9473 54.8741L66.6809 51.5757H71.2138Z" fill="#E6A440"/>
<path d="M68.9473 35.225L68.9474 38.5232L73.2069 40.0975L75.3591 37.5957L68.9473 35.225Z" fill="#E6A440"/>
<path d="M68.9474 38.5232L72.1532 36.4103L73.2069 40.0974L68.9474 38.5232Z" fill="#E6CA40"/>
<path d="M62.5349 37.595L64.6876 40.0975L62.4212 44.0838L59.123 43.5959L62.5349 37.595Z" fill="#E6B740"/>
<path d="M64.6876 40.0975L60.829 40.5955L62.4211 44.0839L64.6876 40.0975Z" fill="#E6CA40"/>
<path d="M59.1228 43.5961L62.4211 44.0839L63.2083 48.6158L60.308 50.42L59.1228 43.5961Z" fill="#F8EE45"/>
<path d="M62.4211 44.0839L59.7155 47.0081L63.2083 48.6159L62.4211 44.0839Z" fill="#E6CA40"/>
<path d="M60.3082 50.42L63.2083 48.6158L66.6808 51.5757L65.5356 54.874L60.3082 50.42Z" fill="#E6CA40"/>
<path d="M63.2083 48.6158L62.9219 52.647L66.6808 51.5757L63.2083 48.6158Z" fill="#E6A440"/>
<path d="M68.9475 35.225L68.9473 38.5232L64.6877 40.0975L62.5354 37.5957L68.9475 35.225Z" fill="#F8EE45"/>
<path d="M68.9473 38.5232L65.7414 36.4103L64.6876 40.0974L68.9473 38.5232Z" fill="#E6CA40"/>
<g style="mix-blend-mode:soft-light">
<path d="M70.2728 39.0661C70.7255 39.2165 71.1767 39.371 71.6319 39.5153C71.1919 39.3288 70.7483 39.1527 70.3063 38.9724C69.9243 38.8153 69.5389 38.6677 69.1546 38.517C69.446 38.3132 69.722 38.0877 69.9804 37.8424C69.6236 37.9962 69.2792 38.178 68.9502 38.3862C68.7218 38.23 68.489 38.0808 68.2503 37.941C67.9901 37.7868 67.7203 37.65 67.4427 37.5316C67.6623 37.7408 67.8952 37.9353 68.1397 38.1138C68.3301 38.2542 68.5255 38.3867 68.7235 38.5153L67.848 38.8208L66.7807 39.2076C66.1417 39.4421 65.4998 39.6686 64.8627 39.9083C65.1025 39.0459 65.3253 38.1785 65.489 37.2936C65.1421 38.1775 64.8607 39.0807 64.5962 39.9888C63.6555 40.1143 62.717 40.2582 61.7874 40.4718C62.6885 40.444 63.5818 40.3533 64.4728 40.2443L63.4669 42.0394L62.3688 44.0531L62.3574 44.0741L62.3616 44.0945C62.4867 44.7014 62.6057 45.3095 62.7392 45.9149C62.6617 45.3075 62.57 44.7026 62.4841 44.0967L63.6419 42.1419L64.766 40.1931C65.4656 39.9428 66.1579 39.6724 66.8543 39.4131L67.9168 39.0128L68.9208 38.6207H68.9802C69.411 38.7694 69.8397 38.9235 70.2728 39.0661Z" fill="#F8F8F8"/>
</g>
<g style="mix-blend-mode:soft-light">
<path d="M74.0721 41.6194L65.3687 50.4574L66.6809 51.5757H67.5641L75.2793 43.7416L74.0721 41.6194Z" fill="#F8F8F8"/>
<path d="M73.2069 40.0975L69.7435 38.8174L62.7415 45.9275L63.2084 48.6169L64.5295 49.7425L73.5078 40.6259L73.2069 40.0975Z" fill="#F8F8F8"/>
</g>
<g style="mix-blend-mode:multiply">
<path d="M77.0656 40.5955L75.4734 44.0839L74.6862 48.6158L71.214 51.5757L72.359 54.8741L77.5863 50.42L78.772 43.5961L77.0656 40.5955Z" fill="#F5A57A"/>
</g>
<g style="mix-blend-mode:soft-light">
<path d="M75.0853 46.0958C75.0263 46.3731 74.9655 46.6502 74.9121 46.9286C74.8059 47.4722 74.6923 48.0144 74.5928 48.5593L73.7467 49.269C73.4562 49.5148 73.1615 49.7544 72.8754 50.0052L72.0133 50.7522C71.7351 50.9952 71.4533 51.2337 71.1777 51.4802L69.7858 51.5143C69.3098 51.5341 68.8337 51.5473 68.3577 51.5756C68.8337 51.604 69.3098 51.6173 69.7858 51.637L71.019 51.6673C70.8887 51.8665 70.7592 52.0665 70.6352 52.2703C70.4802 52.5287 70.3312 52.7913 70.1928 53.0615C70.395 52.8365 70.5863 52.6039 70.7716 52.3669C70.9385 52.1511 71.1007 51.932 71.2584 51.7096C71.6301 51.8209 72.0041 51.9225 72.3805 52.0146C72.5819 52.0618 72.7839 52.1087 72.9871 52.1493C73.191 52.1878 73.3948 52.228 73.6018 52.2562C73.4108 52.1709 73.2162 52.0976 73.0221 52.0228C72.8275 51.95 72.6316 51.8834 72.4351 51.8173C72.1035 51.7096 71.7707 51.6095 71.4348 51.5171C71.6749 51.3193 71.912 51.1181 72.1514 50.9192L73.0252 50.1863C73.3181 49.9438 73.6012 49.6901 73.8898 49.4425L74.7525 48.6955L74.7875 48.6339C74.8808 48.0747 74.9576 47.5126 75.0429 46.952C75.0865 46.6719 75.1227 46.3904 75.1602 46.1093C75.1983 45.8281 75.2363 45.5469 75.2683 45.2648C75.2038 45.5411 75.1448 45.8184 75.0853 46.0958Z" fill="#F8F8F8"/>
</g>
<g style="mix-blend-mode:soft-light">
<path d="M72.1532 36.4103L71.1922 39.3529L68.9473 38.5232L64.6876 40.0975L62.4213 44.0838L62.8578 46.5975L59.7154 47.008L59.1228 43.5961L62.5354 37.5957L68.9474 35.225L72.1532 36.4103Z" fill="#FF5C00"/>
</g>
<path d="M29.6908 57.9443H12.4145C11.081 57.9443 10 59.0253 10 60.3588V77.6352C10 78.9689 11.081 80.0496 12.4145 80.0496H29.6908C31.0243 80.0496 32.1053 78.9689 32.1053 77.6352V60.3588C32.1053 59.0253 31.0243 57.9443 29.6908 57.9443Z" fill="#1A212D" fill-opacity="0.8"/>
<path d="M21.0526 78.8215C26.4786 78.8215 30.8772 74.4232 30.8772 68.9969C30.8772 63.5709 26.4786 59.1724 21.0526 59.1724C15.6266 59.1724 11.228 63.5709 11.228 68.9969C11.228 74.4232 15.6266 78.8215 21.0526 78.8215Z" fill="url(#paint93_linear_3418_7843)"/>
<path d="M30.1312 65.2366L26.6027 66.6981V71.2959L30.1312 72.7573C31.1258 70.3492 31.1258 67.6448 30.1312 65.2366Z" fill="url(#paint94_linear_3418_7843)"/>
<path style="mix-blend-mode:screen" d="M30.1312 65.2366L26.6027 66.6981V71.2959L30.1312 72.7573C31.1258 70.3492 31.1258 67.6448 30.1312 65.2366ZM29.9331 72.2913L26.9574 71.0588V66.9351L29.9331 65.7026C30.7188 67.8286 30.7188 70.1654 29.9331 72.2913Z" fill="url(#paint95_linear_3418_7843)"/>
<path d="M15.5026 71.2959L11.9741 72.7573C12.9743 75.1631 14.8863 77.0752 17.2922 78.0755L18.7537 74.5472L15.5026 71.2959Z" fill="url(#paint96_linear_3418_7843)"/>
<path style="mix-blend-mode:screen" d="M15.5026 71.2959C14.8609 71.563 11.9741 72.7573 11.9741 72.7573C12.9743 75.1631 14.8863 77.0752 17.2922 78.0755C17.2922 78.0755 15.1713 74.2242 15.5026 71.2959Z" fill="url(#paint97_linear_3418_7843)"/>
<path d="M23.3516 74.5472H18.7537L17.2922 78.0755C19.7005 79.0702 22.4048 79.0702 24.8131 78.0755L23.3516 74.5472Z" fill="url(#paint98_linear_3418_7843)"/>
<g style="mix-blend-mode:screen">
<path d="M23.1145 74.9015L24.3471 77.8778C22.221 78.6631 19.8843 78.6631 17.7582 77.8778L18.9908 74.9015H23.1145ZM23.3516 74.5472H18.7537L17.2922 78.0755C19.7005 79.0702 22.4048 79.0702 24.8131 78.0755L23.3516 74.5472Z" fill="url(#paint99_linear_3418_7843)"/>
</g>
<path d="M23.3516 74.5472L24.8131 78.0755C27.2189 77.0752 29.1309 75.1631 30.1311 72.7573L26.6027 71.2959L23.3516 74.5472Z" fill="url(#paint100_linear_3418_7843)"/>
<path d="M15.5026 66.6981L18.7537 63.4469L17.2922 59.9185C14.8863 60.9187 12.9743 62.8307 11.9741 65.2366L15.5026 66.6981Z" fill="url(#paint101_linear_3418_7843)"/>
<path style="mix-blend-mode:screen" opacity="0.47" d="M18.7537 63.4469C18.3793 62.619 17.2922 59.9185 17.2922 59.9185C14.8863 60.9187 12.9743 62.8307 11.9741 65.2366C11.9741 65.2366 14.6954 60.372 18.7537 63.4469Z" fill="url(#paint102_linear_3418_7843)"/>
<path d="M15.5025 71.2959V66.6981L11.974 65.2366C10.9794 67.6448 10.9794 70.3492 11.974 72.7573L15.5025 71.2959Z" fill="url(#paint103_linear_3418_7843)"/>
<path style="mix-blend-mode:screen" d="M15.5026 71.2959V66.6981L11.9741 65.2366C13.6729 66.9029 14.8917 68.996 15.5026 71.2959Z" fill="url(#paint104_linear_3418_7843)"/>
<path d="M18.7536 63.4469H23.3515L24.813 59.9184C22.4047 58.9237 19.7004 58.9237 17.2921 59.9184L18.7536 63.4469Z" fill="url(#paint105_linear_3418_7843)"/>
<path style="mix-blend-mode:screen" d="M18.7537 63.4469H23.3516L24.813 59.9184C23.6209 59.4244 22.343 59.1709 21.0526 59.1724C21.0526 62.7373 18.7537 63.4469 18.7537 63.4469Z" fill="url(#paint106_linear_3418_7843)"/>
<path d="M23.3516 63.4469L26.6027 66.6981L30.1311 65.2366C29.1309 62.8307 27.2189 60.9187 24.8131 59.9185L23.3516 63.4469Z" fill="url(#paint107_linear_3418_7843)"/>
<path d="M18.7538 74.5472L15.5024 71.2957V66.6982L18.7538 63.4468H23.3514L26.6028 66.6982V71.2957L23.3514 74.5472H18.7538Z" fill="url(#paint108_linear_3418_7843)"/>
<path style="mix-blend-mode:screen" d="M18.7537 74.5471L15.5026 71.2958C15.5026 71.2958 18.7077 72.8911 21.4952 72.021C25.9779 70.6225 26.6027 66.698 26.6027 66.698V71.2958L23.3515 74.5471H18.7537Z" fill="url(#paint109_linear_3418_7843)"/>
<path d="M15.6927 70.9307C15.7209 69.655 15.7514 68.3787 15.7571 67.1027C15.7578 66.9121 15.8341 66.7298 15.9692 66.5955C16.8664 65.7046 17.7604 64.8107 18.6512 63.9137C18.7855 63.7786 18.9679 63.7023 19.1583 63.7016C20.4343 63.6957 21.7105 63.6659 22.9862 63.6377C23.1751 63.6336 23.3581 63.7038 23.4957 63.8334C24.5219 64.7986 25.5527 65.7584 26.6027 66.6981C25.7218 65.7138 24.823 64.7465 23.9188 63.7839C23.8297 63.689 23.7678 63.5718 23.74 63.4446C23.7122 63.3174 23.7192 63.185 23.7605 63.0615L24.8131 59.9185L23.3522 62.8504C23.2912 62.9728 23.1967 63.0753 23.0796 63.146C22.9626 63.2166 22.8278 63.2525 22.6911 63.2495C21.5831 63.225 20.4746 63.2016 19.3663 63.1943C19.2331 63.1935 19.1028 63.1559 18.9897 63.0855C18.8767 63.0152 18.7853 62.9148 18.7258 62.7956L17.2922 59.9185L18.311 62.9608C18.3536 63.0882 18.3598 63.2249 18.3288 63.3556C18.2978 63.4862 18.2309 63.6057 18.1357 63.7004C17.3402 64.4913 16.547 65.2845 15.7563 66.08C15.6616 66.1753 15.5422 66.2422 15.4115 66.2732C15.2808 66.3042 15.144 66.298 15.0166 66.2554L11.9741 65.2366L14.8513 66.6701C14.9705 66.7296 15.071 66.8211 15.1414 66.9342C15.2118 67.0474 15.2494 67.1779 15.2501 67.3111C15.2575 68.4192 15.2813 69.5274 15.3058 70.6352C15.3089 70.7719 15.2729 70.9066 15.2022 71.0237C15.1316 71.1407 15.0291 71.2352 14.9067 71.2962L11.9741 72.7573L15.1179 71.7049C15.2414 71.6631 15.3737 71.6564 15.5009 71.684C15.6281 71.7122 15.7454 71.7736 15.8402 71.8627C16.8028 72.7671 17.7699 73.6655 18.7537 74.5472C17.8136 73.4972 16.8536 72.4669 15.8883 71.4403C15.7588 71.3027 15.6886 71.1197 15.6927 70.9307Z" fill="url(#paint110_linear_3418_7843)"/>
</g>
</g>
</g>
<defs>
<filter id="filter0_diii_3418_7843" x="0" y="0.0495605" width="90" height="90" filterUnits="userSpaceOnUse" color-interpolation-filters="sRGB">
<feFlood flood-opacity="0" result="BackgroundImageFix"/>
<feColorMatrix in="SourceAlpha" type="matrix" values="0 0 0 0 0 0 0 0 0 0 0 0 0 0 0 0 0 0 127 0" result="hardAlpha"/>
<feOffset/>
<feGaussianBlur stdDeviation="3"/>
<feComposite in2="hardAlpha" operator="out"/>
<feColorMatrix type="matrix" values="0 0 0 0 0 0 0 0 0 0 0 0 0 0 0 0 0 0 0.26 0"/>
<feBlend mode="normal" in2="BackgroundImageFix" result="effect1_dropShadow_3418_7843"/>
<feBlend mode="normal" in="SourceGraphic" in2="effect1_dropShadow_3418_7843" result="shape"/>
<feColorMatrix in="SourceAlpha" type="matrix" values="0 0 0 0 0 0 0 0 0 0 0 0 0 0 0 0 0 0 127 0" result="hardAlpha"/>
<feOffset/>
<feGaussianBlur stdDeviation="2"/>
<feComposite in2="hardAlpha" operator="arithmetic" k2="-1" k3="1"/>
<feColorMatrix type="matrix" values="0 0 0 0 0 0 0 0 0 0 0 0 0 0 0 0 0 0 0.25 0"/>
<feBlend mode="normal" in2="shape" result="effect2_innerShadow_3418_7843"/>
<feColorMatrix in="SourceAlpha" type="matrix" values="0 0 0 0 0 0 0 0 0 0 0 0 0 0 0 0 0 0 127 0" result="hardAlpha"/>
<feOffset dx="4" dy="-1"/>
<feGaussianBlur stdDeviation="2.45"/>
<feComposite in2="hardAlpha" operator="arithmetic" k2="-1" k3="1"/>
<feColorMatrix type="matrix" values="0 0 0 0 0 0 0 0 0 0 0 0 0 0 0 0 0 0 0.25 0"/>
<feBlend mode="normal" in2="effect2_innerShadow_3418_7843" result="effect3_innerShadow_3418_7843"/>
<feColorMatrix in="SourceAlpha" type="matrix" values="0 0 0 0 0 0 0 0 0 0 0 0 0 0 0 0 0 0 127 0" result="hardAlpha"/>
<feOffset dy="-4"/>
<feGaussianBlur stdDeviation="2.4"/>
<feComposite in2="hardAlpha" operator="arithmetic" k2="-1" k3="1"/>
<feColorMatrix type="matrix" values="0 0 0 0 0 0 0 0 0 0 0 0 0 0 0 0 0 0 0.25 0"/>
<feBlend mode="normal" in2="effect3_innerShadow_3418_7843" result="effect4_innerShadow_3418_7843"/>
</filter>
<radialGradient id="paint0_radial_3418_7843" cx="0" cy="0" r="1" gradientUnits="userSpaceOnUse" gradientTransform="translate(36.4272 29.7158) scale(38.3313 39.7351)">
<stop stop-color="#FFC62D"/>
<stop offset="1" stop-color="#FF9200"/>
</radialGradient>
<linearGradient id="paint1_linear_3418_7843" x1="11.228" y1="21.1021" x2="30.8772" y2="21.1021" gradientUnits="userSpaceOnUse">
<stop stop-color="#C404A8"/>
<stop offset="0.39399" stop-color="#D816A3"/>
<stop offset="0.99664" stop-color="#FF389A"/>
</linearGradient>
<linearGradient id="paint2_linear_3418_7843" x1="15.3461" y1="13.4155" x2="26.7593" y2="13.4155" gradientUnits="userSpaceOnUse">
<stop stop-color="#EB05A2"/>
<stop offset="0.03504" stop-color="#EC0BA2"/>
<stop offset="0.49533" stop-color="#F64F9E"/>
<stop offset="0.82779" stop-color="#FD7B9B"/>
<stop offset="0.99664" stop-color="#FF8B9A"/>
</linearGradient>
<linearGradient id="paint3_linear_3418_7843" x1="20.6703" y1="9.85092" x2="22.3743" y2="16.21" gradientUnits="userSpaceOnUse">
<stop offset="0.34228" stop-color="#E63393"/>
<stop offset="0.63087" stop-color="#E73695"/>
<stop offset="1" stop-color="#FF99DD"/>
</linearGradient>
<linearGradient id="paint4_linear_3418_7843" x1="11.228" y1="14.3039" x2="17.2806" y2="14.3039" gradientUnits="userSpaceOnUse">
<stop stop-color="#DB04A8"/>
<stop offset="0.04119" stop-color="#DD0BA7"/>
<stop offset="0.49853" stop-color="#EF4FA0"/>
<stop offset="0.82884" stop-color="#FB7B9C"/>
<stop offset="0.99664" stop-color="#FF8B9A"/>
</linearGradient>
<linearGradient id="paint5_linear_3418_7843" x1="25.3114" y1="13.3454" x2="30.0093" y2="16.6349" gradientUnits="userSpaceOnUse">
<stop stop-color="#FC379A"/>
<stop offset="0.5586" stop-color="#E717A1"/>
<stop offset="1" stop-color="#D903A6"/>
</linearGradient>
<linearGradient id="paint6_linear_3418_7843" x1="15.5217" y1="28.7888" x2="26.5835" y2="28.7888" gradientUnits="userSpaceOnUse">
<stop offset="0.00671" stop-color="#FF248F"/>
<stop offset="0.33254" stop-color="#D5177F"/>
<stop offset="0.78076" stop-color="#A0066A"/>
<stop offset="1" stop-color="#8C0062"/>
</linearGradient>
<linearGradient id="paint7_linear_3418_7843" x1="17.2806" y1="28.7889" x2="26.7593" y2="28.7889" gradientUnits="userSpaceOnUse">
<stop offset="0.00671" stop-color="#FF248F"/>
<stop offset="0.33254" stop-color="#D5177F"/>
<stop offset="0.78076" stop-color="#A0066A"/>
<stop offset="1" stop-color="#8C0062"/>
</linearGradient>
<linearGradient id="paint8_linear_3418_7843" x1="8.84875" y1="19.3553" x2="16.1749" y2="23.7573" gradientUnits="userSpaceOnUse">
<stop offset="0.00336" stop-color="#FF8B9A"/>
<stop offset="0.17116" stop-color="#FB7B9C"/>
<stop offset="0.50147" stop-color="#EF4FA0"/>
<stop offset="0.95881" stop-color="#DD0BA7"/>
<stop offset="1" stop-color="#DB04A8"/>
</linearGradient>
<linearGradient id="paint9_linear_3418_7843" x1="9.84291" y1="17.7007" x2="17.1691" y2="22.1027" gradientUnits="userSpaceOnUse">
<stop offset="0.00336" stop-color="#FF8B9A"/>
<stop offset="0.17116" stop-color="#FB7B9C"/>
<stop offset="0.50147" stop-color="#EF4FA0"/>
<stop offset="0.95881" stop-color="#DD0BA7"/>
<stop offset="1" stop-color="#DB04A8"/>
</linearGradient>
<linearGradient id="paint10_linear_3418_7843" x1="24.8246" y1="27.9005" x2="30.8772" y2="27.9005" gradientUnits="userSpaceOnUse">
<stop offset="0.00671" stop-color="#FF007D"/>
<stop offset="0.33254" stop-color="#D50073"/>
<stop offset="0.78076" stop-color="#A00067"/>
<stop offset="1" stop-color="#8C0062"/>
</linearGradient>
<linearGradient id="paint11_linear_3418_7843" x1="28.5766" y1="26.7284" x2="28.9747" y2="15.329" gradientUnits="userSpaceOnUse">
<stop stop-color="#8C0062"/>
<stop offset="0.21924" stop-color="#A00067"/>
<stop offset="0.66746" stop-color="#D50073"/>
<stop offset="0.99329" stop-color="#FF007D"/>
</linearGradient>
<linearGradient id="paint12_linear_3418_7843" x1="30.1896" y1="21.8632" x2="26.4749" y2="17.4363" gradientUnits="userSpaceOnUse">
<stop offset="0.34228" stop-color="#E63393"/>
<stop offset="0.63087" stop-color="#E73695"/>
<stop offset="1" stop-color="#FF99DD"/>
</linearGradient>
<linearGradient id="paint13_linear_3418_7843" x1="13.4864" y1="25.4518" x2="16.3967" y2="30.2954" gradientUnits="userSpaceOnUse">
<stop stop-color="#FC53A8"/>
<stop offset="0.07667" stop-color="#F64CA5"/>
<stop offset="0.697" stop-color="#C71792"/>
<stop offset="1" stop-color="#B5038A"/>
</linearGradient>
<linearGradient id="paint14_linear_3418_7843" x1="24.1841" y1="15.2129" x2="17.9212" y2="26.9916" gradientUnits="userSpaceOnUse">
<stop stop-color="#FF99DD"/>
<stop offset="0.99664" stop-color="#E63393"/>
</linearGradient>
<linearGradient id="paint15_linear_3418_7843" x1="25.3375" y1="15.8262" x2="21.2872" y2="23.4437" gradientUnits="userSpaceOnUse">
<stop stop-color="#FF99DD"/>
<stop offset="0.99664" stop-color="#E63393"/>
</linearGradient>
<linearGradient id="paint16_linear_3418_7843" x1="20.4476" y1="18.0778" x2="16.1958" y2="26.0742" gradientUnits="userSpaceOnUse">
<stop stop-color="#FF99DD"/>
<stop offset="0.99664" stop-color="#E63393"/>
</linearGradient>
<linearGradient id="paint17_linear_3418_7843" x1="21.0527" y1="26.651" x2="21.0527" y2="21.9973" gradientUnits="userSpaceOnUse">
<stop stop-color="#FF99DD"/>
<stop offset="0.65772" stop-color="#E63393"/>
</linearGradient>
<linearGradient id="paint18_linear_3418_7843" x1="10.8418" y1="18.0759" x2="26.7593" y2="18.0759" gradientUnits="userSpaceOnUse">
<stop stop-color="#FFDAD6"/>
<stop offset="0.44756" stop-color="#FFD4DC"/>
<stop offset="0.99664" stop-color="#FFC7EC"/>
</linearGradient>
<linearGradient id="paint19_linear_3418_7843" x1="15.3459" y1="27.9005" x2="27.651" y2="27.9005" gradientUnits="userSpaceOnUse">
<stop stop-color="#FFBDDC"/>
<stop offset="0.32414" stop-color="#FFB7DC"/>
<stop offset="0.77689" stop-color="#FFA4DD"/>
<stop offset="0.99664" stop-color="#FF99DD"/>
</linearGradient>
<linearGradient id="paint20_linear_3418_7843" x1="59.1228" y1="21.1021" x2="78.7719" y2="21.1021" gradientUnits="userSpaceOnUse">
<stop stop-color="#C404A8"/>
<stop offset="0.39399" stop-color="#D816A3"/>
<stop offset="0.99664" stop-color="#FF389A"/>
</linearGradient>
<linearGradient id="paint21_linear_3418_7843" x1="63.2407" y1="13.4155" x2="74.6542" y2="13.4155" gradientUnits="userSpaceOnUse">
<stop stop-color="#EB05A2"/>
<stop offset="0.03504" stop-color="#EC0BA2"/>
<stop offset="0.49533" stop-color="#F64F9E"/>
<stop offset="0.82779" stop-color="#FD7B9B"/>
<stop offset="0.99664" stop-color="#FF8B9A"/>
</linearGradient>
<linearGradient id="paint22_linear_3418_7843" x1="68.5651" y1="9.85092" x2="70.269" y2="16.21" gradientUnits="userSpaceOnUse">
<stop offset="0.34228" stop-color="#E63393"/>
<stop offset="0.63087" stop-color="#E73695"/>
<stop offset="1" stop-color="#FF99DD"/>
</linearGradient>
<linearGradient id="paint23_linear_3418_7843" x1="59.1228" y1="14.3039" x2="65.1753" y2="14.3039" gradientUnits="userSpaceOnUse">
<stop stop-color="#DB04A8"/>
<stop offset="0.04119" stop-color="#DD0BA7"/>
<stop offset="0.49853" stop-color="#EF4FA0"/>
<stop offset="0.82884" stop-color="#FB7B9C"/>
<stop offset="0.99664" stop-color="#FF8B9A"/>
</linearGradient>
<linearGradient id="paint24_linear_3418_7843" x1="73.2063" y1="13.3454" x2="77.9043" y2="16.6349" gradientUnits="userSpaceOnUse">
<stop stop-color="#FC379A"/>
<stop offset="0.5586" stop-color="#E717A1"/>
<stop offset="1" stop-color="#D903A6"/>
</linearGradient>
<linearGradient id="paint25_linear_3418_7843" x1="63.4164" y1="28.7888" x2="74.478" y2="28.7888" gradientUnits="userSpaceOnUse">
<stop offset="0.00671" stop-color="#FF248F"/>
<stop offset="0.33254" stop-color="#D5177F"/>
<stop offset="0.78076" stop-color="#A0066A"/>
<stop offset="1" stop-color="#8C0062"/>
</linearGradient>
<linearGradient id="paint26_linear_3418_7843" x1="65.1754" y1="28.7889" x2="74.6542" y2="28.7889" gradientUnits="userSpaceOnUse">
<stop offset="0.00671" stop-color="#FF248F"/>
<stop offset="0.33254" stop-color="#D5177F"/>
<stop offset="0.78076" stop-color="#A0066A"/>
<stop offset="1" stop-color="#8C0062"/>
</linearGradient>
<linearGradient id="paint27_linear_3418_7843" x1="56.7435" y1="19.3553" x2="64.0697" y2="23.7573" gradientUnits="userSpaceOnUse">
<stop offset="0.00336" stop-color="#FF8B9A"/>
<stop offset="0.17116" stop-color="#FB7B9C"/>
<stop offset="0.50147" stop-color="#EF4FA0"/>
<stop offset="0.95881" stop-color="#DD0BA7"/>
<stop offset="1" stop-color="#DB04A8"/>
</linearGradient>
<linearGradient id="paint28_linear_3418_7843" x1="57.7377" y1="17.7007" x2="65.0638" y2="22.1027" gradientUnits="userSpaceOnUse">
<stop offset="0.00336" stop-color="#FF8B9A"/>
<stop offset="0.17116" stop-color="#FB7B9C"/>
<stop offset="0.50147" stop-color="#EF4FA0"/>
<stop offset="0.95881" stop-color="#DD0BA7"/>
<stop offset="1" stop-color="#DB04A8"/>
</linearGradient>
<linearGradient id="paint29_linear_3418_7843" x1="72.7194" y1="27.9005" x2="78.7719" y2="27.9005" gradientUnits="userSpaceOnUse">
<stop offset="0.00671" stop-color="#FF007D"/>
<stop offset="0.33254" stop-color="#D50073"/>
<stop offset="0.78076" stop-color="#A00067"/>
<stop offset="1" stop-color="#8C0062"/>
</linearGradient>
<linearGradient id="paint30_linear_3418_7843" x1="76.4711" y1="26.7284" x2="76.8696" y2="15.329" gradientUnits="userSpaceOnUse">
<stop stop-color="#8C0062"/>
<stop offset="0.21924" stop-color="#A00067"/>
<stop offset="0.66746" stop-color="#D50073"/>
<stop offset="0.99329" stop-color="#FF007D"/>
</linearGradient>
<linearGradient id="paint31_linear_3418_7843" x1="78.0841" y1="21.8632" x2="74.3698" y2="17.4363" gradientUnits="userSpaceOnUse">
<stop offset="0.34228" stop-color="#E63393"/>
<stop offset="0.63087" stop-color="#E73695"/>
<stop offset="1" stop-color="#FF99DD"/>
</linearGradient>
<linearGradient id="paint32_linear_3418_7843" x1="61.3812" y1="25.4518" x2="64.2914" y2="30.2954" gradientUnits="userSpaceOnUse">
<stop stop-color="#FC53A8"/>
<stop offset="0.07667" stop-color="#F64CA5"/>
<stop offset="0.697" stop-color="#C71792"/>
<stop offset="1" stop-color="#B5038A"/>
</linearGradient>
<linearGradient id="paint33_linear_3418_7843" x1="72.079" y1="15.2129" x2="65.816" y2="26.9916" gradientUnits="userSpaceOnUse">
<stop stop-color="#FF99DD"/>
<stop offset="0.99664" stop-color="#E63393"/>
</linearGradient>
<linearGradient id="paint34_linear_3418_7843" x1="73.2322" y1="15.8262" x2="69.182" y2="23.4437" gradientUnits="userSpaceOnUse">
<stop stop-color="#FF99DD"/>
<stop offset="0.99664" stop-color="#E63393"/>
</linearGradient>
<linearGradient id="paint35_linear_3418_7843" x1="68.3423" y1="18.0778" x2="64.0906" y2="26.0742" gradientUnits="userSpaceOnUse">
<stop stop-color="#FF99DD"/>
<stop offset="0.99664" stop-color="#E63393"/>
</linearGradient>
<linearGradient id="paint36_linear_3418_7843" x1="68.9475" y1="26.651" x2="68.9475" y2="21.9973" gradientUnits="userSpaceOnUse">
<stop stop-color="#FF99DD"/>
<stop offset="0.65772" stop-color="#E63393"/>
</linearGradient>
<linearGradient id="paint37_linear_3418_7843" x1="58.7366" y1="18.0759" x2="74.6542" y2="18.0759" gradientUnits="userSpaceOnUse">
<stop stop-color="#FFDAD6"/>
<stop offset="0.44756" stop-color="#FFD4DC"/>
<stop offset="0.99664" stop-color="#FFC7EC"/>
</linearGradient>
<linearGradient id="paint38_linear_3418_7843" x1="63.2407" y1="27.9005" x2="75.5458" y2="27.9005" gradientUnits="userSpaceOnUse">
<stop stop-color="#FFBDDC"/>
<stop offset="0.32414" stop-color="#FFB7DC"/>
<stop offset="0.77689" stop-color="#FFA4DD"/>
<stop offset="0.99664" stop-color="#FF99DD"/>
</linearGradient>
<linearGradient id="paint39_linear_3418_7843" x1="35.1754" y1="45.0495" x2="54.8245" y2="45.0495" gradientUnits="userSpaceOnUse">
<stop stop-color="#14A800"/>
<stop offset="0.28934" stop-color="#12BC10"/>
<stop offset="0.88169" stop-color="#0BF13A"/>
<stop offset="0.99664" stop-color="#0AFC43"/>
</linearGradient>
<linearGradient id="paint40_linear_3418_7843" x1="50.55" y1="45.0496" x2="54.8245" y2="45.0496" gradientUnits="userSpaceOnUse">
<stop stop-color="#14A300"/>
<stop offset="0.27514" stop-color="#25B702"/>
<stop offset="0.83821" stop-color="#52EC08"/>
<stop offset="0.99664" stop-color="#5FFC0A"/>
</linearGradient>
<linearGradient id="paint41_linear_3418_7843" x1="55.5317" y1="45.9581" x2="50.2793" y2="43.282" gradientUnits="userSpaceOnUse">
<stop stop-color="#19D400"/>
<stop offset="0.15103" stop-color="#28D914"/>
<stop offset="0.46197" stop-color="#4FE54A"/>
<stop offset="0.90229" stop-color="#8CF89E"/>
<stop offset="0.99664" stop-color="#9AFCB1"/>
</linearGradient>
<linearGradient id="paint42_linear_3418_7843" x1="35.9215" y1="50.7383" x2="42.7011" y2="50.7383" gradientUnits="userSpaceOnUse">
<stop offset="0.00336" stop-color="#0AFC43"/>
<stop offset="0.64747" stop-color="#12CE14"/>
<stop offset="1" stop-color="#16BA00"/>
</linearGradient>
<linearGradient id="paint43_linear_3418_7843" x1="35.9215" y1="50.7383" x2="41.2395" y2="50.7383" gradientUnits="userSpaceOnUse">
<stop offset="0.00336" stop-color="#0AFC43"/>
<stop offset="0.64747" stop-color="#12CE14"/>
<stop offset="1" stop-color="#16BA00"/>
</linearGradient>
<linearGradient id="paint44_linear_3418_7843" x1="42.5253" y1="55.4594" x2="47.4238" y2="50.7289" gradientUnits="userSpaceOnUse">
<stop offset="0.19799" stop-color="#32FC62"/>
<stop offset="0.48553" stop-color="#27D842"/>
<stop offset="1" stop-color="#118F00"/>
</linearGradient>
<linearGradient id="paint45_linear_3418_7843" x1="41.1014" y1="53.5737" x2="48.1821" y2="51.8082" gradientUnits="userSpaceOnUse">
<stop offset="0.19799" stop-color="#32FC62"/>
<stop offset="0.48553" stop-color="#27D842"/>
<stop offset="1" stop-color="#118F00"/>
</linearGradient>
<linearGradient id="paint46_linear_3418_7843" x1="49.4177" y1="48.0022" x2="51.9476" y2="52.384" gradientUnits="userSpaceOnUse">
<stop stop-color="#0E7800"/>
<stop offset="0.1649" stop-color="#188C04"/>
<stop offset="0.50201" stop-color="#33C10F"/>
<stop offset="0.75839" stop-color="#4AED18"/>
</linearGradient>
<linearGradient id="paint47_linear_3418_7843" x1="37.681" y1="42.5212" x2="41.9292" y2="36.454" gradientUnits="userSpaceOnUse">
<stop stop-color="#19D400"/>
<stop offset="0.15103" stop-color="#28D914"/>
<stop offset="0.46197" stop-color="#4FE54A"/>
<stop offset="0.90229" stop-color="#8CF89E"/>
<stop offset="0.99664" stop-color="#9AFCB1"/>
</linearGradient>
<linearGradient id="paint48_linear_3418_7843" x1="37.681" y1="42.5212" x2="41.9292" y2="36.454" gradientUnits="userSpaceOnUse">
<stop stop-color="#19D400"/>
<stop offset="0.15103" stop-color="#28D914"/>
<stop offset="0.46197" stop-color="#4FE54A"/>
<stop offset="0.90229" stop-color="#8CF89E"/>
<stop offset="0.99664" stop-color="#9AFCB1"/>
</linearGradient>
<linearGradient id="paint49_linear_3418_7843" x1="34.7452" y1="47.8231" x2="39.1868" y2="42.5299" gradientUnits="userSpaceOnUse">
<stop stop-color="#17BF00"/>
<stop offset="0.16312" stop-color="#25C714"/>
<stop offset="0.49899" stop-color="#49DB49"/>
<stop offset="0.97489" stop-color="#83FA9E"/>
<stop offset="0.99664" stop-color="#86FCA2"/>
</linearGradient>
<linearGradient id="paint50_linear_3418_7843" x1="36.9229" y1="45.228" x2="39.1868" y2="42.5299" gradientUnits="userSpaceOnUse">
<stop stop-color="#17BF00"/>
<stop offset="0.16312" stop-color="#25C714"/>
<stop offset="0.49899" stop-color="#49DB49"/>
<stop offset="0.97489" stop-color="#83FA9E"/>
<stop offset="0.99664" stop-color="#86FCA2"/>
</linearGradient>
<linearGradient id="paint51_linear_3418_7843" x1="42.8533" y1="39.6142" x2="46.7438" y2="34.4514" gradientUnits="userSpaceOnUse">
<stop stop-color="#16B800"/>
<stop offset="0.25071" stop-color="#2AC614"/>
<stop offset="0.76358" stop-color="#5FEA48"/>
<stop offset="0.99664" stop-color="#79FC62"/>
</linearGradient>
<linearGradient id="paint52_linear_3418_7843" x1="42.4938" y1="37.8111" x2="48.8899" y2="37.0258" gradientUnits="userSpaceOnUse">
<stop stop-color="#16B800"/>
<stop offset="0.25071" stop-color="#2AC614"/>
<stop offset="0.76358" stop-color="#5FEA48"/>
<stop offset="0.99664" stop-color="#79FC62"/>
</linearGradient>
<linearGradient id="paint53_linear_3418_7843" x1="47.2988" y1="39.3609" x2="54.0784" y2="39.3609" gradientUnits="userSpaceOnUse">
<stop stop-color="#16B800"/>
<stop offset="0.20317" stop-color="#2AC305"/>
<stop offset="0.61832" stop-color="#5FDF11"/>
<stop offset="0.99664" stop-color="#94FC1E"/>
</linearGradient>
<linearGradient id="paint54_linear_3418_7843" x1="40.1197" y1="48.3414" x2="49.8803" y2="41.7578" gradientUnits="userSpaceOnUse">
<stop stop-color="#1DF500"/>
<stop offset="0.43722" stop-color="#6BF85A"/>
<stop offset="1" stop-color="#CDFBCB"/>
</linearGradient>
<linearGradient id="paint55_linear_3418_7843" x1="41.4308" y1="50.2851" x2="51.1913" y2="43.7015" gradientUnits="userSpaceOnUse">
<stop stop-color="#1DF500"/>
<stop offset="0.43722" stop-color="#6BF85A"/>
<stop offset="1" stop-color="#CDFBCB"/>
</linearGradient>
<linearGradient id="paint56_linear_3418_7843" x1="35.9215" y1="43.2854" x2="50.5501" y2="43.2854" gradientUnits="userSpaceOnUse">
<stop offset="0.00336" stop-color="white"/>
<stop offset="0.14823" stop-color="#F6FFF3"/>
<stop offset="0.40869" stop-color="#DFFED4"/>
<stop offset="0.75222" stop-color="#BAFDA2"/>
<stop offset="1" stop-color="#9CFC79"/>
</linearGradient>
<linearGradient id="paint57_linear_3418_7843" x1="45" y1="78.8215" x2="45" y2="59.1724" gradientUnits="userSpaceOnUse">
<stop stop-color="#0829A9"/>
<stop offset="1" stop-color="#1153F4"/>
</linearGradient>
<linearGradient id="paint58_linear_3418_7843" x1="47.2506" y1="63.7357" x2="48.9485" y2="59.3858" gradientUnits="userSpaceOnUse">
<stop stop-color="#80C4F2"/>
<stop offset="1" stop-color="#1972E7"/>
</linearGradient>
<linearGradient id="paint59_linear_3418_7843" x1="40.6211" y1="74.9653" x2="44.7191" y2="77.7696" gradientUnits="userSpaceOnUse">
<stop stop-color="#1152C8"/>
<stop offset="0.62294" stop-color="#116BDA"/>
<stop offset="1" stop-color="#1175E1"/>
</linearGradient>
<linearGradient id="paint60_linear_3418_7843" x1="35.371" y1="69.0216" x2="39.5385" y2="73.9952" gradientUnits="userSpaceOnUse">
<stop stop-color="#0A25BD"/>
<stop offset="1" stop-color="#137CDD"/>
</linearGradient>
<linearGradient id="paint61_linear_3418_7843" x1="37.6442" y1="62.3645" x2="37.6676" y2="68.1464" gradientUnits="userSpaceOnUse">
<stop stop-color="#082AE2"/>
<stop offset="0.24591" stop-color="#082FE3"/>
<stop offset="0.51733" stop-color="#093CE4"/>
<stop offset="0.79994" stop-color="#0952E7"/>
<stop offset="1" stop-color="#0A66E9"/>
</linearGradient>
<linearGradient id="paint62_linear_3418_7843" x1="41.5815" y1="60.7443" x2="42.9886" y2="63.8523" gradientUnits="userSpaceOnUse">
<stop stop-color="#2654E9"/>
<stop offset="0.26147" stop-color="#2E5EE9"/>
<stop offset="0.69752" stop-color="#4477EA"/>
<stop offset="1" stop-color="#578DEB"/>
</linearGradient>
<linearGradient id="paint63_linear_3418_7843" x1="46.2981" y1="76.3641" x2="51.8472" y2="77.0917" gradientUnits="userSpaceOnUse">
<stop stop-color="#072BAB"/>
<stop offset="0.44586" stop-color="#0B2FB5"/>
<stop offset="1" stop-color="#1336C7"/>
</linearGradient>
<linearGradient id="paint64_linear_3418_7843" x1="53.5885" y1="69.5318" x2="50.421" y2="74.1782" gradientUnits="userSpaceOnUse">
<stop stop-color="#1C4CE9"/>
<stop offset="0.24542" stop-color="#2456E9"/>
<stop offset="0.65476" stop-color="#3B6FEA"/>
<stop offset="1" stop-color="#528AEB"/>
</linearGradient>
<linearGradient id="paint65_linear_3418_7843" x1="52.9498" y1="69.3185" x2="50.4515" y2="63.4486" gradientUnits="userSpaceOnUse">
<stop stop-color="#528AEB"/>
<stop offset="1" stop-color="#2654E9"/>
</linearGradient>
<linearGradient id="paint66_linear_3418_7843" x1="43.8519" y1="61.5841" x2="47.1134" y2="63.8915" gradientUnits="userSpaceOnUse">
<stop stop-color="#95D3FC"/>
<stop offset="1" stop-color="#D0F2F7"/>
</linearGradient>
<linearGradient id="paint67_linear_3418_7843" x1="48.5345" y1="65.4626" x2="51.8366" y2="62.1605" gradientUnits="userSpaceOnUse">
<stop stop-color="#DEECE9"/>
<stop offset="1" stop-color="#B9E0E6"/>
</linearGradient>
<radialGradient id="paint68_radial_3418_7843" cx="0" cy="0" r="1" gradientUnits="userSpaceOnUse" gradientTransform="translate(49.947 69.1019) scale(4.8082 4.80811)">
<stop stop-color="#1C4CE9"/>
<stop offset="0.24542" stop-color="#2456E9"/>
<stop offset="0.65476" stop-color="#3B6FEA"/>
<stop offset="1" stop-color="#528AEB"/>
</radialGradient>
<linearGradient id="paint69_linear_3418_7843" x1="48.6529" y1="72.6461" x2="52.0697" y2="75.9674" gradientUnits="userSpaceOnUse">
<stop stop-color="#133DE9"/>
<stop offset="0.42336" stop-color="#1747EC"/>
<stop offset="1" stop-color="#205BF2"/>
</linearGradient>
<linearGradient id="paint70_linear_3418_7843" x1="42.641" y1="74.5735" x2="46.3191" y2="76.4764" gradientUnits="userSpaceOnUse">
<stop stop-color="#1175E1"/>
<stop offset="0.37706" stop-color="#116BDA"/>
<stop offset="1" stop-color="#1152C8"/>
</linearGradient>
<linearGradient id="paint71_linear_3418_7843" x1="41.4997" y1="72.4969" x2="38.1355" y2="75.8735" gradientUnits="userSpaceOnUse">
<stop stop-color="#2654E9"/>
<stop offset="1" stop-color="#528AEB"/>
</linearGradient>
<linearGradient id="paint72_linear_3418_7843" x1="37.6431" y1="70.0764" x2="39.4701" y2="66.6851" gradientUnits="userSpaceOnUse">
<stop stop-color="#0A66E9"/>
<stop offset="0.25153" stop-color="#0A5CE8"/>
<stop offset="0.67104" stop-color="#0943E5"/>
<stop offset="1" stop-color="#082AE2"/>
</linearGradient>
<linearGradient id="paint73_linear_3418_7843" x1="38.1231" y1="62.2775" x2="41.574" y2="65.5659" gradientUnits="userSpaceOnUse">
<stop stop-color="#1F42FF"/>
<stop offset="0.24591" stop-color="#2147FD"/>
<stop offset="0.51733" stop-color="#2554F8"/>
<stop offset="0.79994" stop-color="#2C6AF0"/>
<stop offset="1" stop-color="#337EE9"/>
</linearGradient>
<linearGradient id="paint74_linear_3418_7843" x1="41.4656" y1="72.5313" x2="50.82" y2="63.1766" gradientUnits="userSpaceOnUse">
<stop stop-color="#4EE1FD"/>
<stop offset="0.65659" stop-color="#3476F9"/>
<stop offset="1" stop-color="#4EE1FD"/>
</linearGradient>
<linearGradient id="paint75_linear_3418_7843" x1="59.1228" y1="68.9969" x2="78.7719" y2="68.9969" gradientUnits="userSpaceOnUse">
<stop stop-color="#14A800"/>
<stop offset="0.28934" stop-color="#12BC10"/>
<stop offset="0.88169" stop-color="#0BF13A"/>
<stop offset="0.99664" stop-color="#0AFC43"/>
</linearGradient>
<linearGradient id="paint76_linear_3418_7843" x1="74.4977" y1="68.997" x2="78.772" y2="68.997" gradientUnits="userSpaceOnUse">
<stop stop-color="#14A300"/>
<stop offset="0.27514" stop-color="#25B702"/>
<stop offset="0.83821" stop-color="#52EC08"/>
<stop offset="0.99664" stop-color="#5FFC0A"/>
</linearGradient>
<linearGradient id="paint77_linear_3418_7843" x1="79.4787" y1="69.9055" x2="74.2269" y2="67.2294" gradientUnits="userSpaceOnUse">
<stop stop-color="#19D400"/>
<stop offset="0.15103" stop-color="#28D914"/>
<stop offset="0.46197" stop-color="#4FE54A"/>
<stop offset="0.90229" stop-color="#8CF89E"/>
<stop offset="0.99664" stop-color="#9AFCB1"/>
</linearGradient>
<linearGradient id="paint78_linear_3418_7843" x1="59.8689" y1="74.6854" x2="66.6485" y2="74.6854" gradientUnits="userSpaceOnUse">
<stop offset="0.00336" stop-color="#0AFC43"/>
<stop offset="0.64747" stop-color="#12CE14"/>
<stop offset="1" stop-color="#16BA00"/>
</linearGradient>
<linearGradient id="paint79_linear_3418_7843" x1="59.8689" y1="74.6854" x2="65.1869" y2="74.6854" gradientUnits="userSpaceOnUse">
<stop offset="0.00336" stop-color="#0AFC43"/>
<stop offset="0.64747" stop-color="#12CE14"/>
<stop offset="1" stop-color="#16BA00"/>
</linearGradient>
<linearGradient id="paint80_linear_3418_7843" x1="66.4727" y1="79.4067" x2="71.3712" y2="74.6762" gradientUnits="userSpaceOnUse">
<stop offset="0.19799" stop-color="#32FC62"/>
<stop offset="0.48553" stop-color="#27D842"/>
<stop offset="1" stop-color="#118F00"/>
</linearGradient>
<linearGradient id="paint81_linear_3418_7843" x1="65.0488" y1="77.521" x2="72.1294" y2="75.7557" gradientUnits="userSpaceOnUse">
<stop offset="0.19799" stop-color="#32FC62"/>
<stop offset="0.48553" stop-color="#27D842"/>
<stop offset="1" stop-color="#118F00"/>
</linearGradient>
<linearGradient id="paint82_linear_3418_7843" x1="73.3653" y1="71.9498" x2="75.8951" y2="76.3316" gradientUnits="userSpaceOnUse">
<stop stop-color="#0E7800"/>
<stop offset="0.1649" stop-color="#188C04"/>
<stop offset="0.50201" stop-color="#33C10F"/>
<stop offset="0.75839" stop-color="#4AED18"/>
</linearGradient>
<linearGradient id="paint83_linear_3418_7843" x1="61.6284" y1="66.4686" x2="65.8766" y2="60.4014" gradientUnits="userSpaceOnUse">
<stop stop-color="#19D400"/>
<stop offset="0.15103" stop-color="#28D914"/>
<stop offset="0.46197" stop-color="#4FE54A"/>
<stop offset="0.90229" stop-color="#8CF89E"/>
<stop offset="0.99664" stop-color="#9AFCB1"/>
</linearGradient>
<linearGradient id="paint84_linear_3418_7843" x1="61.6284" y1="66.4686" x2="65.8766" y2="60.4014" gradientUnits="userSpaceOnUse">
<stop stop-color="#19D400"/>
<stop offset="0.15103" stop-color="#28D914"/>
<stop offset="0.46197" stop-color="#4FE54A"/>
<stop offset="0.90229" stop-color="#8CF89E"/>
<stop offset="0.99664" stop-color="#9AFCB1"/>
</linearGradient>
<linearGradient id="paint85_linear_3418_7843" x1="58.6926" y1="71.7706" x2="63.1342" y2="66.4773" gradientUnits="userSpaceOnUse">
<stop stop-color="#17BF00"/>
<stop offset="0.16312" stop-color="#25C714"/>
<stop offset="0.49899" stop-color="#49DB49"/>
<stop offset="0.97489" stop-color="#83FA9E"/>
<stop offset="0.99664" stop-color="#86FCA2"/>
</linearGradient>
<linearGradient id="paint86_linear_3418_7843" x1="60.8703" y1="69.1754" x2="63.1342" y2="66.4773" gradientUnits="userSpaceOnUse">
<stop stop-color="#17BF00"/>
<stop offset="0.16312" stop-color="#25C714"/>
<stop offset="0.49899" stop-color="#49DB49"/>
<stop offset="0.97489" stop-color="#83FA9E"/>
<stop offset="0.99664" stop-color="#86FCA2"/>
</linearGradient>
<linearGradient id="paint87_linear_3418_7843" x1="66.8007" y1="63.5616" x2="70.6912" y2="58.3988" gradientUnits="userSpaceOnUse">
<stop stop-color="#16B800"/>
<stop offset="0.25071" stop-color="#2AC614"/>
<stop offset="0.76358" stop-color="#5FEA48"/>
<stop offset="0.99664" stop-color="#79FC62"/>
</linearGradient>
<linearGradient id="paint88_linear_3418_7843" x1="66.4411" y1="61.7585" x2="72.8373" y2="60.9732" gradientUnits="userSpaceOnUse">
<stop stop-color="#16B800"/>
<stop offset="0.25071" stop-color="#2AC614"/>
<stop offset="0.76358" stop-color="#5FEA48"/>
<stop offset="0.99664" stop-color="#79FC62"/>
</linearGradient>
<linearGradient id="paint89_linear_3418_7843" x1="71.2462" y1="63.3083" x2="78.0258" y2="63.3083" gradientUnits="userSpaceOnUse">
<stop stop-color="#16B800"/>
<stop offset="0.20317" stop-color="#2AC305"/>
<stop offset="0.61832" stop-color="#5FDF11"/>
<stop offset="0.99664" stop-color="#94FC1E"/>
</linearGradient>
<linearGradient id="paint90_linear_3418_7843" x1="64.0671" y1="72.2888" x2="73.8277" y2="65.7052" gradientUnits="userSpaceOnUse">
<stop stop-color="#1DF500"/>
<stop offset="0.43722" stop-color="#6BF85A"/>
<stop offset="1" stop-color="#CDFBCB"/>
</linearGradient>
<linearGradient id="paint91_linear_3418_7843" x1="65.3782" y1="74.2321" x2="75.1387" y2="67.6488" gradientUnits="userSpaceOnUse">
<stop stop-color="#1DF500"/>
<stop offset="0.43722" stop-color="#6BF85A"/>
<stop offset="1" stop-color="#CDFBCB"/>
</linearGradient>
<linearGradient id="paint92_linear_3418_7843" x1="59.8689" y1="67.2328" x2="74.4977" y2="67.2328" gradientUnits="userSpaceOnUse">
<stop offset="0.00336" stop-color="white"/>
<stop offset="0.14823" stop-color="#F6FFF3"/>
<stop offset="0.40869" stop-color="#DFFED4"/>
<stop offset="0.75222" stop-color="#BAFDA2"/>
<stop offset="1" stop-color="#9CFC79"/>
</linearGradient>
<linearGradient id="paint93_linear_3418_7843" x1="11.228" y1="68.9969" x2="30.8772" y2="68.9969" gradientUnits="userSpaceOnUse">
<stop stop-color="#14A800"/>
<stop offset="0.28934" stop-color="#12BC10"/>
<stop offset="0.88169" stop-color="#0BF13A"/>
<stop offset="0.99664" stop-color="#0AFC43"/>
</linearGradient>
<linearGradient id="paint94_linear_3418_7843" x1="26.6027" y1="68.997" x2="30.8771" y2="68.997" gradientUnits="userSpaceOnUse">
<stop stop-color="#14A300"/>
<stop offset="0.27514" stop-color="#25B702"/>
<stop offset="0.83821" stop-color="#52EC08"/>
<stop offset="0.99664" stop-color="#5FFC0A"/>
</linearGradient>
<linearGradient id="paint95_linear_3418_7843" x1="31.5843" y1="69.9055" x2="26.3319" y2="67.2294" gradientUnits="userSpaceOnUse">
<stop stop-color="#19D400"/>
<stop offset="0.15103" stop-color="#28D914"/>
<stop offset="0.46197" stop-color="#4FE54A"/>
<stop offset="0.90229" stop-color="#8CF89E"/>
<stop offset="0.99664" stop-color="#9AFCB1"/>
</linearGradient>
<linearGradient id="paint96_linear_3418_7843" x1="11.9741" y1="74.6854" x2="18.7537" y2="74.6854" gradientUnits="userSpaceOnUse">
<stop offset="0.00336" stop-color="#0AFC43"/>
<stop offset="0.64747" stop-color="#12CE14"/>
<stop offset="1" stop-color="#16BA00"/>
</linearGradient>
<linearGradient id="paint97_linear_3418_7843" x1="11.9741" y1="74.6854" x2="17.2922" y2="74.6854" gradientUnits="userSpaceOnUse">
<stop offset="0.00336" stop-color="#0AFC43"/>
<stop offset="0.64747" stop-color="#12CE14"/>
<stop offset="1" stop-color="#16BA00"/>
</linearGradient>
<linearGradient id="paint98_linear_3418_7843" x1="18.5779" y1="79.4067" x2="23.4764" y2="74.6762" gradientUnits="userSpaceOnUse">
<stop offset="0.19799" stop-color="#32FC62"/>
<stop offset="0.48553" stop-color="#27D842"/>
<stop offset="1" stop-color="#118F00"/>
</linearGradient>
<linearGradient id="paint99_linear_3418_7843" x1="17.154" y1="77.521" x2="24.2347" y2="75.7557" gradientUnits="userSpaceOnUse">
<stop offset="0.19799" stop-color="#32FC62"/>
<stop offset="0.48553" stop-color="#27D842"/>
<stop offset="1" stop-color="#118F00"/>
</linearGradient>
<linearGradient id="paint100_linear_3418_7843" x1="25.4705" y1="71.9498" x2="28.0003" y2="76.3316" gradientUnits="userSpaceOnUse">
<stop stop-color="#0E7800"/>
<stop offset="0.1649" stop-color="#188C04"/>
<stop offset="0.50201" stop-color="#33C10F"/>
<stop offset="0.75839" stop-color="#4AED18"/>
</linearGradient>
<linearGradient id="paint101_linear_3418_7843" x1="13.7336" y1="66.4686" x2="17.9819" y2="60.4014" gradientUnits="userSpaceOnUse">
<stop stop-color="#19D400"/>
<stop offset="0.15103" stop-color="#28D914"/>
<stop offset="0.46197" stop-color="#4FE54A"/>
<stop offset="0.90229" stop-color="#8CF89E"/>
<stop offset="0.99664" stop-color="#9AFCB1"/>
</linearGradient>
<linearGradient id="paint102_linear_3418_7843" x1="13.7336" y1="66.4686" x2="17.9819" y2="60.4014" gradientUnits="userSpaceOnUse">
<stop stop-color="#19D400"/>
<stop offset="0.15103" stop-color="#28D914"/>
<stop offset="0.46197" stop-color="#4FE54A"/>
<stop offset="0.90229" stop-color="#8CF89E"/>
<stop offset="0.99664" stop-color="#9AFCB1"/>
</linearGradient>
<linearGradient id="paint103_linear_3418_7843" x1="10.7979" y1="71.7706" x2="15.2394" y2="66.4773" gradientUnits="userSpaceOnUse">
<stop stop-color="#17BF00"/>
<stop offset="0.16312" stop-color="#25C714"/>
<stop offset="0.49899" stop-color="#49DB49"/>
<stop offset="0.97489" stop-color="#83FA9E"/>
<stop offset="0.99664" stop-color="#86FCA2"/>
</linearGradient>
<linearGradient id="paint104_linear_3418_7843" x1="12.9755" y1="69.1754" x2="15.2394" y2="66.4773" gradientUnits="userSpaceOnUse">
<stop stop-color="#17BF00"/>
<stop offset="0.16312" stop-color="#25C714"/>
<stop offset="0.49899" stop-color="#49DB49"/>
<stop offset="0.97489" stop-color="#83FA9E"/>
<stop offset="0.99664" stop-color="#86FCA2"/>
</linearGradient>
<linearGradient id="paint105_linear_3418_7843" x1="18.9059" y1="63.5616" x2="22.7964" y2="58.3988" gradientUnits="userSpaceOnUse">
<stop stop-color="#16B800"/>
<stop offset="0.25071" stop-color="#2AC614"/>
<stop offset="0.76358" stop-color="#5FEA48"/>
<stop offset="0.99664" stop-color="#79FC62"/>
</linearGradient>
<linearGradient id="paint106_linear_3418_7843" x1="18.5464" y1="61.7585" x2="24.9425" y2="60.9732" gradientUnits="userSpaceOnUse">
<stop stop-color="#16B800"/>
<stop offset="0.25071" stop-color="#2AC614"/>
<stop offset="0.76358" stop-color="#5FEA48"/>
<stop offset="0.99664" stop-color="#79FC62"/>
</linearGradient>
<linearGradient id="paint107_linear_3418_7843" x1="23.3516" y1="63.3083" x2="30.1311" y2="63.3083" gradientUnits="userSpaceOnUse">
<stop stop-color="#16B800"/>
<stop offset="0.20317" stop-color="#2AC305"/>
<stop offset="0.61832" stop-color="#5FDF11"/>
<stop offset="0.99664" stop-color="#94FC1E"/>
</linearGradient>
<linearGradient id="paint108_linear_3418_7843" x1="16.1723" y1="72.2888" x2="25.9329" y2="65.7052" gradientUnits="userSpaceOnUse">
<stop stop-color="#1DF500"/>
<stop offset="0.43722" stop-color="#6BF85A"/>
<stop offset="1" stop-color="#CDFBCB"/>
</linearGradient>
<linearGradient id="paint109_linear_3418_7843" x1="17.4834" y1="74.2321" x2="27.244" y2="67.6488" gradientUnits="userSpaceOnUse">
<stop stop-color="#1DF500"/>
<stop offset="0.43722" stop-color="#6BF85A"/>
<stop offset="1" stop-color="#CDFBCB"/>
</linearGradient>
<linearGradient id="paint110_linear_3418_7843" x1="11.9741" y1="67.2328" x2="26.6027" y2="67.2328" gradientUnits="userSpaceOnUse">
<stop offset="0.00336" stop-color="white"/>
<stop offset="0.14823" stop-color="#F6FFF3"/>
<stop offset="0.40869" stop-color="#DFFED4"/>
<stop offset="0.75222" stop-color="#BAFDA2"/>
<stop offset="1" stop-color="#9CFC79"/>
</linearGradient>
<clipPath id="clip0_3418_7843">
<rect width="70" height="70" fill="white" transform="translate(10 10.0496)"/>
</clipPath>
</defs>
</svg>
