<svg width="137" height="55" viewBox="0 0 137 55" fill="none" xmlns="http://www.w3.org/2000/svg">
<g filter="url(#filter0_d_3402_2939)">
<path d="M31.8329 10H116.812C120.525 10 124.085 11.4749 126.711 14.1002C129.336 16.7254 130.811 20.2861 130.811 23.9988V32.5428C130.811 36.2556 129.336 39.8162 126.711 42.4415C124.085 45.0668 120.525 46.5417 116.812 46.5417H31.8329V10Z" fill="url(#paint0_linear_3402_2939)"/>
<path d="M31.8329 12.0053H116.812C120.525 12.0053 124.085 13.4802 126.711 16.1055C129.336 18.7308 130.811 22.2914 130.811 26.0042V34.5482C130.811 38.2609 129.336 41.8215 126.711 44.4467C124.085 47.072 120.525 48.5468 116.812 48.5468H31.8329V12.0053Z" fill="url(#paint1_linear_3402_2939)"/>
<path d="M126.584 26.0039V34.5479C126.584 37.1399 125.554 39.6257 123.722 41.4585C121.889 43.2914 119.403 44.321 116.811 44.321L25.3491 44.321V16.2314L116.812 16.2314C118.095 16.2314 119.366 16.4842 120.551 16.9753C121.737 17.4664 122.814 18.1862 123.722 19.0937C124.629 20.0012 125.349 21.0785 125.84 22.2641C126.331 23.4498 126.584 24.7205 126.584 26.0039Z" fill="url(#paint2_linear_3402_2939)"/>
</g>
<path fill-rule="evenodd" clip-rule="evenodd" d="M37.7087 12.0669C45.1899 17.7488 46.6359 29.7833 40.741 39.9936C34.8459 50.2039 23.7009 54.9688 15.0396 51.3308C12.751 50.3659 10.5283 49.2518 8.38562 47.9958L19.9395 27.9839L31.4935 7.97198C33.6526 9.1995 35.7288 10.5674 37.7087 12.0669Z" fill="url(#paint3_linear_3402_2939)"/>
<path style="mix-blend-mode:screen" fill-rule="evenodd" clip-rule="evenodd" d="M37.4626 14.779C42.6368 18.7055 44.3885 27.4364 41.3208 35.049C38.2532 42.6615 31.454 46.4555 25.6659 44.0531C24.1224 43.4086 22.6243 42.6603 21.1819 41.8133L27.1945 26.8931L33.207 11.9729C34.6852 12.8144 36.1068 13.7518 37.4626 14.779Z" fill="url(#paint4_radial_3402_2939)"/>
<path style="mix-blend-mode:multiply" fill-rule="evenodd" clip-rule="evenodd" d="M38.2142 14.354C44.5905 19.2102 45.998 29.6782 41.2087 38.6497C36.7555 46.9917 28.4135 51.2888 21.3679 49.3911C19.2211 50.0417 16.9653 50.2534 14.7349 50.0137C12.5045 49.774 10.3452 49.0877 8.38562 47.9958C10.5283 49.2518 12.751 50.3659 15.0396 51.3308C23.7009 54.9688 34.8459 50.2038 40.741 39.9936C46.6359 29.7832 45.1898 17.7488 37.7087 12.0669C35.7377 10.5741 33.6712 9.21172 31.5224 7.98861C33.8339 9.33793 35.7642 11.2531 37.1317 13.554C37.4937 13.8133 37.8529 14.0789 38.2142 14.354Z" fill="url(#paint5_radial_3402_2939)"/>
<g style="mix-blend-mode:screen">
<path fill-rule="evenodd" clip-rule="evenodd" d="M32.786 8.89872C41.2757 13.8002 43.1516 26.4446 36.976 37.141C30.8004 47.8374 18.9121 52.535 10.4223 47.6335C1.93271 42.732 0.0568218 30.0876 6.23253 19.3912C12.408 8.69483 24.2964 3.99723 32.786 8.89872Z" fill="#FCCE3A"/>
</g>
<path fill-rule="evenodd" clip-rule="evenodd" d="M31.4935 7.97198C40.4674 13.153 42.5695 26.3129 36.1884 37.3652C29.8074 48.4174 17.3597 53.1768 8.38558 47.9958C-0.588345 42.8145 -2.69058 29.6548 3.69065 18.6025C10.0715 7.5502 22.5194 2.79079 31.4935 7.97198Z" fill="url(#paint6_radial_3402_2939)"/>
<g style="mix-blend-mode:screen">
<path fill-rule="evenodd" clip-rule="evenodd" d="M22.2346 44.1472C22.1509 44.4255 21.9946 44.6764 21.782 44.8744C21.5693 45.0724 21.3078 45.2102 21.0243 45.2739C20.7811 45.3461 20.5248 45.3633 20.2741 45.3241C20.0235 45.285 19.7847 45.1905 19.5751 45.0475C16.9474 45.7144 14.1709 45.4666 11.7029 44.3448C4.58069 41.0224 2.27022 30.9042 6.54273 21.745C8.58767 17.1265 12.2446 13.4108 16.8299 11.2925C16.8762 10.9649 17.0225 10.6595 17.2489 10.4181C17.4753 10.1767 17.7707 10.0111 18.0947 9.94384C18.3878 9.85082 18.7009 9.84139 18.999 9.91661C19.2971 9.99183 19.5683 10.1487 19.7822 10.3696C20.7217 10.18 21.6795 10.0959 22.6377 10.1189C22.7676 9.94051 22.9484 9.80568 23.1564 9.73214C23.3645 9.65861 23.5899 9.64982 23.803 9.70693C23.9843 9.73899 24.1554 9.81367 24.3022 9.92483C24.449 10.036 24.5672 10.1804 24.6472 10.3463C25.5198 10.5219 26.3684 10.8007 27.1752 11.1767C34.2978 14.4992 36.6082 24.6175 32.3356 33.7766C30.3155 38.329 26.7322 42.0078 22.2346 44.1472Z" fill="#FFFCE4"/>
</g>
<path fill-rule="evenodd" clip-rule="evenodd" d="M28.425 12.0481C35.136 15.9228 36.537 26.0597 31.5546 34.6897C26.5719 43.3196 17.0925 47.1747 10.3816 43.3002C3.67062 39.4255 2.26924 29.2886 7.25192 20.6586C12.2344 12.0286 21.7141 8.17353 28.425 12.0481Z" fill="url(#paint7_radial_3402_2939)"/>
<path style="mix-blend-mode:multiply" opacity="0.5" fill-rule="evenodd" clip-rule="evenodd" d="M10.9112 24.0767C15.6286 15.9058 24.6037 12.2559 30.9576 15.9243C31.8549 16.4425 32.6707 17.0905 33.3785 17.8473C32.4195 15.4164 30.6761 13.3754 28.425 12.0481C21.7141 8.17352 12.2345 12.0286 7.25194 20.6586C2.26922 29.2885 3.67064 39.4255 10.3816 43.3002C10.8625 43.5779 11.3636 43.8191 11.8807 44.0215C7.29494 39.6535 6.73686 31.3064 10.9112 24.0767Z" fill="url(#paint8_radial_3402_2939)"/>
<path fill-rule="evenodd" clip-rule="evenodd" d="M9.46476 21.9361C14.025 14.0374 22.3522 10.1389 28.8762 12.5054C29.0842 12.5807 29.2903 12.6626 29.4945 12.7509C29.3183 12.6199 29.1377 12.4939 28.9527 12.3728C28.7806 12.2601 28.6048 12.1519 28.425 12.0481C21.7141 8.17353 12.2345 12.0286 7.25194 20.6586C2.26922 29.2885 3.67064 39.4255 10.3816 43.3002C10.5613 43.4039 10.743 43.5021 10.9266 43.5949C11.124 43.6946 11.3234 43.788 11.5249 43.875C11.3464 43.7423 11.1725 43.6048 11.0033 43.4624C5.69169 38.9957 4.90453 29.8347 9.46476 21.9361Z" fill="url(#paint9_linear_3402_2939)"/>
<path style="mix-blend-mode:multiply" fill-rule="evenodd" clip-rule="evenodd" d="M24.1859 11.8375C25.7784 11.7417 27.3737 11.9689 28.8762 12.5054C29.0842 12.5807 29.2903 12.6626 29.4945 12.7509C29.3183 12.6199 29.1377 12.4939 28.9527 12.3728C28.7806 12.2601 28.6048 12.1519 28.425 12.0481C21.7141 8.17353 12.2345 12.0286 7.25194 20.6586C2.26922 29.2885 3.67064 39.4255 10.3816 43.3002C10.5613 43.4039 10.743 43.5021 10.9266 43.5949C11.124 43.6946 11.3234 43.788 11.5249 43.875C11.3464 43.7423 11.1725 43.6048 11.0033 43.4624C10.1865 42.773 9.46978 41.9732 8.87371 41.0861C3.92538 36.9331 3.10567 28.3762 7.23443 20.9808C11.1683 13.9349 18.295 10.2713 24.1859 11.8375Z" fill="url(#paint10_radial_3402_2939)"/>
<path style="mix-blend-mode:screen" fill-rule="evenodd" clip-rule="evenodd" d="M29.9146 15.8013C18.0222 10.3936 6.91405 25.8925 8.5493 35.8984C15.1287 33.442 26.069 28.0522 29.9146 15.8013Z" fill="url(#paint11_radial_3402_2939)"/>
<path style="mix-blend-mode:screen" fill-rule="evenodd" clip-rule="evenodd" d="M26.3492 12C26.3492 14.3734 25.6455 16.6934 24.3269 18.6668C23.0083 20.6402 21.1342 22.1783 18.9414 23.0865C16.7487 23.9948 14.3359 24.2324 12.0082 23.7694C9.68039 23.3064 7.5422 22.1635 5.86397 20.4853C4.18574 18.807 3.04285 16.6689 2.57982 14.3411C2.1168 12.0133 2.35444 9.60051 3.2627 7.4078C4.17095 5.21508 5.70901 3.34094 7.6824 2.02236C9.65579 0.703787 11.9759 1.08911e-09 14.3492 1.08912e-09C15.9251 -2.12296e-05 17.4856 0.310353 18.9415 0.913402C20.3974 1.51645 21.7203 2.40036 22.8346 3.51467C23.9489 4.62898 24.8328 5.95186 25.4358 7.40777C26.0389 8.86369 26.3493 10.4241 26.3492 12Z" fill="url(#paint12_radial_3402_2939)"/>
<defs>
<filter id="filter0_d_3402_2939" x="19.3491" y="4" width="117.462" height="50.5468" filterUnits="userSpaceOnUse" color-interpolation-filters="sRGB">
<feFlood flood-opacity="0" result="BackgroundImageFix"/>
<feColorMatrix in="SourceAlpha" type="matrix" values="0 0 0 0 0 0 0 0 0 0 0 0 0 0 0 0 0 0 127 0" result="hardAlpha"/>
<feOffset/>
<feGaussianBlur stdDeviation="3"/>
<feComposite in2="hardAlpha" operator="out"/>
<feColorMatrix type="matrix" values="0 0 0 0 0 0 0 0 0 0 0 0 0 0 0 0 0 0 0.7 0"/>
<feBlend mode="normal" in2="BackgroundImageFix" result="effect1_dropShadow_3402_2939"/>
<feBlend mode="normal" in="SourceGraphic" in2="effect1_dropShadow_3402_2939" result="shape"/>
</filter>
<linearGradient id="paint0_linear_3402_2939" x1="31.8329" y1="28.2708" x2="130.811" y2="28.2708" gradientUnits="userSpaceOnUse">
<stop stop-color="#A63A00"/>
<stop offset="0.19762" stop-color="#E8810C"/>
<stop offset="0.55347" stop-color="#E8810C"/>
<stop offset="0.67206" stop-color="#E9840C"/>
<stop offset="0.74522" stop-color="#EC8C0C"/>
<stop offset="0.80605" stop-color="#F19B0C"/>
<stop offset="0.85981" stop-color="#F7AF0D"/>
<stop offset="0.90378" stop-color="#FFC60D"/>
<stop offset="0.97305" stop-color="#D47100"/>
</linearGradient>
<linearGradient id="paint1_linear_3402_2939" x1="106.26" y1="53.4754" x2="106.26" y2="16.9339" gradientUnits="userSpaceOnUse">
<stop stop-color="#ED8600"/>
<stop offset="1" stop-color="#FFD52B"/>
</linearGradient>
<linearGradient id="paint2_linear_3402_2939" x1="75.9666" y1="44.321" x2="75.9666" y2="16.2314" gradientUnits="userSpaceOnUse">
<stop stop-color="#782B00"/>
<stop offset="1" stop-color="#C95B0C"/>
</linearGradient>
<linearGradient id="paint3_linear_3402_2939" x1="18.7863" y1="54.0007" x2="41.8941" y2="13.9768" gradientUnits="userSpaceOnUse">
<stop stop-color="#E86F0C"/>
<stop offset="0.68773" stop-color="#FC940D"/>
<stop offset="1" stop-color="#E86F0C"/>
</linearGradient>
<radialGradient id="paint4_radial_3402_2939" cx="0" cy="0" r="1" gradientUnits="userSpaceOnUse" gradientTransform="translate(27.2455 27.2801) scale(21.6995)">
<stop stop-color="#FFF369"/>
<stop offset="0.11021" stop-color="#FAEF67"/>
<stop offset="0.23412" stop-color="#EDE262"/>
<stop offset="0.36472" stop-color="#D6CC58"/>
<stop offset="0.49992" stop-color="#B7AE4B"/>
<stop offset="0.63879" stop-color="#8E873B"/>
<stop offset="0.78066" stop-color="#5C5826"/>
<stop offset="0.92227" stop-color="#23210E"/>
<stop offset="1"/>
</radialGradient>
<radialGradient id="paint5_radial_3402_2939" cx="0" cy="0" r="1" gradientUnits="userSpaceOnUse" gradientTransform="translate(15.8663 25.8016) scale(31.4924)">
<stop offset="0.51487" stop-color="white"/>
<stop offset="0.679" stop-color="#E6DDC3"/>
<stop offset="1" stop-color="#B09444"/>
</radialGradient>
<radialGradient id="paint6_radial_3402_2939" cx="0" cy="0" r="1" gradientUnits="userSpaceOnUse" gradientTransform="translate(11.6566 7.15113) scale(40.383 40.383)">
<stop stop-color="#FCF80D"/>
<stop offset="1" stop-color="#FC9C0D"/>
</radialGradient>
<radialGradient id="paint7_radial_3402_2939" cx="0" cy="0" r="1" gradientUnits="userSpaceOnUse" gradientTransform="translate(0.0393891 3.14815) scale(49.3442 49.3442)">
<stop stop-color="#FCF80D"/>
<stop offset="1" stop-color="#F78A0C"/>
</radialGradient>
<radialGradient id="paint8_radial_3402_2939" cx="0" cy="0" r="1" gradientUnits="userSpaceOnUse" gradientTransform="translate(27.5535 31.4336) scale(28.5076 28.5077)">
<stop offset="0.51487" stop-color="white"/>
<stop offset="0.68506" stop-color="#FFE2C3"/>
<stop offset="1" stop-color="#FFA84B"/>
</radialGradient>
<linearGradient id="paint9_linear_3402_2939" x1="4.85921" y1="40.1118" x2="22.6295" y2="9.33272" gradientUnits="userSpaceOnUse">
<stop stop-color="#FC940D"/>
<stop offset="1" stop-color="#E86F0C"/>
</linearGradient>
<radialGradient id="paint10_radial_3402_2939" cx="0" cy="0" r="1" gradientUnits="userSpaceOnUse" gradientTransform="translate(28.0603 32.6379) scale(27.6362 27.6362)">
<stop offset="0.51487" stop-color="white"/>
<stop offset="0.679" stop-color="#E6DDC3"/>
<stop offset="1" stop-color="#B09444"/>
</radialGradient>
<radialGradient id="paint11_radial_3402_2939" cx="0" cy="0" r="1" gradientUnits="userSpaceOnUse" gradientTransform="translate(-0.928092 3.7069) scale(36.7485)">
<stop stop-color="#FFF369"/>
<stop offset="0.11021" stop-color="#FAEF67"/>
<stop offset="0.23412" stop-color="#EDE262"/>
<stop offset="0.36472" stop-color="#D6CC58"/>
<stop offset="0.49992" stop-color="#B7AE4B"/>
<stop offset="0.63879" stop-color="#8E873B"/>
<stop offset="0.78066" stop-color="#5C5826"/>
<stop offset="0.92227" stop-color="#23210E"/>
<stop offset="1"/>
</radialGradient>
<radialGradient id="paint12_radial_3402_2939" cx="0" cy="0" r="1" gradientUnits="userSpaceOnUse" gradientTransform="translate(14.3492 11.9999) scale(11.9999)">
<stop stop-color="#FFF200"/>
<stop offset="0.06692" stop-color="#E1D600"/>
<stop offset="0.21246" stop-color="#A69E00"/>
<stop offset="0.35781" stop-color="#746E00"/>
<stop offset="0.49949" stop-color="#4A4600"/>
<stop offset="0.63685" stop-color="#2A2800"/>
<stop offset="0.76857" stop-color="#131200"/>
<stop offset="0.89229" stop-color="#050500"/>
<stop offset="1"/>
</radialGradient>
</defs>
</svg>
