<svg width="48" height="53" viewBox="0 0 48 53" fill="none" xmlns="http://www.w3.org/2000/svg">
<g filter="url(#filter0_d_1561_16675)">
<path fill-rule="evenodd" clip-rule="evenodd" d="M9.20034 34.1851L16.2102 41.4201L11.2123 47.9186C11.1503 47.9989 11.0839 48.0757 11.0136 48.1483C9.49634 49.7144 6.40136 49.0589 4.1002 46.6837C1.79963 44.3092 1.1644 41.1145 2.68162 39.5485C2.75206 39.4759 2.82643 39.4075 2.90438 39.3436L9.20034 34.1851Z" fill="url(#paint0_linear_1561_16675)"/>
<g style="mix-blend-mode:multiply">
<path fill-rule="evenodd" clip-rule="evenodd" d="M1.8602 41.9936C4.56646 39.6587 7.27271 37.3238 9.97897 34.9889L9.20019 34.1851L2.90424 39.3436C2.82631 39.4075 2.75194 39.4759 2.68148 39.5485C2.38628 39.8739 2.16063 40.2597 2.01915 40.681C1.87767 41.1022 1.82352 41.5494 1.8602 41.9936Z" fill="url(#paint1_linear_1561_16675)"/>
</g>
<g style="mix-blend-mode:multiply" opacity="0.75">
<path fill-rule="evenodd" clip-rule="evenodd" d="M14.808 39.9731C12.3326 42.9064 9.85743 45.8398 7.38232 48.7733C8.81036 49.2071 10.1609 49.0284 11.0134 48.1484C11.0838 48.0757 11.1502 47.999 11.2122 47.9186L16.21 41.4202L14.808 39.9731Z" fill="url(#paint2_linear_1561_16675)"/>
</g>
<g style="mix-blend-mode:screen">
<path fill-rule="evenodd" clip-rule="evenodd" d="M14.4486 35.9019C16.3408 37.855 16.964 40.3784 15.8404 41.538C14.7168 42.6977 12.2721 42.0546 10.3799 40.1015C8.48768 38.1485 7.86439 35.6249 8.98793 34.4652C10.1115 33.3055 12.5564 33.9489 14.4486 35.9019Z" fill="url(#paint3_radial_1561_16675)"/>
</g>
<path fill-rule="evenodd" clip-rule="evenodd" d="M14.5942 35.8524C16.5343 37.8548 17.2004 40.4142 16.0818 41.5687C14.9633 42.7231 12.4837 42.0357 10.5437 40.0332C8.60395 38.0312 7.93802 35.4721 9.05663 34.3175C10.1752 33.163 12.6545 33.8503 14.5942 35.8524Z" fill="url(#paint4_radial_1561_16675)"/>
<path fill-rule="evenodd" clip-rule="evenodd" d="M16.0719 41.1022C15.0063 42.159 12.7104 41.5386 10.8978 39.6677C9.08564 37.7973 8.4847 35.4278 9.50867 34.3279L19.0709 24.0552L26.0246 31.2325L16.0719 41.1022Z" fill="url(#paint5_linear_1561_16675)"/>
<path style="mix-blend-mode:multiply" fill-rule="evenodd" clip-rule="evenodd" d="M9.06209 36.3321C12.6566 32.5048 16.2511 28.6775 19.8455 24.8502L19.0729 24.0527L9.51071 34.3254C9.28775 34.5996 9.13086 34.9243 9.05288 35.2731C8.9749 35.6219 8.97806 35.9848 9.06209 36.3321Z" fill="url(#paint6_linear_1561_16675)"/>
<path style="mix-blend-mode:multiply" fill-rule="evenodd" clip-rule="evenodd" d="M24.6359 29.7949C20.832 33.628 17.0281 37.4611 13.2241 41.2941C14.3678 41.7634 15.4372 41.7293 16.0719 41.1021L26.0267 31.2304L24.6359 29.7949Z" fill="url(#paint7_linear_1561_16675)"/>
<path style="mix-blend-mode:multiply" fill-rule="evenodd" clip-rule="evenodd" d="M21.1877 36.0287L25.3944 31.8568L18.4683 24.708C18.3977 24.7526 18.3314 24.8044 18.2706 24.8624L18.1505 24.9917C17.1021 26.2592 17.5254 29.7993 19.132 33.0197C19.6626 34.1262 20.3561 35.1413 21.1877 36.0287Z" fill="url(#paint8_radial_1561_16675)"/>
<path fill-rule="evenodd" clip-rule="evenodd" d="M25.8719 31.754C24.7294 32.8779 22.1949 32.1303 20.1525 30.0222C18.1097 27.9138 17.3855 25.298 18.4745 24.1187L21.6168 20.7158L29.1688 28.5106L25.8719 31.754Z" fill="url(#paint9_linear_1561_16675)"/>
<path style="mix-blend-mode:multiply" fill-rule="evenodd" clip-rule="evenodd" d="M24.5089 32.6005L28.7156 28.4287L21.7895 21.2798C21.7189 21.3245 21.6527 21.3762 21.5919 21.4342L21.4718 21.5635C20.4233 22.831 20.8466 26.3711 22.4532 29.5915C22.9839 30.698 23.6773 31.7131 24.5089 32.6005Z" fill="url(#paint10_radial_1561_16675)"/>
<path style="mix-blend-mode:multiply" fill-rule="evenodd" clip-rule="evenodd" d="M18.0414 26.3114C19.513 24.735 20.9846 23.1585 22.4559 21.5819L21.6167 20.7158L18.4744 24.1187C18.2363 24.4211 18.0726 24.7784 17.9972 25.1602C17.9219 25.542 17.937 25.9369 18.0414 26.3114Z" fill="url(#paint11_linear_1561_16675)"/>
<path fill-rule="evenodd" clip-rule="evenodd" d="M27.0749 0.0528392C26.871 -0.00454341 26.6557 -0.00181969 26.4533 0.060701C26.2509 0.123222 26.0695 0.243038 25.9297 0.406559L17.9556 9.48249C17.8548 9.5909 17.7809 9.72283 17.7402 9.86704C17.6994 10.0113 17.693 10.1635 17.7215 10.3108L24.1159 32.4399C24.1887 32.6452 24.3077 32.8298 24.4632 32.9782C24.6187 33.1267 24.8061 33.2349 25.0101 33.2939L36.3779 36.5897C36.5368 36.6279 36.7022 36.6268 36.8606 36.5863C37.019 36.5458 37.1657 36.4671 37.2889 36.3566L46.4458 27.8975C46.5957 27.7598 46.7093 27.5851 46.7759 27.3896C46.8425 27.1942 46.8598 26.9846 46.8264 26.7804L43.813 14.3525L38.7815 5.33715C38.6017 5.01676 38.3259 4.76539 37.9956 4.62095L27.0749 0.0528392Z" fill="#666666"/>
<path fill-rule="evenodd" clip-rule="evenodd" d="M31.3655 9.3408L43.7094 14.1666L38.7815 5.33699C38.6018 5.01661 38.3259 4.76524 37.9957 4.6208L27.0749 0.0526856C26.8743 -0.0199679 26.6554 -0.0174069 26.4565 0.0599187L31.3655 9.3408Z" fill="url(#paint12_radial_1561_16675)"/>
<path fill-rule="evenodd" clip-rule="evenodd" d="M43.7093 14.1667L31.3655 9.34082L34.3104 23.3283C34.5004 23.2691 34.7031 23.2693 34.893 23.3288L46.4405 27.3105C46.5494 27.3507 46.6635 27.3743 46.779 27.3805C46.8518 27.1896 46.8683 26.9807 46.8264 26.7802L43.8131 14.3524L43.7093 14.1667Z" fill="url(#paint13_radial_1561_16675)"/>
<path fill-rule="evenodd" clip-rule="evenodd" d="M34.3103 23.3284L31.3654 9.34094L26.4564 0.0600586C26.2556 0.128323 26.0745 0.247446 25.9297 0.406545L17.9556 9.48248C17.8548 9.59089 17.7809 9.72281 17.7402 9.86703C17.6994 10.0112 17.693 10.1635 17.7215 10.3108L24.1159 32.4399C24.1865 32.6612 24.3171 32.8569 24.4921 33.0041C24.5615 32.8974 24.6423 32.7992 24.7329 32.7112L33.9106 23.5577C34.0239 23.4491 34.1611 23.3704 34.3103 23.3284Z" fill="url(#paint14_radial_1561_16675)"/>
<path fill-rule="evenodd" clip-rule="evenodd" d="M33.9106 23.5578L24.7329 32.7112C24.6423 32.7993 24.5615 32.8975 24.4921 33.0041C24.6429 33.1376 24.8195 33.2364 25.0101 33.294L36.3779 36.5897C36.5368 36.628 36.7022 36.6268 36.8606 36.5863C37.0189 36.5458 37.1657 36.4671 37.2889 36.3567L46.4458 27.8975C46.5954 27.7552 46.7096 27.578 46.779 27.3806C46.6634 27.3743 46.5494 27.3508 46.4404 27.3107L34.893 23.329C34.7031 23.2694 34.5003 23.2692 34.3103 23.3285C34.1611 23.3705 34.0239 23.4492 33.9106 23.5578Z" fill="url(#paint15_radial_1561_16675)"/>
<path style="mix-blend-mode:multiply" fill-rule="evenodd" clip-rule="evenodd" d="M39.9775 11.1429C41.9879 13.2179 42.8453 15.6972 41.8926 16.6805C40.9398 17.6639 38.5379 16.779 36.5275 14.7039C34.5171 12.6289 33.6596 10.1495 34.6123 9.1661C35.565 8.18283 37.9672 9.06789 39.9775 11.1429Z" fill="url(#paint16_radial_1561_16675)"/>
<path fill-rule="evenodd" clip-rule="evenodd" d="M42.0713 15.1627L34.7268 7.72168L33.9253 8.61214C33.5814 8.967 33.7 9.76428 34.1698 10.4372C34.5399 12.1691 35.4685 13.7202 36.8037 14.8367C38.5373 16.2766 40.3322 16.8332 41.1115 16.0845L42.0713 15.1627Z" fill="url(#paint17_linear_1561_16675)"/>
<path style="mix-blend-mode:multiply" opacity="0.5" fill-rule="evenodd" clip-rule="evenodd" d="M34.0257 10.2037C34.532 9.65158 35.0383 9.09941 35.5444 8.54718L34.7281 7.72021L33.9267 8.6106C33.7839 8.85492 33.7169 9.13843 33.7346 9.42316C33.7523 9.70789 33.8539 9.98023 34.0257 10.2037Z" fill="url(#paint18_linear_1561_16675)"/>
<path style="mix-blend-mode:multiply" opacity="0.5" fill-rule="evenodd" clip-rule="evenodd" d="M40.6039 13.6733C39.8566 14.4111 39.1092 15.1487 38.3618 15.8863C39.5287 16.4921 40.5672 16.606 41.1115 16.0847L42.0729 15.1617L40.6039 13.6733Z" fill="url(#paint19_linear_1561_16675)"/>
<path style="mix-blend-mode:screen" fill-rule="evenodd" clip-rule="evenodd" d="M40.0472 9.72316C42.0288 11.7685 42.8877 14.1982 41.9655 15.1499C41.0434 16.1017 38.6895 15.2152 36.7079 13.1699C34.7263 11.1246 33.8674 8.69497 34.7895 7.74314C35.7117 6.79139 38.0657 7.67789 40.0472 9.72316Z" fill="url(#paint20_radial_1561_16675)"/>
<path fill-rule="evenodd" clip-rule="evenodd" d="M40.0957 9.68801C42.1063 11.7633 43.0037 14.2016 42.1 15.1343C41.1963 16.0671 38.834 15.1409 36.8234 13.0657C34.8132 10.9908 33.9161 8.5527 34.8197 7.61999C35.7233 6.68727 38.0856 7.61321 40.0957 9.68801Z" fill="url(#paint21_radial_1561_16675)"/>
<path style="mix-blend-mode:screen" fill-rule="evenodd" clip-rule="evenodd" d="M32.1786 13.2031L33.6987 22.2451C33.752 22.5303 33.7365 22.8247 33.6537 23.1023C33.5708 23.3799 33.423 23.6321 33.2234 23.8369L25.2714 32.1742L33.9105 23.9182C34.0513 23.7711 34.227 23.6646 34.4201 23.6095C34.6132 23.5544 34.8169 23.5525 35.011 23.6041L45.4783 26.9789L35.4642 23.2208C35.193 23.1225 34.9502 22.9555 34.7579 22.7351C34.5655 22.5148 34.4299 22.2481 34.3635 21.9595L32.1786 13.2031Z" fill="url(#paint22_radial_1561_16675)"/>
<path style="mix-blend-mode:screen" fill-rule="evenodd" clip-rule="evenodd" d="M27.6254 2.27002L31.4043 9.03985L33.997 10.3699L31.6691 9.69613L32.0954 12.8077L31.0561 9.21953L27.6254 2.27002Z" fill="url(#paint23_radial_1561_16675)"/>
</g>
<defs>
<filter id="filter0_d_1561_16675" x="0.84906" y="0" width="47" height="53" filterUnits="userSpaceOnUse" color-interpolation-filters="sRGB">
<feFlood flood-opacity="0" result="BackgroundImageFix"/>
<feColorMatrix in="SourceAlpha" type="matrix" values="0 0 0 0 0 0 0 0 0 0 0 0 0 0 0 0 0 0 127 0" result="hardAlpha"/>
<feOffset dy="3"/>
<feGaussianBlur stdDeviation="0.5"/>
<feComposite in2="hardAlpha" operator="out"/>
<feColorMatrix type="matrix" values="0 0 0 0 0 0 0 0 0 0 0 0 0 0 0 0 0 0 0.3 0"/>
<feBlend mode="normal" in2="BackgroundImageFix" result="effect1_dropShadow_1561_16675"/>
<feBlend mode="normal" in="SourceGraphic" in2="effect1_dropShadow_1561_16675" result="shape"/>
</filter>
<linearGradient id="paint0_linear_1561_16675" x1="4.23687" y1="37.9444" x2="12.8325" y2="46.2722" gradientUnits="userSpaceOnUse">
<stop stop-color="#D37132"/>
<stop offset="0.37324" stop-color="#E5A13B"/>
<stop offset="0.54395" stop-color="#CB7E2D"/>
<stop offset="0.73367" stop-color="#B25D20"/>
<stop offset="0.89255" stop-color="#A34918"/>
<stop offset="1" stop-color="#9E4215"/>
</linearGradient>
<linearGradient id="paint1_linear_1561_16675" x1="5.07983" y1="37.4593" x2="5.95765" y2="38.4729" gradientUnits="userSpaceOnUse">
<stop stop-color="#6E5750"/>
<stop offset="0.63971" stop-color="#CDC5C3"/>
<stop offset="1" stop-color="white"/>
</linearGradient>
<linearGradient id="paint2_linear_1561_16675" x1="10.9378" y1="44.2428" x2="12.8935" y2="45.7772" gradientUnits="userSpaceOnUse">
<stop stop-color="white"/>
<stop offset="0.11991" stop-color="#DCD6D4"/>
<stop offset="0.27156" stop-color="#B5A9A5"/>
<stop offset="0.41631" stop-color="#968580"/>
<stop offset="0.55028" stop-color="#806C66"/>
<stop offset="0.66954" stop-color="#735C56"/>
<stop offset="0.76191" stop-color="#6E5750"/>
<stop offset="0.8112" stop-color="#715A53"/>
<stop offset="0.85295" stop-color="#79645E"/>
<stop offset="0.89196" stop-color="#88756F"/>
<stop offset="0.92931" stop-color="#9C8D88"/>
<stop offset="0.96513" stop-color="#B6ABA8"/>
<stop offset="1" stop-color="#D6D0CE"/>
</linearGradient>
<radialGradient id="paint3_radial_1561_16675" cx="0" cy="0" r="1" gradientUnits="userSpaceOnUse" gradientTransform="translate(9.52115 38.4936) rotate(45.9066) scale(8.16534 8.16125)">
<stop stop-color="#CA844B"/>
<stop offset="1" stop-color="#010404"/>
</radialGradient>
<radialGradient id="paint4_radial_1561_16675" cx="0" cy="0" r="1" gradientUnits="userSpaceOnUse" gradientTransform="translate(9.84965 37.622) rotate(45.9066) scale(8.02686 8.02284)">
<stop stop-color="#FFD599"/>
<stop offset="0.74286" stop-color="#542300"/>
</radialGradient>
<linearGradient id="paint5_linear_1561_16675" x1="13.2462" y1="30.0683" x2="20.42" y2="37.0186" gradientUnits="userSpaceOnUse">
<stop stop-color="#6B3F24"/>
<stop offset="0.28827" stop-color="#A36544"/>
<stop offset="0.39713" stop-color="#91583A"/>
<stop offset="0.60766" stop-color="#633721"/>
<stop offset="0.67759" stop-color="#5B3320"/>
<stop offset="0.78563" stop-color="#45291E"/>
<stop offset="0.78708" stop-color="#45291E"/>
<stop offset="0.93945" stop-color="#412519"/>
<stop offset="1" stop-color="#3D2215"/>
</linearGradient>
<linearGradient id="paint6_linear_1561_16675" x1="13.5961" y1="29.7068" x2="14.569" y2="30.6493" gradientUnits="userSpaceOnUse">
<stop stop-color="#846853"/>
<stop offset="0.54622" stop-color="#D4CAC3"/>
<stop offset="0.86191" stop-color="white"/>
</linearGradient>
<linearGradient id="paint7_linear_1561_16675" x1="18.8625" y1="35.4757" x2="20.4369" y2="37.0011" gradientUnits="userSpaceOnUse">
<stop offset="0.13809" stop-color="white"/>
<stop offset="0.45378" stop-color="#D4CAC3"/>
<stop offset="1" stop-color="#846853"/>
</linearGradient>
<radialGradient id="paint8_radial_1561_16675" cx="0" cy="0" r="1" gradientUnits="userSpaceOnUse" gradientTransform="translate(29.4879 27.0248) rotate(45.9065) scale(12.5742 12.5679)">
<stop offset="0.70714" stop-color="#9C8371"/>
<stop offset="0.74512" stop-color="#A28A79"/>
<stop offset="0.80385" stop-color="#B19D8F"/>
<stop offset="0.87602" stop-color="#C9BCB2"/>
<stop offset="0.95809" stop-color="#ECE7E3"/>
<stop offset="1" stop-color="white"/>
</radialGradient>
<linearGradient id="paint9_linear_1561_16675" x1="18.9968" y1="23.4212" x2="26.7878" y2="30.9695" gradientUnits="userSpaceOnUse">
<stop stop-color="#49526B"/>
<stop offset="0.28827" stop-color="#7683A2"/>
<stop offset="0.39187" stop-color="#697490"/>
<stop offset="0.59948" stop-color="#484E60"/>
<stop offset="0.70743" stop-color="#353845"/>
<stop offset="0.84988" stop-color="#383D4A"/>
<stop offset="1" stop-color="#404957"/>
</linearGradient>
<radialGradient id="paint10_radial_1561_16675" cx="0" cy="0" r="1" gradientUnits="userSpaceOnUse" gradientTransform="translate(32.0364 24.1488) rotate(45.9065) scale(11.2894 11.2838)">
<stop offset="0.70714" stop-color="#78899B"/>
<stop offset="0.7465" stop-color="#8090A1"/>
<stop offset="0.80736" stop-color="#96A3B1"/>
<stop offset="0.88213" stop-color="#B9C2CB"/>
<stop offset="0.96717" stop-color="#EAEDF0"/>
<stop offset="1" stop-color="white"/>
</radialGradient>
<linearGradient id="paint11_linear_1561_16675" x1="19.3678" y1="23.0382" x2="20.32" y2="23.9607" gradientUnits="userSpaceOnUse">
<stop stop-color="#78899B"/>
<stop offset="0.53884" stop-color="#C3CBD3"/>
<stop offset="1" stop-color="white"/>
</linearGradient>
<radialGradient id="paint12_radial_1561_16675" cx="0" cy="0" r="1" gradientUnits="userSpaceOnUse" gradientTransform="translate(30.1142 7.94783) rotate(45.9065) scale(15.0628 15.0553)">
<stop stop-color="#C3CFEB"/>
<stop offset="1" stop-color="#4B5C7D"/>
</radialGradient>
<radialGradient id="paint13_radial_1561_16675" cx="0" cy="0" r="1" gradientUnits="userSpaceOnUse" gradientTransform="translate(21.2575 9.87416) rotate(45.9066) scale(32.1925 32.1764)">
<stop stop-color="#A7B4D1"/>
<stop offset="1" stop-color="#4B5C7D"/>
</radialGradient>
<radialGradient id="paint14_radial_1561_16675" cx="0" cy="0" r="1" gradientUnits="userSpaceOnUse" gradientTransform="translate(37.7026 0.768811) rotate(45.9065) scale(37.3896 37.3709)">
<stop stop-color="#D4E2FF"/>
<stop offset="1" stop-color="#455473"/>
</radialGradient>
<radialGradient id="paint15_radial_1561_16675" cx="0" cy="0" r="1" gradientUnits="userSpaceOnUse" gradientTransform="translate(29.3661 -3.52154) rotate(45.9066) scale(41.1867 41.1661)">
<stop stop-color="#7284A3"/>
<stop offset="1" stop-color="#313E57"/>
</radialGradient>
<radialGradient id="paint16_radial_1561_16675" cx="0" cy="0" r="1" gradientUnits="userSpaceOnUse" gradientTransform="translate(41.3243 10.2448) rotate(45.9065) scale(6.86088 6.85745)">
<stop offset="0.70714" stop-color="#78899B"/>
<stop offset="0.7465" stop-color="#8090A1"/>
<stop offset="0.80736" stop-color="#96A3B1"/>
<stop offset="0.88213" stop-color="#B9C2CB"/>
<stop offset="0.96717" stop-color="#EAEDF0"/>
<stop offset="1" stop-color="white"/>
</radialGradient>
<linearGradient id="paint17_linear_1561_16675" x1="33.5439" y1="8.94375" x2="41.0511" y2="16.2171" gradientUnits="userSpaceOnUse">
<stop stop-color="#55657E"/>
<stop offset="0.28827" stop-color="#AEC6E8"/>
<stop offset="0.39187" stop-color="#A0B5D6"/>
<stop offset="0.59948" stop-color="#7D8BA6"/>
<stop offset="0.70743" stop-color="#69728B"/>
<stop offset="0.80607" stop-color="#646E86"/>
<stop offset="0.93093" stop-color="#556376"/>
<stop offset="1" stop-color="#4A5A6A"/>
</linearGradient>
<linearGradient id="paint18_linear_1561_16675" x1="33.9551" y1="8.51926" x2="34.8339" y2="9.37072" gradientUnits="userSpaceOnUse">
<stop stop-color="#78899B"/>
<stop offset="0.53884" stop-color="#C3CBD3"/>
<stop offset="1" stop-color="white"/>
</linearGradient>
<linearGradient id="paint19_linear_1561_16675" x1="39.4655" y1="14.7484" x2="41.0177" y2="16.2522" gradientUnits="userSpaceOnUse">
<stop stop-color="white"/>
<stop offset="0.46116" stop-color="#C3CBD3"/>
<stop offset="1" stop-color="#78899B"/>
</linearGradient>
<radialGradient id="paint20_radial_1561_16675" cx="0" cy="0" r="1" gradientUnits="userSpaceOnUse" gradientTransform="translate(35.5641 11.3655) rotate(45.9066) scale(6.63701 6.63368)">
<stop stop-color="#DCE9F2"/>
<stop offset="0.13791" stop-color="#BBC6CD"/>
<stop offset="0.56634" stop-color="#575C60"/>
<stop offset="0.86244" stop-color="#181A1B"/>
<stop offset="1"/>
</radialGradient>
<radialGradient id="paint21_radial_1561_16675" cx="0" cy="0" r="1" gradientUnits="userSpaceOnUse" gradientTransform="translate(34.9528 10.6622) rotate(45.9066) scale(9.83883 9.83391)">
<stop stop-color="#D4E2FF"/>
<stop offset="1" stop-color="#4B5C7D"/>
</radialGradient>
<radialGradient id="paint22_radial_1561_16675" cx="0" cy="0" r="1" gradientUnits="userSpaceOnUse" gradientTransform="translate(34.213 23.1382) rotate(45.9065) scale(14.1452 14.1382)">
<stop stop-color="#78899B"/>
<stop offset="0.35705" stop-color="#4A545F"/>
<stop offset="0.79476" stop-color="#15181B"/>
<stop offset="1"/>
</radialGradient>
<radialGradient id="paint23_radial_1561_16675" cx="0" cy="0" r="1" gradientUnits="userSpaceOnUse" gradientTransform="translate(30.8118 9.56434) rotate(45.9065) scale(11.6912 11.6853)">
<stop stop-color="#78899B"/>
<stop offset="0.35705" stop-color="#4A545F"/>
<stop offset="0.79476" stop-color="#15181B"/>
<stop offset="1"/>
</radialGradient>
</defs>
</svg>
