<svg width="14" height="22" viewBox="0 0 14 22" fill="none" xmlns="http://www.w3.org/2000/svg">
<path d="M7.338 16.2991C7.31369 16.587 7.06033 16.7992 6.77304 16.775C6.48513 16.7507 6.27285 16.4974 6.29707 16.21L6.2971 16.2098C6.32248 15.9184 6.28264 15.6295 6.18618 15.3641C6.08979 15.0996 5.9349 14.8541 5.72778 14.6471L5.72775 14.6471C5.52073 14.4401 5.27516 14.285 5.01066 14.1886L5.01057 14.1886C4.74878 14.0929 4.46378 14.0536 4.17661 14.0764C3.87595 14.1052 3.59829 13.8813 3.59829 13.5573V10.2194C3.59829 9.76128 3.22286 9.39287 2.77117 9.39287C2.31625 9.39287 1.94405 9.76515 1.94405 10.2194V15.0428C1.94405 16.4213 2.50799 17.6743 3.41614 18.5831C4.32483 19.4912 5.57861 20.0551 6.95636 20.0551C8.32357 20.0551 9.56817 19.5003 10.4749 18.6048L10.494 18.5845L10.496 18.5825L10.496 18.5825C11.4047 17.6738 11.9686 16.42 11.9686 15.0428V6.92181C11.9686 6.75712 11.9009 6.60663 11.7915 6.49774L11.7887 6.49494L11.7887 6.49489L11.7743 6.4793C11.6667 6.38061 11.5232 6.32028 11.3665 6.32028C11.2018 6.32028 11.0513 6.38801 10.9424 6.49741L10.9423 6.49758C10.8343 6.60553 10.7673 6.75241 10.765 6.91362V10.0069C10.765 10.2953 10.5314 10.5296 10.2422 10.5296C9.95383 10.5296 9.71948 10.2961 9.71948 10.0069V4.0537C9.71948 3.88972 9.65182 3.73923 9.54215 3.62943L9.54165 3.62893C9.43374 3.51938 9.28368 3.45217 9.11795 3.45217C8.95327 3.45217 8.80277 3.51991 8.69389 3.6293L8.69372 3.62947C8.58575 3.73744 8.51873 3.88435 8.51643 4.04557V10.0067C8.51643 10.2951 8.28284 10.5295 7.99368 10.5295C7.70529 10.5295 7.47094 10.2959 7.47094 10.0067V2.54658C7.47094 2.38189 7.4032 2.2314 7.29381 2.12251L7.291 2.11971L7.29105 2.11966L7.27659 2.10407C7.16904 2.00541 7.025 1.94505 6.8688 1.94505C6.70412 1.94505 6.55362 2.01279 6.44473 2.12218L6.44457 2.12235C6.33495 2.23196 6.26727 2.38257 6.26727 2.54658V10.0075C6.26727 10.2959 6.03369 10.5302 5.74453 10.5302C5.45614 10.5302 5.22179 10.2967 5.22179 10.0075V5.08931C5.21947 4.92657 5.15206 4.779 5.04636 4.67317C4.93621 4.56305 4.78584 4.49592 4.62025 4.49592C4.45557 4.49592 4.30507 4.56366 4.19619 4.67305L4.19569 4.67355C4.08658 4.78165 4.01872 4.9326 4.01872 5.09805V8.82903C4.04361 8.8514 4.06777 8.87434 4.09156 8.89824L4.09161 8.89829C4.42977 9.23847 4.64098 9.70634 4.64098 10.2198V13.0423C4.88934 13.068 5.13365 13.1246 5.36683 13.2093L5.36698 13.2094C5.77639 13.3588 6.1533 13.5953 6.46682 13.9088C6.77974 14.2217 7.01682 14.5992 7.16624 15.0086L7.16626 15.0087C7.31496 15.4168 7.37594 15.858 7.338 16.2991ZM7.338 16.2991C7.338 16.2992 7.33799 16.2992 7.33799 16.2992L7.23836 16.2906L7.33801 16.299C7.338 16.2991 7.338 16.2991 7.338 16.2991ZM13.0144 10.7836V10.759L13.014 10.7581V6.92163C13.014 6.46789 12.8284 6.05571 12.531 5.75832L12.5311 5.75824L12.5276 5.75507L12.5006 5.73051C12.2055 5.44936 11.8056 5.27536 11.3678 5.27536C11.1556 5.27536 10.9528 5.31618 10.7663 5.38978V4.05335C10.7663 3.60045 10.5806 3.18814 10.2821 2.89143C9.98413 2.5929 9.57178 2.40707 9.12 2.40707C8.90775 2.40707 8.70482 2.44793 8.51827 2.52157C8.51167 2.07759 8.32748 1.67495 8.03549 1.38296L8.03557 1.38288L8.03208 1.37971L8.00508 1.35514C7.7099 1.074 7.31012 0.9 6.8716 0.9C6.41787 0.9 6.00568 1.08557 5.70829 1.38296C5.41036 1.6809 5.22457 2.09323 5.22457 2.54628V3.56513C5.03777 3.49082 4.83453 3.45002 4.62303 3.45002C4.16933 3.45002 3.75709 3.63558 3.45962 3.93501C3.16258 4.23286 2.97675 4.64436 2.97675 5.0969V8.35907C2.90938 8.35178 2.84115 8.34805 2.77189 8.34805C1.74268 8.34805 0.9 9.19069 0.9 10.2193V15.0428C0.9 16.7077 1.58133 18.222 2.68024 19.3209L2.68025 19.3209C3.77783 20.4181 5.29214 21.1 6.95689 21.1C8.60899 21.1 10.1125 20.4291 11.2074 19.3471L11.2317 19.3252L11.2317 19.3253L11.2353 19.3217C12.3331 18.2245 13.0144 16.7095 13.0144 15.0435V10.7836ZM6.39672 16.2184C6.42339 15.9124 6.38154 15.6089 6.28017 15.3299C6.17879 15.0517 6.01597 14.7937 5.79846 14.5764C5.58112 14.359 5.3231 14.1961 5.0449 14.0947C4.76921 13.9939 4.4695 13.9528 4.16788 13.9768C3.92136 14.0008 3.69829 13.8184 3.69829 13.5573V10.2194C3.69829 9.70543 3.27747 9.29287 2.77117 9.29287C2.26106 9.29287 1.84405 9.70988 1.84405 10.2194V15.0428C1.84405 16.4491 2.41946 17.7272 3.3454 18.6538L6.39672 16.2184Z" fill="white" stroke="white" stroke-width="0.2"/>
</svg>
