<svg width="21" height="17" viewBox="0 0 21 17" fill="none" xmlns="http://www.w3.org/2000/svg">
<path d="M20.8455 10.65V13.65C20.8455 15.03 19.7255 16.15 18.3455 16.15H16.3455C16.0655 16.15 15.8455 15.92 15.8455 15.65V8.65001C15.8455 8.37001 16.0655 8.15001 16.3455 8.15001H16.8455V8.14001H17.8455V8.15001H18.3455C19.7255 8.15001 20.8455 9.27001 20.8455 10.65Z" fill="#E6E7F2"/>
<path d="M5.84546 8.65001V15.65C5.84546 15.92 5.62546 16.15 5.34546 16.15H3.34546C1.96546 16.15 0.845459 15.03 0.845459 13.65V10.65C0.845459 9.27001 1.96546 8.15001 3.34546 8.15001H3.84546V8.14001H4.84546V8.15001H5.34546C5.62546 8.15001 5.84546 8.36001 5.84546 8.65001Z" fill="#E6E7F2"/>
<path d="M17.8455 7.13V8.14001H16.8455V7.13C16.8455 3.82 14.1555 1.13 10.8455 1.13C7.53546 1.13 4.84546 3.82 4.84546 7.13V8.14001H3.84546V7.13C3.84546 3.27 6.97546 0.130005 10.8455 0.130005C14.7155 0.130005 17.8455 3.27 17.8455 7.13Z" fill="#E6E7F2" stroke="#E6E7F2" stroke-width="0.25" stroke-miterlimit="10"/>
</svg>
