<svg width="178" height="124" viewBox="0 0 178 124" fill="none" xmlns="http://www.w3.org/2000/svg">
<mask id="mask0_3_4289" style="mask-type:alpha" maskUnits="userSpaceOnUse" x="0" y="0" width="178" height="124">
<rect x="0.523926" y="0.450195" width="177" height="122.927" rx="10" fill="#AFDBC5"/>
</mask>
<g mask="url(#mask0_3_4289)">
<path d="M177.522 -3.26489H-6.16907V178.817H177.522V-3.26489Z" fill="#554A96"/>
<path d="M150.747 103.169C166.073 71.7588 149.363 32.3276 113.424 15.0972C77.485 -2.13319 35.926 9.36192 20.5995 40.7723C5.27303 72.1826 21.9828 111.614 57.9219 128.844C93.861 146.075 135.42 134.579 150.747 103.169Z" fill="#3B3283"/>
<path d="M166.643 16.4691C165.378 15.2072 163.656 14.6519 162.099 14.9833C163.091 13.8598 163.236 12.0463 162.404 10.7444C161.557 9.41887 159.786 8.71603 158.193 9.07473C156.887 9.36788 155.787 10.2401 155.214 11.3854C155.348 10.4531 155.339 9.31144 154.885 8.19528C154.334 6.84059 153.192 5.82822 151.9 5.55327C150.326 5.21824 148.495 6.02122 147.444 7.50883C146.77 8.46294 146.32 9.68471 146.156 10.952C145.906 10.0798 145.32 9.27867 144.516 8.79797C143.32 8.08421 141.702 8.06236 140.392 8.7397C139.172 9.37153 138.217 10.5933 137.837 12.0117C137.512 13.228 137.589 14.5536 138.059 15.8646C136.926 14.8995 135.735 13.9746 134.139 14.255C133.07 14.4425 132.187 15.0944 131.716 16.043C131.248 16.9862 131.266 18.0696 131.764 19.0164C132.605 20.6151 134.327 21.6129 137.023 22.0663C138.889 22.3794 140.811 22.3995 142.668 22.4177C143.013 22.4213 143.357 22.425 143.702 22.4304C143.974 22.4341 144.215 22.4395 144.437 22.4468C145.96 22.4942 147.484 22.5251 148.967 22.5379C149.604 22.5433 150.238 22.547 150.873 22.547C153.179 22.547 155.46 22.5069 157.681 22.4286C158.23 22.4086 158.789 22.3794 159.329 22.3521C160.126 22.3103 160.949 22.2684 161.759 22.2556C163.122 22.232 164.34 22.1719 165.449 21.6803C166.408 21.2542 167.69 20.524 167.777 19.102C167.832 18.2007 167.418 17.2411 166.643 16.4691Z" fill="#6F74C5"/>
<path d="M175.437 45.2327C174.559 44.3588 173.368 43.9746 172.288 44.204C172.975 43.4247 173.076 42.1701 172.499 41.267C171.913 40.3493 170.686 39.8613 169.584 40.109C168.679 40.3129 167.918 40.9156 167.52 41.7095C167.611 41.0631 167.606 40.2728 167.292 39.499C166.912 38.5613 166.118 37.8603 165.223 37.6691C164.134 37.436 162.865 37.9932 162.137 39.0238C161.671 39.6847 161.359 40.5314 161.245 41.409C161.072 40.8045 160.666 40.2492 160.11 39.9178C159.281 39.4243 158.161 39.408 157.253 39.8777C156.408 40.3147 155.747 41.1614 155.484 42.1446C155.258 42.9877 155.312 43.9054 155.638 44.814C154.854 44.1457 154.029 43.5048 152.924 43.6996C152.183 43.8289 151.572 44.2805 151.245 44.9378C150.921 45.5914 150.932 46.3416 151.278 46.9971C151.86 48.1042 153.052 48.7961 154.92 49.1093C156.213 49.3259 157.543 49.3405 158.831 49.3533C159.07 49.3551 159.309 49.3587 159.547 49.3624C159.737 49.366 159.902 49.3696 160.056 49.3733C161.111 49.4061 162.167 49.4279 163.194 49.437C163.635 49.4407 164.075 49.4425 164.514 49.4425C166.111 49.4425 167.692 49.4152 169.23 49.3605C169.61 49.3478 169.998 49.3278 170.37 49.3077C170.922 49.2786 171.493 49.2495 172.053 49.2404C172.997 49.224 173.84 49.1821 174.608 48.8416C175.271 48.5466 176.16 48.0404 176.221 47.0554C176.26 46.4308 175.973 45.7662 175.437 45.2327Z" fill="#93A1ED"/>
<path d="M14.3915 82.1115C13.7376 81.4615 12.8503 81.1738 12.0476 81.345C12.5601 80.7641 12.6336 79.8301 12.2056 79.1582C11.7684 78.4735 10.8555 78.1112 10.0344 78.2969C9.36022 78.448 8.79261 78.8978 8.49687 79.4896C8.56667 79.0089 8.56116 78.4189 8.32787 77.8435C8.04315 77.1443 7.45351 76.6218 6.78855 76.4797C5.97663 76.3068 5.03063 76.7219 4.48874 77.4885C4.14156 77.9801 3.90828 78.6119 3.82378 79.2656C3.69519 78.8159 3.39211 78.4025 2.97696 78.1549C2.35976 77.7871 1.52581 77.7762 0.849825 78.1258C0.219766 78.4517 -0.272524 79.0817 -0.469074 79.8137C-0.638069 80.44 -0.597657 81.1247 -0.353348 81.802C-0.937485 81.3049 -1.55285 80.826 -2.37578 80.9717C-2.92685 81.0682 -3.38241 81.4051 -3.62672 81.8949C-3.86735 82.381 -3.86 82.94 -3.60284 83.428C-3.16933 84.2528 -2.2821 84.7681 -0.889725 85.0012C0.0728137 85.1632 1.06474 85.1723 2.02361 85.1833C2.20179 85.1851 2.37997 85.1869 2.55631 85.1887C2.69775 85.1905 2.82083 85.1942 2.93472 85.1978C3.72091 85.2215 4.50711 85.2379 5.27126 85.2452C5.60007 85.2488 5.92704 85.2506 6.25401 85.2506C7.44248 85.2506 8.61994 85.2306 9.76617 85.1887C10.0491 85.1778 10.3374 85.1632 10.6167 85.1487C11.0281 85.1268 11.4525 85.105 11.8694 85.0977C12.573 85.0849 13.2012 85.0558 13.7725 84.8009C14.2666 84.5806 14.9297 84.2036 14.9738 83.4717C15.0032 83.0056 14.7901 82.5103 14.3915 82.1115Z" fill="#93A1ED"/>
<path d="M175.687 90.8677C175.058 90.2431 174.206 89.9663 173.435 90.132C173.927 89.5749 173.999 88.6772 173.585 88.0308C173.166 87.3735 172.288 87.0257 171.5 87.2023C170.852 87.348 170.308 87.7795 170.023 88.3476C170.09 87.8852 170.086 87.3189 169.86 86.7672C169.588 86.0953 169.021 85.5946 168.381 85.458C167.602 85.2923 166.693 85.6892 166.173 86.4267C165.839 86.9001 165.617 87.5046 165.534 88.1328C165.411 87.7012 165.121 87.3025 164.722 87.0658C164.131 86.7125 163.328 86.7016 162.68 87.0366C162.075 87.3498 161.601 87.9562 161.414 88.6572C161.252 89.2599 161.291 89.9172 161.524 90.5672C160.962 90.0902 160.372 89.6313 159.583 89.7697C159.053 89.8626 158.614 90.1848 158.381 90.6564C158.15 91.1244 158.157 91.6597 158.405 92.1295C158.822 92.9215 159.674 93.4168 161.012 93.6408C161.936 93.7955 162.889 93.8065 163.809 93.8156C163.98 93.8174 164.151 93.8192 164.322 93.821C164.458 93.8229 164.575 93.8265 164.685 93.8283C165.44 93.852 166.195 93.8665 166.93 93.8738C167.246 93.8775 167.56 93.8775 167.874 93.8775C169.017 93.8775 170.147 93.8574 171.247 93.8192C171.519 93.8101 171.796 93.7955 172.064 93.781C172.459 93.7609 172.867 93.7391 173.267 93.7336C173.943 93.7227 174.546 93.6918 175.095 93.4478C175.569 93.2365 176.207 92.8742 176.249 92.1695C176.276 91.7253 176.071 91.2518 175.687 90.8677Z" fill="#93A1ED"/>
<path d="M17.1709 44.0946C16.5041 43.4318 15.5985 43.1387 14.7793 43.3135C15.301 42.7217 15.3781 41.7676 14.9409 41.083C14.4964 40.3856 13.5632 40.016 12.7256 40.2035C12.0386 40.3583 11.46 40.8171 11.1569 41.4198C11.2267 40.9282 11.223 40.3273 10.9842 39.741C10.694 39.0291 10.0933 38.4956 9.41367 38.3499C8.58523 38.1733 7.62085 38.5957 7.06794 39.3787C6.71342 39.8812 6.47646 40.524 6.39012 41.1904C6.2597 40.7315 5.9511 40.3091 5.52678 40.056C4.89855 39.6809 4.04623 39.6682 3.35739 40.0251C2.71631 40.3565 2.213 41.001 2.01277 41.7476C1.84194 42.3867 1.88235 43.0859 2.13034 43.7759C1.53334 43.2679 0.906956 42.7818 0.0674901 42.9293C-0.494603 43.0276 -0.959341 43.3717 -1.20732 43.8706C-1.45347 44.3659 -1.44428 44.9376 -1.18161 45.4347C-0.738912 46.2759 0.166683 46.8003 1.58661 47.0407C2.56936 47.2064 3.57966 47.2155 4.55689 47.2264C4.73874 47.2282 4.91876 47.23 5.10061 47.2319C5.24389 47.2337 5.37064 47.2373 5.4882 47.241C6.28909 47.2665 7.09182 47.281 7.87251 47.2901C8.20682 47.2938 8.54114 47.2956 8.87546 47.2956C10.0878 47.2956 11.2892 47.2737 12.4574 47.2337C12.7458 47.2227 13.0397 47.2082 13.3244 47.1936C13.7433 47.1718 14.1768 47.1499 14.6029 47.1426C15.3193 47.1299 15.9622 47.0989 16.5445 46.8404C17.0479 46.6164 17.7238 46.2322 17.7698 45.4839C17.7973 45.005 17.5787 44.5006 17.1709 44.0946Z" fill="#93A1ED"/>
<path d="M37.4925 125.971C36.1038 124.588 34.2155 123.978 32.5071 124.342C33.5946 123.109 33.7544 121.119 32.8433 119.69C31.9157 118.235 29.9722 117.465 28.2253 117.856C26.7907 118.178 25.5857 119.134 24.9556 120.392C25.1026 119.369 25.0915 118.116 24.5956 116.893C23.9912 115.407 22.7366 114.296 21.3204 113.994C19.5937 113.626 17.5841 114.508 16.4305 116.139C15.6903 117.186 15.198 118.526 15.0161 119.917C14.7424 118.959 14.0995 118.08 13.2159 117.554C11.9044 116.771 10.1281 116.747 8.69164 117.49C7.35437 118.182 6.3055 119.524 5.88852 121.081C5.53033 122.415 5.61666 123.87 6.13283 125.309C4.88925 124.251 3.5832 123.235 1.83263 123.542C0.658848 123.748 -0.309202 124.464 -0.825373 125.503C-1.33971 126.538 -1.3195 127.727 -0.773939 128.766C0.148188 130.52 2.03653 131.614 4.99762 132.113C7.04577 132.457 9.15271 132.479 11.1917 132.499C11.5701 132.503 11.9485 132.506 12.325 132.512C12.6245 132.515 12.8871 132.523 13.1314 132.53C14.8012 132.581 16.4746 132.616 18.1021 132.63C18.8001 132.637 19.4982 132.639 20.1925 132.639C22.7219 132.639 25.2256 132.595 27.6614 132.508C28.2639 132.486 28.8774 132.455 29.4689 132.424C30.3433 132.379 31.247 132.333 32.1343 132.317C33.6295 132.291 34.9668 132.226 36.1828 131.685C37.2335 131.217 38.6424 130.416 38.7361 128.857C38.7967 127.87 38.343 126.82 37.4925 125.971Z" fill="#93A1ED"/>
<path d="M31.9615 10.3622C30.7234 9.12947 29.0427 8.58504 27.5199 8.90915C28.4897 7.80937 28.6312 6.03772 27.8193 4.76497C26.9927 3.46855 25.2605 2.7821 23.7046 3.1317C22.4261 3.41938 21.3515 4.26971 20.7913 5.39133C20.9217 4.4791 20.9125 3.36294 20.4698 2.27227C19.9316 0.948535 18.8129 -0.0419892 17.551 -0.309649C16.0135 -0.637396 14.2207 0.147376 13.1938 1.60221C12.5344 2.53447 12.0954 3.72892 11.9337 4.96708C11.6894 4.11494 11.1163 3.33016 10.3301 2.86221C9.16182 2.16484 7.5784 2.14299 6.29808 2.80577C5.10593 3.42303 4.17278 4.6193 3.79988 6.00494C3.4821 7.19394 3.55741 8.49036 4.01848 9.77221C2.91082 8.82903 1.74622 7.92409 0.186689 8.19903C-0.858511 8.38293 -1.72186 9.02022 -2.18108 9.94701C-2.63847 10.8683 -2.62194 11.9281 -2.13516 12.853C-1.31223 14.4153 0.368543 15.3913 3.00634 15.8355C4.83039 16.1433 6.70954 16.1615 8.52441 16.1797C8.86056 16.1833 9.19855 16.187 9.53471 16.1906C9.80106 16.1942 10.0362 16.1997 10.2529 16.207C11.7408 16.2525 13.2306 16.2835 14.6817 16.2962C15.3044 16.3017 15.9253 16.3053 16.5443 16.3053C18.7964 16.3053 21.0282 16.2671 23.1995 16.1888C23.7358 16.1687 24.2832 16.1414 24.8104 16.1141C25.5893 16.0741 26.3938 16.0322 27.1855 16.0194C28.5173 15.9958 29.7095 15.9375 30.7932 15.4568C31.73 15.0398 32.9847 14.3261 33.0692 12.9368C33.1243 12.0537 32.7201 11.116 31.9615 10.3622Z" fill="#6F74C5"/>
<path d="M133.719 74.0363C129.836 70.1689 124.56 68.4628 119.784 69.4806C122.826 66.0338 123.269 60.473 120.721 56.48C118.125 52.4141 112.697 50.2583 107.813 51.358C103.805 52.2593 100.434 54.9305 98.6743 58.4447C99.0839 55.586 99.0563 52.0827 97.6658 48.6632C95.9777 44.51 92.471 41.4055 88.5107 40.5624C83.6851 39.5337 78.066 41.999 74.8459 46.5565C72.7775 49.4826 71.398 53.2298 70.8947 57.1136C70.1306 54.4389 68.3322 51.9808 65.8653 50.5095C62.1988 48.3227 57.2355 48.2535 53.22 50.3329C49.4801 52.2684 46.552 56.0193 45.3856 60.3656C44.3863 64.0947 44.6233 68.1624 46.0689 72.1809C42.5935 69.2239 38.9436 66.3852 34.05 67.2447C30.7712 67.82 28.0636 69.8193 26.6198 72.7271C25.1851 75.6186 25.2384 78.9416 26.7667 81.844C29.3457 86.7456 34.6213 89.8046 42.8948 91.1975C48.6167 92.1607 54.5077 92.219 60.2058 92.2754C61.262 92.2864 62.32 92.2973 63.3744 92.3118C64.2102 92.3246 64.9468 92.341 65.6283 92.361C70.2977 92.5048 74.9708 92.5995 79.519 92.6432C81.4716 92.6614 83.4206 92.6705 85.364 92.6705C92.4306 92.6705 99.4311 92.5485 106.24 92.3046C107.925 92.2445 109.637 92.1571 111.294 92.0715C113.737 91.9459 116.263 91.8166 118.744 91.7729C122.923 91.7019 126.661 91.518 130.06 90.0067C132.997 88.6993 136.933 86.4579 137.196 82.1007C137.365 79.344 136.098 76.4034 133.719 74.0363Z" fill="#74C7E5"/>
<path d="M72.5388 67.243C72.1843 67.283 71.9308 67.6017 71.9712 67.9513C72.098 69.0456 71.5359 70.2273 70.6009 70.8245C69.6677 71.4217 68.3489 71.4436 67.3955 70.8773C66.4421 70.311 65.8396 69.1494 65.9315 68.0514C65.9609 67.7 65.6964 67.3905 65.3418 67.3613C64.9836 67.3304 64.675 67.5944 64.6457 67.9458C64.585 68.6687 64.7283 69.397 65.0296 70.0543C64.7191 70.5077 64.315 70.8992 63.8484 71.1869C63.7474 71.2488 63.7162 71.3799 63.7786 71.48C63.819 71.5456 63.8888 71.5802 63.9623 71.5802C64.0009 71.5802 64.0413 71.5692 64.0762 71.5474C64.5281 71.2688 64.9285 70.901 65.2518 70.4786C65.5715 71.0157 66.0068 71.4855 66.5266 71.8405C66.3411 72.2429 66.0325 72.5925 65.6449 72.811C65.5421 72.8693 65.5053 72.9986 65.5641 73.1024C65.6027 73.1715 65.6762 73.2098 65.7515 73.2098C65.7882 73.2098 65.8231 73.2007 65.858 73.1825C66.3099 72.9294 66.6718 72.5288 66.8977 72.0645C67.5278 72.4013 68.2405 72.5707 68.955 72.5707C69.7798 72.5707 70.6064 72.3467 71.3026 71.9006C72.6546 71.0357 73.4389 69.3915 73.2552 67.8056C73.2148 67.4542 72.8934 67.2029 72.5388 67.243Z" fill="#231F20"/>
<path d="M99.8552 71.1869C99.3886 70.8992 98.9845 70.5077 98.674 70.0543C98.9753 69.397 99.1186 68.6687 99.0579 67.9476C99.0286 67.5962 98.7218 67.3358 98.3618 67.3613C98.0072 67.3905 97.7427 67.6982 97.7721 68.0514C97.8621 69.1494 97.2596 70.311 96.3081 70.8773C95.3547 71.4436 94.0377 71.4217 93.1027 70.8245C92.1695 70.2273 91.6056 69.0456 91.7324 67.9513C91.7728 67.5998 91.5193 67.283 91.1648 67.243C90.8121 67.2029 90.4906 67.4542 90.4502 67.8056C90.2665 69.3897 91.0509 71.0357 92.4028 71.9006C93.1009 72.3467 93.9256 72.5707 94.7504 72.5707C95.465 72.5707 96.1758 72.4013 96.8077 72.0645C97.0337 72.5288 97.3956 72.9294 97.8474 73.1825C97.8805 73.2007 97.9172 73.2098 97.954 73.2098C98.0293 73.2098 98.1028 73.1715 98.1413 73.1024C98.2001 73.0004 98.1634 72.8693 98.0605 72.811C97.6729 72.5943 97.3643 72.2448 97.1788 71.8405C97.6986 71.4873 98.134 71.0175 98.4536 70.4786C98.7769 70.9028 99.1773 71.2688 99.6311 71.5474C99.666 71.5692 99.7064 71.5802 99.745 71.5802C99.8166 71.5802 99.8864 71.5437 99.9286 71.48C99.9856 71.3817 99.9562 71.2506 99.8552 71.1869Z" fill="#231F20"/>
<path d="M76.7013 82.3882C76.0217 81.6326 74.824 81.3777 73.8559 81.7855C72.8567 82.2043 72.2303 83.2713 72.3993 84.2673C72.5848 85.3616 73.6594 85.9552 74.644 86.0572C74.7579 86.0681 74.8681 86.0754 74.9783 86.0754C75.7608 86.0754 76.4423 85.7804 76.8446 85.2542C77.471 84.4348 77.4085 83.1766 76.7013 82.3882Z" fill="#91D9F2"/>
<path d="M67.9465 75.4765C66.8701 74.8411 65.3399 74.7937 64.1276 74.8101C62.7646 74.8283 61.2381 75.0122 59.9853 75.573C59.0412 75.9955 58.5029 76.9204 58.9677 77.9182C59.4875 79.0362 60.9332 79.3822 62.05 79.5187C63.8722 79.7409 67.7646 79.8611 68.7364 77.8928C69.1846 76.9805 68.8098 75.9864 67.9465 75.4765Z" fill="#57B6DC"/>
<path d="M105.941 75.4765C104.865 74.8411 103.335 74.7937 102.122 74.8101C100.759 74.8283 99.2327 75.0122 97.98 75.573C97.0358 75.9955 96.4976 76.9204 96.9623 77.9182C97.4822 79.0362 98.9278 79.3822 100.045 79.5187C101.867 79.7409 105.759 79.8611 106.731 77.8928C107.177 76.9805 106.804 75.9864 105.941 75.4765Z" fill="#57B6DC"/>
<path d="M30.8446 69.9195C28.4768 70.9009 26.9302 73.5429 27.2461 76.0666C27.5621 78.5902 29.7131 80.7789 32.2498 81.1558C32.3086 81.1649 32.3674 81.1685 32.428 81.1685C33.0085 81.1685 33.51 80.7388 33.5963 80.1707C33.6441 79.8612 33.5651 79.5516 33.3777 79.2985C33.1903 79.0473 32.9148 78.8816 32.6025 78.8361C31.0779 78.6085 29.7847 77.2938 29.5937 75.7771C29.4045 74.2603 30.334 72.6708 31.7557 72.0826C33.1793 71.4927 34.9721 71.9534 35.9273 73.1533C36.1239 73.3991 36.4049 73.5539 36.7172 73.5903C37.0313 73.6267 37.3399 73.5393 37.5879 73.3463C37.8359 73.1515 37.992 72.8729 38.0306 72.5633C38.0692 72.2538 37.9792 71.9461 37.7844 71.7003C36.1955 69.7028 33.2106 68.9381 30.8446 69.9195Z" fill="#57B6DC"/>
<path d="M55.5988 50.7773C52.4228 51.3217 49.5168 53.6178 48.0123 56.7696C46.7192 59.4808 46.4106 62.8293 47.1435 66.196C47.2611 66.7313 47.746 67.1209 48.2989 67.1209C48.3834 67.1209 48.4679 67.1118 48.5487 67.0936C48.8573 67.0281 49.1218 66.846 49.2927 66.582C49.4635 66.318 49.5223 66.0048 49.4543 65.6989C48.8298 62.8329 49.0759 60.0179 50.1487 57.7692C51.328 55.2966 53.5708 53.5012 55.9974 53.0843C58.525 52.6527 61.2509 53.8854 62.3402 55.9539C62.4872 56.2325 62.7333 56.4364 63.0346 56.5311C63.3358 56.6257 63.6573 56.5966 63.9365 56.4528C64.5151 56.1542 64.7411 55.444 64.438 54.8705C62.8729 51.8916 59.1532 50.1691 55.5988 50.7773Z" fill="#57B6DC"/>
<path d="M92.0301 46.6094C91.0731 43.616 87.7795 41.4474 84.3702 41.5712C81.3981 41.6768 78.448 43.3465 76.4752 46.0377C74.901 48.1862 73.9072 50.9666 73.5233 54.3024C73.4498 54.9451 73.9164 55.5278 74.5667 55.6006C74.6126 55.6061 74.6567 55.6079 74.7008 55.6079C75.3014 55.6079 75.8066 55.1618 75.8745 54.5682C76.2125 51.6403 77.0593 49.2332 78.3911 47.4142C79.9378 45.3021 82.2045 43.9929 84.4547 43.9146C86.8409 43.829 89.1278 45.293 89.7744 47.3159C89.8699 47.6145 90.0775 47.8603 90.3585 48.0042C90.6396 48.148 90.9592 48.1753 91.2586 48.0806C91.8813 47.8858 92.2267 47.2267 92.0301 46.6094Z" fill="#57B6DC"/>
<path d="M120.722 56.48C123.27 60.4731 122.826 66.032 119.786 69.4807C121.224 69.1748 122.706 69.1165 124.181 69.2877C130.785 64.1384 135.172 56.1486 135.982 47.6964C136.878 38.3538 134.104 28.6179 128.741 22.2887C123.274 15.8376 115.809 11.9519 106.553 10.7393C101.163 10.0328 94.7724 10.8758 90.2702 12.8824C85.7569 14.8944 81.6918 18.5779 78.8262 23.2538C76.3152 27.3506 74.6161 32.2723 73.7784 37.8786C73.7637 37.9751 73.817 38.0679 73.907 38.1062C73.997 38.1444 74.1017 38.1153 74.1623 38.0388C76.1095 35.5006 79.493 33.6215 83.6922 32.7439C87.794 31.8881 91.9473 32.2031 95.3896 33.6324C99.1737 35.202 102.219 38.23 103.54 41.7314C104.965 45.5132 104.354 49.8705 101.98 52.8311C101.936 52.8876 101.922 52.9622 101.944 53.0296C101.966 53.097 102.021 53.1498 102.091 53.1698C102.443 53.2681 102.774 53.3428 103.097 53.4138C104.503 52.4524 106.099 51.7404 107.814 51.3544C112.697 50.2601 118.127 52.4141 120.722 56.48Z" fill="#FEABD5"/>
<path d="M108.075 30.1036C107.925 29.3625 107.613 28.6779 107.333 28.0952C107.179 27.7766 106.795 27.64 106.474 27.793C106.152 27.9459 106.016 28.3265 106.169 28.6451C106.417 29.1586 106.69 29.7576 106.812 30.3549C106.894 30.7664 106.942 31.3691 106.69 31.9062C106.375 32.5817 105.592 33.0515 104.743 33.0752C103.948 33.0988 103.083 32.7474 102.379 32.1138C102.115 31.8752 101.707 31.8953 101.468 32.1556C101.228 32.4178 101.248 32.8221 101.51 33.0588C102.427 33.8854 103.573 34.3534 104.672 34.3534C104.707 34.3534 104.743 34.3534 104.778 34.3516C106.104 34.3151 107.343 33.5468 107.861 32.4415C108.175 31.7715 108.248 30.963 108.075 30.1036Z" fill="#231F20"/>
<path d="M86.6918 22.8931C84.7814 22.2485 82.5606 24.2205 82.8563 26.1706C82.9739 26.939 83.4056 27.7183 83.997 28.2281C85.1102 29.1858 86.9471 28.6014 87.8637 27.6545C89.2322 26.2398 88.5562 23.5231 86.6918 22.8931Z" fill="#FF84C7"/>
<path d="M99.6528 26.9137C98.9677 25.3259 97.3108 24.7797 95.8027 25.508C94.9485 25.9213 94.133 26.6842 94.0338 27.6657C93.8629 29.3627 95.2094 31.3838 97.1179 30.7738C98.626 30.2895 100.378 28.5925 99.6528 26.9137Z" fill="#FFEAA3"/>
<path d="M106.852 14.4975C106.569 14.3045 106.26 14.1479 105.941 14.0368C104.579 13.5634 103.095 13.8347 102.158 14.9509C100.32 17.1431 101.859 20.843 104.952 20.1657C106.231 19.8853 107.763 19.1096 108.185 17.7804C108.602 16.4712 107.912 15.224 106.852 14.4975Z" fill="#FF84C7"/>
<path d="M127.976 24.7377C127.725 24.0167 127.1 23.4668 126.387 23.2119C124.701 22.6074 122.991 23.709 122.541 25.3677C122.26 26.4038 122.583 27.6492 123.617 28.1663C124.852 28.7836 126.312 28.1099 127.203 27.2031C127.87 26.5276 128.309 25.6918 127.976 24.7377Z" fill="#FF84C7"/>
<path d="M129.65 34.867C127.271 34.7851 125.061 36.5494 125.252 39.0166C125.254 39.0403 125.259 39.0622 125.265 39.0858C125.265 39.3845 125.327 39.6903 125.478 39.9999C125.941 40.954 126.883 41.6987 127.862 42.0793C130.043 42.9314 132.482 42.1248 132.848 39.674C133.187 37.3961 132.278 34.9562 129.65 34.867Z" fill="#FFEAA3"/>
<path d="M115.676 43.7887C114.385 43.6266 113.132 44.7646 112.579 45.8298C112.035 46.8768 112.366 48.1587 113.27 48.8979C114.677 50.0505 116.832 49.3841 117.651 48.0002C118.724 46.6182 117.722 44.0436 115.676 43.7887Z" fill="#FFEAA3"/>
<path d="M129.639 52.7802C128.654 51.2289 126.838 51.2361 125.449 52.3086C124.4 53.1189 123.718 54.5428 124.225 55.8337C124.701 57.0482 126.007 57.7055 127.271 57.7347C130.047 57.7984 130.928 54.8122 129.639 52.7802Z" fill="#FFEAA3"/>
<path d="M116.264 28.7579C113.97 28.8489 112.416 30.8827 111.253 32.6526C110.954 33.0331 110.735 33.4665 110.689 33.9709C110.61 34.8303 111.073 35.6296 111.885 35.9537C113.707 36.6821 115.959 34.5663 116.896 33.2371C117.703 32.0918 118.706 28.6614 116.264 28.7579Z" fill="#FFEAA3"/>
<path d="M98.1286 13.7654C97.9302 13.0462 97.0155 12.8787 96.4883 12.8441C88.4904 12.3142 81.2529 19.8324 77.9153 27.0428C77.3697 28.2227 76.9803 29.4081 76.7617 30.5698L76.7488 30.6353C76.6148 31.3381 76.4641 32.1357 76.409 32.844C76.387 33.1244 76.4458 33.3938 76.5743 33.6032C76.6258 33.687 76.6882 33.7616 76.7599 33.8217C76.905 33.9455 77.0648 34.0075 77.2393 34.0075C77.2871 34.0075 77.3348 34.002 77.3844 33.9929C78.0071 33.8745 78.606 33.0224 78.8356 32.589C79.2911 31.7278 79.6144 30.7937 79.9267 29.8924C80.0479 29.5428 80.1692 29.1932 80.2978 28.8473C81.6865 25.1109 83.8081 22.0647 86.6039 19.7942C89.1351 17.7385 92.2652 16.5604 95.2704 15.5935C95.3696 15.5608 95.5129 15.5243 95.6819 15.4806C96.435 15.284 97.6951 14.9526 98.057 14.3335C98.158 14.1551 98.1837 13.9639 98.1286 13.7654Z" fill="#CA6CAA"/>
<path d="M100.436 12.0302C100.114 11.8445 99.7341 11.8572 99.3943 11.9847C99.2069 12.0557 99.0489 12.1503 98.9442 12.3288C98.5346 13.0243 99.5431 13.9712 100.239 13.8018C100.579 13.7199 100.856 13.4577 100.939 13.119C101.047 12.682 100.814 12.2487 100.436 12.0302Z" fill="#CA6CAA"/>
<path d="M136.059 46.7641C136.079 46.4618 136.097 46.1577 136.11 45.8555C135.949 46.0248 135.813 46.2342 135.719 46.4909C134.2 50.5769 131.863 54.3733 128.869 57.5615C127.58 58.9344 126.184 60.1871 124.725 61.3688C124.958 61.1795 124.031 58.9781 123.9 58.6649C123.513 57.7345 123.026 56.8441 122.453 56.0102C121.327 54.3733 119.868 52.9585 118.184 51.8915C114.659 49.6573 110.577 49.2604 106.641 50.5605C105.594 50.9064 104.642 51.3707 103.775 52.0699C103.314 52.1209 102.857 52.1846 102.405 52.2611C102.271 52.4578 102.127 52.6489 101.979 52.8347C101.935 52.8911 101.92 52.9658 101.942 53.0331C101.964 53.1005 102.019 53.1533 102.089 53.1733C102.442 53.2717 102.772 53.3463 103.096 53.4173C104.501 52.4559 106.097 51.744 107.813 51.358C112.697 50.26 118.125 52.4141 120.721 56.4799C122.855 59.8248 122.888 64.2694 121.055 67.6525C121.055 67.6525 121.055 67.6543 121.053 67.6543C120.985 67.7781 120.915 67.9001 120.844 68.0221C120.838 68.0294 120.835 68.0385 120.829 68.0458C120.761 68.1587 120.691 68.2679 120.62 68.3772C120.609 68.3936 120.599 68.4099 120.588 68.4245C120.522 68.5247 120.452 68.6248 120.381 68.7231C120.364 68.745 120.35 68.7686 120.333 68.7905C120.265 68.8852 120.193 68.9762 120.122 69.0673C120.102 69.0928 120.083 69.1182 120.065 69.1419C119.973 69.2566 119.879 69.3695 119.782 69.4788C121.22 69.1729 122.703 69.1146 124.178 69.2858C130.781 64.1365 135.168 56.1467 135.978 47.6945C136.007 47.3886 136.033 47.0827 136.053 46.7768C136.059 46.7732 136.059 46.7677 136.059 46.7641Z" fill="#EBCE72"/>
<path d="M38.6826 41.1469C38.5577 40.9284 38.2766 40.8519 38.0562 40.9757L32.3673 44.1767L36.2634 37.0082C36.3534 36.8406 36.3313 36.6367 36.2046 36.4929C36.0797 36.3508 35.8776 36.2999 35.6976 36.3654C33.1149 37.3232 30.6314 38.5613 28.3187 40.0471C28.1057 40.1837 28.045 40.4659 28.1828 40.6771C28.3206 40.8883 28.6053 40.9484 28.8184 40.8118C30.7288 39.5864 32.7567 38.5322 34.86 37.6709L30.8004 45.1381C30.703 45.3165 30.738 45.5369 30.8831 45.6789C30.9712 45.7645 31.087 45.8082 31.2045 45.8082C31.2817 45.8082 31.3607 45.7881 31.4305 45.7481L38.5081 41.7641C38.7303 41.6421 38.8075 41.3654 38.6826 41.1469Z" fill="#F7E9BC"/>
<path d="M43.8756 53.4591C43.7764 53.2279 43.5063 53.1205 43.2731 53.2188C42.0772 53.7232 40.8392 54.1438 39.579 54.4752C40.6904 52.7763 41.6051 50.9555 42.3068 49.0528C42.3656 48.8925 42.3289 48.7123 42.2132 48.5866C42.0956 48.461 41.9174 48.4118 41.7521 48.4573C39.6195 49.0509 37.5805 49.9322 35.6903 51.0775C35.4735 51.2086 35.4056 51.489 35.5378 51.7039C35.6701 51.9187 35.953 51.9861 36.1697 51.855C37.7219 50.9136 39.3807 50.158 41.111 49.6008C40.3395 51.4836 39.3494 53.2716 38.1591 54.9285C38.0489 55.0815 38.0452 55.2872 38.1499 55.4438C38.2363 55.5731 38.3814 55.6478 38.5338 55.6478C38.5669 55.6478 38.6 55.6441 38.6312 55.6368C40.3414 55.2672 42.024 54.7337 43.6349 54.0545C43.8664 53.958 43.9748 53.6904 43.8756 53.4591Z" fill="#F7E9BC"/>
<path d="M33.767 30.504C33.6531 30.28 33.3758 30.189 33.1498 30.3019L23.7743 34.9923C25.5322 31.3525 27.6501 27.8765 30.084 24.6446C30.2016 24.488 30.2053 24.2731 30.0932 24.1129C29.9812 23.9527 29.7773 23.8799 29.5881 23.9345C26.4286 24.8431 23.4675 26.2615 20.7874 28.1533C20.5817 28.299 20.5321 28.583 20.6791 28.7888C20.826 28.9927 21.1126 29.0419 21.3201 28.8962C23.5373 27.3303 25.9547 26.0976 28.5208 25.2236C26.1365 28.5411 24.0737 32.0936 22.38 35.8007C22.2992 35.9774 22.3396 36.1831 22.4811 36.3179C22.5692 36.4016 22.6831 36.4453 22.7989 36.4453C22.8687 36.4453 22.9403 36.4289 23.0064 36.3962L33.565 31.114C33.7891 31.0029 33.8809 30.728 33.767 30.504Z" fill="#F7E9BC"/>
<path d="M49.0485 40.4751C48.2494 40.4751 48.2476 41.706 49.0485 41.706C49.8475 41.706 49.8494 40.4751 49.0485 40.4751Z" fill="#ADB9D1"/>
<path d="M51.8041 25.1165C51.275 25.1165 51.275 25.9304 51.8041 25.9304C52.3331 25.9304 52.3331 25.1165 51.8041 25.1165Z" fill="#ADB9D1"/>
<path d="M70.5385 12.2361C69.2435 12.2361 69.2417 14.2317 70.5385 14.2317C71.8336 14.2317 71.8372 12.2361 70.5385 12.2361Z" fill="#ADB9D1"/>
<path d="M51.5286 13.6362C51.3412 13.6362 51.3412 13.9239 51.5286 13.9239C51.716 13.9239 51.716 13.6362 51.5286 13.6362Z" fill="#ADB9D1"/>
<path d="M7.44444 31.3525C7.21115 31.3525 7.21115 31.7112 7.44444 31.7112C7.67772 31.7112 7.67772 31.3525 7.44444 31.3525Z" fill="#ADB9D1"/>
<path d="M19.8437 38.0679H19.5682C19.2687 38.0679 18.984 38.3282 18.9969 38.6341C19.0116 38.94 19.2485 39.2004 19.5682 39.2004H19.8437C20.1431 39.2004 20.4278 38.94 20.415 38.6341C20.4003 38.3264 20.1633 38.0679 19.8437 38.0679Z" fill="#ADB9D1"/>
<path d="M6.89336 63.1443C5.74162 63.1443 5.73979 64.9196 6.89336 64.9196C8.0451 64.9196 8.04694 63.1443 6.89336 63.1443Z" fill="#ADB9D1"/>
<path d="M20.119 70.8862C19.0885 70.8862 19.0867 72.474 20.119 72.474C21.1495 72.4722 21.1514 70.8862 20.119 70.8862Z" fill="#ADB9D1"/>
<path d="M21.2211 78.0676C21.0062 78.0676 21.0043 78.399 21.2211 78.399C21.436 78.399 21.436 78.0676 21.2211 78.0676Z" fill="#ADB9D1"/>
<path d="M6.32201 99.8665C5.94361 99.8665 5.94361 100.449 6.32201 100.449C6.70041 100.449 6.70041 99.8665 6.32201 99.8665Z" fill="#ADB9D1"/>
<path d="M21.2013 104.364C20.044 104.364 20.0422 106.146 21.2013 106.146C22.3585 106.148 22.3604 104.364 21.2013 104.364Z" fill="#ADB9D1"/>
<path d="M40.121 106.238C39.5038 106.238 39.5038 107.188 40.121 107.188C40.7382 107.188 40.7382 106.238 40.121 106.238Z" fill="#ADB9D1"/>
<path d="M57.1917 110.902C57.1825 110.717 57.1219 110.526 56.9805 110.396C56.9309 110.36 56.8831 110.322 56.8335 110.285C56.7215 110.22 56.6002 110.189 56.4698 110.187C56.2678 110.161 56.0418 110.278 55.904 110.418C55.7589 110.566 55.6781 110.768 55.6781 110.975C55.6763 111.39 56.0234 111.793 56.4643 111.767C56.6553 111.756 56.8354 111.695 56.975 111.558C57.0999 111.434 57.1936 111.23 57.1862 111.052C57.1862 111.039 57.1825 111.026 57.1825 111.015C57.188 110.975 57.1936 110.939 57.1917 110.902Z" fill="#ADB9D1"/>
<path d="M8.15918 112.556C7.23521 112.556 7.23338 113.98 8.15918 113.98C9.08314 113.98 9.08498 112.556 8.15918 112.556Z" fill="#ADB9D1"/>
<path d="M114.332 114.01C113.941 114.029 113.612 114.324 113.612 114.724V114.906C113.612 115.28 113.943 115.638 114.332 115.62C114.723 115.602 115.052 115.307 115.052 114.906V114.724C115.052 114.351 114.722 113.992 114.332 114.01Z" fill="#ADB9D1"/>
<path d="M125.354 115.92H125.17C125.069 115.92 125.069 116.077 125.17 116.077H125.354C125.455 116.077 125.455 115.92 125.354 115.92Z" fill="#ADB9D1"/>
<path d="M170.725 121.554C169.427 121.554 169.425 123.553 170.725 123.553C172.024 123.553 172.026 121.554 170.725 121.554Z" fill="#ADB9D1"/>
<path d="M170.174 107.445C169.234 107.445 169.232 108.894 170.174 108.894C171.115 108.894 171.117 107.445 170.174 107.445Z" fill="#ADB9D1"/>
<path d="M133.252 111.199C132.694 111.199 132.692 112.06 133.252 112.06C133.811 112.059 133.813 111.199 133.252 111.199Z" fill="#ADB9D1"/>
<path d="M129.658 103.175C129.597 103.115 129.535 103.053 129.474 102.993C129.312 102.833 129.072 102.734 128.844 102.734C128.625 102.734 128.364 102.831 128.214 102.993C128.058 103.16 127.942 103.383 127.953 103.617C127.964 103.852 128.043 104.073 128.214 104.242L128.398 104.424C128.559 104.584 128.8 104.683 129.028 104.683C129.246 104.683 129.507 104.586 129.658 104.424C129.814 104.257 129.93 104.034 129.918 103.8C129.907 103.565 129.828 103.344 129.658 103.175Z" fill="#ADB9D1"/>
<path d="M161.908 101.402C161.396 101.402 161.396 102.19 161.908 102.19C162.421 102.192 162.421 101.402 161.908 101.402Z" fill="#ADB9D1"/>
<path d="M149.601 89.8245C149.188 89.8245 149.188 90.4618 149.601 90.4618C150.014 90.4618 150.014 89.8245 149.601 89.8245Z" fill="#ADB9D1"/>
<path d="M139.865 79.1692H139.681C139.619 79.1692 139.619 79.2657 139.681 79.2657H139.865C139.928 79.2675 139.928 79.1692 139.865 79.1692Z" fill="#ADB9D1"/>
<path d="M142.481 67.7035C142.316 67.5542 142.114 67.4595 141.886 67.4595H141.702C141.487 67.4595 141.259 67.5523 141.107 67.7035C140.962 67.8473 140.852 68.0858 140.861 68.2934C140.87 68.5083 140.942 68.7322 141.107 68.8833C141.272 69.0327 141.474 69.1273 141.702 69.1273H141.886C142.101 69.1273 142.328 69.0345 142.481 68.8833C142.626 68.7395 142.736 68.501 142.727 68.2934C142.716 68.0785 142.644 67.8546 142.481 67.7035Z" fill="#ADB9D1"/>
<path d="M144.933 54.2731V54.4551C144.933 54.5517 145.086 54.5517 145.086 54.4551V54.2731C145.084 54.1766 144.933 54.1766 144.933 54.2731Z" fill="#ADB9D1"/>
<path d="M158.602 80.7808H158.488C157.68 80.7808 157.678 82.0262 158.488 82.0262H158.602C159.41 82.0262 159.412 80.7808 158.602 80.7808Z" fill="#ADB9D1"/>
<path d="M151.805 63.3025C150.527 63.3025 150.523 65.2726 151.805 65.2726C153.084 65.2726 153.087 63.3025 151.805 63.3025Z" fill="#ADB9D1"/>
<path d="M167.602 54.9507C167.062 54.9507 167.062 55.7828 167.602 55.7828C168.142 55.781 168.142 54.9507 167.602 54.9507Z" fill="#ADB9D1"/>
<path d="M140.967 42.6348H140.784C140.552 42.6348 140.31 42.7349 140.144 42.897C139.988 43.0517 139.871 43.3066 139.88 43.5306C139.902 44.0149 140.277 44.4264 140.784 44.4264H140.967C141.199 44.4264 141.441 44.3263 141.606 44.1642C141.763 44.0095 141.88 43.7546 141.871 43.5306C141.849 43.0463 141.474 42.6348 140.967 42.6348Z" fill="#ADB9D1"/>
<path d="M161.173 31.5149H160.806C160.424 31.5149 160.056 31.8481 160.073 32.2414C160.091 32.6347 160.394 32.9679 160.806 32.9679H161.173C161.555 32.9679 161.923 32.6347 161.906 32.2414C161.888 31.8481 161.583 31.5149 161.173 31.5149Z" fill="#ADB9D1"/>
<path d="M172.195 34.7942C171.019 34.7942 171.017 36.6059 172.195 36.6059C173.371 36.6077 173.372 34.7942 172.195 34.7942Z" fill="#ADB9D1"/>
<path d="M172.562 26.1763C172.252 26.1763 172.252 26.6533 172.562 26.6533C172.872 26.6533 172.872 26.1763 172.562 26.1763Z" fill="#ADB9D1"/>
<path d="M166.271 3.33578C166.102 3.16827 165.824 3.04263 165.582 3.05173C165.33 3.06266 165.068 3.1446 164.893 3.33578C164.719 3.52515 164.607 3.75821 164.607 4.01859V4.20067C164.607 4.4483 164.715 4.70868 164.893 4.88348C165.062 5.05099 165.339 5.17663 165.582 5.16753C165.834 5.1566 166.096 5.07466 166.271 4.88348C166.445 4.69411 166.557 4.46105 166.557 4.20067V4.01859C166.557 3.77096 166.449 3.51058 166.271 3.33578Z" fill="#ADB9D1"/>
<path d="M154.123 0.588135H154.009C152.63 0.588135 152.626 2.71485 154.009 2.71485H154.123C155.503 2.71485 155.506 0.588135 154.123 0.588135Z" fill="#ADB9D1"/>
<path d="M127.558 9.00024C126.226 9.00024 126.223 11.0523 127.558 11.0523C128.89 11.0541 128.894 9.00024 127.558 9.00024Z" fill="#ADB9D1"/>
<path d="M105.699 1.99023C104.957 1.99023 104.955 3.13371 105.699 3.13371C106.441 3.13371 106.443 1.99023 105.699 1.99023Z" fill="#ADB9D1"/>
<path d="M75.5736 0.996094C74.4862 0.996094 74.4843 2.67125 75.5736 2.67125C76.661 2.67125 76.6629 0.996094 75.5736 0.996094Z" fill="#ADB9D1"/>
<path d="M64.9194 39.927C64.4951 39.927 64.4951 40.5789 64.9194 40.5789C65.3438 40.5789 65.3438 39.927 64.9194 39.927Z" fill="#ADB9D1"/>
<path d="M36.9248 23.0625C36.9194 23.0625 36.9194 23.0697 36.9248 23.0697C36.9302 23.0697 36.9302 23.0625 36.9248 23.0625Z" fill="#515763"/>
<path d="M58.1448 2.57816L57.8692 2.30503C57.7223 2.15937 57.4541 2.14844 57.309 2.30503C57.1639 2.46162 57.1529 2.70561 57.309 2.86038C57.4008 2.95142 57.4927 3.04246 57.5845 3.1335C57.7315 3.27917 57.9997 3.2901 58.1448 3.1335C58.2899 2.97691 58.3027 2.73293 58.1448 2.57816Z" fill="#515763"/>
<path d="M2.48469 21.4526H2.20916C1.93362 21.4526 1.67094 21.693 1.6838 21.9734C1.69666 22.2556 1.91525 22.4941 2.20916 22.4941H2.48469C2.76023 22.4941 3.02291 22.2538 3.01005 21.9734C2.99719 21.6912 2.78044 21.4526 2.48469 21.4526Z" fill="#515763"/>
<path d="M14.0572 52.9199C13.1057 52.9199 13.1039 54.3875 14.0572 54.3875C15.0087 54.3875 15.0106 52.9199 14.0572 52.9199Z" fill="#515763"/>
<path d="M0.335469 89.7461H0.260156C-0.726262 89.7461 -0.728099 91.2665 0.260156 91.2665H0.335469C1.32372 91.2683 1.32556 89.7461 0.335469 89.7461Z" fill="#515763"/>
<path d="M46.3665 121.465H46.1828C45.9917 121.465 45.8099 121.631 45.8191 121.825C45.8282 122.022 45.9789 122.186 46.1828 122.186H46.3665C46.5575 122.186 46.7394 122.02 46.7302 121.825C46.7228 121.629 46.5704 121.465 46.3665 121.465Z" fill="#515763"/>
<path d="M145.008 118.886C144.975 118.886 144.975 118.935 145.008 118.935C145.04 118.937 145.04 118.886 145.008 118.886Z" fill="#515763"/>
<path d="M158.234 110.629C157.409 110.629 157.408 111.898 158.234 111.898C159.059 111.9 159.061 110.629 158.234 110.629Z" fill="#515763"/>
<path d="M173.48 78.9851C172.703 78.9851 172.703 80.1814 173.48 80.1814C174.257 80.1796 174.257 78.9851 173.48 78.9851Z" fill="#515763"/>
<path d="M158.05 54.0054C157.705 54.0199 157.413 54.2821 157.413 54.6372V54.8193C157.413 55.1489 157.705 55.4657 158.05 55.4511C158.396 55.4365 158.688 55.1743 158.688 54.8193V54.6372C158.688 54.3076 158.394 53.9908 158.05 54.0054Z" fill="#515763"/>
<path d="M140.416 24.7576C140.157 24.7576 140.157 25.1563 140.416 25.1563C140.675 25.1581 140.675 24.7576 140.416 24.7576Z" fill="#515763"/>
<path d="M174.215 7.62549C174.171 7.62549 174.171 7.69251 174.215 7.69251C174.258 7.69432 174.258 7.62549 174.215 7.62549Z" fill="#515763"/>
<path d="M111.76 7.46899C111.748 7.46899 111.748 7.48813 111.76 7.48813C111.772 7.48639 111.772 7.46899 111.76 7.46899Z" fill="#515763"/>
<path d="M98.5349 6.2871C98.1822 6.30348 97.8846 6.56932 97.8846 6.93167V7.11375C97.8846 7.4506 98.1841 7.77288 98.5349 7.75832C98.8876 7.74193 99.1851 7.47609 99.1851 7.11375V6.93167C99.1851 6.59481 98.8857 6.27253 98.5349 6.2871Z" fill="#515763"/>
<path d="M66.4072 25.3877C65.1655 25.3877 65.1636 27.2996 66.4072 27.2996C67.6471 27.2996 67.6508 25.3877 66.4072 25.3877Z" fill="#F2E3B5"/>
<path d="M39.0409 22.3341C38.859 22.1538 38.5633 22.0191 38.3025 22.0318C38.0324 22.0446 37.7532 22.132 37.564 22.3341C37.3767 22.5362 37.2591 22.7857 37.2591 23.0661V23.3392C37.2591 23.605 37.3748 23.8836 37.564 24.0712C37.7459 24.2514 38.0416 24.3862 38.3025 24.3734C38.5725 24.3607 38.8517 24.2733 39.0409 24.0712C39.2283 23.869 39.3458 23.6196 39.3458 23.3392V23.0661C39.3458 22.8002 39.2301 22.5216 39.0409 22.3341Z" fill="#F2E3B5"/>
<path d="M38.8535 8.14819C38.6349 8.14819 38.633 8.48687 38.8535 8.48687C39.0739 8.48687 39.0739 8.14819 38.8535 8.14819Z" fill="#F2E3B5"/>
<path d="M19.0168 19.8923H18.7413C18.508 19.8923 18.2858 20.0963 18.2968 20.333C18.3078 20.5715 18.4933 20.7754 18.7413 20.7754H19.0168C19.2501 20.7754 19.4724 20.5715 19.4614 20.333C19.4504 20.0963 19.2667 19.8923 19.0168 19.8923Z" fill="#F2E3B5"/>
<path d="M0.555833 54.1567C-0.210157 54.1567 -0.211993 55.3366 0.555833 55.3366C1.32182 55.3366 1.32366 54.1567 0.555833 54.1567Z" fill="#F2E3B5"/>
<path d="M26.7319 55.4419H26.4564C26.247 55.4419 26.0449 55.624 26.0559 55.8388C26.0651 56.0537 26.2323 56.2358 26.4564 56.2358H26.7319C26.9413 56.2358 27.1434 56.0537 27.1323 55.8388C27.1232 55.624 26.956 55.4419 26.7319 55.4419Z" fill="#F2E3B5"/>
<path d="M23.9763 87.2097C23.2195 87.2097 23.2177 88.3751 23.9763 88.3751C24.7331 88.3751 24.735 87.2097 23.9763 87.2097Z" fill="#F2E3B5"/>
<path d="M13.7814 92.1553C13.0632 92.1553 13.0614 93.2624 13.7814 93.2624C14.4997 93.2624 14.5015 92.1553 13.7814 92.1553Z" fill="#F2E3B5"/>
<path d="M1.491 107.41C1.41936 107.193 1.28343 106.977 1.07219 106.869C0.917887 106.791 0.75624 106.729 0.579897 106.736C0.339262 106.747 0.0876058 106.831 -0.0813895 107.009C-0.270591 107.21 -0.360599 107.446 -0.369784 107.716C-0.378968 107.965 -0.26508 108.253 -0.0795522 108.422C0.247417 108.719 0.6846 108.77 1.07402 108.562C1.27241 108.457 1.43406 108.233 1.49284 108.022C1.51672 107.936 1.52223 107.84 1.51855 107.743C1.53141 107.63 1.5259 107.517 1.491 107.41Z" fill="#F2E3B5"/>
<path d="M35.7124 94.0598C35.1228 94.0598 35.1228 94.9666 35.7124 94.9666C36.3021 94.9666 36.3021 94.0598 35.7124 94.0598Z" fill="#F2E3B5"/>
<path d="M131.415 120.314C130.399 120.314 130.397 121.878 131.415 121.878C132.431 121.88 132.433 120.314 131.415 120.314Z" fill="#F2E3B5"/>
<path d="M145.087 120.473C145.027 120.413 144.964 120.351 144.904 120.291C144.742 120.13 144.503 120.032 144.274 120.032C144.055 120.032 143.794 120.128 143.644 120.291C143.487 120.458 143.372 120.68 143.383 120.915C143.394 121.148 143.473 121.37 143.644 121.54C143.704 121.6 143.767 121.662 143.827 121.722C143.989 121.882 144.228 121.98 144.457 121.98C144.676 121.98 144.937 121.884 145.087 121.722C145.243 121.554 145.359 121.332 145.348 121.097C145.337 120.864 145.256 120.642 145.087 120.473Z" fill="#F2E3B5"/>
<path d="M157.132 119.415C156.601 119.415 156.601 120.232 157.132 120.232C157.663 120.231 157.663 119.415 157.132 119.415Z" fill="#F2E3B5"/>
<path d="M148.131 102.006C147.947 102.013 147.791 102.153 147.791 102.343V102.525C147.791 102.701 147.947 102.869 148.131 102.862C148.315 102.854 148.471 102.714 148.471 102.525V102.343C148.471 102.166 148.315 101.999 148.131 102.006Z" fill="#F2E3B5"/>
<path d="M137.661 93.7703C136.933 93.7703 136.931 94.8901 137.661 94.8901C138.388 94.8919 138.39 93.7703 137.661 93.7703Z" fill="#F2E3B5"/>
<path d="M175.685 96.343C174.987 96.343 174.987 97.4173 175.685 97.4173C176.383 97.4173 176.383 96.343 175.685 96.343Z" fill="#F2E3B5"/>
<path d="M148.024 78.5956C147.964 78.5355 147.901 78.4736 147.841 78.4135C147.705 78.2788 147.455 78.2679 147.321 78.4135C147.187 78.5592 147.176 78.785 147.321 78.9288L147.505 79.1109C147.64 79.2457 147.89 79.2566 148.024 79.1109C148.158 78.9671 148.169 78.7413 148.024 78.5956Z" fill="#F2E3B5"/>
<path d="M162.642 70.0286C162.295 70.0286 162.293 70.5639 162.642 70.5639C162.99 70.5639 162.991 70.0286 162.642 70.0286Z" fill="#F2E3B5"/>
<path d="M170.174 65.2106C169.882 65.2234 169.636 65.4455 169.636 65.7441V65.9262C169.636 66.2048 169.884 66.4725 170.174 66.4597C170.466 66.447 170.712 66.2248 170.712 65.9262V65.7441C170.712 65.4656 170.464 65.1979 170.174 65.2106Z" fill="#F2E3B5"/>
<path d="M147.947 36.1196C147.754 36.1287 147.589 36.2744 147.589 36.4747V36.5657C147.589 36.7514 147.752 36.928 147.947 36.9208C148.14 36.9117 148.305 36.766 148.305 36.5657V36.4747C148.305 36.2889 148.14 36.1123 147.947 36.1196Z" fill="#F2E3B5"/>
<path d="M137.477 32.2395C137.237 32.2395 137.237 32.6091 137.477 32.6091C137.718 32.6073 137.718 32.2395 137.477 32.2395Z" fill="#F2E3B5"/>
<path d="M172.011 16.1287H171.827C171.588 16.1287 171.357 16.3381 171.37 16.582C171.381 16.8279 171.572 17.0354 171.827 17.0354H172.011C172.249 17.0354 172.481 16.826 172.468 16.582C172.457 16.3362 172.268 16.1287 172.011 16.1287Z" fill="#D5A6D2"/>
<path d="M174.95 9.70312C173.82 9.70312 173.818 11.4438 174.95 11.4438C176.08 11.4438 176.081 9.70312 174.95 9.70312Z" fill="#D5A6D2"/>
<path d="M135.377 1.11618C135.33 1.07248 135.271 1.04517 135.205 1.04517H135.159C135.096 1.04517 135.03 1.07248 134.986 1.11618C134.944 1.15806 134.911 1.22725 134.915 1.28733C134.918 1.35106 134.938 1.41479 134.986 1.45849C135.034 1.50219 135.093 1.5295 135.159 1.5295H135.205C135.267 1.5295 135.333 1.50219 135.377 1.45849C135.42 1.41661 135.453 1.34742 135.449 1.28733C135.445 1.22361 135.425 1.15988 135.377 1.11618Z" fill="#F2E3B5"/>
<path d="M120.945 -0.792236C119.901 -0.792236 119.9 0.815546 120.945 0.815546C121.988 0.817366 121.99 -0.792236 120.945 -0.792236Z" fill="#F2E3B5"/>
<path d="M110.842 7.78564C109.822 7.78564 109.821 9.35519 110.842 9.35519C111.861 9.35519 111.863 7.78564 110.842 7.78564Z" fill="#D5A6D2"/>
<path d="M87.8804 8.00415C87.6177 8.00415 87.6159 8.41019 87.8804 8.41019C88.1431 8.40837 88.1449 8.00415 87.8804 8.00415Z" fill="#F2E3B5"/>
<path d="M66.5719 42.5542C66.4879 42.5542 66.4879 42.6828 66.5719 42.6828C66.656 42.6846 66.656 42.5542 66.5719 42.5542Z" fill="#F2E3B5"/>
</g>
</svg>
