<svg width="49" height="57" viewBox="0 0 49 57" fill="none" xmlns="http://www.w3.org/2000/svg">
<path fill-rule="evenodd" clip-rule="evenodd" d="M40.4752 5.01214C46.1938 8.16483 49.4025 15.2007 46.4154 20.9009C44.4908 23.6235 41.6424 25.5442 38.4071 26.3012C35.1717 27.0581 31.7727 26.599 28.8507 25.0103C25.9849 23.2928 23.8587 20.5626 22.8873 17.3531C21.916 14.1436 22.1693 10.6853 23.5978 7.65351C27.1452 2.34539 34.7563 1.85946 40.4752 5.01214ZM37.4878 10.0862C38.8691 10.8357 39.907 12.0952 40.3828 13.5992C40.8586 15.1032 40.7352 16.7343 40.0386 18.1486C38.5763 20.949 34.784 21.6451 31.7801 19.901C28.776 18.157 27.4117 14.4339 29.1599 11.8327C30.0901 10.5608 31.4545 9.67906 32.9915 9.35674C34.5284 9.03442 36.1297 9.29418 37.4878 10.0862Z" fill="url(#paint0_linear_3418_8120)"/>
<path style="mix-blend-mode:multiply" opacity="0.4" fill-rule="evenodd" clip-rule="evenodd" d="M42.1462 24.8497C40.1078 25.7628 37.884 26.1797 35.6553 26.0665C33.4266 25.9533 31.2558 25.3132 29.3193 24.1982C27.3827 23.0831 25.7349 21.5246 24.5096 19.6491C23.2843 17.7736 22.5161 15.634 22.2673 13.4039C22.2354 15.7541 22.8295 18.07 23.9879 20.1114C25.1464 22.1527 26.827 23.8452 28.8553 25.013C30.8836 26.1809 33.1858 26.7816 35.5229 26.7529C37.86 26.7242 40.1469 26.0671 42.1462 24.8497Z" fill="url(#paint1_radial_3418_8120)"/>
<path fill-rule="evenodd" clip-rule="evenodd" d="M41.9459 2.46943C44.8577 4.07454 47.0351 6.75484 48.0184 9.94428C49.0017 13.1337 48.7137 16.5826 47.2154 19.5626C44.0941 25.5322 36.0866 27.0648 29.7754 23.4005C23.4645 19.7364 20.6385 11.8442 24.3609 6.29355C26.3063 3.58657 29.1783 1.69853 32.4246 0.992586C35.6709 0.286641 39.0621 0.812647 41.9459 2.46943ZM38.8177 7.77983C40.29 8.55907 41.4048 9.88172 41.9279 11.47C42.4511 13.0583 42.3418 14.7886 41.6231 16.2976C40.0954 19.2305 36.0617 19.9221 32.8416 18.0524C29.6216 16.1829 28.1273 12.2474 29.9623 9.52748C30.9665 8.19233 32.4247 7.27603 34.0582 6.95365C35.6918 6.63127 37.3861 6.92537 38.8177 7.77983Z" fill="url(#paint2_linear_3418_8120)"/>
<path fill-rule="evenodd" clip-rule="evenodd" d="M24.4888 6.5108C26.4857 3.89565 29.3564 2.0958 32.5705 1.4439C35.7846 0.791988 39.1248 1.33209 41.9736 2.96439C43.7302 3.938 45.2381 5.3083 46.3787 6.96743C47.5192 8.62656 48.2613 10.5292 48.5465 12.5257C48.3381 10.4374 47.6286 8.43114 46.4788 6.67947C45.3291 4.92779 43.7735 3.48307 41.9459 2.46948C39.062 0.812754 35.6709 0.286775 32.4247 0.992706C29.1784 1.69864 26.3064 3.58662 24.3609 6.29353C23.5313 7.52842 22.9953 8.93865 22.7943 10.4152C23.0436 9.12585 23.5489 7.90034 24.2799 6.81191C24.3482 6.71025 24.4178 6.60986 24.4888 6.5108Z" fill="#EFC150"/>
<path fill-rule="evenodd" clip-rule="evenodd" d="M40.0877 18.052C39.0007 18.7333 37.7455 19.0945 36.4646 19.0945C35.1838 19.0946 33.9286 18.7335 32.8415 18.0524C31.7507 17.4597 30.836 16.5863 30.1909 15.5216C29.5458 14.4569 29.1934 13.239 29.1698 11.9924C29.066 13.3375 29.3556 14.6838 30.0029 15.8655C30.6502 17.0472 31.627 18.0128 32.813 18.6434C33.8003 19.2482 34.9196 19.6011 36.0736 19.6712C37.2275 19.7413 38.381 19.5266 39.4335 19.0457C40.3811 18.5766 41.1565 17.8176 41.6486 16.8778C42.1815 15.8443 42.4016 14.6764 42.2816 13.5184C42.2931 14.4852 42.0669 15.4399 41.623 16.2976C41.2585 16.9978 40.732 17.5995 40.0877 18.052Z" fill="#EFC150"/>
<path style="mix-blend-mode:multiply" opacity="0.5" fill-rule="evenodd" clip-rule="evenodd" d="M31.5071 9.75941C32.2782 8.61842 33.4427 7.8056 34.7754 7.47823C36.1081 7.15086 37.5141 7.33221 38.7215 7.98718C39.908 8.68032 40.7793 9.81101 41.1506 11.1394C41.5219 12.4678 41.3639 13.8894 40.7102 15.1027L40.675 15.1684C40.7319 16.1646 40.5295 17.1585 40.0877 18.052C40.732 17.5995 41.2586 16.9978 41.623 16.2976C42.0669 15.4399 42.2932 14.4852 42.2816 13.5184C42.2601 12.3394 41.9282 11.1871 41.3197 10.1791C40.7112 9.17102 39.8478 8.34316 38.8176 7.77983C37.3861 6.92538 35.6917 6.63125 34.0581 6.95363C32.4246 7.27601 30.9664 8.19231 29.9622 9.52746C29.5069 10.2033 29.2372 10.9881 29.1804 11.8024C29.7506 10.9715 30.5278 10.3059 31.4343 9.87228C31.4579 9.83457 31.4822 9.79692 31.5071 9.75941Z" fill="url(#paint3_radial_3418_8120)"/>
<path style="mix-blend-mode:multiply" opacity="0.5" fill-rule="evenodd" clip-rule="evenodd" d="M46.9956 18.182C43.931 24.0431 36.0692 25.5477 29.8729 21.9502C27.6485 20.7355 25.8179 18.9039 24.5989 16.6731C23.3799 14.4423 22.8239 11.9064 22.997 9.36694C21.7266 14.4609 24.5618 20.3737 29.7755 23.4006C36.0866 27.0648 44.0941 25.5322 47.2155 19.5626C48.6212 16.8407 48.9839 13.6944 48.2347 10.7213C48.6179 13.2774 48.184 15.8898 46.9956 18.182Z" fill="url(#paint4_radial_3418_8120)"/>
<path style="mix-blend-mode:screen" fill-rule="evenodd" clip-rule="evenodd" d="M32.9401 1.69689C30.7664 1.9878 28.7155 2.87902 27.0152 4.27155C25.3149 5.66407 24.0317 7.50337 23.3084 9.58509C22.6644 11.6194 24.1808 12.1661 25.569 12.4094C25.9826 12.4819 26.3989 12.5519 26.818 12.6194C27.0166 12.6514 27.2195 12.6436 27.4151 12.5964C27.6107 12.5492 27.795 12.4635 27.9575 12.3443C28.12 12.2251 28.2575 12.0747 28.3619 11.9018C28.4663 11.729 28.5357 11.537 28.566 11.3371C28.5748 11.2796 28.5843 11.2221 28.595 11.1647C28.7261 10.4443 29.0049 9.75936 29.4136 9.15331C29.8655 8.48547 30.4372 7.90818 31.0995 7.45102C32.2872 6.67151 33.6652 6.2354 35.0827 6.19037C36.5003 6.14534 37.9029 6.49313 39.1371 7.1957C40.1 7.72645 40.9326 8.46713 41.5739 9.36345C42.2152 10.2598 42.649 11.289 42.8434 12.3758C42.9059 12.747 43.1026 13.082 43.3957 13.3163C43.6888 13.5506 44.0577 13.6678 44.4314 13.6453C45.4387 13.5882 46.4352 13.5074 47.4208 13.4028C49.259 13.2068 47.1343 7.84993 44.8434 5.51237C43.318 3.95014 41.4364 2.78601 39.362 2.12108C37.2876 1.45616 35.0832 1.31055 32.9401 1.69689Z" fill="url(#paint5_radial_3418_8120)"/>
<path fill-rule="evenodd" clip-rule="evenodd" d="M8.13682 31.9221C11.2649 33.6866 13.3769 35.0471 16.3087 36.9866C15.9341 37.6748 15.5578 38.3612 15.1798 39.0457C15.7053 39.3507 16.2307 39.6558 16.7562 39.961L11.6618 48.8343L9.73626 48.457C9.33475 49.1298 8.93089 49.8001 8.52465 50.468C5.75288 49.1518 3.04424 47.6444 0.0261345 45.8602C-0.0337053 45.1578 0.00934643 44.4504 0.153943 43.7606C1.2202 41.9661 2.28638 40.1715 3.35247 38.3769C4.42467 38.9696 5.49676 39.5623 6.56873 40.1551C7.07894 39.2668 7.58897 38.3786 8.0988 37.4904C7.31542 37.0078 7.39108 37.0238 6.6076 36.5412C6.58531 35.8389 6.62811 35.136 6.73543 34.4416C7.20279 33.6019 7.6699 32.7621 8.13682 31.9221Z" fill="url(#paint6_linear_3418_8120)"/>
<path fill-rule="evenodd" clip-rule="evenodd" d="M9.03969 30.2788C12.1674 32.0431 14.3103 33.4215 17.2419 35.361C16.8673 36.0493 16.491 36.7357 16.113 37.4201L17.6896 38.3354L12.2762 47.7642L10.7025 46.8505C10.3008 47.5233 9.8969 48.1936 9.49072 48.8615C6.71895 47.5453 3.17202 45.545 0.153931 43.7607C1.56868 41.4354 2.94601 39.099 4.28591 36.7513L7.50233 38.5295L9.03206 35.8647L6.73537 34.4417C7.51329 33.0549 8.28144 31.6673 9.03969 30.2788Z" fill="url(#paint7_radial_3418_8120)"/>
<path style="mix-blend-mode:screen" fill-rule="evenodd" clip-rule="evenodd" d="M17.2419 35.3609C14.3103 33.4215 12.1674 32.0432 9.0397 30.2788C8.28094 31.6667 7.51291 33.0543 6.73561 34.4417L9.03212 35.8647L7.50239 38.5295L4.28597 36.7513C3.31214 38.4526 2.32034 40.1496 1.31055 41.8423C6.62341 42.3047 11.913 40.7244 16.1131 37.4201C16.4911 36.7357 16.8674 36.0494 17.2419 35.3609Z" fill="url(#paint8_radial_3418_8120)"/>
<path style="mix-blend-mode:multiply" fill-rule="evenodd" clip-rule="evenodd" d="M14.9399 33.8616C16.1681 35.0787 14.8608 39.1882 13.2754 41.9497C11.6899 44.7112 8.81627 47.731 6.8501 47.5312C7.77595 48.0192 8.66753 48.4705 9.4907 48.8613C9.89704 48.1935 10.301 47.5232 10.7025 46.8503L12.2762 47.764L17.6896 38.3354L16.113 37.42C16.4912 36.7357 16.8675 36.0493 17.2419 35.3609C16.4796 34.8567 15.7122 34.3568 14.9399 33.8616Z" fill="url(#paint9_radial_3418_8120)"/>
<path d="M27.6159 27.1464C28.4895 27.666 29.4115 28.0984 30.3688 28.4375C31.607 28.8473 32.6314 28.6509 33.148 27.7509C33.6646 26.8513 33.3217 25.861 32.3496 24.9876C30.7923 23.6735 29.0184 22.6436 27.1081 21.9444C25.8699 21.5345 24.8455 21.7311 24.3289 22.6309C23.8125 23.5307 24.1554 24.5209 25.1273 25.3944C25.898 26.0586 26.7315 26.6455 27.6159 27.1464Z" fill="url(#paint10_linear_3418_8120)"/>
<path style="mix-blend-mode:multiply" opacity="0.5" fill-rule="evenodd" clip-rule="evenodd" d="M30.3689 28.4374C28.4587 27.738 26.6848 26.7081 25.1274 25.3943C24.7867 25.1015 24.5052 24.7456 24.2979 24.346C24.2599 24.2352 24.2459 24.1174 24.257 24.0007C24.2681 23.884 24.304 23.771 24.3623 23.6695C24.4206 23.5679 24.5 23.4802 24.595 23.4121C24.6899 23.3441 24.7983 23.2974 24.9128 23.2751C25.3606 23.2557 25.8079 23.323 26.2304 23.4734C28.1406 24.1727 29.9145 25.2026 31.4719 26.5165C31.8126 26.8093 32.0942 27.1652 32.3013 27.5648C32.3394 27.6756 32.3534 27.7934 32.3423 27.9101C32.3311 28.0268 32.2952 28.1398 32.2369 28.2413C32.1786 28.3428 32.0993 28.4306 32.0043 28.4986C31.9093 28.5666 31.8009 28.6133 31.6864 28.6355C31.2387 28.6549 30.7914 28.5877 30.3689 28.4374Z" fill="url(#paint11_radial_3418_8120)"/>
<path style="mix-blend-mode:screen" fill-rule="evenodd" clip-rule="evenodd" d="M25.0319 22.8703C25.0074 22.7981 25.0009 22.7211 25.0131 22.6458C25.0252 22.5706 25.0556 22.4996 25.1016 22.439C26.2759 20.9763 31.5085 24.2331 31.5053 26.0503C29.8602 24.6092 27.8923 23.5905 25.77 23.0815C25.4738 23.0445 25.0919 22.9922 25.0319 22.8703Z" fill="url(#paint12_radial_3418_8120)"/>
<path fill-rule="evenodd" clip-rule="evenodd" d="M31.8131 28.2862C28.6618 33.5464 27.9736 34.548 24.9174 39.8592C21.8613 45.1704 18.901 50.5373 15.9782 55.9259C14.7565 55.2166 13.5348 54.5074 12.3133 53.7981C11.0925 53.0893 9.87132 52.3803 8.64978 51.6712C11.8071 46.4186 14.9669 41.168 18.0432 35.8682C21.1195 30.5689 21.6415 29.4704 24.5505 24.0696C24.7222 23.751 25.2807 23.6962 26.0527 23.8717C28.004 24.4057 29.7844 25.4393 31.2199 26.8718C31.7599 27.458 31.999 27.9759 31.8131 28.2862Z" fill="url(#paint13_linear_3418_8120)"/>
<path style="mix-blend-mode:multiply" opacity="0.4" fill-rule="evenodd" clip-rule="evenodd" d="M31.2198 26.8718C30.8038 26.4337 30.3451 26.0387 29.8506 25.6927C26.6866 31.1794 25.9572 32.3909 22.7915 37.8722C19.6187 43.3665 16.4765 48.8787 13.3649 54.4087C14.2358 54.9144 15.1069 55.4202 15.9781 55.9259C18.9008 50.5373 21.8611 45.1705 24.9172 39.8593C27.9734 34.5481 28.6617 33.5465 31.8129 28.2863C31.9988 27.9757 31.7597 27.458 31.2198 26.8718Z" fill="url(#paint14_linear_3418_8120)"/>
<path style="mix-blend-mode:multiply" opacity="0.4" fill-rule="evenodd" clip-rule="evenodd" d="M9.70063 52.2814C12.9344 46.8222 16.1771 41.3686 19.3552 35.877C22.469 30.497 23.0472 29.329 26.0242 23.8653C25.2668 23.6977 24.7199 23.7548 24.5504 24.0696C21.6414 29.4704 21.1193 30.5689 18.0431 35.8683C14.9668 41.168 11.807 46.4186 8.64966 51.6712C8.99982 51.8745 9.35015 52.0779 9.70063 52.2814Z" fill="url(#paint15_linear_3418_8120)"/>
<path fill-rule="evenodd" clip-rule="evenodd" d="M12.9673 52.6607C14.991 53.8355 16.3391 55.2976 15.9782 55.9259C15.6176 56.5544 13.6842 56.1114 11.6607 54.9366C9.63693 53.7616 8.28894 52.2997 8.64971 51.6712C9.01049 51.0427 10.9437 51.4857 12.9673 52.6607Z" fill="url(#paint16_linear_3418_8120)"/>
<path style="mix-blend-mode:screen" fill-rule="evenodd" clip-rule="evenodd" d="M28.6672 24.9421C27.9762 24.5464 27.2451 24.2262 26.4864 23.9869C17.9724 38.9008 13.7878 46.7889 14.34 47.1265C14.8921 47.4642 20.0484 39.9998 28.6672 24.9421Z" fill="url(#paint17_radial_3418_8120)"/>
<path style="mix-blend-mode:multiply" opacity="0.4" fill-rule="evenodd" clip-rule="evenodd" d="M6.85025 47.5312C7.42305 48.4108 6.9475 48.6331 6.23996 48.5607C4.89842 48.4234 0.67435 46.1212 0.401628 44.8578C0.35819 44.7138 0.362483 44.5595 0.413885 44.4182C0.465288 44.2769 0.561018 44.1562 0.686595 44.0744C0.507439 43.9691 0.329897 43.8645 0.154013 43.7606C0.00950014 44.4504 -0.0335509 45.1577 0.0262043 45.86C3.04431 47.6444 5.75288 49.1518 8.52472 50.468C8.93089 49.8002 9.33476 49.1298 9.73633 48.4569C9.65471 48.5918 9.57286 48.7266 9.49081 48.8614C8.66768 48.4705 7.77621 48.0192 6.85025 47.5312Z" fill="url(#paint18_linear_3418_8120)"/>
<path style="mix-blend-mode:multiply" opacity="0.4" fill-rule="evenodd" clip-rule="evenodd" d="M8.14459 36.761C7.56244 37.0796 6.76988 36.287 6.62692 35.4274C6.60176 35.7981 6.59532 36.1699 6.60762 36.5413C7.39115 37.024 7.31548 37.0079 8.09879 37.4905L9.03207 35.8648L7.70115 35.0542C7.94097 35.2489 8.14912 35.48 8.31806 35.7392C8.3804 35.815 8.42575 35.9035 8.45097 35.9986C8.4762 36.0937 8.48073 36.1931 8.46426 36.2901C8.44778 36.3871 8.41068 36.4794 8.3555 36.5607C8.30032 36.6419 8.22843 36.7103 8.14459 36.761Z" fill="url(#paint19_linear_3418_8120)"/>
<path style="mix-blend-mode:screen" fill-rule="evenodd" clip-rule="evenodd" d="M32.9401 1.69689C30.7664 1.9878 28.7155 2.87902 27.0152 4.27155C25.3149 5.66407 24.0317 7.50337 23.3084 9.58509C22.6644 11.6194 24.1808 12.1661 25.569 12.4094C25.9826 12.4819 26.3989 12.5519 26.818 12.6194C27.0166 12.6514 27.2195 12.6436 27.4151 12.5964C27.6107 12.5492 27.795 12.4635 27.9575 12.3443C28.12 12.2251 28.2575 12.0747 28.3619 11.9018C28.4663 11.729 28.5357 11.537 28.566 11.3371C28.5748 11.2796 28.5843 11.2221 28.595 11.1647C28.7261 10.4443 29.0049 9.75936 29.4136 9.15331C29.8655 8.48547 30.4372 7.90818 31.0995 7.45102C32.2872 6.67151 33.6652 6.2354 35.0827 6.19037C36.5003 6.14534 37.9029 6.49313 39.1371 7.1957C40.1 7.72645 40.9326 8.46713 41.5739 9.36345C42.2152 10.2598 42.649 11.289 42.8434 12.3758C42.9059 12.747 43.1026 13.082 43.3957 13.3163C43.6888 13.5506 44.0577 13.6678 44.4314 13.6453C45.4387 13.5882 46.4352 13.5074 47.4208 13.4028C49.259 13.2068 47.1343 7.84993 44.8434 5.51237C43.318 3.95014 41.4364 2.78601 39.362 2.12108C37.2876 1.45616 35.0832 1.31055 32.9401 1.69689Z" fill="url(#paint20_radial_3418_8120)"/>
<path style="mix-blend-mode:screen" fill-rule="evenodd" clip-rule="evenodd" d="M17.2419 35.3609C14.3103 33.4215 12.1674 32.0432 9.0397 30.2788C8.28094 31.6667 7.51291 33.0543 6.73561 34.4417L9.03212 35.8647L7.50239 38.5295L4.28597 36.7513C3.31214 38.4526 2.32034 40.1496 1.31055 41.8423C6.62341 42.3047 11.913 40.7244 16.1131 37.4201C16.4911 36.7357 16.8674 36.0494 17.2419 35.3609Z" fill="url(#paint21_radial_3418_8120)"/>
<defs>
<linearGradient id="paint0_linear_3418_8120" x1="23.1967" y1="8.35207" x2="46.0777" y2="21.4889" gradientUnits="userSpaceOnUse">
<stop stop-color="#BA7A1E"/>
<stop offset="1" stop-color="#3B2008"/>
</linearGradient>
<radialGradient id="paint1_radial_3418_8120" cx="0" cy="0" r="1" gradientUnits="userSpaceOnUse" gradientTransform="translate(33.8996 8.52651) scale(18.7469 18.8519)">
<stop offset="0.64498" stop-color="white"/>
<stop offset="0.78595" stop-color="#C3C7E6"/>
<stop offset="1" stop-color="#616DBE"/>
</radialGradient>
<linearGradient id="paint2_linear_3418_8120" x1="27.996" y1="1.86554" x2="45.0528" y2="25.7208" gradientUnits="userSpaceOnUse">
<stop stop-color="#BA873B"/>
<stop offset="1" stop-color="#6E390A"/>
</linearGradient>
<radialGradient id="paint3_radial_3418_8120" cx="0" cy="0" r="1" gradientUnits="userSpaceOnUse" gradientTransform="translate(38.9072 21.1076) scale(15.0269 15.111)">
<stop stop-color="white"/>
<stop offset="0.39707" stop-color="#C3C7E6"/>
<stop offset="1" stop-color="#616DBE"/>
</radialGradient>
<radialGradient id="paint4_radial_3418_8120" cx="0" cy="0" r="1" gradientUnits="userSpaceOnUse" gradientTransform="translate(36.5231 6.17983) scale(20.4518 20.5664)">
<stop offset="0.64498" stop-color="white"/>
<stop offset="0.78595" stop-color="#C3C7E6"/>
<stop offset="1" stop-color="#616DBE"/>
</radialGradient>
<radialGradient id="paint5_radial_3418_8120" cx="0" cy="0" r="1" gradientUnits="userSpaceOnUse" gradientTransform="translate(33.645 -2.44961) scale(22.4149 22.5405)">
<stop stop-color="#B18654"/>
<stop offset="1" stop-color="#000505"/>
</radialGradient>
<linearGradient id="paint6_linear_3418_8120" x1="-8.74222" y1="31.4441" x2="12.2723" y2="43.5093" gradientUnits="userSpaceOnUse">
<stop stop-color="#BA7A1E"/>
<stop offset="1" stop-color="#3B2008"/>
</linearGradient>
<radialGradient id="paint7_radial_3418_8120" cx="0" cy="0" r="1" gradientUnits="userSpaceOnUse" gradientTransform="translate(3.32268 29.8666) scale(23.2738 23.4042)">
<stop stop-color="#BA873B"/>
<stop offset="1" stop-color="#6E390A"/>
</radialGradient>
<radialGradient id="paint8_radial_3418_8120" cx="0" cy="0" r="1" gradientUnits="userSpaceOnUse" gradientTransform="translate(4.86835 22.5632) scale(23.7455 23.8786)">
<stop stop-color="#B18654"/>
<stop offset="1" stop-color="#000505"/>
</radialGradient>
<radialGradient id="paint9_radial_3418_8120" cx="0" cy="0" r="1" gradientUnits="userSpaceOnUse" gradientTransform="translate(-4.64679 28.1837) scale(28.4248 28.584)">
<stop offset="0.64498" stop-color="white"/>
<stop offset="0.78595" stop-color="#C3C7E6"/>
<stop offset="1" stop-color="#616DBE"/>
</radialGradient>
<linearGradient id="paint10_linear_3418_8120" x1="24.329" y1="22.6308" x2="33.1725" y2="27.7082" gradientUnits="userSpaceOnUse">
<stop stop-color="#BA7A1E"/>
<stop offset="1" stop-color="#4A2808"/>
</linearGradient>
<radialGradient id="paint11_radial_3418_8120" cx="0" cy="0" r="1" gradientUnits="userSpaceOnUse" gradientTransform="translate(32.35 30.7888) scale(19.4666 19.5756)">
<stop stop-color="#616DBE"/>
<stop offset="0.53681" stop-color="#C3C7E6"/>
<stop offset="0.89033" stop-color="white"/>
</radialGradient>
<radialGradient id="paint12_radial_3418_8120" cx="0" cy="0" r="1" gradientUnits="userSpaceOnUse" gradientTransform="translate(26.3822 20.972) scale(11.6424 11.7077)">
<stop stop-color="#B18654"/>
<stop offset="1" stop-color="#000505"/>
</radialGradient>
<linearGradient id="paint13_linear_3418_8120" x1="16.9071" y1="37.289" x2="24.2559" y2="41.5082" gradientUnits="userSpaceOnUse">
<stop stop-color="#855226"/>
<stop offset="0.30855" stop-color="#BA7A1E"/>
<stop offset="1" stop-color="#3B2008"/>
</linearGradient>
<linearGradient id="paint14_linear_3418_8120" x1="19.6445" y1="38.9109" x2="26.8854" y2="43.0681" gradientUnits="userSpaceOnUse">
<stop stop-color="white"/>
<stop offset="0.39707" stop-color="#C3C7E6"/>
<stop offset="1" stop-color="#616DBE"/>
</linearGradient>
<linearGradient id="paint15_linear_3418_8120" x1="15.7155" y1="36.8268" x2="20.8534" y2="39.7767" gradientUnits="userSpaceOnUse">
<stop stop-color="#616DBE"/>
<stop offset="0.60293" stop-color="#C3C7E6"/>
<stop offset="1" stop-color="white"/>
</linearGradient>
<linearGradient id="paint16_linear_3418_8120" x1="8.59131" y1="53.7985" x2="16.0366" y2="53.7985" gradientUnits="userSpaceOnUse">
<stop stop-color="#BA7A1E"/>
<stop offset="1" stop-color="#3B2008"/>
</linearGradient>
<radialGradient id="paint17_radial_3418_8120" cx="0" cy="0" r="1" gradientUnits="userSpaceOnUse" gradientTransform="translate(15.4704 26.8758) scale(29.8517 30.0189)">
<stop stop-color="#B18654"/>
<stop offset="1" stop-color="#000505"/>
</radialGradient>
<linearGradient id="paint18_linear_3418_8120" x1="-0.128891" y1="44.2534" x2="9.10573" y2="49.5553" gradientUnits="userSpaceOnUse">
<stop stop-color="white"/>
<stop offset="0.39707" stop-color="#C3C7E6"/>
<stop offset="1" stop-color="#616DBE"/>
</linearGradient>
<linearGradient id="paint19_linear_3418_8120" x1="6.58135" y1="35.5067" x2="8.57925" y2="36.6538" gradientUnits="userSpaceOnUse">
<stop stop-color="white"/>
<stop offset="0.39707" stop-color="#C3C7E6"/>
<stop offset="1" stop-color="#616DBE"/>
</linearGradient>
<radialGradient id="paint20_radial_3418_8120" cx="0" cy="0" r="1" gradientUnits="userSpaceOnUse" gradientTransform="translate(34.4837 0.642783) scale(9.76884 9.82357)">
<stop stop-color="#B18654"/>
<stop offset="1" stop-color="#000505"/>
</radialGradient>
<radialGradient id="paint21_radial_3418_8120" cx="0" cy="0" r="1" gradientUnits="userSpaceOnUse" gradientTransform="translate(8.62099 28.601) scale(9.15748 9.20879)">
<stop stop-color="#B18654"/>
<stop offset="1" stop-color="#000505"/>
</radialGradient>
</defs>
</svg>
