<svg width="98" height="98" viewBox="0 0 98 98" fill="none" xmlns="http://www.w3.org/2000/svg">
<path d="M26.8793 73.2183C22.1553 73.653 21.8034 74.0054 21.3681 78.7289C20.9334 74.0054 20.581 73.653 15.8575 73.2183C20.581 72.7829 20.9334 72.4311 21.3681 67.7074C21.8034 72.4311 22.1553 72.7829 26.8793 73.2183Z" fill="#FFED1D"/>
<path style="mix-blend-mode:screen" d="M34.6217 71.6969C34.321 69.0756 33.2497 66.6024 31.5433 64.59C29.8369 62.5776 27.5721 61.1163 25.0353 60.3911C22.4985 59.6658 19.8036 59.7091 17.2913 60.5155C14.7791 61.3218 12.5624 62.8551 10.9216 64.9212C9.28071 66.9874 8.28943 69.4938 8.07303 72.1234C7.85663 74.7529 8.42484 77.3876 9.70583 79.6943C10.9868 82.0009 12.9231 83.8759 15.2697 85.0821C17.6163 86.2883 20.2678 86.7716 22.8891 86.4708C26.4041 86.0674 29.6148 84.2843 31.8151 81.5137C34.0154 78.7431 35.0249 75.2119 34.6217 71.6969Z" fill="url(#paint0_radial_3418_8096)"/>
<path d="M48.3633 23.9248C45.6063 24.1785 45.4008 24.3844 45.1471 27.141C44.8934 24.3844 44.6874 24.1785 41.9303 23.9248C44.6874 23.671 44.8934 23.4656 45.1471 20.7085C45.4008 23.4656 45.6063 23.671 48.3633 23.9248Z" fill="#FFED1D"/>
<path style="mix-blend-mode:screen" d="M52.8829 23.037C52.7073 21.507 52.082 20.0635 51.086 18.8889C50.09 17.7143 48.768 16.8614 47.2873 16.4381C45.8066 16.0148 44.2336 16.0401 42.7673 16.5107C41.301 16.9814 40.0071 17.8763 39.0494 19.0823C38.0917 20.2883 37.513 21.7512 37.3867 23.2861C37.2604 24.8209 37.592 26.3587 38.3397 27.7051C39.0874 29.0514 40.2175 30.1459 41.5871 30.8499C42.9568 31.554 44.5045 31.8361 46.0344 31.6606C48.0861 31.4251 49.9602 30.3843 51.2446 28.7671C52.5289 27.1499 53.1182 25.0887 52.8829 23.037Z" fill="url(#paint1_radial_3418_8096)"/>
<path d="M82.7298 77.9047C79.9727 78.1584 79.7673 78.3643 79.5135 81.1209C79.2598 78.3643 79.0539 78.1584 76.2968 77.9047C79.0539 77.6504 79.2598 77.445 79.5135 74.6879C79.7673 77.445 79.9727 77.6504 82.7298 77.9047Z" fill="#FFED1D"/>
<path style="mix-blend-mode:screen" d="M87.2493 77.0168C87.0738 75.4868 86.4485 74.0431 85.4526 72.8685C84.4567 71.6938 83.1347 70.8408 81.654 70.4175C80.1733 69.9941 78.6003 70.0193 77.1339 70.4899C75.6676 70.9605 74.3737 71.8554 73.4159 73.0614C72.4581 74.2674 71.8794 75.7303 71.7531 77.2652C71.6267 78.8 71.9583 80.3379 72.706 81.6843C73.4537 83.0306 74.5838 84.1251 75.9534 84.8292C77.3231 85.5333 78.8708 85.8154 80.4008 85.6399C81.4167 85.5234 82.3997 85.2079 83.2937 84.7115C84.1876 84.2151 84.975 83.5474 85.611 82.7467C86.2469 81.946 86.7189 81.0278 87 80.0447C87.2811 79.0615 87.3658 78.0327 87.2493 77.0168Z" fill="url(#paint2_radial_3418_8096)"/>
<path d="M72.9594 44.7105C70.4327 44.9434 70.244 45.1318 70.0116 47.6585C69.7788 45.1318 69.5901 44.9434 67.0634 44.7105C69.5901 44.4779 69.7788 44.2894 70.0116 41.7625C70.244 44.2894 70.4327 44.4779 72.9594 44.7105Z" fill="#FFED1D"/>
<path style="mix-blend-mode:screen" d="M77.1017 43.8969C76.9407 42.4946 76.3676 41.1715 75.4548 40.095C74.5419 39.0185 73.3303 38.2368 71.9732 37.8488C70.6161 37.4609 69.1744 37.4841 67.8305 37.9155C66.4865 38.3469 65.3007 39.1671 64.4229 40.2724C63.5452 41.3778 63.0149 42.7186 62.8992 44.1253C62.7834 45.532 63.0874 46.9415 63.7727 48.1754C64.458 49.4094 65.4938 50.4124 66.7492 51.0577C68.0045 51.7029 69.423 51.9614 70.8253 51.8005C72.7056 51.5847 74.4232 50.6307 75.6003 49.1485C76.7773 47.6663 77.3174 45.7773 77.1017 43.8969Z" fill="url(#paint3_radial_3418_8096)"/>
<path d="M26.9581 49.4674C24.9847 49.6494 24.8372 49.7969 24.6552 51.7699C24.4731 49.7969 24.3266 49.6494 22.3527 49.4674C24.3266 49.2854 24.4731 49.1389 24.6552 47.1649C24.8372 49.1389 24.9847 49.2854 26.9581 49.4674Z" fill="#FFED1D"/>
<path style="mix-blend-mode:screen" d="M30.1937 48.8318C30.068 47.7363 29.6203 46.7028 28.9071 45.8618C28.194 45.0208 27.2476 44.4102 26.1874 44.1072C25.1273 43.8041 24.001 43.8222 22.9512 44.1592C21.9013 44.4962 20.975 45.137 20.2893 46.0005C19.6036 46.8639 19.1894 47.9114 19.099 49.0103C19.0086 50.1092 19.2461 51.2102 19.7814 52.1741C20.3167 53.1381 21.1259 53.9216 22.1066 54.4256C23.0872 54.9297 24.1953 55.1316 25.2907 55.0059C26.0181 54.9225 26.7219 54.6966 27.3619 54.3412C28.002 53.9857 28.5658 53.5077 29.021 52.9344C29.4763 52.361 29.8142 51.7036 30.0154 50.9997C30.2166 50.2958 30.2772 49.5591 30.1937 48.8318Z" fill="url(#paint4_radial_3418_8096)"/>
<path style="mix-blend-mode:screen" d="M97.1366 43.9204C98.2055 53.2319 96.4892 62.6513 92.2047 70.9874C87.9202 79.3234 81.26 86.2018 73.0663 90.7526C64.8725 95.3035 55.5134 97.3224 46.1722 96.5541C36.8311 95.7858 27.9276 92.2647 20.5876 86.4362C13.2476 80.6077 7.80075 72.7335 4.93592 63.8094C2.0711 54.8853 1.91693 45.3121 4.49291 36.3003C7.06888 27.2886 12.2593 19.2431 19.4078 13.1813C26.5563 7.11945 35.3419 3.31353 44.6534 2.24482C57.1395 0.812271 69.6833 4.39816 79.5257 12.2137C89.3681 20.0293 95.7029 31.4344 97.1366 43.9204Z" fill="url(#paint5_radial_3418_8096)"/>
<g style="mix-blend-mode:overlay" opacity="0.35">
<path d="M43.2783 49.3329L0 31.0496L43.7235 47.7677L87 66.0496L43.2783 49.3329Z" fill="white"/>
</g>
<g style="mix-blend-mode:overlay" opacity="0.35">
<path d="M49.8081 48.6338L66.1103 0.0495605L51.4947 49.2456L35.1904 97.8246L49.8081 48.6338Z" fill="white"/>
</g>
<g style="mix-blend-mode:overlay" opacity="0.35">
<path d="M50.5396 48.7223L81.85 34.4967L50.7572 49.1436L19.4417 63.3791L50.5396 48.7223Z" fill="white"/>
</g>
<g style="mix-blend-mode:overlay" opacity="0.35">
<path d="M50.8578 48.8373L67.2854 80.5679L50.4433 49.0456L34.0094 17.3098L50.8578 48.8373Z" fill="white"/>
</g>
<defs>
<radialGradient id="paint0_radial_3418_8096" cx="0" cy="0" r="1" gradientUnits="userSpaceOnUse" gradientTransform="translate(21.3684 73.2179) scale(13.3413 13.3413)">
<stop stop-color="white" stop-opacity="0.7"/>
<stop offset="0.00599" stop-color="#FDF8ED" stop-opacity="0.69131"/>
<stop offset="0.02746" stop-color="#F5E1B4" stop-opacity="0.66356"/>
<stop offset="0.04943" stop-color="#EECF85" stop-opacity="0.64058"/>
<stop offset="0.07168" stop-color="#E9C060" stop-opacity="0.62276"/>
<stop offset="0.09434" stop-color="#E6B646" stop-opacity="0.61006"/>
<stop offset="0.11764" stop-color="#E4B036" stop-opacity="0.60249"/>
<stop offset="0.14257" stop-color="#E3AE31" stop-opacity="0.6"/>
<stop offset="0.24995" stop-color="#BF9326" stop-opacity="0.46466"/>
<stop offset="0.40502" stop-color="#947218" stop-opacity="0.29852"/>
<stop offset="0.55963" stop-color="#71580E" stop-opacity="0.16799"/>
<stop offset="0.7117" stop-color="#594506" stop-opacity="0.07479"/>
<stop offset="0.85992" stop-color="#4A3A02" stop-opacity="0.01883"/>
<stop offset="1" stop-color="#453600" stop-opacity="0"/>
</radialGradient>
<radialGradient id="paint1_radial_3418_8096" cx="0" cy="0" r="1" gradientUnits="userSpaceOnUse" gradientTransform="translate(45.1471 23.9248) scale(7.78728 7.78727)">
<stop stop-color="white" stop-opacity="0.7"/>
<stop offset="0.00599" stop-color="#FDF8ED" stop-opacity="0.69131"/>
<stop offset="0.02746" stop-color="#F5E1B4" stop-opacity="0.66356"/>
<stop offset="0.04943" stop-color="#EECF85" stop-opacity="0.64058"/>
<stop offset="0.07168" stop-color="#E9C060" stop-opacity="0.62276"/>
<stop offset="0.09434" stop-color="#E6B646" stop-opacity="0.61006"/>
<stop offset="0.11764" stop-color="#E4B036" stop-opacity="0.60249"/>
<stop offset="0.14257" stop-color="#E3AE31" stop-opacity="0.6"/>
<stop offset="0.24995" stop-color="#BF9326" stop-opacity="0.46466"/>
<stop offset="0.40502" stop-color="#947218" stop-opacity="0.29852"/>
<stop offset="0.55963" stop-color="#71580E" stop-opacity="0.16799"/>
<stop offset="0.7117" stop-color="#594506" stop-opacity="0.07479"/>
<stop offset="0.85992" stop-color="#4A3A02" stop-opacity="0.01883"/>
<stop offset="1" stop-color="#453600" stop-opacity="0"/>
</radialGradient>
<radialGradient id="paint2_radial_3418_8096" cx="0" cy="0" r="1" gradientUnits="userSpaceOnUse" gradientTransform="translate(79.5135 77.9043) scale(7.78717)">
<stop stop-color="white" stop-opacity="0.7"/>
<stop offset="0.00599" stop-color="#FDF8ED" stop-opacity="0.69131"/>
<stop offset="0.02746" stop-color="#F5E1B4" stop-opacity="0.66356"/>
<stop offset="0.04943" stop-color="#EECF85" stop-opacity="0.64058"/>
<stop offset="0.07168" stop-color="#E9C060" stop-opacity="0.62276"/>
<stop offset="0.09434" stop-color="#E6B646" stop-opacity="0.61006"/>
<stop offset="0.11764" stop-color="#E4B036" stop-opacity="0.60249"/>
<stop offset="0.14257" stop-color="#E3AE31" stop-opacity="0.6"/>
<stop offset="0.24995" stop-color="#BF9326" stop-opacity="0.46466"/>
<stop offset="0.40502" stop-color="#947218" stop-opacity="0.29852"/>
<stop offset="0.55963" stop-color="#71580E" stop-opacity="0.16799"/>
<stop offset="0.7117" stop-color="#594506" stop-opacity="0.07479"/>
<stop offset="0.85992" stop-color="#4A3A02" stop-opacity="0.01883"/>
<stop offset="1" stop-color="#453600" stop-opacity="0"/>
</radialGradient>
<radialGradient id="paint3_radial_3418_8096" cx="0" cy="0" r="1" gradientUnits="userSpaceOnUse" gradientTransform="translate(70.0117 44.7105) scale(7.13722 7.13723)">
<stop stop-color="white" stop-opacity="0.7"/>
<stop offset="0.00599" stop-color="#FDF8ED" stop-opacity="0.69131"/>
<stop offset="0.02746" stop-color="#F5E1B4" stop-opacity="0.66356"/>
<stop offset="0.04943" stop-color="#EECF85" stop-opacity="0.64058"/>
<stop offset="0.07168" stop-color="#E9C060" stop-opacity="0.62276"/>
<stop offset="0.09434" stop-color="#E6B646" stop-opacity="0.61006"/>
<stop offset="0.11764" stop-color="#E4B036" stop-opacity="0.60249"/>
<stop offset="0.14257" stop-color="#E3AE31" stop-opacity="0.6"/>
<stop offset="0.24995" stop-color="#BF9326" stop-opacity="0.46466"/>
<stop offset="0.40502" stop-color="#947218" stop-opacity="0.29852"/>
<stop offset="0.55963" stop-color="#71580E" stop-opacity="0.16799"/>
<stop offset="0.7117" stop-color="#594506" stop-opacity="0.07479"/>
<stop offset="0.85992" stop-color="#4A3A02" stop-opacity="0.01883"/>
<stop offset="1" stop-color="#453600" stop-opacity="0"/>
</radialGradient>
<radialGradient id="paint4_radial_3418_8096" cx="0" cy="0" r="1" gradientUnits="userSpaceOnUse" gradientTransform="translate(24.6552 49.4674) scale(5.57543 5.57542)">
<stop stop-color="white" stop-opacity="0.7"/>
<stop offset="0.00599" stop-color="#FDF8ED" stop-opacity="0.69131"/>
<stop offset="0.02746" stop-color="#F5E1B4" stop-opacity="0.66356"/>
<stop offset="0.04943" stop-color="#EECF85" stop-opacity="0.64058"/>
<stop offset="0.07168" stop-color="#E9C060" stop-opacity="0.62276"/>
<stop offset="0.09434" stop-color="#E6B646" stop-opacity="0.61006"/>
<stop offset="0.11764" stop-color="#E4B036" stop-opacity="0.60249"/>
<stop offset="0.14257" stop-color="#E3AE31" stop-opacity="0.6"/>
<stop offset="0.24995" stop-color="#BF9326" stop-opacity="0.46466"/>
<stop offset="0.40502" stop-color="#947218" stop-opacity="0.29852"/>
<stop offset="0.55963" stop-color="#71580E" stop-opacity="0.16799"/>
<stop offset="0.7117" stop-color="#594506" stop-opacity="0.07479"/>
<stop offset="0.85992" stop-color="#4A3A02" stop-opacity="0.01883"/>
<stop offset="1" stop-color="#453600" stop-opacity="0"/>
</radialGradient>
<radialGradient id="paint5_radial_3418_8096" cx="0" cy="0" r="1" gradientUnits="userSpaceOnUse" gradientTransform="translate(50.0568 49.3238) rotate(-6.54582) scale(47.3885 47.3885)">
<stop stop-color="white" stop-opacity="0.8"/>
<stop offset="0.01554" stop-color="#FFFCE8" stop-opacity="0.78212"/>
<stop offset="0.06168" stop-color="#FFF4AB" stop-opacity="0.73423"/>
<stop offset="0.10903" stop-color="#FFED77" stop-opacity="0.69302"/>
<stop offset="0.15686" stop-color="#FFE84C" stop-opacity="0.65937"/>
<stop offset="0.2053" stop-color="#FFE32A" stop-opacity="0.63328"/>
<stop offset="0.2546" stop-color="#FFE013" stop-opacity="0.61472"/>
<stop offset="0.30528" stop-color="#FFDF05" stop-opacity="0.60364"/>
<stop offset="0.3595" stop-color="#FFDE00" stop-opacity="0.6"/>
<stop offset="0.38454" stop-color="#F3DC0D" stop-opacity="0.56394"/>
<stop offset="0.53563" stop-color="#B0D255" stop-opacity="0.36401"/>
<stop offset="0.67764" stop-color="#7BCA8E" stop-opacity="0.20642"/>
<stop offset="0.80668" stop-color="#55C4B7" stop-opacity="0.09325"/>
<stop offset="0.91836" stop-color="#3EC0D0" stop-opacity="0.02442"/>
<stop offset="1" stop-color="#36BFD9" stop-opacity="0"/>
</radialGradient>
</defs>
</svg>
