<svg width="96" height="60" viewBox="0 0 96 60" fill="none" xmlns="http://www.w3.org/2000/svg">
<g filter="url(#filter0_d_3402_2969)">
<path d="M22.9481 15H75.3276C79.0528 15 82.6255 16.4881 85.2596 19.137C87.8937 21.7859 89.3735 25.3785 89.3735 29.1246V37.7456C89.3735 41.4917 87.8937 45.0844 85.2596 47.7332C82.6255 50.3821 79.0528 51.8702 75.3276 51.8702H22.9481V15Z" fill="url(#paint0_linear_3402_2969)"/>
<g style="mix-blend-mode:screen">
<path d="M22.9481 16.5338H75.1328C78.8541 16.5338 82.4229 18.0204 85.0543 20.6665C87.6856 23.3126 89.1639 26.9014 89.1639 30.6435V39.2944C89.1639 41.1473 88.8009 42.9821 88.0958 44.694C87.3907 46.4058 86.3572 47.9613 85.0543 49.2715C83.7514 50.5817 82.2046 51.621 80.5023 52.3301C78.7999 53.0392 76.9754 53.4041 75.1328 53.4041H22.9481V16.5338Z" fill="#FFDD57"/>
</g>
<path d="M22.9481 17.0234H75.3276C79.0528 17.0234 82.6255 18.5115 85.2596 21.1604C87.8937 23.8093 89.3735 27.4019 89.3735 31.148V39.769C89.3735 43.5151 87.8937 47.1077 85.2596 49.7566C82.6255 52.4055 79.0528 53.8936 75.3276 53.8936H22.9481V17.0234Z" fill="url(#paint1_linear_3402_2969)"/>
<g style="mix-blend-mode:screen" opacity="0.5">
<path d="M84.8802 31.7869V40.4351C84.8802 43.0468 83.8485 45.5515 82.0121 47.3982C80.1756 49.2449 77.6849 50.2824 75.0878 50.2824H22.9481V21.9402L75.0883 21.9402C77.6853 21.9402 80.1759 22.9776 82.0122 24.8242C83.8486 26.6709 84.8802 29.1754 84.8802 31.7869Z" fill="#FFF2BB"/>
</g>
<path d="M22.9481 51.8702H22.0459C18.3207 51.8702 14.7481 50.3821 12.1139 47.7332C9.47982 45.0844 8 41.4917 8 37.7456L8 29.1246C8 25.3785 9.47982 21.7859 12.1139 19.137C14.7481 16.4881 18.3207 15 22.0459 15H22.9481L22.9481 51.8702Z" fill="url(#paint2_linear_3402_2969)"/>
<g style="mix-blend-mode:screen">
<path d="M22.9481 53.4041H22.0783C18.357 53.4041 14.7881 51.9175 12.1568 49.2715C9.52544 46.6254 8.04719 43.0365 8.04719 39.2944L8.04719 30.6435C8.04719 28.7906 8.4101 26.9558 9.11522 25.244C9.82035 23.5321 10.8539 21.9767 12.1568 20.6665C13.4597 19.3563 15.0065 18.317 16.7088 17.6079C18.4111 16.8988 20.2357 16.5338 22.0783 16.5338H22.9481L22.9481 53.4041Z" fill="#FFDD57"/>
</g>
<path d="M22.9481 53.8936H22.0459C18.3207 53.8936 14.7481 52.4055 12.1139 49.7566C9.47982 47.1077 8 43.5151 8 39.769L8 31.148C8 27.4019 9.47982 23.8093 12.1139 21.1604C14.7481 18.5115 18.3207 17.0234 22.0459 17.0234H22.9481L22.9481 53.8936Z" fill="url(#paint3_linear_3402_2969)"/>
<path d="M85.1328 31.1478V39.7686C85.1328 42.3839 84.0996 44.8921 82.2606 46.7414C80.4216 48.5907 77.9274 49.6296 75.3266 49.6296H22.9481V21.2875L75.3273 21.2875C77.9279 21.2875 80.4219 22.3263 82.2608 24.1755C84.0997 26.0247 85.1328 28.5327 85.1328 31.1478Z" fill="url(#paint4_linear_3402_2969)"/>
</g>
<path style="mix-blend-mode:screen" opacity="0.5" d="M23.8963 35.2445C33.5746 35.2445 41.4204 27.3547 41.4204 17.6222C41.4204 7.88975 33.5746 0 23.8963 0C14.218 0 6.37225 7.88975 6.37225 17.6222C6.37225 27.3547 14.218 35.2445 23.8963 35.2445Z" fill="url(#paint5_radial_3402_2969)"/>
<path fill-rule="evenodd" clip-rule="evenodd" d="M33.1457 13.072C37.8288 15.6538 40.4565 21.4156 38.0102 26.0836C36.4342 28.3131 34.1016 29.8861 31.4521 30.506C28.8026 31.1258 26.0192 30.7498 23.6263 29.4488C21.2794 28.0423 19.5382 25.8066 18.7428 23.1783C17.9473 20.5499 18.1548 17.7178 19.3245 15.2351C22.2296 10.8882 28.4624 10.4903 33.1457 13.072ZM30.6993 17.2272C31.8304 17.841 32.6804 18.8725 33.0701 20.1041C33.4597 21.3358 33.3587 22.6715 32.7882 23.8296C31.5907 26.1229 28.4851 26.693 26.0252 25.2648C23.5651 23.8365 22.4478 20.7877 23.8795 18.6575C24.6412 17.6159 25.7586 16.8938 27.0172 16.6299C28.2758 16.3659 29.5871 16.5787 30.6993 17.2272Z" fill="url(#paint6_linear_3402_2969)"/>
<path style="mix-blend-mode:multiply" opacity="0.4" fill-rule="evenodd" clip-rule="evenodd" d="M34.5141 29.3173C32.8448 30.0651 31.0237 30.4064 29.1986 30.3137C27.3735 30.221 25.5958 29.6969 24.0099 28.7837C22.4241 27.8706 21.0746 26.5943 20.0712 25.0585C19.0678 23.5226 18.4387 21.7704 18.235 19.9442C18.2089 21.8688 18.6954 23.7653 19.644 25.437C20.5927 27.1087 21.969 28.4947 23.63 29.451C25.291 30.4074 27.1763 30.8994 29.0902 30.8759C31.0041 30.8523 32.8768 30.3142 34.5141 29.3173Z" fill="url(#paint7_radial_3402_2969)"/>
<path fill-rule="evenodd" clip-rule="evenodd" d="M34.3502 10.9897C36.7347 12.3042 38.5178 14.4991 39.323 17.111C40.1283 19.7229 39.8925 22.5472 38.6655 24.9875C36.1094 29.8762 29.552 31.1313 24.3836 28.1305C19.2155 25.1299 16.9012 18.6669 19.9495 14.1214C21.5427 11.9046 23.8946 10.3584 26.5531 9.78032C29.2115 9.20221 31.9886 9.63297 34.3502 10.9897ZM31.7884 15.3385C32.9942 15.9766 33.9071 17.0598 34.3355 18.3604C34.7639 19.6611 34.6744 21.0781 34.0859 22.3139C32.8348 24.7156 29.5315 25.282 26.8945 23.7508C24.2577 22.2199 23.0339 18.9971 24.5366 16.7697C25.359 15.6763 26.5531 14.9259 27.8908 14.6619C29.2286 14.3979 30.6161 14.6388 31.7884 15.3385Z" fill="url(#paint8_linear_3402_2969)"/>
<path fill-rule="evenodd" clip-rule="evenodd" d="M20.0542 14.2992C21.6895 12.1577 24.0404 10.6837 26.6725 10.1499C29.3045 9.61602 32.0398 10.0583 34.3728 11.395C35.8113 12.1923 37.0461 13.3145 37.9802 14.6732C38.9142 16.0319 39.5219 17.59 39.7554 19.225C39.5848 17.5148 39.0037 15.8718 38.0622 14.4374C37.1206 13.0029 35.8468 11.8198 34.3501 10.9897C31.9885 9.63302 29.2114 9.20229 26.553 9.78039C23.8946 10.3585 21.5427 11.9046 19.9495 14.1213C19.2701 15.1326 18.8312 16.2874 18.6666 17.4966C18.8707 16.4407 19.2845 15.4372 19.8831 14.5458C19.9391 14.4626 19.9961 14.3804 20.0542 14.2992Z" fill="#EFC150"/>
<path fill-rule="evenodd" clip-rule="evenodd" d="M32.8284 23.7506C31.9383 24.3085 30.9104 24.6042 29.8615 24.6043C28.8126 24.6043 27.7847 24.3087 26.8944 23.7508C26.0012 23.2655 25.2521 22.5502 24.7238 21.6783C24.1955 20.8064 23.907 19.8091 23.8876 18.7883C23.8026 19.8898 24.0397 20.9922 24.5698 21.96C25.0999 22.9277 25.8998 23.7184 26.8711 24.2349C27.6796 24.7302 28.5963 25.0191 29.5412 25.0765C30.4862 25.1339 31.4308 24.9581 32.2927 24.5643C33.0687 24.1801 33.7037 23.5586 34.1067 22.789C34.5431 21.9426 34.7233 20.9862 34.6251 20.0379C34.6345 20.8297 34.4493 21.6115 34.0858 22.3139C33.7873 22.8872 33.356 23.3799 32.8284 23.7506Z" fill="#EFC150"/>
<path style="mix-blend-mode:multiply" opacity="0.5" fill-rule="evenodd" clip-rule="evenodd" d="M25.8017 16.9596C26.4332 16.0253 27.3868 15.3596 28.4782 15.0915C29.5695 14.8235 30.721 14.972 31.7097 15.5083C32.6814 16.0759 33.3949 17.0019 33.6989 18.0897C34.003 19.1776 33.8736 20.3418 33.3383 21.3353L33.3094 21.3891C33.356 22.2049 33.1903 23.0189 32.8285 23.7506C33.3561 23.38 33.7873 22.8872 34.0858 22.3139C34.4493 21.6115 34.6346 20.8297 34.6251 20.0379C34.6075 19.0724 34.3357 18.1288 33.8374 17.3033C33.3391 16.4778 32.6321 15.7998 31.7884 15.3385C30.6161 14.6388 29.2285 14.3979 27.8908 14.6619C26.553 14.9259 25.3589 15.6763 24.5366 16.7697C24.1637 17.3231 23.9428 17.9658 23.8964 18.6326C24.3633 17.9523 24.9997 17.4072 25.7421 17.0521C25.7615 17.0212 25.7813 16.9904 25.8017 16.9596Z" fill="url(#paint9_radial_3402_2969)"/>
<path style="mix-blend-mode:multiply" opacity="0.5" fill-rule="evenodd" clip-rule="evenodd" d="M38.4855 23.8569C35.9758 28.6567 29.5377 29.8888 24.4634 26.9427C22.6418 25.9481 21.1427 24.4481 20.1445 22.6213C19.1462 20.7944 18.6909 18.7177 18.8326 16.6381C17.7923 20.8096 20.1141 25.6517 24.3837 28.1305C29.5519 31.1312 36.1094 29.8761 38.6655 24.9875C39.8167 22.7585 40.1137 20.182 39.5002 17.7473C39.814 19.8405 39.4587 21.9798 38.4855 23.8569Z" fill="url(#paint10_radial_3402_2969)"/>
<path style="mix-blend-mode:screen" fill-rule="evenodd" clip-rule="evenodd" d="M26.9751 10.3571C25.195 10.5953 23.5155 11.3252 22.123 12.4655C20.7306 13.6059 19.6799 15.1121 19.0875 16.8169C18.5602 18.4828 19.8019 18.9305 20.9388 19.1297C21.2775 19.1891 21.6184 19.2464 21.9616 19.3017C22.1242 19.3279 22.2904 19.3215 22.4506 19.2828C22.6107 19.2442 22.7617 19.174 22.8948 19.0764C23.0278 18.9788 23.1404 18.8556 23.2259 18.7141C23.3114 18.5725 23.3682 18.4153 23.3931 18.2516C23.4002 18.2045 23.4081 18.1574 23.4168 18.1104C23.5242 17.5205 23.7525 16.9596 24.0872 16.4633C24.4572 15.9164 24.9254 15.4436 25.4678 15.0692C26.4404 14.4309 27.5688 14.0737 28.7297 14.0369C29.8906 14 31.0392 14.2848 32.0499 14.8601C32.8384 15.2948 33.5203 15.9013 34.0454 16.6353C34.5706 17.3694 34.9258 18.2122 35.085 19.1022C35.1362 19.4062 35.2973 19.6805 35.5373 19.8724C35.7773 20.0643 36.0794 20.1602 36.3855 20.1419C37.2104 20.0951 38.0264 20.0289 38.8336 19.9433C40.3389 19.7827 38.5989 15.3959 36.7229 13.4816C35.4737 12.2023 33.9328 11.249 32.2341 10.7045C30.5353 10.16 28.7301 10.0407 26.9751 10.3571Z" fill="url(#paint11_radial_3402_2969)"/>
<path fill-rule="evenodd" clip-rule="evenodd" d="M6.66336 35.109C9.22496 36.554 10.9545 37.6681 13.3554 39.2564C13.0486 39.82 12.7405 40.382 12.431 40.9426C12.8613 41.1924 13.2916 41.4422 13.7219 41.6922L9.55006 48.9587L7.97317 48.6496C7.64437 49.2006 7.31364 49.7496 6.98097 50.2965C4.71112 49.2187 2.49297 47.9842 0.0214019 46.5231C-0.0276018 45.9479 0.00765394 45.3686 0.126066 44.8038C0.999243 43.3341 1.87235 41.8645 2.74539 40.3949C3.62343 40.8803 4.50138 41.3657 5.37923 41.8512C5.79705 41.1237 6.21472 40.3963 6.63223 39.6689C5.99071 39.2737 6.05266 39.2869 5.41106 38.8917C5.39281 38.3165 5.42786 37.7409 5.51574 37.1723C5.89848 36.4846 6.281 35.7969 6.66336 35.109Z" fill="url(#paint12_linear_3402_2969)"/>
<path fill-rule="evenodd" clip-rule="evenodd" d="M7.40272 33.7632C9.96405 35.208 11.7189 36.3368 14.1196 37.925C13.8128 38.4887 13.5047 39.0508 13.1952 39.6113L14.4863 40.3609L10.0531 48.0822L8.76442 47.334C8.43548 47.8849 8.1047 48.4339 7.77208 48.9808C5.50223 47.903 2.5976 46.2649 0.126038 44.8037C1.2846 42.8995 2.41251 40.9861 3.50978 39.0636L6.14375 40.5198L7.39647 38.3376L5.51568 37.1723C6.15273 36.0366 6.78177 34.9003 7.40272 33.7632Z" fill="url(#paint13_radial_3402_2969)"/>
<path style="mix-blend-mode:screen" fill-rule="evenodd" clip-rule="evenodd" d="M14.1198 37.9251C11.719 36.3368 9.96411 35.2081 7.40282 33.7632C6.78147 34.8998 6.15251 36.0361 5.51597 37.1723L7.39662 38.3376L6.1439 40.5198L3.50992 39.0636C2.71244 40.4568 1.90023 41.8465 1.0733 43.2327C5.42409 43.6114 9.75585 42.3173 13.1954 39.6113C13.5049 39.0509 13.813 38.4888 14.1198 37.9251Z" fill="url(#paint14_radial_3402_2969)"/>
<path style="mix-blend-mode:multiply" fill-rule="evenodd" clip-rule="evenodd" d="M12.2345 36.6973C13.2404 37.694 12.1698 41.0593 10.8714 43.3207C9.5731 45.5822 7.21981 48.0551 5.60968 47.8915C6.36787 48.2911 7.098 48.6607 7.77211 48.9808C8.10487 48.4339 8.43567 47.8849 8.76447 47.3339L10.0532 48.0822L14.4863 40.3609L13.1952 39.6113C13.5049 39.0509 13.813 38.4889 14.1197 37.9251C13.4954 37.5121 12.867 37.1028 12.2345 36.6973Z" fill="url(#paint15_radial_3402_2969)"/>
<path d="M22.6151 31.198C23.3304 31.6235 24.0855 31.9776 24.8695 32.2553C25.8834 32.5909 26.7223 32.43 27.1454 31.6931C27.5684 30.9563 27.2876 30.1454 26.4916 29.4301C25.2163 28.354 23.7636 27.5106 22.1992 26.9381C21.1853 26.6024 20.3464 26.7633 19.9233 27.5002C19.5004 28.237 19.7812 29.048 20.5771 29.7632C21.2082 30.3072 21.8908 30.7878 22.6151 31.198Z" fill="url(#paint16_linear_3402_2969)"/>
<path style="mix-blend-mode:multiply" opacity="0.5" fill-rule="evenodd" clip-rule="evenodd" d="M24.8695 32.2553C23.3053 31.6825 21.8526 30.8391 20.5772 29.7632C20.2982 29.5234 20.0677 29.232 19.8979 28.9048C19.8668 28.8141 19.8553 28.7176 19.8644 28.622C19.8735 28.5264 19.9029 28.4339 19.9507 28.3508C19.9984 28.2676 20.0634 28.1957 20.1412 28.14C20.219 28.0843 20.3077 28.046 20.4015 28.0278C20.7682 28.0119 21.1345 28.067 21.4804 28.1902C23.0448 28.7629 24.4974 29.6063 25.7728 30.6823C26.0518 30.922 26.2824 31.2134 26.452 31.5407C26.4832 31.6314 26.4947 31.7279 26.4856 31.8235C26.4765 31.919 26.447 32.0115 26.3993 32.0947C26.3515 32.1779 26.2866 32.2497 26.2088 32.3054C26.131 32.3611 26.0423 32.3994 25.9485 32.4175C25.5818 32.4334 25.2155 32.3784 24.8695 32.2553Z" fill="url(#paint17_radial_3402_2969)"/>
<path style="mix-blend-mode:screen" fill-rule="evenodd" clip-rule="evenodd" d="M20.4989 27.6963C20.4789 27.6372 20.4736 27.5741 20.4835 27.5125C20.4935 27.4509 20.5184 27.3927 20.556 27.3431C21.5177 26.1453 25.8027 28.8123 25.8001 30.3005C24.4529 29.1203 22.8413 28.2861 21.1034 27.8693C20.8608 27.8389 20.5481 27.7961 20.4989 27.6963Z" fill="url(#paint18_radial_3402_2969)"/>
<path fill-rule="evenodd" clip-rule="evenodd" d="M26.0522 32.1315C23.4716 36.4391 22.908 37.2594 20.4052 41.6088C17.9025 45.9582 15.4783 50.3532 13.0848 54.766C12.0843 54.1852 11.0839 53.6044 10.0835 53.0236C9.08382 52.4431 8.08377 51.8625 7.08344 51.2818C9.66904 46.9804 12.2566 42.6805 14.7759 38.3405C17.295 34.0008 17.7226 33.1013 20.1047 28.6784C20.2454 28.4175 20.7028 28.3727 21.3349 28.5164C22.9329 28.9537 24.3909 29.8001 25.5665 30.9732C26.0087 31.4532 26.2045 31.8773 26.0522 32.1315Z" fill="url(#paint19_linear_3402_2969)"/>
<path style="mix-blend-mode:multiply" opacity="0.4" fill-rule="evenodd" clip-rule="evenodd" d="M25.5664 30.9732C25.2257 30.6144 24.8501 30.2909 24.4451 30.0076C21.8541 34.5007 21.2567 35.4928 18.6643 39.9816C16.066 44.4809 13.4929 48.9949 10.9447 53.5235C11.6579 53.9377 12.3713 54.3519 13.0847 54.766C15.4782 50.3532 17.9024 45.9582 20.4051 41.6088C22.9079 37.2594 23.4715 36.4391 26.0521 32.1315C26.2043 31.8772 26.0085 31.4532 25.5664 30.9732Z" fill="url(#paint20_linear_3402_2969)"/>
<path style="mix-blend-mode:multiply" opacity="0.4" fill-rule="evenodd" clip-rule="evenodd" d="M7.94397 51.7815C10.5922 47.3109 13.2476 42.8448 15.8502 38.3477C18.4002 33.9419 18.8737 32.9854 21.3116 28.5111C20.6913 28.3739 20.2435 28.4207 20.1046 28.6784C17.7225 33.1013 17.2949 34.0008 14.7758 38.3405C12.2565 42.6805 9.66891 46.9804 7.08331 51.2818C7.37007 51.4483 7.65696 51.6149 7.94397 51.7815Z" fill="url(#paint21_linear_3402_2969)"/>
<path fill-rule="evenodd" clip-rule="evenodd" d="M10.6191 52.0921C12.2763 53.0542 13.3803 54.2515 13.0847 54.766C12.7894 55.2807 11.2062 54.9179 9.54912 53.9558C7.89179 52.9937 6.78791 51.7965 7.08335 51.2818C7.3788 50.7671 8.96191 51.1299 10.6191 52.0921Z" fill="url(#paint22_linear_3402_2969)"/>
<path style="mix-blend-mode:screen" fill-rule="evenodd" clip-rule="evenodd" d="M23.476 29.3929C22.9101 29.0689 22.3114 28.8066 21.6901 28.6107C14.7179 40.8238 11.291 47.2836 11.7432 47.56C12.1953 47.8365 16.4179 41.7239 23.476 29.3929Z" fill="url(#paint23_radial_3402_2969)"/>
<path style="mix-blend-mode:multiply" opacity="0.4" fill-rule="evenodd" clip-rule="evenodd" d="M5.60973 47.8916C6.0788 48.6119 5.68937 48.7939 5.10995 48.7346C4.01135 48.6222 0.552196 46.7369 0.32886 45.7022C0.293288 45.5843 0.296804 45.4579 0.338898 45.3422C0.380992 45.2265 0.459387 45.1277 0.562224 45.0607C0.41551 44.9745 0.270119 44.8889 0.126084 44.8037C0.00774087 45.3686 -0.0275143 45.9478 0.0214202 46.523C2.49299 47.9842 4.71108 49.2187 6.98099 50.2965C7.3136 49.7496 7.64433 49.2007 7.97319 48.6496C7.90634 48.7601 7.83932 48.8705 7.77212 48.9808C7.09805 48.6608 6.36802 48.2912 5.60973 47.8916Z" fill="url(#paint24_linear_3402_2969)"/>
<path style="mix-blend-mode:multiply" opacity="0.4" fill-rule="evenodd" clip-rule="evenodd" d="M6.66974 39.0716C6.19301 39.3325 5.54397 38.6834 5.42689 37.9794C5.40629 38.283 5.40102 38.5875 5.41109 38.8917C6.05273 39.2869 5.99076 39.2738 6.63223 39.669L7.39651 38.3376L6.3066 37.6738C6.50299 37.8332 6.67345 38.0225 6.81179 38.2348C6.86284 38.2969 6.89998 38.3693 6.92064 38.4472C6.9413 38.5251 6.94501 38.6065 6.93151 38.6859C6.91802 38.7654 6.88764 38.8409 6.84245 38.9075C6.79727 38.974 6.73839 39.03 6.66974 39.0716Z" fill="url(#paint25_linear_3402_2969)"/>
<path style="mix-blend-mode:screen" fill-rule="evenodd" clip-rule="evenodd" d="M26.9751 10.3571C25.195 10.5953 23.5155 11.3252 22.123 12.4655C20.7306 13.6059 19.6799 15.1121 19.0875 16.8169C18.5602 18.4828 19.8019 18.9305 20.9388 19.1297C21.2775 19.1891 21.6184 19.2464 21.9616 19.3017C22.1242 19.3279 22.2904 19.3215 22.4506 19.2828C22.6107 19.2442 22.7617 19.174 22.8948 19.0764C23.0278 18.9788 23.1404 18.8556 23.2259 18.7141C23.3114 18.5725 23.3682 18.4153 23.3931 18.2516C23.4002 18.2045 23.4081 18.1574 23.4168 18.1104C23.5242 17.5205 23.7525 16.9596 24.0872 16.4633C24.4572 15.9164 24.9254 15.4436 25.4678 15.0692C26.4404 14.4309 27.5688 14.0737 28.7297 14.0369C29.8906 14 31.0392 14.2848 32.0499 14.8601C32.8384 15.2948 33.5203 15.9013 34.0454 16.6353C34.5706 17.3694 34.9258 18.2122 35.085 19.1022C35.1362 19.4062 35.2973 19.6805 35.5373 19.8724C35.7773 20.0643 36.0794 20.1602 36.3855 20.1419C37.2104 20.0951 38.0264 20.0289 38.8336 19.9433C40.3389 19.7827 38.5989 15.3959 36.7229 13.4816C35.4737 12.2023 33.9328 11.249 32.2341 10.7045C30.5353 10.16 28.7301 10.0407 26.9751 10.3571Z" fill="url(#paint26_radial_3402_2969)"/>
<path style="mix-blend-mode:screen" fill-rule="evenodd" clip-rule="evenodd" d="M14.1198 37.9251C11.719 36.3368 9.96411 35.2081 7.40282 33.7632C6.78147 34.8998 6.15251 36.0361 5.51597 37.1723L7.39662 38.3376L6.1439 40.5198L3.50992 39.0636C2.71244 40.4568 1.90023 41.8465 1.0733 43.2327C5.42409 43.6114 9.75585 42.3173 13.1954 39.6113C13.5049 39.0509 13.813 38.4888 14.1198 37.9251Z" fill="url(#paint27_radial_3402_2969)"/>
<path style="mix-blend-mode:screen" fill-rule="evenodd" clip-rule="evenodd" d="M34.123 12.9515C34.123 14.5465 33.6527 16.1058 32.7714 17.432C31.8902 18.7583 30.6376 19.7919 29.1722 20.4023C27.7067 21.0127 26.0942 21.1724 24.5385 20.8612C22.9828 20.55 21.5538 19.7819 20.4322 18.654C19.3106 17.5261 18.5468 16.0891 18.2374 14.5247C17.928 12.9603 18.0868 11.3387 18.6938 9.86508C19.3008 8.39144 20.3288 7.1319 21.6476 6.24574C22.9665 5.35958 24.5171 4.8866 26.1032 4.88662C27.1564 4.88662 28.1993 5.09522 29.1723 5.50052C30.1453 5.90582 31.0294 6.49988 31.7741 7.24877C32.5188 7.99766 33.1096 8.88672 33.5126 9.86519C33.9156 10.8437 34.123 11.8924 34.123 12.9515Z" fill="url(#paint28_radial_3402_2969)"/>
<defs>
<filter id="filter0_d_3402_2969" x="2" y="9" width="93.3735" height="50.8936" filterUnits="userSpaceOnUse" color-interpolation-filters="sRGB">
<feFlood flood-opacity="0" result="BackgroundImageFix"/>
<feColorMatrix in="SourceAlpha" type="matrix" values="0 0 0 0 0 0 0 0 0 0 0 0 0 0 0 0 0 0 127 0" result="hardAlpha"/>
<feOffset/>
<feGaussianBlur stdDeviation="3"/>
<feComposite in2="hardAlpha" operator="out"/>
<feColorMatrix type="matrix" values="0 0 0 0 0 0 0 0 0 0 0 0 0 0 0 0 0 0 0.7 0"/>
<feBlend mode="normal" in2="BackgroundImageFix" result="effect1_dropShadow_3402_2969"/>
<feBlend mode="normal" in="SourceGraphic" in2="effect1_dropShadow_3402_2969" result="shape"/>
</filter>
<linearGradient id="paint0_linear_3402_2969" x1="22.9481" y1="33.4351" x2="89.3735" y2="33.4351" gradientUnits="userSpaceOnUse">
<stop stop-color="#A63A00"/>
<stop offset="0.19762" stop-color="#E8810C"/>
<stop offset="0.55347" stop-color="#E8810C"/>
<stop offset="0.67206" stop-color="#E9840C"/>
<stop offset="0.74522" stop-color="#EC8C0C"/>
<stop offset="0.80605" stop-color="#F19B0C"/>
<stop offset="0.85981" stop-color="#F7AF0D"/>
<stop offset="0.90378" stop-color="#FFC60D"/>
<stop offset="0.97305" stop-color="#D47100"/>
</linearGradient>
<linearGradient id="paint1_linear_3402_2969" x1="304.474" y1="122.095" x2="304.474" y2="85.2249" gradientUnits="userSpaceOnUse">
<stop stop-color="#F09207"/>
<stop offset="1" stop-color="#EC9101"/>
</linearGradient>
<linearGradient id="paint2_linear_3402_2969" x1="22.9481" y1="33.4351" x2="8.00001" y2="33.4351" gradientUnits="userSpaceOnUse">
<stop stop-color="#A63A00"/>
<stop offset="0.19762" stop-color="#E8810C"/>
<stop offset="0.55347" stop-color="#E8810C"/>
<stop offset="0.67206" stop-color="#E9840C"/>
<stop offset="0.74522" stop-color="#EC8C0C"/>
<stop offset="0.80605" stop-color="#F19B0C"/>
<stop offset="0.85981" stop-color="#F7AF0D"/>
<stop offset="0.90378" stop-color="#FFC60D"/>
<stop offset="0.97305" stop-color="#D47100"/>
</linearGradient>
<linearGradient id="paint3_linear_3402_2969" x1="15.474" y1="53.8936" x2="15.474" y2="17.0234" gradientUnits="userSpaceOnUse">
<stop stop-color="#ED8600"/>
<stop offset="1" stop-color="#FFD52B"/>
</linearGradient>
<linearGradient id="paint4_linear_3402_2969" x1="54.0404" y1="49.6297" x2="54.0404" y2="21.2875" gradientUnits="userSpaceOnUse">
<stop stop-color="#B50707"/>
<stop offset="1" stop-color="#FF4545"/>
</linearGradient>
<radialGradient id="paint5_radial_3402_2969" cx="0" cy="0" r="1" gradientUnits="userSpaceOnUse" gradientTransform="translate(23.8963 17.6222) scale(17.5241 17.6222)">
<stop stop-color="#AD6700"/>
<stop offset="0.02495" stop-color="#A56200"/>
<stop offset="0.20279" stop-color="#734500"/>
<stop offset="0.37859" stop-color="#4A2C00"/>
<stop offset="0.54901" stop-color="#2A1900"/>
<stop offset="0.71253" stop-color="#130B00"/>
<stop offset="0.86622" stop-color="#050300"/>
<stop offset="1"/>
</radialGradient>
<linearGradient id="paint6_linear_3402_2969" x1="18.9961" y1="15.8072" x2="37.7337" y2="26.5651" gradientUnits="userSpaceOnUse">
<stop stop-color="#BA7A1E"/>
<stop offset="1" stop-color="#3B2008"/>
</linearGradient>
<radialGradient id="paint7_radial_3402_2969" cx="0" cy="0" r="1" gradientUnits="userSpaceOnUse" gradientTransform="translate(27.7609 15.95) scale(15.3521 15.4381)">
<stop offset="0.64498" stop-color="white"/>
<stop offset="0.78595" stop-color="#C3C7E6"/>
<stop offset="1" stop-color="#616DBE"/>
</radialGradient>
<linearGradient id="paint8_linear_3402_2969" x1="22.9264" y1="10.4952" x2="36.8944" y2="30.0306" gradientUnits="userSpaceOnUse">
<stop stop-color="#BA873B"/>
<stop offset="1" stop-color="#6E390A"/>
</linearGradient>
<radialGradient id="paint9_radial_3402_2969" cx="0" cy="0" r="1" gradientUnits="userSpaceOnUse" gradientTransform="translate(31.8617 26.2528) scale(12.3057 12.3747)">
<stop stop-color="white"/>
<stop offset="0.39707" stop-color="#C3C7E6"/>
<stop offset="1" stop-color="#616DBE"/>
</radialGradient>
<radialGradient id="paint10_radial_3402_2969" cx="0" cy="0" r="1" gradientUnits="userSpaceOnUse" gradientTransform="translate(29.9094 14.0282) scale(16.7483 16.8421)">
<stop offset="0.64498" stop-color="white"/>
<stop offset="0.78595" stop-color="#C3C7E6"/>
<stop offset="1" stop-color="#616DBE"/>
</radialGradient>
<radialGradient id="paint11_radial_3402_2969" cx="0" cy="0" r="1" gradientUnits="userSpaceOnUse" gradientTransform="translate(27.5523 6.96146) scale(18.3559 18.4588)">
<stop stop-color="#B18654"/>
<stop offset="1" stop-color="#000505"/>
</radialGradient>
<linearGradient id="paint12_linear_3402_2969" x1="-7.15914" y1="34.7176" x2="10.05" y2="44.5979" gradientUnits="userSpaceOnUse">
<stop stop-color="#BA7A1E"/>
<stop offset="1" stop-color="#3B2008"/>
</linearGradient>
<radialGradient id="paint13_radial_3402_2969" cx="0" cy="0" r="1" gradientUnits="userSpaceOnUse" gradientTransform="translate(2.72098 33.4256) scale(19.0592 19.166)">
<stop stop-color="#BA873B"/>
<stop offset="1" stop-color="#6E390A"/>
</radialGradient>
<radialGradient id="paint14_radial_3402_2969" cx="0" cy="0" r="1" gradientUnits="userSpaceOnUse" gradientTransform="translate(3.98684 27.4448) scale(19.4456 19.5545)">
<stop stop-color="#B18654"/>
<stop offset="1" stop-color="#000505"/>
</radialGradient>
<radialGradient id="paint15_radial_3402_2969" cx="0" cy="0" r="1" gradientUnits="userSpaceOnUse" gradientTransform="translate(-3.80529 32.0475) scale(23.2775 23.4079)">
<stop offset="0.64498" stop-color="white"/>
<stop offset="0.78595" stop-color="#C3C7E6"/>
<stop offset="1" stop-color="#616DBE"/>
</radialGradient>
<linearGradient id="paint16_linear_3402_2969" x1="19.9234" y1="27.5001" x2="27.1655" y2="31.6581" gradientUnits="userSpaceOnUse">
<stop stop-color="#BA7A1E"/>
<stop offset="1" stop-color="#4A2808"/>
</linearGradient>
<radialGradient id="paint17_radial_3402_2969" cx="0" cy="0" r="1" gradientUnits="userSpaceOnUse" gradientTransform="translate(26.4919 34.1809) scale(15.9415 16.0308)">
<stop stop-color="#616DBE"/>
<stop offset="0.53681" stop-color="#C3C7E6"/>
<stop offset="0.89033" stop-color="white"/>
</radialGradient>
<radialGradient id="paint18_radial_3402_2969" cx="0" cy="0" r="1" gradientUnits="userSpaceOnUse" gradientTransform="translate(21.6048 26.1418) scale(9.53415 9.58759)">
<stop stop-color="#B18654"/>
<stop offset="1" stop-color="#000505"/>
</radialGradient>
<linearGradient id="paint19_linear_3402_2969" x1="13.8455" y1="39.504" x2="19.8635" y2="42.9592" gradientUnits="userSpaceOnUse">
<stop stop-color="#855226"/>
<stop offset="0.30855" stop-color="#BA7A1E"/>
<stop offset="1" stop-color="#3B2008"/>
</linearGradient>
<linearGradient id="paint20_linear_3402_2969" x1="16.0872" y1="40.8322" x2="22.0168" y2="44.2366" gradientUnits="userSpaceOnUse">
<stop stop-color="white"/>
<stop offset="0.39707" stop-color="#C3C7E6"/>
<stop offset="1" stop-color="#616DBE"/>
</linearGradient>
<linearGradient id="paint21_linear_3402_2969" x1="12.8696" y1="39.1255" x2="17.0772" y2="41.5412" gradientUnits="userSpaceOnUse">
<stop stop-color="#616DBE"/>
<stop offset="0.60293" stop-color="#C3C7E6"/>
<stop offset="1" stop-color="white"/>
</linearGradient>
<linearGradient id="paint22_linear_3402_2969" x1="7.03552" y1="53.0239" x2="13.1326" y2="53.0239" gradientUnits="userSpaceOnUse">
<stop stop-color="#BA7A1E"/>
<stop offset="1" stop-color="#3B2008"/>
</linearGradient>
<radialGradient id="paint23_radial_3402_2969" cx="0" cy="0" r="1" gradientUnits="userSpaceOnUse" gradientTransform="translate(12.6689 30.9764) scale(24.446 24.5829)">
<stop stop-color="#B18654"/>
<stop offset="1" stop-color="#000505"/>
</radialGradient>
<linearGradient id="paint24_linear_3402_2969" x1="-0.105589" y1="45.2073" x2="7.45678" y2="49.5491" gradientUnits="userSpaceOnUse">
<stop stop-color="white"/>
<stop offset="0.39707" stop-color="#C3C7E6"/>
<stop offset="1" stop-color="#616DBE"/>
</linearGradient>
<linearGradient id="paint25_linear_3402_2969" x1="5.38958" y1="38.0444" x2="7.02569" y2="38.9838" gradientUnits="userSpaceOnUse">
<stop stop-color="white"/>
<stop offset="0.39707" stop-color="#C3C7E6"/>
<stop offset="1" stop-color="#616DBE"/>
</linearGradient>
<radialGradient id="paint26_radial_3402_2969" cx="0" cy="0" r="1" gradientUnits="userSpaceOnUse" gradientTransform="translate(28.2391 9.49387) scale(7.99985 8.04467)">
<stop stop-color="#B18654"/>
<stop offset="1" stop-color="#000505"/>
</radialGradient>
<radialGradient id="paint27_radial_3402_2969" cx="0" cy="0" r="1" gradientUnits="userSpaceOnUse" gradientTransform="translate(7.05993 32.3892) scale(7.49919 7.54121)">
<stop stop-color="#B18654"/>
<stop offset="1" stop-color="#000505"/>
</radialGradient>
<radialGradient id="paint28_radial_3402_2969" cx="0" cy="0" r="1" gradientUnits="userSpaceOnUse" gradientTransform="translate(26.1032 12.9514) scale(8.01986 8.06479)">
<stop stop-color="#FF9900"/>
<stop offset="0.06692" stop-color="#E18700"/>
<stop offset="0.21246" stop-color="#A66400"/>
<stop offset="0.35781" stop-color="#744500"/>
<stop offset="0.49949" stop-color="#4A2C00"/>
<stop offset="0.63685" stop-color="#2A1900"/>
<stop offset="0.76857" stop-color="#130B00"/>
<stop offset="0.89229" stop-color="#050300"/>
<stop offset="1"/>
</radialGradient>
</defs>
</svg>
