<svg width="27" height="34" viewBox="0 0 27 34" fill="none" xmlns="http://www.w3.org/2000/svg">
<path d="M12.1645 31.7289C12.1645 32.7949 12.6641 33.659 13.2803 33.659C13.8966 33.659 14.3962 32.7949 14.3962 31.7289C14.3962 30.6629 13.8966 29.7988 13.2803 29.7988C12.6641 29.7988 12.1645 30.6629 12.1645 31.7289Z" fill="url(#paint0_radial_1472_4229)"/>
<path d="M12.6391 32.7051C12.6391 33.2116 12.9392 33.6222 13.3094 33.6222C13.6797 33.6222 13.9797 33.2116 13.9797 32.7051C13.9797 32.1986 13.6797 31.7881 13.3094 31.7881C12.9392 31.7881 12.6391 32.1987 12.6391 32.7051Z" fill="url(#paint1_radial_1472_4229)"/>
<path d="M4.01871 9.92204L4.55385 12.236L4.59992 12.4306L7.80966 26.3111L7.8457 26.3145H7.84908L8.96206 26.3782L9.85522 26.431L12.1936 26.5695L13.2704 26.6298H13.2814L19.0466 26.9695L19.2345 26.0453L21.8035 13.37L22.3142 10.8681L22.5725 9.57484L22.5868 9.51024L22.8065 8.42999L7.86668 5.56666H7.86331L7.5404 5.50293L4.52191 9.29135L4.23094 9.65283L4.22756 9.65618L4.01871 9.92204Z" fill="url(#paint2_radial_1472_4229)"/>
<path d="M18.0814 26.2682C18.0814 26.2682 20.5376 14.3149 20.2889 13.2796C20.0403 12.2443 13.0019 11.8143 11.8328 12.1563C10.6639 12.4984 12.2088 26.7121 12.2088 26.7121L18.0814 26.2682Z" fill="#3F3FD7"/>
<path d="M10.3929 26.4345C10.3929 26.4345 9.05892 12.8891 8.01381 12.6855C6.9687 12.4819 5.65598 14.5464 5.65598 14.5464C5.65598 14.5464 8.35769 26.4786 8.39996 26.342C9.06569 26.3036 9.73358 26.3346 10.3929 26.4345Z" fill="#3F3FD7"/>
<path d="M16.6698 0.779267L27.0001 9.78608L6.16508 8.78887L10.5112 0.550293L16.6698 0.779267Z" fill="url(#paint3_radial_1472_4229)"/>
<path d="M0.42823 11.3561L6.16503 8.78887L10.5112 0.550293L7.47919 2.60679L0.42823 11.3561Z" fill="url(#paint4_radial_1472_4229)"/>
<path d="M0.148933 10.9988L0.61282 11.1296L0.811541 11.1867L4.55386 12.2359L4.59574 12.246L8.72802 9.89339L22.2287 10.8856L22.3142 10.868L26.9984 9.78689L22.5868 9.51011L6.52059 8.51123L6.25809 8.61438L4.52192 9.29122L0.978422 10.6768L0.148933 10.9988Z" fill="url(#paint5_radial_1472_4229)"/>
<path style="mix-blend-mode:multiply" opacity="0.8" d="M0.148933 10.9989L0.613153 11.13L0.811515 11.1868L4.55355 12.2357L4.59607 12.2462L4.59968 12.4305L7.81005 26.3107L7.84553 26.3141L6.24035 26.9981L8.96168 26.3779L9.20274 26.3213H9.20632L9.73077 26.2044L10.3543 26.0625L10.8965 25.9386L10.8825 25.7013L10.234 15.8642C10.5999 15.5535 10.9884 15.2704 11.3962 15.0172C13.9624 13.3599 17.0272 12.6517 20.0603 13.0151C20.6494 13.0899 21.2322 13.2084 21.8037 13.3695L22.314 10.8677L26.9986 9.78697L22.5868 9.51047L6.52031 8.51123L6.25796 8.61405L4.52169 9.29088L0.978063 10.6764L0.148933 10.9989Z" fill="url(#paint6_linear_1472_4229)"/>
<path d="M5.8404 27.1691L11.0555 29.9511L11.7541 29.9368L15.6709 29.8504L20.194 26.6374L20.314 26.5518L20.3978 26.0914L19.2336 26.0461L18.1358 26L15.7371 25.8993L12.1072 25.75L10.8836 25.7005L10.314 25.6779L9.42669 25.6401L8.32887 26.109L7.84911 26.3128H7.84573L6.23969 26.9972H6.23713L5.8404 27.1691Z" fill="url(#paint7_radial_1472_4229)"/>
<path d="M5.83958 27.1681L11.0563 29.9501L11.7541 29.9358L9.85525 26.4309L9.82259 26.3747L9.73117 26.2045L9.42587 25.6409L8.32722 26.1089L7.8491 26.3143H7.84573L6.2405 26.9979H6.23712L5.83958 27.1681Z" fill="url(#paint8_radial_1472_4229)"/>
<path d="M15.5874 25.9076C17.1471 25.9601 18.6942 26.2053 20.1937 26.6375C20.2281 26.6519 20.2598 26.6633 20.2914 26.6777L20.3144 26.5513L20.3978 26.0915L20.4782 25.6633L15.7369 25.899L15.5874 25.9076Z" fill="url(#paint9_radial_1472_4229)"/>
<path d="M9.75182 8.67318C6.94711 7.99459 6.96975 7.33862 6.96975 7.33862L5.0472 9.08027L9.75182 8.67318Z" fill="url(#paint10_radial_1472_4229)"/>
<path d="M20.4035 4.11697C17.1755 6.70923 16.6375 8.02986 16.6375 8.02986L19.4743 3.23657L20.4035 4.11697Z" fill="url(#paint11_radial_1472_4229)"/>
<path d="M9.70427 27.3496C12.3822 27.5697 13.4093 28.34 13.4093 28.34L9.70427 27.6064V27.3496Z" fill="url(#paint12_radial_1472_4229)"/>
<defs>
<radialGradient id="paint0_radial_1472_4229" cx="0" cy="0" r="1" gradientUnits="userSpaceOnUse" gradientTransform="translate(13.4915 36.3732) rotate(180) scale(7.42549 7.42543)">
<stop stop-color="#7E7EB4"/>
<stop offset="1" stop-color="#604E6D"/>
</radialGradient>
<radialGradient id="paint1_radial_1472_4229" cx="0" cy="0" r="1" gradientUnits="userSpaceOnUse" gradientTransform="translate(21.8829 33.6222) rotate(180) scale(7.07167 7.07159)">
<stop stop-color="#E3E8E0"/>
<stop offset="1" stop-color="#97A09B"/>
</radialGradient>
<radialGradient id="paint2_radial_1472_4229" cx="0" cy="0" r="1" gradientUnits="userSpaceOnUse" gradientTransform="translate(13.4125 16.2365) rotate(180) scale(10.086 10.086)">
<stop stop-color="#E3E8E0"/>
<stop offset="1" stop-color="#97A09B"/>
</radialGradient>
<radialGradient id="paint3_radial_1472_4229" cx="0" cy="0" r="1" gradientUnits="userSpaceOnUse" gradientTransform="translate(18.6929 -1.91288) rotate(180) scale(17.8232 17.8232)">
<stop stop-color="#E3E8E0"/>
<stop offset="1" stop-color="#97A09B"/>
</radialGradient>
<radialGradient id="paint4_radial_1472_4229" cx="0" cy="0" r="1" gradientUnits="userSpaceOnUse" gradientTransform="translate(11.1926 -19.814) rotate(178.762) scale(32.46 32.4597)">
<stop stop-color="#7E7EB4"/>
<stop offset="1" stop-color="#604E6D"/>
</radialGradient>
<radialGradient id="paint5_radial_1472_4229" cx="0" cy="0" r="1" gradientUnits="userSpaceOnUse" gradientTransform="translate(29.9172 1.33312) rotate(180) scale(31.2085 31.2084)">
<stop stop-color="#7E7EB4"/>
<stop offset="1" stop-color="#604E6D"/>
</radialGradient>
<linearGradient id="paint6_linear_1472_4229" x1="4.14072" y1="5.4487" x2="30.3761" y2="32.6618" gradientUnits="userSpaceOnUse">
<stop stop-color="#4F4A8C"/>
<stop offset="1" stop-color="white"/>
</linearGradient>
<radialGradient id="paint7_radial_1472_4229" cx="0" cy="0" r="1" gradientUnits="userSpaceOnUse" gradientTransform="translate(13.1191 27.7956) rotate(180) scale(5.36766 5.36766)">
<stop stop-color="#E3E8E0"/>
<stop offset="1" stop-color="#97A09B"/>
</radialGradient>
<radialGradient id="paint8_radial_1472_4229" cx="0" cy="0" r="1" gradientUnits="userSpaceOnUse" gradientTransform="translate(-2.26358 33.6542) rotate(180) scale(12.096)">
<stop stop-color="#7E7EB4"/>
<stop offset="1" stop-color="#604E6D"/>
</radialGradient>
<radialGradient id="paint9_radial_1472_4229" cx="0" cy="0" r="1" gradientUnits="userSpaceOnUse" gradientTransform="translate(21.6975 25.8057) rotate(180) scale(9.17469 9.17448)">
<stop stop-color="#E3E8E0"/>
<stop offset="1" stop-color="#97A09B"/>
</radialGradient>
<radialGradient id="paint10_radial_1472_4229" cx="0" cy="0" r="1" gradientUnits="userSpaceOnUse" gradientTransform="translate(10.9248 7.58306) rotate(180) scale(9.01605 9.01604)">
<stop stop-color="#E3E8E0"/>
<stop offset="1" stop-color="#97A09B"/>
</radialGradient>
<radialGradient id="paint11_radial_1472_4229" cx="0" cy="0" r="1" gradientUnits="userSpaceOnUse" gradientTransform="translate(18.7328 3.96648) rotate(180) scale(3.43849 3.43851)">
<stop stop-color="#7E7EB4"/>
<stop offset="1" stop-color="#604E6D"/>
</radialGradient>
<radialGradient id="paint12_radial_1472_4229" cx="0" cy="0" r="1" gradientUnits="userSpaceOnUse" gradientTransform="translate(11.7656 27.5004) rotate(180) scale(1.67404 1.67397)">
<stop stop-color="#7E7EB4"/>
<stop offset="1" stop-color="#604E6D"/>
</radialGradient>
</defs>
</svg>
