<svg width="162" height="61" viewBox="0 0 162 61" fill="none" xmlns="http://www.w3.org/2000/svg">
<g filter="url(#filter0_d_891_7927)">
<path fill-rule="evenodd" clip-rule="evenodd" d="M11.3246 6H150.675C152.087 6.00292 153.439 6.6087 154.437 7.68471C155.435 8.76072 155.997 10.2193 156 11.741V49.2589C155.997 50.7806 155.435 52.2392 154.437 53.3152C153.439 54.3912 152.087 54.9971 150.675 55H11.3246C9.91326 54.997 8.5605 54.3912 7.56253 53.3152C6.56456 52.2392 6.00271 50.7806 6 49.2589V11.741C6.0027 10.2193 6.56456 8.76073 7.56253 7.68471C8.56051 6.6087 9.91327 6.00291 11.3246 6Z" fill="url(#paint0_linear_891_7927)"/>
<path fill-rule="evenodd" clip-rule="evenodd" d="M11.3246 9.70392C10.8243 9.7065 10.3451 9.92195 9.9913 10.3034C9.6375 10.6849 9.43769 11.2015 9.4353 11.741V49.2589C9.43764 49.7984 9.63743 50.315 9.99124 50.6965C10.345 51.078 10.8242 51.2935 11.3246 51.2961H150.675C151.176 51.2935 151.655 51.078 152.009 50.6965C152.362 50.315 152.562 49.7984 152.565 49.2589V11.741C152.562 11.2015 152.362 10.6848 152.009 10.3034C151.655 9.92189 151.176 9.70645 150.675 9.70392H11.3246Z" fill="url(#paint1_linear_891_7927)"/>
<path style="mix-blend-mode:screen" fill-rule="evenodd" clip-rule="evenodd" d="M11.3246 9.70393H150.675C150.923 9.70433 151.169 9.7575 151.397 9.86037C151.626 9.96325 151.834 10.1138 152.009 10.3034L154.437 7.68471C153.944 7.15061 153.358 6.72684 152.712 6.43773C152.067 6.14861 151.374 5.99986 150.675 6H11.3246C10.6255 5.99987 9.93331 6.14863 9.2877 6.43775C8.64209 6.72686 8.05582 7.15062 7.56253 7.68471L9.9913 10.3034C10.166 10.1138 10.3737 9.96325 10.6025 9.86037C10.8313 9.7575 11.0767 9.70433 11.3246 9.70393Z" fill="url(#paint2_radial_891_7927)"/>
<path style="mix-blend-mode:multiply" fill-rule="evenodd" clip-rule="evenodd" d="M150.675 51.2961H11.3246C11.0767 51.2957 10.8313 51.2425 10.6025 51.1396C10.3737 51.0368 10.166 50.8862 9.9913 50.6966L7.56253 53.3153C8.05584 53.8494 8.64212 54.2731 9.28772 54.5622C9.93333 54.8513 10.6255 55.0001 11.3246 55H150.675C151.374 55.0001 152.067 54.8513 152.712 54.5622C153.358 54.2731 153.944 53.8494 154.437 53.3153L152.009 50.6966C151.834 50.8862 151.626 51.0368 151.397 51.1396C151.169 51.2425 150.923 51.2957 150.675 51.2961Z" fill="url(#paint3_radial_891_7927)"/>
<path style="mix-blend-mode:screen" fill-rule="evenodd" clip-rule="evenodd" d="M9.43531 49.2588V11.741C9.43567 11.4737 9.48497 11.2091 9.58039 10.9624C9.6758 10.7157 9.81544 10.4918 9.9913 10.3034L7.56253 7.68469C7.06721 8.21658 6.67419 8.84872 6.40605 9.54481C6.13791 10.2409 5.99991 10.9872 6 11.741V49.2588C5.9999 50.0126 6.13789 50.759 6.40603 51.4551C6.67417 52.1512 7.06719 52.7834 7.56253 53.3153L9.9913 50.6966C9.81543 50.5082 9.6758 50.2842 9.58039 50.0375C9.48497 49.7907 9.43567 49.5261 9.43531 49.2588Z" fill="url(#paint4_radial_891_7927)"/>
<path style="mix-blend-mode:multiply" fill-rule="evenodd" clip-rule="evenodd" d="M152.565 11.741V49.2588C152.564 49.5261 152.515 49.7907 152.42 50.0374C152.324 50.2841 152.184 50.5081 152.009 50.6966L154.437 53.3153C154.933 52.7834 155.326 52.1512 155.594 51.4551C155.862 50.759 156 50.0126 156 49.2588V11.741C156 10.9872 155.862 10.2409 155.594 9.54476C155.326 8.84867 154.933 8.21654 154.437 7.68469L152.009 10.3034C152.184 10.4918 152.324 10.7158 152.42 10.9625C152.515 11.2091 152.564 11.4737 152.565 11.741Z" fill="url(#paint5_linear_891_7927)"/>
<path style="mix-blend-mode:screen" fill-rule="evenodd" clip-rule="evenodd" d="M9.43531 35.6173V11.741C9.43567 11.4737 9.48497 11.2091 9.58039 10.9624C9.6758 10.7157 9.81544 10.4918 9.9913 10.3034L7.56253 7.68469C7.06721 8.21658 6.67419 8.84872 6.40605 9.54481C6.13791 10.2409 5.99991 10.9872 6 11.741V37.1745C7.01398 36.3683 8.19166 35.8345 9.43531 35.6173Z" fill="url(#paint6_linear_891_7927)"/>
<path style="mix-blend-mode:screen" fill-rule="evenodd" clip-rule="evenodd" d="M150.675 6.55554H11.3246C10.0499 6.55845 8.82823 7.10571 7.9269 8.07755C7.02557 9.04939 6.51804 10.3666 6.51538 11.741V35.7137C6.51987 36.0543 6.64849 36.3793 6.87348 36.6185C7.09846 36.8577 7.40172 36.9917 7.71766 36.9917C8.0336 36.9917 8.33684 36.8577 8.56182 36.6185C8.78681 36.3793 8.91546 36.0543 8.91994 35.7137V11.741C8.92234 11.0542 9.17646 10.3962 9.62691 9.91052C10.0774 9.42485 10.6876 9.15086 11.3246 9.14828H150.675C151.312 9.15089 151.923 9.4249 152.373 9.91056C152.823 10.3962 153.078 11.0542 153.08 11.741V17.3454C153.084 17.6861 153.213 18.0111 153.438 18.2503C153.663 18.4895 153.966 18.6235 154.282 18.6235C154.598 18.6235 154.902 18.4895 155.126 18.2503C155.352 18.0111 155.48 17.6861 155.485 17.3454V11.741C155.482 10.3666 154.974 9.04936 154.073 8.07753C153.172 7.10569 151.95 6.55844 150.675 6.55554Z" fill="url(#paint7_radial_891_7927)"/>
<g style="mix-blend-mode:screen">
<path fill-rule="evenodd" clip-rule="evenodd" d="M59.0114 8.63818C33.1093 8.63818 12.1113 8.9769 12.1113 9.14829C12.1113 9.31967 50.7844 9.30284 59.0114 9.30284C67.2384 9.30284 105.912 9.31967 105.912 9.14829C105.912 8.9769 84.9138 8.63818 59.0114 8.63818Z" fill="#EEFFC5"/>
</g>
<g style="mix-blend-mode:multiply">
<path fill-rule="evenodd" clip-rule="evenodd" d="M8.36339 52.8854C8.71957 52.3166 9.1611 51.8156 9.6699 51.4032C9.93498 51.2234 10.2402 51.1243 10.5533 51.1164C10.2906 50.9879 10.0584 50.797 9.87394 50.558C9.68951 50.3189 9.55769 50.038 9.48835 49.7361C9.54976 50.1758 9.478 50.6251 9.28375 51.0173C8.92751 51.5861 8.48593 52.0871 7.9771 52.4995C7.70832 52.6889 7.3826 52.7604 7.06656 52.6994C7.39558 53.171 7.78935 53.5858 8.23431 53.9296C8.14842 53.5767 8.19479 53.2017 8.36339 52.8854Z" fill="#8FE561"/>
</g>
<g style="mix-blend-mode:multiply">
<path fill-rule="evenodd" clip-rule="evenodd" d="M153.637 52.8854C153.28 52.3166 152.839 51.8156 152.33 51.4032C152.065 51.2234 151.76 51.1243 151.447 51.1164C151.709 50.9879 151.942 50.797 152.126 50.558C152.311 50.3189 152.442 50.038 152.512 49.7361C152.45 50.1758 152.522 50.6251 152.716 51.0173C153.072 51.5862 153.514 52.0871 154.023 52.4995C154.292 52.6889 154.617 52.7604 154.933 52.6994C154.604 53.171 154.211 53.5858 153.766 53.9296C153.852 53.5767 153.805 53.2017 153.637 52.8854Z" fill="#8FE561"/>
</g>
<g style="mix-blend-mode:screen">
<path fill-rule="evenodd" clip-rule="evenodd" d="M8.36339 8.11444C8.71953 8.68333 9.16107 9.18428 9.6699 9.5967C9.93495 9.7765 10.2402 9.87559 10.5533 9.88346C10.2907 10.0119 10.0584 10.2029 9.87399 10.4419C9.68956 10.6809 9.55772 10.9619 9.48835 11.2637C9.54976 10.8241 9.478 10.3748 9.28375 9.98258C8.92751 9.41373 8.48593 8.91279 7.9771 8.50031C7.70831 8.31099 7.38259 8.23956 7.06656 8.30063C7.39555 7.82894 7.78932 7.41411 8.23431 7.07043C8.14843 7.4232 8.1948 7.79824 8.36339 8.11444Z" fill="#8FE561"/>
</g>
<g style="mix-blend-mode:screen">
<path fill-rule="evenodd" clip-rule="evenodd" d="M153.637 8.11444C153.281 8.68333 152.839 9.18428 152.33 9.5967C152.065 9.77649 151.76 9.87557 151.447 9.88346C151.709 10.0119 151.942 10.2029 152.126 10.4419C152.31 10.6809 152.442 10.9619 152.512 11.2637C152.45 10.8241 152.522 10.3747 152.716 9.98258C153.072 9.41366 153.514 8.91271 154.023 8.50031C154.292 8.31099 154.617 8.23956 154.933 8.30063C154.605 7.82894 154.211 7.41411 153.766 7.07043C153.852 7.4232 153.805 7.79825 153.637 8.11444Z" fill="#8FE561"/>
</g>
</g>
<path style="mix-blend-mode:screen" opacity="0.3" fill-rule="evenodd" clip-rule="evenodd" d="M81.0736 53.15C42.4753 53.15 11.1857 52.4354 11.1857 52.0737C11.1857 51.7121 68.8143 51.7477 81.0736 51.7477C93.3333 51.7477 150.962 51.7121 150.962 52.0737C150.962 52.4354 119.672 53.15 81.0736 53.15Z" fill="url(#paint8_radial_891_7927)"/>
<g style="mix-blend-mode:screen">
<path fill-rule="evenodd" clip-rule="evenodd" d="M142.419 50.7855C139.563 50.6831 136.704 50.8539 133.876 51.2959C136.717 51.5635 139.569 51.6586 142.419 51.5806C145.269 51.6586 148.121 51.5635 150.962 51.2959C148.134 50.8539 145.275 50.6831 142.419 50.7855Z" fill="#D2FF83"/>
</g>
<g style="mix-blend-mode:screen">
<path fill-rule="evenodd" clip-rule="evenodd" d="M127.903 50.9023C126.092 50.8237 124.279 50.9557 122.494 51.2961C126.095 51.5889 129.712 51.5889 133.313 51.2961C131.528 50.9557 129.715 50.8237 127.903 50.9023Z" fill="#D2FF83"/>
</g>
<path style="mix-blend-mode:screen" opacity="0.5" fill-rule="evenodd" clip-rule="evenodd" d="M9.43515 35.6173C28.7274 32.8059 132.927 21.0872 152.712 18.132V11.741C152.71 11.2015 152.51 10.6848 152.156 10.3034C151.802 9.92189 151.323 9.70645 150.823 9.70392H11.3247C10.8243 9.70636 10.3451 9.92176 9.99119 10.3032C9.63732 10.6847 9.43749 11.2014 9.43515 11.741V35.6173Z" fill="url(#paint9_linear_891_7927)"/>
<defs>
<filter id="filter0_d_891_7927" x="0" y="0" width="162" height="61" filterUnits="userSpaceOnUse" color-interpolation-filters="sRGB">
<feFlood flood-opacity="0" result="BackgroundImageFix"/>
<feColorMatrix in="SourceAlpha" type="matrix" values="0 0 0 0 0 0 0 0 0 0 0 0 0 0 0 0 0 0 127 0" result="hardAlpha"/>
<feOffset/>
<feGaussianBlur stdDeviation="3"/>
<feComposite in2="hardAlpha" operator="out"/>
<feColorMatrix type="matrix" values="0 0 0 0 0 0 0 0 0 0 0 0 0 0 0 0 0 0 0.7 0"/>
<feBlend mode="normal" in2="BackgroundImageFix" result="effect1_dropShadow_891_7927"/>
<feBlend mode="normal" in="SourceGraphic" in2="effect1_dropShadow_891_7927" result="shape"/>
</filter>
<linearGradient id="paint0_linear_891_7927" x1="128.299" y1="81.4976" x2="26.5921" y2="-12.8329" gradientUnits="userSpaceOnUse">
<stop stop-color="#438A00"/>
<stop offset="1" stop-color="#7CD400"/>
</linearGradient>
<linearGradient id="paint1_linear_891_7927" x1="125.87" y1="78.8789" x2="29.3859" y2="-10.6078" gradientUnits="userSpaceOnUse">
<stop stop-color="#65BA09"/>
<stop offset="1" stop-color="#8CE30B"/>
</linearGradient>
<radialGradient id="paint2_radial_891_7927" cx="0" cy="0" r="1" gradientUnits="userSpaceOnUse" gradientTransform="translate(16.7587 3.99374) scale(138.248 149.058)">
<stop stop-color="#47B009"/>
<stop offset="1" stop-color="#010D01"/>
</radialGradient>
<radialGradient id="paint3_radial_891_7927" cx="0" cy="0" r="1" gradientUnits="userSpaceOnUse" gradientTransform="translate(17.1255 49.3815) scale(142.418 153.555)">
<stop stop-color="white"/>
<stop offset="1" stop-color="#91D600"/>
</radialGradient>
<radialGradient id="paint4_radial_891_7927" cx="0" cy="0" r="1" gradientUnits="userSpaceOnUse" gradientTransform="translate(0.74569 8.87857) scale(52.4101 56.5085)">
<stop stop-color="#47B009"/>
<stop offset="1" stop-color="#010D01"/>
</radialGradient>
<linearGradient id="paint5_linear_891_7927" x1="152.009" y1="30.5" x2="156" y2="30.5" gradientUnits="userSpaceOnUse">
<stop stop-color="white"/>
<stop offset="1" stop-color="#91D600"/>
</linearGradient>
<linearGradient id="paint6_linear_891_7927" x1="7.99565" y1="37.1745" x2="7.99565" y2="7.68469" gradientUnits="userSpaceOnUse">
<stop stop-color="#010D01"/>
<stop offset="1" stop-color="#47B009"/>
</linearGradient>
<radialGradient id="paint7_radial_891_7927" cx="0" cy="0" r="1" gradientUnits="userSpaceOnUse" gradientTransform="translate(19.6052 4.8092) scale(116.56 125.675)">
<stop stop-color="#47B009"/>
<stop offset="1" stop-color="#010D01"/>
</radialGradient>
<radialGradient id="paint8_radial_891_7927" cx="0" cy="0" r="1" gradientUnits="userSpaceOnUse" gradientTransform="translate(81.3767 46.2348) scale(89.0657 22.8257)">
<stop stop-color="#47B009"/>
<stop offset="1" stop-color="#010D01"/>
</radialGradient>
<linearGradient id="paint9_linear_891_7927" x1="9.43515" y1="22.6606" x2="152.712" y2="22.6606" gradientUnits="userSpaceOnUse">
<stop stop-color="#47B009"/>
<stop offset="1" stop-color="#010D01"/>
</linearGradient>
</defs>
</svg>
