<svg width="44" height="44" viewBox="0 0 44 44" fill="none" xmlns="http://www.w3.org/2000/svg">
<path fill-rule="evenodd" clip-rule="evenodd" d="M21.9999 0C26.3511 0 30.6046 1.29027 34.2225 3.70766C37.8403 6.12504 40.6601 9.56097 42.3252 13.5809C43.9903 17.6009 44.426 22.0244 43.5772 26.2919C42.7283 30.5595 40.633 34.4795 37.5563 37.5563C34.4796 40.6331 30.5595 42.7284 26.292 43.5773C22.0244 44.4262 17.601 43.9905 13.581 42.3254C9.56105 40.6603 6.12512 37.8405 3.70772 34.2227C1.29032 30.6048 2.73882e-05 26.3513 0 22.0001C-1.15633e-10 16.1654 2.31785 10.5696 6.44364 6.44374C10.5694 2.31792 16.1652 3.67265e-05 21.9999 0Z" fill="url(#paint0_linear_1524_14690)"/>
<path fill-rule="evenodd" clip-rule="evenodd" d="M5.72534 22.0001C5.72534 17.6838 7.43999 13.5443 10.4921 10.4922C13.5441 7.44009 17.6836 5.72544 21.9999 5.72544C26.3162 5.72544 30.4557 7.44009 33.5078 10.4922C36.5599 13.5443 38.2745 17.6838 38.2745 22.0001C38.4888 21.413 38.8783 20.906 39.3904 20.5478C39.9025 20.1896 40.5124 19.9975 41.1373 19.9975C41.7622 19.9975 42.372 20.1896 42.8841 20.5478C43.3962 20.906 43.7857 21.413 44 22.0001C44 19.111 43.431 16.2502 42.3254 13.581C41.2198 10.9118 39.5992 8.48657 37.5563 6.44367C35.5135 4.40078 33.0882 2.78026 30.419 1.67466C27.7499 0.569049 24.8891 0 22 0C19.1109 0 16.2501 0.569049 13.581 1.67466C10.9118 2.78026 8.48653 4.40078 6.44364 6.44367C4.40075 8.48657 2.78024 10.9118 1.67464 13.581C0.569034 16.2502 -1.72203e-07 19.111 0 22.0001C0.214261 21.413 0.603811 20.9061 1.11588 20.5478C1.62794 20.1896 2.23777 19.9975 2.86269 19.9975C3.48761 19.9975 4.0974 20.1896 4.60947 20.5478C5.12153 20.9061 5.51108 21.413 5.72534 22.0001Z" fill="url(#paint1_linear_1524_14690)"/>
<g style="mix-blend-mode:screen">
<path fill-rule="evenodd" clip-rule="evenodd" d="M21.5831 5.29834C24.8039 5.29835 27.9523 6.25344 30.6303 8.04282C33.3082 9.83219 35.3955 12.3755 36.628 15.3511C37.8605 18.3267 38.183 21.601 37.5546 24.7599C36.9263 27.9188 35.3753 30.8204 33.0979 33.0978C30.8205 35.3752 27.9188 36.9262 24.76 37.5545C21.6011 38.1828 18.3268 37.8603 15.3512 36.6278C12.3756 35.3952 9.83234 33.308 8.04299 30.63C6.25364 27.952 5.29857 24.8036 5.29858 21.5828C5.29861 17.2639 7.01432 13.1219 10.0683 10.0679C13.1222 7.014 17.2642 5.29833 21.5831 5.29834Z" fill="#F7E984"/>
</g>
<path fill-rule="evenodd" clip-rule="evenodd" d="M21.9998 5.72559C25.2186 5.72559 28.3651 6.68007 31.0415 8.46835C33.7178 10.2566 35.8038 12.7984 37.0356 15.7722C38.2674 18.7459 38.5897 22.0182 37.9617 25.1752C37.3338 28.3322 35.7838 31.232 33.5078 33.5081C31.2317 35.7841 28.3319 37.3341 25.1749 37.9621C22.018 38.5901 18.7457 38.2678 15.7719 37.036C12.7981 35.8043 10.2564 33.7183 8.46806 31.042C6.67977 28.3657 5.72525 25.2192 5.72522 22.0004C5.72521 17.684 7.43986 13.5445 10.4919 10.4924C13.544 7.44028 17.6835 5.72561 21.9998 5.72559Z" fill="url(#paint2_radial_1524_14690)"/>
<path style="mix-blend-mode:screen" fill-rule="evenodd" clip-rule="evenodd" d="M8.61401 31.2591L31.2589 8.61424C29.3293 7.28223 27.1353 6.38174 24.8263 5.97409C22.5173 5.56644 20.1475 5.66121 17.8785 6.25194L6.25159 17.8788C5.66084 20.1479 5.56606 22.5176 5.97373 24.8266C6.38141 27.1356 7.28195 29.3296 8.61401 31.2591Z" fill="url(#paint3_radial_1524_14690)"/>
<path style="mix-blend-mode:screen" fill-rule="evenodd" clip-rule="evenodd" d="M36.9208 16.099L16.0988 36.9212L15.9193 37.1005C17.6562 37.8002 19.5013 38.1934 21.3726 38.2626L21.7688 37.8665L37.8662 21.769L38.2626 21.3727C38.1932 19.5014 37.8 17.6564 37.1004 15.9194L36.9208 16.099Z" fill="url(#paint4_radial_1524_14690)"/>
<path fill-rule="evenodd" clip-rule="evenodd" d="M21.9999 0.572606C26.2379 0.57262 30.3807 1.82933 33.9044 4.18381C37.4281 6.5383 40.1744 9.88481 41.7962 13.8002C43.418 17.7155 43.8423 22.0239 43.0155 26.1804C42.1888 30.3369 40.148 34.1549 37.1513 37.1516C34.1547 40.1483 30.3367 42.189 26.1802 43.0158C22.0237 43.8426 17.7153 43.4183 13.8 41.7965C9.88466 40.1747 6.53813 37.4283 4.18366 33.9046C1.82918 30.3809 0.572468 26.2381 0.572454 22.0001C0.572449 19.1862 1.12669 16.3999 2.20352 13.8002C3.28035 11.2005 4.85868 8.83831 6.8484 6.84857C8.83813 4.85884 11.2003 3.2805 13.8 2.20367C16.3997 1.12684 19.186 0.572601 21.9999 0.572606ZM21.9999 0C26.3511 0 30.6046 1.29027 34.2225 3.70766C37.8403 6.12504 40.6601 9.56097 42.3252 13.5809C43.9903 17.6009 44.426 22.0244 43.5772 26.2919C42.7283 30.5595 40.633 34.4795 37.5563 37.5563C34.4796 40.6331 30.5595 42.7284 26.292 43.5773C22.0244 44.4262 17.601 43.9905 13.581 42.3254C9.56105 40.6603 6.12512 37.8405 3.70772 34.2227C1.29032 30.6048 2.73882e-05 26.3513 0 22.0001C-1.15633e-10 16.1654 2.31785 10.5696 6.44364 6.44374C10.5694 2.31792 16.1652 3.67265e-05 21.9999 0Z" fill="url(#paint5_linear_1524_14690)"/>
<g style="mix-blend-mode:screen">
<path fill-rule="evenodd" clip-rule="evenodd" d="M1.09351 17.2828C2.36829 12.7182 5.10187 8.69634 8.87687 5.83116C12.6519 2.96598 17.2608 1.41498 22 1.41498C26.7392 1.41498 31.3482 2.96598 35.1232 5.83116C38.8982 8.69634 41.6317 12.7182 42.9065 17.2828C41.8347 12.5387 39.1812 8.30018 35.382 5.26356C31.5827 2.22693 26.8637 0.572754 22 0.572754C17.1363 0.572754 12.4173 2.22693 8.61807 5.26356C4.81884 8.30018 2.16536 12.5387 1.09351 17.2828Z" fill="#F7E984"/>
</g>
<path fill-rule="evenodd" clip-rule="evenodd" d="M20.3336 14.1484H28.8924C29.354 14.1498 29.7964 14.3338 30.1228 14.6602C30.4492 14.9866 30.6331 15.4289 30.6345 15.8905C30.6331 16.3521 30.4491 16.7945 30.1227 17.1209C29.7963 17.4473 29.354 17.6313 28.8924 17.6327H20.3336C19.872 17.6313 19.4297 17.4473 19.1033 17.1209C18.7769 16.7945 18.5929 16.3522 18.5915 15.8906C18.5928 15.429 18.7768 14.9866 19.1032 14.6602C19.4296 14.3338 19.872 14.1498 20.3336 14.1484ZM20.3336 20.2581H28.8924C29.3541 20.2594 29.7964 20.4434 30.1228 20.7698C30.4492 21.0962 30.6332 21.5385 30.6345 22.0001C30.6331 22.4617 30.4491 22.904 30.1227 23.2304C29.7963 23.5568 29.354 23.7408 28.8924 23.7422H20.3336C19.872 23.7408 19.4297 23.5568 19.1033 23.2304C18.7769 22.904 18.5929 22.4617 18.5915 22.0001C18.5928 21.5385 18.7768 21.0962 19.1032 20.7698C19.4296 20.4434 19.872 20.2594 20.3336 20.2581ZM20.3336 26.3675H28.8924C29.354 26.3688 29.7964 26.5528 30.1228 26.8792C30.4492 27.2056 30.6331 27.6479 30.6345 28.1095C30.6332 28.5711 30.4492 29.0135 30.1228 29.3399C29.7964 29.6663 29.3541 29.8502 28.8924 29.8516H20.3336C19.872 29.8502 19.4296 29.6663 19.1032 29.3399C18.7768 29.0135 18.5928 28.5711 18.5915 28.1095C18.5928 27.6479 18.7768 27.2056 19.1032 26.8792C19.4296 26.5528 19.872 26.3688 20.3336 26.3675ZM15.1074 14.1484C15.4519 14.1484 15.7888 14.2506 16.0752 14.442C16.3617 14.6334 16.585 14.9055 16.7168 15.2238C16.8487 15.5422 16.8832 15.8924 16.816 16.2303C16.7488 16.5683 16.5829 16.8787 16.3392 17.1223C16.0956 17.3659 15.7852 17.5319 15.4473 17.5991C15.1093 17.6663 14.7591 17.6318 14.4407 17.4999C14.1224 17.3681 13.8504 17.1448 13.6589 16.8583C13.4675 16.5718 13.3654 16.235 13.3654 15.8905C13.3654 15.4285 13.5489 14.9854 13.8756 14.6587C14.2023 14.332 14.6454 14.1484 15.1074 14.1484ZM15.1074 20.2581C15.4519 20.2581 15.7888 20.3603 16.0752 20.5517C16.3617 20.7431 16.585 21.0152 16.7168 21.3335C16.8487 21.6518 16.8832 22.0021 16.816 22.34C16.7488 22.6779 16.5829 22.9883 16.3392 23.232C16.0956 23.4756 15.7852 23.6415 15.4473 23.7087C15.1093 23.7759 14.7591 23.7414 14.4407 23.6096C14.1224 23.4777 13.8504 23.2545 13.6589 22.968C13.4675 22.6815 13.3654 22.3447 13.3654 22.0001C13.3654 21.5381 13.5489 21.095 13.8756 20.7683C14.2023 20.4416 14.6454 20.2581 15.1074 20.2581ZM15.1074 26.3675C15.4519 26.3675 15.7888 26.4696 16.0752 26.6611C16.3617 26.8525 16.585 27.1245 16.7168 27.4429C16.8487 27.7612 16.8832 28.1114 16.816 28.4494C16.7488 28.7873 16.5829 29.0977 16.3392 29.3413C16.0956 29.585 15.7852 29.7509 15.4473 29.8181C15.1093 29.8853 14.7591 29.8508 14.4407 29.719C14.1224 29.5871 13.8504 29.3638 13.6589 29.0773C13.4675 28.7909 13.3654 28.4541 13.3654 28.1095C13.3654 27.6475 13.5489 27.2044 13.8756 26.8777C14.2023 26.551 14.6454 26.3675 15.1074 26.3675Z" fill="url(#paint6_linear_1524_14690)"/>
<g style="mix-blend-mode:screen">
<path fill-rule="evenodd" clip-rule="evenodd" d="M13.3654 17.0267C13.3656 17.2797 13.4209 17.5296 13.5275 17.7591C13.6341 17.9885 13.7894 18.192 13.9826 18.3554C14.1758 18.5187 14.4023 18.638 14.6463 18.705C14.8902 18.772 15.1459 18.785 15.3954 18.7432C15.6449 18.7014 15.8824 18.6057 16.0912 18.4628C16.3 18.3199 16.4751 18.1333 16.6045 17.9158C16.7339 17.6984 16.8143 17.4554 16.8403 17.2037C16.8662 16.9521 16.837 16.6977 16.7547 16.4585C16.6364 16.8012 16.4141 17.0985 16.1189 17.309C15.8236 17.5194 15.47 17.6325 15.1074 17.6325C14.7448 17.6325 14.3913 17.5194 14.096 17.309C13.8007 17.0985 13.5784 16.8012 13.4601 16.4585C13.3971 16.6413 13.3651 16.8333 13.3654 17.0267ZM16.7547 22.5681C16.6364 22.9109 16.4141 23.2082 16.1189 23.4186C15.8236 23.6291 15.47 23.7422 15.1074 23.7422C14.7448 23.7422 14.3913 23.6291 14.096 23.4186C13.8007 23.2082 13.5784 22.9109 13.4601 22.5681C13.3698 22.8305 13.3436 23.1106 13.3834 23.3852C13.4233 23.6597 13.5282 23.9208 13.6894 24.1466C13.8505 24.3724 14.0633 24.5565 14.3099 24.6835C14.5566 24.8105 14.83 24.8768 15.1074 24.8768C15.3848 24.8768 15.6583 24.8105 15.9049 24.6835C16.1516 24.5565 16.3643 24.3724 16.5255 24.1466C16.6866 23.9208 16.7915 23.6597 16.8314 23.3852C16.8712 23.1106 16.845 22.8305 16.7547 22.5681ZM15.1074 29.8515C14.7448 29.8515 14.3913 29.7384 14.096 29.528C13.8008 29.3176 13.5784 29.0204 13.4601 28.6777C13.3698 28.94 13.3436 29.2201 13.3834 29.4947C13.4233 29.7692 13.5282 30.0303 13.6894 30.2561C13.8505 30.482 14.0633 30.666 14.3099 30.793C14.5566 30.9201 14.83 30.9863 15.1074 30.9863C15.3848 30.9863 15.6583 30.9201 15.9049 30.793C16.1516 30.666 16.3643 30.482 16.5255 30.2561C16.6866 30.0303 16.7915 29.7692 16.8314 29.4947C16.8712 29.2201 16.845 28.94 16.7547 28.6777C16.6364 29.0204 16.4141 29.3176 16.1188 29.528C15.8235 29.7384 15.47 29.8515 15.1074 29.8515ZM20.3336 24.8782H28.8925C29.354 24.8769 29.7963 24.6929 30.1227 24.3665C30.4491 24.0401 30.6331 23.5978 30.6345 23.1362C30.6346 22.9428 30.6023 22.7508 30.5388 22.5681C30.4197 22.9102 30.1974 23.2069 29.9025 23.4172C29.6076 23.6275 29.2547 23.741 28.8925 23.7422H20.3336C19.9714 23.7411 19.6184 23.6275 19.3235 23.4172C19.0286 23.2069 18.8063 22.9102 18.6872 22.5681C18.6237 22.7508 18.5913 22.9428 18.5915 23.1362C18.5929 23.5978 18.7769 24.0401 19.1033 24.3665C19.4297 24.6929 19.872 24.8769 20.3336 24.8782ZM20.3336 18.7689H28.8925C29.3541 18.7674 29.7963 18.5834 30.1227 18.257C30.4491 17.9306 30.6331 17.4883 30.6345 17.0267C30.6346 16.8333 30.6023 16.6413 30.5388 16.4586C30.4197 16.8007 30.1974 17.0974 29.9025 17.3077C29.6076 17.518 29.2547 17.6315 28.8925 17.6327H20.3336C19.9714 17.6315 19.6184 17.518 19.3235 17.3077C19.0286 17.0974 18.8063 16.8007 18.6872 16.4586C18.6237 16.6413 18.5913 16.8333 18.5915 17.0267C18.5929 17.4883 18.7769 17.9306 19.1033 18.257C19.4296 18.5834 19.872 18.7674 20.3336 18.7689ZM28.8925 29.8515H20.3336C19.9714 29.8505 19.6184 29.737 19.3235 29.5267C19.0286 29.3164 18.8063 29.0197 18.6872 28.6777C18.6237 28.8603 18.5913 29.0523 18.5915 29.2457C18.5928 29.7073 18.7768 30.1496 19.1032 30.476C19.4296 30.8024 19.872 30.9864 20.3336 30.9877H28.8925C29.3541 30.9864 29.7964 30.8024 30.1228 30.476C30.4492 30.1496 30.6331 29.7073 30.6345 29.2457C30.6346 29.0523 30.6023 28.8603 30.5388 28.6777C30.4197 29.0197 30.1974 29.3164 29.9025 29.5267C29.6076 29.7369 29.2546 29.8505 28.8925 29.8515Z" fill="#F7E984"/>
</g>
<path fill-rule="evenodd" clip-rule="evenodd" d="M13.3654 15.8905C13.3649 16.1671 13.4306 16.4398 13.557 16.6858C13.7034 16.4007 13.9256 16.1614 14.1991 15.9944C14.4726 15.8274 14.7869 15.739 15.1074 15.739C15.4279 15.739 15.7422 15.8274 16.0157 15.9944C16.2892 16.1614 16.5114 16.4007 16.6578 16.6858C16.7781 16.4513 16.8436 16.1925 16.8494 15.929C16.8552 15.6655 16.8011 15.4041 16.6913 15.1645C16.5814 14.9249 16.4186 14.7134 16.2152 14.5458C16.0117 14.3782 15.7729 14.259 15.5166 14.1971C15.2604 14.1353 14.9935 14.1323 14.736 14.1885C14.4785 14.2447 14.2371 14.3586 14.03 14.5217C13.8229 14.6847 13.6555 14.8926 13.5404 15.1297C13.4252 15.3668 13.3654 15.6269 13.3654 15.8905ZM20.3336 14.1484C19.8719 14.1498 19.4296 14.3338 19.1032 14.6602C18.7768 14.9867 18.5928 15.429 18.5915 15.8906C18.5913 16.1674 18.6576 16.4401 18.7848 16.6859C18.9314 16.4013 19.1534 16.1624 19.4265 15.9954C19.6996 15.8284 20.0134 15.7397 20.3336 15.739H28.8924C29.2126 15.7397 29.5264 15.8284 29.7995 15.9954C30.0726 16.1624 30.2946 16.4013 30.4412 16.6859C30.5684 16.4401 30.6347 16.1673 30.6345 15.8905C30.6331 15.4289 30.4492 14.9866 30.1228 14.6602C29.7964 14.3338 29.354 14.1498 28.8924 14.1484H20.3336ZM16.8494 22.0001C16.8493 21.7367 16.7894 21.4766 16.6742 21.2397C16.5591 21.0027 16.3917 20.7949 16.1846 20.632C15.9775 20.469 15.7362 20.3552 15.4787 20.2991C15.2213 20.2429 14.9545 20.2458 14.6984 20.3077C14.4422 20.3696 14.2035 20.4887 14.0001 20.6562C13.7967 20.8237 13.6339 21.0351 13.524 21.2746C13.4142 21.5141 13.3601 21.7754 13.3658 22.0388C13.3715 22.3022 13.4369 22.5609 13.557 22.7954C13.7034 22.5103 13.9256 22.2711 14.1991 22.1041C14.4726 21.937 14.7869 21.8487 15.1074 21.8487C15.4279 21.8487 15.7422 21.937 16.0157 22.1041C16.2892 22.2711 16.5114 22.5103 16.6578 22.7954C16.7841 22.5494 16.8498 22.2767 16.8494 22.0001ZM20.3336 20.2581C19.872 20.2594 19.4296 20.4434 19.1032 20.7698C18.7768 21.0962 18.5928 21.5385 18.5915 22.0001C18.5913 22.2769 18.6576 22.5497 18.7848 22.7954C18.9314 22.5108 19.1534 22.272 19.4265 22.1051C19.6997 21.9381 20.0134 21.8494 20.3336 21.8487H28.8924C29.2126 21.8494 29.5263 21.9381 29.7995 22.1051C30.0726 22.272 30.2946 22.5108 30.4412 22.7954C30.5684 22.5497 30.6347 22.2769 30.6345 22.0001C30.6332 21.5385 30.4492 21.0962 30.1228 20.7698C29.7964 20.4434 29.3541 20.2594 28.8924 20.2581H20.3336ZM16.8494 28.1095C16.8493 27.846 16.7894 27.586 16.6742 27.349C16.5591 27.112 16.3917 26.9043 16.1846 26.7413C15.9775 26.5784 15.7362 26.4646 15.4787 26.4084C15.2213 26.3523 14.9545 26.3552 14.6984 26.4171C14.4422 26.479 14.2035 26.5981 14.0001 26.7656C13.7967 26.9331 13.6339 27.1445 13.524 27.384C13.4142 27.6235 13.3601 27.8848 13.3658 28.1482C13.3715 28.4116 13.4369 28.6703 13.557 28.9048C13.7034 28.6197 13.9256 28.3805 14.1991 28.2134C14.4726 28.0464 14.7869 27.958 15.1074 27.958C15.4279 27.958 15.7422 28.0464 16.0157 28.2134C16.2892 28.3805 16.5114 28.6197 16.6578 28.9048C16.7841 28.6588 16.8498 28.3861 16.8494 28.1095ZM20.3336 26.3675C19.872 26.3688 19.4296 26.5528 19.1032 26.8792C18.7768 27.2056 18.5928 27.6479 18.5915 28.1095C18.5912 28.3863 18.6576 28.659 18.7848 28.9048C18.9314 28.6202 19.1534 28.3814 19.4265 28.2145C19.6997 28.0475 20.0135 27.9588 20.3336 27.958H28.8924C29.2126 27.9588 29.5263 28.0475 29.7994 28.2145C30.0726 28.3814 30.2946 28.6202 30.4412 28.9048C30.5684 28.659 30.6347 28.3863 30.6345 28.1095C30.6331 27.6479 30.4492 27.2056 30.1228 26.8792C29.7964 26.5528 29.354 26.3688 28.8924 26.3675H20.3336Z" fill="#753D29"/>
<defs>
<linearGradient id="paint0_linear_1524_14690" x1="22" y1="44" x2="22" y2="0" gradientUnits="userSpaceOnUse">
<stop stop-color="#DE8B00"/>
<stop offset="1" stop-color="#FFC75E"/>
</linearGradient>
<linearGradient id="paint1_linear_1524_14690" x1="22" y1="22.0001" x2="22" y2="-6.81882e-05" gradientUnits="userSpaceOnUse">
<stop stop-color="#FFB805"/>
<stop offset="1" stop-color="#FFE89C"/>
</linearGradient>
<radialGradient id="paint2_radial_1524_14690" cx="0" cy="0" r="1" gradientUnits="userSpaceOnUse" gradientTransform="translate(14.3226 7.8453) scale(36.1224 36.1225)">
<stop stop-color="#FFEEB8"/>
<stop offset="1" stop-color="#FFBF00"/>
</radialGradient>
<radialGradient id="paint3_radial_1524_14690" cx="0" cy="0" r="1" gradientUnits="userSpaceOnUse" gradientTransform="translate(16.093 -1.66037) scale(36.4506 36.4507)">
<stop stop-color="#FFFD9E"/>
<stop offset="1"/>
</radialGradient>
<radialGradient id="paint4_radial_1524_14690" cx="0" cy="0" r="1" gradientUnits="userSpaceOnUse" gradientTransform="translate(29.4901 10.5369) scale(30.9453 30.9454)">
<stop stop-color="#FFFD9E"/>
<stop offset="1"/>
</radialGradient>
<linearGradient id="paint5_linear_1524_14690" x1="22" y1="44" x2="22" y2="0" gradientUnits="userSpaceOnUse">
<stop stop-color="#CF8000"/>
<stop offset="1" stop-color="#F5B133"/>
</linearGradient>
<linearGradient id="paint6_linear_1524_14690" x1="21.9999" y1="29.8516" x2="21.9999" y2="14.1484" gradientUnits="userSpaceOnUse">
<stop stop-color="#D68329"/>
<stop offset="1" stop-color="#954B25"/>
</linearGradient>
</defs>
</svg>
