<svg width="18" height="21" viewBox="0 0 18 21" fill="none" xmlns="http://www.w3.org/2000/svg">
<path fill-rule="evenodd" clip-rule="evenodd" d="M14.6016 1.92686C16.6647 3.06421 17.8223 5.60243 16.7446 7.65881C16.0503 8.64101 15.0227 9.33394 13.8556 9.60701C12.6884 9.88008 11.4622 9.71444 10.408 9.14131C9.37419 8.5217 8.60715 7.53679 8.25673 6.37894C7.90631 5.2211 7.99769 3.97347 8.51302 2.87974C9.79276 0.96481 12.5385 0.789505 14.6016 1.92686ZM13.5239 3.75734C14.0222 4.02774 14.3967 4.48212 14.5683 5.0247C14.74 5.56728 14.6955 6.15568 14.4441 6.6659C13.9166 7.67616 12.5485 7.9273 11.4648 7.29812C10.3811 6.66894 9.88891 5.32583 10.5196 4.3874C10.8552 3.92855 11.3474 3.61047 11.9019 3.4942C12.4563 3.37792 13.034 3.47163 13.5239 3.75734Z" fill="url(#paint0_linear_1472_4254)"/>
<path style="mix-blend-mode:multiply" opacity="0.4" fill-rule="evenodd" clip-rule="evenodd" d="M15.2045 9.08348C14.4691 9.41289 13.6669 9.56328 12.8628 9.52244C12.0588 9.4816 11.2757 9.25068 10.5771 8.84843C9.87847 8.44618 9.284 7.88393 8.84198 7.20733C8.39995 6.53073 8.12282 5.75885 8.03306 4.95435C8.02155 5.80218 8.23587 6.63766 8.65378 7.3741C9.0717 8.11053 9.67798 8.72109 10.4097 9.1424C11.1414 9.56371 11.972 9.78043 12.8151 9.77007C13.6582 9.75971 14.4832 9.52265 15.2045 9.08348Z" fill="url(#paint1_radial_1472_4254)"/>
<path fill-rule="evenodd" clip-rule="evenodd" d="M15.1323 1.00956C16.1827 1.58861 16.9682 2.55555 17.3229 3.70616C17.6777 4.85677 17.5738 6.10098 17.0333 7.17601C15.9072 9.32959 13.0185 9.88249 10.7417 8.56059C8.46496 7.23874 7.44547 4.39156 8.78835 2.38914C9.49017 1.41258 10.5263 0.731455 11.6974 0.476781C12.8685 0.222107 14.0919 0.411867 15.1323 1.00956ZM14.0037 2.92532C14.5349 3.20644 14.9371 3.68359 15.1258 4.25658C15.3145 4.82956 15.2751 5.45379 15.0158 5.99817C14.4647 7.05621 13.0095 7.30571 11.8478 6.63121C10.6862 5.95676 10.1471 4.53704 10.8091 3.5558C11.1714 3.07413 11.6974 2.74357 12.2867 2.62727C12.876 2.51097 13.4873 2.61707 14.0037 2.92532Z" fill="url(#paint2_linear_1472_4254)"/>
<path fill-rule="evenodd" clip-rule="evenodd" d="M8.83446 2.46747C9.55486 1.52403 10.5905 0.87473 11.75 0.63955C12.9095 0.40437 14.1145 0.599215 15.1422 1.18808C15.7759 1.53931 16.3199 2.03366 16.7314 2.6322C17.1428 3.23074 17.4106 3.91715 17.5134 4.63739C17.4383 3.88401 17.1823 3.16024 16.7675 2.52831C16.3527 1.89639 15.7916 1.37519 15.1322 1.00954C14.0919 0.411861 12.8685 0.222111 11.6974 0.47678C10.5263 0.731449 9.49018 1.41255 8.78834 2.38909C8.48906 2.83458 8.29569 3.34333 8.22318 3.87599C8.3131 3.41086 8.49538 2.96875 8.75912 2.57609C8.78374 2.53942 8.80886 2.5032 8.83446 2.46747Z" fill="#EFC150"/>
<path fill-rule="evenodd" clip-rule="evenodd" d="M14.4619 6.63111C14.0697 6.87688 13.6169 7.00718 13.1549 7.0072C12.6928 7.00722 12.24 6.87697 11.8478 6.63123C11.4543 6.41741 11.1243 6.10234 10.8916 5.71823C10.6588 5.33413 10.5317 4.89477 10.5232 4.44507C10.4857 4.93032 10.5902 5.41599 10.8237 5.84231C11.0572 6.26862 11.4096 6.61696 11.8375 6.84446C12.1937 7.06265 12.5975 7.18993 13.0138 7.21523C13.4301 7.24052 13.8462 7.16306 14.2259 6.98959C14.5677 6.82034 14.8475 6.54655 15.025 6.20751C15.2172 5.83466 15.2966 5.41332 15.2533 4.99558C15.2575 5.34437 15.1759 5.68878 15.0158 5.9982C14.8843 6.25078 14.6943 6.46784 14.4619 6.63111Z" fill="#EFC150"/>
<path style="mix-blend-mode:multiply" opacity="0.5" fill-rule="evenodd" clip-rule="evenodd" d="M11.3664 3.63948C11.6446 3.22786 12.0647 2.93463 12.5455 2.81653C13.0263 2.69843 13.5335 2.76385 13.9691 3.00014C14.3971 3.25019 14.7115 3.6581 14.8454 4.13733C14.9793 4.61656 14.9223 5.12942 14.6865 5.5671L14.6738 5.59081C14.6943 5.95019 14.6213 6.30876 14.4619 6.63109C14.6944 6.46784 14.8843 6.25076 15.0158 5.99818C15.176 5.68877 15.2576 5.34435 15.2534 4.99557C15.2456 4.57022 15.1259 4.15455 14.9064 3.79088C14.6869 3.42722 14.3754 3.12856 14.0037 2.92534C13.4873 2.61709 12.876 2.51098 12.2867 2.62728C11.6974 2.74358 11.1714 3.07414 10.8091 3.5558C10.6448 3.79961 10.5475 4.08272 10.5271 4.37649C10.7327 4.07676 11.0131 3.83665 11.3402 3.6802C11.3487 3.6666 11.3575 3.65302 11.3664 3.63948Z" fill="url(#paint3_radial_1472_4254)"/>
<path style="mix-blend-mode:multiply" opacity="0.5" fill-rule="evenodd" clip-rule="evenodd" d="M16.954 6.67788C15.8484 8.79232 13.0122 9.33512 10.7768 8.03727C9.97437 7.59909 9.31397 6.93831 8.87421 6.13354C8.43446 5.32878 8.23387 4.41391 8.29631 3.4978C7.83802 5.33547 8.86084 7.46854 10.7417 8.56051C13.0185 9.88242 15.9072 9.32951 17.0333 7.17594C17.5404 6.194 17.6713 5.05897 17.401 3.98641C17.5392 4.90852 17.3827 5.85098 16.954 6.67788Z" fill="url(#paint4_radial_1472_4254)"/>
<path style="mix-blend-mode:screen" fill-rule="evenodd" clip-rule="evenodd" d="M11.8833 0.730924C11.0991 0.83587 10.3592 1.15738 9.74582 1.65975C9.13242 2.16211 8.66953 2.82565 8.40857 3.57664C8.17626 4.31054 8.7233 4.50777 9.22411 4.59552C9.37331 4.62169 9.52351 4.64694 9.67468 4.67129C9.74633 4.68284 9.81954 4.68002 9.8901 4.66298C9.96066 4.64594 10.0272 4.61503 10.0858 4.57203C10.1444 4.52903 10.194 4.47478 10.2317 4.41242C10.2693 4.35006 10.2944 4.28081 10.3053 4.20868C10.3085 4.18794 10.3119 4.16721 10.3158 4.14648C10.363 3.88662 10.4636 3.63951 10.6111 3.42087C10.7741 3.17994 10.9804 2.97168 11.2193 2.80676C11.6477 2.52555 12.1448 2.36822 12.6562 2.35197C13.1676 2.33573 13.6736 2.4612 14.1189 2.71465C14.4663 2.90612 14.7666 3.17333 14.998 3.49668C15.2293 3.82003 15.3858 4.19134 15.456 4.5834C15.4785 4.71733 15.5495 4.83816 15.6552 4.92269C15.7609 5.00722 15.894 5.0495 16.0288 5.0414C16.3922 5.02079 16.7517 4.99162 17.1073 4.95391C17.7704 4.88318 17.0039 2.95067 16.1775 2.10738C15.6272 1.5438 14.9484 1.12383 14.2 0.883954C13.4517 0.644078 12.6564 0.591547 11.8833 0.730924Z" fill="url(#paint5_radial_1472_4254)"/>
<path fill-rule="evenodd" clip-rule="evenodd" d="M2.93541 11.6348C4.06387 12.2713 4.82579 12.7621 5.88345 13.4618C5.74831 13.7101 5.61256 13.9577 5.4762 14.2046C5.66577 14.3147 5.85534 14.4247 6.04491 14.5349L4.20708 17.736L3.51242 17.5998C3.36757 17.8425 3.22187 18.0844 3.07532 18.3253C2.07539 17.8505 1.09823 17.3067 0.00942819 16.663C-0.0121594 16.4096 0.00337178 16.1544 0.0555358 15.9056C0.440196 15.2582 0.824826 14.6108 1.20942 13.9634C1.59623 14.1772 1.98299 14.391 2.36971 14.6049C2.55377 14.2844 2.73777 13.964 2.92169 13.6436C2.63908 13.4695 2.66638 13.4752 2.38373 13.3011C2.37569 13.0478 2.39113 12.7942 2.42985 12.5437C2.59845 12.2408 2.76696 11.9378 2.93541 11.6348Z" fill="url(#paint6_linear_1472_4254)"/>
<path fill-rule="evenodd" clip-rule="evenodd" d="M3.2611 11.042C4.38944 11.6785 5.16253 12.1757 6.22011 12.8754C6.08495 13.1237 5.9492 13.3713 5.81286 13.6182L6.38162 13.9485L4.42868 17.3499L3.86098 17.0203C3.71607 17.263 3.57035 17.5049 3.42382 17.7458C2.42388 17.271 1.14431 16.5493 0.0555115 15.9057C0.565891 15.0668 1.06277 14.2239 1.54615 13.377L2.70649 14.0185L3.25835 13.0572L2.42981 12.5438C2.71045 12.0435 2.98756 11.5429 3.2611 11.042Z" fill="url(#paint7_radial_1472_4254)"/>
<path style="mix-blend-mode:screen" fill-rule="evenodd" clip-rule="evenodd" d="M6.22014 12.8754C5.16254 12.1757 4.38945 11.6785 3.26113 11.042C2.98741 11.5427 2.71034 12.0433 2.42992 12.5438L3.2584 13.0572L2.70654 14.0185L1.5462 13.377C1.19488 13.9907 0.837081 14.6029 0.472794 15.2136C2.38944 15.3804 4.29771 14.8103 5.81291 13.6182C5.94928 13.3714 6.08501 13.1238 6.22014 12.8754Z" fill="url(#paint8_radial_1472_4254)"/>
<path style="mix-blend-mode:multiply" fill-rule="evenodd" clip-rule="evenodd" d="M5.38968 12.3345C5.83279 12.7736 5.36117 14.2561 4.78921 15.2523C4.21725 16.2485 3.18056 17.338 2.47125 17.2659C2.80526 17.4419 3.1269 17.6047 3.42387 17.7457C3.57046 17.5048 3.71618 17.263 3.86103 17.0202L4.42874 17.3499L6.38167 13.9484L5.81291 13.6182C5.94933 13.3713 6.08508 13.1237 6.22015 12.8754C5.94514 12.6935 5.66832 12.5131 5.38968 12.3345Z" fill="url(#paint9_radial_1472_4254)"/>
<path d="M9.96263 9.91198C10.2778 10.0994 10.6104 10.2554 10.9558 10.3777C11.4024 10.5256 11.772 10.4547 11.9584 10.1301C12.1447 9.80551 12.021 9.44826 11.6704 9.13317C11.1086 8.65911 10.4686 8.28757 9.77944 8.03534C9.33276 7.88746 8.96322 7.95836 8.77684 8.28297C8.59053 8.60758 8.71424 8.96483 9.06485 9.27992C9.34289 9.51955 9.64358 9.73126 9.96263 9.91198Z" fill="url(#paint10_linear_1472_4254)"/>
<path style="mix-blend-mode:multiply" opacity="0.5" fill-rule="evenodd" clip-rule="evenodd" d="M10.9558 10.3777C10.2667 10.1254 9.62673 9.75381 9.06487 9.27984C8.94199 9.1742 8.84041 9.04583 8.76565 8.90168C8.75191 8.8617 8.74687 8.81921 8.75088 8.7771C8.75489 8.73499 8.76785 8.69424 8.78888 8.65761C8.80992 8.62097 8.83854 8.58931 8.8728 8.56477C8.90706 8.54022 8.94617 8.52336 8.98747 8.51534C9.149 8.50833 9.31037 8.53261 9.46278 8.58687C10.1519 8.83916 10.7919 9.2107 11.3537 9.6847C11.4766 9.79031 11.5782 9.9187 11.6529 10.0629C11.6667 10.1028 11.6717 10.1453 11.6677 10.1874C11.6637 10.2295 11.6507 10.2703 11.6297 10.3069C11.6086 10.3436 11.58 10.3752 11.5458 10.3997C11.5115 10.4243 11.4724 10.4411 11.4311 10.4491C11.2696 10.4561 11.1082 10.4319 10.9558 10.3777Z" fill="url(#paint11_radial_1472_4254)"/>
<path style="mix-blend-mode:screen" fill-rule="evenodd" clip-rule="evenodd" d="M9.0304 8.3694C9.02155 8.34338 9.01922 8.31558 9.02361 8.28844C9.028 8.2613 9.03897 8.23567 9.05555 8.21381C9.47917 7.68614 11.3669 8.86104 11.3657 9.51662C10.7722 8.99673 10.0623 8.62923 9.29669 8.44562C9.18982 8.43224 9.05207 8.41338 9.0304 8.3694Z" fill="url(#paint12_radial_1472_4254)"/>
<path fill-rule="evenodd" clip-rule="evenodd" d="M11.4768 10.3232C10.34 12.2208 10.0917 12.5822 8.98912 14.4982C7.88662 16.4142 6.81867 18.3504 5.76427 20.2943C5.32351 20.0385 4.88279 19.7826 4.44212 19.5268C4.00171 19.271 3.56116 19.0152 3.12048 18.7594C4.25952 16.8645 5.39942 14.9703 6.50923 13.0584C7.61899 11.1467 7.80733 10.7504 8.85675 8.80199C8.91872 8.68705 9.1202 8.66731 9.39868 8.73062C10.1027 8.92325 10.7449 9.29614 11.2628 9.81289C11.4576 10.0244 11.5439 10.2112 11.4768 10.3232Z" fill="url(#paint13_linear_1472_4254)"/>
<path style="mix-blend-mode:multiply" opacity="0.4" fill-rule="evenodd" clip-rule="evenodd" d="M11.2627 9.8128C11.1127 9.65475 10.9472 9.51225 10.7688 9.38745C9.62737 11.3668 9.36422 11.8038 8.22216 13.7813C7.07756 15.7634 5.94399 17.7519 4.82146 19.7469C5.13566 19.9294 5.4499 20.1118 5.76418 20.2943C6.81859 18.3503 7.88653 16.4142 8.98903 14.4981C10.0916 12.5821 10.3399 12.2207 11.4767 10.3231C11.5438 10.2111 11.4575 10.0243 11.2627 9.8128Z" fill="url(#paint14_linear_1472_4254)"/>
<path style="mix-blend-mode:multiply" opacity="0.4" fill-rule="evenodd" clip-rule="evenodd" d="M3.49957 18.9796C4.66618 17.0102 5.83599 15.0427 6.98251 13.0616C8.10584 11.1207 8.31443 10.6993 9.3884 8.72829C9.11515 8.66784 8.91786 8.68845 8.8567 8.80199C7.80728 10.7504 7.61893 11.1467 6.50917 13.0584C5.39936 14.9703 4.25946 16.8645 3.12042 18.7594C3.24675 18.8328 3.37313 18.9062 3.49957 18.9796Z" fill="url(#paint15_linear_1472_4254)"/>
<path fill-rule="evenodd" clip-rule="evenodd" d="M4.67805 19.1163C5.4081 19.5401 5.89444 20.0676 5.76424 20.2942C5.63414 20.521 4.93668 20.3612 4.20669 19.9373C3.47659 19.5134 2.9903 18.986 3.12045 18.7593C3.2506 18.5326 3.94801 18.6924 4.67805 19.1163Z" fill="url(#paint16_linear_1472_4254)"/>
<path style="mix-blend-mode:screen" fill-rule="evenodd" clip-rule="evenodd" d="M10.3419 9.11655C10.0926 8.97382 9.82883 8.8583 9.55512 8.77197C6.48366 14.1522 4.97403 16.9979 5.17324 17.1197C5.3724 17.2415 7.23258 14.5487 10.3419 9.11655Z" fill="url(#paint17_radial_1472_4254)"/>
<path style="mix-blend-mode:multiply" opacity="0.4" fill-rule="evenodd" clip-rule="evenodd" d="M2.47129 17.2658C2.67793 17.5831 2.50637 17.6633 2.25112 17.6372C1.76715 17.5877 0.243293 16.7571 0.144907 16.3013C0.129236 16.2494 0.130785 16.1937 0.149329 16.1427C0.167873 16.0918 0.202408 16.0482 0.24771 16.0187C0.183079 15.9807 0.119029 15.943 0.055578 15.9055C0.00344423 16.1543 -0.0120867 16.4095 0.00947037 16.6629C1.09827 17.3066 2.0754 17.8504 3.07536 18.3252C3.22189 18.0843 3.36759 17.8425 3.51246 17.5997C3.48301 17.6484 3.45348 17.697 3.42388 17.7456C3.12693 17.6047 2.80533 17.4418 2.47129 17.2658Z" fill="url(#paint18_linear_1472_4254)"/>
<path style="mix-blend-mode:multiply" opacity="0.4" fill-rule="evenodd" clip-rule="evenodd" d="M2.93822 13.3804C2.72821 13.4953 2.44228 13.2094 2.39071 12.8993C2.38163 13.033 2.37931 13.1672 2.38375 13.3011C2.66641 13.4752 2.63911 13.4695 2.9217 13.6436L3.25838 13.0571L2.77824 12.7646C2.86476 12.8349 2.93985 12.9182 3.0008 13.0118C3.02329 13.0391 3.03965 13.071 3.04875 13.1053C3.05785 13.1396 3.05948 13.1755 3.05354 13.2105C3.0476 13.2455 3.03421 13.2788 3.01431 13.3081C2.9944 13.3374 2.96846 13.3621 2.93822 13.3804Z" fill="url(#paint19_linear_1472_4254)"/>
<path style="mix-blend-mode:screen" fill-rule="evenodd" clip-rule="evenodd" d="M11.8833 0.730924C11.0991 0.83587 10.3592 1.15738 9.74582 1.65975C9.13242 2.16211 8.66953 2.82565 8.40857 3.57664C8.17626 4.31054 8.7233 4.50777 9.22411 4.59552C9.37331 4.62169 9.52351 4.64694 9.67468 4.67129C9.74633 4.68284 9.81954 4.68002 9.8901 4.66298C9.96066 4.64594 10.0272 4.61503 10.0858 4.57203C10.1444 4.52903 10.194 4.47478 10.2317 4.41242C10.2693 4.35006 10.2944 4.28081 10.3053 4.20868C10.3085 4.18794 10.3119 4.16721 10.3158 4.14648C10.363 3.88662 10.4636 3.63951 10.6111 3.42087C10.7741 3.17994 10.9804 2.97168 11.2193 2.80676C11.6477 2.52555 12.1448 2.36822 12.6562 2.35197C13.1676 2.33573 13.6736 2.4612 14.1189 2.71465C14.4663 2.90612 14.7666 3.17333 14.998 3.49668C15.2293 3.82003 15.3858 4.19134 15.456 4.5834C15.4785 4.71733 15.5495 4.83816 15.6552 4.92269C15.7609 5.00722 15.894 5.0495 16.0288 5.0414C16.3922 5.02079 16.7517 4.99162 17.1073 4.95391C17.7704 4.88318 17.0039 2.95067 16.1775 2.10738C15.6272 1.5438 14.9484 1.12383 14.2 0.883954C13.4517 0.644078 12.6564 0.591547 11.8833 0.730924Z" fill="url(#paint20_radial_1472_4254)"/>
<path style="mix-blend-mode:screen" fill-rule="evenodd" clip-rule="evenodd" d="M6.22014 12.8754C5.16254 12.1757 4.38945 11.6785 3.26113 11.042C2.98741 11.5427 2.71034 12.0433 2.42992 12.5438L3.2584 13.0572L2.70654 14.0185L1.5462 13.377C1.19488 13.9907 0.837081 14.6029 0.472794 15.2136C2.38944 15.3804 4.29771 14.8103 5.81291 13.6182C5.94928 13.3714 6.08501 13.1238 6.22014 12.8754Z" fill="url(#paint21_radial_1472_4254)"/>
<defs>
<linearGradient id="paint0_linear_1472_4254" x1="8.36833" y1="3.13176" x2="16.6228" y2="7.87094" gradientUnits="userSpaceOnUse">
<stop stop-color="#BA7A1E"/>
<stop offset="1" stop-color="#3B2008"/>
</linearGradient>
<radialGradient id="paint1_radial_1472_4254" cx="0" cy="0" r="1" gradientUnits="userSpaceOnUse" gradientTransform="translate(12.2295 3.19479) scale(6.76305 6.80095)">
<stop offset="0.64498" stop-color="white"/>
<stop offset="0.78595" stop-color="#C3C7E6"/>
<stop offset="1" stop-color="#616DBE"/>
</radialGradient>
<linearGradient id="paint2_linear_1472_4254" x1="10.0998" y1="0.791703" x2="16.2531" y2="9.39764" gradientUnits="userSpaceOnUse">
<stop stop-color="#BA873B"/>
<stop offset="1" stop-color="#6E390A"/>
</linearGradient>
<radialGradient id="paint3_radial_1472_4254" cx="0" cy="0" r="1" gradientUnits="userSpaceOnUse" gradientTransform="translate(14.0361 7.73341) scale(5.42103 5.4514)">
<stop stop-color="white"/>
<stop offset="0.39707" stop-color="#C3C7E6"/>
<stop offset="1" stop-color="#616DBE"/>
</radialGradient>
<radialGradient id="paint4_radial_1472_4254" cx="0" cy="0" r="1" gradientUnits="userSpaceOnUse" gradientTransform="translate(13.1759 2.34803) scale(7.37812 7.41945)">
<stop offset="0.64498" stop-color="white"/>
<stop offset="0.78595" stop-color="#C3C7E6"/>
<stop offset="1" stop-color="#616DBE"/>
</radialGradient>
<radialGradient id="paint5_radial_1472_4254" cx="0" cy="0" r="1" gradientUnits="userSpaceOnUse" gradientTransform="translate(12.1376 -0.764954) scale(8.08632 8.13163)">
<stop stop-color="#B18654"/>
<stop offset="1" stop-color="#000505"/>
</radialGradient>
<linearGradient id="paint6_linear_1472_4254" x1="-3.15381" y1="11.4623" x2="4.42732" y2="15.8149" gradientUnits="userSpaceOnUse">
<stop stop-color="#BA7A1E"/>
<stop offset="1" stop-color="#3B2008"/>
</linearGradient>
<radialGradient id="paint7_radial_1472_4254" cx="0" cy="0" r="1" gradientUnits="userSpaceOnUse" gradientTransform="translate(1.19866 10.8933) scale(8.39616 8.4432)">
<stop stop-color="#BA873B"/>
<stop offset="1" stop-color="#6E390A"/>
</radialGradient>
<radialGradient id="paint8_radial_1472_4254" cx="0" cy="0" r="1" gradientUnits="userSpaceOnUse" gradientTransform="translate(1.75629 8.25852) scale(8.56635 8.61435)">
<stop stop-color="#B18654"/>
<stop offset="1" stop-color="#000505"/>
</radialGradient>
<radialGradient id="paint9_radial_1472_4254" cx="0" cy="0" r="1" gradientUnits="userSpaceOnUse" gradientTransform="translate(-1.67632 10.2861) scale(10.2544 10.3119)">
<stop offset="0.64498" stop-color="white"/>
<stop offset="0.78595" stop-color="#C3C7E6"/>
<stop offset="1" stop-color="#616DBE"/>
</radialGradient>
<linearGradient id="paint10_linear_1472_4254" x1="8.77687" y1="8.28295" x2="11.9672" y2="10.1146" gradientUnits="userSpaceOnUse">
<stop stop-color="#BA7A1E"/>
<stop offset="1" stop-color="#4A2808"/>
</linearGradient>
<radialGradient id="paint11_radial_1472_4254" cx="0" cy="0" r="1" gradientUnits="userSpaceOnUse" gradientTransform="translate(11.6705 11.226) scale(7.02268 7.06203)">
<stop stop-color="#616DBE"/>
<stop offset="0.53681" stop-color="#C3C7E6"/>
<stop offset="0.89033" stop-color="white"/>
</radialGradient>
<radialGradient id="paint12_radial_1472_4254" cx="0" cy="0" r="1" gradientUnits="userSpaceOnUse" gradientTransform="translate(9.51755 7.6846) scale(4.20007 4.22361)">
<stop stop-color="#B18654"/>
<stop offset="1" stop-color="#000505"/>
</radialGradient>
<linearGradient id="paint13_linear_1472_4254" x1="6.09936" y1="13.571" x2="8.75049" y2="15.0931" gradientUnits="userSpaceOnUse">
<stop stop-color="#855226"/>
<stop offset="0.30855" stop-color="#BA7A1E"/>
<stop offset="1" stop-color="#3B2008"/>
</linearGradient>
<linearGradient id="paint14_linear_1472_4254" x1="7.08688" y1="14.156" x2="9.69906" y2="15.6557" gradientUnits="userSpaceOnUse">
<stop stop-color="white"/>
<stop offset="0.39707" stop-color="#C3C7E6"/>
<stop offset="1" stop-color="#616DBE"/>
</linearGradient>
<linearGradient id="paint15_linear_1472_4254" x1="5.66946" y1="13.4043" x2="7.52301" y2="14.4684" gradientUnits="userSpaceOnUse">
<stop stop-color="#616DBE"/>
<stop offset="0.60293" stop-color="#C3C7E6"/>
<stop offset="1" stop-color="white"/>
</linearGradient>
<linearGradient id="paint16_linear_1472_4254" x1="3.09938" y1="19.5268" x2="5.78532" y2="19.5268" gradientUnits="userSpaceOnUse">
<stop stop-color="#BA7A1E"/>
<stop offset="1" stop-color="#3B2008"/>
</linearGradient>
<radialGradient id="paint17_radial_1472_4254" cx="0" cy="0" r="1" gradientUnits="userSpaceOnUse" gradientTransform="translate(5.58104 9.81416) scale(10.7692 10.8295)">
<stop stop-color="#B18654"/>
<stop offset="1" stop-color="#000505"/>
</radialGradient>
<linearGradient id="paint18_linear_1472_4254" x1="-0.0464811" y1="16.0833" x2="3.28496" y2="17.996" gradientUnits="userSpaceOnUse">
<stop stop-color="white"/>
<stop offset="0.39707" stop-color="#C3C7E6"/>
<stop offset="1" stop-color="#616DBE"/>
</linearGradient>
<linearGradient id="paint19_linear_1472_4254" x1="2.37427" y1="12.9279" x2="3.09502" y2="13.3417" gradientUnits="userSpaceOnUse">
<stop stop-color="white"/>
<stop offset="0.39707" stop-color="#C3C7E6"/>
<stop offset="1" stop-color="#616DBE"/>
</linearGradient>
<radialGradient id="paint20_radial_1472_4254" cx="0" cy="0" r="1" gradientUnits="userSpaceOnUse" gradientTransform="translate(12.4401 0.350647) scale(3.52417 3.54391)">
<stop stop-color="#B18654"/>
<stop offset="1" stop-color="#000505"/>
</radialGradient>
<radialGradient id="paint21_radial_1472_4254" cx="0" cy="0" r="1" gradientUnits="userSpaceOnUse" gradientTransform="translate(3.11008 10.4367) scale(3.30362 3.32213)">
<stop stop-color="#B18654"/>
<stop offset="1" stop-color="#000505"/>
</radialGradient>
</defs>
</svg>
