<svg width="360" height="102" viewBox="0 0 360 102" fill="none" xmlns="http://www.w3.org/2000/svg">
<path fill-rule="evenodd" clip-rule="evenodd" d="M379 48L-15 43.4214L-9.00968 37.6601C87.3017 34.9699 248.581 41.302 373.015 42.3669L379 48Z" fill="url(#paint0_linear_3409_18860)"/>
<path fill-rule="evenodd" clip-rule="evenodd" d="M374 -0.125693L-12 3.99997L-6.02809 -1.74343C89.9867 -4.4253 243.983 -6.80286 368.034 -5.74131L374 -0.125693Z" fill="url(#paint1_linear_3409_18860)"/>
<path fill-rule="evenodd" clip-rule="evenodd" d="M377.9 44.4784C246.17 46.3528 116.739 46.3001 -14.9922 45.3705C-15.0988 31.6603 -14.1067 17.9614 -12.0238 4.38387C87.2756 1.62187 246.541 -0.826831 374.835 0.266392C377.316 14.8887 378.342 29.6866 377.9 44.4784Z" fill="url(#paint2_radial_3409_18860)"/>
<g style="mix-blend-mode:multiply" opacity="0.4">
<path fill-rule="evenodd" clip-rule="evenodd" d="M375.224 1.83556C363.64 2.80044 352.036 3.56761 340.421 4.02858C329.965 4.44362 319.485 4.61103 309.022 4.3857C289.967 3.97532 271.011 2.82572 252.045 1.1073C248.194 0.758164 244.346 0.38907 240.499 -1.06147e-05C234.075 0.0419256 227.652 0.0889538 221.231 0.141097C230.018 1.19717 238.847 2.00962 247.675 2.6673C268.078 4.18801 288.551 4.87564 309.011 5.31631C331.224 5.79459 353.428 5.07835 375.605 3.93008C375.482 3.18021 375.354 2.47926 375.224 1.83556ZM376.857 14.4505C354.731 14.833 332.596 14.8885 310.478 14.1646C295.706 13.681 280.932 12.8513 266.224 11.4827C248.727 9.85446 231.253 8.05284 213.835 5.81388C201.9 4.27919 190.01 2.5294 178.163 0.564471C174.693 0.604411 171.234 0.645551 167.783 0.687931C200.318 6.11575 233.274 9.35122 266.151 12.4109C303.014 15.8414 340.041 16.8163 377.067 16.9618C377 16.1142 376.93 15.2771 376.857 14.4505ZM377.743 28.1086C373.399 27.8184 369.058 27.4792 364.717 27.1374C357.885 26.5996 351.046 26.1413 344.194 25.8853C337.369 25.63 330.548 25.5831 323.72 25.7798C314.699 26.0669 305.667 25.8392 296.676 25.0981C287.292 24.3 278.01 22.8938 268.757 21.2729C261.896 20.0714 255.041 18.8802 248.122 17.9885C240.135 16.9588 232.017 17.3272 224.031 16.2129C195.187 12.1883 166.998 4.86031 138.112 1.08566C132.847 1.16188 127.618 1.24078 122.426 1.32232C126.405 1.79627 130.382 2.27398 134.359 2.75548C152.598 4.94352 170.524 8.89157 188.451 12.5917C194.849 13.912 201.28 14.9528 207.787 15.698C213.294 16.3284 218.81 16.7391 224.343 17.1158C228.112 17.3724 231.88 17.6207 235.644 17.9316C239.745 18.2701 243.833 18.6842 247.91 19.21C253.588 19.9416 259.196 20.9368 264.792 22.0767C269.885 23.1141 274.95 24.2621 280.04 25.3128C286.607 26.7271 293.26 27.7763 299.964 28.4548C307.851 29.1698 315.794 29.2136 323.69 28.5856C329.818 28.1173 335.957 27.7848 342.109 27.8487C349.709 27.9382 357.286 28.644 364.751 29.9578C369.087 30.6802 373.467 31.1496 377.867 31.363C377.832 30.297 377.791 29.2093 377.743 28.1086ZM6.45279 3.6814C0.263045 4.26386 -5.95094 4.51616 -12.1653 4.77244C-12.2975 5.38019 -12.4322 6.13304 -12.5677 7.00339C-5.90172 6.72714 0.765646 6.46689 7.40153 5.80855C13.6463 5.18882 19.8289 4.28283 26.003 3.23075L26.2116 3.19515C19.4414 3.35491 12.8551 3.51698 6.45279 3.6814ZM-13.2807 12.6156C2.54909 12.5902 18.3666 11.8004 34.1062 10.2495C40.7262 9.52694 47.1089 7.54125 53.734 6.79538C59.8002 6.12 65.9095 5.82689 72.0193 5.91805C77.7611 5.99527 83.4797 6.38567 89.1893 6.93718C99.8071 7.96296 110.354 9.49099 120.987 10.4396C129.829 11.2284 138.71 11.5622 147.546 12.4113C152.85 12.9022 158.121 13.66 163.336 14.6812C167.538 15.5196 171.651 16.5657 175.761 17.7239C177.417 18.1912 179.069 18.6718 180.721 19.1528C183.554 19.9772 186.387 20.798 189.237 21.5698C192.53 22.4618 195.842 23.2833 199.174 24.0344C210.68 26.6135 222.357 28.6608 234.038 30.4514C244.114 31.9964 254.226 33.3444 264.349 34.6022C270.837 35.408 277.341 36.1145 283.861 36.6594C293.078 37.4299 302.306 38.075 311.544 38.5948C320.781 39.1185 330.024 39.5235 339.274 39.81C352.175 40.2144 365.087 40.1342 377.994 40.272C378.003 39.2512 378.002 38.1638 377.991 37.0235C365.093 36.887 352.189 36.9673 339.297 36.5632C308.866 35.6096 278.32 35.2778 248.098 31.5281C241.795 30.746 235.509 29.8437 229.258 28.759C223.68 27.7915 218.139 26.6767 212.633 25.4143C201.892 22.9524 191.305 19.9476 180.754 16.8769C179.092 16.3933 177.43 15.9093 175.763 15.4397C171.636 14.2758 167.507 13.2244 163.286 12.383C158.046 11.3569 152.748 10.5957 147.417 10.1028C138.589 9.25437 129.686 9.51162 120.851 8.72348C110.394 7.79055 99.9465 6.60434 89.4652 5.93169C83.6912 5.56091 77.9135 5.35723 72.1257 5.4208C65.948 5.48622 59.7788 5.8642 53.6463 6.55308C47.1234 7.2873 40.6704 8.51946 34.1033 8.91785C18.4035 9.86942 2.68189 10.4559 -13.0616 10.6772C-13.1351 11.2973 -13.2082 11.9434 -13.2807 12.6156ZM319.484 45.1839C315.804 45.0394 312.128 44.869 308.454 44.6726C295.402 43.98 282.371 42.9842 269.36 41.6852C256.923 40.4427 244.498 38.923 232.162 37.0025C225.02 35.8902 217.882 34.7093 210.796 33.3271C204.486 32.0963 198.173 30.7047 192.007 28.958C186.028 27.2646 180.176 25.1537 174.322 23.1288C167.471 20.5896 160.416 18.5418 153.221 17.0037C149.533 16.3345 145.806 15.8597 142.059 15.5815C137.925 15.242 133.773 15.045 129.626 14.8972C122.344 14.6379 115.04 14.571 107.765 14.2056C101.777 13.9043 95.8483 13.1861 89.9012 12.5181C84.3084 11.7996 78.6731 11.3951 73.0267 11.3069C60.2698 11.3129 47.6757 13.2017 35.001 14.2438C18.8131 15.5751 2.58676 16.3856 -13.6613 16.4435C-13.7207 17.0855 -13.7787 17.7389 -13.8354 18.4035C-9.90244 18.3 -5.97123 18.1314 -2.04184 17.8976C4.1566 17.5329 10.3405 17.0206 16.5216 16.4625C22.6965 15.9047 28.867 15.3082 35.0459 14.7863C47.6622 13.7209 60.225 11.8278 72.9224 11.7959C78.5913 11.8643 84.2513 12.229 89.8751 12.8882C95.7505 13.491 101.613 14.1513 107.521 14.4479C114.802 14.814 122.086 15.2839 129.346 15.926C133.429 16.2871 137.509 16.7038 141.574 17.2134C145.28 17.6777 148.992 18.2168 152.655 18.9131C159.827 20.3629 166.913 22.1544 173.882 24.2804C179.851 26.0271 185.789 27.869 191.775 29.5647C200.561 32.053 209.463 34.1026 218.457 35.841C227.572 37.603 236.754 39.0488 245.95 40.4014C259.156 42.3431 272.41 44.017 285.708 45.3283C286.218 45.3786 286.728 45.4281 287.238 45.4768C297.977 45.3906 308.726 45.2929 319.484 45.1839ZM224.033 45.8562C222.39 45.5317 220.755 45.1805 219.13 44.8028C211.741 42.9935 204.478 40.7725 197.383 38.1521C190.127 35.5544 182.957 32.7573 175.71 30.1389C166.7 26.735 157.411 23.9915 147.929 21.9339C141.943 20.8724 135.847 20.4228 129.752 20.5933C125.855 20.6039 121.963 20.6635 118.073 20.5191C121.89 20.7693 125.71 21.0006 129.52 21.3192C135.238 21.7633 140.919 22.5387 146.53 23.6407C162.325 27.1802 177.846 31.6839 192.989 37.1217C201.694 40.1955 210.562 42.8656 219.558 45.122C220.67 45.3822 221.785 45.6284 222.903 45.8605L224.033 45.8562ZM111.652 20.083C104.618 19.4267 97.6314 18.3406 90.5671 17.9852C82.1169 17.6163 73.6505 17.699 65.2107 18.2328C57.924 18.6425 50.6501 19.235 43.3682 19.7089C35.9874 20.1892 28.6038 20.6321 21.2172 21.0376C9.44535 21.6696 -2.35652 22.1759 -14.153 22.3812C-14.2026 23.0509 -14.2509 23.7242 -14.2979 24.4012C-8.62198 24.1602 -2.94316 23.7941 2.70775 23.411C12.3032 22.76 21.8911 22.0151 31.4859 21.3494C35.4319 21.0755 39.3791 20.8182 43.3273 20.5776C51.852 20.0667 60.3792 19.4956 68.9116 19.1118C76.1085 18.7061 83.3235 18.6413 90.5277 18.9175C97.572 19.2723 104.616 19.6217 111.652 20.083ZM-14.7093 31.2861C-8.4221 31.2039 -2.13459 30.9154 4.1345 30.5153C13.1376 29.9405 22.1221 29.132 31.1017 28.3086C39.1056 27.5747 47.1089 26.8255 55.1256 26.2121C62.4629 25.651 69.7854 24.9663 77.118 24.3592C83.6727 23.8164 90.2384 23.3471 96.8196 23.1903C106.367 22.9353 115.92 23.4841 125.359 24.8299C137.382 26.6771 149.218 29.4399 160.744 33.0898C172.872 36.8078 184.454 41.8998 196.463 45.9454C198.593 45.9404 200.723 45.9349 202.854 45.9288C196.101 43.771 189.391 41.4984 182.701 39.1782C175.739 36.7636 168.775 34.3502 161.711 32.1968C151.449 29.0159 140.93 26.587 130.251 24.933C120.978 23.5586 111.603 22.8414 102.21 22.7876C94.6624 22.7254 87.1201 23.0292 79.5905 23.4866C71.408 23.9838 63.2353 24.6511 55.0637 25.2762C43.9248 26.1283 32.7914 27.0349 21.6442 27.7881C9.58876 28.6025 -2.51405 29.2529 -14.6107 29.4186C-14.6451 30.0443 -14.678 30.6668 -14.7093 31.2861ZM163.147 40.0969C159.178 38.5155 155.122 37.1274 150.994 35.9381C144.169 34.1076 137.188 32.8074 130.125 32.051C123.731 31.3088 117.295 30.8708 110.86 30.5612C89.0564 29.6707 67.2165 29.8645 45.4359 31.1417C25.206 32.1805 5.2473 35.8157 -14.949 37.1699C-14.9696 37.8556 -14.9866 38.5252 -15 39.1789C-10.1013 38.9007 -5.2093 38.5334 -0.324008 38.0772C6.54294 37.4452 13.3899 36.6667 20.2348 35.8599C26.795 35.0868 33.3526 34.2923 39.9222 33.5867C46.8699 32.8401 53.8263 32.1964 60.8037 31.7298C77.4564 30.6314 94.1702 30.5526 110.834 31.4938C117.096 31.8393 123.359 32.1522 129.602 32.734C136.834 33.3057 143.99 34.515 150.971 36.3452C155.065 37.4845 159.12 38.7489 163.147 40.0969ZM163.675 45.9963C148.61 41.4678 132.958 38.7982 117.128 38.0576C104.303 37.6889 91.4655 38.0417 78.6873 39.114C65.3385 40.1242 52.0313 41.587 38.7272 42.9975C30.1095 43.9108 21.4873 44.8074 12.8497 45.552C18.288 45.5852 23.7232 45.6169 29.1553 45.6468C32.1048 45.3163 35.0531 44.9791 38.0001 44.635C51.6257 43.0531 65.2526 41.3839 78.9249 40.1861C91.6 38.9368 104.352 38.4748 117.095 38.8032C123.973 39.1136 130.808 39.9683 137.526 41.358C143.814 42.6097 150.036 44.2024 156.169 46C158.672 45.9993 161.174 45.9981 163.675 45.9963Z" fill="#B7805C"/>
</g>
<g style="mix-blend-mode:multiply" opacity="0.5">
<path fill-rule="evenodd" clip-rule="evenodd" d="M347 44.9452C226.269 44.0278 106.715 40.7258 -14.9894 41.0182C-15.0101 42.6522 -15.0011 44.1362 -14.9565 45.4061C106.449 46.2148 225.899 46.3201 347 44.9452Z" fill="#683C11"/>
</g>
<path fill-rule="evenodd" clip-rule="evenodd" d="M380.522 106.803C248.888 109.229 105.681 107.928 -20.9791 103.252C-21.1737 99.1774 -19.9822 84.9501 -18.5126 71.2958C-12.2484 69.5862 -5.84693 68.3444 0.630592 67.5822C-5.61376 67.4513 -11.8643 67.5002 -18.1209 67.7288C-17.4117 59.4284 -16.1943 51.1721 -14.4744 43C117.829 43 328.572 46.196 378.609 47.6163C380.147 60.6432 380.93 73.7373 380.955 86.842C377.569 86.8014 374.182 86.6279 370.804 86.3772C374.103 87.7018 377.507 88.7901 380.986 89.6326C381.05 97.5937 380.897 104.148 380.522 106.803Z" fill="url(#paint3_radial_3409_18860)"/>
<g style="mix-blend-mode:multiply" opacity="0.4">
<path fill-rule="evenodd" clip-rule="evenodd" d="M-16.0981 52.3467C-6.10311 51.6684 3.94468 52.0903 13.8298 53.6035C21.2539 54.6305 28.6241 56.0416 35.926 57.6344C43.681 59.3256 51.3825 61.2297 59.058 63.1997C66.7049 65.1627 74.4281 67.0956 82.2146 68.5365C88.7206 69.8045 95.3412 70.5166 101.991 70.6637C108.55 70.7313 115.096 70.1111 121.501 68.8152C129.299 67.186 136.938 64.9744 144.341 62.2025C149.376 60.3703 154.253 58.1936 158.93 55.6906C164.287 53.0964 168.991 49.5044 172.741 45.1459C170.546 45.121 168.348 45.0964 166.147 45.072C163.84 48.1336 160.87 50.7282 157.422 52.6946C141.161 62.9041 121.911 68.3779 102.193 68.3987C87.5038 68.4659 73.5276 65.2786 59.3126 62.3041C51.6672 60.7043 44.119 58.831 36.5546 56.9435C29.7637 55.2493 22.9609 53.5584 16.0696 52.2351C9.65396 50.9729 3.14704 50.1371 -3.40027 49.7344C-7.48787 49.503 -11.5857 49.4624 -15.6778 49.6129C-15.8141 50.4568 -15.9545 51.371 -16.0981 52.3467ZM-18.1244 68.2736C-4.79442 67.7906 8.55583 68.1186 21.8383 69.2552C28.5869 69.8327 35.3076 70.6097 42.0127 71.5123C48.3269 72.3625 54.6215 73.322 60.9162 74.2848C71.9019 75.9651 82.8735 77.6304 93.9572 78.6849C98.3112 79.0991 102.672 79.5302 107.038 79.8298C110.696 80.1041 114.367 80.2058 118.036 80.1344C126.069 79.8166 134.024 78.5465 141.7 76.3561C146.689 75.0291 151.652 73.5263 156.559 71.9612C162.795 69.9717 168.977 67.8352 175.102 65.5517C178.063 64.4416 181.003 63.2864 183.923 62.0862C188.815 60.106 193.591 57.8938 198.231 55.4586C201.814 53.6586 205.139 51.457 208.128 48.9047C209.169 47.9531 210.033 46.8518 210.685 45.6445L210.707 45.6015C209.043 45.5803 207.38 45.5591 205.707 45.5382C205.162 46.4528 204.476 47.2909 203.67 48.0267C200.957 50.4567 197.997 52.6435 194.829 54.5573C190.741 57.0777 186.425 59.2731 181.928 61.1195C175.81 63.637 169.643 66.0725 163.401 68.3226C158.149 70.2161 152.833 71.9811 147.438 73.5071C138.392 76.1443 129.051 77.8441 119.591 78.5747C110.869 79.1125 102.113 78.9369 93.4259 78.0499C82.6293 77.0537 71.8292 75.4241 61.1281 73.7875C54.7868 72.8177 48.4654 71.742 42.1321 70.7309C35.4182 69.6588 28.695 68.6633 21.9331 67.8763C14.539 67.0158 7.12327 66.4086 -0.324339 66.1232C-6.17203 65.8993 -12.0197 65.8721 -17.8673 66.0414C-17.9534 66.7794 -18.039 67.5234 -18.1244 68.2736ZM-19.6426 82.8156C-1.42773 82.4769 16.7908 83.2971 34.8815 85.2702C47.4133 86.5337 59.9017 88.1255 72.3872 89.7164C80.3871 90.7358 88.3609 91.8896 96.3879 92.7293C105.653 93.8723 115.022 94.1456 124.348 93.5451C129.428 93.0619 134.454 92.1768 139.368 90.8997C144.638 89.581 149.826 87.957 154.942 86.2069C163.553 83.2619 171.975 79.9192 180.506 76.7958C191.27 72.8542 202.007 68.8487 212.837 65.0591C222.417 61.7072 244.168 53.9955 253.875 46.1825L249.177 46.116C248.152 46.8857 247.085 47.6053 245.978 48.272C243.867 49.5589 241.643 50.7184 239.404 51.8067C237.251 52.8526 235.058 53.8313 232.845 54.7646C228.647 56.5356 224.367 58.1493 220.061 59.6852C216.823 60.8407 213.564 61.9349 210.318 63.0706C204.12 65.2395 197.994 67.6217 191.898 70.0201C185.076 72.7032 178.277 75.4307 171.444 78.0876C163.208 81.2902 154.903 84.4207 146.475 87.1737C142.64 88.4262 138.767 89.6025 134.853 90.6295C131.39 91.5587 127.874 92.3175 124.322 92.9028C114.584 94.0671 104.708 93.8655 95.036 92.3052C87.519 91.3371 80.0573 90.0409 72.5417 89.083C66.017 88.2517 59.5039 87.3445 52.9915 86.4383C40.0348 84.6352 27.0709 82.8341 14.0262 81.6402C2.92563 80.5684 -8.23553 80.1112 -19.3963 80.2708C-19.4807 81.127 -19.5628 81.9753 -19.6426 82.8156ZM-20.4882 92.5611C-7.5474 92.6035 5.39636 92.7952 18.3151 93.5209C39.8999 94.7333 61.0543 98.9921 82.4084 101.834C91.8433 103.17 101.359 103.976 110.901 104.248C118.689 104.427 126.479 103.971 134.178 102.884C141.917 101.712 149.557 100.046 157.041 97.8975C166.218 95.3419 175.292 92.3677 184.321 89.4049C209.43 81.1638 234.732 73.3826 260.322 66.4814C264.283 65.413 268.299 64.4959 272.314 63.6162C276.568 62.6845 280.833 61.7972 285.086 60.8646C290.342 59.712 295.599 58.495 300.758 57.02C305.483 55.7301 310.077 54.0709 314.492 52.0606C315.046 51.7991 315.595 51.5258 316.136 51.2409C318.241 50.177 320.162 48.8329 321.836 47.2526C320.16 47.2234 318.461 47.194 316.737 47.1642C315.01 48.7864 312.981 50.114 310.746 51.0849C306.47 53.0297 302.019 54.6321 297.441 55.8741C292.473 57.2875 287.413 58.4556 282.354 59.5627C278.288 60.4527 274.21 61.2999 270.144 62.1896C266.354 63.0189 262.563 63.8831 258.825 64.8909C234.208 71.5295 209.867 79.0087 185.713 86.9363C179.845 88.8619 174.019 90.8812 168.174 92.8611C162.918 94.6413 157.645 96.3822 152.297 97.9177C146.315 99.6531 140.226 101.065 134.063 102.147C123.401 103.948 112.532 104.499 101.719 103.787C91.5101 103.058 81.3645 101.718 71.3471 99.7758C62.5823 98.177 53.8617 96.3825 45.0781 94.8684C36.1787 93.2607 27.1781 92.1638 18.1292 91.584C5.3363 90.8656 -7.45441 90.0402 -20.2705 89.8425C-20.3482 90.7778 -20.4214 91.6867 -20.4882 92.5611ZM380.95 84.1542C376.104 84.3273 371.245 84.2893 366.447 84.1426C355.757 83.8158 345.074 82.9285 334.422 82.0624C325.649 81.3485 316.863 80.6102 308.069 80.152C300.234 79.6953 292.377 79.623 284.534 79.9354C277.081 80.2688 269.667 81.1175 262.354 82.4742C254.104 84.0467 245.992 86.1702 238.082 88.8278C232.841 90.5643 227.57 92.2231 222.211 93.6308C216.992 95.0011 211.697 96.12 206.35 96.9828C195.904 98.671 185.71 101.21 175.496 103.789C170.441 105.065 165.385 106.34 160.309 107.522C163.03 107.552 165.753 107.581 168.477 107.608C174.584 106.249 180.671 104.816 186.784 103.479C193.315 102.05 199.868 100.736 206.481 99.6675C211.842 98.8024 217.15 97.6808 222.383 96.3073C227.777 94.8913 233.083 93.2226 238.358 91.4751C246.399 88.7723 254.62 86.5422 262.972 84.7981C270.393 83.2794 277.923 82.2492 285.504 81.7154C301.8 80.9106 318.141 81.3382 334.36 82.9937C345.058 83.8638 355.676 85.3368 366.359 86.3013C371.222 86.7403 376.111 87.0714 381 87.129C380.987 86.1516 380.97 85.16 380.95 84.1542ZM53.1945 105.593C41.1791 104.058 29.1601 102.568 17.0858 101.464C4.45133 100.308 -8.23235 99.5874 -20.9301 99.5073C-20.9685 100.376 -20.992 101.144 -21 101.805C-8.99583 101.879 2.99746 102.526 14.947 103.575C19.502 103.976 24.05 104.427 28.5909 104.929C36.7444 105.164 44.9457 105.385 53.1945 105.593ZM380.876 102.836C377.762 102.87 374.649 102.72 371.556 102.389C364.921 101.531 358.365 100.228 351.939 98.4895C341.602 96.0572 330.949 94.9337 320.278 95.1505C309.094 95.3442 297.937 96.2523 286.891 97.8684C278.365 99.0362 269.882 100.454 261.406 101.896C253.293 103.276 245.18 104.688 237.031 105.879C232.498 106.541 227.972 107.237 223.45 107.966C229.854 107.985 236.255 107.996 242.655 108C251.088 106.592 259.41 104.828 267.762 102.996C277.003 100.97 286.258 98.8925 295.648 97.5175C304.318 96.1859 313.115 95.674 321.9 95.9898C331.962 96.456 341.922 98.0618 351.552 100.771C358.007 102.694 364.613 104.164 371.313 105.165C374.419 105.558 377.551 105.757 380.687 105.761C380.761 104.963 380.825 103.981 380.876 102.836ZM34.7644 44C37.0341 44.5486 39.3108 45.0776 41.5834 45.61C48.5746 47.2483 55.5528 48.9024 62.4901 50.723L62.8529 50.818C70.2227 52.7523 77.6078 54.6835 85.1161 56.1211C90.6817 57.357 96.3471 58.1795 102.057 58.5807C113.98 59.4413 125.821 56.1679 135.23 49.4099C137.373 48.0355 139.383 46.4961 141.239 44.8085L139.186 44.7876C133.03 50.0247 125.802 54.0941 117.919 56.7614C113.124 57.9004 108.163 58.3413 103.218 58.0678C97.9607 57.7924 92.7397 57.0982 87.6141 55.9932C73.9695 53.1886 60.9791 48.0899 47.5038 44.7002C46.6372 44.482 45.7698 44.2651 44.9017 44.0493C41.4963 44.0314 38.1172 44.015 34.7644 44ZM95.6462 47.3655C97.6861 47.83 99.7567 48.1736 101.845 48.3942C103.723 48.5998 105.616 48.6693 107.506 48.6021C109.377 48.5385 111.24 48.3362 113.075 47.9972C114.257 47.7649 115.398 47.3835 116.466 46.8639C117.532 46.347 118.551 45.7518 119.512 45.0843C119.741 44.928 119.967 44.7683 120.19 44.6052L118.518 44.5896C115.733 45.9121 112.65 46.6255 109.512 46.6738C104.227 46.7061 98.9722 45.9303 93.9655 44.3784C91.8618 44.3615 89.7615 44.345 87.6647 44.3288C88.3055 44.7409 88.9814 45.1051 89.686 45.418C91.5964 46.2483 93.5932 46.9008 95.6462 47.3655Z" fill="#B7805C"/>
</g>
<path style="mix-blend-mode:multiply" opacity="0.75" fill-rule="evenodd" clip-rule="evenodd" d="M238.023 91.2895C232.737 93.0603 227.421 94.7513 222.016 96.1862C216.772 97.578 211.454 98.7146 206.082 99.5913C199.455 100.674 192.888 102.005 186.344 103.453C180.219 104.808 174.12 106.26 168 107.638C186.328 107.823 204.69 107.944 223.086 108C227.617 107.267 232.152 106.562 236.693 105.885C244.859 104.679 252.989 103.248 261.119 101.849C269.611 100.388 278.111 98.9515 286.655 97.7681C297.724 96.1305 308.903 95.2102 320.11 95.014C330.803 94.7943 341.477 95.9327 351.835 98.3975C358.274 100.159 364.844 101.48 371.492 102.349C374.592 102.685 377.711 102.836 380.831 102.802C380.977 99.4967 381.028 94.8875 380.986 89.6751C377.5 88.8329 374.089 87.7449 370.782 86.4207C369.281 86.3097 367.782 86.185 366.284 86.0467C355.58 85.0693 344.94 83.5767 334.221 82.695C317.969 81.0173 301.595 80.5841 285.266 81.3996C277.669 81.9405 270.123 82.9844 262.687 84.5234C254.319 86.2907 246.081 88.5507 238.023 91.2895Z" fill="url(#paint4_radial_3409_18860)"/>
<path style="mix-blend-mode:multiply" opacity="0.75" fill-rule="evenodd" clip-rule="evenodd" d="M185.979 86.8198C210.132 78.8794 234.472 71.3881 259.089 64.7387C262.827 63.7292 266.618 62.8637 270.408 62.033C274.474 61.1419 278.551 60.2933 282.618 59.4019C287.676 58.2929 292.736 57.123 297.704 55.7073C302.282 54.4632 306.733 52.8583 311.008 50.9103C313.244 49.9379 315.273 48.6081 317 46.9833C298.411 46.6629 277.114 46.3283 254.139 46C244.432 53.8256 222.681 61.5498 213.102 64.9072C202.273 68.7029 191.536 72.7149 180.772 76.6629C172.241 79.7914 163.82 83.1395 155.209 86.0892C150.093 87.8422 144.904 89.4688 139.635 90.7897C134.721 92.0688 129.695 92.9553 124.615 93.4393C115.289 94.0409 105.921 93.7671 96.6556 92.6222C88.6288 91.7812 80.6552 90.6255 72.6555 89.6045C60.1703 88.011 47.6822 86.4166 35.1507 85.1511C17.0604 83.1748 -1.15772 82.3532 -19.3722 82.6924C-19.6048 85.1458 -19.8167 87.5159 -20 89.7308C-7.18425 89.9288 5.60616 90.7555 18.3988 91.4751C27.4475 92.0558 36.4478 93.1545 45.3471 94.7648C54.1304 96.2813 62.8508 98.0788 71.6154 99.6802C81.6325 101.626 91.7779 102.968 101.986 103.698C112.8 104.411 123.668 103.859 134.33 102.056C140.493 100.972 146.581 99.5573 152.564 97.8191C157.911 96.281 163.185 94.5374 168.44 92.7542C174.285 90.7711 180.111 88.7485 185.979 86.8198Z" fill="url(#paint5_radial_3409_18860)"/>
<path style="mix-blend-mode:multiply" opacity="0.75" fill-rule="evenodd" clip-rule="evenodd" d="M182.176 61.1C186.681 59.2391 191.005 57.0263 195.101 54.4859C198.275 52.557 201.241 50.3528 203.96 47.9036C204.567 47.3429 205.109 46.7244 205.575 46.0585C205.727 45.8406 205.868 45.6196 206 45.3954C195.151 45.259 184.112 45.1265 172.971 45C172.716 45.3781 172.431 45.7538 172.122 46.1266C168.42 49.9594 164.026 53.174 159.134 55.6282C154.448 58.1509 149.562 60.3449 144.517 62.1916C137.1 64.9854 129.447 67.2146 121.634 68.8567C115.217 70.1628 108.658 70.7879 102.087 70.7198C95.4241 70.5716 88.7909 69.8538 82.2725 68.5757C74.4712 67.1234 66.7333 65.1752 59.0718 63.1967C51.3817 61.2111 43.6655 59.292 35.8958 57.5874C28.58 55.9819 21.1957 54.5597 13.7575 53.5245C3.85351 51.9994 -6.21341 51.5741 -16.2274 52.2578C-16.793 56.1228 -17.4054 60.9328 -18 66.0609C-12.1434 65.8918 -6.28459 65.9193 -0.42364 66.1433C7.03816 66.431 14.4681 67.043 21.8762 67.9103C28.651 68.7035 35.387 69.707 42.1136 70.7875C48.459 71.8066 54.7925 72.8909 61.1459 73.8683C71.8673 75.5178 82.688 77.1603 93.5052 78.1644C102.209 79.0585 110.982 79.2355 119.72 78.6934C129.198 77.957 138.557 76.2438 147.62 73.5856C153.025 72.0476 158.351 70.2686 163.614 68.3601C169.867 66.0923 176.046 63.6375 182.176 61.1Z" fill="url(#paint6_radial_3409_18860)"/>
<path style="mix-blend-mode:multiply" opacity="0.75" fill-rule="evenodd" clip-rule="evenodd" d="M180.79 16.6849C191.339 19.7813 201.924 22.8112 212.664 25.2938C218.171 26.5664 223.712 27.6906 229.286 28.6664C235.537 29.7601 241.822 30.67 248.125 31.4587C278.342 35.2397 308.884 35.5743 339.311 36.5358C352.201 36.9433 365.103 36.8624 378 37C377.982 35.2082 377.94 33.2874 377.876 31.2922C373.477 31.0769 369.097 30.6037 364.762 29.8753C357.298 28.5504 349.722 27.8387 342.123 27.7485C335.971 27.684 329.834 28.0193 323.706 28.4915C315.811 29.1248 307.87 29.0806 299.983 28.3596C293.28 27.6755 286.628 26.6175 280.062 25.1914C274.973 24.1319 269.909 22.9743 264.816 21.9282C259.221 20.7787 253.614 19.7753 247.936 19.0376C243.86 18.5073 239.772 18.0898 235.672 17.7485C231.909 17.435 228.141 17.1846 224.372 16.9259C218.84 16.546 213.325 16.1318 207.819 15.4962C201.312 14.7447 194.882 13.6953 188.486 12.3639C170.561 8.63286 152.638 4.65181 134.401 2.44548C130.424 1.96454 126.447 1.4827 122.47 0.999977C88.1465 1.54266 55.543 2.19142 26.2679 2.88882L26.0594 2.92472C19.886 3.9856 13.7043 4.89916 7.46036 5.52407C0.825373 6.18792 -5.8411 6.45034 -12.5061 6.7289C-12.6712 7.79884 -12.8371 9.04802 -13 10.4334C2.73135 10.1864 18.4509 9.59506 34.1585 8.65937C40.7247 8.25764 47.1769 7.01519 53.6989 6.27482C59.8306 5.58019 65.9989 5.19904 72.1758 5.13308C77.9629 5.06898 83.7397 5.27436 89.513 5.64824C99.9928 6.32652 110.439 7.52264 120.894 8.46337C129.728 9.2581 138.63 8.99869 147.457 9.85418C152.787 10.3513 158.084 11.1188 163.324 12.1535C167.544 13.0019 171.673 14.0621 175.799 15.2358C177.466 15.7093 179.127 16.1973 180.79 16.6849Z" fill="url(#paint7_radial_3409_18860)"/>
<path style="mix-blend-mode:multiply" opacity="0.75" fill-rule="evenodd" clip-rule="evenodd" d="M213.728 5.83402C231.172 8.13649 248.673 9.98921 266.197 11.6636C280.927 13.071 295.724 13.9243 310.518 14.4217C332.67 15.1661 354.84 15.1089 377 14.7157C376.649 10.6457 376.226 6.88928 375.746 3.89679C353.535 5.07763 331.296 5.81418 309.05 5.32233C288.559 4.86916 268.053 4.16203 247.619 2.59819C238.777 1.92185 229.935 1.08636 221.135 -1.41177e-05C206.686 0.120465 192.274 0.26697 178 0.435709C189.868 2.46162 201.777 4.26104 213.728 5.83402Z" fill="url(#paint8_radial_3409_18860)"/>
<g style="mix-blend-mode:screen" opacity="0.2">
<path fill-rule="evenodd" clip-rule="evenodd" d="M275.782 25.1888C294.468 29.0077 298.716 29.6244 314 28.4908C309.289 28.5457 304.578 28.3665 299.891 27.9541C293.154 27.3048 286.468 26.3008 279.869 24.9473C274.754 23.9418 269.665 22.8432 264.547 21.8504C258.924 20.7595 253.288 19.8072 247.582 19.1071C243.485 18.6039 239.377 18.2076 235.256 17.8837C231.474 17.5862 227.687 17.3486 223.9 17.103C218.34 16.7425 212.797 16.3494 207.262 15.7462C201.12 15.0764 195.032 14.161 189 13C198.409 15.2584 208.024 16.7994 217.736 17.6057C230.967 18.6074 240.355 18.2975 253.738 20.8073C261.105 22.1893 268.444 23.6892 275.782 25.1888Z" fill="#CA9E67"/>
</g>
<g style="mix-blend-mode:screen" opacity="0.2">
<path fill-rule="evenodd" clip-rule="evenodd" d="M139.31 90.7618C134.407 91.9883 129.393 92.8384 124.323 93.3026C115.018 93.8794 105.67 93.6168 96.4252 92.519C88.416 91.7126 80.4599 90.6044 72.4777 89.6253C60.0199 88.0973 47.5592 86.5684 35.0552 85.355C29.7073 84.836 24.3556 84.3843 19 84C36.6751 85.7645 54.2513 87.7908 71.8795 90.121C86.0023 91.988 100.301 95 114.645 95C131.232 95 143.3 90.9898 157 85.5381C156.284 85.7795 155.568 86.0183 154.85 86.2546C149.745 87.9355 144.568 89.4952 139.31 90.7618Z" fill="#CA9E67"/>
</g>
<g style="mix-blend-mode:screen" opacity="0.2">
<path fill-rule="evenodd" clip-rule="evenodd" d="M175.296 65.2942C169.154 67.5924 162.942 69.7352 156.66 71.7226C151.729 73.2923 146.741 74.7995 141.727 76.1304C134.012 78.3274 126.017 79.6012 117.944 79.92C114.256 79.9915 110.567 79.8896 106.891 79.6145C102.503 79.3139 98.1199 78.8816 93.7441 78.4662C83.4334 77.4869 73.2191 75.9833 63 74.4286C83.5636 78.3556 106.241 82.1963 124.97 80.6492C128.933 79.9057 132.849 78.9674 136.701 77.8383C138.786 77.8793 140.872 77.8207 142.95 77.6626C149.54 75.8625 156.023 73.7514 162.373 71.3378C180.024 65.0053 193.501 60.288 204 52C202.207 53.1626 200.32 54.2232 198.542 55.1712C193.878 57.6137 189.079 59.8324 184.162 61.8185C181.231 63.0265 178.276 64.1851 175.296 65.2942Z" fill="#CA9E67"/>
</g>
<g style="mix-blend-mode:screen" opacity="0.2">
<path fill-rule="evenodd" clip-rule="evenodd" d="M256.78 68.8546C260.922 67.8152 264.79 65.9587 268.914 64.8531C274.199 63.436 279.614 62.4796 284.966 61.2964C297.425 58.5407 302.104 57.7931 311 53C307.676 54.3324 304.274 55.4926 300.812 56.4751C295.659 57.9726 290.409 59.2083 285.16 60.3784C280.913 61.3253 276.653 62.2262 272.405 63.1721C268.395 64.0652 264.384 64.9963 260.428 66.0811C234.871 73.0877 209.603 80.9878 184.526 89.3547C177.718 91.6261 170.884 93.9035 164 96C187.005 89.8771 209.968 82.7545 232.511 75.4346C235.338 74.5166 237.926 73.04 240.728 72.0557C246.008 70.7022 251.367 69.6334 256.78 68.8546Z" fill="#CA9E67"/>
</g>
<defs>
<linearGradient id="paint0_linear_3409_18860" x1="379" y1="42.5" x2="-15" y2="42.5" gradientUnits="userSpaceOnUse">
<stop stop-color="#7D4619"/>
<stop offset="1" stop-color="#522913"/>
</linearGradient>
<linearGradient id="paint1_linear_3409_18860" x1="181" y1="-6.00003" x2="181" y2="3.99998" gradientUnits="userSpaceOnUse">
<stop stop-color="#522913"/>
<stop offset="1" stop-color="#7D4619"/>
</linearGradient>
<radialGradient id="paint2_radial_3409_18860" cx="0" cy="0" r="1" gradientUnits="userSpaceOnUse" gradientTransform="translate(277.278 170.609) rotate(-180) scale(352.937 322.755)">
<stop stop-color="#D68E53"/>
<stop offset="1" stop-color="#733E23"/>
</radialGradient>
<radialGradient id="paint3_radial_3409_18860" cx="0" cy="0" r="1" gradientUnits="userSpaceOnUse" gradientTransform="translate(244.962 186.934) rotate(-180) scale(388.299 360.379)">
<stop stop-color="#D68E53"/>
<stop offset="1" stop-color="#733E23"/>
</radialGradient>
<radialGradient id="paint4_radial_3409_18860" cx="0" cy="0" r="1" gradientUnits="userSpaceOnUse" gradientTransform="translate(367.909 299.458) rotate(-180) scale(400.032 370.349)">
<stop stop-color="#CFA04D"/>
<stop offset="1" stop-color="white"/>
</radialGradient>
<radialGradient id="paint5_radial_3409_18860" cx="0" cy="0" r="1" gradientUnits="userSpaceOnUse" gradientTransform="translate(119.937 -133.321) rotate(-180) scale(332.11 304.537)">
<stop stop-color="#CFA04D"/>
<stop offset="1" stop-color="white"/>
</radialGradient>
<radialGradient id="paint6_radial_3409_18860" cx="0" cy="0" r="1" gradientUnits="userSpaceOnUse" gradientTransform="translate(15.467 -69.1593) rotate(-180) scale(304.89 280.792)">
<stop stop-color="#CFA04D"/>
<stop offset="1" stop-color="white"/>
</radialGradient>
<radialGradient id="paint7_radial_3409_18860" cx="0" cy="0" r="1" gradientUnits="userSpaceOnUse" gradientTransform="translate(258.757 -146.821) rotate(-180) scale(346.68 321.346)">
<stop stop-color="#CFA04D"/>
<stop offset="1" stop-color="white"/>
</radialGradient>
<radialGradient id="paint8_radial_3409_18860" cx="0" cy="0" r="1" gradientUnits="userSpaceOnUse" gradientTransform="translate(334.122 -135.208) rotate(-180) scale(348.662 329.045)">
<stop stop-color="#CFA04D"/>
<stop offset="1" stop-color="white"/>
</radialGradient>
</defs>
</svg>
