<svg width="39" height="41" viewBox="0 0 39 41" fill="none" xmlns="http://www.w3.org/2000/svg">
<path d="M14.5246 1.49213L10.1982 8.98566L17.6917 13.312M4.93957 18.5554C4.42219 21.8004 5.02859 25.1249 6.65835 27.9783C8.28812 30.8318 10.8435 33.043 13.9014 34.246C16.9594 35.4491 20.3365 35.5717 23.4736 34.5935C26.6107 33.6154 29.3197 31.5952 31.1521 28.8675C32.9844 26.1397 33.8303 22.868 33.5496 19.5939C33.2688 16.3199 31.8784 13.2399 29.6084 10.8639C27.3384 8.48785 24.3251 6.95833 21.0673 6.52852C17.8094 6.09871 14.5025 6.7944 11.694 8.50041" stroke="#E6E7F2" stroke-width="2" stroke-linecap="round" stroke-linejoin="round"/>
<path d="M12.1729 19.5803V18.5003C12.7969 18.5083 13.3249 18.4043 13.7569 18.1883C14.2369 17.9403 14.5249 17.5803 14.6209 17.1083H15.7369V25.5083H14.2369V19.5803H12.1729ZM18.7808 21.7043L19.6808 17.1083H24.0248V18.3323H20.7008L20.2688 20.4683L20.2928 20.4923C20.6768 20.0683 21.1928 19.8563 21.8408 19.8563C22.6568 19.8563 23.3048 20.1243 23.7848 20.6603C24.2408 21.1723 24.4688 21.8403 24.4688 22.6643C24.4688 23.4403 24.2448 24.1083 23.7968 24.6683C23.2608 25.3403 22.5168 25.6763 21.5648 25.6763C20.7248 25.6763 20.0408 25.4603 19.5128 25.0283C18.9528 24.5723 18.6568 23.9363 18.6248 23.1203H19.9928C20.0328 23.5683 20.1888 23.9163 20.4608 24.1643C20.7328 24.4123 21.0928 24.5363 21.5408 24.5363C22.5808 24.5363 23.1008 23.9203 23.1008 22.6883C23.1008 22.1923 22.9728 21.7843 22.7168 21.4643C22.4288 21.1123 22.0248 20.9363 21.5048 20.9363C20.7928 20.9363 20.3408 21.1923 20.1488 21.7043H18.7808Z" fill="#E6E7F2"/>
</svg>
