<svg width="40" height="41" viewBox="0 0 40 41" fill="none" xmlns="http://www.w3.org/2000/svg">
<path d="M25.2842 1.49213L29.6106 8.98566L22.1171 13.312M34.8693 18.5554C35.3866 21.8004 34.7802 25.1249 33.1505 27.9783C31.5207 30.8318 28.9653 33.043 25.9074 34.246C22.8495 35.4491 19.4724 35.5717 16.3352 34.5935C13.1981 33.6154 10.4891 31.5952 8.65676 28.8675C6.82439 26.1397 5.97855 22.868 6.25927 19.5939C6.53999 16.3199 7.93045 13.2399 10.2004 10.8639C12.4704 8.48785 15.4837 6.95833 18.7416 6.52852C21.9994 6.09871 25.3063 6.7944 28.1149 8.50041" stroke="#E6E7F2" stroke-width="2" stroke-linecap="round" stroke-linejoin="round"/>
<path d="M12.9946 19.5803V18.5003C13.6186 18.5083 14.1466 18.4043 14.5786 18.1883C15.0586 17.9403 15.3466 17.5803 15.4426 17.1083H16.5586V25.5083H15.0586V19.5803H12.9946ZM19.6026 21.7043L20.5026 17.1083H24.8466V18.3323H21.5226L21.0906 20.4683L21.1146 20.4923C21.4986 20.0683 22.0146 19.8563 22.6626 19.8563C23.4786 19.8563 24.1266 20.1243 24.6066 20.6603C25.0626 21.1723 25.2906 21.8403 25.2906 22.6643C25.2906 23.4403 25.0666 24.1083 24.6186 24.6683C24.0826 25.3403 23.3386 25.6763 22.3866 25.6763C21.5466 25.6763 20.8626 25.4603 20.3346 25.0283C19.7746 24.5723 19.4786 23.9363 19.4466 23.1203H20.8146C20.8546 23.5683 21.0106 23.9163 21.2826 24.1643C21.5546 24.4123 21.9146 24.5363 22.3626 24.5363C23.4026 24.5363 23.9226 23.9203 23.9226 22.6883C23.9226 22.1923 23.7946 21.7843 23.5386 21.4643C23.2506 21.1123 22.8466 20.9363 22.3266 20.9363C21.6146 20.9363 21.1626 21.1923 20.9706 21.7043H19.6026Z" fill="#E6E7F2"/>
</svg>
