<svg width="153" height="71" viewBox="0 0 153 71" fill="none" xmlns="http://www.w3.org/2000/svg">
<g filter="url(#filter0_d_738_3120)">
<path fill-rule="evenodd" clip-rule="evenodd" d="M9.38651 7.26016C31.4779 6.42212 54.2408 5.99701 76.3501 6.00002C98.4035 6.00285 121.324 6.42795 143.458 7.28386C144.492 7.77691 145.379 8.68666 145.992 9.88163C146.115 10.7559 146.224 11.6786 146.323 12.6437C144.404 12.7604 142.499 13.1294 140.638 13.7452C142.583 13.6648 144.531 13.7919 146.461 14.1253C146.838 18.9729 147.018 23.8433 146.999 28.7159C145.21 28.5568 143.416 28.9167 141.746 29.7696C142.518 29.7954 146.732 29.9336 146.997 30.0163C146.942 40.2878 146.467 50.5482 145.573 60.7534C144.923 61.9073 144.086 62.8576 143.12 63.5353C101.494 65.5325 44.2836 65.4376 9.87568 63.5532C8.92383 62.8768 8.09629 61.9377 7.45067 60.8011C6.89029 55.359 6.44932 48.589 6.20717 41.5289C6.19374 41.1407 7.09972 40.2811 9.48228 39.5777C8.45906 39.4778 6.14874 39.691 6.13928 39.3549C6.04799 36.117 5.99979 32.8404 6.0017 29.624C6.00209 29.2874 7.84817 29.0966 8.25308 29.0862C7.58466 28.8015 6.00707 28.0019 6.00925 27.6962C6.00726 21.7239 6.29868 15.7576 6.88172 9.83406C7.53668 8.71344 8.39844 7.82789 9.38651 7.26016Z" fill="url(#paint0_linear_738_3120)"/>
<path fill-rule="evenodd" clip-rule="evenodd" d="M6.89349 39.0712C9.13618 39.0774 11.3768 39.2497 13.6045 39.5874C13.136 39.5852 12.667 39.5765 12.2013 39.6289C10.4099 39.7441 8.65043 40.2937 7.01291 41.2496C7.38023 47.5251 7.92847 53.463 8.56825 58.3939C9.26888 59.434 10.1185 60.2853 11.0692 60.8997C54.5552 62.1227 98.2007 62.1227 141.686 60.8997C142.647 60.3073 143.5 59.4529 144.187 58.3939C145.338 49.0418 146.004 39.599 146.182 30.1298C144.163 30.0796 142.156 30.1065 140.158 30.1949C140.515 30.0473 140.871 29.8987 141.227 29.7459C142.822 28.9727 144.507 28.5635 146.208 28.5361C146.276 23.6496 146.204 18.8241 145.954 14.3532C142.885 14.1187 139.807 14.2068 136.748 14.6167C139.678 13.3071 142.739 12.5651 145.833 12.4145C145.782 11.6673 145.724 10.9321 145.661 10.2089C145.104 9.02961 144.256 8.13335 143.256 7.6676C98.6969 5.9967 54.1114 5.9967 9.49954 7.6676C8.53895 8.22008 7.70869 9.09736 7.09447 10.2089C6.64529 15.8309 6.45747 21.4833 6.53204 27.135C7.90392 28.9355 12.8395 28.9376 15.8065 29.8562C12.8534 29.8841 9.82275 30.0834 6.57909 30.3694C6.63944 33.282 6.74684 36.2033 6.89349 39.0712Z" fill="url(#paint1_radial_738_3120)"/>
<g style="mix-blend-mode:multiply" opacity="0.5">
<path d="M98.5619 13.9653C97.6986 14.2108 96.8253 14.3919 95.9463 14.5078C95.1473 14.6169 94.3435 14.6537 93.5407 14.6182C92.7467 14.5845 91.9555 14.4771 91.1731 14.2969C90.6538 14.171 90.1487 13.9607 89.6694 13.671C89.2134 13.3954 88.7741 13.0752 88.3552 12.713C87.9094 12.3373 87.4891 11.9126 87.0986 11.4435C86.7462 11.0211 86.4307 10.549 86.1577 10.0359C85.8924 9.54021 85.6697 9.00787 85.4935 8.44853C85.308 7.87017 85.2155 7.24818 85.2216 6.62117C85.223 6.56006 85.2253 6.49845 85.2288 6.4365C85.5504 6.43817 85.8721 6.43989 86.1937 6.44167C86.181 6.54815 86.1734 6.65555 86.1709 6.76326C86.2096 7.64269 86.4529 8.48575 86.8684 9.1797C87.5552 10.3473 88.4473 11.2817 89.4691 11.9037C90.491 12.5258 91.6125 12.8171 92.7389 12.7533C94.9868 12.8519 98.5815 12.2156 100.322 10.4251C101.717 8.99018 101.728 7.68795 101 6.58443C102.21 6.60096 103.42 6.6189 104.631 6.63821L104.648 6.70833C104.766 7.24875 104.761 7.82269 104.633 8.35936C104.493 8.96248 104.267 9.52569 103.967 10.0194C103.587 10.6552 103.149 11.2275 102.662 11.7235C102.185 12.2123 101.66 12.6174 101.103 12.9284C100.281 13.3735 99.431 13.7206 98.5619 13.9653ZM145.954 14.354C145.813 14.3435 145.672 14.3328 145.532 14.3237L145.522 14.323C145.323 14.31 145.125 14.2983 144.928 14.2879L144.912 14.2872C144.714 14.2767 144.518 14.2678 144.323 14.2604L144.314 14.26C144.118 14.2524 143.923 14.246 143.729 14.241L143.72 14.2408C143.527 14.2358 143.336 14.2322 143.145 14.2298L143.129 14.2295C142.939 14.227 142.75 14.2257 142.562 14.2258L142.547 14.226C142.359 14.2261 142.172 14.2275 141.986 14.23L141.972 14.2301C141.786 14.2328 141.601 14.2365 141.417 14.2413L141.401 14.2418C141.217 14.2468 141.034 14.2529 140.852 14.26L140.836 14.2609C140.653 14.2681 140.471 14.2764 140.289 14.2861L140.279 14.2866C140.097 14.2961 139.916 14.3068 139.735 14.3186L139.724 14.3195C139.543 14.3315 139.363 14.3445 139.184 14.3584L139.176 14.359C138.995 14.3732 138.815 14.3885 138.635 14.4048L138.633 14.405C138.453 14.4215 138.273 14.4389 138.093 14.4572C137.915 14.4758 137.736 14.4954 137.558 14.5158L137.555 14.5162C137.378 14.5365 137.201 14.5581 137.026 14.5806L137.021 14.5811L137.017 14.5816C129.213 15.5776 122.51 18.4768 113.434 20.8476C107.461 22.4082 101.821 24.0235 95.7583 23.9889C87.7859 24.022 79.9548 21.2417 73.0925 15.9419C70.4816 13.9105 69.2084 12.0779 68.9799 10.2829C68.7882 8.95331 68.9842 7.57815 69.5293 6.42766C68.4952 6.43184 67.4611 6.43672 66.4268 6.44234C65.7386 7.7264 65.4445 9.30108 65.6027 10.8548C66.1472 15.1153 73.9493 19.7154 78.1574 21.6221C92.4427 28.0944 99.4795 26.7184 113.727 22.1522C125.576 18.355 136.795 15.3143 146.069 16.7284C146.036 15.9271 145.998 15.1356 145.954 14.354ZM146.22 22.7989C132.556 22.1949 122.429 24.9251 112.704 26.7819C91.332 30.8627 84.2908 31.2624 62.8828 20.2622C59.6612 18.6782 56.6578 16.4218 53.9899 13.5808C53.6318 13.2557 53.3354 12.8278 53.1234 12.33C52.9115 11.8321 52.7897 11.2775 52.7673 10.7086C52.7448 10.1398 52.8225 9.57179 52.9941 9.04816C53.1658 8.52453 53.427 8.0592 53.7577 7.68781C54.0236 7.36371 54.3721 6.97749 54.7853 6.54519C53.7358 6.55805 52.6864 6.57169 51.6372 6.58611C51.5298 6.70633 51.4302 6.82188 51.3405 6.93141C50.9106 7.45369 50.567 8.08526 50.3309 8.78731C50.1053 9.44744 49.9988 10.1663 50.0193 10.8887C50.0537 11.5775 50.2092 12.2466 50.4737 12.8443C50.7699 13.5244 51.1524 14.1339 51.6048 14.6469C53.5593 16.8947 57.4102 19.3195 61.7443 21.5541C67.4798 24.4513 73.3362 26.9224 79.2855 28.9553C87.3138 31.6214 91.0686 31.1414 99.2073 30.1747C103.902 29.6167 108.366 28.7645 112.917 27.8956C122.587 26.0492 132.659 24.1271 146.232 24.8229C146.231 24.1452 146.227 23.4705 146.22 22.7989ZM145.425 30.1146C145.211 30.1113 144.996 30.1088 144.782 30.1071C144.568 30.1056 144.353 30.1048 144.139 30.1048H144.133C143.92 30.1048 143.707 30.1056 143.494 30.1071H143.485C143.057 30.1106 142.629 30.1171 142.202 30.1265L142.199 30.1267C141.987 30.1315 141.776 30.137 141.564 30.1432H141.557L141.554 30.1434C141.341 30.1497 141.127 30.1567 140.914 30.1644L140.908 30.1646C140.696 30.1723 140.484 30.1808 140.272 30.1899C129.36 30.6608 118.718 32.9834 107.987 34.6909C101.27 35.7592 93.2405 37.9736 86.6548 36.6685C76.8478 34.7249 61.4099 25.765 51.1025 21.2617C47.0225 19.6147 43.0146 17.6772 39.0967 15.4581C33.0432 11.7853 32.1569 9.32131 34.5573 6.9042C32.9962 6.94094 31.4353 6.97967 29.8746 7.02041C29.5498 7.61244 29.3875 8.33021 29.4138 9.05769C29.4401 9.78516 29.6535 10.4798 30.0195 11.0293C32.6005 15.8082 45.0861 21.0472 49.7876 23.1013C54.2776 25.0629 58.7162 27.1305 63.1751 29.1689C70.2569 32.4065 79.0218 37.0591 86.5437 37.8607C93.3275 38.5837 101.341 36.9624 108.156 35.8784C120.759 33.8732 133.238 31.8879 146.13 32.3098C146.15 31.5835 146.167 30.857 146.182 30.1303L145.425 30.1146ZM146.039 35.0884C140.865 35.2046 135.74 35.6174 130.556 35.9809C114.148 37.1317 100.039 45.2135 82.6254 41.4509C75.1401 39.8336 69.494 36.9646 61.2876 33.6019C51.2903 29.5052 41.1814 25.6267 30.9809 22.1924C24.3788 19.9694 15.3279 18.4898 9.5402 15.0824C8.5331 14.5865 7.62872 13.79 6.89924 12.7564C6.83301 13.7458 6.77603 14.7538 6.7283 15.7806C7.02709 15.9849 7.33305 16.178 7.64041 16.359C13.7958 19.9829 23.1717 21.4995 30.1464 23.8478C40.734 27.4127 51.231 31.4436 61.6077 35.6959C70.1982 39.216 76.2516 41.5762 82.4478 42.6874C88.6512 43.7996 94.9501 43.6503 104.006 42.1454C112.84 40.6774 121.592 38.4756 130.525 37.8493C135.661 37.489 140.802 37.384 145.945 37.3568C145.979 36.603 146.01 35.8469 146.039 35.0884ZM6.61208 31.7839C18.1307 30.968 26.9298 31.681 39.2227 36.7662C43.5486 38.6567 47.986 40.0803 52.4903 41.0225C64.9652 43.5398 74.2753 48.0643 87.71 48.5096C96.2909 48.7939 105.868 46.9223 114.458 45.547C124.811 43.645 135.238 42.51 145.689 42.1472C145.731 41.465 145.771 40.7786 145.808 40.0883C135.266 40.4417 124.749 41.581 114.306 43.5007C105.791 44.8645 96.2424 47.4446 87.741 47.1626C80.1035 46.9095 72.8249 44.6198 65.4924 42.308C61.1871 40.9507 57.0706 39.6655 52.6766 38.7791C48.2355 37.8498 43.8603 36.4455 39.5952 34.5805C31.8784 31.2701 23.791 29.6736 15.6696 29.8575H15.6681C15.4744 29.8598 15.2802 29.8627 15.0855 29.8662L15.0622 29.8667C14.8716 29.8702 14.6806 29.8745 14.4893 29.8795L14.4673 29.88C14.2717 29.8854 14.0757 29.8912 13.8793 29.8974H13.8773C13.6805 29.9039 13.4833 29.911 13.2857 29.9188L13.2623 29.9196C13.0682 29.9274 12.8735 29.9357 12.6782 29.9445L12.6598 29.9453C12.4606 29.9545 12.261 29.9642 12.061 29.9744C11.8577 29.9847 11.6525 29.9959 11.4476 30.0076L11.4452 30.0078C11.2419 30.0193 11.0381 30.0314 10.8337 30.044L10.8274 30.0445C10.6254 30.057 10.4226 30.0701 10.2191 30.0837L10.2009 30.0849C9.99906 30.0984 9.79646 30.1125 9.59313 30.127L9.58034 30.1278C9.3791 30.1423 9.177 30.1572 8.97406 30.1724L8.95578 30.1739L8.94184 30.1749C8.7374 30.1905 8.53219 30.2064 8.32622 30.2227L8.31573 30.2237C8.10912 30.2399 7.90162 30.2567 7.69322 30.2741L7.67174 30.2758C7.46103 30.2933 7.24948 30.3113 7.03707 30.3297L7.03387 30.3299C6.88288 30.3429 6.73073 30.3563 6.57909 30.3698C6.58881 30.841 6.59981 31.3123 6.61208 31.7839ZM7.44403 39.0749H7.45055C7.68785 39.0781 7.92433 39.0833 8.16001 39.0906L8.16525 39.0908C8.40038 39.0978 8.63473 39.1069 8.86832 39.118L8.88085 39.1185C9.11534 39.1297 9.34892 39.1426 9.58162 39.1572C9.81623 39.1723 10.0514 39.189 10.2848 39.2073L10.2887 39.2077C10.5206 39.226 10.7519 39.2461 10.9826 39.268L10.9892 39.2686C11.2202 39.2903 11.4507 39.3138 11.6807 39.3391L11.6858 39.3397C11.9161 39.365 12.1461 39.3917 12.3759 39.4201L12.3792 39.4207C12.6085 39.4491 12.8372 39.479 13.0654 39.5104L13.0722 39.5114C13.2499 39.5358 13.4273 39.5611 13.6045 39.5874L13.5989 39.5872C21.9186 40.8176 29.8074 43.9587 39.7926 45.7797C53.0304 48.1936 67.5019 50.833 79.9272 52.0823C87.9826 52.892 96.5777 51.7717 104.588 50.5891C107.913 50.0983 111.265 49.5418 114.594 48.9898C124.816 47.0229 135.123 45.9023 145.453 45.6348C145.502 44.9714 145.549 44.3023 145.594 43.6275C135.164 43.8821 124.758 45.0067 114.438 46.9945C103.896 48.7433 90.2243 51.7611 80.0204 50.7353C67.6339 49.4902 53.1815 45.7894 39.9613 43.3787C29.6902 41.5057 17.9773 38.2205 6.83378 37.8552C6.85308 38.2616 6.87299 38.6669 6.89349 39.0712C7.07747 39.0712 7.26099 39.0725 7.44403 39.0749ZM7.47254 47.824C9.82727 47.6286 12.1882 47.5945 14.5457 47.7216C25.0999 48.3085 36.6899 51.6412 47.3053 52.078C51.5556 52.2529 55.8078 52.5817 60.0589 53.1952C63.0425 53.6255 65.5932 54.0404 67.9462 54.4229C74.3123 55.6954 80.7475 56.2845 87.1872 56.1843C94.4472 55.9234 101.647 54.8222 108.826 53.7241C120.844 51.8864 133.034 49.9058 145.146 49.4463C145.21 48.7193 145.271 47.9827 145.33 47.2366C133.026 47.7687 120.312 50.2995 108.684 52.3879C101.566 53.8158 94.3936 54.7351 87.1986 55.1417C73.7902 55.624 62.6611 50.5188 47.3837 50.2748C41.0652 50.1741 33.0651 48.3109 27.6235 47.8958C25.5792 47.74 23.54 47.3999 21.5013 47.0599C16.8064 46.2643 12.0711 45.9485 7.33855 46.1152C7.38189 46.6896 7.42655 47.2592 7.47254 47.824ZM8.13406 54.7641C13.5904 54.6577 17.9682 55.3419 23.9239 55.6165C28.6706 55.8354 33.3809 55.6881 38.1318 55.5859C47.2941 55.4228 56.454 56.0964 65.5444 57.6019C71.9672 58.7129 78.4299 59.3866 84.9063 59.6201C94.9751 59.7596 105.839 58.0022 115.871 56.7021C125.405 55.4669 134.721 54.2598 144.74 53.6665C144.826 52.8484 144.909 52.013 144.99 51.1603C125.096 52.5452 102.825 58.2424 84.9151 57.9945C78.4869 57.8542 72.0687 57.2772 65.6864 56.2657C55.9598 54.7981 48.002 53.2169 38.1996 53.4278C33.4572 53.5298 28.7593 53.5189 24.0179 53.4585C18.1041 53.3828 13.4541 53.1326 7.98178 53.3399C8.03164 53.8206 8.0824 54.2954 8.13406 54.7641ZM16.639 61.0496C30.1102 59.8925 43.8143 59.3321 59.1768 61.7532C62.1075 61.7749 65.0384 61.7911 67.9696 61.8016C60.9829 60.7577 54.011 59.436 47.0108 58.7465C34.6209 57.5266 22.101 58.3941 9.4686 59.541C9.95411 60.0838 10.4923 60.5406 11.0692 60.8997C12.9255 60.9521 14.7821 61.0021 16.639 61.0496ZM125.667 61.2945C131.487 60.5994 137.274 59.9552 143.235 59.6225C143.594 59.2715 143.914 58.8581 144.187 58.3939C144.253 57.8893 144.317 57.3743 144.381 56.8489C137.11 56.9882 129.856 57.7689 122.666 59.1857C117.762 60.0807 112.692 60.9215 107.585 61.6076C113.614 61.5268 119.641 61.4225 125.667 61.2945ZM128.473 10.5828C129.545 10.1762 130.506 9.3794 131.243 8.28573C131.417 7.98841 131.531 7.63825 131.573 7.26803C129.762 7.21209 127.951 7.15876 126.14 7.10805C126.839 7.71033 126.812 8.44886 125.175 9.33114C122.925 10.3133 120.633 11.1202 118.31 11.7476C112.84 13.4656 107.18 16.1802 101.712 17.5833C99.6035 18.1496 97.4646 18.5049 95.3144 18.6462C93.3101 18.7867 91.3006 18.5644 89.343 17.9857C86.9797 17.0823 84.7446 15.6829 82.7254 13.8423C80.0654 11.539 78.1946 9.34618 78.8361 6.4163C78.2565 6.41563 77.6771 6.41513 77.0978 6.41479C76.9424 7.10497 76.926 7.8358 77.0501 8.53669C77.0945 8.77034 77.1571 8.99749 77.2367 9.21461C78.3623 11.6249 79.9542 13.6054 81.8521 14.9568C84.103 16.7704 86.563 18.0984 89.1374 18.8899C91.3467 19.4992 93.6071 19.7337 95.8624 19.5875C98.2279 19.4435 100.582 19.0794 102.908 18.4981C106.047 17.7479 109.177 16.7234 112.157 15.7478L112.308 15.6987C115.485 14.6586 118.435 13.7953 120.957 13.0575C123.493 12.3997 126.002 11.5737 128.473 10.5828Z" fill="#B7805C"/>
</g>
<path style="mix-blend-mode:multiply" opacity="0.65" fill-rule="evenodd" clip-rule="evenodd" d="M49.7876 23.1013C45.0861 21.0472 32.6005 15.8082 30.0195 11.0293C29.6535 10.4797 29.4401 9.78506 29.4138 9.05754C29.3875 8.33001 29.5499 7.61218 29.8746 7.02008C23.0815 7.19724 16.2898 7.41308 9.49955 7.66761C8.53897 8.22008 7.7087 9.09737 7.09449 10.2089C7.02186 11.0413 6.95679 11.8905 6.89925 12.7564C7.62874 13.79 8.53312 14.5865 9.54021 15.0824C15.3279 18.4898 24.3788 19.9694 30.9809 22.1924C41.1814 25.6267 51.2903 29.5052 61.2876 33.6019C69.494 36.9646 75.1401 39.8336 82.6254 41.4509C100.039 45.2135 114.148 37.1317 130.556 35.9809C135.74 35.6174 140.865 35.2046 146.039 35.0884C146.074 34.1642 146.104 33.238 146.13 32.3098C133.238 31.8879 120.759 33.8732 108.156 35.8784C101.341 36.9624 93.3276 38.5837 86.5438 37.8607C79.0219 37.0591 70.2569 32.4065 63.1751 29.1689C58.7162 27.1305 54.2776 25.0629 49.7876 23.1013Z" fill="url(#paint2_radial_738_3120)"/>
<path style="mix-blend-mode:multiply" fill-rule="evenodd" clip-rule="evenodd" d="M86.8684 9.17968C87.5552 10.3473 88.4473 11.2817 89.4692 11.9037C90.491 12.5257 91.6126 12.8171 92.739 12.7532C94.9869 12.8519 98.5815 12.2156 100.322 10.4251C101.717 8.99016 101.728 7.68794 101 6.58425C96.0646 6.51613 91.1293 6.46859 86.1937 6.44165C86.181 6.54813 86.1734 6.65553 86.171 6.76323C86.2096 7.64266 86.453 8.48572 86.8684 9.17968Z" fill="url(#paint3_radial_738_3120)"/>
<path style="mix-blend-mode:multiply" opacity="0.7" fill-rule="evenodd" clip-rule="evenodd" d="M87.0986 11.4435C86.7462 11.0211 86.4307 10.549 86.1578 10.0359C85.8925 9.5402 85.6697 9.00787 85.4936 8.44852C85.308 7.87016 85.2155 7.24817 85.2216 6.62116C85.223 6.56005 85.2253 6.49843 85.2288 6.43632C83.0978 6.4258 80.9669 6.41913 78.8361 6.41629C78.1946 9.34617 80.0654 11.539 82.7254 13.8423C84.7446 15.6829 86.9797 17.0823 89.343 17.9857C91.3006 18.5644 93.3101 18.7867 95.3144 18.6462C97.4647 18.5049 99.6035 18.1496 101.712 17.5833C107.18 16.1802 112.84 13.4656 118.31 11.7476C120.633 11.1202 122.925 10.3133 125.175 9.33114C126.812 8.44885 126.839 7.71032 126.14 7.10805C118.972 6.90801 111.802 6.75141 104.631 6.6382L104.648 6.70832C104.766 7.24874 104.761 7.82268 104.633 8.35935C104.493 8.96247 104.267 9.52568 103.967 10.0194C103.587 10.6552 103.149 11.2275 102.662 11.7235C102.185 12.2123 101.66 12.6174 101.103 12.9284C100.281 13.3735 99.4311 13.7206 98.5619 13.9653C97.6986 14.2108 96.8253 14.3919 95.9463 14.5078C95.1473 14.6169 94.3436 14.6537 93.5407 14.6182C92.7467 14.5845 91.9555 14.4771 91.1731 14.2969C90.6538 14.171 90.1487 13.9607 89.6694 13.6709C89.2135 13.3954 88.7741 13.0752 88.3552 12.713C87.9095 12.3373 87.4891 11.9126 87.0986 11.4435Z" fill="url(#paint4_radial_738_3120)"/>
<path style="mix-blend-mode:multiply" fill-rule="evenodd" clip-rule="evenodd" d="M39.7926 45.7797C29.8074 43.9587 21.9187 40.8176 13.5989 39.5872C13.1323 39.5852 12.665 39.5766 12.2014 39.6289C10.4099 39.7441 8.65044 40.2937 7.01292 41.2496C7.10945 42.8989 7.21863 44.5249 7.33856 46.1152C12.0711 45.9485 16.8064 46.2643 21.5013 47.0599C23.54 47.3998 25.5792 47.74 27.6235 47.8958C33.0651 48.3108 41.0652 50.1741 47.3837 50.2748C62.6611 50.5187 73.7902 55.6239 87.1986 55.1417C94.3936 54.7351 101.566 53.8158 108.684 52.3878C120.312 50.2995 133.026 47.7687 145.33 47.2366C145.373 46.7069 145.413 46.173 145.453 45.6348C135.123 45.9023 124.816 47.0229 114.594 48.9898C111.265 49.5418 107.913 50.0983 104.588 50.589C96.5777 51.7717 87.9826 52.8919 79.9272 52.0823C67.5019 50.833 53.0304 48.1936 39.7926 45.7797Z" fill="url(#paint5_radial_738_3120)"/>
<path style="mix-blend-mode:screen" fill-rule="evenodd" clip-rule="evenodd" d="M6.53204 27.135C7.90391 28.9355 12.8395 28.9376 15.8064 29.8562C19.9121 29.7833 24.0153 30.1552 28.0739 30.968C26.1314 30.4342 24.2639 30.0298 21.8577 29.6695C16.9208 28.93 13.2632 29.062 8.67718 26.4411C8.24826 26.2287 7.86948 25.8731 7.57865 25.4098C6.64327 23.6933 7.74934 18.0012 10.2461 18.1462C10.8378 18.1896 11.4266 18.2864 12.0082 18.436C10.5191 17.8687 9.06012 17.1749 7.64041 16.359C7.33305 16.178 7.02683 15.9852 6.7283 15.7808C6.55838 19.4088 6.49969 23.2435 6.53204 27.135ZM6.83378 37.8552C13.0892 38.1844 19.322 39.0362 25.4941 40.4055C20.4276 38.7685 13.6559 37.8747 9.93232 36.8435C7.60716 36.1995 7.85981 33.0302 9.18719 32.5391C12.1625 31.4379 17.9292 31.7365 22.3948 32.0305C17.1472 31.4028 11.8697 31.3202 6.61208 31.7835C6.66463 33.8151 6.73929 35.846 6.83378 37.8552ZM7.33842 46.1149C12.071 45.9483 16.8064 46.2642 21.5013 47.0599C23.54 47.3999 25.5792 47.74 27.6235 47.8958C28.2316 47.9422 28.8716 48.0067 29.5377 48.0848C24.758 47.2524 20.0149 46.5224 15.1888 45.7664C13.5048 45.6216 11.8284 45.352 10.1678 44.959C9.20457 44.6289 8.98275 42.3833 9.34394 42.1344C11.5428 40.6189 17.2613 40.8914 19.5434 41.1928C21.2342 41.416 22.9139 41.7355 24.5932 42.0582C20.8691 41.0475 17.2788 40.131 13.6045 39.5874C13.136 39.5852 12.667 39.5765 12.2013 39.6289C10.4099 39.7441 8.65042 40.2937 7.0129 41.2496C7.10943 42.8988 7.21862 44.5246 7.33842 46.1149ZM7.98178 53.3396C12.0597 53.185 15.6809 53.2848 19.7086 53.377C15.7576 53.0549 11.2455 52.5801 10.6385 51.9988C10.0855 51.4693 10.9353 49.2629 11.737 48.8151C13.7898 48.0301 15.9374 47.7563 18.0678 48.008C16.8831 47.8841 15.7091 47.7886 14.5457 47.7216C12.1882 47.5942 9.82727 47.6281 7.47253 47.8231C7.62788 49.7286 7.79869 51.5747 7.98178 53.3396ZM19.9161 55.3678C15.8304 55.0616 12.296 54.6826 8.13393 54.7637C8.27303 56.0234 8.41802 57.2364 8.56825 58.3939C8.83259 58.8214 9.13482 59.2064 9.46859 59.541C12.6949 59.2481 15.9137 58.9733 19.1252 58.7469C16.3168 58.7081 13.3211 58.6639 12.1095 58.7018C11.5023 58.5746 10.9253 58.2679 10.4226 57.8051C10.2912 57.5246 10.2283 57.1983 10.2424 56.8699C10.2564 56.5415 10.3467 56.2265 10.5013 55.9668C10.932 55.4233 15.5373 55.3339 19.9161 55.3678ZM28.762 21.4943C23.1891 19.6771 15.6314 17.324 12.6784 15.2766C10.8273 13.993 11.2849 9.97851 12.6784 9.35787C15.4358 8.12978 21.9455 7.55472 26.3553 7.11542C20.7357 7.27304 15.1171 7.45711 9.49954 7.6676C8.53895 8.22008 7.70868 9.09736 7.09447 10.2089C7.02185 11.0413 6.95669 11.8905 6.89898 12.7564C7.62852 13.79 8.533 14.5865 9.54019 15.0824C14.7026 18.1216 22.4606 19.627 28.762 21.4943Z" fill="url(#paint6_linear_738_3120)"/>
<g style="mix-blend-mode:screen" opacity="0.4">
<path fill-rule="evenodd" clip-rule="evenodd" d="M54.7274 38.1806C52.5299 37.5798 50.2693 37.325 48.0587 36.7907C46.619 36.4427 45.1896 36.029 43.783 35.5352C41.3559 34.683 39.0272 33.4626 36.5651 32.7553C34.7362 32.23 32.8614 31.9552 30.9921 31.6496C33.8985 32.4214 36.7705 33.3998 39.5952 34.5805C43.8603 36.4455 48.2355 37.8498 52.6766 38.779C57.0706 39.6655 61.1871 40.9507 65.4925 42.308C69.6743 43.6263 73.8385 44.9377 78.0618 45.868C77.9789 45.8469 77.8961 45.8252 77.8133 45.8031C76.6182 45.4842 75.4285 45.1365 74.2434 44.7719C72.4667 44.2249 70.6822 43.7037 68.9282 43.0679C66.5159 42.1936 64.183 41.0365 61.7492 40.2432C60.5504 39.8523 59.2693 39.8805 58.0617 39.5257C56.9202 39.1904 55.8737 38.494 54.7274 38.1806Z" fill="#CA9E67"/>
</g>
<g style="mix-blend-mode:screen" opacity="0.3">
<path fill-rule="evenodd" clip-rule="evenodd" d="M72.4685 30.233C66.137 27.2641 60.2821 24.9309 53.9631 22.5591C64.108 27.3011 77.7187 34.8974 86.6548 36.6685C93.2405 37.9736 101.27 35.7592 107.987 34.6909C111.373 34.1519 114.751 33.5519 118.131 32.968C113.857 33.2377 109.288 33.4346 105.341 34.0889C103.056 34.468 100.871 35.4387 98.5942 35.8825C96.4124 36.3287 94.2115 36.5982 92.0041 36.6895C90.4531 36.7665 88.9003 36.6161 87.3749 36.2412C85.4816 35.7379 83.7412 34.6528 81.8831 33.9993C80.3372 33.4556 78.7024 33.2649 77.1757 32.6541C75.5517 32.0044 74.0603 30.9795 72.4685 30.233Z" fill="#CA9E67"/>
</g>
<g style="mix-blend-mode:screen" opacity="0.5">
<path fill-rule="evenodd" clip-rule="evenodd" d="M37.3399 42.3616C34.4993 41.9255 31.6554 41.5161 28.8132 41.0956C32.6471 41.9061 36.3912 42.7278 39.9613 43.3787C53.1815 45.7894 67.6339 49.4902 80.0204 50.7353C86.1559 51.1224 92.3056 50.7822 98.394 49.719C97.7351 49.7772 97.0762 49.8357 96.4174 49.8943C94.5736 50.0584 92.7321 50.2596 90.8862 50.3875C89.2793 50.4989 87.6707 50.5959 86.061 50.6118C82.7203 50.5577 79.3883 50.1528 76.0973 49.401C73.2868 48.9193 70.513 48.0895 67.7025 47.6076C66.3258 47.3716 64.9169 47.4247 63.5443 47.1592C62.4373 46.945 61.3915 46.4112 60.2884 46.1728C58.0006 45.6782 55.6756 45.4327 53.3843 44.962C51.163 44.5059 48.9022 44.2663 46.676 43.8412C43.5775 43.2494 40.4538 42.8397 37.3399 42.3616Z" fill="#CA9E67"/>
</g>
<g style="mix-blend-mode:screen" opacity="0.5">
<path fill-rule="evenodd" clip-rule="evenodd" d="M116.394 25.6818C114.596 26.1639 112.796 26.6385 110.995 27.1058C111.555 27.0006 112.125 26.8926 112.704 26.7818C122.429 24.9251 132.556 22.1949 146.221 22.7988C146.219 22.6661 146.218 22.5334 146.216 22.4006C143.078 21.566 139.859 21.3721 136.675 21.8257C135.986 21.9311 135.291 21.976 134.596 21.9603C133.508 21.7012 132.407 21.5364 131.301 21.4671C127.963 21.8264 120.131 24.6803 116.394 25.6818Z" fill="#CA9E67"/>
</g>
<g style="mix-blend-mode:multiply" opacity="0.5">
<path fill-rule="evenodd" clip-rule="evenodd" d="M31.5445 24.8299C32.4878 25.3205 33.9767 26.4729 34.2513 26.5785C35.3564 27.0031 38.4292 27.6267 40.4884 28.2824C43.5967 29.2717 46.6677 30.4075 49.7463 31.5107C52.3822 32.4552 55.0024 33.4551 57.6314 34.4252C60.3898 35.4429 63.1328 36.5182 65.9082 37.4741C66.0702 37.5299 66.2327 37.5835 66.3959 37.6349C64.8841 37.0338 63.2949 36.3871 61.6077 35.6959C51.231 31.4435 40.734 27.4127 30.1464 23.8478C26.2133 22.5235 21.5163 21.4637 17.0639 20.1415C18.5613 20.7336 20.0588 21.3246 21.5806 21.8257C24.1708 22.6783 26.8197 23.2817 29.4262 24.0677C30.146 24.2517 30.8541 24.5065 31.5445 24.8299Z" fill="#683C11"/>
</g>
<g style="mix-blend-mode:multiply" opacity="0.5">
<path fill-rule="evenodd" clip-rule="evenodd" d="M82.9015 52.2959C88.4819 52.6324 94.0724 52.5597 99.6466 52.0781C101.449 51.9312 103.149 51.6578 105.254 51.5755C108.018 51.3829 110.77 50.956 113.492 50.2975C115.611 49.8393 117.662 49.0302 119.768 48.5039C121.613 48.0434 123.478 47.7013 125.339 47.3383C125.669 47.2738 126 47.2103 126.331 47.1476C122.398 47.6951 118.513 48.3396 114.594 48.9898C111.265 49.5418 107.913 50.0983 104.588 50.5891C97.4 51.8401 90.1523 52.4105 82.9015 52.2959Z" fill="#683C11"/>
</g>
<g style="mix-blend-mode:multiply" opacity="0.5">
<path fill-rule="evenodd" clip-rule="evenodd" d="M79.0484 12.2144C81.5577 15.6258 84.7428 18.0605 88.249 19.2473C91.3819 20.6758 94.7307 21.1063 98.0167 20.5028C100.304 20.0795 102.57 19.4807 104.803 18.7094C107.176 17.9466 109.485 16.9459 111.825 16.0638C113.016 15.6152 114.206 15.1664 115.396 14.7175C114.396 15.0263 113.364 15.3527 112.308 15.6987L112.157 15.7477C109.177 16.7234 106.047 17.7479 102.908 18.4981C100.582 19.0794 98.2278 19.4435 95.8624 19.5875C93.6071 19.7337 91.3467 19.4992 89.1374 18.8899C86.563 18.0984 84.103 16.7704 81.8521 14.9568C80.8519 14.1632 79.9129 13.2448 79.0484 12.2144Z" fill="#683C11"/>
</g>
<path style="mix-blend-mode:multiply" opacity="0.5" fill-rule="evenodd" clip-rule="evenodd" d="M138.71 54.2012C139.536 46.7106 140.039 39.165 140.215 31.6005C140.227 31.1315 140.239 30.6616 140.249 30.1909L140.158 30.1949L140.249 30.1572C140.385 24.88 140.306 19.5971 140.014 14.3308L139.714 14.3201C138.704 14.3866 137.718 14.4871 136.748 14.6167C137.079 14.4906 137.403 14.3685 137.719 14.2503C96.073 12.8139 54.4141 12.8407 12.7423 14.3308C12.4649 19.2647 12.3797 24.2137 12.4868 29.1589C13.6746 29.3566 14.8442 29.5581 15.8065 29.8562C14.7178 29.8663 13.6186 29.8999 12.5019 29.9527C12.5133 30.503 12.5261 31.0523 12.5404 31.6005C12.6082 34.2113 12.7084 36.8432 12.8466 39.4807C13.0997 39.5144 13.3523 39.55 13.6045 39.5874C13.3536 39.5862 13.1027 39.5832 12.8526 39.5887C13.1104 44.4728 13.4975 49.376 14.046 54.2012C55.5916 55.3188 97.1462 55.3188 138.71 54.2012Z" fill="url(#paint7_linear_738_3120)"/>
<path style="mix-blend-mode:screen" fill-rule="evenodd" clip-rule="evenodd" d="M7.55756 55.7894C7.58418 57.245 7.67592 58.6972 7.83232 60.1387C8.4279 61.2573 9.2046 62.1911 10.1074 62.8739C24.7355 63.5044 58.8861 65.1596 79.0702 63.1429C56.3551 62.6336 33.6225 62.0619 10.8723 61.4278C9.93275 60.8898 9.09062 60.0991 8.40089 59.1073C8.0755 58.0015 7.80458 56.8955 7.55756 55.7894Z" fill="url(#paint8_radial_738_3120)"/>
<g style="mix-blend-mode:screen" opacity="0.5">
<path fill-rule="evenodd" clip-rule="evenodd" d="M8.8539 8.70484C17.241 8.39928 25.3325 8.15749 33.7239 7.9658C35.3833 8.48963 37.0655 8.88085 38.7613 9.13728C40.6428 9.1655 47.3174 8.08988 50.8409 7.65408C81.9716 7.22278 112.86 7.5741 143.902 8.70484C144.533 8.98263 145.111 9.43269 145.599 10.0251C145.021 8.94434 144.203 8.12138 143.256 7.6676C98.6969 5.9967 54.1115 5.9967 9.49956 7.6676C8.55037 8.21744 7.72672 9.07964 7.1092 10.1699C7.63024 9.56833 8.2186 9.0743 8.8539 8.70484Z" fill="#CA9E67"/>
</g>
<g style="mix-blend-mode:screen" opacity="0.5">
<path fill-rule="evenodd" clip-rule="evenodd" d="M138.71 54.2012C97.3088 55.3109 55.4471 55.3109 14.0461 54.2012C14.6091 55.7609 37.6124 56.7964 76.3778 56.7964C115.143 56.7964 138.068 56.1644 138.71 54.2012Z" fill="#CA9E67"/>
</g>
<g style="mix-blend-mode:multiply" opacity="0.5">
<path fill-rule="evenodd" clip-rule="evenodd" d="M12.9906 29.2435C13.0342 27.6656 13.095 26.0861 13.173 24.505C13.3134 21.7099 13.5167 18.9186 13.806 16.1735C33.704 14.9969 55.4978 14.8591 76.3528 14.8613C97.1575 14.8633 118.572 15.0949 138.913 16.1904C139.19 18.952 139.393 21.7474 139.534 24.5469C139.674 27.3466 139.765 30.1585 139.804 32.9415C139.841 35.7319 139.842 38.5611 139.802 41.4014C139.996 38.1215 140.131 34.8446 140.215 31.6005C140.227 31.1315 140.239 30.6616 140.249 30.1909L140.158 30.1949L140.249 30.1572C140.385 24.88 140.306 19.5971 140.014 14.3308L139.714 14.3201C138.704 14.3866 137.718 14.4871 136.748 14.6167C137.079 14.4906 137.403 14.3685 137.719 14.2503C96.073 12.8139 54.4141 12.8407 12.7423 14.3308C12.4649 19.2647 12.3797 24.2137 12.4868 29.1589C12.6554 29.1869 12.8233 29.2152 12.9906 29.2435ZM12.9726 29.9316C12.8159 29.9381 12.6591 29.9452 12.5019 29.9527C12.5133 30.503 12.5261 31.0523 12.5404 31.6005C12.6082 34.2113 12.7084 36.8432 12.8466 39.4807L12.882 39.4855C12.8667 37.2866 12.878 35.0983 12.9146 32.933C12.9286 31.9361 12.9479 30.9357 12.9726 29.9316Z" fill="#683C11"/>
</g>
<path fill-rule="evenodd" clip-rule="evenodd" d="M137.684 23.7416C137.873 25.914 138 29.9185 138 34.4999C138 39.0812 137.873 43.0858 137.684 45.2579C135.376 48.303 132.745 51.062 129.841 53.4817C119.071 53.7918 99.2162 54 76.5001 54C53.7838 54 33.9292 53.7918 23.1588 53.4817C21.6901 52.2954 20.3048 50.9997 19.0139 49.6044C17.6834 48.2506 16.4476 46.798 15.3162 45.2579C15.1269 43.0858 15 39.0812 15 34.4999C15 29.9185 15.1269 25.914 15.3162 23.7416C16.4476 22.2017 17.6834 20.7492 19.0139 19.3955C20.3049 18.0002 21.6901 16.7044 23.1588 15.5181C33.9292 15.208 53.7838 15 76.5001 15C99.2162 15 119.071 15.208 129.841 15.5181C132.745 17.9378 135.376 20.6968 137.684 23.7416Z" fill="url(#paint9_radial_738_3120)"/>
<path fill-rule="evenodd" clip-rule="evenodd" d="M19.4815 34.4999C19.4815 31.5724 19.4853 28.4732 19.6777 25.5097L15.3162 23.7416C15.1269 25.914 15 29.9185 15 34.4999C15 39.0812 15.1269 43.0858 15.3162 45.2579L19.6777 43.4901C19.4853 40.5266 19.4815 37.4273 19.4815 34.4999Z" fill="url(#paint10_linear_738_3120)"/>
<path fill-rule="evenodd" clip-rule="evenodd" d="M19.6777 25.5097C20.4584 24.5325 21.3954 23.5438 22.1829 22.7183C22.9437 21.9205 23.8494 20.9764 24.7506 20.1747L23.1588 15.5181C21.6901 16.7044 20.3048 18.0002 19.0139 19.3955C17.6834 20.7492 16.4476 22.2017 15.3162 23.7416L19.6777 25.5097Z" fill="url(#paint11_linear_738_3120)"/>
<path fill-rule="evenodd" clip-rule="evenodd" d="M24.7506 20.1747C31.6277 19.9918 38.5143 19.9101 45.3922 19.8418C55.7609 19.739 66.1302 19.6914 76.5001 19.6993C86.8691 19.6993 97.2384 19.7468 107.608 19.8418C114.486 19.9101 121.372 19.9918 128.249 20.1747L129.841 15.5181C119.071 15.208 99.2162 15 76.5001 15C53.7838 15 33.9292 15.208 23.1588 15.5181L24.7506 20.1747Z" fill="url(#paint12_linear_738_3120)"/>
<path fill-rule="evenodd" clip-rule="evenodd" d="M128.249 20.1747C129.151 20.9764 130.056 21.9205 130.817 22.7183C131.605 23.5442 132.542 24.5325 133.322 25.5097L137.684 23.7416C135.376 20.6968 132.745 17.9378 129.841 15.5181L128.249 20.1747Z" fill="url(#paint13_linear_738_3120)"/>
<path fill-rule="evenodd" clip-rule="evenodd" d="M133.322 25.5097C133.515 28.4732 133.518 31.5724 133.518 34.4999C133.518 37.4273 133.515 40.5266 133.322 43.4901L137.684 45.2579C137.873 43.0858 138 39.0812 138 34.4999C138 29.9185 137.873 25.914 137.684 23.7416L133.322 25.5097Z" fill="url(#paint14_linear_738_3120)"/>
<path fill-rule="evenodd" clip-rule="evenodd" d="M133.322 43.4901C132.542 44.4674 131.605 45.4558 130.817 46.2813C130.056 47.0793 129.151 48.0236 128.249 48.825L129.841 53.4817C132.745 51.062 135.376 48.3029 137.684 45.2579L133.322 43.4901Z" fill="url(#paint15_linear_738_3120)"/>
<path fill-rule="evenodd" clip-rule="evenodd" d="M128.249 48.825C121.372 49.0081 114.486 49.0899 107.608 49.1581C97.2392 49.2609 86.8699 49.3084 76.5001 49.3005C66.1309 49.3005 55.7616 49.253 45.3922 49.1581C38.5143 49.0899 31.6277 49.0081 24.7506 48.825L23.1588 53.4817C33.9292 53.7918 53.7838 54 76.5001 54C99.2162 54 119.071 53.7918 129.841 53.4817L128.249 48.825Z" fill="url(#paint16_linear_738_3120)"/>
<path fill-rule="evenodd" clip-rule="evenodd" d="M24.7506 48.825C23.8494 48.0236 22.9437 47.0793 22.1829 46.2813C21.3954 45.4558 20.4584 44.4674 19.6777 43.4901L15.3162 45.2579C16.4476 46.798 17.6834 48.2506 19.0139 49.6044C20.3048 50.9996 21.6901 52.2954 23.1588 53.4817L24.7506 48.825Z" fill="url(#paint17_linear_738_3120)"/>
<path style="mix-blend-mode:screen" fill-rule="evenodd" clip-rule="evenodd" d="M76.5001 52.4063C47.9196 52.4063 24.7506 50.8028 24.7506 48.825L23.1588 53.4817C33.9292 53.7918 53.7838 54 76.5001 54C99.2162 54 119.071 53.7918 129.841 53.4817L128.249 48.825C128.249 50.8028 105.08 52.4063 76.5001 52.4063Z" fill="url(#paint18_radial_738_3120)"/>
<path style="mix-blend-mode:multiply" fill-rule="evenodd" clip-rule="evenodd" d="M23.1588 15.5181C24.5593 21.0581 19.1133 25.0646 15.3162 23.7416L19.6777 25.5097C20.4584 24.5325 21.3954 23.5438 22.1829 22.7183C22.9437 21.9205 23.8494 20.9764 24.7506 20.1747L23.1588 15.5181Z" fill="url(#paint19_radial_738_3120)"/>
<g style="mix-blend-mode:screen">
<path fill-rule="evenodd" clip-rule="evenodd" d="M24.7506 20.1747C31.6277 19.9918 38.5143 19.9101 45.3922 19.8418C55.7609 19.739 66.1302 19.6914 76.5001 19.6993C86.8691 19.6993 97.2384 19.7468 107.608 19.8418C108.237 19.8481 108.866 19.8544 109.495 19.8609C81.6554 19.311 53.2806 19.1324 25.1502 19.6417L24.833 19.432C24.2976 18.2062 23.8216 17.1162 23.2861 15.8905C23.6028 17.1924 23.8484 18.4071 24.165 19.7092L24.0784 20.1185C22.7004 21.8078 21.2229 23.4049 19.6545 24.9006L19.2751 24.9905C18.0918 24.6101 16.9795 24.3165 15.7961 23.9361C16.9079 24.4728 17.9457 25.0091 19.0576 25.5456L19.2579 25.8786C19.1751 31.6863 19.1663 37.4144 19.2631 43.0333L19.0697 43.3795C18.3769 43.7693 17.7578 44.1593 17.0648 44.5492C17.8304 44.3447 18.5603 44.1835 19.3257 43.9791L19.7013 44.0873C21.2009 45.66 22.8193 47.3071 24.2882 48.8801L24.3901 49.2758C24.2396 49.9029 24.1441 50.4059 23.9885 51.0549C24.2752 50.4606 24.5797 49.9659 24.8665 49.3715L25.1916 49.1669C37.1698 49.4324 52.6487 49.4451 64.6078 49.2819C59.3406 49.2592 50.659 49.2104 45.3922 49.1581C38.5143 49.0899 31.6277 49.0082 24.7506 48.8251C23.8494 48.0236 22.9437 47.0794 22.1829 46.2813C21.3954 45.4558 20.4584 44.4674 19.6777 43.4901C19.4853 40.5266 19.4815 37.4273 19.4815 34.4999C19.4815 31.5725 19.4853 28.4732 19.6777 25.5097C20.4584 24.5325 21.3954 23.5438 22.1829 22.7183C22.9437 21.9206 23.8494 20.9764 24.7506 20.1747Z" fill="#F7E984"/>
</g>
<path style="mix-blend-mode:multiply" fill-rule="evenodd" clip-rule="evenodd" d="M129.841 15.5181C128.441 21.0581 133.887 25.0646 137.684 23.7416L133.322 25.5097C132.542 24.5325 131.605 23.5438 130.817 22.7183C130.056 21.9205 129.151 20.9764 128.249 20.1747L129.841 15.5181Z" fill="url(#paint20_radial_738_3120)"/>
<path style="mix-blend-mode:multiply" fill-rule="evenodd" clip-rule="evenodd" d="M129.841 53.4817C128.441 47.9417 133.887 43.9351 137.684 45.2579L133.322 43.4901C132.542 44.4674 131.605 45.4558 130.817 46.2813C130.056 47.0793 129.151 48.0236 128.249 48.825L129.841 53.4817Z" fill="url(#paint21_radial_738_3120)"/>
<g style="mix-blend-mode:screen">
<path fill-rule="evenodd" clip-rule="evenodd" d="M133.322 43.4901C132.542 44.4674 131.605 45.4558 130.817 46.2813C130.056 47.0793 129.151 48.0236 128.249 48.825C121.372 49.0081 114.486 49.0899 107.608 49.1581C103.477 49.199 99.3451 49.2304 95.2134 49.2524C106.094 49.2989 116.984 49.2816 127.882 49.2006L128.195 49.4146C128.706 50.6599 129.217 51.9051 129.728 53.1504C129.359 51.8709 128.991 50.5913 128.622 49.3116L128.709 48.914C130.184 47.2344 131.701 45.5976 133.258 44.0038L133.634 43.9058C134.605 44.2032 135.577 44.5005 136.549 44.7978C135.644 44.358 134.74 43.9183 133.835 43.4787L133.64 43.1451C133.825 37.4018 133.827 31.6587 133.645 25.9156L133.839 25.5775C134.7 25.1362 135.56 24.695 136.421 24.2539C135.474 24.5612 134.595 24.8463 133.658 25.1504L133.291 25.0489C131.982 23.605 130.512 22.2648 129.071 20.9398C129.69 21.5384 130.288 22.1638 130.817 22.7183C131.605 23.5442 132.542 24.5324 133.322 25.5097C133.515 28.4732 133.519 31.5724 133.519 34.4999C133.519 37.4273 133.515 40.5266 133.322 43.4901Z" fill="#F7E984"/>
</g>
<g style="mix-blend-mode:screen">
<path fill-rule="evenodd" clip-rule="evenodd" d="M23.1606 15.9932C23.3972 16.3391 47.1875 16.6188 76.5001 16.6188C105.813 16.6188 129.603 16.3391 129.839 15.9932L129.841 15.988C119.071 15.678 99.2162 15.4698 76.5001 15.4698C53.7838 15.4698 33.9292 15.678 23.1588 15.988L23.1606 15.9932Z" fill="#F7E984"/>
</g>
<path style="mix-blend-mode:screen" fill-rule="evenodd" clip-rule="evenodd" d="M25.7053 48.8496L53.4332 19.7743C50.7528 19.7928 48.0725 19.8153 45.3922 19.8418C42.0704 19.8748 38.7472 19.9142 35.4226 19.9601L19.4849 36.6722C19.4946 38.9336 19.5323 41.2507 19.6777 43.4901C20.4584 44.4674 21.3954 45.4558 22.1829 46.2813C22.9437 47.0793 23.8494 48.0236 24.7506 48.825C25.0688 48.8335 25.3871 48.8416 25.7053 48.8496Z" fill="url(#paint22_radial_738_3120)"/>
<path style="mix-blend-mode:screen" fill-rule="evenodd" clip-rule="evenodd" d="M68.3896 19.7077L40.3551 49.1044C42.0345 49.1239 43.7135 49.1417 45.3922 49.1581C46.1869 49.1659 46.9816 49.1734 47.7764 49.1807L75.8914 19.6993C73.3908 19.6996 70.8902 19.7024 68.3896 19.7077Z" fill="url(#paint23_radial_738_3120)"/>
<path style="mix-blend-mode:screen" fill-rule="evenodd" clip-rule="evenodd" d="M118.607 19.9756L90.6669 49.2738C95.8611 49.2532 101.055 49.219 106.249 49.1711L131.146 23.0641C131.034 22.9461 130.925 22.8308 130.817 22.7183C130.056 21.9205 129.151 20.9764 128.249 20.1747C125.037 20.0891 121.823 20.0228 118.607 19.9756Z" fill="url(#paint24_radial_738_3120)"/>
<path fill-rule="evenodd" clip-rule="evenodd" d="M15.7516 45.0881C16.1684 45.6896 16.6513 46.2733 17.1203 46.8261C17.832 47.6643 18.5739 48.4785 19.3308 49.2722C20.0876 50.0654 20.8639 50.8439 21.6635 51.5901C22.1869 52.0782 22.7396 52.5812 23.3089 53.0159C26.4885 53.1068 29.6695 53.1699 32.8499 53.2237C37.0177 53.2943 41.1858 53.3488 45.354 53.3873C55.7353 53.4901 66.1174 53.5377 76.5001 53.53C86.8819 53.53 97.2639 53.4824 107.646 53.3873C111.814 53.3459 115.982 53.2914 120.15 53.2237C123.331 53.1699 126.512 53.1068 129.691 53.0159C130.261 52.5812 130.813 52.0782 131.337 51.5901C132.136 50.8439 132.912 50.0654 133.669 49.2722C134.426 48.4785 135.168 47.6643 135.88 46.8261C136.349 46.2733 136.832 45.6896 137.249 45.0881C137.369 43.657 137.422 42.2024 137.465 40.7675C137.528 38.6797 137.552 36.5888 137.552 34.4999C137.552 32.4109 137.528 30.3199 137.465 28.2321C137.422 26.7976 137.369 25.3426 137.249 23.9118C136.832 23.3102 136.349 22.7266 135.88 22.1737C135.168 21.3352 134.426 20.5214 133.669 19.7276C132.912 18.9341 132.136 18.1561 131.337 17.4099C130.813 16.9215 130.261 16.4188 129.691 15.9838C126.512 15.893 123.331 15.8299 120.15 15.7761C115.982 15.7057 111.814 15.6512 107.646 15.6126C97.2647 15.5097 86.8827 15.462 76.5001 15.4698C66.1182 15.4698 55.7362 15.5174 45.354 15.6126C41.1859 15.654 37.0178 15.7085 32.8499 15.7761C29.6695 15.8299 26.4885 15.893 23.3089 15.9838C22.7396 16.4188 22.1869 16.9215 21.6635 17.4099C20.8639 18.1561 20.0876 18.9341 19.3308 19.7276C18.5739 20.5214 17.832 21.3354 17.1203 22.1739C16.6513 22.7266 16.1684 23.3102 15.7516 23.9118C15.6312 25.3426 15.5782 26.7976 15.5351 28.2321C15.4724 30.3199 15.4482 32.4109 15.4482 34.4999C15.4482 36.5888 15.4724 38.6797 15.5351 40.7675C15.5782 42.2024 15.6312 43.657 15.7516 45.0881ZM137.684 23.7416C137.873 25.914 138 29.9185 138 34.4999C138 39.0812 137.873 43.0858 137.684 45.2579C135.376 48.303 132.745 51.062 129.841 53.4817C119.071 53.7918 99.2162 54 76.5001 54C53.7838 54 33.9292 53.7918 23.1588 53.4817C21.6901 52.2954 20.3048 50.9997 19.0139 49.6044C17.6834 48.2506 16.4476 46.798 15.3162 45.2579C15.1269 43.0858 15 39.0812 15 34.4999C15 29.9185 15.1269 25.914 15.3162 23.7416C16.4476 22.2017 17.6834 20.7492 19.0139 19.3955C20.3049 18.0002 21.6901 16.7044 23.1588 15.5181C33.9292 15.208 53.7838 15 76.5001 15C99.2162 15 119.071 15.208 129.841 15.5181C132.745 17.9378 135.376 20.6968 137.684 23.7416Z" fill="url(#paint25_linear_738_3120)"/>
</g>
<defs>
<filter id="filter0_d_738_3120" x="0.00164795" y="0" width="152.998" height="71" filterUnits="userSpaceOnUse" color-interpolation-filters="sRGB">
<feFlood flood-opacity="0" result="BackgroundImageFix"/>
<feColorMatrix in="SourceAlpha" type="matrix" values="0 0 0 0 0 0 0 0 0 0 0 0 0 0 0 0 0 0 127 0" result="hardAlpha"/>
<feOffset/>
<feGaussianBlur stdDeviation="3"/>
<feComposite in2="hardAlpha" operator="out"/>
<feColorMatrix type="matrix" values="0 0 0 0 0 0 0 0 0 0 0 0 0 0 0 0 0 0 0.7 0"/>
<feBlend mode="normal" in2="BackgroundImageFix" result="effect1_dropShadow_738_3120"/>
<feBlend mode="normal" in="SourceGraphic" in2="effect1_dropShadow_738_3120" result="shape"/>
</filter>
<linearGradient id="paint0_linear_738_3120" x1="76.5001" y1="65" x2="76.5001" y2="6" gradientUnits="userSpaceOnUse">
<stop stop-color="#692705"/>
<stop offset="1" stop-color="#823B00"/>
</linearGradient>
<radialGradient id="paint1_radial_738_3120" cx="0" cy="0" r="1" gradientUnits="userSpaceOnUse" gradientTransform="translate(10.3112 -0.233039) scale(154.212 201.396)">
<stop stop-color="#F59547"/>
<stop offset="1" stop-color="#A14C1F"/>
</radialGradient>
<radialGradient id="paint2_radial_738_3120" cx="0" cy="0" r="1" gradientUnits="userSpaceOnUse" gradientTransform="translate(28.8432 -37.2194) scale(165.237 215.795)">
<stop stop-color="#CFA04D"/>
<stop offset="1" stop-color="white"/>
</radialGradient>
<radialGradient id="paint3_radial_738_3120" cx="0" cy="0" r="1" gradientUnits="userSpaceOnUse" gradientTransform="translate(95.7031 -5.73185) scale(27.2318 35.5638)">
<stop stop-color="#CFA04D"/>
<stop offset="1" stop-color="white"/>
</radialGradient>
<radialGradient id="paint4_radial_738_3120" cx="0" cy="0" r="1" gradientUnits="userSpaceOnUse" gradientTransform="translate(103.346 -4.32113) scale(50.0453 65.3574)">
<stop stop-color="#CFA04D"/>
<stop offset="1" stop-color="white"/>
</radialGradient>
<radialGradient id="paint5_radial_738_3120" cx="0" cy="0" r="1" gradientUnits="userSpaceOnUse" gradientTransform="translate(87.9745 78.968) scale(150.223 196.186)">
<stop stop-color="#CFA04D"/>
<stop offset="1" stop-color="white"/>
</radialGradient>
<linearGradient id="paint6_linear_738_3120" x1="-6.86205" y1="33.3282" x2="38.8368" y2="33.3282" gradientUnits="userSpaceOnUse">
<stop stop-color="#CA9E67"/>
<stop offset="0.65"/>
</linearGradient>
<linearGradient id="paint7_linear_738_3120" x1="76.3778" y1="55.0394" x2="76.3778" y2="13.1928" gradientUnits="userSpaceOnUse">
<stop stop-color="#C99365"/>
<stop offset="1" stop-color="#692705"/>
</linearGradient>
<radialGradient id="paint8_radial_738_3120" cx="0" cy="0" r="1" gradientUnits="userSpaceOnUse" gradientTransform="translate(18.7346 67.3115) scale(75.7119 98.8771)">
<stop stop-color="#B0670B"/>
<stop offset="1"/>
</radialGradient>
<radialGradient id="paint9_radial_738_3120" cx="0" cy="0" r="1" gradientUnits="userSpaceOnUse" gradientTransform="translate(21.9496 21.9742) scale(112.525 117.993)">
<stop stop-color="#FFEEB8"/>
<stop offset="1" stop-color="#FFBF00"/>
</radialGradient>
<linearGradient id="paint10_linear_738_3120" x1="17.3388" y1="45.2579" x2="17.3388" y2="23.7416" gradientUnits="userSpaceOnUse">
<stop stop-color="#EB9E21"/>
<stop offset="1" stop-color="#FFD97A"/>
</linearGradient>
<linearGradient id="paint11_linear_738_3120" x1="20.0334" y1="25.5097" x2="20.0334" y2="15.5181" gradientUnits="userSpaceOnUse">
<stop stop-color="#E8B723"/>
<stop offset="1" stop-color="#FFE89C"/>
</linearGradient>
<linearGradient id="paint12_linear_738_3120" x1="76.5001" y1="20.1747" x2="76.5001" y2="15" gradientUnits="userSpaceOnUse">
<stop stop-color="#FFE89C"/>
<stop offset="1" stop-color="#E8B723"/>
</linearGradient>
<linearGradient id="paint13_linear_738_3120" x1="132.967" y1="25.5097" x2="132.967" y2="15.5181" gradientUnits="userSpaceOnUse">
<stop stop-color="#E8B723"/>
<stop offset="1" stop-color="#FFE89C"/>
</linearGradient>
<linearGradient id="paint14_linear_738_3120" x1="135.661" y1="45.2579" x2="135.661" y2="23.7416" gradientUnits="userSpaceOnUse">
<stop stop-color="#EB9E21"/>
<stop offset="1" stop-color="#FFD97A"/>
</linearGradient>
<linearGradient id="paint15_linear_738_3120" x1="132.967" y1="53.4817" x2="132.967" y2="43.4901" gradientUnits="userSpaceOnUse">
<stop stop-color="#FFBD44"/>
<stop offset="1" stop-color="#B87200"/>
</linearGradient>
<linearGradient id="paint16_linear_738_3120" x1="76.5001" y1="54" x2="76.5001" y2="48.825" gradientUnits="userSpaceOnUse">
<stop stop-color="#D68600"/>
<stop offset="1" stop-color="#EB9A00"/>
</linearGradient>
<linearGradient id="paint17_linear_738_3120" x1="20.0334" y1="53.4817" x2="20.0334" y2="43.4901" gradientUnits="userSpaceOnUse">
<stop stop-color="#FFBD44"/>
<stop offset="1" stop-color="#B87200"/>
</linearGradient>
<radialGradient id="paint18_radial_738_3120" cx="0" cy="0" r="1" gradientUnits="userSpaceOnUse" gradientTransform="translate(76.5001 51.4125) scale(96.1378 100.81)">
<stop stop-color="#FFBB00"/>
<stop offset="1"/>
</radialGradient>
<radialGradient id="paint19_radial_738_3120" cx="0" cy="0" r="1" gradientUnits="userSpaceOnUse" gradientTransform="translate(28.7269 29.9082) scale(14.2247 14.9159)">
<stop stop-color="#F39200"/>
<stop offset="1" stop-color="white"/>
</radialGradient>
<radialGradient id="paint20_radial_738_3120" cx="0" cy="0" r="1" gradientUnits="userSpaceOnUse" gradientTransform="translate(125.268 29.2819) scale(13.3522 14.001)">
<stop stop-color="#F39200"/>
<stop offset="1" stop-color="white"/>
</radialGradient>
<radialGradient id="paint21_radial_738_3120" cx="0" cy="0" r="1" gradientUnits="userSpaceOnUse" gradientTransform="translate(126.729 41.5967) scale(11.5139 12.0734)">
<stop stop-color="#F39200"/>
<stop offset="1" stop-color="white"/>
</radialGradient>
<radialGradient id="paint22_radial_738_3120" cx="0" cy="0" r="1" gradientUnits="userSpaceOnUse" gradientTransform="translate(28.2964 5.50261) scale(42.7818 44.8608)">
<stop stop-color="#FFFD9E"/>
<stop offset="1"/>
</radialGradient>
<radialGradient id="paint23_radial_738_3120" cx="0" cy="0" r="1" gradientUnits="userSpaceOnUse" gradientTransform="translate(53.5442 3.12542) scale(47.2271 49.5221)">
<stop stop-color="#FFFD9E"/>
<stop offset="1"/>
</radialGradient>
<radialGradient id="paint24_radial_738_3120" cx="0" cy="0" r="1" gradientUnits="userSpaceOnUse" gradientTransform="translate(72.5488 -12.3474) scale(68.1228 71.4332)">
<stop stop-color="#FFFD9E"/>
<stop offset="1"/>
</radialGradient>
<linearGradient id="paint25_linear_738_3120" x1="76.5" y1="54" x2="76.5" y2="15" gradientUnits="userSpaceOnUse">
<stop stop-color="#CF8000"/>
<stop offset="1" stop-color="#F5B133"/>
</linearGradient>
</defs>
</svg>
