<svg width="45" height="44" viewBox="0 0 45 44" fill="none" xmlns="http://www.w3.org/2000/svg">
<path fill-rule="evenodd" clip-rule="evenodd" d="M22.6334 0C26.9846 0 31.2381 1.29027 34.8559 3.70766C38.4738 6.12504 41.2936 9.56096 42.9588 13.5809C44.6239 17.6009 45.0596 22.0244 44.2107 26.2919C43.3618 30.5595 41.2666 34.4795 38.1898 37.5563C35.1131 40.6331 31.1931 42.7284 26.9255 43.5773C22.6579 44.4261 18.2345 43.9905 14.2145 42.3254C10.1945 40.6603 6.75856 37.8405 4.34116 34.2226C1.92375 30.6048 0.63345 26.3513 0.633423 22.0001C0.633416 16.1654 2.95126 10.5696 7.07706 6.44373C11.2029 2.31791 16.7986 2.93812e-05 22.6334 0Z" fill="url(#paint0_linear_1524_13874)"/>
<path fill-rule="evenodd" clip-rule="evenodd" d="M6.35879 22C6.35879 19.8628 6.77975 17.7465 7.59763 15.772C8.4155 13.7974 9.61429 12.0033 11.1255 10.4921C12.6368 8.98086 14.4309 7.78208 16.4054 6.9642C18.3799 6.14633 20.4962 5.72537 22.6334 5.72537C24.7706 5.72537 26.8869 6.14633 28.8615 6.9642C30.836 7.78208 32.6301 8.98086 34.1413 10.4921C35.6525 12.0033 36.8513 13.7974 37.6692 15.772C38.4871 17.7465 38.908 19.8628 38.908 22C39.1223 21.413 39.5119 20.906 40.0239 20.5478C40.536 20.1896 41.1458 19.9974 41.7707 19.9974C42.3957 19.9974 43.0055 20.1896 43.5175 20.5478C44.0296 20.906 44.4192 21.413 44.6334 22C44.6334 16.1652 42.3156 10.5694 38.1898 6.44365C34.064 2.31785 28.4682 0 22.6334 0C16.7987 0 11.2029 2.31785 7.07707 6.44365C2.95127 10.5694 0.633423 16.1652 0.633423 22C0.847684 21.413 1.23725 20.906 1.74931 20.5478C2.26138 20.1896 2.87118 19.9974 3.4961 19.9974C4.12102 19.9974 4.73084 20.1896 5.2429 20.5478C5.75497 20.906 6.14453 21.413 6.35879 22Z" fill="url(#paint1_linear_1524_13874)"/>
<g style="mix-blend-mode:screen">
<path fill-rule="evenodd" clip-rule="evenodd" d="M22.2165 5.29834C25.4372 5.29833 28.5857 6.25339 31.2637 8.04275C33.9417 9.83211 36.0289 12.3754 37.2615 15.351C38.494 18.3266 38.8165 21.6009 38.1882 24.7598C37.5598 27.9187 36.0089 30.8203 33.7314 33.0978C31.454 35.3752 28.5524 36.9262 25.3935 37.5545C22.2346 38.1828 18.9603 37.8603 15.9847 36.6278C13.0091 35.3952 10.4658 33.308 8.67641 30.63C6.88705 27.952 5.93199 24.8036 5.93201 21.5828C5.93204 17.2639 7.64772 13.1219 10.7016 10.068C13.7556 7.01406 17.8976 5.29837 22.2165 5.29834Z" fill="#F7E984"/>
</g>
<path fill-rule="evenodd" clip-rule="evenodd" d="M22.6335 5.72559C25.8523 5.72559 28.9988 6.68007 31.6752 8.46834C34.3515 10.2566 36.4375 12.7984 37.6693 15.7721C38.9011 18.7459 39.2234 22.0182 38.5954 25.1752C37.9675 28.3321 36.4175 31.232 34.1415 33.5081C31.8654 35.7841 28.9656 37.3341 25.8086 37.9621C22.6517 38.5901 19.3794 38.2678 16.4056 37.036C13.4318 35.8043 10.89 33.7183 9.10173 31.042C7.31343 28.3657 6.35891 25.2192 6.35889 22.0003C6.35887 17.684 8.0735 13.5445 11.1256 10.4924C14.1777 7.44028 18.3172 5.72561 22.6335 5.72559Z" fill="url(#paint2_radial_1524_13874)"/>
<path style="mix-blend-mode:screen" fill-rule="evenodd" clip-rule="evenodd" d="M9.24767 31.2591L31.8926 8.61424C29.9629 7.28223 27.7689 6.38174 25.4599 5.97409C23.1508 5.56644 20.7811 5.66121 18.512 6.25194L6.88525 17.8788C6.2945 20.1479 6.19973 22.5176 6.60741 24.8266C7.01508 27.1356 7.91561 29.3296 9.24767 31.2591Z" fill="url(#paint3_radial_1524_13874)"/>
<path style="mix-blend-mode:screen" fill-rule="evenodd" clip-rule="evenodd" d="M37.5547 16.099L16.7326 36.9211L16.5531 37.1005C18.29 37.8002 20.1351 38.1934 22.0064 38.2626L22.4025 37.8665L38.5001 21.769L38.8963 21.3727C38.8269 19.5015 38.4337 17.6564 37.7343 15.9194L37.5547 16.099Z" fill="url(#paint4_radial_1524_13874)"/>
<path fill-rule="evenodd" clip-rule="evenodd" d="M22.6334 0.572606C26.8714 0.57262 31.0141 1.82933 34.5379 4.18381C38.0616 6.5383 40.808 9.88481 42.4297 13.8002C44.0515 17.7155 44.4759 22.0239 43.6491 26.1804C42.8223 30.3369 40.7815 34.1549 37.7849 37.1516C34.7882 40.1482 30.9702 42.189 26.8137 43.0158C22.6571 43.8426 18.3488 43.4183 14.4334 41.7965C10.5181 40.1747 7.17159 37.4283 4.8171 33.9046C2.46262 30.3809 1.2059 26.2381 1.20589 22.0001C1.20589 19.1862 1.76013 16.3999 2.83696 13.8002C3.91379 11.2005 5.49213 8.83831 7.48186 6.84858C9.47159 4.85884 11.8337 3.28051 14.4335 2.20367C17.0332 1.12684 19.8195 0.572603 22.6334 0.572606ZM22.6334 0C26.9846 0 31.2381 1.29027 34.8559 3.70766C38.4738 6.12504 41.2936 9.56096 42.9588 13.5809C44.6239 17.6009 45.0596 22.0244 44.2107 26.2919C43.3618 30.5595 41.2666 34.4795 38.1898 37.5563C35.1131 40.6331 31.1931 42.7284 26.9255 43.5773C22.6579 44.4261 18.2345 43.9905 14.2145 42.3254C10.1945 40.6603 6.75856 37.8405 4.34116 34.2226C1.92375 30.6048 0.63345 26.3513 0.633423 22.0001C0.633416 16.1654 2.95126 10.5696 7.07706 6.44373C11.2029 2.31791 16.7986 2.93812e-05 22.6334 0Z" fill="url(#paint5_linear_1524_13874)"/>
<g style="mix-blend-mode:screen">
<path fill-rule="evenodd" clip-rule="evenodd" d="M1.72681 17.2828C3.00158 12.7182 5.73517 8.69634 9.51017 5.83116C13.2852 2.96599 17.8941 1.41499 22.6333 1.41499C27.3725 1.41499 31.9815 2.96599 35.7565 5.83116C39.5315 8.69634 42.265 12.7182 43.5398 17.2828C42.468 12.5387 39.8145 8.30018 36.0153 5.26355C32.216 2.22693 27.497 0.572754 22.6333 0.572754C17.7696 0.572754 13.0506 2.22693 9.25137 5.26355C5.45214 8.30018 2.79865 12.5387 1.72681 17.2828Z" fill="#F7E984"/>
</g>
<path fill-rule="evenodd" clip-rule="evenodd" d="M16.848 13.0791L32.0543 21.9999L16.848 30.9206V13.0791Z" fill="url(#paint6_linear_1524_13874)"/>
<g style="mix-blend-mode:screen">
<path fill-rule="evenodd" clip-rule="evenodd" d="M16.848 32.0577L32.0543 23.1369V22L16.848 30.9208V32.0577Z" fill="#F7E984"/>
</g>
<path fill-rule="evenodd" clip-rule="evenodd" d="M32.0543 21.9999L16.848 13.0791V14.6688L30.6986 22.7947L32.0543 21.9999Z" fill="#753D29"/>
<defs>
<linearGradient id="paint0_linear_1524_13874" x1="22.6334" y1="44" x2="22.6334" y2="0" gradientUnits="userSpaceOnUse">
<stop stop-color="#DE8B00"/>
<stop offset="1" stop-color="#FFC75E"/>
</linearGradient>
<linearGradient id="paint1_linear_1524_13874" x1="22.6334" y1="22" x2="22.6334" y2="-0.000138999" gradientUnits="userSpaceOnUse">
<stop stop-color="#FFB805"/>
<stop offset="1" stop-color="#FFE89C"/>
</linearGradient>
<radialGradient id="paint2_radial_1524_13874" cx="0" cy="0" r="1" gradientUnits="userSpaceOnUse" gradientTransform="translate(14.9563 7.8453) scale(36.1225)">
<stop stop-color="#FFEEB8"/>
<stop offset="1" stop-color="#FFBF00"/>
</radialGradient>
<radialGradient id="paint3_radial_1524_13874" cx="0" cy="0" r="1" gradientUnits="userSpaceOnUse" gradientTransform="translate(16.7266 -1.66037) scale(36.4507 36.4507)">
<stop stop-color="#FFFD9E"/>
<stop offset="1"/>
</radialGradient>
<radialGradient id="paint4_radial_1524_13874" cx="0" cy="0" r="1" gradientUnits="userSpaceOnUse" gradientTransform="translate(30.1238 10.5369) scale(30.9453 30.9453)">
<stop stop-color="#FFFD9E"/>
<stop offset="1"/>
</radialGradient>
<linearGradient id="paint5_linear_1524_13874" x1="22.6334" y1="44" x2="22.6334" y2="0" gradientUnits="userSpaceOnUse">
<stop stop-color="#CF8000"/>
<stop offset="1" stop-color="#F5B133"/>
</linearGradient>
<linearGradient id="paint6_linear_1524_13874" x1="24.4514" y1="30.9209" x2="24.4514" y2="13.0788" gradientUnits="userSpaceOnUse">
<stop stop-color="#D68329"/>
<stop offset="1" stop-color="#954B25"/>
</linearGradient>
</defs>
</svg>
