<svg width="27" height="27" viewBox="0 0 27 27" fill="none" xmlns="http://www.w3.org/2000/svg">
<path d="M13.4942 25.0717C19.9544 25.0717 25.1914 19.8347 25.1914 13.3745C25.1914 6.91425 19.9544 1.67721 13.4942 1.67721C7.03397 1.67721 1.79694 6.91425 1.79694 13.3745C1.79694 19.8347 7.03397 25.0717 13.4942 25.0717Z" fill="url(#paint0_linear_1448_2948)"/>
<path opacity="0.2" d="M13.4942 3.60096C16.4289 3.60191 19.2558 4.70643 21.4137 6.6952C23.5717 8.68397 24.9028 11.4115 25.1428 14.3363C25.1688 14.0182 25.1915 13.6992 25.1915 13.3744C25.1915 10.2721 23.9592 7.29684 21.7655 5.10317C19.5718 2.9095 16.5966 1.67711 13.4942 1.67711C10.3919 1.67711 7.41667 2.9095 5.223 5.10317C3.02932 7.29684 1.79694 10.2721 1.79694 13.3744C1.79694 13.6992 1.8197 14.0182 1.84546 14.3363C2.08551 11.4115 3.41669 8.68396 5.57466 6.69519C7.73264 4.70642 10.5596 3.60191 13.4942 3.60096Z" fill="white"/>
<path d="M13.4941 1.6772C15.8076 1.67721 18.0691 2.36325 19.9927 3.64856C21.9163 4.93388 23.4156 6.76074 24.3009 8.89813C25.1863 11.0355 25.4179 13.3874 24.9666 15.6565C24.5152 17.9255 23.4012 20.0098 21.7653 21.6457C20.1294 23.2815 18.0451 24.3956 15.7761 24.8469C13.5071 25.2983 11.1551 25.0666 9.01774 24.1813C6.88035 23.296 5.05349 21.7967 3.76818 19.8731C2.48286 17.9495 1.79683 15.688 1.79682 13.3745C1.79682 10.2722 3.02922 7.29692 5.22289 5.10325C7.41656 2.90959 10.3918 1.6772 13.4941 1.6772ZM13.4941 0.306267C10.9095 0.306275 8.38289 1.07272 6.23384 2.50868C4.08479 3.94463 2.40981 5.9856 1.42072 8.3735C0.431623 10.7614 0.172833 13.389 0.677075 15.924C1.18132 18.4589 2.42594 20.7875 4.25356 22.6151C6.08118 24.4427 8.40971 25.6873 10.9447 26.1915C13.4797 26.6958 16.1072 26.437 18.4951 25.4479C20.883 24.4588 22.924 22.7838 24.36 20.6348C25.7959 18.4857 26.5624 15.9591 26.5624 13.3745C26.5584 9.90979 25.1803 6.58811 22.7304 4.13819C20.2805 1.68828 16.9588 0.310189 13.4941 0.306267Z" fill="#406627"/>
<path d="M18.578 10.721H16.1478V8.29089C16.1478 7.58716 15.8682 6.91225 15.3706 6.41464C14.873 5.91703 14.1981 5.63747 13.4944 5.63747C13.1459 5.63746 12.8009 5.7061 12.4789 5.83944C12.157 5.97279 11.8645 6.16824 11.6181 6.41463C11.3717 6.66103 11.1762 6.95354 11.0429 7.27546C10.9096 7.59739 10.8409 7.94244 10.8409 8.29089V10.721H8.41074C8.06229 10.721 7.71725 10.7896 7.39532 10.9229C7.07339 11.0563 6.78087 11.2517 6.53448 11.4981C6.28809 11.7445 6.09264 12.037 5.9593 12.359C5.82595 12.6809 5.75732 13.0259 5.75732 13.3744C5.75732 14.0781 6.03688 14.753 6.53449 15.2507C7.0321 15.7483 7.70701 16.0278 8.41074 16.0278H10.8409V18.4579C10.8409 18.8064 10.9096 19.1514 11.0429 19.4734C11.1762 19.7953 11.3717 20.0878 11.6181 20.3342C11.8645 20.5806 12.157 20.776 12.4789 20.9094C12.8009 21.0427 13.1459 21.1114 13.4944 21.1114C14.1981 21.1114 14.873 20.8318 15.3706 20.3342C15.8682 19.8366 16.1478 19.1617 16.1478 18.4579V16.0279H18.578C18.9264 16.0279 19.2715 15.9592 19.5934 15.8259C19.9153 15.6925 20.2078 15.4971 20.4542 15.2507C20.7006 15.0043 20.8961 14.7118 21.0294 14.3899C21.1627 14.0679 21.2314 13.7229 21.2314 13.3744C21.2314 13.026 21.1628 12.6809 21.0294 12.359C20.8961 12.0371 20.7006 11.7446 20.4542 11.4982C20.2078 11.2518 19.9153 11.0563 19.5934 10.923C19.2715 10.7896 18.9264 10.721 18.578 10.721Z" fill="white"/>
<defs>
<linearGradient id="paint0_linear_1448_2948" x1="13.4942" y1="25.0717" x2="13.4942" y2="1.67721" gradientUnits="userSpaceOnUse">
<stop stop-color="#508431"/>
<stop offset="1" stop-color="#66AF3F"/>
</linearGradient>
</defs>
</svg>
