<svg width="28" height="39" viewBox="0 0 28 39" fill="none" xmlns="http://www.w3.org/2000/svg">
<g filter="url(#filter0_d_3434_12968)">
<path fill-rule="evenodd" clip-rule="evenodd" d="M9.29613 28.471C12.0398 30.055 13.5892 32.5079 12.7569 33.9496C11.9245 35.3913 9.02553 35.2759 6.28183 33.6919C3.53823 32.1078 1.98872 29.6549 2.82112 28.2132C3.65342 26.7715 6.55243 26.8869 9.29613 28.471Z" fill="url(#paint0_radial_3434_12968)"/>
<g style="mix-blend-mode:multiply">
<path fill-rule="evenodd" clip-rule="evenodd" d="M12.9002 33.7597C12.1493 35.0604 9.30512 34.8241 6.54742 33.2319C3.78972 31.6398 2.16293 29.2947 2.91372 27.9941C4.16542 30.3805 8.74672 33.6143 12.9002 33.7597Z" fill="#5ACCC9"/>
</g>
<path opacity="0.15" fill-rule="evenodd" clip-rule="evenodd" d="M17.4627 8.79883L16.7431 10.0088C15.7322 11.6835 16.1827 11.2322 14.5904 12.4603C13.7274 13.1211 12.7036 13.5397 11.6248 13.6728C8.12462 14.3038 4.91723 15.6534 3.06313 18.8648C2.3137 20.1638 1.91 21.6334 1.89062 23.1329C1.92966 24.9584 2.43864 26.743 3.36845 28.3145C4.29827 29.8859 5.61751 31.1911 7.19881 32.1041C8.7801 33.017 10.57 33.5069 12.3959 33.5264C14.2217 33.5459 16.0217 33.0944 17.6221 32.2154C18.9111 31.4489 19.9819 30.3645 20.7321 29.066C22.5861 25.8546 22.1513 22.4021 20.9476 19.0554C20.5236 18.0546 20.3742 16.9587 20.515 15.8808C20.7822 13.8877 20.6167 14.5036 21.5617 12.7908L22.2497 11.5626C20.4642 11.0183 18.8268 10.073 17.4627 8.79883Z" fill="white"/>
<path fill-rule="evenodd" clip-rule="evenodd" d="M11.872 16.7163C17.1965 16.7163 21.5127 18.695 21.5127 21.1361C21.5127 23.5771 17.1965 25.556 11.872 25.556C6.54782 25.556 2.23163 23.5771 2.23163 21.1361C2.23163 18.695 6.54782 16.7163 11.872 16.7163Z" fill="url(#paint1_radial_3434_12968)"/>
<path fill-rule="evenodd" clip-rule="evenodd" d="M11.872 25.556C6.54782 25.556 2.23163 23.5771 2.23163 21.1361C2.23191 20.9209 2.26513 20.7071 2.33012 20.502C2.05141 21.3516 1.90322 22.2386 1.89062 23.1327C1.92963 24.9582 2.43859 26.7428 3.36839 28.3142C4.29819 29.8857 5.61742 31.1909 7.19872 32.1038C8.78001 33.0168 10.57 33.5067 12.3958 33.5262C14.2216 33.5457 16.0216 33.0941 17.622 32.2152C18.911 31.4487 19.9819 30.3643 20.7321 29.0658C21.423 27.7872 21.8437 26.3803 21.968 24.9324C22.0923 23.4845 21.9176 22.0264 21.4547 20.6489C21.4932 20.8084 21.5127 20.9719 21.5127 21.136C21.5127 23.5771 17.1966 25.556 11.872 25.556Z" fill="url(#paint2_radial_3434_12968)"/>
<path style="mix-blend-mode:screen" fill-rule="evenodd" clip-rule="evenodd" d="M19.8913 23.0396C19.8913 20.7509 15.8442 18.8955 10.852 18.8955C6.89332 18.8955 3.52903 20.0622 2.30553 21.6865C2.89663 23.8677 6.95432 25.556 11.872 25.556C14.6361 25.6613 17.3758 25.0044 19.7916 23.6572C19.8573 23.4579 19.8909 23.2494 19.8913 23.0396Z" fill="url(#paint3_radial_3434_12968)"/>
<path style="mix-blend-mode:screen" fill-rule="evenodd" clip-rule="evenodd" d="M17.3976 23.5011C17.3976 21.5475 13.9433 19.9638 9.68202 19.9639C6.42732 19.9638 3.64342 20.8877 2.50972 22.1947C3.54402 24.1246 7.34352 25.5563 11.872 25.5563C13.5049 25.5662 15.1323 25.3655 16.7138 24.9593C16.9187 24.7736 17.0847 24.5491 17.202 24.2988C17.3194 24.0485 17.3859 23.7773 17.3976 23.5011Z" fill="url(#paint4_radial_3434_12968)"/>
<path style="mix-blend-mode:screen" fill-rule="evenodd" clip-rule="evenodd" d="M11.872 25.5563C7.34352 25.5563 3.54402 24.1246 2.50972 22.1947C2.42809 22.0438 2.36275 21.8845 2.31482 21.7197C2.23162 22.1605 2.18642 22.6076 2.17972 23.0561C2.21395 24.6579 2.66055 26.2237 3.47639 27.6026C4.29224 28.9814 5.44977 30.1266 6.83725 30.9276C8.22473 31.7287 9.79528 32.1585 11.3973 32.1756C12.9993 32.1927 14.5787 31.7965 15.9829 31.0252C17.114 30.3527 18.0536 29.4013 18.7118 28.2619C19.5169 26.8633 19.8966 25.2602 19.8045 23.649L19.7916 23.6575C18.8407 24.251 17.802 24.6903 16.7138 24.9593C15.1323 25.3656 13.5049 25.5663 11.872 25.5563Z" fill="url(#paint5_radial_3434_12968)"/>
<path style="mix-blend-mode:screen" fill-rule="evenodd" clip-rule="evenodd" d="M11.872 25.5562C7.34352 25.5562 3.54402 24.1245 2.50972 22.1946C2.53152 22.1694 2.55393 22.1445 2.57693 22.1196C2.56102 22.0765 2.54662 22.033 2.53412 21.9893C2.52222 22.0523 2.51125 22.1154 2.50122 22.1788C2.45445 22.4764 2.42868 22.7771 2.42412 23.0784C2.45199 24.3837 2.81592 25.6598 3.48076 26.7835C4.1456 27.9071 5.08892 28.8404 6.21962 29.4933C7.35032 30.1461 8.63022 30.4964 9.93578 30.5103C11.2413 30.5242 12.5284 30.2014 13.6728 29.5729C14.5946 29.0248 15.3603 28.2494 15.8968 27.3209C16.3197 26.5929 16.5992 25.7906 16.72 24.9575L16.7138 24.9592C15.1323 25.3654 13.5049 25.5661 11.872 25.5562Z" fill="url(#paint6_radial_3434_12968)"/>
<path fill-rule="evenodd" clip-rule="evenodd" d="M22.3406 13.2204L23.1639 11.7438C22.9944 11.7252 22.8259 11.6982 22.659 11.6627C22.4845 11.6256 22.3088 11.5808 22.133 11.5293L21.4578 12.7334C20.8339 13.6587 20.4503 14.7249 20.3417 15.8357C20.2332 16.9464 20.4031 18.0667 20.8361 19.0954C22.0281 22.4099 22.464 25.8288 20.6294 29.0066C19.8891 30.2875 18.8327 31.3572 17.5611 32.1135C15.9788 32.9816 14.1995 33.4273 12.3949 33.4076C10.5902 33.3879 8.82102 32.9036 7.25803 32.0012C5.69504 31.0988 4.39095 29.8088 3.47158 28.2558C2.55221 26.7027 2.04856 24.9389 2.00922 23.1346C2.02845 21.6552 2.42672 20.2055 3.16595 18.924C5.00054 15.7462 8.18343 14.4367 11.6457 13.7894C11.8433 13.7393 12.0492 13.7316 12.2499 13.7666C12.4507 13.8015 12.6418 13.8785 12.8108 13.9924C13.7347 14.686 14.4268 15.8303 15.9051 16.5172C15.0527 15.8606 13.7655 14.3638 13.7574 13.5025C13.7499 13.4153 13.7646 13.3277 13.8003 13.2478C13.836 13.168 13.8914 13.0985 13.9613 13.046C15.1906 12.3544 16.1924 11.3204 16.8447 10.0699L17.5498 8.88316C17.4177 8.75686 17.2912 8.62746 17.172 8.49506C17.0575 8.36817 16.9496 8.23554 16.8486 8.09766L15.9814 9.54885C15.5665 10.4289 14.9343 11.1889 14.1445 11.7572C13.3547 12.3254 12.4333 12.6833 11.4669 12.7972C7.63294 13.4883 4.26443 15.0049 2.29273 18.4199C-0.548058 23.3402 1.44934 29.8117 6.75404 32.8744C12.0585 35.937 18.6618 34.431 21.5025 29.5107C23.4741 26.0957 23.1032 22.42 21.7847 18.7542C21.4002 17.8604 21.2495 16.8834 21.3467 15.9153C21.444 14.9472 21.786 14.0198 22.3406 13.2204Z" fill="url(#paint7_radial_3434_12968)"/>
<path style="mix-blend-mode:screen" fill-rule="evenodd" clip-rule="evenodd" d="M21.0054 13.7368C20.6581 14.9643 20.5751 16.2515 20.7616 17.5134C20.9516 18.9153 21.2253 20.3046 21.5813 21.6738C20.9244 20.2962 20.3933 18.8621 19.9945 17.3889C20.0479 16.1103 20.3937 14.8609 21.0054 13.7368Z" fill="url(#paint8_linear_3434_12968)"/>
<path style="mix-blend-mode:screen" opacity="0.5" fill-rule="evenodd" clip-rule="evenodd" d="M20.0353 9.87035L22.326 11.193C20.5083 14.3417 18.009 16.3019 16.7438 15.5714C15.4786 14.841 15.9267 11.6965 17.7446 8.54785L20.0353 9.87035Z" fill="url(#paint9_radial_3434_12968)"/>
<path style="mix-blend-mode:screen" opacity="0.5" fill-rule="evenodd" clip-rule="evenodd" d="M19.2226 9.31775L20.2765 10.0042C19.0304 12.014 17.5484 13.3358 16.9663 12.9567C16.3842 12.5776 16.9225 10.641 18.1686 8.63135L19.2226 9.31775Z" fill="url(#paint10_radial_3434_12968)"/>
<path style="mix-blend-mode:screen" fill-rule="evenodd" clip-rule="evenodd" d="M8.23254 17.2711C8.00644 17.0572 7.73263 16.7876 7.42323 16.8025C6.30883 16.8566 4.96904 18.2399 4.39474 19.0902C3.69027 20.029 3.2324 21.1294 3.06301 22.2909C2.89363 23.4523 3.01813 24.6377 3.42513 25.7386C3.69494 26.3464 5.48283 27.4352 5.51994 27.0312C5.51278 26.001 5.75599 24.9845 6.22863 24.0691C6.93488 22.8508 7.88386 21.7906 9.01673 20.9542C10.1075 20.1176 10.1768 19.8334 9.76783 19.2395C9.29402 18.5546 8.78143 17.8974 8.23254 17.2711ZM13.0606 15.7501C14.1998 17.0121 14.1451 17.7542 13.6245 18.3441C12.6432 19.4563 11.0917 18.9385 10.0864 17.695C9.08094 16.4515 8.89373 15.7914 9.42423 15.2351C10.2141 14.4073 11.9214 14.4881 13.0606 15.7501Z" fill="url(#paint11_radial_3434_12968)"/>
<g style="mix-blend-mode:screen">
<path fill-rule="evenodd" clip-rule="evenodd" d="M12.348 15.8482C12.0857 15.5036 11.7032 15.2706 11.2767 15.1955C10.8502 15.1204 10.4111 15.2088 10.0469 15.4431C9.72793 15.7618 9.86362 16.1616 10.5291 16.9323C11.1947 17.703 12.1843 18.0542 12.772 17.415C13.0837 17.0761 13.0982 16.6335 12.348 15.8482ZM7.26762 17.5575C7.18635 17.5149 7.09489 17.4956 7.00334 17.5017C6.91179 17.5078 6.82371 17.5391 6.74882 17.5921C6.02376 18.0384 5.39565 18.6257 4.90171 19.3192C4.30462 20.0609 3.87787 20.9247 3.65167 21.8496C3.42546 22.7745 3.40534 23.7378 3.59272 24.6714C3.64932 24.8597 3.78112 25.2092 3.96562 25.2754C4.05022 25.3057 4.13381 25.2307 4.18821 25.0068C4.34281 24.3701 4.59647 23.7616 4.93992 23.2036C5.75145 21.9043 6.79866 20.7682 8.02761 19.8537C8.43441 19.5408 8.52071 19.3541 8.47361 19.185C8.13104 18.6009 7.72673 18.0552 7.26762 17.5575Z" fill="url(#paint12_radial_3434_12968)"/>
</g>
<path style="mix-blend-mode:screen" opacity="0.5" fill-rule="evenodd" clip-rule="evenodd" d="M19.0087 9.31456L19.5495 9.68187C18.703 11.1204 17.7747 12.1221 17.476 11.9193C17.1772 11.7164 17.6213 10.3858 18.4678 8.94727L19.0087 9.31456Z" fill="url(#paint13_radial_3434_12968)"/>
<g style="mix-blend-mode:multiply" opacity="0.5">
<path fill-rule="evenodd" clip-rule="evenodd" d="M22.3234 13.2433C22.0178 13.7727 20.5403 13.0547 19.0234 11.6395C17.5066 10.2243 16.5246 8.64787 16.8303 8.11847L16.8404 8.10107C18.4897 9.99016 20.7215 11.2757 23.183 11.7546L22.3234 13.2433Z" fill="#7F8E99"/>
</g>
<path fill-rule="evenodd" clip-rule="evenodd" d="M24.7221 11.8637C24.0998 12.5595 21.8425 12.0885 19.5266 10.7515C17.2118 9.41501 15.6755 7.69651 15.9653 6.80921C16.3285 5.92366 16.8454 5.10932 17.4922 4.40381L21.7712 6.86391L26.0418 9.33991C25.7547 10.2526 25.3079 11.1071 24.7221 11.8637ZM24.6794 9.19891L21.4927 7.35131L18.2958 5.51341C18.1307 5.72312 17.9833 5.94615 17.855 6.18021C16.6535 8.27121 23.1103 11.999 24.3213 9.91431C24.4603 9.68617 24.5801 9.44688 24.6794 9.19891Z" fill="url(#paint14_radial_3434_12968)"/>
<path opacity="0.15" fill-rule="evenodd" clip-rule="evenodd" d="M24.432 9.97837C24.5941 9.71405 24.7329 9.43614 24.8468 9.14777L21.5565 7.24007L18.2562 5.34277C18.0634 5.58525 17.892 5.84403 17.744 6.11617C16.4556 8.35837 23.1334 12.2138 24.432 9.97837Z" fill="white"/>
<path fill-rule="evenodd" clip-rule="evenodd" d="M23.5094 10.0226C23.1653 10.4261 21.7944 10.112 20.3703 9.28979C18.9968 8.49679 18.0572 7.50999 18.1518 6.99279C18.322 6.50606 18.5243 6.03117 18.7575 5.57129L24.3971 8.82729C24.0749 9.29419 23.7645 9.72359 23.5094 10.0226Z" fill="#8E633F"/>
<path style="mix-blend-mode:screen" fill-rule="evenodd" clip-rule="evenodd" d="M12.0167 33.868C8.87742 34.1397 4.45663 31.8396 3.26213 28.8135C5.43171 31.5499 8.5621 33.3573 12.0167 33.868Z" fill="url(#paint15_linear_3434_12968)"/>
<path fill-rule="evenodd" clip-rule="evenodd" d="M15.3109 33.0831C16.942 32.4359 18.3884 31.3968 19.5224 30.0577C20.6563 28.7185 21.4429 27.1206 21.8125 25.4053C21.6961 29.4949 19.1771 32.5539 15.3109 33.0831Z" fill="white"/>
<path style="mix-blend-mode:screen" fill-rule="evenodd" clip-rule="evenodd" d="M16.6731 7.73121C16.5284 6.96221 17.6625 5.40091 18.1467 4.78011L17.4922 4.40381C16.8454 5.10934 16.3285 5.92367 15.9652 6.80921C15.6972 7.63041 16.993 9.16351 19.0224 10.4467C18.0746 9.76531 16.8559 8.70231 16.6731 7.73121Z" fill="url(#paint16_radial_3434_12968)"/>
<path fill-rule="evenodd" clip-rule="evenodd" d="M22.561 5.49554C24.9217 6.85854 26.4798 8.57944 26.0411 9.33924C25.6024 10.099 23.3331 9.61014 20.9723 8.24714C18.6117 6.88424 17.0535 5.16334 17.4922 4.40354C17.9309 3.64364 20.2003 4.13264 22.561 5.49554Z" fill="url(#paint17_radial_3434_12968)"/>
<path fill-rule="evenodd" clip-rule="evenodd" d="M24.9099 9.68077C23.442 9.58817 22.0224 9.12023 20.7871 8.32177C20.2617 8.01984 19.7579 7.68179 19.2793 7.31007C19.2205 7.38644 19.146 7.44933 19.0609 7.49452C18.9757 7.53971 18.8819 7.56614 18.7857 7.57204C18.6895 7.57795 18.5931 7.56318 18.5031 7.52874C18.4131 7.4943 18.3314 7.44098 18.2637 7.37237C18.0946 7.21426 17.979 7.00733 17.9331 6.78041C17.8872 6.5535 17.9131 6.31791 18.0074 6.10647C17.4594 5.44607 17.2327 4.85287 17.4529 4.47157C17.4671 4.44704 17.4831 4.42358 17.5006 4.40137C17.2142 5.15827 18.8233 6.82137 21.1843 8.18447C22.335 8.88555 23.594 9.39116 24.9099 9.68077Z" fill="white"/>
<path fill-rule="evenodd" clip-rule="evenodd" d="M24.69 8.42181C24.3211 8.85431 22.8517 8.51761 21.3252 7.63631C19.8529 6.78631 18.8457 5.72851 18.9471 5.17411C19.526 3.66146 20.2189 2.19492 21.0197 0.787109L26.7408 5.66951C26.0527 6.61911 25.4228 7.56271 24.69 8.42181Z" fill="#8E633F"/>
<path style="mix-blend-mode:screen" fill-rule="evenodd" clip-rule="evenodd" d="M24.721 7.8604C24.3884 8.2458 23.0381 7.9239 21.6287 7.1102C20.2693 6.3254 19.3335 5.3591 19.4196 4.8605C19.9227 3.51922 20.5315 2.22001 21.2402 0.975098L26.4538 5.4245C25.8355 6.2722 25.3816 7.0949 24.721 7.8604Z" fill="url(#paint18_radial_3434_12968)"/>
<path style="mix-blend-mode:screen" fill-rule="evenodd" clip-rule="evenodd" d="M23.7373 3.40982C22.5782 5.41722 21.4632 6.43442 20.5784 5.71552C19.6939 4.99662 20.2213 3.13152 21.3803 1.12402L23.7373 3.40982Z" fill="url(#paint19_radial_3434_12968)"/>
<path fill-rule="evenodd" clip-rule="evenodd" d="M21.3679 4.99485C21.5529 5.01017 21.725 5.09556 21.849 5.23356C21.9731 5.37155 22.0398 5.55173 22.0354 5.73725C22.0485 5.92913 22.0041 6.12056 21.908 6.28713C21.8119 6.45371 21.6683 6.58788 21.4956 6.67255C21.1842 6.77375 20.8243 6.24895 20.7529 5.75255C20.6817 5.25625 20.9787 4.91975 21.3679 4.99485Z" fill="url(#paint20_linear_3434_12968)"/>
<path fill-rule="evenodd" clip-rule="evenodd" d="M25.0483 6.26848C25.1313 6.46689 25.1442 6.68765 25.0849 6.89438C25.0256 7.1011 24.8976 7.28145 24.722 7.40568C24.5499 7.49639 24.3524 7.52713 24.1608 7.49305C23.9693 7.45897 23.7945 7.362 23.6642 7.21748C23.4694 6.97838 23.6711 6.52498 24.016 6.26948C24.361 6.01388 24.8611 5.97548 25.0483 6.26848Z" fill="url(#paint21_linear_3434_12968)"/>
<g style="mix-blend-mode:screen" opacity="0.25">
<path fill-rule="evenodd" clip-rule="evenodd" d="M24.338 2.41819C22.7042 1.15389 21.2589 0.338187 20.9523 0.869387C20.7927 1.14549 20.9592 1.72259 21.3848 2.40319C21.2449 2.58196 21.1702 2.80308 21.1729 3.03005C21.1756 3.25703 21.2556 3.47631 21.3997 3.65169C21.5339 3.83274 21.7318 3.95609 21.9534 3.99682C22.175 4.03755 22.4039 3.99261 22.5936 3.87109C22.7797 4.05119 22.9788 4.22969 23.1914 4.40399C24.8617 5.77249 26.3654 6.27159 26.7408 5.66939C27.0474 5.13829 25.9716 3.68259 24.338 2.41819Z" fill="#EDCAA6"/>
</g>
<path fill-rule="evenodd" clip-rule="evenodd" d="M24.4017 2.30759C26.0002 3.63309 27.0474 5.13829 26.7408 5.66939C26.4341 6.20059 24.8896 5.55669 23.2912 4.23119C21.6927 2.90569 20.6456 1.40049 20.9523 0.869292C21.2589 0.338192 22.8034 0.982093 24.4017 2.30759Z" fill="#936E4E"/>
<path style="mix-blend-mode:screen" fill-rule="evenodd" clip-rule="evenodd" d="M23.8846 2.03018C25.1992 3.12028 26.0603 4.35808 25.8081 4.79488C25.556 5.23168 24.2857 4.70218 22.9713 3.61208C21.6568 2.52208 20.7957 1.28428 21.048 0.847477C21.3001 0.410677 22.5701 0.940176 23.8846 2.03018Z" fill="url(#paint22_radial_3434_12968)"/>
<path fill-rule="evenodd" clip-rule="evenodd" d="M23.0372 1.60813C23.5341 1.97903 23.8622 2.40933 23.77 2.56903C23.6777 2.72883 23.2 2.55773 22.7031 2.18683C22.2062 1.81593 21.8782 1.38563 21.9704 1.22583C22.0627 1.06613 22.5403 1.23723 23.0372 1.60813Z" fill="url(#paint23_linear_3434_12968)"/>
<path fill-rule="evenodd" clip-rule="evenodd" d="M24.114 3.5308C24.4701 3.7959 24.6924 4.1258 24.6104 4.2677C24.5285 4.4096 24.1734 4.3097 23.8174 4.0446C23.4614 3.7795 23.2391 3.4495 23.3211 3.3077C23.4029 3.1658 23.758 3.2657 24.114 3.5308Z" fill="url(#paint24_linear_3434_12968)"/>
<path fill-rule="evenodd" clip-rule="evenodd" d="M25.895 4.19501C26.2916 4.51551 26.5372 4.90691 26.4437 5.06901C26.35 5.23111 25.9526 5.10261 25.556 4.78201C25.1594 4.46141 24.9138 4.07011 25.0074 3.90801C25.1009 3.74591 25.4984 3.87441 25.895 4.19501Z" fill="url(#paint25_linear_3434_12968)"/>
<path fill-rule="evenodd" clip-rule="evenodd" d="M22.4726 3.69389C22.3946 3.73968 22.3082 3.76963 22.2186 3.78205C22.1289 3.79447 22.0377 3.7891 21.9501 3.76626C21.8625 3.74341 21.7803 3.70354 21.7081 3.64891C21.636 3.59429 21.5753 3.52598 21.5295 3.44789C21.2327 3.06969 21.2327 2.62549 21.4684 2.43979C21.704 2.25409 22.174 2.43949 22.4823 2.80129C22.7907 3.16299 22.7358 3.51529 22.4726 3.69389Z" fill="url(#paint26_linear_3434_12968)"/>
<path style="mix-blend-mode:screen" fill-rule="evenodd" clip-rule="evenodd" d="M20.5983 27.1294C20.1441 28.2902 19.4545 29.3444 18.5728 30.2255C17.6911 31.1067 16.6365 31.7957 15.4754 32.2492C14.3143 32.7027 13.0719 32.9108 11.8264 32.8605C10.5809 32.8102 9.35934 32.5025 8.23862 31.9568C12.8138 31.9319 17.2174 30.212 20.5983 27.1294Z" fill="url(#paint27_radial_3434_12968)"/>
</g>
<defs>
<filter id="filter0_d_3434_12968" x="1.52588e-05" y="0.683105" width="27.7941" height="38.2764" filterUnits="userSpaceOnUse" color-interpolation-filters="sRGB">
<feFlood flood-opacity="0" result="BackgroundImageFix"/>
<feColorMatrix in="SourceAlpha" type="matrix" values="0 0 0 0 0 0 0 0 0 0 0 0 0 0 0 0 0 0 127 0" result="hardAlpha"/>
<feOffset dy="3"/>
<feGaussianBlur stdDeviation="0.5"/>
<feComposite in2="hardAlpha" operator="out"/>
<feColorMatrix type="matrix" values="0 0 0 0 0 0 0 0 0 0 0 0 0 0 0 0 0 0 0.3 0"/>
<feBlend mode="normal" in2="BackgroundImageFix" result="effect1_dropShadow_3434_12968"/>
<feBlend mode="normal" in="SourceGraphic" in2="effect1_dropShadow_3434_12968" result="shape"/>
</filter>
<radialGradient id="paint0_radial_3434_12968" cx="0" cy="0" r="1" gradientUnits="userSpaceOnUse" gradientTransform="translate(-0.419943 23.1251) scale(17.2771 17.2771)">
<stop stop-color="white"/>
<stop offset="1" stop-color="#5E689E"/>
</radialGradient>
<radialGradient id="paint1_radial_3434_12968" cx="0" cy="0" r="1" gradientUnits="userSpaceOnUse" gradientTransform="translate(8.38733 26.2908) scale(14.0852 14.0852)">
<stop stop-color="#95C11F"/>
<stop offset="1" stop-color="#3D8C00"/>
</radialGradient>
<radialGradient id="paint2_radial_3434_12968" cx="0" cy="0" r="1" gradientUnits="userSpaceOnUse" gradientTransform="translate(8.52648 23.8421) scale(18.0107 18.0107)">
<stop stop-color="#79A600"/>
<stop offset="0.60967" stop-color="#007011"/>
<stop offset="0.88848" stop-color="#95C11F"/>
</radialGradient>
<radialGradient id="paint3_radial_3434_12968" cx="0" cy="0" r="1" gradientUnits="userSpaceOnUse" gradientTransform="translate(9.35599 28.1065) scale(16.9056)">
<stop stop-color="#468A00"/>
<stop offset="1"/>
</radialGradient>
<radialGradient id="paint4_radial_3434_12968" cx="0" cy="0" r="1" gradientUnits="userSpaceOnUse" gradientTransform="translate(5.81543 28.7133) scale(14.69 14.69)">
<stop stop-color="#64AA19"/>
<stop offset="1"/>
</radialGradient>
<radialGradient id="paint5_radial_3434_12968" cx="0" cy="0" r="1" gradientUnits="userSpaceOnUse" gradientTransform="translate(10.4154 21.3771) scale(12.0068 12.0068)">
<stop stop-color="#95C11F"/>
<stop offset="1"/>
</radialGradient>
<radialGradient id="paint6_radial_3434_12968" cx="0" cy="0" r="1" gradientUnits="userSpaceOnUse" gradientTransform="translate(7.53884 22.418) scale(11.0274)">
<stop stop-color="#95C11F"/>
<stop offset="1"/>
</radialGradient>
<radialGradient id="paint7_radial_3434_12968" cx="0" cy="0" r="1" gradientUnits="userSpaceOnUse" gradientTransform="translate(10.6663 13.1115) scale(39.0734 39.0734)">
<stop stop-color="#CCF0EF"/>
<stop offset="1" stop-color="#5E73E6"/>
</radialGradient>
<linearGradient id="paint8_linear_3434_12968" x1="20.2274" y1="13.7346" x2="22.3328" y2="27.8917" gradientUnits="userSpaceOnUse">
<stop stop-color="white"/>
<stop offset="1"/>
</linearGradient>
<radialGradient id="paint9_radial_3434_12968" cx="0" cy="0" r="1" gradientUnits="userSpaceOnUse" gradientTransform="translate(12.6126 7.51598) scale(11.5897 11.5897)">
<stop stop-color="white"/>
<stop offset="1"/>
</radialGradient>
<radialGradient id="paint10_radial_3434_12968" cx="0" cy="0" r="1" gradientUnits="userSpaceOnUse" gradientTransform="translate(16.3007 9.04953) scale(6.2293 6.22931)">
<stop stop-color="white"/>
<stop offset="1"/>
</radialGradient>
<radialGradient id="paint11_radial_3434_12968" cx="0" cy="0" r="1" gradientUnits="userSpaceOnUse" gradientTransform="translate(13.1342 25.811) scale(16.7562 16.7562)">
<stop offset="0.36989"/>
<stop offset="1" stop-color="white"/>
</radialGradient>
<radialGradient id="paint12_radial_3434_12968" cx="0" cy="0" r="1" gradientUnits="userSpaceOnUse" gradientTransform="translate(11.7459 23.9518) scale(17.1511 17.1511)">
<stop/>
<stop offset="1" stop-color="white"/>
</radialGradient>
<radialGradient id="paint13_radial_3434_12968" cx="0" cy="0" r="1" gradientUnits="userSpaceOnUse" gradientTransform="translate(17.3527 9.56969) scale(4.48124 4.48123)">
<stop stop-color="white"/>
<stop offset="1"/>
</radialGradient>
<radialGradient id="paint14_radial_3434_12968" cx="0" cy="0" r="1" gradientUnits="userSpaceOnUse" gradientTransform="translate(18.009 4.37694) scale(13.7713 13.7713)">
<stop stop-color="#CCF0EF"/>
<stop offset="1" stop-color="#364E82"/>
</radialGradient>
<linearGradient id="paint15_linear_3434_12968" x1="2.82473" y1="29.2573" x2="11.7261" y2="34.578" gradientUnits="userSpaceOnUse">
<stop stop-color="white"/>
<stop offset="1"/>
</linearGradient>
<radialGradient id="paint16_radial_3434_12968" cx="0" cy="0" r="1" gradientUnits="userSpaceOnUse" gradientTransform="translate(20.1403 8.22445) scale(5.36843 5.36842)">
<stop/>
<stop offset="1" stop-color="white"/>
</radialGradient>
<radialGradient id="paint17_radial_3434_12968" cx="0" cy="0" r="1" gradientUnits="userSpaceOnUse" gradientTransform="translate(17.5356 4.22055) scale(16.0505 16.0505)">
<stop stop-color="#F2FFFF"/>
<stop offset="1" stop-color="#6A79C2"/>
</radialGradient>
<radialGradient id="paint18_radial_3434_12968" cx="0" cy="0" r="1" gradientUnits="userSpaceOnUse" gradientTransform="translate(21.2157 2.22116) scale(6.74734 6.74733)">
<stop stop-color="#CA9E67"/>
<stop offset="1"/>
</radialGradient>
<radialGradient id="paint19_radial_3434_12968" cx="0" cy="0" r="1" gradientUnits="userSpaceOnUse" gradientTransform="translate(21.3768 1.33719) scale(4.93466 4.93467)">
<stop stop-color="#CA9E67"/>
<stop offset="1"/>
</radialGradient>
<linearGradient id="paint20_linear_3434_12968" x1="21.9288" y1="6.32853" x2="20.8223" y2="5.22193" gradientUnits="userSpaceOnUse">
<stop stop-color="#B07A38"/>
<stop offset="1" stop-color="#704824"/>
</linearGradient>
<linearGradient id="paint21_linear_3434_12968" x1="24.8855" y1="7.2676" x2="23.9427" y2="6.32481" gradientUnits="userSpaceOnUse">
<stop stop-color="#B07A38"/>
<stop offset="1" stop-color="#704824"/>
</linearGradient>
<radialGradient id="paint22_radial_3434_12968" cx="0" cy="0" r="1" gradientUnits="userSpaceOnUse" gradientTransform="translate(21.8626 -1.00869) scale(7.26233 7.26233)">
<stop stop-color="#CA9E67"/>
<stop offset="1"/>
</radialGradient>
<linearGradient id="paint23_linear_3434_12968" x1="21.9549" y1="1.89746" x2="23.7855" y2="1.89746" gradientUnits="userSpaceOnUse">
<stop stop-color="#6B4E35"/>
<stop offset="1" stop-color="#87643A"/>
</linearGradient>
<linearGradient id="paint24_linear_3434_12968" x1="23.3041" y1="3.7877" x2="24.6274" y2="3.7877" gradientUnits="userSpaceOnUse">
<stop stop-color="#6B4E35"/>
<stop offset="1" stop-color="#87643A"/>
</linearGradient>
<linearGradient id="paint25_linear_3434_12968" x1="24.9875" y1="4.48851" x2="26.4636" y2="4.48851" gradientUnits="userSpaceOnUse">
<stop stop-color="#6B4E35"/>
<stop offset="1" stop-color="#87643A"/>
</linearGradient>
<linearGradient id="paint26_linear_3434_12968" x1="22.5295" y1="3.65105" x2="21.3914" y2="2.51295" gradientUnits="userSpaceOnUse">
<stop stop-color="#B07A38"/>
<stop offset="1" stop-color="#704824"/>
</linearGradient>
<radialGradient id="paint27_radial_3434_12968" cx="0" cy="0" r="1" gradientUnits="userSpaceOnUse" gradientTransform="translate(13.1842 25.0486) scale(11.8767 11.8767)">
<stop stop-color="#95C11F"/>
<stop offset="1"/>
</radialGradient>
</defs>
</svg>
