<svg width="335" height="332" viewBox="0 0 335 332" fill="none" xmlns="http://www.w3.org/2000/svg">
<rect x="256" y="49" width="29" height="28" rx="7" fill="black"/>
<rect x="239.5" y="33.5" width="62" height="59" rx="18.5" stroke="black" stroke-width="7"/>
<rect x="50" y="49" width="29" height="28" rx="7" fill="black"/>
<rect x="33.5" y="33.5" width="62" height="59" rx="18.5" stroke="black" stroke-width="7"/>
<rect x="50" y="255" width="29" height="28" rx="7" fill="black"/>
<rect x="33.5" y="239.5" width="62" height="59" rx="18.5" stroke="black" stroke-width="7"/>
<circle cx="110" cy="32" r="3" fill="black"/>
<circle cx="120" cy="42" r="3" fill="black"/>
<circle cx="129" cy="32" r="3" fill="black"/>
<circle cx="138" cy="32" r="3" fill="black"/>
<circle cx="148" cy="32" r="3" fill="black"/>
<circle cx="120" cy="51" r="3" fill="black"/>
<circle cx="129" cy="41" r="3" fill="black"/>
<circle cx="138" cy="41" r="3" fill="black"/>
<circle cx="148" cy="41" r="3" fill="black"/>
<circle cx="158" cy="42" r="3" fill="black"/>
<circle cx="167" cy="32" r="3" fill="black"/>
<circle cx="167" cy="51" r="3" fill="black"/>
<circle cx="187" cy="51" r="3" fill="black"/>
<circle cx="177" cy="51" r="3" fill="black"/>
<circle cx="177" cy="81" r="3" fill="black"/>
<circle cx="177" cy="101" r="3" fill="black"/>
<circle cx="177" cy="111" r="3" fill="black"/>
<circle cx="177" cy="42" r="3" fill="black"/>
<circle cx="186" cy="42" r="3" fill="black"/>
<circle cx="195" cy="42" r="3" fill="black"/>
<circle cx="195" cy="32" r="3" fill="black"/>
<circle cx="205" cy="32" r="3" fill="black"/>
<circle cx="215" cy="32" r="3" fill="black"/>
<circle cx="225" cy="32" r="3" fill="black"/>
<circle cx="195" cy="71" r="3" fill="black"/>
<circle cx="205" cy="71" r="3" fill="black"/>
<circle cx="205" cy="51" r="3" fill="black"/>
<circle cx="215" cy="51" r="3" fill="black"/>
<circle cx="215" cy="61" r="3" fill="black"/>
<circle cx="224" cy="51" r="3" fill="black"/>
<circle cx="167" cy="61" r="3" fill="black"/>
<circle cx="187" cy="61" r="3" fill="black"/>
<circle cx="167" cy="71" r="3" fill="black"/>
<circle cx="187" cy="71" r="3" fill="black"/>
<circle cx="158" cy="81" r="3" fill="black"/>
<circle cx="187" cy="81" r="3" fill="black"/>
<circle cx="167" cy="91" r="3" fill="black"/>
<circle cx="187" cy="91" r="3" fill="black"/>
<circle cx="167" cy="101" r="3" fill="black"/>
<circle cx="187" cy="101" r="3" fill="black"/>
<circle cx="195" cy="101" r="3" fill="black"/>
<circle cx="167" cy="111" r="3" fill="black"/>
<circle cx="187" cy="111" r="3" fill="black"/>
<circle cx="195" cy="111" r="3" fill="black"/>
<circle cx="205" cy="111" r="3" fill="black"/>
<circle cx="205" cy="90" r="3" fill="black"/>
<circle cx="205" cy="71" r="3" fill="black"/>
<circle cx="215" cy="80" r="3" fill="black"/>
<circle cx="224" cy="90" r="3" fill="black"/>
<circle cx="224" cy="99" r="3" fill="black"/>
<circle cx="224" cy="108" r="3" fill="black"/>
<circle cx="234" cy="108" r="3" fill="black"/>
<circle cx="253" cy="108" r="3" fill="black"/>
<circle cx="263" cy="108" r="3" fill="black"/>
<circle cx="273" cy="108" r="3" fill="black"/>
<circle cx="273" cy="118" r="3" fill="black"/>
<circle cx="273" cy="128" r="3" fill="black"/>
<circle cx="263" cy="128" r="3" fill="black"/>
<circle cx="293" cy="128" r="3" fill="black"/>
<circle cx="303" cy="128" r="3" fill="black"/>
<circle cx="303" cy="138" r="3" fill="black"/>
<circle cx="303" cy="148" r="3" fill="black"/>
<circle cx="280" cy="148" r="3" fill="black"/>
<circle cx="290" cy="156" r="3" fill="black"/>
<circle cx="290" cy="165" r="3" fill="black"/>
<circle cx="290" cy="175" r="3" fill="black"/>
<circle cx="300" cy="175" r="3" fill="black"/>
<circle cx="290" cy="185" r="3" fill="black"/>
<circle cx="290" cy="195" r="3" fill="black"/>
<circle cx="281" cy="195" r="3" fill="black"/>
<circle cx="272" cy="195" r="3" fill="black"/>
<circle cx="272" cy="156" r="3" fill="black"/>
<circle cx="262" cy="165" r="3" fill="black"/>
<circle cx="281" cy="205" r="3" fill="black"/>
<circle cx="272" cy="205" r="3" fill="black"/>
<circle cx="272" cy="175" r="3" fill="black"/>
<circle cx="282" cy="175" r="3" fill="black"/>
<circle cx="281" cy="215" r="3" fill="black"/>
<circle cx="300" cy="215" r="3" fill="black"/>
<circle cx="300" cy="224" r="3" fill="black"/>
<circle cx="300" cy="233" r="3" fill="black"/>
<circle cx="291" cy="233" r="3" fill="black"/>
<circle cx="291" cy="242" r="3" fill="black"/>
<circle cx="291" cy="251" r="3" fill="black"/>
<circle cx="291" cy="261" r="3" fill="black"/>
<circle cx="301" cy="251" r="3" fill="black"/>
<circle cx="281" cy="251" r="3" fill="black"/>
<circle cx="272" cy="215" r="3" fill="black"/>
<circle cx="253" cy="215" r="3" fill="black"/>
<circle cx="253" cy="203" r="3" fill="black"/>
<circle cx="262" cy="203" r="3" fill="black"/>
<circle cx="272" cy="185" r="3" fill="black"/>
<circle cx="293" cy="138" r="3" fill="black"/>
<circle cx="303" cy="118" r="3" fill="black"/>
<circle cx="303" cy="108" r="3" fill="black"/>
<circle cx="283" cy="108" r="3" fill="black"/>
<circle cx="283" cy="118" r="3" fill="black"/>
<circle cx="283" cy="128" r="3" fill="black"/>
<circle cx="234" cy="118" r="3" fill="black"/>
<circle cx="234" cy="127" r="3" fill="black"/>
<circle cx="224" cy="127" r="3" fill="black"/>
<circle cx="224" cy="137" r="3" fill="black"/>
<circle cx="224" cy="146" r="3" fill="black"/>
<circle cx="253" cy="146" r="3" fill="black"/>
<circle cx="253" cy="156" r="3" fill="black"/>
<circle cx="215" cy="137" r="3" fill="black"/>
<circle cx="215" cy="146" r="3" fill="black"/>
<circle cx="244" cy="146" r="3" fill="black"/>
<circle cx="244" cy="175" r="3" fill="black"/>
<circle cx="244" cy="156" r="3" fill="black"/>
<circle cx="244" cy="194" r="3" fill="black"/>
<circle cx="234" cy="194" r="3" fill="black"/>
<circle cx="234" cy="185" r="3" fill="black"/>
<circle cx="234" cy="175" r="3" fill="black"/>
<circle cx="224" cy="175" r="3" fill="black"/>
<circle cx="215" cy="175" r="3" fill="black"/>
<circle cx="215" cy="185" r="3" fill="black"/>
<circle cx="215" cy="203" r="3" fill="black"/>
<circle cx="215" cy="213" r="3" fill="black"/>
<circle cx="234" cy="213" r="3" fill="black"/>
<circle cx="234" cy="223" r="3" fill="black"/>
<circle cx="253" cy="223" r="3" fill="black"/>
<circle cx="272" cy="223" r="3" fill="black"/>
<circle cx="272" cy="232" r="3" fill="black"/>
<circle cx="224" cy="223" r="3" fill="black"/>
<circle cx="224" cy="233" r="3" fill="black"/>
<circle cx="215" cy="233" r="3" fill="black"/>
<circle cx="205" cy="242" r="3" fill="black"/>
<circle cx="196" cy="232" r="3" fill="black"/>
<circle cx="187" cy="232" r="3" fill="black"/>
<circle cx="187" cy="241" r="3" fill="black"/>
<circle cx="187" cy="251" r="3" fill="black"/>
<circle cx="196" cy="261" r="3" fill="black"/>
<circle cx="187" cy="280" r="3" fill="black"/>
<circle cx="187" cy="290" r="3" fill="black"/>
<circle cx="177" cy="290" r="3" fill="black"/>
<circle cx="167" cy="280" r="3" fill="black"/>
<circle cx="187" cy="300" r="3" fill="black"/>
<circle cx="196" cy="300" r="3" fill="black"/>
<circle cx="167" cy="261" r="3" fill="black"/>
<circle cx="148" cy="280" r="3" fill="black"/>
<circle cx="148" cy="289" r="3" fill="black"/>
<circle cx="158" cy="289" r="3" fill="black"/>
<circle cx="177" cy="232" r="3" fill="black"/>
<circle cx="177" cy="241" r="3" fill="black"/>
<circle cx="167" cy="232" r="3" fill="black"/>
<circle cx="167" cy="223" r="3" fill="black"/>
<circle cx="177" cy="213" r="3" fill="black"/>
<circle cx="158" cy="213" r="3" fill="black"/>
<circle cx="148" cy="204" r="3" fill="black"/>
<circle cx="139" cy="194" r="3" fill="black"/>
<circle cx="129" cy="204" r="3" fill="black"/>
<circle cx="110" cy="223" r="3" fill="black"/>
<circle cx="110" cy="213" r="3" fill="black"/>
<circle cx="110" cy="204" r="3" fill="black"/>
<circle cx="110" cy="194" r="3" fill="black"/>
<circle cx="100" cy="204" r="3" fill="black"/>
<circle cx="90" cy="204" r="3" fill="black"/>
<circle cx="80" cy="204" r="3" fill="black"/>
<circle cx="80" cy="204" r="3" fill="black"/>
<circle cx="80" cy="213" r="3" fill="black"/>
<circle cx="62" cy="204" r="3" fill="black"/>
<circle cx="72" cy="194" r="3" fill="black"/>
<circle cx="91" cy="184" r="3" fill="black"/>
<circle cx="102" cy="184" r="3" fill="black"/>
<circle cx="120" cy="175" r="3" fill="black"/>
<circle cx="110" cy="166" r="3" fill="black"/>
<circle cx="120" cy="156" r="3" fill="black"/>
<circle cx="120" cy="147" r="3" fill="black"/>
<circle cx="110" cy="146" r="3" fill="black"/>
<circle cx="110" cy="137" r="3" fill="black"/>
<circle cx="110" cy="118" r="3" fill="black"/>
<circle cx="100" cy="108" r="3" fill="black"/>
<circle cx="91" cy="108" r="3" fill="black"/>
<circle cx="82" cy="108" r="3" fill="black"/>
<circle cx="72" cy="108" r="3" fill="black"/>
<circle cx="62" cy="108" r="3" fill="black"/>
<circle cx="52" cy="108" r="3" fill="black"/>
<circle cx="43" cy="118" r="3" fill="black"/>
<circle cx="62" cy="118" r="3" fill="black"/>
<circle cx="100" cy="137" r="3" fill="black"/>
<circle cx="100" cy="156" r="3" fill="black"/>
<circle cx="82" cy="156" r="3" fill="black"/>
<circle cx="91" cy="146" r="3" fill="black"/>
<circle cx="91" cy="165" r="3" fill="black"/>
<circle cx="80" cy="175" r="3" fill="black"/>
<circle cx="53" cy="185" r="3" fill="black"/>
<circle cx="34" cy="194" r="3" fill="black"/>
<circle cx="34" cy="185" r="3" fill="black"/>
<circle cx="34" cy="175" r="3" fill="black"/>
<circle cx="34" cy="157" r="3" fill="black"/>
<circle cx="34" cy="147" r="3" fill="black"/>
<circle cx="43" cy="147" r="3" fill="black"/>
<circle cx="53" cy="137" r="3" fill="black"/>
<circle cx="53" cy="127" r="3" fill="black"/>
<circle cx="62" cy="127" r="3" fill="black"/>
<circle cx="72" cy="127" r="3" fill="black"/>
<circle cx="81" cy="127" r="3" fill="black"/>
<circle cx="91" cy="127" r="3" fill="black"/>
<circle cx="34" cy="137" r="3" fill="black"/>
<circle cx="43" cy="222" r="3" fill="black"/>
<circle cx="52" cy="204" r="3" fill="black"/>
<circle cx="62" cy="213" r="3" fill="black"/>
<circle cx="62" cy="222" r="3" fill="black"/>
<circle cx="90" cy="223" r="3" fill="black"/>
<circle cx="148" cy="223" r="3" fill="black"/>
<circle cx="129" cy="232" r="3" fill="black"/>
<circle cx="120" cy="232" r="3" fill="black"/>
<circle cx="129" cy="223" r="3" fill="black"/>
<circle cx="148" cy="223" r="3" fill="black"/>
<circle cx="148" cy="251" r="3" fill="black"/>
<circle cx="167" cy="261" r="3" fill="black"/>
<circle cx="167" cy="280" r="3" fill="black"/>
<circle cx="148" cy="280" r="3" fill="black"/>
<circle cx="138" cy="271" r="3" fill="black"/>
<circle cx="138" cy="261" r="3" fill="black"/>
<circle cx="138" cy="251" r="3" fill="black"/>
<circle cx="130" cy="251" r="3" fill="black"/>
<circle cx="130" cy="261" r="3" fill="black"/>
<circle cx="120" cy="261" r="3" fill="black"/>
<circle cx="110" cy="261" r="3" fill="black"/>
<circle cx="110" cy="271" r="3" fill="black"/>
<circle cx="110" cy="280" r="3" fill="black"/>
<circle cx="120" cy="289" r="3" fill="black"/>
<circle cx="120" cy="299" r="3" fill="black"/>
<circle cx="120" cy="271" r="3" fill="black"/>
<circle cx="110" cy="251" r="3" fill="black"/>
<circle cx="110" cy="242" r="3" fill="black"/>
<circle cx="138" cy="242" r="3" fill="black"/>
<circle cx="224" cy="242" r="3" fill="black"/>
<circle cx="243" cy="242" r="3" fill="black"/>
<circle cx="224" cy="251" r="3" fill="black"/>
<circle cx="214" cy="261" r="3" fill="black"/>
<circle cx="224" cy="261" r="3" fill="black"/>
<circle cx="234" cy="261" r="3" fill="black"/>
<circle cx="244" cy="261" r="3" fill="black"/>
<circle cx="254" cy="261" r="3" fill="black"/>
<circle cx="264" cy="261" r="3" fill="black"/>
<circle cx="274" cy="261" r="3" fill="black"/>
<circle cx="281" cy="271" r="3" fill="black"/>
<circle cx="281" cy="280" r="3" fill="black"/>
<circle cx="271" cy="280" r="3" fill="black"/>
<circle cx="262" cy="280" r="3" fill="black"/>
<circle cx="253" cy="280" r="3" fill="black"/>
<circle cx="244" cy="280" r="3" fill="black"/>
<circle cx="244" cy="289" r="3" fill="black"/>
<circle cx="224" cy="289" r="3" fill="black"/>
<circle cx="214" cy="289" r="3" fill="black"/>
<circle cx="214" cy="279" r="3" fill="black"/>
<circle cx="234" cy="298" r="3" fill="black"/>
<circle cx="281" cy="289" r="3" fill="black"/>
<circle cx="291" cy="289" r="3" fill="black"/>
<circle cx="271" cy="289" r="3" fill="black"/>
<circle cx="300" cy="271" r="3" fill="black"/>
<circle cx="243" cy="223" r="3" fill="black"/>
<circle cx="262" cy="223" r="3" fill="black"/>
<circle cx="262" cy="232" r="3" fill="black"/>
<circle cx="262" cy="242" r="3" fill="black"/>
<circle cx="262" cy="251" r="3" fill="black"/>
<circle cx="215" cy="165" r="3" fill="black"/>
<circle cx="234" cy="166" r="3" fill="black"/>
<circle cx="244" cy="137" r="3" fill="black"/>
<circle cx="244" cy="166" r="3" fill="black"/>
<circle cx="205" cy="137" r="3" fill="black"/>
<circle cx="205" cy="146" r="3" fill="black"/>
<circle cx="234" cy="146" r="3" fill="black"/>
<circle cx="234" cy="156" r="3" fill="black"/>
<circle cx="196" cy="137" r="3" fill="black"/>
<circle cx="196" cy="146" r="3" fill="black"/>
<circle cx="187" cy="121" r="3" fill="black"/>
<circle cx="195" cy="121" r="3" fill="black"/>
<circle cx="205" cy="121" r="3" fill="black"/>
<circle cx="158" cy="51" r="3" fill="black"/>
<circle cx="158" cy="60" r="3" fill="black"/>
<circle cx="120" cy="61" r="3" fill="black"/>
<circle cx="129" cy="51" r="3" fill="black"/>
<circle cx="138" cy="51" r="3" fill="black"/>
<circle cx="138" cy="61" r="3" fill="black"/>
<circle cx="138" cy="81" r="3" fill="black"/>
<circle cx="148" cy="91" r="3" fill="black"/>
<circle cx="129" cy="91" r="3" fill="black"/>
<circle cx="138" cy="99" r="3" fill="black"/>
<circle cx="148" cy="99" r="3" fill="black"/>
<circle cx="138" cy="109" r="3" fill="black"/>
<circle cx="148" cy="109" r="3" fill="black"/>
<circle cx="148" cy="118" r="3" fill="black"/>
<circle cx="129" cy="118" r="3" fill="black"/>
<circle cx="120" cy="71" r="3" fill="black"/>
<circle cx="120" cy="81" r="3" fill="black"/>
<circle cx="110" cy="51" r="3" fill="black"/>
<circle cx="110" cy="61" r="3" fill="black"/>
<circle cx="110" cy="71" r="3" fill="black"/>
<circle cx="110" cy="81" r="3" fill="black"/>
<circle cx="110" cy="91" r="3" fill="black"/>
</svg>
