<svg width="21" height="21" viewBox="0 0 21 21" fill="none" xmlns="http://www.w3.org/2000/svg">
<path d="M15.75 18.375V17.0625H17.0625V18.375H15.75ZM11.8125 15.75V14.4375H13.125V15.75H11.8125ZM11.8125 19.6875H14.4375V18.375H13.125V17.0625H11.8125V19.6875ZM17.0625 17.0625V14.4375H18.375V17.0625H17.0625ZM18.375 17.0625H19.6875V19.6875H17.0625V18.375H18.375V17.0625ZM17.0625 13.125V11.8125H19.6875V14.4375H18.375V13.125H17.0625ZM15.75 13.125H14.4375V15.75H13.125V17.0625H15.75V13.125ZM11.8125 13.125V11.8125H14.4375V13.125H11.8125ZM3.9375 14.4375H6.5625V17.0625H3.9375V14.4375Z" fill="#F8F8F8"/>
<path d="M9.1875 19.6875H1.3125V11.8125H9.1875V19.6875ZM2.625 18.375H7.875V13.125H2.625V18.375ZM14.4375 3.9375H17.0625V6.5625H14.4375V3.9375Z" fill="#F8F8F8"/>
<path d="M19.6875 9.1875H11.8125V1.3125H19.6875V9.1875ZM13.125 7.875H18.375V2.625H13.125V7.875ZM3.9375 3.9375H6.5625V6.5625H3.9375V3.9375Z" fill="#F8F8F8"/>
<path d="M9.1875 9.1875H1.3125V1.3125H9.1875V9.1875ZM2.625 7.875H7.875V2.625H2.625V7.875Z" fill="#F8F8F8"/>
</svg>
