<svg width="45" height="44" viewBox="0 0 45 44" fill="none" xmlns="http://www.w3.org/2000/svg">
<path fill-rule="evenodd" clip-rule="evenodd" d="M22.2671 0C26.6183 0 30.8717 1.29027 34.4896 3.70766C38.1075 6.12504 40.9273 9.56096 42.5924 13.5809C44.2576 17.6009 44.6932 22.0244 43.8444 26.2919C42.9955 30.5595 40.9002 34.4795 37.8235 37.5563C34.7467 40.6331 30.8267 42.7284 26.5592 43.5773C22.2916 44.4261 17.8681 43.9905 13.8481 42.3254C9.82817 40.6603 6.39223 37.8405 3.97482 34.2226C1.55742 30.6048 0.267117 26.3513 0.26709 22.0001C0.267082 16.1654 2.58493 10.5696 6.71072 6.44373C10.8365 2.31791 16.4323 2.93812e-05 22.2671 0Z" fill="url(#paint0_linear_1524_14719)"/>
<path fill-rule="evenodd" clip-rule="evenodd" d="M5.99246 22C5.99246 19.8628 6.41342 17.7465 7.2313 15.772C8.04917 13.7974 9.24795 12.0033 10.7592 10.4921C12.2704 8.98086 14.0645 7.78208 16.0391 6.9642C18.0136 6.14633 20.1299 5.72537 22.2671 5.72537C24.4043 5.72537 26.5206 6.14633 28.4951 6.9642C30.4697 7.78208 32.2637 8.98086 33.775 10.4921C35.2862 12.0033 36.485 13.7974 37.3029 15.772C38.1208 17.7465 38.5417 19.8628 38.5417 22C38.756 21.413 39.1455 20.906 39.6576 20.5478C40.1697 20.1896 40.7795 19.9974 41.4044 19.9974C42.0293 19.9974 42.6391 20.1896 43.1512 20.5478C43.6633 20.906 44.0528 21.413 44.2671 22C44.2671 16.1652 41.9492 10.5694 37.8234 6.44365C33.6976 2.31785 28.1019 0 22.2671 0C16.4323 0 10.8365 2.31785 6.71073 6.44365C2.58493 10.5694 0.26709 16.1652 0.26709 22C0.481351 21.413 0.870913 20.906 1.38298 20.5478C1.89504 20.1896 2.50485 19.9974 3.12977 19.9974C3.75469 19.9974 4.36451 20.1896 4.87657 20.5478C5.38864 20.906 5.7782 21.413 5.99246 22Z" fill="url(#paint1_linear_1524_14719)"/>
<g style="mix-blend-mode:screen">
<path fill-rule="evenodd" clip-rule="evenodd" d="M21.85 5.29834C25.0708 5.29833 28.2192 6.25339 30.8972 8.04275C33.5752 9.83211 35.6625 12.3754 36.895 15.351C38.1275 18.3266 38.45 21.6009 37.8217 24.7598C37.1934 27.9187 35.6424 30.8203 33.365 33.0978C31.0875 35.3752 28.1859 36.9262 25.027 37.5545C21.8681 38.1828 18.5938 37.8603 15.6182 36.6278C12.6426 35.3952 10.0993 33.308 8.30996 30.63C6.52059 27.952 5.56554 24.8036 5.56555 21.5828C5.56558 17.2639 7.28127 13.1219 10.3352 10.068C13.3891 7.01406 17.5311 5.29837 21.85 5.29834Z" fill="#F7E984"/>
</g>
<path fill-rule="evenodd" clip-rule="evenodd" d="M22.2672 5.72559C25.486 5.72559 28.6325 6.68007 31.3089 8.46834C33.9852 10.2566 36.0712 12.7984 37.303 15.7721C38.5348 18.7459 38.857 22.0182 38.2291 25.1752C37.6011 28.3321 36.0512 31.232 33.7751 33.5081C31.4991 35.7841 28.5993 37.3341 25.4423 37.9621C22.2853 38.5901 19.013 38.2678 16.0392 37.036C13.0654 35.8043 10.5237 33.7183 8.73539 31.042C6.9471 28.3657 5.99258 25.2192 5.99255 22.0003C5.99254 17.684 7.70717 13.5445 10.7593 10.4924C13.8113 7.44028 17.9509 5.72561 22.2672 5.72559Z" fill="url(#paint2_radial_1524_14719)"/>
<path style="mix-blend-mode:screen" fill-rule="evenodd" clip-rule="evenodd" d="M8.88134 31.2591L31.5262 8.61424C29.5966 7.28223 27.4025 6.38174 25.0935 5.97409C22.7845 5.56644 20.4148 5.66121 18.1457 6.25194L6.51891 17.8788C5.92816 20.1479 5.8334 22.5176 6.24107 24.8266C6.64875 27.1356 7.54928 29.3296 8.88134 31.2591Z" fill="url(#paint3_radial_1524_14719)"/>
<path style="mix-blend-mode:screen" fill-rule="evenodd" clip-rule="evenodd" d="M37.1882 16.099L16.3661 36.9211L16.1866 37.1005C17.9236 37.8002 19.7686 38.1934 21.6399 38.2626L22.0361 37.8665L38.1336 21.769L38.5298 21.3727C38.4604 19.5015 38.0673 17.6564 37.3678 15.9194L37.1882 16.099Z" fill="url(#paint4_radial_1524_14719)"/>
<g filter="url(#filter0_di_1524_14719)">
<path d="M26.7226 26.7152C26.977 26.456 27.322 26.3104 27.6818 26.3104C28.0415 26.3104 28.3866 26.456 28.641 26.7151C28.8954 26.9743 29.0384 27.3257 29.0384 27.6922C29.0384 28.0587 28.8955 28.4102 28.6411 28.6693C27.2164 30.1182 25.3671 31.0546 23.3731 31.3369C21.3792 31.6192 19.3492 31.232 17.5907 30.2338C17.5164 30.1998 17.4453 30.1592 17.3781 30.1124C15.2967 28.8576 13.7805 26.8226 13.1541 24.443C12.5277 22.0634 12.841 19.5286 14.0268 17.3814C14.0621 17.3063 14.104 17.2345 14.1519 17.167C15.3873 15.0562 17.3835 13.5209 19.7146 12.8885C22.0458 12.2561 24.5272 12.5769 26.6295 13.7823C26.703 13.8181 26.7733 13.8606 26.8393 13.9092C27.5914 14.3665 28.2761 14.9299 28.8732 15.5827L28.9924 14.5729C29.0117 14.3915 29.0661 14.2158 29.1524 14.056C29.2388 13.8961 29.3553 13.7553 29.4954 13.6416C29.6355 13.5279 29.7963 13.4436 29.9686 13.3936C30.1408 13.3436 30.3211 13.3289 30.499 13.3503C30.6769 13.3716 30.8488 13.4287 31.0049 13.5182C31.161 13.6077 31.2981 13.7278 31.4083 13.8716C31.5186 14.0154 31.5998 14.18 31.6472 14.356C31.6946 14.5319 31.7073 14.7157 31.6846 14.8967L31.0731 20.0795C31.0485 20.2901 30.9767 20.4921 30.8632 20.6699C30.7497 20.8476 30.5976 20.9964 30.4186 21.1047C30.2395 21.2129 30.0384 21.2777 29.8309 21.2941C29.6233 21.3104 29.4148 21.2778 29.2216 21.1989L24.4389 19.6198C24.0973 19.5081 23.8133 19.2628 23.6493 18.9378C23.4853 18.6127 23.4548 18.2347 23.5644 17.8867C23.6741 17.5388 23.9149 17.2495 24.234 17.0824C24.553 16.9153 24.9241 16.8843 25.2657 16.9959L26.9841 17.5634C26.5372 17.0506 26.0151 16.6113 25.4363 16.2611C25.413 16.2492 25.3899 16.2365 25.3671 16.2231C23.874 15.3473 22.1025 15.1054 20.4357 15.5497C18.7689 15.9939 17.3408 17.0886 16.4601 18.5971C16.4484 18.6206 16.436 18.6442 16.4229 18.6672C15.5559 20.1997 15.3216 22.0202 15.7715 23.7286C16.2214 25.4371 17.3186 26.8937 18.8222 27.7785L18.8209 27.7807C20.0692 28.5146 21.5205 28.8081 22.9494 28.6154C24.3783 28.4227 25.7047 27.7547 26.7226 26.7152Z" fill="url(#paint5_linear_1524_14719)"/>
</g>
<path fill-rule="evenodd" clip-rule="evenodd" d="M22.2671 0.572606C26.505 0.57262 30.6478 1.82933 34.1715 4.18381C37.6952 6.5383 40.4416 9.88481 42.0634 13.8002C43.6852 17.7155 44.1095 22.0239 43.2827 26.1804C42.456 30.3369 40.4152 34.1549 37.4185 37.1516C34.4218 40.1482 30.6038 42.189 26.4473 43.0158C22.2908 43.8426 17.9825 43.4183 14.0671 41.7965C10.1518 40.1747 6.80525 37.4283 4.45077 33.9046C2.09628 30.3809 0.83957 26.2381 0.839556 22.0001C0.839552 19.1862 1.3938 16.3999 2.47063 13.8002C3.54746 11.2005 5.12579 8.83831 7.11552 6.84858C9.10525 4.85884 11.4674 3.28051 14.0671 2.20367C16.6668 1.12684 19.4532 0.572603 22.2671 0.572606ZM22.2671 0C26.6183 0 30.8717 1.29027 34.4896 3.70766C38.1075 6.12504 40.9273 9.56096 42.5924 13.5809C44.2576 17.6009 44.6932 22.0244 43.8444 26.2919C42.9955 30.5595 40.9002 34.4795 37.8235 37.5563C34.7467 40.6331 30.8267 42.7284 26.5592 43.5773C22.2916 44.4261 17.8681 43.9905 13.8481 42.3254C9.82817 40.6603 6.39223 37.8405 3.97482 34.2226C1.55742 30.6048 0.267117 26.3513 0.26709 22.0001C0.267082 16.1654 2.58493 10.5696 6.71072 6.44373C10.8365 2.31791 16.4323 2.93812e-05 22.2671 0Z" fill="url(#paint6_linear_1524_14719)"/>
<g style="mix-blend-mode:screen">
<path fill-rule="evenodd" clip-rule="evenodd" d="M1.36047 17.2828C2.63525 12.7182 5.36884 8.69634 9.14384 5.83116C12.9188 2.96599 17.5278 1.41499 22.267 1.41499C27.0062 1.41499 31.6151 2.96599 35.3901 5.83116C39.1651 8.69634 41.8987 12.7182 43.1735 17.2828C42.1016 12.5387 39.4482 8.30018 35.6489 5.26355C31.8497 2.22693 27.1306 0.572754 22.267 0.572754C17.4033 0.572754 12.6843 2.22693 8.88504 5.26355C5.0858 8.30018 2.43232 12.5387 1.36047 17.2828Z" fill="#F7E984"/>
</g>
<defs>
<filter id="filter0_di_1524_14719" x="12.8384" y="12.5713" width="18.8572" height="20.1265" filterUnits="userSpaceOnUse" color-interpolation-filters="sRGB">
<feFlood flood-opacity="0" result="BackgroundImageFix"/>
<feColorMatrix in="SourceAlpha" type="matrix" values="0 0 0 0 0 0 0 0 0 0 0 0 0 0 0 0 0 0 127 0" result="hardAlpha"/>
<feOffset dy="1.27099"/>
<feComposite in2="hardAlpha" operator="out"/>
<feColorMatrix type="matrix" values="0 0 0 0 1 0 0 0 0 1 0 0 0 0 1 0 0 0 0.58 0"/>
<feBlend mode="normal" in2="BackgroundImageFix" result="effect1_dropShadow_1524_14719"/>
<feBlend mode="normal" in="SourceGraphic" in2="effect1_dropShadow_1524_14719" result="shape"/>
<feColorMatrix in="SourceAlpha" type="matrix" values="0 0 0 0 0 0 0 0 0 0 0 0 0 0 0 0 0 0 127 0" result="hardAlpha"/>
<feOffset dy="1.01679"/>
<feComposite in2="hardAlpha" operator="arithmetic" k2="-1" k3="1"/>
<feColorMatrix type="matrix" values="0 0 0 0 0.388333 0 0 0 0 0.2097 0 0 0 0 0 0 0 0 0.6 0"/>
<feBlend mode="normal" in2="shape" result="effect2_innerShadow_1524_14719"/>
</filter>
<linearGradient id="paint0_linear_1524_14719" x1="22.2671" y1="44" x2="22.2671" y2="0" gradientUnits="userSpaceOnUse">
<stop stop-color="#DE8B00"/>
<stop offset="1" stop-color="#FFC75E"/>
</linearGradient>
<linearGradient id="paint1_linear_1524_14719" x1="22.2671" y1="22" x2="22.2671" y2="-0.000138999" gradientUnits="userSpaceOnUse">
<stop stop-color="#FFB805"/>
<stop offset="1" stop-color="#FFE89C"/>
</linearGradient>
<radialGradient id="paint2_radial_1524_14719" cx="0" cy="0" r="1" gradientUnits="userSpaceOnUse" gradientTransform="translate(14.5899 7.8453) scale(36.1225)">
<stop stop-color="#FFEEB8"/>
<stop offset="1" stop-color="#FFBF00"/>
</radialGradient>
<radialGradient id="paint3_radial_1524_14719" cx="0" cy="0" r="1" gradientUnits="userSpaceOnUse" gradientTransform="translate(16.3603 -1.66037) scale(36.4507 36.4507)">
<stop stop-color="#FFFD9E"/>
<stop offset="1"/>
</radialGradient>
<radialGradient id="paint4_radial_1524_14719" cx="0" cy="0" r="1" gradientUnits="userSpaceOnUse" gradientTransform="translate(29.7573 10.5369) scale(30.9453 30.9453)">
<stop stop-color="#FFFD9E"/>
<stop offset="1"/>
</radialGradient>
<linearGradient id="paint5_linear_1524_14719" x1="22.2655" y1="31.4275" x2="22.2655" y2="12.5703" gradientUnits="userSpaceOnUse">
<stop stop-color="#D68329"/>
<stop offset="1" stop-color="#954B25"/>
</linearGradient>
<linearGradient id="paint6_linear_1524_14719" x1="22.2671" y1="44" x2="22.2671" y2="0" gradientUnits="userSpaceOnUse">
<stop stop-color="#CF8000"/>
<stop offset="1" stop-color="#F5B133"/>
</linearGradient>
</defs>
</svg>
