<svg width="38" height="35" viewBox="0 0 38 35" fill="none" xmlns="http://www.w3.org/2000/svg">
<g filter="url(#filter0_d_3418_8075)">
<path d="M37.7926 14.403C37.3701 12.8736 35.7961 11.4182 34.7096 10.3506C33.1222 8.82202 31.4268 7.40988 29.6363 6.12511C26.7055 3.97638 23.5238 1.74155 20.1278 0.38328C15.9288 -1.29633 16.6006 3.91047 16.6006 3.91047V5.72278C16.5911 5.72261 16.5819 5.72147 16.5724 5.72147H4.14324C1.85477 5.72147 0 7.33827 0 9.33264V21.1291C0 23.1235 1.85477 24.7403 4.14324 24.7403H16.5724C16.5819 24.7403 16.5911 24.7391 16.6006 24.739V26.5515C16.6006 26.5515 15.9288 31.7583 20.1278 30.0787C20.4355 29.9557 20.7367 29.8172 21.0359 29.675C24.588 27.9864 27.9393 25.6894 31.0355 23.2811C33.0612 21.7057 37.8622 18.3863 37.8986 15.2306C37.9024 14.9511 37.8668 14.6725 37.7926 14.403Z" fill="url(#paint0_radial_3418_8075)"/>
<g style="mix-blend-mode:screen" opacity="0.3">
<path d="M35.5048 14.6081C36.1963 13.7269 34.2346 11.7726 33.2097 10.7825C31.7347 9.38785 30.1614 8.10078 28.5022 6.9312C25.783 4.9726 22.8309 2.93556 19.6803 1.69752C15.7844 0.16648 16.4077 4.91257 16.4077 4.91257V6.56444C16.3988 6.5643 16.3903 6.56313 16.3814 6.56313H4.84916C2.72636 6.56313 1.00539 8.03689 1.00539 9.8548C1.00539 11.1468 0.504466 12.8704 1.20322 14.0912C2.17491 15.7891 5.25069 15.0575 6.86141 15.0575H33.9419C34.8027 15.0575 35.2863 14.8863 35.5048 14.6081Z" fill="#99CC33"/>
</g>
<g style="mix-blend-mode:screen" opacity="0.5">
<path d="M2.37957 24.393C2.27264 24.3489 2.16767 24.3022 2.06628 24.2505C2.168 24.302 2.27264 24.349 2.37957 24.393Z" fill="#99CC33"/>
<path d="M4.14323 24.7402C3.99432 24.7402 3.84735 24.7328 3.703 24.7194C3.84768 24.7326 3.99432 24.7402 4.14323 24.7402Z" fill="#99CC33"/>
<path d="M2.75815 24.5291C2.65448 24.4968 2.55149 24.4625 2.45142 24.4233C2.55149 24.4624 2.65414 24.497 2.75815 24.5291Z" fill="#99CC33"/>
<path d="M3.15708 24.6329C3.05506 24.6111 2.95338 24.5882 2.85461 24.5598C2.95368 24.588 3.05472 24.6113 3.15708 24.6329Z" fill="#99CC33"/>
<path d="M1.70312 24.0432C1.80514 24.1082 1.91056 24.1689 2.01936 24.2256C1.91076 24.1687 1.80481 24.1081 1.70312 24.0432Z" fill="#99CC33"/>
<path d="M1.36658 23.8038C1.46631 23.8827 1.57042 23.9571 1.67889 24.0271C1.57062 23.9568 1.46651 23.8824 1.36658 23.8038Z" fill="#99CC33"/>
</g>
<g style="mix-blend-mode:multiply">
<path d="M37.7927 14.4029C37.7585 14.283 37.7182 14.1648 37.6719 14.049C36.427 16.6266 32.9159 19.0813 31.2595 20.3697C28.1631 22.7779 24.8117 25.0749 21.2596 26.7635C20.9604 26.9057 20.6593 27.0442 20.3515 27.1672C16.1525 28.8468 16.8243 23.64 16.8243 23.64V21.8275C16.8152 21.8277 16.806 21.8288 16.7962 21.8288H4.367C2.07883 21.8288 0.224061 20.212 0.224061 18.2177C0.148579 18.1711 0.0734664 12.059 0 12.0106V21.1291C0 23.1235 1.85477 24.7403 4.14324 24.7403H16.5724C16.5819 24.7403 16.5911 24.7391 16.6006 24.739V26.5514C16.6006 26.5514 15.9288 31.7583 20.1278 30.0786C20.4355 29.9556 20.7367 29.8172 21.0359 29.675C24.588 27.9863 27.9393 25.6893 31.0355 23.2811C33.0612 21.7057 37.8622 18.3863 37.8986 15.2306C37.9024 14.9511 37.8668 14.6725 37.7927 14.4029Z" fill="#99CC33"/>
</g>
<g style="mix-blend-mode:screen" opacity="0.3">
<path d="M4.367 21.8289H16.6564V20.8198C16.6472 20.82 16.638 20.8211 16.6282 20.8211H4.19904C2.31471 20.8211 0.72694 19.7236 0.224365 18.2228C0.227657 20.2149 2.08081 21.8289 4.367 21.8289Z" fill="#99CC33"/>
</g>
<g style="mix-blend-mode:screen">
<path d="M6.77487 9.73856C8.72289 9.73856 10.3021 9.28737 10.3021 8.73079C10.3021 8.17422 8.72289 7.72302 6.77487 7.72302C4.82686 7.72302 3.24768 8.17422 3.24768 8.73079C3.24768 9.28737 4.82686 9.73856 6.77487 9.73856Z" fill="#99CC33"/>
</g>
<g style="mix-blend-mode:screen">
<path d="M24.3544 6.34725C24.1181 6.85127 22.6734 6.67266 21.1277 5.94818C19.5819 5.22383 18.5203 4.22805 18.7565 3.72417C18.9927 3.22012 20.4374 3.39872 21.9832 4.12324C23.529 4.84756 24.5906 5.84337 24.3544 6.34725Z" fill="#99CC33"/>
</g>
</g>
<defs>
<filter id="filter0_d_3418_8075" x="0" y="0.0495605" width="37.8989" height="34.3628" filterUnits="userSpaceOnUse" color-interpolation-filters="sRGB">
<feFlood flood-opacity="0" result="BackgroundImageFix"/>
<feColorMatrix in="SourceAlpha" type="matrix" values="0 0 0 0 0 0 0 0 0 0 0 0 0 0 0 0 0 0 127 0" result="hardAlpha"/>
<feOffset dy="4"/>
<feComposite in2="hardAlpha" operator="out"/>
<feColorMatrix type="matrix" values="0 0 0 0 0 0 0 0 0 0 0 0 0 0 0 0 0 0 0.3 0"/>
<feBlend mode="normal" in2="BackgroundImageFix" result="effect1_dropShadow_3418_8075"/>
<feBlend mode="normal" in="SourceGraphic" in2="effect1_dropShadow_3418_8075" result="shape"/>
</filter>
<radialGradient id="paint0_radial_3418_8075" cx="0" cy="0" r="1" gradientUnits="userSpaceOnUse" gradientTransform="translate(14.7841 9.26205) scale(18.6245 15.4676)">
<stop stop-color="#FFC62D"/>
<stop offset="1" stop-color="#FF9200"/>
</radialGradient>
</defs>
</svg>
