<svg width="333" height="368" viewBox="0 0 333 368" fill="none" xmlns="http://www.w3.org/2000/svg">
<path fill-rule="evenodd" clip-rule="evenodd" d="M34.2595 93.849C121.16 94.5492 213.135 92.2502 299.043 93.4013C300.547 94.5109 301.928 95.7785 303.162 97.1824C303.312 111.907 302.942 126.862 302.294 142.048C301.334 142.949 300.374 143.851 299.414 144.752C300.297 145.563 301.181 146.373 302.064 147.184C301.528 158.706 300.847 170.36 300.124 182.146C278.735 184.613 54.0771 182.112 38.7942 179.918C37.42 178.657 36.0468 177.397 34.6746 176.137C32.1274 155.537 32.9826 103.426 34.2595 93.849Z" fill="url(#paint0_linear_1403_20696)"/>
<path fill-rule="evenodd" clip-rule="evenodd" d="M298.176 138.267L302.295 142.048L299.415 144.752L297.946 143.403L297.811 146.259L288.716 154.797L284.597 151.016C288.978 146.669 293.505 142.419 298.176 138.267Z" fill="url(#paint1_linear_1403_20696)"/>
<path fill-rule="evenodd" clip-rule="evenodd" d="M35.6788 4.61731C44.8773 2.22996 216.921 1.64289 297.738 8.3982L301.857 12.1791C302.956 18.4471 301.857 81.6985 298.837 92.2877C209.756 94.3813 128.695 93.975 40.3469 91.7476L36.2286 87.9667C34.4818 78.0424 35.9658 54.5113 35.3088 35.1758C43.2028 34.7159 51.0651 33.8177 58.8594 32.4856C57.8382 32.3967 56.8059 32.3066 55.7622 32.2152C48.7902 31.6062 41.8856 31.003 35.1696 30.6197L31.05 26.8388C30.832 15.9693 34.998 6.85187 35.6788 4.61731Z" fill="url(#paint2_linear_1403_20696)"/>
<path fill-rule="evenodd" clip-rule="evenodd" d="M36.672 183.782C56.4263 182.139 255.805 181.08 296.81 184.052C298.312 185.164 299.693 186.431 300.929 187.833C302.747 197.972 303.871 252.806 302.576 272.533C213.482 271.059 124.213 270.405 34.7507 272.533C33.2645 271.401 31.8854 270.136 30.6311 268.752C29.8153 251.586 35.25 191.833 36.672 183.782Z" fill="url(#paint3_linear_1403_20696)"/>
<path fill-rule="evenodd" clip-rule="evenodd" d="M40.3372 275.325C61.3193 273.361 260.103 269.846 295.531 271.544C297.002 272.694 298.379 273.959 299.65 275.325C300.456 287.248 301.027 299.17 301.362 311.093C293.069 310.33 283.976 308.739 277.271 307.422C284.216 309.684 290.998 310.699 297.399 313.025C298.771 314.244 300.143 315.465 301.514 316.685C301.897 332.122 301.965 347.559 301.847 362.996C279.415 365.702 256.848 367.145 234.253 367.317C168.059 364.069 101.865 362.628 35.6703 362.996C34.1538 361.901 32.7711 360.632 31.5506 359.215C31.2946 351.174 35.3721 338.968 35.832 326.877C42.0839 328.116 48.5947 329.153 55.2798 330.03C52.3303 328.981 49.3809 327.933 46.4315 326.884C42.949 325.645 39.4655 324.407 35.9811 323.169C34.5059 322.025 33.1284 320.761 31.8628 319.388C32.7533 300.137 38.5733 281.986 40.3372 275.325Z" fill="url(#paint4_linear_1403_20696)"/>
<path fill-rule="evenodd" clip-rule="evenodd" d="M31.5592 0.836418C40.925 -1.59422 218.898 1.37652 297.738 8.3982C298.837 14.6662 297.738 77.9176 294.718 88.5066C205.636 90.6004 124.577 90.1941 36.2286 87.9667C34.0542 83.3274 31.981 54.7017 31.1892 31.3949C39.0831 30.9349 46.9454 30.0368 54.7397 28.7047C53.7199 28.6158 52.6875 28.5257 51.6426 28.4343C44.6706 27.8251 37.7659 27.2221 31.05 26.8388C30.6955 13.9 30.7883 3.36549 31.5592 0.836418Z" fill="url(#paint5_radial_1403_20696)"/>
<path fill-rule="evenodd" clip-rule="evenodd" d="M30.1399 90.0682C118.556 90.7807 211.843 92.2401 299.043 93.4014C299.193 108.126 298.823 123.081 298.175 138.268C296.342 139.945 294.502 141.616 292.683 143.309C290.885 144.983 289.1 146.671 287.329 148.373C286.414 149.249 285.503 150.131 284.597 151.016C289.101 148.493 293.55 145.956 297.945 143.403C297.409 154.925 296.728 166.579 296.005 178.366C274.617 180.832 49.9591 178.331 34.6746 176.137C31.9445 160.21 28.7517 100.49 30.1399 90.0682Z" fill="url(#paint6_radial_1403_20696)"/>
<g style="mix-blend-mode:multiply" opacity="0.5">
<path d="M34.8588 81.9763C43.6696 84.7116 52.6379 86.9109 61.7146 88.5619C54.9408 88.4167 48.13 88.2601 41.2822 88.0921C39.4397 87.6265 37.6 87.1311 35.7631 86.6058C35.3799 85.0797 35.078 83.5343 34.8588 81.9763ZM254.596 58.5705C252.831 58.1388 251.041 57.8195 249.235 57.6145C247.6 57.4221 245.951 57.3569 244.305 57.4196C242.676 57.4792 241.053 57.6686 239.453 57.9859C238.381 58.2114 237.344 58.5829 236.373 59.09C234.423 60.1175 232.646 61.4425 231.104 63.0173C230.374 63.773 229.728 64.6052 229.176 65.4994C228.628 66.3834 228.172 67.3212 227.816 68.2981C227.433 69.3285 227.243 70.4208 227.257 71.5201C227.286 72.5914 227.517 73.6476 227.937 74.6337C228.324 75.5681 228.924 76.3998 229.688 77.0632C230.795 77.977 232.024 78.7333 233.339 79.3105C234.769 79.9411 236.265 80.4095 237.799 80.7072C239.794 81.1069 241.819 81.3425 243.853 81.4115C245.756 81.4776 247.661 81.363 249.542 81.0694C251.861 80.7015 254.147 80.1486 256.378 79.4161C258.539 78.7089 260.635 77.8173 262.644 76.751C263.706 76.1748 264.648 75.3986 265.416 74.4652C266.177 73.559 266.739 72.5034 267.067 71.3665C267.309 70.4098 267.299 69.4067 267.038 68.4551C266.757 67.4072 266.294 66.4166 265.672 65.5283C264.906 64.4212 264.008 63.412 262.996 62.5234C262.034 61.6716 260.959 60.9567 259.801 60.3989C258.131 59.6186 256.387 59.0061 254.596 58.5705ZM258.202 64.8129C263.568 69.5617 258.944 73.4861 253.057 75.8156C248.035 78.0322 242.448 78.6275 237.072 77.5188C234.726 77.1153 232.517 76.1356 230.643 74.6676C230.189 74.2249 229.829 73.6965 229.582 73.1131C229.334 72.5297 229.205 71.903 229.202 71.2694C229.274 69.744 229.77 68.2687 230.633 67.009C231.927 65.0128 233.714 63.3842 235.821 62.2804C237.929 61.1766 240.285 60.635 242.663 60.708C247.269 60.5342 254.635 61.6558 258.202 64.8129ZM297.69 49.5396C293.697 48.4909 289.524 47.4367 285.072 46.4359C272.831 43.6844 261.274 40.8359 248.85 40.8973C232.301 40.9027 216.129 45.8425 202.401 55.0855C197.051 58.6675 194.443 61.8986 193.975 65.0637C193.703 66.8331 193.853 68.642 194.414 70.3421C194.975 72.0422 195.931 73.5852 197.203 74.8447C201.796 80.2104 206.812 85.1994 212.202 89.7636C209.797 89.7799 207.395 89.7946 204.995 89.8075C200.501 85.6728 196.245 81.2863 192.248 76.669C188.412 72.3046 186.433 68.2255 187.054 64.0551C188.169 56.5433 204.157 48.4321 212.78 45.0703C242.055 33.6582 256.476 36.0845 285.672 44.1357C289.741 45.2575 293.773 46.3418 297.757 47.3581C297.735 48.0851 297.713 48.8123 297.69 49.5396ZM297.977 38.4624C293.073 37.6118 288.302 36.7489 283.577 35.9725C239.779 28.7773 225.35 28.0722 181.48 47.468C174.779 50.3282 168.616 54.3127 163.257 59.2492C162.511 59.8793 161.903 60.6568 161.472 61.5329C161.041 62.409 160.795 63.3647 160.75 64.3402C160.705 65.3158 160.862 66.29 161.212 67.2019C161.561 68.1138 162.095 68.9437 162.78 69.6396C169.035 75.4058 175.693 80.7195 182.702 85.5405C184.809 87.0232 186.744 88.4666 188.564 89.8669C186.671 89.8706 184.779 89.8731 182.888 89.8745C182.016 89.2478 181.126 88.6149 180.22 87.9758C172.187 82.3232 161.422 74.7465 157.827 70.9735C156.93 70.0277 156.228 68.916 155.758 67.7007C155.293 66.5224 155.076 65.2613 155.119 63.9955C155.187 62.794 155.504 61.6197 156.05 60.5474C156.644 59.3683 157.427 58.2946 158.368 57.3689C162.374 53.4058 170.264 49.13 179.146 45.1903C190.847 40.1007 202.852 35.7423 215.092 32.1402C231.546 27.4394 239.239 28.2855 255.918 29.9901C265.539 30.974 274.686 32.4766 284.013 34.009C288.611 34.7644 293.253 35.527 298.019 36.2375C298.006 36.9741 297.992 37.7157 297.977 38.4624ZM298.145 25.5741C290.067 24.3895 282 23.1352 273.91 22.0274C260.146 20.1434 243.689 16.2389 230.195 18.5402C210.097 21.9674 178.461 37.7658 157.339 45.7057C148.942 48.6245 140.726 52.0414 132.736 55.9385C113.281 66.0944 119.865 71.0098 137.639 78.5817C144.116 81.3403 150.888 84.0425 157.001 87.0241C158.777 87.8908 160.533 88.8386 162.273 89.8479C158.616 89.8355 154.959 89.8191 151.302 89.7988C141.157 85.0101 129.576 80.8716 120.265 76.0272C112.468 71.972 111.641 67.7215 114.135 63.748C119.425 55.3213 145.01 46.0839 154.645 42.462C163.846 39.0032 172.942 35.3579 182.079 31.7635C196.591 26.0552 214.552 17.8516 229.966 16.4381C243.868 15.1632 260.289 18.0219 274.254 19.9334C282.234 21.0258 290.189 22.1146 298.153 23.0759C298.153 23.8869 298.15 24.7196 298.145 25.5741ZM298.121 16.917C273.229 12.3825 249.622 4.96126 221.938 10.1079C206.599 12.9597 195.027 18.0182 178.211 23.9474C157.724 31.1708 137.009 38.0092 116.104 44.0649C102.576 47.9844 84.0287 50.593 72.1677 56.6013C60.9606 62.2778 66.4685 67.5025 76.4365 72.2834C86.6716 77.1932 97.4439 80.9743 107.931 85.353C111.031 86.6469 114.231 88.0383 117.518 89.5021C113.613 89.4553 109.704 89.4044 105.789 89.3492C104.89 88.9758 103.992 88.6018 103.095 88.227C92.1471 83.6558 80.905 79.7072 70.2169 74.5809C67.3028 73.2903 64.622 71.527 62.2828 69.3622C55.8831 62.9082 61.9367 57.5609 68.2745 54.3501C80.8894 47.9605 100.102 45.2866 114.395 41.146C136.09 34.8601 157.603 27.7528 178.868 20.2553C196.472 14.0484 208.876 9.887 221.574 7.92792C234.286 5.96652 247.193 6.22958 265.752 8.88329C276.545 10.4267 287.28 12.4297 298.069 14.03C298.091 14.9137 298.109 15.8801 298.121 16.917ZM30.9712 23.7205C37.7814 24.507 44.7732 25.4427 51.8338 26.0595C83.1004 28.7909 102.956 29.0592 132.995 18.368C141.812 15.048 150.912 12.5361 160.184 10.8631C173.138 8.61402 184.428 5.45632 195.996 2.78572C200.029 2.93198 204.045 3.08354 208.046 3.2404C200.939 4.77081 193.895 6.67941 186.827 8.59655C178.006 10.9899 169.57 13.2559 160.565 14.8191C151.423 16.4691 142.45 18.9468 133.757 22.2217C103.377 33.035 83.2637 31.1968 51.6425 28.4342C44.6705 27.825 37.7659 27.222 31.05 26.8388C31.0205 25.7823 30.9942 24.7428 30.9712 23.7205ZM30.9248 8.03975C32.9571 8.58199 35.0908 9.19644 37.3961 9.87807C75.2789 21.0856 98.0178 8.14672 134.162 2.47529C136.922 2.04255 139.704 1.60664 142.51 1.16756C149.378 1.33608 156.364 1.52245 163.408 1.7263C153.658 3.47686 143.93 5.23034 134.508 6.70872C103.908 11.51 67.0635 21.5743 36.638 13.4299C34.5845 12.8803 32.6744 12.3819 30.8601 11.9383C30.8698 10.5345 30.891 9.23197 30.9248 8.03975ZM96.3018 0.270243C79.5801 2.54689 62.6235 2.49273 45.9167 0.109302C57.526 -0.0786259 75.2381 -0.0201913 96.3018 0.270243ZM296.154 78.3689C293.113 79.0455 289.874 79.7906 286.507 80.5955C280.311 82.1846 274.224 84.1734 268.285 86.5496C265.828 87.4776 263.445 88.3775 261.101 89.1851C257.444 89.2466 253.797 89.304 250.162 89.3571C255.188 88.0952 260.097 86.4083 264.836 84.3145C270.434 81.9093 276.191 79.8919 282.066 78.2765C287.315 76.9294 292.203 75.7548 296.447 74.7892C296.354 76.0398 296.256 77.2331 296.154 78.3689ZM230.596 89.6035C229.809 89.2979 229.039 88.9759 228.287 88.6376C223.128 86.4155 218.49 83.1408 214.669 79.023C211.381 75.2881 209.793 71.3797 210.513 68.1426C210.602 67.7331 210.73 67.3329 210.894 66.9473C213.108 62.8036 216.369 59.3127 220.353 56.8226C224.888 53.6606 229.94 51.3138 235.281 49.8877C239.792 48.8148 244.434 48.4005 249.064 48.6579C253.92 48.9129 258.748 49.5551 263.501 50.5785C269.933 51.9016 276.347 53.7078 282.455 55.4279L282.762 55.5147C287.988 56.9859 292.913 58.2566 297.324 59.3732C297.271 60.6119 297.214 61.8381 297.155 63.0446C296.477 62.8622 295.779 62.6743 295.064 62.4811C283.855 59.4519 272.256 54.6657 261.051 52.1916C256.742 51.1948 252.356 50.5678 247.94 50.3174C243.825 50.0706 239.697 50.4635 235.703 51.482C230.793 53.1111 226.204 55.5833 222.142 58.7877C214.905 64.1794 210.517 69.2284 217.246 77.4305C220.54 81.253 224.609 84.3305 229.184 86.4584C231.73 87.6846 234.393 88.6489 237.134 89.3363C237.398 89.4025 237.661 89.4633 237.924 89.5206C235.478 89.5501 233.036 89.5777 230.596 89.6035Z" fill="#B7805C"/>
</g>
<path style="mix-blend-mode:multiply" fill-rule="evenodd" clip-rule="evenodd" d="M76.4366 72.2835C86.6717 77.1933 97.444 80.9744 107.931 85.3531C111.031 86.647 114.231 88.0384 117.518 89.5022C128.81 89.6374 140.072 89.7362 151.302 89.7989C141.157 85.0102 129.576 80.8717 120.265 76.0273C112.468 71.9721 111.641 67.7216 114.135 63.7481C119.425 55.3214 145.011 46.084 154.645 42.4622C163.847 39.0034 172.943 35.358 182.079 31.7637C196.591 26.0553 214.552 17.8517 229.966 16.4382C243.868 15.1633 260.289 18.022 274.254 19.9335C282.235 21.0259 290.19 22.1147 298.154 23.0761C298.156 20.8312 298.146 18.7605 298.122 16.9171C273.229 12.3826 249.622 4.96138 221.938 10.1081C206.599 12.9598 195.027 18.0183 178.211 23.9476C157.724 31.1709 137.009 38.0094 116.104 44.065C102.576 47.9845 84.0289 50.5932 72.1679 56.6014C60.9607 62.2779 66.4686 67.5026 76.4366 72.2835Z" fill="url(#paint7_radial_1403_20696)"/>
<path style="mix-blend-mode:multiply" fill-rule="evenodd" clip-rule="evenodd" d="M51.8338 26.0596C83.1005 28.7909 102.956 29.0592 132.995 18.3681C141.812 15.0481 150.912 12.5362 160.184 10.8632C171.146 8.95967 180.919 6.40537 190.676 4.04636C192.446 3.61809 194.22 3.19764 195.996 2.78503C185.148 2.3917 174.211 2.03817 163.408 1.72638C160.01 2.33656 156.618 2.94312 153.233 3.54606C146.915 4.66586 140.646 5.74567 134.508 6.7088C103.908 11.5101 67.0635 21.5743 36.6381 13.4299C36.3498 13.3525 36.0629 13.2759 35.7773 13.2003C34.0472 12.7408 32.4185 12.3195 30.8586 11.9384C30.8334 15.3618 30.8742 19.3677 30.9712 23.7206C32.3581 23.8807 33.7519 24.0457 35.1528 24.2154C40.6298 24.8749 46.2093 25.5684 51.8338 26.0596Z" fill="url(#paint8_radial_1403_20696)"/>
<path fill-rule="evenodd" clip-rule="evenodd" d="M32.5535 180.001C53.1461 178.289 268.711 180.903 296.81 184.052C298.628 194.191 299.751 249.026 298.457 268.752C209.362 267.278 120.093 266.624 30.6308 268.752C28.9388 262.934 30.9516 189.06 32.5535 180.001Z" fill="url(#paint9_radial_1403_20696)"/>
<g style="mix-blend-mode:multiply" opacity="0.5">
<path d="M34.0121 268.673C32.8601 268.46 31.6843 268.256 30.4931 268.061C30.5244 268.294 30.5704 268.525 30.6309 268.752C31.7588 268.725 32.8859 268.699 34.0121 268.673ZM298.784 261.561C277.679 262.558 256.64 264.666 235.757 267.876C246.078 267.989 256.396 268.119 266.711 268.265C277.389 267.081 287.938 266.039 298.649 265.187C298.7 264.047 298.745 262.839 298.784 261.561ZM298.975 251.817C298.431 251.87 297.887 251.923 297.342 251.977C258.777 255.817 219.73 259.956 181.665 267.454C188.74 267.484 195.813 267.525 202.885 267.576C234.848 261.805 264.243 258.237 297.613 254.914C298.054 254.87 298.495 254.827 298.937 254.785C298.952 253.816 298.965 252.827 298.975 251.817ZM299.01 240.396C292.521 241.86 285.724 243.273 278.105 244.324C255.763 247.406 241.265 246.089 215.441 251.792C196.546 255.965 177.671 260.406 158.59 262.855C145.864 264.489 133.155 266.176 120.399 267.477C132.587 267.411 144.771 267.382 156.95 267.392C157.651 267.303 158.351 267.214 159.05 267.124C190.705 263.061 221.697 254.291 253.251 249.58C261.643 248.327 270.184 248.743 278.597 247.582C285.652 246.609 292.367 245.373 299.016 244.128C299.016 242.898 299.014 241.654 299.01 240.396ZM76.473 267.895C61.0086 265.957 47.1291 262.191 30.0584 259.989C30.0908 261.656 30.1372 263.138 30.1962 264.397C38.9968 265.46 47.7847 266.816 56.5514 268.212C63.1914 268.092 69.832 267.986 76.473 267.895ZM298.868 226.538C297.719 226.685 296.567 226.834 295.413 226.988C272.943 229.974 248.444 233.696 226.71 238.908C218.99 240.76 212.919 242.651 207.226 244.424C195.976 248.259 184.323 250.794 172.497 251.977C163.198 252.933 153.853 253.309 144.548 254.197C119.895 256.55 99.5678 261.388 73.9695 258.304C67.0705 257.473 60.2181 255.221 53.3051 254.413C45.6116 253.515 37.818 252.92 29.9895 252.519C29.9909 253.941 29.9978 255.304 30.0091 256.586C37.7308 256.903 45.4361 257.31 53.125 257.806C60.0057 258.252 66.7991 259.639 73.6418 260.464C99.4975 263.579 119.712 260.397 144.591 258.022C153.904 257.133 163.254 257.425 172.561 256.468C184.576 255.268 196.414 252.695 207.843 248.799C233.864 240.696 250.688 236.035 278.567 232.334C285.367 231.431 292.14 230.706 298.922 230.114C298.906 228.922 298.888 227.73 298.868 226.538ZM298.674 217.185C291.11 218.177 283.559 219.268 276.024 220.459C256.707 223.183 237.607 227.271 218.867 232.695C205.676 236.693 191.075 241.964 177.779 244.669C164.204 247.43 144.629 248.915 130.414 249.679C117.667 250.365 105.607 252.696 94.0515 252.665C80.7431 252.629 67.6261 250.508 54.2686 249.301C45.9392 248.548 38.029 247.7 30.0077 246.964C30.0008 248.036 29.9956 249.083 29.9922 250.105C38.0572 250.526 46.0752 251.092 54.0463 251.805C67.4306 252.983 80.5927 255.11 94.1585 255.117C105.884 255.123 117.905 252.543 130.777 251.851C145.148 251.078 165.035 251.474 178.767 248.681C192.166 245.955 206.389 239.222 219.68 235.194C233.529 231.318 247.604 228.302 261.825 226.163C273.675 224.189 286.187 222.51 298.766 221.131C298.738 219.805 298.707 218.49 298.674 217.185ZM298.373 207.259C291.206 208.269 283.997 209.29 276.707 210.259C267.105 211.351 257.573 212.987 248.157 215.16C238.602 217.556 229.35 220.877 220.1 224.199C204.282 229.878 187.744 235.799 171.321 239.347C159.582 241.883 149.7 242.212 138.075 243.091C129.536 243.738 121.078 244.185 112.527 244.646C99.4484 245.35 81.7208 243.98 62.9594 242.777C52.0266 242.075 40.7942 241.161 30.0753 240.33C30.0598 241.451 30.0471 242.555 30.0373 243.642C41.0052 244.192 52.066 244.899 62.8721 245.651C79.8628 246.834 95.3202 248.529 112.675 247.594C121.253 247.132 129.719 245.578 138.278 244.93C150.053 244.039 161.308 245.697 173.208 243.125C199.191 237.512 223.315 223.597 248.185 217.362C259.701 214.474 278.208 211.846 298.458 209.736C298.432 208.9 298.403 208.074 298.373 207.259ZM297.816 195.078C291.368 196.625 284.599 198.22 277.337 199.842C260.711 203.267 244.278 207.575 228.11 212.747C213.866 217.496 199.936 224.22 186.183 228.731C137.123 244.823 115.97 239.753 75.3956 236.432C60.4388 235.207 45.2303 233.472 30.2102 232.23C30.1879 233.458 30.1638 234.677 30.1442 235.885C45.2359 236.828 60.4235 238.173 75.1706 239.38C116.067 242.728 144.043 245.818 187.81 231.541C195.316 229.093 202.629 226.378 209.942 223.665C232.081 215.073 254.808 208.078 277.946 202.733C283.88 201.407 290.76 199.785 297.98 198.088C297.927 197.047 297.873 196.04 297.816 195.078ZM291.889 183.63C283.787 186.093 275.658 188.557 267.434 190.893C235.528 199.957 205.375 216.283 175.921 225.057C162.799 228.966 147.572 229.674 133.896 230.481C89.2596 233.116 60.6695 228.175 30.3834 224.541C30.344 226.073 30.3088 227.605 30.2751 229.129C41.8703 230.621 53.4641 232.138 65.0621 232.776C88.024 234.216 111.046 234.435 134.032 233.43C147.96 232.712 163.142 231.316 176.506 227.334C186.675 224.305 196.133 219.42 206.067 215.762C226.806 208.125 247.366 200.889 268.635 194.848C278.438 192.063 287.794 189.222 297.14 186.441C297.033 185.485 296.923 184.682 296.81 184.052C295.543 183.91 293.883 183.769 291.889 183.63ZM152.334 180.077C141.573 183.954 129.472 184.786 115.188 181.217C113.056 180.685 110.986 180.155 108.977 179.627C104.62 179.594 100.368 179.566 96.2204 179.542C101.714 181.253 107.628 183.121 114.136 185.149C134.325 191.437 150.822 188.562 165.489 180.255C161.098 180.192 156.713 180.133 152.334 180.077ZM186.321 180.577C175.445 188.203 163.032 193.926 138.003 197.075C123.082 198.951 99.3076 191.947 74.0693 187.113C60.3071 184.296 46.396 182.264 32.4031 181.026C32.261 182.174 32.1133 183.807 31.9685 185.817C45.6228 186.701 59.2673 188.636 72.8964 190.783C94.2626 194.148 115.349 200.558 137.264 199.583C162.979 198.44 177.189 191.166 192.195 180.677C190.245 180.643 188.287 180.61 186.321 180.577ZM215.462 181.119C207.623 186.971 199.384 192.269 190.806 196.973C161.032 212.383 135.6 213.349 97.0291 209.213C74.8472 206.833 53.2574 200.936 31.2793 198.18C31.2005 199.943 31.1217 201.786 31.0471 203.69C53.1054 206.465 74.9977 211.32 97.2034 213.155C133.756 216.174 160.425 216.553 192.206 200.103C199.703 196.223 206.724 191.779 213.745 187.334C217.063 185.234 220.319 183.228 223.571 181.291C220.904 181.233 218.201 181.175 215.462 181.119ZM258.552 182.196C218.661 200.84 174.553 220.894 140.506 222.248C107.762 223.55 68.252 216.401 30.7264 212.608C30.6829 213.904 30.6417 215.212 30.6028 216.532C67.7232 219.951 105.914 226.367 140.62 224.987C167.643 223.912 194.559 215.746 218.758 205.124C231.464 199.547 243.76 193.166 256.47 187.595C260.386 185.879 264.313 184.186 268.25 182.517C265.187 182.408 261.946 182.301 258.552 182.196Z" fill="#B7805C"/>
</g>
<path style="mix-blend-mode:multiply" fill-rule="evenodd" clip-rule="evenodd" d="M137.263 199.583C115.349 200.558 94.2623 194.148 72.8961 190.783C59.267 188.636 45.6226 186.701 31.9669 185.817C31.732 189.065 31.4984 193.316 31.2791 198.18C53.2571 200.936 74.847 206.833 97.0289 209.213C135.599 213.349 161.032 212.383 190.806 196.973C199.384 192.269 207.623 186.971 215.462 181.118C207.915 180.962 200.12 180.815 192.194 180.677C177.188 191.166 162.978 198.44 137.263 199.583Z" fill="url(#paint10_radial_1403_20696)"/>
<path style="mix-blend-mode:multiply" fill-rule="evenodd" clip-rule="evenodd" d="M256.471 187.595C243.76 193.165 231.464 199.547 218.758 205.124C194.559 215.746 167.643 223.912 140.62 224.987C105.914 226.367 67.7234 219.951 30.6029 216.532C30.5241 219.178 30.4495 221.861 30.3835 224.541C60.6696 228.175 89.2598 233.116 133.897 230.481C147.572 229.674 162.799 228.966 175.921 225.057C205.375 216.283 235.528 199.956 267.434 190.893C275.658 188.557 283.787 186.093 291.89 183.629C286.392 183.245 278.267 182.871 268.25 182.517C264.313 184.189 260.387 185.882 256.471 187.595Z" fill="url(#paint11_radial_1403_20696)"/>
<path fill-rule="evenodd" clip-rule="evenodd" d="M36.2188 271.544C58.3235 269.475 277.638 269.563 295.531 271.544C296.337 283.467 296.908 295.389 297.243 307.311C288.95 306.549 279.857 304.958 273.151 303.641C281.371 306.844 289.59 309.777 297.395 312.904C297.778 328.341 297.847 343.778 297.728 359.215C275.296 361.921 252.729 363.364 230.135 363.536C163.939 360.288 97.7444 358.847 31.5506 359.215C31.0344 351.428 31.161 337.61 31.7123 323.096C37.9656 324.335 44.475 325.372 51.1601 326.249C48.212 325.2 45.2626 324.152 42.3118 323.103C38.8293 321.864 35.3463 320.626 31.8627 319.388C32.7237 299.195 34.3651 278.535 36.2188 271.544Z" fill="url(#paint12_radial_1403_20696)"/>
<g style="mix-blend-mode:multiply" opacity="0.5">
<path d="M214.212 92.2347C212.979 92.769 211.728 93.2815 210.461 93.7723C191.298 101.254 170.342 102.868 150.26 98.4086C142.785 96.7776 138.33 94.3887 136.179 91.1934C133.068 91.1543 129.957 91.1156 126.847 91.0773C127.137 92.4594 127.649 93.7852 128.365 95.0028C133.164 103.162 155.393 105.288 166.911 105.267C192.289 105.219 207.722 101.275 223.609 92.3648L214.212 92.2347ZM237.791 92.5621C201.388 113.393 182.554 118.899 129.69 116.653C120.61 116.38 111.642 114.572 103.166 111.305C98.2613 109.213 95.7576 104.557 97.7591 99.5366C99.0527 96.5414 100.509 93.619 102.121 90.7824L96.4764 90.7181C94.5752 93.7714 92.8867 96.9522 91.4228 100.238C90.8308 101.736 90.5397 103.337 90.5661 104.948C90.5824 106.52 90.9209 108.073 91.5607 109.51C92.2024 110.867 93.1168 112.077 94.247 113.066C95.4828 114.158 96.888 115.042 98.4074 115.683C104.877 118.443 115.979 119.807 128.064 120.335C143.926 120.916 159.809 120.515 175.622 119.134C196.794 117.118 205.271 112.663 223.712 103.156C230.273 99.773 236.533 96.2433 242.725 92.6306L237.791 92.5621ZM267.832 92.9781C261.298 96.744 254.767 100.519 248.183 104.206C233.19 112.601 216.036 124.544 199.396 127.992C174.616 133.125 130.745 129.208 102.671 129.6C91.6146 130.03 80.5428 129.804 69.5137 128.922C42.3273 126.005 47.6243 117.359 64.5839 100.59C67.9721 97.2395 71.473 93.868 74.8738 90.4836C72.0257 90.4539 69.1794 90.4249 66.335 90.3966C59.152 97.4742 51.7115 104.486 45.7368 111.392C38.6423 119.594 39.6747 124.87 44.4089 128.325C54.4472 135.652 88.275 134.739 101.08 134.559C113.309 134.388 125.502 134.481 137.722 134.495C157.128 134.517 181.677 135.858 200.117 130.519C216.745 125.704 234.348 114.983 249.56 106.464C257.624 101.949 265.665 97.4466 273.759 93.0594L267.832 92.9781ZM288.401 93.2586C257.558 110.745 232.346 134.065 193.815 141.45C174.791 145.096 159.081 144.493 136.913 145.258C109.909 146.19 82.8205 147.669 55.8818 150.135C48.6412 150.798 40.5073 152.113 32.2905 153.312C32.3959 154.668 32.5016 155.999 32.607 157.296C40.4863 156.133 48.2445 154.919 55.2742 154.275C83.2356 151.715 111.367 150.187 139.397 149.22C162.6 148.419 178.854 147.61 194.414 144.129C209.993 140.644 224.757 134.504 244.92 123.053C262.189 113.246 278.843 102.347 296.592 93.3687L288.401 93.2586ZM48.3936 176.925C61.193 174.024 74.2523 172.419 87.3735 172.136C99.0814 171.98 110.751 170.763 122.239 168.499C153.797 162.06 179.53 162.635 211.649 151.094C232.165 143.722 253.255 131.043 272.424 120.287C281.242 115.339 290.041 110.401 299.054 105.584C299.068 103.874 299.075 102.167 299.076 100.463C289.337 105.629 279.869 110.942 270.381 116.266C251.379 126.929 230.938 141.022 210.613 148.326C192.354 154.887 173.265 156.974 154.028 159.067C142.735 160.295 131.946 161.496 120.83 163.764C109.503 165.996 97.9962 167.195 86.4521 167.347C69.1948 167.665 52.0927 170.672 35.7618 176.259C38.0741 176.481 42.423 176.705 48.3936 176.925ZM145.352 178.81C163.066 174.624 180.438 170.222 196.2 165.569C215.905 159.753 235.297 149.511 253.254 139.685C260.708 135.606 268.172 131.369 275.583 127.163C283.365 122.745 291.088 118.363 298.939 114.092C298.971 112.406 298.998 110.723 299.019 109.044C290.441 113.673 282.043 118.441 273.572 123.249C250.098 136.572 220.273 155.376 195.31 162.744C174.113 169.001 149.537 173.75 125.306 178.554C131.865 178.645 138.572 178.731 145.352 178.81ZM179.317 179.143C192.115 176.253 204.637 172.252 216.74 167.185C233.521 159.664 249.914 151.303 265.855 142.133C276.735 136.115 287.666 130.023 298.693 124.096C298.739 122.589 298.781 121.083 298.818 119.58C287.024 126.251 275.516 133.076 264.419 139.548C248.787 149.038 232.586 157.556 215.907 165.054C199.376 172.135 183.061 175.456 165.996 179.027C170.443 179.069 174.883 179.107 179.317 179.143ZM205.668 179.312C208.527 178.355 211.364 177.346 214.18 176.285C238.093 167.24 262.32 153.601 284.96 141.662C289.428 139.306 293.883 136.962 298.325 134.63C298.389 133.001 298.451 131.375 298.508 129.751C269.054 146.036 239.868 162.755 212.862 172.971C206.883 175.233 200.808 177.316 194.678 179.251C198.378 179.274 202.041 179.294 205.668 179.312ZM235.581 179.386C256.476 170.292 277.512 159.679 297.66 149.287C297.759 147.322 297.854 145.361 297.945 143.403C275.352 156.778 251.981 168.793 227.956 179.382C230.542 179.385 233.083 179.387 235.581 179.386ZM267.393 179.241L268.596 178.653C277.555 174.269 286 170.047 294.28 165.909C295.129 165.484 295.978 165.057 296.826 164.628C296.911 163.175 296.993 161.723 297.074 160.274C295.595 161.007 294.112 161.744 292.626 162.487C284.25 166.674 275.704 170.945 266.963 175.223C264.015 176.666 261.203 178.028 258.504 179.317C261.613 179.296 264.576 179.271 267.393 179.241Z" fill="#B7805C"/>
</g>
<path style="mix-blend-mode:multiply" fill-rule="evenodd" clip-rule="evenodd" d="M139.397 149.22C111.367 150.187 83.2355 151.715 55.2742 154.275C48.2445 154.919 40.4863 156.133 32.6069 157.295C33.2722 165.358 33.9882 172.132 34.6746 176.137C36.4989 176.399 41.3061 176.665 48.3936 176.925C42.4229 176.705 38.074 176.481 35.7617 176.259C52.0927 170.672 69.1948 167.665 86.4521 167.347C97.9961 167.195 109.503 165.996 120.83 163.764C131.946 161.496 142.735 160.295 154.028 159.067C173.264 156.974 192.353 154.887 210.613 148.326C230.938 141.022 251.379 126.929 270.381 116.266C279.869 110.942 289.337 105.629 299.076 100.463C299.077 98.1033 299.066 95.7494 299.043 93.4013C298.226 93.3906 297.409 93.3797 296.592 93.3687C278.843 102.346 262.189 113.246 244.92 123.053C224.757 134.504 209.993 140.644 194.414 144.129C178.854 147.61 162.6 148.419 139.397 149.22Z" fill="url(#paint13_radial_1403_20696)"/>
<path style="mix-blend-mode:multiply" fill-rule="evenodd" clip-rule="evenodd" d="M150.26 98.4085C170.342 102.868 191.298 101.254 210.461 93.7723C211.73 93.2824 212.98 92.7699 214.212 92.2345C188.328 91.8763 162.231 91.521 136.179 91.1933C138.33 94.3887 142.785 96.7776 150.26 98.4085Z" fill="url(#paint14_radial_1403_20696)"/>
<g style="mix-blend-mode:multiply" opacity="0.5">
<path d="M68.8302 359.205C66.3056 358.662 63.7519 358.148 61.1691 357.664C51.6315 355.881 41.1783 354.334 31.2808 352.277C31.3076 353.65 31.3441 354.945 31.3918 356.146C38.8786 357.324 46.6666 358.087 54.0872 359.164C59.0016 359.168 63.916 359.181 68.8302 359.205ZM109.214 359.62C104.664 358.122 100.073 356.753 95.3962 355.641C85.811 353.363 76.0554 352.042 66.2986 350.722C54.7498 349.158 42.8379 347.539 31.2258 345.224C31.2231 346.587 31.2258 347.908 31.2371 349.173C52.3839 352.672 74.3451 352.838 94.3737 357.6C96.5495 358.117 98.9463 358.76 101.519 359.507C104.084 359.542 106.649 359.58 109.214 359.62ZM147.592 360.427C141.534 358.918 135.2 357.311 128.473 355.527C112.135 350.902 95.5628 347.15 78.8262 344.286C63.9791 341.93 48.4683 341.464 34.1669 339.124C33.1935 338.965 32.2357 338.803 31.2878 338.639C31.2709 339.724 31.2569 340.79 31.2456 341.837C32.2442 342.014 33.2485 342.188 34.2696 342.356C42.0672 343.646 49.8214 344.611 57.5753 345.577C81.2037 348.164 104.617 352.436 127.636 358.362C129.744 358.921 131.979 359.503 134.309 360.102C138.736 360.203 143.164 360.311 147.592 360.427ZM215.232 362.836L214.994 362.763C184.958 353.531 154.62 349.347 123.978 343.062C93.0981 336.728 60.5038 336.913 31.4269 331.982C31.4073 332.75 31.3891 333.513 31.3722 334.27C40.1671 335.484 49.0955 335.689 57.91 336.809C79.8741 339.601 101.485 342.664 123.158 347.11C147.208 352.042 169.127 355.493 193.528 361.709C193.86 361.794 194.192 361.879 194.524 361.964C201.426 362.235 208.328 362.525 215.232 362.836ZM80.1863 270.43C79.4707 270.793 78.7365 271.118 77.9866 271.404C62.9904 277.147 48.6005 281.325 34.6311 281.089C34.4187 282.841 34.2133 284.743 34.0165 286.768C49.3374 287.268 65.4813 282.695 82.3454 276.236C86.0482 274.982 89.4454 272.963 92.3159 270.309C88.1134 270.346 84.0702 270.386 80.1863 270.43ZM123.168 270.113C123.681 271.389 124.109 272.585 124.449 273.68C124.889 274.812 125.091 276.023 125.044 277.236C124.997 278.45 124.701 279.641 124.175 280.735C123.648 281.83 122.903 282.805 121.984 283.599C121.065 284.394 119.993 284.991 118.834 285.354C113.288 287.228 98.9379 289.915 87.5832 291.424C65.9623 294.298 54.0493 299.671 33.1951 296.351C33.112 297.466 33.0304 298.599 32.9503 299.748C51.3979 302.498 66.9695 298.425 88.8672 295.514C101.019 293.899 117.31 291.734 123.483 289.647C125.025 289.121 126.452 288.303 127.685 287.238C128.889 286.213 129.872 284.953 130.574 283.537C131.208 282.184 131.554 280.714 131.59 279.221C131.636 277.591 131.41 275.965 130.922 274.409C130.45 272.93 129.874 271.487 129.199 270.089C127.175 270.097 125.164 270.105 123.168 270.113ZM145.959 270.044C150.929 275.588 155.582 281.409 159.894 287.48C175.245 309.737 165.117 311.37 141.141 309.527C132.406 308.855 123.377 307.951 114.909 307.732C95.1165 307.22 73.7474 313.23 53.3586 313.182C46.2852 313.195 39.2222 312.641 32.2372 311.526C32.178 312.665 32.1204 313.807 32.0643 314.952C39.025 316.052 46.0615 316.6 53.1084 316.593C61.5797 316.613 69.8977 315.915 78.2172 315.216C91.1787 314.061 104.195 313.641 117.204 313.957C131.791 314.335 147.909 316.645 161.718 316.649C172.667 316.652 176.086 312.46 175.695 306.675C175.079 297.557 162.429 281.547 152.509 270.033C150.319 270.036 148.135 270.04 145.959 270.044ZM170.907 270.027C175.619 274.709 180.369 279.35 185.157 283.95C197.689 295.979 216.502 309.436 225.968 322.804C234.913 335.434 225.783 338.021 212.024 337.575C197.891 337.116 183.837 335.112 169.744 333.927C129.901 330.575 74.687 331.612 31.7125 323.096C31.6618 324.441 31.615 325.779 31.572 327.109C45.5858 330.315 59.8387 332.367 74.1876 333.246C88.0684 334.162 101.973 334.178 115.857 335.103C135.04 336.379 154.188 338.231 173.353 339.843C188.068 341.08 202.735 343.168 217.489 343.647C221.458 343.895 225.44 343.492 229.279 342.453C240.114 339.026 236.629 329.701 231.57 322.557C221.502 308.34 201.995 294.431 188.757 281.724C184.729 277.857 180.728 273.96 176.754 270.031C174.808 270.029 172.859 270.028 170.907 270.027ZM297.395 312.904C287.424 308.91 276.779 305.23 266.317 300.903C242.535 291.063 224.876 282.894 207.924 270.113C205.455 270.102 202.968 270.093 200.461 270.084C219.402 284.757 238.808 292.73 265.125 303.618C276.306 308.244 287.333 312.806 297.506 317.756C297.473 316.138 297.436 314.521 297.395 312.904ZM296.693 292.385C295.103 292.057 293.451 291.729 291.719 291.394C273.773 288.114 256.769 280.923 241.915 270.332C240.355 270.317 238.773 270.304 237.168 270.29C254.043 281.845 271.804 291.602 290.451 295.723C292.734 296.228 294.869 296.712 296.894 297.199C296.831 295.594 296.763 293.99 296.693 292.385ZM295.628 272.982C293.821 272.39 292.009 271.799 290.194 271.208C286.578 271.052 281.549 270.911 275.411 270.786C282.383 273.691 289.19 276.208 295.987 278.747C295.874 276.825 295.754 274.904 295.628 272.982Z" fill="#B7805C"/>
</g>
<path style="mix-blend-mode:multiply" fill-rule="evenodd" clip-rule="evenodd" d="M53.3584 313.182C73.7472 313.23 95.1163 307.22 114.908 307.732C123.377 307.951 132.405 308.855 141.141 309.527C165.117 311.37 175.245 309.737 159.894 287.48C155.582 281.409 150.929 275.588 145.958 270.043C140.307 270.054 134.706 270.069 129.199 270.089C129.874 271.487 130.45 272.93 130.921 274.409C131.41 275.965 131.636 277.591 131.59 279.221C131.554 280.714 131.208 282.184 130.574 283.537C129.872 284.953 128.889 286.212 127.685 287.238C126.452 288.303 125.025 289.121 123.483 289.647C117.309 291.734 101.019 293.899 88.867 295.514C66.9693 298.425 51.3977 302.498 32.9501 299.748C32.6871 303.544 32.4479 307.507 32.2371 311.526C39.222 312.641 46.2851 313.195 53.3584 313.182Z" fill="url(#paint15_radial_1403_20696)"/>
<path style="mix-blend-mode:multiply" fill-rule="evenodd" clip-rule="evenodd" d="M217.489 343.647C202.735 343.168 188.068 341.08 173.353 339.843C154.188 338.231 135.04 336.379 115.857 335.103C101.973 334.178 88.0682 334.162 74.1875 333.246C59.8385 332.367 45.5856 330.315 31.5718 327.109C31.5168 328.752 31.4685 330.376 31.4268 331.982C60.5036 336.913 93.0979 336.728 123.978 343.062C154.62 349.347 184.958 353.531 214.994 362.763L215.23 362.835C220.199 363.059 225.168 363.292 230.135 363.536C252.729 363.364 275.296 361.921 297.728 359.215C297.834 345.395 297.79 331.575 297.505 317.756C287.333 312.806 276.306 308.244 265.125 303.618C238.807 292.73 219.402 284.757 200.46 270.084C192.694 270.057 184.751 270.04 176.754 270.031C180.727 273.958 184.728 277.856 188.757 281.724C201.995 294.431 221.502 308.34 231.569 322.557C236.629 329.701 240.114 339.026 229.278 342.453C225.44 343.492 221.458 343.895 217.489 343.647Z" fill="url(#paint16_radial_1403_20696)"/>
<path style="mix-blend-mode:multiply" fill-rule="evenodd" clip-rule="evenodd" d="M241.915 270.332C256.768 280.923 273.772 288.114 291.719 291.393C293.451 291.729 295.103 292.057 296.693 292.385C296.491 287.839 296.256 283.293 295.987 278.747C289.19 276.208 282.383 273.691 275.41 270.785C266.375 270.601 254.912 270.449 241.915 270.332Z" fill="url(#paint17_radial_1403_20696)"/>
<path style="mix-blend-mode:screen" fill-rule="evenodd" clip-rule="evenodd" d="M34.4945 2.66018C100.586 4.78932 168.619 4.62333 235.238 4.41754C149.677 0.342723 38.8954 -1.06752 31.5592 0.836418C31.1093 3.21055 30.8968 5.62358 30.9248 8.03981C32.9572 8.58205 35.0908 9.1965 37.3961 9.87813C45.3324 12.2809 53.5279 13.7247 61.8075 14.1785C52.4228 12.4207 43.197 9.90077 34.2217 6.64375C34.1156 5.3097 34.2075 3.96731 34.4945 2.66018Z" fill="url(#paint18_linear_1403_20696)"/>
<path style="mix-blend-mode:screen" fill-rule="evenodd" clip-rule="evenodd" d="M32.6759 92.3894C45.7577 92.8489 58.8668 93.1583 72.0032 93.3176C69.5249 95.7505 67.0255 98.1757 64.5839 100.59C47.6243 117.359 42.3272 126.005 69.5136 128.922C80.5428 129.804 91.6145 130.03 102.671 129.6C105.562 129.56 108.619 129.565 111.806 129.601C107.468 129.456 103.13 129.319 98.7914 129.221C91.3314 129.052 51.0068 129.756 51.1476 119.161C51.2361 112.534 64.0564 103.031 69.1339 98.8387C71.3886 96.9773 73.6867 95.1704 75.9892 93.3659C120.966 93.8711 166.155 92.9646 211.033 92.1908C167.383 91.5876 123.152 90.9952 79.5898 90.5332L79.5152 90.5324L79.4422 90.5316L79.3691 90.5309L79.2945 90.5301L79.2213 90.5293L79.1481 90.5285L79.0736 90.5276L79.0006 90.527L78.9261 90.5262L78.8515 90.5254L78.7797 90.5245L78.7051 90.5237L78.632 90.5229L78.5574 90.5223L78.4828 90.5216L78.4112 90.5208L78.3367 90.52L78.2621 90.519L78.1889 90.5184L78.1158 90.5175L78.0412 90.5167L77.9682 90.5161L77.8937 90.5151L77.8205 90.5146L77.7473 90.5138L77.7234 90.5134L77.6727 90.5128L77.5996 90.512L77.525 90.5114L77.452 90.5107L77.3788 90.5097L77.3043 90.5091L77.2311 90.5084L77.1579 90.5074L77.0834 90.5068L77.0104 90.506L76.9372 90.5052L76.8626 90.5045L76.7895 90.5037L76.7149 90.5029L76.6417 90.5021L76.5687 90.5014L76.4942 90.5004L76.421 90.4998L76.3478 90.499L76.2733 90.4983L76.2001 90.4975L76.1271 90.4967L76.0525 90.4959L75.9794 90.4951L75.9048 90.4944L75.8316 90.4936L75.7586 90.4928L75.6841 90.492L75.6109 90.4913L75.5377 90.4907L75.4632 90.4899L75.39 90.4891L75.317 90.4884L75.2424 90.4876L75.1692 90.4866L75.0947 90.486L75.0215 90.4852L74.9483 90.4845L74.9062 90.4839L74.8738 90.4837C59.8609 90.3272 44.9496 90.1887 30.1399 90.0682C29.2848 96.4809 30.1654 121.557 31.6056 143.613C31.8685 128.272 33.8249 105.943 32.6759 92.3894Z" fill="url(#paint19_linear_1403_20696)"/>
<path style="mix-blend-mode:screen" fill-rule="evenodd" clip-rule="evenodd" d="M36.6589 183.401C41.3708 183.293 46.0807 183.193 50.7886 183.103C58.3964 184.208 66.1042 185.588 74.0691 187.113C98.8349 191.856 122.19 198.69 137.154 197.171C126.221 196.924 115.354 195.419 104.766 192.685C91.0934 189.376 77.9651 186.002 64.543 182.859C120.176 181.956 175.647 182.043 231.278 181.466C170.844 180.049 86.812 179.175 49.7774 179.543C49.1122 179.549 48.4628 179.556 47.8293 179.564L47.7928 179.564L47.7437 179.565C47.0924 179.572 46.4571 179.58 45.8377 179.589L45.783 179.59C42.5888 179.634 39.8488 179.69 37.6266 179.758L37.6153 179.758C37.1751 179.772 36.755 179.786 36.3552 179.801L36.3341 179.801C35.538 179.83 34.8236 179.861 34.1961 179.894L34.1695 179.895C33.5407 179.929 33.0007 179.964 32.5534 180.001C32.5408 180.071 32.528 180.145 32.5167 180.223L32.514 180.238L32.5111 180.253C32.5 180.327 32.4872 180.404 32.4759 180.485L32.4746 180.501L32.4732 180.504L32.4719 180.517L32.4689 180.533C32.459 180.604 32.4493 180.678 32.4381 180.754L32.4367 180.771L32.4352 180.789L32.4338 180.795L32.4324 180.807L32.4295 180.825C32.4212 180.89 32.4126 180.957 32.4029 181.026C31.5913 187.49 30.7123 209.098 30.272 229.295C32.0892 213.863 33.8389 198.373 36.6589 183.401Z" fill="url(#paint20_linear_1403_20696)"/>
<path style="mix-blend-mode:screen" fill-rule="evenodd" clip-rule="evenodd" d="M33.5422 323.452L33.514 323.446L33.4845 323.441L33.4789 323.439L33.4564 323.435L33.4282 323.43L33.3987 323.424L33.3706 323.419L33.3424 323.413L33.3129 323.408L33.2834 323.402L33.2566 323.397L33.2271 323.391L33.1976 323.386L33.1821 323.383L33.1695 323.38L33.1413 323.375L33.1118 323.369L33.0837 323.364L33.0555 323.358L33.026 323.353L32.9979 323.347L32.9697 323.342L32.9418 323.336L32.9121 323.331L32.8882 323.326L32.8825 323.325L32.856 323.32L32.8262 323.314L32.7967 323.308L32.7701 323.303L32.7404 323.297L32.7109 323.292L32.6828 323.286L32.6548 323.281L32.6251 323.275L32.5985 323.27L32.5943 323.269L32.569 323.264L32.5393 323.259L32.5112 323.253L32.4832 323.247L32.4535 323.242L32.4256 323.236L32.3974 323.231L32.3693 323.225L32.3398 323.22L32.3116 323.214L32.3003 323.212L32.2835 323.209L32.254 323.203L32.2272 323.197L32.1977 323.192L32.1681 323.186L32.14 323.181L32.1118 323.175L32.0837 323.169L32.0542 323.164L32.0274 323.158L32.0062 323.154L31.9979 323.152L31.9697 323.147L31.9416 323.141L31.9121 323.136L31.8839 323.13L31.8558 323.124L31.8276 323.119L31.7981 323.113L31.77 323.107L31.7418 323.102L31.7123 323.096C31.4902 328.969 31.3369 334.728 31.2666 340.02C32.0092 335.095 32.6889 330.195 33.3059 325.321C39.4692 325.847 44.9757 326.161 51.1601 326.249C45.1262 325.457 39.2316 324.535 33.5422 323.452ZM134.22 277.621C134.014 276.219 133.636 274.848 133.093 273.54C168.603 272.986 204.063 272.145 239.844 270.313C208.212 270.038 167.977 269.958 131.512 270.081L129.595 270.088H129.559L129.524 270.088L129.487 270.088H129.452L129.415 270.089H129.38L129.343 270.089H129.307L129.27 270.089H129.234L129.199 270.089C83.9021 270.253 44.8899 270.733 36.2189 271.544C34.3651 278.535 32.7237 299.195 31.8628 319.388L33.9516 320.131C35.7743 305.102 37.1837 290.157 38.7181 274.818C69.5629 274.306 100.126 274.042 130.649 273.577C130.746 273.859 130.837 274.136 130.921 274.409C131.41 275.965 131.636 277.591 131.59 279.221C131.554 280.714 131.208 282.184 130.574 283.537C129.872 284.953 128.889 286.212 127.685 287.238C126.452 288.303 125.025 289.121 123.483 289.647C117.309 291.734 101.019 293.899 88.867 295.514C83.1862 296.269 77.9301 297.103 72.9398 297.875C85.5239 296.592 98.2288 295.146 110.531 293.487C119.436 292.287 135.828 289.978 134.22 277.621Z" fill="url(#paint21_linear_1403_20696)"/>
<path style="mix-blend-mode:multiply" fill-rule="evenodd" clip-rule="evenodd" d="M224.81 12.0835C211.354 7.51088 112.928 8.48391 57.986 12.4842C56.1564 12.6167 54.4479 13.4482 53.2148 14.8065C51.9816 16.1647 51.3184 17.9454 51.3627 19.7794C51.4555 23.6952 51.5244 27.0694 51.6257 32.151L71.2717 34.5257L51.751 38.6029C52.4358 75.8766 52.5512 113.347 52.0969 151.013L62.4953 155.038L51.9985 158.244C51.208 211.81 49.17 265.515 45.7017 318.856C48.0888 331.427 53.2922 343.293 60.9213 353.564C61.6528 354.575 62.642 355.371 63.786 355.87C64.9299 356.368 66.1866 356.551 67.425 356.398C91.2526 353.791 210.822 355.027 266.085 359.73C266.585 359.772 267.089 359.708 267.562 359.543C268.036 359.378 268.47 359.115 268.835 358.771C269.201 358.428 269.49 358.011 269.683 357.548C269.877 357.085 269.971 356.586 269.959 356.085C269.576 340.126 269.341 324.189 269.253 308.275L261.77 303.149L265.34 298.67L264.82 295.121L269.215 292.19C269.253 236.411 271.088 180.904 274.721 125.67L269.057 122.45L272.098 117.171L264.081 112.73L275.794 110.075C277.439 87.1658 279.328 66.3957 281.585 43.5799C270.22 35.1784 231.805 14.4605 224.81 12.0835Z" fill="url(#paint22_radial_1403_20696)"/>
<path fill-rule="evenodd" clip-rule="evenodd" d="M229.869 18.5207C215.048 14.4675 106.075 12.9862 48.5225 15.2262C48.7517 22.5742 48.9571 29.9339 49.1387 37.3054L69.6524 39.6318L49.2848 43.4886C50.0965 79.2092 50.3136 115.116 49.9361 151.21L60.7999 155.094L49.8517 158.139C49.1639 209.469 47.1737 260.928 43.6912 312.036C52.036 324.496 60.3818 336.956 68.7283 349.416C72.2741 351.056 219.084 352.547 277.997 352.121C277.492 335.546 277.168 318.996 277.026 302.471L269.2 297.539L272.915 293.257L272.364 289.855L276.943 287.057C276.839 233.605 278.612 180.418 282.263 127.498L276.342 124.398L279.503 119.346L271.123 115.07L283.342 112.555C285 90.6065 286.978 68.703 289.277 46.8449L289.278 46.8041C269.474 37.3762 249.671 27.9485 229.869 18.5207Z" fill="url(#paint23_linear_1403_20696)"/>
<path style="mix-blend-mode:multiply" fill-rule="evenodd" clip-rule="evenodd" d="M43.6914 312.036C49.617 315.084 78.1129 325.919 79.2241 328.577C80.0988 330.67 69.6626 345.401 68.7286 349.416C60.3823 336.956 52.0366 324.496 43.6914 312.036Z" fill="url(#paint24_radial_1403_20696)"/>
<path fill-rule="evenodd" clip-rule="evenodd" d="M43.6914 312.036C53.8533 316.972 64.0675 321.814 73.813 327.527C71.7342 334.728 70.037 342.035 68.7286 349.416C66.1843 349.339 43.6085 314.766 43.6914 312.036Z" fill="url(#paint25_linear_1403_20696)"/>
<path style="mix-blend-mode:screen" opacity="0.5" fill-rule="evenodd" clip-rule="evenodd" d="M244.4 54.1277C250.362 60.2018 255.403 67.1245 255.22 73.2077C254.666 91.6749 276.799 81.3655 269.417 107.233C265.143 122.21 275.541 124.591 274.198 136.254C273.236 144.588 266.21 146.698 264.8 160.929C263.348 175.557 263.819 196.107 268.355 202.926C278.742 218.544 263.205 244.407 266.752 259.589C269.391 271.288 270.89 283.215 271.228 295.203L269.201 297.539L271.194 298.795C271.211 301.274 270.858 303.741 270.146 306.114C265.198 318.925 261.883 309.796 256.022 326.71C252.219 337.687 239.414 339.48 226.281 337.558C205.184 334.469 190.941 320.678 172.986 320.657C157.147 320.638 150.274 334.222 133.733 336.031C124.035 337.092 114.177 334.291 104.086 337.357C81.1397 344.33 92.811 313.866 65.0945 308.569C45.1418 304.755 61.7244 262.853 62.0719 251.34C63.0099 220.06 53.6709 219.615 56.1856 181.241C56.6793 173.713 61.8045 169.652 56.7989 156.207L60.8003 155.094L55.7735 153.297C49.7902 132.771 71.2661 107.946 61.8341 72.9933C58.6822 61.3185 57.0268 50.4814 58.2279 41.7951L69.6528 39.6318L58.872 38.4095C61.6584 27.1259 70.3758 20.3768 88.7322 21.7338C124.484 24.3765 134.857 28.0073 169.188 35.0274C181.335 37.511 195.505 39.8807 206.652 40.9407C227.62 42.9346 234.145 43.6789 244.4 54.1277Z" fill="url(#paint26_radial_1403_20696)"/>
<path style="mix-blend-mode:screen" opacity="0.5" fill-rule="evenodd" clip-rule="evenodd" d="M208.13 53.9892C231.852 54.3472 249.599 69.3065 250.805 94.2769C251.652 111.847 269.976 118.636 246.823 150.344C234.702 166.945 263.219 197.522 254.147 217.334C246.824 233.328 261.101 244.376 256.42 258.033C251.148 273.42 269.639 288.308 253.684 305.965C239.108 322.094 233.633 330.555 207.722 322.339C202.498 320.683 183.424 313.719 164.236 318.645C161.07 319.458 154.954 320.648 149.241 322.132C105.385 333.528 128.134 313.603 95.5802 311.455C87.1722 310.9 87.5913 303.107 80.729 302.344C58.9901 299.927 63.3052 273.641 71.996 255.511C77.7852 243.434 76.5587 227.712 70.1549 214.678C53.1516 180.076 69.332 159.456 83.9428 141.299C93.1807 129.82 83.414 97.4371 80.0651 87.4241C72.1816 63.8642 83.1172 61.126 91.6871 43.0243C97.1472 31.4897 123.477 33.1105 133.183 40.8744C152.366 56.2181 200.84 53.8793 208.13 53.9892Z" fill="url(#paint27_radial_1403_20696)"/>
<path style="mix-blend-mode:screen" fill-rule="evenodd" clip-rule="evenodd" d="M69.6626 329.871C66.8467 322.792 53.7817 317.448 45.8265 315.224C45.5186 315.138 45.219 315.057 44.9278 314.981C44.3584 314.073 43.9408 313.078 43.6914 312.036C43.9319 312.16 44.2076 312.294 44.5157 312.436C54.4062 317.235 64.3319 321.968 73.8131 327.527C71.7342 334.728 70.037 342.035 68.7286 349.416C68.4677 349.355 68.2299 349.22 68.0437 349.027C68.0944 348.895 68.145 348.759 68.1955 348.62C69.9916 343.695 71.5769 334.686 69.6626 329.871Z" fill="url(#paint28_radial_1403_20696)"/>
<path style="mix-blend-mode:multiply" opacity="0.4" fill-rule="evenodd" clip-rule="evenodd" d="M243.383 350.114C268.136 349.883 275.303 336.17 277.25 320.252C277.424 330.865 277.673 341.488 277.997 352.121C233.209 352.445 137.622 351.661 92.8008 350.546C128.001 348.997 140.052 345.051 170.475 339.595C191.241 335.871 194.944 338.919 214.676 345.344C223.896 348.585 233.61 350.199 243.383 350.114Z" fill="url(#paint29_radial_1403_20696)"/>
<path style="mix-blend-mode:multiply" opacity="0.35" fill-rule="evenodd" clip-rule="evenodd" d="M225.766 17.7549C217.89 18.3177 207.617 20.8881 198.666 22.7158C189.235 24.745 179.475 24.6932 170.066 22.564C149.284 18.5062 128.275 15.7099 107.156 14.1905C155.801 14.0581 208.547 15.3505 225.766 17.7549Z" fill="url(#paint30_radial_1403_20696)"/>
<path style="mix-blend-mode:multiply" fill-rule="evenodd" clip-rule="evenodd" d="M229.896 18.5396C249.701 27.9659 269.505 37.3922 289.308 46.8187C287.848 50.8758 274.28 65.0842 271.706 65.2729C269.226 65.4548 235.973 24.1774 229.896 18.5396Z" fill="url(#paint31_radial_1403_20696)"/>
<path fill-rule="evenodd" clip-rule="evenodd" d="M269.333 58.0066C256.926 44.1177 243.751 30.9352 229.869 18.5209C234.302 18.6541 289.44 42.4423 289.308 46.8186C283.052 51.2251 276.359 54.9743 269.333 58.0066Z" fill="url(#paint32_linear_1403_20696)"/>
<path style="mix-blend-mode:screen" fill-rule="evenodd" clip-rule="evenodd" d="M242.263 24.4257C245.348 37.0601 271.87 53.1837 281.032 52.1126C277.26 54.3209 273.352 56.2895 269.333 58.0066C256.954 44.1514 243.812 30.9976 229.968 18.6065C229.935 18.5779 229.903 18.5494 229.869 18.5209C234.028 19.5774 238.085 20.9975 241.995 22.7648C242.038 23.3232 242.128 23.8771 242.262 24.4208L242.263 24.4257Z" fill="url(#paint33_radial_1403_20696)"/>
<path opacity="0.5" fill-rule="evenodd" clip-rule="evenodd" d="M274.366 92.783C282.483 92.6318 290.594 92.4813 298.837 92.2876C300.217 87.4469 301.195 71.599 301.746 55.2224C300.905 58.6094 299.405 63.5212 297.627 68.8229C295.077 68.6304 292.542 68.2747 290.037 67.7581C292.388 59.4156 295.522 51.3142 299.398 43.562C300.139 42.4739 300.521 41.1808 300.489 39.8645C300.457 38.5482 300.014 37.275 299.221 36.2238C289.548 25.7239 250.943 20.4744 166.5 20.4744C82.0574 20.4744 43.4521 25.7239 33.779 36.2238C32.986 37.2749 32.5425 38.5482 32.5108 39.8645C32.4791 41.1807 32.8607 42.4739 33.6021 43.562C37.478 51.3142 40.612 59.4156 42.9625 67.7581C40.4578 68.2747 37.9226 68.6304 35.3724 68.8229C34.3697 65.8326 33.4713 62.9995 32.7122 60.4578C33.6848 73.9865 34.9377 85.2125 36.2285 87.9666L38.6004 90.1442C35.7882 90.1202 32.9425 90.0907 30.1398 90.0679C29.6945 97.0416 29.6527 104.035 30.0146 111.014C39.1733 113.843 52.6261 110.783 58.3495 100.919C59.3516 98.584 59.5294 95.9772 58.8536 93.5273C57.4017 88.5985 55.8625 83.6384 54.0143 75.4239C70.0893 70.5721 103.56 63.4575 166.5 63.4575C229.44 63.4575 262.91 70.5721 278.985 75.4239C277.23 83.2266 275.754 88.0904 274.366 92.783Z" fill="#1D1D1B"/>
<path opacity="0.5" fill-rule="evenodd" clip-rule="evenodd" d="M303.161 97.1825C301.927 95.7786 300.546 94.5111 299.042 93.4016C290.855 93.2925 282.568 93.1787 274.283 93.0654C274.237 93.2189 274.191 93.3741 274.146 93.5274C273.47 95.9773 273.648 98.5842 274.65 100.92C280.393 110.817 293.918 113.862 303.078 110.983C303.124 106.374 303.208 101.747 303.161 97.1825Z" fill="#1D1D1B"/>
<path fill-rule="evenodd" clip-rule="evenodd" d="M19.6684 102.58C28.6537 109.288 51.6681 104.283 56.884 96.6044C58.0084 95.0668 58.4789 93.1468 58.193 91.2635C58.3601 90.5854 47.213 59.5025 46.2982 51.7516C45.6188 60.7988 19.7092 62.6274 13.2483 60.8254C11.1078 70.0729 11.6112 97.081 19.6684 102.58Z" fill="url(#paint34_linear_1403_20696)"/>
<path fill-rule="evenodd" clip-rule="evenodd" d="M38.1586 80.0151C36.3674 71.9824 43.5122 67.4201 51.7533 67.0782C54.2911 78.767 56.2787 84.5378 58.1941 91.2636C55.7683 82.9962 40.0647 88.5585 38.1586 80.0151Z" fill="url(#paint35_linear_1403_20696)"/>
<path fill-rule="evenodd" clip-rule="evenodd" d="M20.5568 46.4278C23.0873 56.6935 31.3738 80.3536 36.0548 89.2336C31.6549 83.4543 22.087 85.4731 18.4581 91.012C16.4715 94.0458 16.0367 99.5831 19.6685 102.58C18.449 101.888 15.021 99.1857 13.4388 92.7849C10.1993 80.9169 5.9833 69.3373 0.833959 58.1647C-3.69433 48.8 11.2628 40.2005 20.5568 46.4278Z" fill="url(#paint36_linear_1403_20696)"/>
<path style="mix-blend-mode:screen" fill-rule="evenodd" clip-rule="evenodd" d="M9.99392 44.689C7.70724 45.1938 5.56686 46.2165 3.73755 47.6784C6.36505 51.0943 19.3771 84.9375 19.0562 90.1958C20.6348 88.3242 22.7341 86.9641 25.0874 86.2883C21.4645 80.1426 10.8986 48.6732 9.99392 44.689Z" fill="url(#paint37_radial_1403_20696)"/>
<path fill-rule="evenodd" clip-rule="evenodd" d="M21.8241 51.0828C21.5848 50.2614 21.3627 49.4774 21.1598 48.737C18.4254 47.1527 15.2465 46.5101 12.1114 46.9079C8.97641 47.3057 6.05871 48.7219 3.80663 50.9389C2.68994 51.949 1.86647 53.2417 1.42306 54.6808C0.97965 56.1198 0.932722 57.6518 1.28723 59.1153C1.57972 59.7393 1.8772 60.3885 2.17968 61.0631C1.94611 59.682 2.05578 58.2646 2.49903 56.9358C2.94228 55.6071 3.70551 54.4078 4.72147 53.4435C6.91775 51.2271 9.78236 49.7951 12.8733 49.3684C15.9642 48.9418 19.1096 49.5442 21.8241 51.0828ZM33.2442 83.1969C31.5886 82.0292 29.6518 81.3235 27.6331 81.1524C25.6144 80.9812 23.5865 81.3508 21.7579 82.2231C15.4753 84.7962 11.9392 91.2198 15.1065 97.3154C14.0756 91.9756 18.0111 86.8974 22.7695 84.8978C26.8282 83.1918 31.5297 83.1121 34.4636 85.9626C34.0704 85.101 33.6629 84.1756 33.2442 83.1969Z" fill="url(#paint38_linear_1403_20696)"/>
<path fill-rule="evenodd" clip-rule="evenodd" d="M313.332 102.58C304.346 109.288 281.333 104.283 276.117 96.6044C274.992 95.067 274.521 93.1469 274.808 91.2635C274.641 90.5854 285.786 59.5025 286.701 51.7516C287.382 60.7988 313.291 62.6274 319.751 60.8254C321.892 70.0729 321.389 97.081 313.332 102.58Z" fill="url(#paint39_linear_1403_20696)"/>
<path fill-rule="evenodd" clip-rule="evenodd" d="M294.842 80.0151C296.634 71.9824 289.489 67.4201 281.249 67.0782C278.71 78.767 276.723 84.5378 274.807 91.2636C277.233 82.9962 292.937 88.5585 294.842 80.0151Z" fill="url(#paint40_linear_1403_20696)"/>
<path fill-rule="evenodd" clip-rule="evenodd" d="M312.443 46.4278C309.912 56.6935 301.626 80.3536 296.945 89.2336C301.346 83.4543 310.914 85.4731 314.542 91.012C316.529 94.0458 316.964 99.5831 313.332 102.58C314.552 101.888 317.98 99.1857 319.561 92.7849C322.8 80.9168 327.016 69.3372 332.166 58.1647C336.695 48.8 321.738 40.2005 312.443 46.4278Z" fill="url(#paint41_linear_1403_20696)"/>
<path style="mix-blend-mode:screen" fill-rule="evenodd" clip-rule="evenodd" d="M323.008 44.689C325.295 45.194 327.435 46.2167 329.265 47.6784C326.636 51.0943 313.624 84.9375 313.945 90.1958C312.367 88.324 310.267 86.9638 307.914 86.2883C311.536 80.1426 322.104 48.6732 323.008 44.689Z" fill="url(#paint42_radial_1403_20696)"/>
<path fill-rule="evenodd" clip-rule="evenodd" d="M329.194 50.939C326.942 48.722 324.024 47.3058 320.889 46.908C317.754 46.5102 314.575 47.1528 311.841 48.737C311.637 49.4775 311.415 50.2614 311.176 51.0828C313.89 49.5442 317.036 48.9417 320.127 49.3684C323.217 49.795 326.082 51.2271 328.278 53.4436C329.295 54.4075 330.058 55.6068 330.501 56.9357C330.944 58.2646 331.053 59.6821 330.819 61.0631C331.122 60.3897 331.42 59.7405 331.714 59.1153C332.068 57.6518 332.021 56.1199 331.577 54.6809C331.134 53.2419 330.311 51.9492 329.194 50.939ZM311.243 82.2232C309.414 81.3509 307.386 80.9813 305.367 81.1524C303.348 81.3236 301.412 82.0293 299.756 83.197C299.338 84.1756 298.929 85.1011 298.536 85.9626C301.47 83.1121 306.172 83.1919 310.23 84.8978C314.989 86.8975 318.925 91.9756 317.894 97.3154C321.062 91.2199 317.524 84.7963 311.243 82.2232Z" fill="url(#paint43_linear_1403_20696)"/>
<path fill-rule="evenodd" clip-rule="evenodd" d="M23.3164 26.0653C21.5887 27.9413 21.5164 30.9674 23.126 33.9818C30.5893 47.952 36.4194 70.3708 38.1596 80.0151C37.5198 76.4538 40.3601 73.5114 46.0425 71.2411C62.7214 64.5776 89.8839 61.2454 166.5 61.2454V9.07416C75.4004 9.07416 33.7525 14.7378 23.3164 26.0653Z" fill="url(#paint44_radial_1403_20696)"/>
<path fill-rule="evenodd" clip-rule="evenodd" d="M309.684 26.0653C311.411 27.9413 311.484 30.9674 309.874 33.9818C302.411 47.952 296.581 70.3708 294.841 80.0151C295.48 76.4538 292.64 73.5114 286.958 71.2411C270.279 64.5776 243.116 61.2454 166.5 61.2454V9.07416C257.6 9.07416 299.248 14.7378 309.684 26.0653Z" fill="url(#paint45_radial_1403_20696)"/>
<path fill-rule="evenodd" clip-rule="evenodd" d="M166.5 55.1077C88.1807 55.1077 59.3137 58.7137 43.3684 65.9262C39.486 67.5813 37.1001 69.6394 36.444 72.0254C36.7313 73.2197 36.9932 74.3564 37.2285 75.4238C37.6544 72.72 40.2561 70.4183 44.706 68.5834C61.017 61.6458 89.0323 58.1765 166.5 58.1765H166.635V55.1079L166.5 55.1077ZM25.9897 31.3801C37.1603 20.6014 77.1038 15.2118 166.5 15.2118L166.635 15.212V12.1435L166.5 12.1431C76.2522 12.1431 35.4568 17.6695 24.6531 28.7227C23.9875 29.3899 23.4959 30.2104 23.2217 31.1121C22.9474 32.0138 22.8988 32.9691 23.0802 33.894C23.0944 33.9233 23.1107 33.9522 23.1261 33.9818C23.4215 34.5343 23.7143 35.0996 24.0043 35.6776C24.01 34.8612 24.1901 34.0554 24.5325 33.3142C24.8749 32.5731 25.3717 31.9136 25.9897 31.3801Z" fill="url(#paint46_linear_1403_20696)"/>
<path fill-rule="evenodd" clip-rule="evenodd" d="M166.769 55.1078C245.089 55.1078 273.956 58.7138 289.9 65.9263C293.783 67.5813 295.933 69.4507 296.589 71.8369C296.303 73.0311 296.053 74.1491 295.817 75.2165C295.392 72.5127 293.013 70.4183 288.564 68.5835C272.252 61.6459 244.236 58.1766 166.769 58.1766H166.635V55.108L166.769 55.1078ZM307.28 31.3801C296.109 20.6014 256.165 15.2119 166.769 15.2119L166.635 15.2121V12.1435L166.769 12.1431C257.017 12.1431 297.812 17.6695 308.616 28.7227C309.279 29.2378 309.784 29.9277 310.075 30.7145C310.366 31.5013 310.432 32.3538 310.264 33.1759C310.249 33.2053 309.528 34.6227 309.238 35.2002C309.233 34.4547 309.054 33.7206 308.714 33.0571C308.373 32.3937 307.882 31.8193 307.28 31.3801Z" fill="url(#paint47_linear_1403_20696)"/>
<path style="mix-blend-mode:screen" opacity="0.3" fill-rule="evenodd" clip-rule="evenodd" d="M309.684 26.0655C299.247 14.7378 257.599 9.07416 166.5 9.07416C75.4014 9.07416 33.7525 14.7378 23.3164 26.0655C21.5887 27.9415 21.5164 30.9674 23.126 33.9818C30.5891 47.952 36.4196 70.3708 38.1594 80.0151C37.5198 76.4538 40.3601 73.5114 46.0425 71.2411C62.7214 64.5776 89.8837 61.2454 166.5 61.2454C243.116 61.2454 270.279 64.5776 286.957 71.2411C292.64 73.5114 295.48 76.4538 294.841 80.0151C296.58 70.3708 302.411 47.952 309.874 33.9818C311.484 30.9674 311.411 27.9415 309.684 26.0655Z" fill="url(#paint48_radial_1403_20696)"/>
<defs>
<linearGradient id="paint0_linear_1403_20696" x1="168.112" y1="183.168" x2="168.112" y2="93.0727" gradientUnits="userSpaceOnUse">
<stop stop-color="#692705"/>
<stop offset="1" stop-color="#823B00"/>
</linearGradient>
<linearGradient id="paint1_linear_1403_20696" x1="286.319" y1="153.659" x2="314.976" y2="125.001" gradientUnits="userSpaceOnUse">
<stop stop-color="#4A1B04"/>
<stop offset="1" stop-color="#823B00"/>
</linearGradient>
<linearGradient id="paint2_linear_1403_20696" x1="166.658" y1="93.6574" x2="166.658" y2="2.97065" gradientUnits="userSpaceOnUse">
<stop stop-color="#692705"/>
<stop offset="1" stop-color="#823B00"/>
</linearGradient>
<linearGradient id="paint3_linear_1403_20696" x1="166.842" y1="272.533" x2="166.842" y2="182.174" gradientUnits="userSpaceOnUse">
<stop stop-color="#692705"/>
<stop offset="1" stop-color="#823B00"/>
</linearGradient>
<linearGradient id="paint4_linear_1403_20696" x1="166.719" y1="367.317" x2="166.719" y2="271.094" gradientUnits="userSpaceOnUse">
<stop stop-color="#692705"/>
<stop offset="1" stop-color="#823B00"/>
</linearGradient>
<radialGradient id="paint5_radial_1403_20696" cx="0" cy="0" r="1" gradientUnits="userSpaceOnUse" gradientTransform="translate(30.5284 -8.78091) scale(327.388 327.405)">
<stop stop-color="#F59547"/>
<stop offset="1" stop-color="#A14C1F"/>
</radialGradient>
<radialGradient id="paint6_radial_1403_20696" cx="0" cy="0" r="1" gradientUnits="userSpaceOnUse" gradientTransform="translate(20.3541 82.9044) scale(346.258 346.276)">
<stop stop-color="#F59547"/>
<stop offset="1" stop-color="#A14C1F"/>
</radialGradient>
<radialGradient id="paint7_radial_1403_20696" cx="0" cy="0" r="1" gradientUnits="userSpaceOnUse" gradientTransform="translate(170.048 -66.5742) scale(306.513 306.529)">
<stop stop-color="#CFA04D"/>
<stop offset="1" stop-color="white"/>
</radialGradient>
<radialGradient id="paint8_radial_1403_20696" cx="0" cy="0" r="1" gradientUnits="userSpaceOnUse" gradientTransform="translate(64.7632 -107.913) scale(220.15 220.162)">
<stop stop-color="#CFA04D"/>
<stop offset="1" stop-color="white"/>
</radialGradient>
<radialGradient id="paint9_radial_1403_20696" cx="0" cy="0" r="1" gradientUnits="userSpaceOnUse" gradientTransform="translate(21.6804 177.97) scale(250.782 250.795)">
<stop stop-color="#F59547"/>
<stop offset="1" stop-color="#A14C1F"/>
</radialGradient>
<radialGradient id="paint10_radial_1403_20696" cx="0" cy="0" r="1" gradientUnits="userSpaceOnUse" gradientTransform="translate(13.4102 146.699) scale(213.714 213.725)">
<stop stop-color="#CFA04D"/>
<stop offset="1" stop-color="white"/>
</radialGradient>
<radialGradient id="paint11_radial_1403_20696" cx="0" cy="0" r="1" gradientUnits="userSpaceOnUse" gradientTransform="translate(215.485 98.7998) scale(210.97 210.981)">
<stop stop-color="#CFA04D"/>
<stop offset="1" stop-color="white"/>
</radialGradient>
<radialGradient id="paint12_radial_1403_20696" cx="0" cy="0" r="1" gradientUnits="userSpaceOnUse" gradientTransform="translate(32.4234 266.221) scale(284.713 284.728)">
<stop stop-color="#F59547"/>
<stop offset="1" stop-color="#A14C1F"/>
</radialGradient>
<radialGradient id="paint13_radial_1403_20696" cx="0" cy="0" r="1" gradientUnits="userSpaceOnUse" gradientTransform="translate(253.684 89.0118) scale(236.681 236.694)">
<stop stop-color="#CFA04D"/>
<stop offset="1" stop-color="white"/>
</radialGradient>
<radialGradient id="paint14_radial_1403_20696" cx="0" cy="0" r="1" gradientUnits="userSpaceOnUse" gradientTransform="translate(115.792 3.76151) scale(197.641 197.652)">
<stop stop-color="#CFA04D"/>
<stop offset="1" stop-color="white"/>
</radialGradient>
<radialGradient id="paint15_radial_1403_20696" cx="0" cy="0" r="1" gradientUnits="userSpaceOnUse" gradientTransform="translate(47.2595 237.894) scale(194.664 194.674)">
<stop stop-color="#CFA04D"/>
<stop offset="1" stop-color="white"/>
</radialGradient>
<radialGradient id="paint16_radial_1403_20696" cx="0" cy="0" r="1" gradientUnits="userSpaceOnUse" gradientTransform="translate(222.744 410.95) scale(249.662 249.675)">
<stop stop-color="#CFA04D"/>
<stop offset="1" stop-color="white"/>
</radialGradient>
<radialGradient id="paint17_radial_1403_20696" cx="0" cy="0" r="1" gradientUnits="userSpaceOnUse" gradientTransform="translate(273.727 204.887) scale(111.672 111.678)">
<stop stop-color="#CFA04D"/>
<stop offset="1" stop-color="white"/>
</radialGradient>
<linearGradient id="paint18_linear_1403_20696" x1="30.9248" y1="7.08926" x2="235.238" y2="7.08926" gradientUnits="userSpaceOnUse">
<stop stop-color="#A48A7B"/>
<stop offset="1" stop-color="#945534"/>
</linearGradient>
<linearGradient id="paint19_linear_1403_20696" x1="29.8037" y1="116.84" x2="211.033" y2="116.84" gradientUnits="userSpaceOnUse">
<stop stop-color="#A48A7B"/>
<stop offset="1" stop-color="#945534"/>
</linearGradient>
<linearGradient id="paint20_linear_1403_20696" x1="30.272" y1="204.377" x2="231.278" y2="204.377" gradientUnits="userSpaceOnUse">
<stop stop-color="#A48A7B"/>
<stop offset="1" stop-color="#945534"/>
</linearGradient>
<linearGradient id="paint21_linear_1403_20696" x1="31.2666" y1="305.023" x2="239.844" y2="305.023" gradientUnits="userSpaceOnUse">
<stop stop-color="#A48A7B"/>
<stop offset="1" stop-color="#945534"/>
</linearGradient>
<radialGradient id="paint22_radial_1403_20696" cx="0" cy="0" r="1" gradientUnits="userSpaceOnUse" gradientTransform="translate(160.273 253.494) scale(370.206 370.225)">
<stop stop-color="#A48A7B"/>
<stop offset="1" stop-color="white"/>
</radialGradient>
<linearGradient id="paint23_linear_1403_20696" x1="166.485" y1="352.195" x2="166.485" y2="14.1812" gradientUnits="userSpaceOnUse">
<stop stop-color="#EDD6B9"/>
<stop offset="1" stop-color="#D4B492"/>
</linearGradient>
<radialGradient id="paint24_radial_1403_20696" cx="0" cy="0" r="1" gradientUnits="userSpaceOnUse" gradientTransform="translate(58.0264 344.29) scale(41.2864 41.2886)">
<stop stop-color="#A48A7B"/>
<stop offset="1" stop-color="white"/>
</radialGradient>
<linearGradient id="paint25_linear_1403_20696" x1="70.7005" y1="320.225" x2="56.6098" y2="330.435" gradientUnits="userSpaceOnUse">
<stop stop-color="#EDD6B9"/>
<stop offset="1" stop-color="#BF9F7E"/>
</linearGradient>
<radialGradient id="paint26_radial_1403_20696" cx="0" cy="0" r="1" gradientUnits="userSpaceOnUse" gradientTransform="translate(164.511 179.975) scale(250.035 250.049)">
<stop stop-color="#CA9E67"/>
<stop offset="1"/>
</radialGradient>
<radialGradient id="paint27_radial_1403_20696" cx="0" cy="0" r="1" gradientUnits="userSpaceOnUse" gradientTransform="translate(161.599 180.17) scale(213.239 213.251)">
<stop stop-color="#CA9E67"/>
<stop offset="1"/>
</radialGradient>
<radialGradient id="paint28_radial_1403_20696" cx="0" cy="0" r="1" gradientUnits="userSpaceOnUse" gradientTransform="translate(48.9339 332.499) scale(37.1427 37.1447)">
<stop/>
<stop offset="1" stop-color="#A3805F"/>
</radialGradient>
<radialGradient id="paint29_radial_1403_20696" cx="0" cy="0" r="1" gradientUnits="userSpaceOnUse" gradientTransform="translate(204.989 261.649) scale(219.623 219.634)">
<stop stop-color="white"/>
<stop offset="1" stop-color="#A48A7B"/>
</radialGradient>
<radialGradient id="paint30_radial_1403_20696" cx="0" cy="0" r="1" gradientUnits="userSpaceOnUse" gradientTransform="translate(173.396 -88.0746) scale(192.017 192.027)">
<stop stop-color="#A48A7B"/>
<stop offset="1" stop-color="white"/>
</radialGradient>
<radialGradient id="paint31_radial_1403_20696" cx="0" cy="0" r="1" gradientUnits="userSpaceOnUse" gradientTransform="translate(275.19 25.0535) scale(76.7145 76.7185)">
<stop stop-color="#A48A7B"/>
<stop offset="1" stop-color="white"/>
</radialGradient>
<linearGradient id="paint32_linear_1403_20696" x1="261.438" y1="30.8468" x2="236.103" y2="55.8229" gradientUnits="userSpaceOnUse">
<stop stop-color="#BF9F7E"/>
<stop offset="1" stop-color="#EDD6B9"/>
</linearGradient>
<radialGradient id="paint33_radial_1403_20696" cx="0" cy="0" r="1" gradientUnits="userSpaceOnUse" gradientTransform="translate(259.242 2.2403) scale(63.9532 63.9565)">
<stop/>
<stop offset="1" stop-color="#A3805F"/>
</radialGradient>
<linearGradient id="paint34_linear_1403_20696" x1="12.488" y1="89.0643" x2="54.5134" y2="72.0858" gradientUnits="userSpaceOnUse">
<stop stop-color="#064203"/>
<stop offset="0.03327" stop-color="#0D4E07"/>
<stop offset="0.2162" stop-color="#318C1B"/>
<stop offset="0.35017" stop-color="#47B328"/>
<stop offset="0.42" stop-color="#50C22D"/>
<stop offset="0.42964" stop-color="#4FC02C"/>
<stop offset="0.59685" stop-color="#3A9B19"/>
<stop offset="0.75282" stop-color="#2B810B"/>
<stop offset="0.89188" stop-color="#227103"/>
<stop offset="1" stop-color="#1F6B00"/>
</linearGradient>
<linearGradient id="paint35_linear_1403_20696" x1="37.8809" y1="79.1709" x2="58.1941" y2="79.1709" gradientUnits="userSpaceOnUse">
<stop stop-color="#006633"/>
<stop offset="1" stop-color="#009933"/>
</linearGradient>
<linearGradient id="paint36_linear_1403_20696" x1="6.73265" y1="76.7936" x2="29.1636" y2="67.7313" gradientUnits="userSpaceOnUse">
<stop stop-color="#0D8C07"/>
<stop offset="0.16357" stop-color="#219C1B"/>
<stop offset="0.50342" stop-color="#5CDE33"/>
<stop offset="0.5087" stop-color="#5BDC32"/>
<stop offset="0.58559" stop-color="#49BF20"/>
<stop offset="0.66776" stop-color="#3BA912"/>
<stop offset="0.75726" stop-color="#319908"/>
<stop offset="0.85907" stop-color="#2B9002"/>
<stop offset="1" stop-color="#298D00"/>
</linearGradient>
<radialGradient id="paint37_radial_1403_20696" cx="0" cy="0" r="1" gradientUnits="userSpaceOnUse" gradientTransform="translate(8.21907 38.9527) scale(59.8569 59.8569)">
<stop offset="0.00372" stop-color="#3AAA35"/>
<stop offset="1" stop-color="#0D010D"/>
</radialGradient>
<linearGradient id="paint38_linear_1403_20696" x1="6.01114" y1="74.9394" x2="28.1347" y2="66.0014" gradientUnits="userSpaceOnUse">
<stop stop-color="#D7F0B9"/>
<stop offset="0.39405" stop-color="white"/>
<stop offset="1" stop-color="#E5FF9C"/>
</linearGradient>
<linearGradient id="paint39_linear_1403_20696" x1="278.487" y1="72.0842" x2="320.513" y2="89.0629" gradientUnits="userSpaceOnUse">
<stop stop-color="#1F6B00"/>
<stop offset="0.10812" stop-color="#227103"/>
<stop offset="0.24718" stop-color="#2B810B"/>
<stop offset="0.40315" stop-color="#3A9B19"/>
<stop offset="0.57036" stop-color="#4FC02C"/>
<stop offset="0.58" stop-color="#50C22D"/>
<stop offset="0.64983" stop-color="#47B328"/>
<stop offset="0.7838" stop-color="#318C1B"/>
<stop offset="0.96673" stop-color="#0D4E07"/>
<stop offset="1" stop-color="#064203"/>
</linearGradient>
<linearGradient id="paint40_linear_1403_20696" x1="274.807" y1="79.1709" x2="295.12" y2="79.1709" gradientUnits="userSpaceOnUse">
<stop stop-color="#009933"/>
<stop offset="1" stop-color="#006633"/>
</linearGradient>
<linearGradient id="paint41_linear_1403_20696" x1="303.837" y1="67.7302" x2="326.268" y2="76.7926" gradientUnits="userSpaceOnUse">
<stop stop-color="#0D8C07"/>
<stop offset="0.16357" stop-color="#219C1B"/>
<stop offset="0.50342" stop-color="#5CDE33"/>
<stop offset="0.5087" stop-color="#5BDC32"/>
<stop offset="0.58559" stop-color="#49BF20"/>
<stop offset="0.66776" stop-color="#3BA912"/>
<stop offset="0.75726" stop-color="#319908"/>
<stop offset="0.85907" stop-color="#2B9002"/>
<stop offset="1" stop-color="#298D00"/>
</linearGradient>
<radialGradient id="paint42_radial_1403_20696" cx="0" cy="0" r="1" gradientUnits="userSpaceOnUse" gradientTransform="translate(333.04 37.3011) scale(59.4381 59.4381)">
<stop offset="0.00372" stop-color="#3AAA35"/>
<stop offset="1" stop-color="#0D010D"/>
</radialGradient>
<linearGradient id="paint43_linear_1403_20696" x1="304.866" y1="66.0007" x2="326.99" y2="74.9387" gradientUnits="userSpaceOnUse">
<stop stop-color="#E5FF9C"/>
<stop offset="0.60595" stop-color="white"/>
<stop offset="1" stop-color="#D7F0B9"/>
</linearGradient>
<radialGradient id="paint44_radial_1403_20696" cx="0" cy="0" r="1" gradientUnits="userSpaceOnUse" gradientTransform="translate(-36.6351 77.3828) scale(207.406 207.417)">
<stop offset="0.32848" stop-color="#3AAA35"/>
<stop offset="0.3696" stop-color="#5CDE33"/>
<stop offset="0.37053" stop-color="#5BDC32"/>
<stop offset="0.3841" stop-color="#49BF20"/>
<stop offset="0.3986" stop-color="#3BA912"/>
<stop offset="0.4144" stop-color="#319908"/>
<stop offset="0.43237" stop-color="#2B9002"/>
<stop offset="0.45725" stop-color="#298D00"/>
<stop offset="0.62587" stop-color="#379F04"/>
<stop offset="0.83188" stop-color="#43AE07"/>
<stop offset="1" stop-color="#47B308"/>
</radialGradient>
<radialGradient id="paint45_radial_1403_20696" cx="0" cy="0" r="1" gradientUnits="userSpaceOnUse" gradientTransform="translate(369.635 77.3828) rotate(180) scale(207.405 207.416)">
<stop offset="0.32848" stop-color="#3AAA35"/>
<stop offset="0.3696" stop-color="#5CDE33"/>
<stop offset="0.37053" stop-color="#5BDC32"/>
<stop offset="0.3841" stop-color="#49BF20"/>
<stop offset="0.3986" stop-color="#3BA912"/>
<stop offset="0.4144" stop-color="#319908"/>
<stop offset="0.43237" stop-color="#2B9002"/>
<stop offset="0.45725" stop-color="#298D00"/>
<stop offset="0.62587" stop-color="#379F04"/>
<stop offset="0.83188" stop-color="#43AE07"/>
<stop offset="1" stop-color="#47B308"/>
</radialGradient>
<linearGradient id="paint46_linear_1403_20696" x1="22.9941" y1="43.7834" x2="166.635" y2="43.7834" gradientUnits="userSpaceOnUse">
<stop stop-color="#D7F0B9"/>
<stop offset="0.06691" stop-color="white"/>
<stop offset="0.17658" stop-color="#E5FF9C"/>
<stop offset="1" stop-color="#F8FFE6"/>
</linearGradient>
<linearGradient id="paint47_linear_1403_20696" x1="166.635" y1="43.6798" x2="310.344" y2="43.6798" gradientUnits="userSpaceOnUse">
<stop stop-color="#F8FFE6"/>
<stop offset="0.82342" stop-color="#E5FF9C"/>
<stop offset="0.93309" stop-color="white"/>
<stop offset="1" stop-color="#D7F0B9"/>
</linearGradient>
<radialGradient id="paint48_radial_1403_20696" cx="0" cy="0" r="1" gradientUnits="userSpaceOnUse" gradientTransform="translate(166.5 111.874) scale(180.327 180.337)">
<stop stop-color="#7AD119"/>
<stop offset="0.27956" stop-color="#528515"/>
<stop offset="0.56435" stop-color="#2D3E11"/>
<stop offset="0.76994" stop-color="#16120E"/>
<stop offset="0.87361" stop-color="#0D010D"/>
</radialGradient>
</defs>
</svg>
