<svg width="44" height="45" viewBox="0 0 44 45" fill="none" xmlns="http://www.w3.org/2000/svg">
<path fill-rule="evenodd" clip-rule="evenodd" d="M21.9999 0.683228C26.3511 0.683228 30.6046 1.9735 34.2225 4.39089C37.8403 6.80827 40.6601 10.2442 42.3252 14.2642C43.9903 18.2841 44.426 22.7076 43.5772 26.9752C42.7283 31.2427 40.633 35.1628 37.5563 38.2395C34.4796 41.3163 30.5595 43.4116 26.292 44.2605C22.0244 45.1094 17.601 44.6737 13.581 43.0086C9.56105 41.3435 6.12512 38.5237 3.70772 34.9059C1.29032 31.288 2.73882e-05 27.0346 0 22.6834C-1.15633e-10 16.8486 2.31785 11.2528 6.44364 7.12697C10.5694 3.00115 16.1652 0.683264 21.9999 0.683228Z" fill="url(#paint0_linear_1403_20767)"/>
<path fill-rule="evenodd" clip-rule="evenodd" d="M5.72534 22.6834C5.72534 18.3671 7.43999 14.2275 10.4921 11.1755C13.5441 8.12338 17.6836 6.40873 21.9999 6.40873C26.3162 6.40873 30.4557 8.12338 33.5078 11.1755C36.5599 14.2275 38.2745 18.3671 38.2745 22.6834C38.4888 22.0963 38.8783 21.5893 39.3904 21.2311C39.9025 20.8729 40.5124 20.6808 41.1373 20.6808C41.7622 20.6808 42.372 20.8729 42.8841 21.2311C43.3962 21.5893 43.7857 22.0963 44 22.6834C44 19.7943 43.431 16.9335 42.3254 14.2643C41.2198 11.5951 39.5992 9.16986 37.5563 7.12696C35.5135 5.08407 33.0882 3.46355 30.419 2.35794C27.7499 1.25234 24.8891 0.683289 22 0.683289C19.1109 0.683289 16.2501 1.25234 13.581 2.35794C10.9118 3.46355 8.48653 5.08407 6.44364 7.12696C4.40075 9.16986 2.78024 11.5951 1.67464 14.2643C0.569034 16.9335 -1.72203e-07 19.7943 0 22.6834C0.214261 22.0963 0.603811 21.5893 1.11588 21.2311C1.62794 20.8729 2.23777 20.6808 2.86269 20.6808C3.48761 20.6808 4.0974 20.8729 4.60947 21.2311C5.12153 21.5893 5.51108 22.0963 5.72534 22.6834Z" fill="url(#paint1_linear_1403_20767)"/>
<g style="mix-blend-mode:screen">
<path fill-rule="evenodd" clip-rule="evenodd" d="M21.5834 5.98169C24.8041 5.9817 27.9526 6.93679 30.6305 8.72617C33.3085 10.5155 35.3957 13.0589 36.6282 16.0345C37.8608 19.0101 38.1832 22.2844 37.5549 25.4432C36.9265 28.6021 35.3756 31.5037 33.0981 33.7812C30.8207 36.0586 27.9191 37.6095 24.7602 38.2379C21.6013 38.8662 18.3271 38.5437 15.3515 37.3111C12.3759 36.0786 9.83259 33.9913 8.04324 31.3134C6.25388 28.6354 5.29881 25.4869 5.29883 22.2661C5.29885 17.9472 7.01456 13.8052 10.0685 10.7513C13.1224 7.69735 17.2645 5.98167 21.5834 5.98169Z" fill="#F7E984"/>
</g>
<path fill-rule="evenodd" clip-rule="evenodd" d="M21.9997 6.40863C25.2185 6.40863 28.365 7.36312 31.0413 9.15139C33.7177 10.9397 35.8037 13.4814 37.0355 16.4552C38.2672 19.429 38.5895 22.7013 37.9616 25.8582C37.3336 29.0152 35.7837 31.9151 33.5076 34.1911C31.2316 36.4672 28.3318 38.0172 25.1748 38.6452C22.0179 39.2731 18.7456 38.9509 15.7718 37.7191C12.798 36.4873 10.2562 34.4014 8.46794 31.7251C6.67965 29.0487 5.72513 25.9022 5.7251 22.6834C5.72508 18.3671 7.43974 14.2275 10.4918 11.1754C13.5439 8.12332 17.6834 6.40865 21.9997 6.40863Z" fill="url(#paint2_radial_1403_20767)"/>
<path style="mix-blend-mode:screen" fill-rule="evenodd" clip-rule="evenodd" d="M8.61389 31.9422L31.2588 9.29729C29.3292 7.96528 27.1352 7.06478 24.8262 6.65713C22.5172 6.24948 20.1474 6.34425 17.8783 6.93499L6.25147 18.5619C5.66072 20.8309 5.56594 23.2007 5.97361 25.5096C6.38128 27.8186 7.28183 30.0126 8.61389 31.9422Z" fill="url(#paint3_radial_1403_20767)"/>
<path style="mix-blend-mode:screen" fill-rule="evenodd" clip-rule="evenodd" d="M36.921 16.7824L16.0989 37.6046L15.9194 37.7839C17.6563 38.4836 19.5014 38.8768 21.3727 38.946L21.7689 38.55L37.8664 22.4524L38.2627 22.0561C38.1933 20.1849 37.8001 18.3398 37.1006 16.6028L36.921 16.7824Z" fill="url(#paint4_radial_1403_20767)"/>
<path fill-rule="evenodd" clip-rule="evenodd" d="M21.9999 1.25583C26.2379 1.25585 30.3807 2.51256 33.9044 4.86704C37.4281 7.22153 40.1744 10.568 41.7962 14.4834C43.418 18.3988 43.8423 22.7071 43.0155 26.8636C42.1888 31.0201 40.148 34.8381 37.1513 37.8348C34.1547 40.8315 30.3367 42.8723 26.1802 43.699C22.0237 44.5258 17.7153 44.1015 13.8 42.4797C9.88466 40.8579 6.53813 38.1115 4.18366 34.5878C1.82918 31.0641 0.572468 26.9213 0.572454 22.6834C0.572449 19.8695 1.12669 17.0831 2.20352 14.4834C3.28035 11.8837 4.85868 9.52153 6.8484 7.5318C8.83813 5.54207 11.2003 3.96373 13.8 2.8869C16.3997 1.81006 19.186 1.25583 21.9999 1.25583ZM21.9999 0.683228C26.3511 0.683228 30.6046 1.9735 34.2225 4.39089C37.8403 6.80827 40.6601 10.2442 42.3252 14.2642C43.9903 18.2841 44.426 22.7076 43.5772 26.9752C42.7283 31.2427 40.633 35.1628 37.5563 38.2395C34.4796 41.3163 30.5595 43.4116 26.292 44.2605C22.0244 45.1094 17.601 44.6737 13.581 43.0086C9.56105 41.3435 6.12512 38.5237 3.70772 34.9059C1.29032 31.288 2.73882e-05 27.0346 0 22.6834C-1.15633e-10 16.8486 2.31785 11.2528 6.44364 7.12697C10.5694 3.00115 16.1652 0.683264 21.9999 0.683228Z" fill="url(#paint5_linear_1403_20767)"/>
<g style="mix-blend-mode:screen">
<path fill-rule="evenodd" clip-rule="evenodd" d="M1.09375 17.9659C2.36853 13.4013 5.10211 9.37944 8.87711 6.51426C12.6521 3.64908 17.2611 2.09808 22.0002 2.09808C26.7394 2.09808 31.3484 3.64908 35.1234 6.51426C38.8984 9.37944 41.632 13.4013 42.9068 17.9659C41.8349 13.2218 39.1814 8.98329 35.3822 5.94666C31.583 2.91004 26.8639 1.25586 22.0002 1.25586C17.1366 1.25586 12.4175 2.91004 8.61831 5.94666C4.81908 8.98329 2.1656 13.2218 1.09375 17.9659Z" fill="#F7E984"/>
</g>
<g filter="url(#filter0_di_1403_20767)">
<path d="M24 31.4082V29.3582C25.5 28.9249 26.7083 28.0915 27.625 26.8582C28.5417 25.6249 29 24.2249 29 22.6582C29 21.0915 28.5417 19.6915 27.625 18.4582C26.7083 17.2249 25.5 16.3915 24 15.9582V13.9082C26.0667 14.3749 27.75 15.4207 29.05 17.0457C30.35 18.6707 31 20.5415 31 22.6582C31 24.7749 30.35 26.6457 29.05 28.2707C27.75 29.8957 26.0667 30.9415 24 31.4082ZM13 25.6832V19.6832H17L22 14.6832V30.6832L17 25.6832H13ZM24 26.6832V18.6332C24.7833 18.9999 25.3958 19.5499 25.8375 20.2832C26.2792 21.0165 26.5 21.8165 26.5 22.6832C26.5 23.5332 26.2792 24.3207 25.8375 25.0457C25.3958 25.7707 24.7833 26.3165 24 26.6832ZM20 19.5332L17.85 21.6832H15V23.6832H17.85L20 25.8332V19.5332Z" fill="#B56727"/>
</g>
<defs>
<filter id="filter0_di_1403_20767" x="13" y="13.9082" width="18" height="18.5" filterUnits="userSpaceOnUse" color-interpolation-filters="sRGB">
<feFlood flood-opacity="0" result="BackgroundImageFix"/>
<feColorMatrix in="SourceAlpha" type="matrix" values="0 0 0 0 0 0 0 0 0 0 0 0 0 0 0 0 0 0 127 0" result="hardAlpha"/>
<feOffset dy="1"/>
<feComposite in2="hardAlpha" operator="out"/>
<feColorMatrix type="matrix" values="0 0 0 0 1 0 0 0 0 1 0 0 0 0 1 0 0 0 0.65 0"/>
<feBlend mode="normal" in2="BackgroundImageFix" result="effect1_dropShadow_1403_20767"/>
<feBlend mode="normal" in="SourceGraphic" in2="effect1_dropShadow_1403_20767" result="shape"/>
<feColorMatrix in="SourceAlpha" type="matrix" values="0 0 0 0 0 0 0 0 0 0 0 0 0 0 0 0 0 0 127 0" result="hardAlpha"/>
<feOffset dy="1"/>
<feComposite in2="hardAlpha" operator="arithmetic" k2="-1" k3="1"/>
<feColorMatrix type="matrix" values="0 0 0 0 0 0 0 0 0 0 0 0 0 0 0 0 0 0 0.25 0"/>
<feBlend mode="normal" in2="shape" result="effect2_innerShadow_1403_20767"/>
</filter>
<linearGradient id="paint0_linear_1403_20767" x1="22" y1="44.6832" x2="22" y2="0.683228" gradientUnits="userSpaceOnUse">
<stop stop-color="#DE8B00"/>
<stop offset="1" stop-color="#FFC75E"/>
</linearGradient>
<linearGradient id="paint1_linear_1403_20767" x1="22" y1="22.6834" x2="22" y2="0.68322" gradientUnits="userSpaceOnUse">
<stop stop-color="#FFB805"/>
<stop offset="1" stop-color="#FFE89C"/>
</linearGradient>
<radialGradient id="paint2_radial_1403_20767" cx="0" cy="0" r="1" gradientUnits="userSpaceOnUse" gradientTransform="translate(14.3225 8.52834) scale(36.1224 36.1225)">
<stop stop-color="#FFEEB8"/>
<stop offset="1" stop-color="#FFBF00"/>
</radialGradient>
<radialGradient id="paint3_radial_1403_20767" cx="0" cy="0" r="1" gradientUnits="userSpaceOnUse" gradientTransform="translate(16.0928 -0.977326) scale(36.4506 36.4507)">
<stop stop-color="#FFFD9E"/>
<stop offset="1"/>
</radialGradient>
<radialGradient id="paint4_radial_1403_20767" cx="0" cy="0" r="1" gradientUnits="userSpaceOnUse" gradientTransform="translate(29.4902 11.2204) scale(30.9453 30.9454)">
<stop stop-color="#FFFD9E"/>
<stop offset="1"/>
</radialGradient>
<linearGradient id="paint5_linear_1403_20767" x1="22" y1="44.6832" x2="22" y2="0.683228" gradientUnits="userSpaceOnUse">
<stop stop-color="#CF8000"/>
<stop offset="1" stop-color="#F5B133"/>
</linearGradient>
</defs>
</svg>
