<svg width="42" height="41" viewBox="0 0 42 41" fill="none" xmlns="http://www.w3.org/2000/svg">
<g filter="url(#filter0_d_1561_17353)">
<path fill-rule="evenodd" clip-rule="evenodd" d="M26.8939 13.9226C26.8939 13.9226 35.2705 14.9906 35.9501 17.3145C36.6296 19.6383 30.1508 25.0606 30.1508 25.0606C30.1508 25.0606 31.7324 33.3818 29.729 34.7432C27.7257 36.1046 20.5791 31.6095 20.5791 31.6095C20.5791 31.6095 13.1749 35.6821 11.2652 34.2033C9.35556 32.7245 11.4175 24.509 11.4175 24.509C11.4175 24.509 5.25506 18.7111 6.07515 16.4342C6.89525 14.1574 15.3188 13.5823 15.3188 13.5823C15.3188 13.5823 18.9155 5.93006 21.3289 6.00048C23.7424 6.0709 26.8939 13.9226 26.8939 13.9226Z" fill="url(#paint0_linear_1561_17353)"/>
<path fill-rule="evenodd" clip-rule="evenodd" d="M25.6637 15.5188C25.6637 15.5188 32.5525 16.3873 33.1032 18.3004C33.6538 20.2134 28.3466 24.6615 28.3466 24.6615C28.3466 24.6615 29.6353 31.4805 27.9951 32.6072C26.355 33.7339 20.4854 30.0369 20.4854 30.0369C20.4854 30.0369 14.405 33.37 12.8351 32.1612C11.2652 30.9523 12.9639 24.2038 12.9639 24.2038C12.9639 24.2038 7.9028 19.5092 8.58231 17.5727C9.26181 15.6362 16.1623 15.2254 16.1623 15.2254C16.1623 15.2254 19.1147 8.94636 21.1063 9.00505C23.098 9.06373 25.6637 15.5188 25.6637 15.5188Z" fill="url(#paint1_linear_1561_17353)"/>
<path fill-rule="evenodd" clip-rule="evenodd" d="M25.4294 15.8241C25.4294 15.8241 32.0136 16.6691 32.5525 18.4882C33.0914 20.3074 27.9834 24.5795 27.9834 24.5795C27.9834 24.5795 29.2253 31.1167 27.6554 32.1847C26.0855 33.2528 20.4619 29.7201 20.4619 29.7201C20.4619 29.7201 14.6041 32.9241 13.1396 31.7622C11.6752 30.6003 13.2568 24.1452 13.2568 24.1452C13.2568 24.1452 8.41826 19.5915 9.06262 17.7958C9.70699 16.0001 16.3263 15.5541 16.3263 15.5541C16.3263 15.5541 19.1615 9.54502 21.0126 9.6037C22.8636 9.66238 25.4294 15.8241 25.4294 15.8241Z" fill="url(#paint2_radial_1561_17353)"/>
<path fill-rule="evenodd" clip-rule="evenodd" d="M18.2829 17.3614C18.2829 17.5499 18.2269 17.7341 18.1221 17.8907C18.0173 18.0473 17.8684 18.1691 17.6944 18.2407C17.5203 18.3123 17.3289 18.3305 17.1445 18.2928C16.9601 18.2552 16.791 18.1635 16.6588 18.0293C16.5266 17.8952 16.4371 17.7247 16.4018 17.5395C16.3666 17.3544 16.387 17.1629 16.4607 16.9894C16.5343 16.8159 16.6577 16.6682 16.8153 16.5652C16.9729 16.4622 17.1575 16.4084 17.3457 16.4107C17.4698 16.4107 17.5926 16.4354 17.7071 16.4833C17.8216 16.5312 17.9254 16.6014 18.0126 16.6899C18.0998 16.7783 18.1686 16.8832 18.215 16.9985C18.2614 17.1137 18.2845 17.2371 18.2829 17.3614Z" fill="white"/>
</g>
<defs>
<filter id="filter0_d_1561_17353" x="0" y="0" width="42" height="41" filterUnits="userSpaceOnUse" color-interpolation-filters="sRGB">
<feFlood flood-opacity="0" result="BackgroundImageFix"/>
<feColorMatrix in="SourceAlpha" type="matrix" values="0 0 0 0 0 0 0 0 0 0 0 0 0 0 0 0 0 0 127 0" result="hardAlpha"/>
<feOffset/>
<feGaussianBlur stdDeviation="3"/>
<feComposite in2="hardAlpha" operator="out"/>
<feColorMatrix type="matrix" values="0 0 0 0 0 0 0 0 0 0 0 0 0 0 0 0 0 0 0.7 0"/>
<feBlend mode="normal" in2="BackgroundImageFix" result="effect1_dropShadow_1561_17353"/>
<feBlend mode="normal" in="SourceGraphic" in2="effect1_dropShadow_1561_17353" result="shape"/>
</filter>
<linearGradient id="paint0_linear_1561_17353" x1="29.0027" y1="35.1657" x2="14.3308" y2="9.80224" gradientUnits="userSpaceOnUse">
<stop stop-color="#C1BDF1"/>
<stop offset="1" stop-color="#FBF9FE"/>
</linearGradient>
<linearGradient id="paint1_linear_1561_17353" x1="8.51201" y1="20.9176" x2="33.15" y2="20.9176" gradientUnits="userSpaceOnUse">
<stop stop-color="#C44C25"/>
<stop offset="1" stop-color="#FF5E42"/>
</linearGradient>
<radialGradient id="paint2_radial_1561_17353" cx="0" cy="0" r="1" gradientUnits="userSpaceOnUse" gradientTransform="translate(18.2008 16.5165) scale(11.5868 11.6074)">
<stop stop-color="#FFC62D"/>
<stop offset="1" stop-color="#FF9200"/>
</radialGradient>
</defs>
</svg>
