<svg width="50" height="50" viewBox="0 0 50 50" fill="none" xmlns="http://www.w3.org/2000/svg">
<path d="M25.4167 26.25V4.85078C28.7501 4.29523 36.7501 5.50001 42.0834 12.5C47.4167 19.5 47.639 24.5833 47.0834 26.25H25.4167Z" fill="#B15653"/>
<path d="M24.5358 2.56441V2.46441H24.4358H21.2308C20.95 2.46404 20.6895 2.20366 20.6895 1.92321C20.6895 1.41992 20.9151 0.977462 21.241 0.651552C21.567 0.325626 22.0095 0.1 22.5127 0.1L27.6406 0.100113C28.1439 0.100113 28.5863 0.325731 28.9123 0.651654C29.2382 0.977635 29.4638 1.42009 29.4638 1.92332C29.4638 2.2039 29.2032 2.46453 28.9226 2.46453H25.7175H25.6175V2.56453V3.84646V3.94374L25.7147 3.94642C31.9002 4.11703 37.4775 6.73337 41.5112 10.8676L41.5824 10.9405L41.654 10.8681L43.2636 9.23846C43.3028 9.22061 43.3432 9.2011 43.3795 9.18356C43.4074 9.17008 43.4329 9.15776 43.4537 9.14822C43.5132 9.12092 43.5606 9.10307 43.6059 9.09515C43.6866 9.08107 43.781 9.0947 43.944 9.20498C44.0515 9.30744 44.1273 9.45302 44.149 9.599C44.1707 9.74617 44.1369 9.88521 44.0363 9.98559L44.0358 9.98608L42.3734 11.6687L42.3081 11.7348L42.3693 11.8048C45.9048 15.848 48.0537 21.136 48.0537 26.9232C48.0537 39.6055 37.7585 49.9 25.0768 49.9C12.3945 49.9 2.1 39.6048 2.1 26.9232C2.1 14.4559 12.0533 4.28733 24.4386 3.94631L24.5358 3.94363V3.84634V2.56441ZM46.8511 27.4636H24.5359V5.16049L24.5634 5.04808H24.436C15.0335 5.04808 3.76254 12.869 3.2029 26.2771L3.19855 26.3812H3.30281L5.20585 26.3812L5.20716 26.3812C5.48867 26.3775 5.74705 26.6375 5.74705 26.9224C5.74705 27.2078 5.48791 27.4688 5.2077 27.4637L5.2077 27.4636H5.20585H3.30281H3.19988L3.20285 27.5665C3.53749 39.1524 12.8475 48.4426 24.4331 48.7773L24.536 48.7803V48.6773V46.7944H24.536L24.5359 46.7905C24.5254 46.5255 24.7457 46.2661 25.0092 46.2328L25.0093 46.2328C25.159 46.2137 25.3146 46.2725 25.4331 46.3811C25.5516 46.4897 25.6238 46.6397 25.618 46.7906L25.6179 46.7906V46.7944V48.6773V48.7803L25.7208 48.7773C37.3062 48.4427 46.6159 39.1523 46.951 27.5665L46.954 27.4636H46.8511ZM25.7207 5.04849L25.6178 5.04551V5.14844V26.2816V26.3816H25.7178H46.851H46.9539L46.9509 26.2787C46.6163 14.6932 37.3063 5.38359 25.7207 5.04849Z" fill="white" stroke="#1B1741" stroke-width="0.2"/>
</svg>
