<svg width="83" height="59" viewBox="0 0 83 59" fill="none" xmlns="http://www.w3.org/2000/svg">
<g filter="url(#filter0_dii_1527_3010)">
<g clip-path="url(#clip0_1527_3010)">
<path d="M77.4035 6H6V53H77.4035V6Z" fill="#00843D"/>
<path d="M41.4496 11.2125C43.5599 12.1071 45.0385 14.1775 45.0385 16.5883C45.0385 19.8176 42.3862 22.4363 39.1156 22.4363C37.6514 22.4363 36.3114 21.9111 35.2775 21.0416C35.9171 21.3124 36.616 21.476 37.3522 21.5077C40.6197 21.6486 43.3852 19.1466 43.5278 15.9205C43.6107 14.0474 42.791 12.3416 41.4496 11.2125Z" fill="white"/>
<path d="M35.8003 15.5112L36.4714 13.472L34.7145 14.7323H36.8861L35.1292 13.472L35.8003 15.5112Z" fill="white"/>
<path d="M35.8003 12.5032L36.4714 10.464L34.7145 11.7243H36.8861L35.1292 10.464L35.8003 12.5032Z" fill="white"/>
<path d="M38.8102 14.0447L39.4812 12.0054L37.7243 13.2657H39.896L38.1391 12.0054L38.8102 14.0447Z" fill="white"/>
<path d="M32.7906 16.9778L33.4616 14.9386L31.7047 16.1989H33.8764L32.1195 14.9386L32.7906 16.9778Z" fill="white"/>
<path d="M35.8003 18.5192L36.4714 16.48L34.7145 17.7403H36.8861L35.1292 16.48L35.8003 18.5192Z" fill="white"/>
<path d="M27.4209 6H14.5683V53H27.4209V6Z" fill="#D22630"/>
<path d="M14.5686 2.89652V3.35707L15.2914 4.02505L15.0476 4.2491L15.5645 4.72208L15.3376 4.92539V4.63081H14.8964V4.98347L15.8923 5.90455H16.3965L16.4512 5.58093H16.1612L16.4764 5.2905L17.2664 5.99998L16.4764 6.71361L16.1612 6.42318H16.4512L16.3965 6.09541H15.8923L14.8964 7.0165V7.36916H15.3376V7.07459L15.5645 7.27789L15.0476 7.75087L15.2914 7.97906L14.5686 8.64291V9.10345L15.7914 7.97906L15.5477 7.75087L16.0604 7.27789L15.6191 6.87128L15.9133 6.60575L16.4764 7.12022L17.7118 6L16.4764 4.87977L15.9133 5.39839L15.6191 5.12871L16.0604 4.7221L15.5477 4.24912L15.7914 4.02507L14.5686 2.89652ZM14.5686 5.13284V6.86713L14.8544 6.58084V6.24478H15.1569L15.4006 5.99999L15.1569 5.75935H14.8544V5.41913L14.5686 5.13284ZM16.6529 5.74689L16.6109 5.98339L16.6529 6.22403L16.9134 5.98339L16.6529 5.74689Z" fill="#383739"/>
<path d="M14.5683 2.94631V3.31142L15.3415 4.02505L15.0977 4.2491L15.6146 4.72209L15.3036 5.00837V4.664H14.9296V4.97103L15.9088 5.87136H16.3626L16.4088 5.61412H16.0726L16.476 5.24071L17.3165 5.99998L16.476 6.75925L16.0726 6.38999H16.4088L16.3625 6.1286H15.9086L14.9295 7.02893V7.33596H15.3035V6.99159L15.6145 7.27787L15.0976 7.75086L15.3413 7.97905L14.5681 8.68853V9.05365L15.7405 7.97905L15.4968 7.75086L16.0095 7.27787L15.5682 6.87127L15.9128 6.55594L16.4759 7.07457L17.6567 5.99998L16.4759 4.92538L15.9128 5.44401L15.5682 5.12869L16.0095 4.72208L15.4968 4.24909L15.7405 4.02505L14.5681 2.9463L14.5683 2.94631ZM14.5683 5.18263V6.81734L14.8204 6.5684V6.20744H15.144L15.3541 5.99999L15.144 5.79254H14.8204V5.43157L14.5683 5.18263ZM16.6777 5.81328L16.6483 5.98339L16.6777 6.1535L16.8626 5.98339L16.6777 5.81328Z" fill="#FFC72C"/>
<path d="M14.5686 11.451V11.9116L15.2914 12.5796L15.0476 12.8036L15.5645 13.2766L15.3376 13.4799V13.1853H14.8964V13.538L15.8923 14.4591H16.3965L16.4512 14.1355H16.1612L16.4764 13.845L17.2664 14.5545L16.4764 15.2681L16.1612 14.9777H16.4512L16.3965 14.6499H15.8923L14.8964 15.571V15.9237H15.3376V15.6291L15.5645 15.8324L15.0476 16.3054L15.2914 16.5336L14.5686 17.1974V17.658L15.7914 16.5336L15.5477 16.3054L16.0604 15.8324L15.6191 15.4258L15.9133 15.1603L16.4764 15.6748L17.7118 14.5545L16.4764 13.4343L15.9133 13.9529L15.6191 13.6832L16.0604 13.2766L15.5477 12.8036L15.7914 12.5796L14.5686 11.451ZM14.5686 13.6874V15.4217L14.8544 15.1354V14.7993H15.1569L15.4006 14.5545L15.1569 14.3139H14.8544V13.9737L14.5686 13.6874ZM16.6529 14.3014L16.6109 14.5379L16.6529 14.7786L16.9134 14.5379L16.6529 14.3014Z" fill="#383739"/>
<path d="M14.5683 11.5008V11.866L15.3415 12.5796L15.0977 12.8036L15.6146 13.2766L15.3036 13.5629V13.2185H14.9296V13.5256L15.9088 14.4259H16.3626L16.4088 14.1687H16.0726L16.476 13.7952L17.3165 14.5545L16.476 15.3138L16.0726 14.9445H16.4088L16.3625 14.6831H15.9086L14.9295 15.5835V15.8905H15.3035V15.5461L15.6145 15.8324L15.0976 16.3054L15.3413 16.5336L14.5681 17.2431V17.6082L15.7405 16.5336L15.4968 16.3054L16.0095 15.8324L15.5682 15.4258L15.9128 15.1105L16.4759 15.6291L17.6567 14.5545L16.4759 13.4799L15.9128 13.9985L15.5682 13.6832L16.0095 13.2766L15.4968 12.8036L15.7405 12.5796L14.5681 11.5008L14.5683 11.5008ZM14.5683 13.7372V15.3719L14.8204 15.1229V14.762H15.144L15.3541 14.5545L15.144 14.3471H14.8204V13.9861L14.5683 13.7372ZM16.6777 14.3678L16.6483 14.5379L16.6777 14.708L16.8626 14.5379L16.6777 14.3678Z" fill="#FFC72C"/>
<path d="M14.5686 20.2869V20.7475L15.2914 21.4154L15.0476 21.6395L15.5645 22.1125L15.3376 22.3158V22.0212H14.8964V22.3739L15.8923 23.295H16.3965L16.4512 22.9713H16.1612L16.4764 22.6809L17.2664 23.3904L16.4764 24.104L16.1612 23.8136H16.4512L16.3965 23.4858H15.8923L14.8964 24.4069V24.7596H15.3376V24.465L15.5645 24.6683L15.0476 25.1413L15.2914 25.3695L14.5686 26.0333V26.4939L15.7914 25.3695L15.5477 25.1413L16.0604 24.6683L15.6191 24.2617L15.9133 23.9961L16.4764 24.5106L17.7118 23.3904L16.4764 22.2702L15.9133 22.7888L15.6191 22.5191L16.0604 22.1125L15.5477 21.6395L15.7914 21.4155L14.5686 20.2869ZM14.5686 22.5232V24.2575L14.8544 23.9712V23.6352H15.1569L15.4006 23.3904L15.1569 23.1497H14.8544V22.8095L14.5686 22.5232ZM16.6529 23.1373L16.6109 23.3738L16.6529 23.6144L16.9134 23.3738L16.6529 23.1373Z" fill="#383739"/>
<path d="M14.5683 20.3367V20.7018L15.3415 21.4154L15.0977 21.6395L15.6146 22.1125L15.3036 22.3988V22.0544H14.9296V22.3614L15.9088 23.2618H16.3626L16.4088 23.0045H16.0726L16.476 22.6311L17.3165 23.3904L16.476 24.1496L16.0726 23.7804H16.4088L16.3625 23.519H15.9086L14.9295 24.4193V24.7264H15.3035V24.382L15.6145 24.6683L15.0976 25.1413L15.3413 25.3694L14.5681 26.0789V26.444L15.7405 25.3694L15.4968 25.1413L16.0095 24.6683L15.5682 24.2617L15.9128 23.9463L16.4759 24.465L17.6567 23.3904L16.4759 22.3158L15.9128 22.8344L15.5682 22.5191L16.0095 22.1125L15.4968 21.6395L15.7405 21.4154L14.5681 20.3367L14.5683 20.3367ZM14.5683 22.573V24.2077L14.8204 23.9588V23.5978H15.144L15.3541 23.3904L15.144 23.1829H14.8204V22.822L14.5683 22.573ZM16.6777 23.2037L16.6483 23.3738L16.6777 23.5439L16.8626 23.3738L16.6777 23.2037Z" fill="#FFC72C"/>
<path d="M14.5686 29.1227V29.5832L15.2914 30.2512L15.0476 30.4752L15.5645 30.9482L15.3376 31.1515V30.8569H14.8964V31.2096L15.8923 32.1307H16.3965L16.4512 31.8071H16.1612L16.4764 31.5166L17.2664 32.2261L16.4764 32.9397L16.1612 32.6493H16.4512L16.3965 32.3215H15.8923L14.8964 33.2426V33.5953H15.3376V33.3007L15.5645 33.504L15.0476 33.977L15.2914 34.2052L14.5686 34.869V35.3296L15.7914 34.2052L15.5477 33.977L16.0604 33.504L15.6191 33.0974L15.9133 32.8319L16.4764 33.3464L17.7118 32.2261L16.4764 31.1059L15.9133 31.6245L15.6191 31.3548L16.0604 30.9482L15.5477 30.4752L15.7914 30.2512L14.5686 29.1227ZM14.5686 31.359V33.0933L14.8544 32.807V32.4709H15.1569L15.4006 32.2261L15.1569 31.9855H14.8544V31.6453L14.5686 31.359ZM16.6529 31.973L16.6109 32.2095L16.6529 32.4502L16.9134 32.2095L16.6529 31.973Z" fill="#383739"/>
<path d="M14.5683 29.1724V29.5376L15.3415 30.2512L15.0977 30.4752L15.6146 30.9482L15.3036 31.2345V30.8901H14.9296V31.1972L15.9088 32.0975H16.3626L16.4088 31.8403H16.0726L16.476 31.4668L17.3165 32.2261L16.476 32.9854L16.0726 32.6161H16.4088L16.3625 32.3547H15.9086L14.9295 33.2551V33.5621H15.3035V33.2177L15.6145 33.504L15.0976 33.977L15.3413 34.2052L14.5681 34.9147V35.2798L15.7405 34.2052L15.4968 33.977L16.0095 33.504L15.5682 33.0974L15.9128 32.7821L16.4759 33.3007L17.6567 32.2261L16.4759 31.1515L15.9128 31.6701L15.5682 31.3548L16.0095 30.9482L15.4968 30.4752L15.7405 30.2512L14.5681 29.1724L14.5683 29.1724ZM14.5683 31.4088V33.0435L14.8204 32.7945V32.4336H15.144L15.3541 32.2261L15.144 32.0187H14.8204V31.6577L14.5683 31.4088ZM16.6777 32.0394L16.6483 32.2095L16.6777 32.3796L16.8626 32.2095L16.6777 32.0394Z" fill="#FFC72C"/>
<path d="M14.5686 37.9584V38.4189L15.2914 39.0869L15.0476 39.311L15.5645 39.784L15.3376 39.9873V39.6927H14.8964V40.0453L15.8923 40.9664H16.3965L16.4512 40.6428H16.1612L16.4764 40.3524L17.2664 41.0619L16.4764 41.7755L16.1612 41.4851H16.4512L16.3965 41.1573H15.8923L14.8964 42.0784V42.431H15.3376V42.1365L15.5645 42.3398L15.0476 42.8127L15.2914 43.0409L14.5686 43.7048V44.1653L15.7914 43.0409L15.5477 42.8127L16.0604 42.3398L15.6191 41.9332L15.9133 41.6676L16.4764 42.1821L17.7118 41.0619L16.4764 39.9416L15.9133 40.4603L15.6191 40.1906L16.0604 39.784L15.5477 39.311L15.7914 39.0869L14.5686 37.9584ZM14.5686 40.1947V41.929L14.8544 41.6427V41.3066H15.1569L15.4006 41.0619L15.1569 40.8212H14.8544V40.481L14.5686 40.1947ZM16.6529 40.8088L16.6109 41.0453L16.6529 41.2859L16.9134 41.0453L16.6529 40.8088Z" fill="#383739"/>
<path d="M14.5683 38.0082V38.3733L15.3415 39.0869L15.0977 39.311L15.6146 39.784L15.3036 40.0702V39.7259H14.9296V40.0329L15.9088 40.9332H16.3626L16.4088 40.676H16.0726L16.476 40.3026L17.3165 41.0619L16.476 41.8211L16.0726 41.4519H16.4088L16.3625 41.1905H15.9086L14.9295 42.0908V42.3978H15.3035V42.0535L15.6145 42.3397L15.0976 42.8127L15.3413 43.0409L14.5681 43.7504V44.1155L15.7405 43.0409L15.4968 42.8127L16.0095 42.3397L15.5682 41.9331L15.9128 41.6178L16.4759 42.1364L17.6567 41.0619L16.4759 39.9873L15.9128 40.5059L15.5682 40.1906L16.0095 39.784L15.4968 39.311L15.7405 39.0869L14.5681 38.0082L14.5683 38.0082ZM14.5683 40.2445V41.8792L14.8204 41.6303V41.2693H15.144L15.3541 41.0619L15.144 40.8544H14.8204V40.4934L14.5683 40.2445ZM16.6777 40.8752L16.6483 41.0453L16.6777 41.2154L16.8626 41.0453L16.6777 40.8752Z" fill="#FFC72C"/>
<path d="M27.4206 2.89652V3.35707L26.6978 4.02505L26.9415 4.2491L26.4247 4.72208L26.6516 4.92539V4.63081H27.0928V4.98347L26.0969 5.90455H25.5926L25.538 5.58093H25.8279L25.5128 5.2905L24.7228 5.99998L25.5128 6.71361L25.8279 6.42318H25.538L25.5926 6.09541H26.0969L27.0928 7.0165V7.36916H26.6516V7.07459L26.4247 7.27789L26.9415 7.75087L26.6978 7.97906L27.4206 8.64291V9.10345L26.1977 7.97906L26.4415 7.75087L25.9288 7.27789L26.37 6.87128L26.0759 6.60575L25.5128 7.12022L24.2773 6L25.5128 4.87977L26.0759 5.39839L26.37 5.12871L25.9288 4.7221L26.4415 4.24912L26.1977 4.02507L27.4206 2.89652ZM27.4206 5.13284V6.86713L27.1348 6.58084V6.24478H26.8323L26.5885 5.99999L26.8323 5.75935H27.1348V5.41913L27.4206 5.13284ZM25.3363 5.74689L25.3783 5.98339L25.3363 6.22403L25.0758 5.98339L25.3363 5.74689Z" fill="#383739"/>
<path d="M27.4209 2.94631V3.31142L26.6477 4.02505L26.8914 4.2491L26.3746 4.72209L26.6855 5.00837V4.664H27.0595V4.97103L26.0804 5.87136H25.6266L25.5804 5.61412H25.9165L25.5131 5.24071L24.6727 5.99998L25.5131 6.75925L25.9165 6.38999H25.5804L25.6267 6.1286H26.0805L27.0596 7.02893V7.33596H26.6856V6.99159L26.3747 7.27787L26.8916 7.75086L26.6478 7.97905L27.421 8.68853V9.05365L26.2486 7.97905L26.4923 7.75086L25.9797 7.27787L26.4209 6.87127L26.0763 6.55594L25.5132 7.07457L24.3324 5.99998L25.5132 4.92538L26.0763 5.44401L26.4209 5.12869L25.9797 4.72208L26.4923 4.24909L26.2486 4.02505L27.421 2.9463L27.4209 2.94631ZM27.4209 5.18263V6.81734L27.1688 6.5684V6.20744H26.8452L26.6351 5.99999L26.8452 5.79254H27.1688V5.43157L27.4209 5.18263ZM25.3114 5.81328L25.3408 5.98339L25.3114 6.1535L25.1265 5.98339L25.3114 5.81328Z" fill="#FFC72C"/>
<path d="M27.4206 11.451V11.9116L26.6978 12.5796L26.9415 12.8036L26.4247 13.2766L26.6516 13.4799V13.1853H27.0928V13.538L26.0969 14.4591H25.5926L25.538 14.1355H25.8279L25.5128 13.845L24.7228 14.5545L25.5128 15.2681L25.8279 14.9777H25.538L25.5926 14.6499H26.0969L27.0928 15.571V15.9237H26.6516V15.6291L26.4247 15.8324L26.9415 16.3054L26.6978 16.5336L27.4206 17.1974V17.658L26.1977 16.5336L26.4415 16.3054L25.9288 15.8324L26.37 15.4258L26.0759 15.1603L25.5128 15.6748L24.2773 14.5545L25.5128 13.4343L26.0759 13.9529L26.37 13.6832L25.9288 13.2766L26.4415 12.8036L26.1977 12.5796L27.4206 11.451ZM27.4206 13.6874V15.4217L27.1348 15.1354V14.7993H26.8323L26.5885 14.5545L26.8323 14.3139H27.1348V13.9737L27.4206 13.6874ZM25.3363 14.3014L25.3783 14.5379L25.3363 14.7786L25.0758 14.5379L25.3363 14.3014Z" fill="#383739"/>
<path d="M27.4209 11.5008V11.866L26.6477 12.5796L26.8914 12.8036L26.3746 13.2766L26.6855 13.5629V13.2185H27.0595V13.5256L26.0804 14.4259H25.6266L25.5804 14.1687H25.9165L25.5131 13.7952L24.6727 14.5545L25.5131 15.3138L25.9165 14.9445H25.5804L25.6267 14.6831H26.0805L27.0596 15.5835V15.8905H26.6856V15.5461L26.3747 15.8324L26.8916 16.3054L26.6478 16.5336L27.421 17.2431V17.6082L26.2486 16.5336L26.4923 16.3054L25.9797 15.8324L26.4209 15.4258L26.0763 15.1105L25.5132 15.6291L24.3324 14.5545L25.5132 13.4799L26.0763 13.9985L26.4209 13.6832L25.9797 13.2766L26.4923 12.8036L26.2486 12.5796L27.421 11.5008L27.4209 11.5008ZM27.4209 13.7372V15.3719L27.1688 15.1229V14.762H26.8452L26.6351 14.5545L26.8452 14.3471H27.1688V13.9861L27.4209 13.7372ZM25.3114 14.3678L25.3408 14.5379L25.3114 14.708L25.1265 14.5379L25.3114 14.3678Z" fill="#FFC72C"/>
<path d="M27.4206 20.2869V20.7475L26.6978 21.4154L26.9415 21.6395L26.4247 22.1125L26.6516 22.3158V22.0212H27.0928V22.3739L26.0969 23.295H25.5926L25.538 22.9713H25.8279L25.5128 22.6809L24.7228 23.3904L25.5128 24.104L25.8279 23.8136H25.538L25.5926 23.4858H26.0969L27.0928 24.4069V24.7596H26.6516V24.465L26.4247 24.6683L26.9415 25.1413L26.6978 25.3695L27.4206 26.0333V26.4939L26.1977 25.3695L26.4415 25.1413L25.9288 24.6683L26.37 24.2617L26.0759 23.9961L25.5128 24.5106L24.2773 23.3904L25.5128 22.2702L26.0759 22.7888L26.37 22.5191L25.9288 22.1125L26.4415 21.6395L26.1977 21.4155L27.4206 20.2869ZM27.4206 22.5232V24.2575L27.1348 23.9712V23.6352H26.8323L26.5885 23.3904L26.8323 23.1497H27.1348V22.8095L27.4206 22.5232ZM25.3363 23.1373L25.3783 23.3738L25.3363 23.6144L25.0758 23.3738L25.3363 23.1373Z" fill="#383739"/>
<path d="M27.4209 20.3367V20.7018L26.6477 21.4154L26.8914 21.6395L26.3746 22.1125L26.6855 22.3988V22.0544H27.0595V22.3614L26.0804 23.2618H25.6266L25.5804 23.0045H25.9165L25.5131 22.6311L24.6727 23.3904L25.5131 24.1496L25.9165 23.7804H25.5804L25.6267 23.519H26.0805L27.0596 24.4193V24.7264H26.6856V24.382L26.3747 24.6683L26.8916 25.1413L26.6478 25.3694L27.421 26.0789V26.444L26.2486 25.3694L26.4923 25.1413L25.9797 24.6683L26.4209 24.2617L26.0763 23.9463L25.5132 24.465L24.3324 23.3904L25.5132 22.3158L26.0763 22.8344L26.4209 22.5191L25.9797 22.1125L26.4923 21.6395L26.2486 21.4154L27.421 20.3367L27.4209 20.3367ZM27.4209 22.573V24.2077L27.1688 23.9588V23.5978H26.8452L26.6351 23.3904L26.8452 23.1829H27.1688V22.822L27.4209 22.573ZM25.3114 23.2037L25.3408 23.3738L25.3114 23.5439L25.1265 23.3738L25.3114 23.2037Z" fill="#FFC72C"/>
<path d="M27.4206 29.1227V29.5832L26.6978 30.2512L26.9415 30.4752L26.4247 30.9482L26.6516 31.1515V30.8569H27.0928V31.2096L26.0969 32.1307H25.5926L25.538 31.8071H25.8279L25.5128 31.5166L24.7228 32.2261L25.5128 32.9398L25.8279 32.6493H25.538L25.5926 32.3215H26.0969L27.0928 33.2426V33.5953H26.6516V33.3007L26.4247 33.504L26.9415 33.977L26.6978 34.2052L27.4206 34.869V35.3296L26.1977 34.2052L26.4415 33.977L25.9288 33.504L26.37 33.0974L26.0759 32.8319L25.5128 33.3464L24.2773 32.2261L25.5128 31.1059L26.0759 31.6245L26.37 31.3548L25.9288 30.9482L26.4415 30.4753L26.1977 30.2512L27.4206 29.1227ZM27.4206 31.359V33.0933L27.1348 32.807V32.4709H26.8323L26.5885 32.2261L26.8323 31.9855H27.1348V31.6453L27.4206 31.359ZM25.3363 31.973L25.3783 32.2095L25.3363 32.4502L25.0758 32.2095L25.3363 31.973Z" fill="#383739"/>
<path d="M27.4209 29.1724V29.5376L26.6477 30.2512L26.8914 30.4752L26.3746 30.9482L26.6855 31.2345V30.8901H27.0595V31.1972L26.0804 32.0975H25.6266L25.5804 31.8403H25.9165L25.5131 31.4668L24.6727 32.2261L25.5131 32.9854L25.9165 32.6161H25.5804L25.6267 32.3547H26.0805L27.0596 33.2551V33.5621H26.6856V33.2177L26.3747 33.504L26.8916 33.977L26.6478 34.2052L27.421 34.9147V35.2798L26.2486 34.2052L26.4923 33.977L25.9797 33.504L26.4209 33.0974L26.0763 32.7821L25.5132 33.3007L24.3324 32.2261L25.5132 31.1515L26.0763 31.6701L26.4209 31.3548L25.9797 30.9482L26.4923 30.4752L26.2486 30.2512L27.421 29.1724L27.4209 29.1724ZM27.4209 31.4088V33.0435L27.1688 32.7945V32.4336H26.8452L26.6351 32.2261L26.8452 32.0187H27.1688V31.6577L27.4209 31.4088ZM25.3114 32.0394L25.3408 32.2095L25.3114 32.3796L25.1265 32.2095L25.3114 32.0394Z" fill="#FFC72C"/>
<path d="M27.4206 37.9584V38.4189L26.6978 39.0869L26.9415 39.311L26.4247 39.784L26.6516 39.9873V39.6927H27.0928V40.0453L26.0969 40.9664H25.5926L25.538 40.6428H25.8279L25.5128 40.3524L24.7228 41.0619L25.5128 41.7755L25.8279 41.4851H25.538L25.5926 41.1573H26.0969L27.0928 42.0784V42.431H26.6516V42.1365L26.4247 42.3398L26.9415 42.8127L26.6978 43.0409L27.4206 43.7048V44.1653L26.1977 43.0409L26.4415 42.8127L25.9288 42.3398L26.37 41.9332L26.0759 41.6676L25.5128 42.1821L24.2773 41.0619L25.5128 39.9416L26.0759 40.4603L26.37 40.1906L25.9288 39.784L26.4415 39.311L26.1977 39.0869L27.4206 37.9584ZM27.4206 40.1947V41.929L27.1348 41.6427V41.3066H26.8323L26.5885 41.0619L26.8323 40.8212H27.1348V40.481L27.4206 40.1947ZM25.3363 40.8088L25.3783 41.0453L25.3363 41.2859L25.0758 41.0453L25.3363 40.8088Z" fill="#383739"/>
<path d="M27.4209 38.0082V38.3733L26.6477 39.0869L26.8914 39.311L26.3746 39.784L26.6855 40.0702V39.7259H27.0595V40.0329L26.0804 40.9332H25.6266L25.5804 40.676H25.9165L25.5131 40.3026L24.6727 41.0619L25.5131 41.8211L25.9165 41.4519H25.5804L25.6267 41.1905H26.0805L27.0596 42.0908V42.3978H26.6856V42.0535L26.3747 42.3397L26.8916 42.8127L26.6478 43.0409L27.421 43.7504V44.1155L26.2486 43.0409L26.4923 42.8127L25.9797 42.3397L26.4209 41.9331L26.0763 41.6178L25.5132 42.1364L24.3324 41.0619L25.5132 39.9873L26.0763 40.5059L26.4209 40.1906L25.9797 39.784L26.4923 39.311L26.2486 39.0869L27.421 38.0082L27.4209 38.0082ZM27.4209 40.2445V41.8792L27.1688 41.6303V41.2693H26.8452L26.6351 41.0619L26.8452 40.8544H27.1688V40.4934L27.4209 40.2445ZM25.3114 40.8752L25.3408 41.0453L25.3114 41.2154L25.1265 41.0453L25.3114 40.8752Z" fill="#FFC72C"/>
<path d="M15.6109 47.5812C15.6743 47.8481 15.8892 48.0496 15.9404 48.3264C16.043 48.0378 16.1375 47.7958 16.0669 47.4801C16.0164 47.2542 15.824 47.0932 15.8017 46.8611C15.592 47.0473 15.5468 47.3114 15.6109 47.5812ZM15.5577 48.6995C15.7357 48.9404 15.983 49.1252 16.2561 49.2483C16.2024 49.0374 16.3033 48.8785 16.4153 48.711C16.5502 48.5094 16.616 48.3113 16.506 48.0791C16.4547 48.1998 16.3859 48.3001 16.305 48.4033C16.1855 48.5643 16.1069 48.7075 16.0885 48.914C15.9503 48.8128 15.8895 48.6618 15.8156 48.5156C15.7029 48.3062 15.5211 48.1312 15.3122 48.0168C15.3677 48.2516 15.4104 48.5 15.5577 48.6995ZM16.5557 49.4175C16.5176 49.5513 16.4848 49.6839 16.4922 49.8237C16.3746 49.6987 16.2184 49.6045 16.0792 49.5037C15.8895 49.3523 15.6684 49.2454 15.5133 49.0525C15.5364 49.3364 15.6595 49.5679 15.8931 49.7406C16.14 49.9231 16.4379 50.0212 16.6811 50.2128C16.6447 49.9547 16.7408 49.7478 16.8227 49.5105C16.891 49.2837 16.8249 49.0535 16.6691 48.8807C16.6715 49.0722 16.6103 49.2367 16.5557 49.4175ZM17.1099 50.2896C17.1611 50.4854 17.3032 50.6448 17.4003 50.8195C17.1386 50.7393 16.9076 50.5992 16.671 50.4673C16.3892 50.3158 16.0833 50.2194 15.8282 50.0193C15.9551 50.4834 16.2698 50.7524 16.7301 50.8896C17.0448 50.9835 17.3101 50.9367 17.692 51.0891C17.6482 50.8338 17.571 50.5583 17.4488 50.3281C17.3539 50.1617 17.2487 49.9975 17.1901 49.8141C17.1052 49.9647 17.0651 50.1179 17.1099 50.2896ZM18.0729 50.9997C18.163 51.1521 18.282 51.2804 18.4295 51.3816C18.058 51.4049 17.759 51.1725 17.3968 51.1624C17.1731 51.1562 16.9607 51.2247 16.7325 51.2042C17.0033 51.3845 17.2867 51.542 17.6164 51.5841C18.0449 51.6389 18.4401 51.5324 18.9128 51.574C18.6919 51.4201 18.5814 51.2141 18.4437 50.9925C18.2643 50.7158 18.0951 50.5186 17.7463 50.4741C17.8863 50.6295 17.9678 50.8219 18.0729 50.9997ZM19.3924 51.6086C18.7379 51.7184 18.1107 51.8606 17.4422 51.8671C18.1905 52.1247 18.8955 52.1713 19.6376 51.9053C20.0387 51.7616 20.3462 51.6847 20.6491 51.7061C21.0917 51.7375 21.6297 51.91 22.2251 52.5299L22.4591 52.345C21.6058 51.5944 20.4893 51.4244 19.3925 51.6085L19.3924 51.6086Z" fill="#FFC72C"/>
<path d="M16.1763 11.5099L15.1464 10.8864V9.38743L16.1763 8.76388V7.97076L17.1495 7.39209H17.927L19.4065 6.57049H22.5826L24.0621 7.39209H24.8396L25.8128 7.97076V8.76388L26.8427 9.38743L26.8427 10.8864L25.8128 11.5099V12.303L24.8396 12.8817H24.0621L22.5826 13.7033H19.4065L17.927 12.8817H17.1495L16.1763 12.303V11.5099Z" fill="#383739"/>
<path d="M19.4134 6.60574L17.9342 7.42724H17.161L16.2113 7.9915V8.78396L15.1818 9.40632V10.8668L16.2113 11.4891V12.2857L17.1568 12.85H17.9342L19.4134 13.6715H22.5734L24.0526 12.85H24.83L25.7797 12.2857V11.4891L26.8092 10.8668V9.40632L25.7797 8.78396V7.9915L24.83 7.42724H24.0526L22.5734 6.60574H19.4134ZM19.5016 6.90861H22.4894L23.9686 7.73012H24.7418L25.4603 8.15747V8.94993L26.4941 9.57228V10.7008L25.4603 11.3232V12.1156L24.7418 12.543H23.9686L22.4894 13.3645H19.5016L18.0225 12.543H17.2493L16.5265 12.1156V11.3232L15.497 10.7008V9.57228L16.5265 8.94993V8.15747L17.2493 7.73012H18.0225L19.5016 6.90861Z" fill="#00843D"/>
<path d="M20.9775 10.1536V6.94131H19.5093L18.0298 7.76291H17.2585L16.5607 8.17778V8.96898L15.5309 9.59248V10.1201L21.0116 10.1201V13.3325H22.4798L23.9593 12.5109H24.7306L25.4283 12.096V11.3048L26.4582 10.6813V10.1537L20.9775 10.1536Z" fill="#FFC72C"/>
<path d="M15.5309 10.1537L15.5308 10.6813L16.5607 11.3048V12.096L17.2584 12.5108H18.0298L19.5092 13.3325H20.9775V10.12L26.4582 10.1201V9.59247L25.4283 8.96897V8.17777L24.7306 7.7629H23.9592L22.4797 6.9413H21.0115V10.1536L15.5309 10.1537Z" fill="white"/>
<path d="M17.7775 8.05863L17.5239 7.82533L17.2727 7.97826L17.5267 8.21204L17.2006 8.41151H17.9122L18.5254 8.98261L18.7216 8.77806L18.1253 8.22276V7.84582L17.7775 8.05863Z" fill="#383739"/>
<path d="M18.9774 7.95613L18.7239 7.72282L18.4727 7.87576L18.7266 8.10954L18.4006 8.30901H19.1121L19.7253 8.88011L19.9215 8.67556L19.3253 8.12026V7.74332L18.9774 7.95613Z" fill="#383739"/>
<path d="M17.6895 8.72881L17.4359 8.4955L17.1848 8.64844L17.4387 8.88221L17.1127 9.08168H17.8242L18.4374 9.65278L18.6336 9.44824L18.0373 8.89293V8.51599L17.6895 8.72881Z" fill="#383739"/>
<path d="M20.9945 6.9078H20.3524L20.0164 7.22749H19.3615L18.8775 7.47551L18.9904 7.74703L19.422 7.52322H19.611L20.2728 8.27888L20.9945 7.84493L20.9945 6.9078Z" fill="#383739"/>
<path d="M17.5197 7.86729L17.7475 8.07696L17.5566 8.19371L17.3285 7.98371L17.5197 7.86729ZM18.0914 7.90607V8.23718L18.6735 8.77937L18.524 8.93523L17.9257 8.37795H17.3199L18.0914 7.90607Z" fill="#D22630"/>
<path d="M18.7197 7.7648L18.9475 7.97446L18.7566 8.09121L18.5285 7.88122L18.7197 7.7648ZM19.2913 7.80357V8.13469L19.8734 8.67688L19.724 8.83273L19.1257 8.2755H18.5199L19.2913 7.80357Z" fill="#D22630"/>
<path d="M17.4318 8.53747L17.6595 8.74714L17.4687 8.86388L17.2405 8.65389L17.4318 8.53747ZM18.0034 8.57624V8.90736L18.5855 9.44955L18.4361 9.6054L17.8378 9.04817H17.2319L18.0034 8.57624Z" fill="#D22630"/>
<path d="M20.9775 6.9413H20.3662L20.0302 7.261H19.3698L18.9207 7.49111L19.0076 7.70017L19.4135 7.4897H19.6266L20.2797 8.2355L20.9775 7.81593L20.9775 6.9413Z" fill="#D22630"/>
<path d="M17.7775 12.2151L17.5239 12.4484L17.2727 12.2955L17.5267 12.0617L17.2006 11.8623H17.9122L18.5254 11.2912L18.7216 11.4957L18.1253 12.051V12.4279L17.7775 12.2151Z" fill="#383739"/>
<path d="M18.9774 12.3176L18.7239 12.5509L18.4727 12.398L18.7266 12.1642L18.4006 11.9648H19.1121L19.7253 11.3937L19.9215 11.5982L19.3253 12.1535V12.5304L18.9774 12.3176Z" fill="#383739"/>
<path d="M17.6895 11.545L17.4359 11.7783L17.1848 11.6253L17.4387 11.3916L17.1127 11.1921H17.8242L18.4374 10.621L18.6336 10.8255L18.0373 11.3808V11.7578L17.6895 11.545Z" fill="#383739"/>
<path d="M20.9945 13.366H20.3524L20.0164 13.0463H19.3615L18.8775 12.7983L18.9904 12.5267L19.422 12.7505H19.611L20.2728 11.9949L20.9945 12.4288L20.9945 13.366Z" fill="#383739"/>
<path d="M17.5197 12.4065L17.7475 12.1968L17.5566 12.0801L17.3285 12.2901L17.5197 12.4065ZM18.0914 12.3677V12.0366L18.6735 11.4944L18.524 11.3385L17.9257 11.8958H17.3199L18.0914 12.3677Z" fill="#D22630"/>
<path d="M18.7197 12.509L18.9475 12.2993L18.7566 12.1826L18.5285 12.3925L18.7197 12.509ZM19.2913 12.4702V12.1391L19.8734 11.5969L19.724 11.441L19.1257 11.9983H18.5199L19.2913 12.4702Z" fill="#D22630"/>
<path d="M17.4318 11.7363L17.6595 11.5266L17.4687 11.4099L17.2405 11.6199L17.4318 11.7363ZM18.0034 11.6975V11.3664L18.5855 10.8242L18.4361 10.6684L17.8378 11.2256H17.2319L18.0034 11.6975Z" fill="#D22630"/>
<path d="M20.9775 13.3325H20.3662L20.0302 13.0128H19.3698L18.9207 12.7827L19.0076 12.5736L19.4135 12.7841H19.6266L20.2797 12.0383L20.9775 12.4578L20.9775 13.3325Z" fill="#D22630"/>
<path d="M17.3495 9.11068L17.0434 8.99774L17.0361 9.00277L16.6408 9.27358V9.34639L16.0077 10.1369L16.6408 10.9274V11.0002L17.0434 11.276L17.3495 11.1631L17.1627 11.0409V10.8085L17.2369 10.7208H17.5687V9.55295H17.2369L17.1627 9.46525V9.23284L17.3495 9.11068Z" fill="#383739"/>
<path d="M16.6747 9.29108L17.0481 9.0353L17.2752 9.11906L17.1287 9.21484V9.47743L17.221 9.58647H17.5346V10.6873H17.221L17.1287 10.7963V11.0589L17.2752 11.1547L17.0481 11.2385L16.6747 10.9827L16.6748 10.9157L16.051 10.1369L16.6748 9.35801L16.6747 9.29108Z" fill="#D22630"/>
<path d="M24.2115 8.05863L24.465 7.82533L24.7162 7.97826L24.4623 8.21204L24.7884 8.41151H24.0768L23.4636 8.98261L23.2674 8.77806L23.8636 8.22276V7.84582L24.2115 8.05863Z" fill="#383739"/>
<path d="M23.0116 7.95613L23.2651 7.72282L23.5163 7.87576L23.2623 8.10954L23.5884 8.30901H22.8769L22.2636 8.88011L22.0675 8.67556L22.6637 8.12026V7.74332L23.0116 7.95613Z" fill="#383739"/>
<path d="M24.2995 8.72881L24.553 8.4955L24.8042 8.64844L24.5503 8.88221L24.8763 9.08168H24.1648L23.5516 9.65278L23.3554 9.44824L23.9516 8.89293V8.51599L24.2995 8.72881Z" fill="#383739"/>
<path d="M20.9945 6.9078H21.6366L21.9725 7.22749H22.6275L23.1115 7.47551L22.9986 7.74703L22.567 7.52322H22.378L21.7162 8.27888L20.9945 7.84493L20.9945 6.9078Z" fill="#383739"/>
<path d="M24.4693 7.86729L24.2415 8.07696L24.4323 8.19371L24.6605 7.98371L24.4693 7.86729ZM23.8976 7.90607V8.23718L23.3155 8.77937L23.465 8.93523L24.0633 8.37795H24.6691L23.8976 7.90607Z" fill="#D22630"/>
<path d="M23.2693 7.7648L23.0415 7.97446L23.2324 8.09121L23.4605 7.88122L23.2693 7.7648ZM22.6977 7.80357V8.13469L22.1155 8.67688L22.265 8.83273L22.8633 8.2755H23.4691L22.6977 7.80357Z" fill="#D22630"/>
<path d="M24.5572 8.53747L24.3294 8.74714L24.5203 8.86388L24.7484 8.65389L24.5572 8.53747ZM23.9856 8.57624V8.90736L23.4035 9.44955L23.5529 9.6054L24.1512 9.04817H24.757L23.9856 8.57624Z" fill="#D22630"/>
<path d="M21.0114 6.9413H21.6228L21.9588 7.261H22.6192L23.0683 7.49111L22.9814 7.70017L22.5754 7.4897H22.3624L21.7093 8.2355L21.0114 7.81593L21.0114 6.9413Z" fill="#D22630"/>
<path d="M24.2115 12.2151L24.465 12.4484L24.7162 12.2955L24.4623 12.0617L24.7884 11.8623H24.0768L23.4636 11.2912L23.2674 11.4957L23.8636 12.051V12.4279L24.2115 12.2151Z" fill="#383739"/>
<path d="M23.0116 12.3176L23.2651 12.5509L23.5163 12.398L23.2623 12.1642L23.5884 11.9648H22.8769L22.2636 11.3937L22.0675 11.5982L22.6637 12.1535V12.5304L23.0116 12.3176Z" fill="#383739"/>
<path d="M24.2995 11.545L24.553 11.7783L24.8042 11.6253L24.5503 11.3916L24.8763 11.1921H24.1648L23.5516 10.621L23.3554 10.8255L23.9516 11.3808V11.7578L24.2995 11.545Z" fill="#383739"/>
<path d="M20.9945 13.366H21.6366L21.9725 13.0463H22.6275L23.1115 12.7983L22.9986 12.5267L22.567 12.7505H22.378L21.7162 11.9949L20.9945 12.4288L20.9945 13.366Z" fill="#383739"/>
<path d="M24.4693 12.4065L24.2415 12.1968L24.4323 12.0801L24.6605 12.2901L24.4693 12.4065ZM23.8976 12.3677V12.0366L23.3155 11.4944L23.465 11.3385L24.0633 11.8958H24.6691L23.8976 12.3677Z" fill="#D22630"/>
<path d="M23.2693 12.509L23.0415 12.2993L23.2324 12.1826L23.4605 12.3925L23.2693 12.509ZM22.6977 12.4702V12.1391L22.1155 11.5969L22.265 11.441L22.8633 11.9983H23.4691L22.6977 12.4702Z" fill="#D22630"/>
<path d="M24.5572 11.7363L24.3294 11.5266L24.5203 11.4099L24.7484 11.6199L24.5572 11.7363ZM23.9856 11.6975V11.3664L23.4035 10.8242L23.5529 10.6684L24.1512 11.2256H24.757L23.9856 11.6975Z" fill="#D22630"/>
<path d="M21.0114 13.3325H21.6228L21.9588 13.0128H22.6192L23.0683 12.7827L22.9814 12.5736L22.5754 12.7841H22.3624L21.7093 12.0383L21.0114 12.4578L21.0114 13.3325Z" fill="#D22630"/>
<path d="M24.6395 9.11068L24.9456 8.99774L24.9529 9.00277L25.3482 9.27358V9.34639L25.9813 10.1369L25.3482 10.9274V11.0002L24.9456 11.276L24.6395 11.1631L24.8263 11.0409V10.8085L24.752 10.7208H24.4203V9.55295H24.752L24.8263 9.46525V9.23284L24.6395 9.11068Z" fill="#383739"/>
<path d="M25.3142 9.29108L24.9408 9.0353L24.7138 9.11906L24.8603 9.21484V9.47743L24.768 9.58647H24.4543V10.6873H24.768L24.8603 10.7963V11.0589L24.7138 11.1547L24.9408 11.2385L25.3142 10.9827L25.3142 10.9157L25.938 10.1369L25.3142 9.35801L25.3142 9.29108Z" fill="#D22630"/>
<path d="M16.806 10.8004L16.6336 10.6532V10.5822L16.2638 10.1369L16.6336 9.69152V9.6206L16.806 9.47335L17.1156 9.72193L16.9369 9.72057L17.201 9.98518H17.8043L18.2788 9.61881V8.65263H19.4656L20.8439 7.81754V7.59852L20.6331 7.45982H20.5663L20.3368 7.61149L20.3012 7.72462L20.1217 7.48257L20.4706 7.1931H20.5264L20.9202 6.90781H21.0687L21.4625 7.1931H21.5183L21.8673 7.48257L21.6877 7.72462L21.6522 7.61149L21.4226 7.45982H21.3558L21.1451 7.59852V7.81754L22.5233 8.65263H23.7101V9.61881L24.1846 9.98518H24.788L25.052 9.72057L24.8733 9.72193L25.1829 9.47335L25.3553 9.6206V9.69152L25.7251 10.1369L25.3553 10.5822V10.6532L25.1829 10.8004L24.8733 10.5519L25.052 10.5532L24.788 10.2886H24.1846L23.7101 10.655V11.6212H22.5233L21.1451 12.4563V12.6753L21.3558 12.814H21.4226L21.6522 12.6623L21.6877 12.5492L21.8673 12.7912L21.5183 13.0807H21.4625L21.0687 13.366H20.9202L20.5264 13.0807H20.4706L20.1216 12.7912L20.3012 12.5492L20.3368 12.6623L20.5663 12.814H20.6331L20.8439 12.6753V12.4563L19.4656 11.6212H18.2788V10.655L17.8043 10.2886H17.201L16.9369 10.5532L17.1156 10.5519L16.806 10.8004Z" fill="#383739"/>
<path d="M21.0115 12.84L21.1623 12.9539L21.0115 13.0677V12.84ZM20.532 13.0471H20.5376L20.9314 13.3324H20.9774V13.1099L20.7708 12.9539L20.9774 12.7979V12.3798L19.5026 11.4861H18.4124V10.5883L17.8495 10.1536H17.0004L16.787 10.3918L16.5736 10.1536L16.3217 10.1536L16.6675 10.5702V10.6378L16.8045 10.7553L17.0246 10.5861L16.8955 10.5871V10.5448L17.1834 10.255H17.816L18.3128 10.6386V11.5876H19.4752L20.8778 12.4375V12.6932L20.6433 12.8475H20.5559L20.3078 12.6835L20.2887 12.6227L20.1678 12.7857L20.483 13.0471L20.532 13.0471ZM16.7872 9.93256L16.9552 10.1201H16.6191L16.7872 9.93256ZM20.9775 7.206L20.8267 7.31988L20.9775 7.43371V7.206ZM25.0337 10.1536L25.2018 10.3412L25.3698 10.1536H25.0337ZM21.4513 7.22658L21.0575 6.94129H21.0115V7.16379L21.2182 7.31988L21.0115 7.47596V7.89398L22.4863 8.78759H23.5765V9.68548L24.1394 10.1201H24.9883L25.2018 9.88194L25.4152 10.1201H25.6672L25.3214 9.70358V9.63594L25.1844 9.51844L24.9642 9.68764L25.0934 9.68661V9.72896L24.8055 10.0187H24.1729L23.6761 9.63505V8.68612H22.5137L21.1111 7.83627V7.58054L21.3456 7.42628H21.433L21.6811 7.59022L21.7002 7.65104L21.8211 7.48804L21.5059 7.22658L21.4513 7.22658Z" fill="#FFC72C"/>
<path d="M20.9774 13.0677L20.8267 12.9539L20.9774 12.84V13.0677ZM16.9552 10.1537L16.7872 10.3412L16.6192 10.1537H16.9552ZM21.4569 13.0471H21.4513L21.0575 13.3325H21.0115V13.2742V13.11L21.2182 12.9539L21.0115 12.7978V12.3798L22.4863 11.4862H23.5765V10.5883L24.1394 10.1536H24.9884L25.2018 10.3919L25.4152 10.1536L25.6672 10.1537L25.3214 10.5702V10.6378L25.1844 10.7553L24.9642 10.5861L25.0934 10.5871V10.5448L24.8055 10.255H24.1729L23.6761 10.6387V11.5876H22.5137L21.1111 12.4375V12.6932L21.3456 12.8475H21.433L21.6811 12.6835L21.7001 12.6227L21.8211 12.7857L21.5059 13.0471L21.4569 13.0471ZM25.2018 9.93258L25.0337 10.1201H25.3699L25.2018 9.93258ZM20.5376 7.2266L20.9315 6.94131H20.9775V7.16381L20.7708 7.3199L20.9775 7.47599L20.9775 7.894L19.5027 8.78762H18.4125V9.6855L17.8495 10.1202H17.0004L16.787 9.88196L16.5736 10.1201H16.3217L16.6677 9.7036V9.63597L16.8047 9.51847L17.0247 9.68767L16.8955 9.68663V9.72898L17.1835 10.0187H17.8161L18.3129 9.63507V8.68614H19.4753L20.878 7.83629V7.58056L20.6435 7.42631H20.556L20.3079 7.59024L20.2888 7.65106L20.1679 7.48807L20.4831 7.2266L20.5376 7.2266ZM21.0115 7.43378L21.1623 7.3199L21.0115 7.20602V7.43378Z" fill="white"/>
<path d="M20.9775 10.1536V7.93329L19.5123 8.82112H18.4464V9.7018L17.9047 10.1201L21.0116 10.1201V12.3404L22.4767 11.4527H23.5426V10.572L24.0843 10.1537L20.9775 10.1536Z" fill="#00843D"/>
<path d="M17.9046 10.1537L18.4464 10.572V11.4526H19.5122L20.9775 12.3405V10.12L24.0843 10.1201L23.5426 9.7018V8.82111H22.4767L21.0115 7.93333V10.1536L17.9046 10.1537Z" fill="#D22630"/>
<path d="M19.4173 9.05998L19.1639 8.82667L18.9127 8.97956L19.1666 9.21334L18.8405 9.4128H19.5521L20.1653 9.98395L20.3615 9.77936L19.7653 9.22405V8.84716L19.4173 9.05998Z" fill="#383739"/>
<path d="M22.5714 11.2138L22.8249 11.4471L23.0761 11.2942L22.8222 11.0604L23.1483 10.861H22.4367L21.8235 10.2898L21.6273 10.4944L22.2235 11.0497V11.4266L22.5714 11.2138Z" fill="#383739"/>
<path d="M19.4173 11.2138L19.1638 11.4471L18.9127 11.2942L19.1666 11.0604L18.8405 10.861H19.5521L20.1653 10.2898L20.3614 10.4944L19.7652 11.0497V11.4266L19.4173 11.2138Z" fill="#383739"/>
<path d="M22.5714 9.05998L22.8249 8.82667L23.0761 8.97956L22.8222 9.21334L23.1483 9.4128H22.4367L21.8235 9.98395L21.6273 9.77936L22.2235 9.22405V8.84716L22.5714 9.05998Z" fill="#383739"/>
<path d="M22.8292 11.4051L22.6014 11.1955L22.7923 11.0787L23.0204 11.2887L22.8292 11.4051ZM22.2576 11.3664V11.0353L21.6754 10.4931L21.8249 10.3372L22.4232 10.8945H23.029L22.2576 11.3664ZM19.1597 8.86859L19.3875 9.07826L19.1966 9.19505L18.9685 8.98506L19.1597 8.86859ZM19.7313 8.90741V9.23848L20.3135 9.78067L20.164 9.93657L19.5657 9.37929H18.9599L19.7313 8.90741Z" fill="#D22630"/>
<path d="M22.8292 8.86859L22.6014 9.07826L22.7923 9.19505L23.0204 8.98506L22.8292 8.86859ZM22.2576 8.90741V9.23848L21.6754 9.78067L21.8249 9.93657L22.4232 9.37929H23.029L22.2576 8.90741ZM19.1597 11.4051L19.3875 11.1955L19.1966 11.0787L18.9685 11.2887L19.1597 11.4051ZM19.7313 11.3664V11.0353L20.3134 10.4931L20.164 10.3372L19.5657 10.8945H18.9599L19.7313 11.3664Z" fill="#00843D"/>
<path d="M22.5701 10.1369L20.9945 11.1737L19.4189 10.1369L20.9945 9.10011L22.5701 10.1369Z" fill="#383739"/>
<path d="M20.9775 9.15157L19.5057 10.1201H22.4834L21.0115 9.15157V11.1222L22.4834 10.1537H19.5056L20.9775 11.1222V9.15157Z" fill="white"/>
<path d="M21.4159 10.4934V10.7785H20.5733V10.4934H20.0279V9.78034H20.5733V9.49529H21.4159V9.78034H21.9611V10.4934H21.4159Z" fill="#383739"/>
<path d="M20.6073 9.52879V9.81385H20.062V10.1201H20.9776V9.52879L20.6073 9.52879ZM21.0116 10.1201H21.9272V9.81385H21.3819V9.52879H21.0116L21.0116 10.1201ZM20.062 10.1537V10.4599H20.6073V10.745H20.9776V10.1537L20.062 10.1537ZM21.0116 10.745H21.3819V10.4599H21.9272V10.1537H21.0116V10.745Z" fill="#D22630"/>
<path d="M23.6824 21.9495V21.4928H24.9509V21.0361H26.2193V16.9094H24.9509V16.4527H23.6824V15.996H22.414V15.5393H19.5751V15.996H18.3066V16.4527H17.0381V16.9094H15.7697V21.0361H17.0381V21.4928H18.3066V21.9495H19.5751V22.4061H22.414V21.9495H23.6824Z" fill="#383739"/>
<path d="M19.6109 15.5718V16.0282H18.3418V16.4846H17.0728V16.9409H15.8037V21.0028H17.0728V21.4593H18.3418V21.9156H19.6109V22.3719H22.3801V21.9156H23.6492V21.4593H24.9183V21.0028H26.1873V16.9409H24.9183V16.4846H23.6492V16.0282H22.3801V15.5718H19.6109ZM19.9471 15.9037H22.0439V16.3601H23.313V16.8165H24.5821V17.2729H25.8511V20.6709H24.5821V21.1274H23.313V21.5837H22.0439V22.04H19.9471V21.5837H18.678V21.1274H17.409V20.6709H16.1399V17.2729H17.409V16.8165H18.678V16.3601H19.9471V15.9037Z" fill="#FFC72C"/>
<path d="M18.7106 21.5507V21.0939H17.4421V20.6373H16.1736V17.3081H17.4421V16.8514H18.7106V16.3947H19.979V15.938H22.0101V16.3947H23.2786V16.8514H24.547V17.3081H25.8155V20.6373H24.547V21.0939H23.2786V21.5507H22.0101V22.0073H19.979V21.5507H18.7106Z" fill="#D22630"/>
<path d="M19.005 16.7328L18.6765 16.4876V16.9584L18.3619 17.1558L18.3611 16.8611L18.0593 17.1287L17.7576 16.8611L17.7568 17.1558L17.4081 16.9371V17.3736L17.1264 17.575L17.1256 17.3073L16.7908 17.5467L16.4561 17.3073L16.4553 17.575L16.1396 17.3493V18.6717H15.7697V19.2736H16.1396V20.596L16.4553 20.3703L16.4561 20.638L16.7908 20.3986L17.1255 20.638L17.1263 20.3703L17.4081 20.5717V21.0083L17.7567 20.7895L17.7575 21.0843L18.0593 20.8166L18.361 21.0843L18.3619 20.7895L18.6765 20.9869V21.4578L19.005 21.2126L19.0057 21.5414L19.3277 21.2571L19.6497 21.5414L19.6504 21.2126L19.945 21.4324V21.9346L20.3854 21.5382V22.004L20.9945 21.6173L21.6037 22.004V21.5382L22.0441 21.9346V21.4324L22.3386 21.2126L22.3394 21.5414L22.6614 21.2571L22.9834 21.5414L22.9841 21.2126L23.3126 21.4578V20.9869L23.6273 20.7895L23.6281 21.0843L23.9299 20.8166L24.2316 21.0843L24.2324 20.7895L24.5811 21.0083V20.5717L24.8629 20.3703L24.8637 20.638L25.1984 20.3986L25.5331 20.638L25.5339 20.3703L25.8496 20.596V19.2736H26.2195V18.6717H25.8496V17.3493L25.5339 17.575L25.5331 17.3073L25.1984 17.5467L24.8636 17.3073L24.8629 17.575L24.5811 17.3736V16.9371L24.2325 17.1558L24.2317 16.8611L23.9299 17.1287L23.6281 16.8611L23.6273 17.1558L23.3126 16.9584V16.4876L22.9842 16.7327L22.9835 16.4039L22.6614 16.6882L22.3394 16.4039L22.3387 16.7328L22.0442 16.5129V16.0107L21.6037 16.4071V15.9413L20.9946 16.328L20.3855 15.9413V16.4071L19.945 16.0107V16.5129L19.6505 16.7328L19.6498 16.4039L19.3277 16.6882L19.0058 16.4039L19.005 16.7328Z" fill="#383739"/>
<path d="M16.4892 17.6406L16.49 17.3729L16.7909 17.5881L16.801 17.5809L17.0918 17.3729L17.0926 17.6406L17.4082 17.4151V20.5303L17.0926 20.3047L17.0918 20.5724L16.7909 20.3572L16.49 20.5724L16.4892 20.3047L16.1736 20.5303V19.2401H15.8037V18.7053H16.1736V17.4151L16.4892 17.6406Z" fill="#00843D"/>
<path d="M19.0396 16.4788L19.3278 16.7333L19.6159 16.4788L19.6167 16.8001L19.945 16.555V21.3904L19.6167 21.1452L19.6159 21.4666L19.3278 21.2121L19.0396 21.4666L19.0389 21.1452L18.7106 21.3904V16.555L19.0389 16.8001L19.0396 16.4788Z" fill="#00843D"/>
<path d="M22.9496 16.4788L22.6614 16.7333L22.3732 16.4788L22.3725 16.8001L22.0442 16.555V21.3904L22.3725 21.1452L22.3732 21.4666L22.6614 21.2121L22.9496 21.4666L22.9503 21.1452L23.2787 21.3904V16.555L22.9503 16.8001L22.9496 16.4788Z" fill="#00843D"/>
<path d="M25.5 17.6406L25.4992 17.3729L25.1983 17.5881L25.1881 17.5809L24.8974 17.3729L24.8966 17.6406L24.581 17.4151V20.5303L24.8966 20.3047L24.8974 20.5724L25.1983 20.3572L25.4992 20.5724L25.5 20.3047L25.8156 20.5303V19.2401H26.1854V18.7053H25.8156V17.4151L25.5 17.6406Z" fill="#00843D"/>
<path d="M17.7913 16.9362L18.0593 17.1739L18.3272 16.9362L18.328 17.2169L18.6765 16.9982V20.9472L18.328 20.7285L18.3272 21.0092L18.0593 20.7715L17.7913 21.0092L17.7905 20.7285L17.442 20.9472V16.9982L17.7905 17.2169L17.7913 16.9362Z" fill="#FFC72C"/>
<path d="M20.4194 16.4831L19.979 16.0868V21.8586L20.4194 21.4622V21.9425L20.9945 21.5774H20.9946L21.5697 21.9425V21.4622L22.0101 21.8586V16.0868L21.5697 16.4831V16.0028L20.9946 16.3679H20.9945L20.4194 16.0028V16.4831Z" fill="#FFC72C"/>
<path d="M24.1978 16.9362L23.9299 17.1739L23.6619 16.9362L23.6611 17.2169L23.3126 16.9982V20.9472L23.6611 20.7285L23.6619 21.0092L23.9299 20.7715L24.1978 21.0092L24.1986 20.7285L24.5471 20.9472V16.9982L24.1986 17.2169L24.1978 16.9362Z" fill="#FFC72C"/>
<path d="M16.654 18.4053C16.6925 18.4437 16.7386 18.4631 16.7908 18.4631C16.8431 18.4631 16.8891 18.4437 16.9277 18.4053C17.0481 18.2855 17.0522 18.0687 17.051 17.9127C17.051 17.9127 16.9117 18.0581 16.8866 18.0843C16.8691 18.0544 16.7908 17.9211 16.7908 17.9211C16.7908 17.9211 16.7126 18.0544 16.6951 18.0843C16.6699 18.0581 16.5307 17.9127 16.5307 17.9127C16.5295 18.0687 16.5336 18.2855 16.654 18.4053Z" fill="#383739"/>
<path d="M17.9772 18.0696L17.8757 17.9695V17.77L17.6427 17.9833L18.0593 18.3947L18.4759 17.9833L18.2428 17.77V17.9695L18.1414 18.0696V17.7162L18.3211 17.5639L18.0593 17.3419L17.7975 17.5639L17.9772 17.7162V18.0696Z" fill="#383739"/>
<path d="M19.2456 17.6732L19.1441 17.5731V17.3736L18.9111 17.5869L19.3277 17.9982L19.7443 17.5869L19.5112 17.3736V17.5731L19.4098 17.6732V17.3198L19.5895 17.1675L19.3277 16.9455L19.0659 17.1675L19.2456 17.3198V17.6732Z" fill="#383739"/>
<path d="M16.7909 17.9881C16.8117 18.0235 16.88 18.14 16.88 18.14C16.88 18.14 16.9763 18.0395 17.0156 17.9986C17.0109 18.1747 16.9717 18.3139 16.9036 18.3816C16.8716 18.4134 16.8337 18.4295 16.7909 18.4295C16.748 18.4295 16.7101 18.4134 16.6782 18.3817C16.6101 18.3139 16.5709 18.1747 16.5662 17.9986C16.6055 18.0396 16.7017 18.14 16.7017 18.14C16.7315 18.0893 16.7612 18.0387 16.7909 17.9881Z" fill="white"/>
<path d="M19.3759 17.3044V17.7543L19.5453 17.5871V17.4506L19.6954 17.5879L19.3278 17.9508L18.9601 17.5879L19.1102 17.4506V17.5871L19.2797 17.7543V17.3044L19.1181 17.1675L19.3278 16.9898L19.5374 17.1675L19.3759 17.3044Z" fill="white"/>
<path d="M18.1074 17.7008V18.1507L18.2769 17.9834V17.8469L18.4269 17.9842L18.0593 18.3472L17.6917 17.9842L17.8418 17.8469V17.9834L18.0112 18.1507V17.7008L17.8497 17.5639L18.0593 17.3862L18.2689 17.5639L18.1074 17.7008Z" fill="#D22630"/>
<path d="M25.3351 18.4053C25.2966 18.4437 25.2506 18.4631 25.1983 18.4631C25.1461 18.4631 25.1 18.4437 25.0615 18.4053C24.941 18.2855 24.937 18.0687 24.9381 17.9127C24.9381 17.9127 25.0774 18.0581 25.1026 18.0843C25.1201 18.0544 25.1983 17.9211 25.1983 17.9211C25.1983 17.9211 25.2765 18.0544 25.2941 18.0843C25.3192 18.0581 25.4585 17.9127 25.4585 17.9127C25.4597 18.0687 25.4556 18.2855 25.3351 18.4053Z" fill="#383739"/>
<path d="M24.0119 18.0696L24.1134 17.9695V17.77L24.3465 17.9833L23.9299 18.3947L23.5132 17.9833L23.7463 17.77V17.9695L23.8477 18.0696V17.7162L23.668 17.5639L23.9299 17.3419L24.1917 17.5639L24.0119 17.7162V18.0696Z" fill="#383739"/>
<path d="M22.7436 17.6732L22.845 17.5731V17.3736L23.0781 17.5869L22.6614 17.9982L22.2448 17.5869L22.4779 17.3736V17.5731L22.5794 17.6732V17.3198L22.3996 17.1675L22.6614 16.9455L22.9233 17.1675L22.7436 17.3198V17.6732Z" fill="#383739"/>
<path d="M25.1982 17.9881C25.1774 18.0235 25.1091 18.14 25.1091 18.14C25.1091 18.14 25.0129 18.0395 24.9735 17.9986C24.9783 18.1747 25.0174 18.3139 25.0856 18.3816C25.1175 18.4134 25.1554 18.4295 25.1982 18.4295C25.2411 18.4295 25.279 18.4134 25.3109 18.3817C25.379 18.3139 25.4182 18.1747 25.4229 17.9986C25.3836 18.0396 25.2874 18.14 25.2874 18.14C25.2577 18.0893 25.2279 18.0387 25.1982 17.9881Z" fill="white"/>
<path d="M22.6133 17.3044V17.7543L22.4438 17.5871V17.4506L22.2938 17.5879L22.6614 17.9508L23.029 17.5879L22.8789 17.4506V17.5871L22.7095 17.7543V17.3044L22.871 17.1675L22.6614 16.9898L22.4518 17.1675L22.6133 17.3044Z" fill="white"/>
<path d="M23.8817 17.7008V18.1507L23.7122 17.9834V17.8469L23.5622 17.9842L23.9298 18.3472L24.2974 17.9842L24.1474 17.8469V17.9834L23.9779 18.1507V17.7008L24.1394 17.5639L23.9298 17.3862L23.7202 17.5639L23.8817 17.7008Z" fill="#D22630"/>
<path d="M21.4931 17.8234L21.3566 17.6372L21.7066 17.3182L21.3803 17.0535V17.241L21.2438 17.3563V17.0162L21.5521 16.7918L20.9944 16.386L20.4368 16.7918L20.7451 17.0162V17.3563L20.6086 17.241V17.0535L20.2823 17.3182L20.6323 17.6372L20.4958 17.8234H21.4931Z" fill="#383739"/>
<path d="M20.5625 17.7899L20.6776 17.6328L20.3342 17.3197L20.5747 17.1246V17.2565L20.7792 17.4293V16.9992L20.4942 16.7919L20.9946 16.4278L21.4949 16.7919L21.21 16.9992V17.4293L21.4144 17.2565V17.1246L21.655 17.3197L21.3115 17.6328L21.4267 17.7899H20.5625Z" fill="#D22630"/>
<path d="M20.7397 16.7919L20.9945 16.9773L21.2493 16.7919L20.9945 16.6064L20.9844 16.6138L20.7397 16.7919Z" fill="#383739"/>
<path d="M20.9945 16.6482C21.0114 16.6604 21.1622 16.7702 21.192 16.7919C21.1622 16.8136 21.0114 16.9234 20.9945 16.9356C20.9777 16.9234 20.8267 16.8136 20.797 16.7919C20.8267 16.7702 20.9777 16.6604 20.9945 16.6482Z" fill="#00843D"/>
<path d="M16.654 19.5399C16.6925 19.5016 16.7386 19.4822 16.7908 19.4822C16.8431 19.4822 16.8891 19.5016 16.9277 19.5399C17.0481 19.6598 17.0522 19.8766 17.051 20.0326C17.051 20.0326 16.9117 19.8872 16.8866 19.861C16.8691 19.8909 16.7908 20.0242 16.7908 20.0242C16.7908 20.0242 16.7126 19.8909 16.6951 19.861C16.6699 19.8872 16.5307 20.0326 16.5307 20.0326C16.5295 19.8766 16.5336 19.6598 16.654 19.5399Z" fill="#383739"/>
<path d="M17.9772 19.8757L17.8757 19.9758V20.1753L17.6427 19.962L18.0593 19.5506L18.4759 19.962L18.2428 20.1753V19.9758L18.1414 19.8757V20.2291L18.3211 20.3814L18.0593 20.6034L17.7975 20.3814L17.9772 20.2291V19.8757Z" fill="#383739"/>
<path d="M19.2456 20.2721L19.1441 20.3722V20.5717L18.9111 20.3584L19.3277 19.947L19.7443 20.3584L19.5112 20.5717V20.3722L19.4098 20.2721V20.6255L19.5895 20.7778L19.3277 20.9998L19.0659 20.7778L19.2456 20.6255V20.2721Z" fill="#383739"/>
<path d="M16.7909 19.9572C16.8117 19.9218 16.88 19.8053 16.88 19.8053C16.88 19.8053 16.9763 19.9058 17.0156 19.9467C17.0109 19.7705 16.9717 19.6314 16.9036 19.5637C16.8716 19.5319 16.8337 19.5158 16.7909 19.5158C16.748 19.5158 16.7101 19.5319 16.6782 19.5636C16.6101 19.6314 16.5709 19.7705 16.5662 19.9467C16.6055 19.9057 16.7017 19.8053 16.7017 19.8053C16.7315 19.8559 16.7612 19.9066 16.7909 19.9572Z" fill="white"/>
<path d="M19.3759 20.6408V20.191L19.5453 20.3582V20.4947L19.6954 20.3574L19.3278 19.9945L18.9601 20.3574L19.1102 20.4947V20.3582L19.2797 20.191V20.6408L19.1181 20.7778L19.3278 20.9555L19.5374 20.7778L19.3759 20.6408Z" fill="white"/>
<path d="M18.1074 20.2445V19.7946L18.2769 19.9619V20.0984L18.4269 19.9611L18.0593 19.5981L17.6917 19.9611L17.8418 20.0984V19.9619L18.0112 19.7946V20.2445L17.8497 20.3814L18.0593 20.5591L18.2689 20.3814L18.1074 20.2445Z" fill="#D22630"/>
<path d="M25.3351 19.5399C25.2966 19.5016 25.2506 19.4822 25.1983 19.4822C25.1461 19.4822 25.1 19.5016 25.0615 19.5399C24.941 19.6598 24.937 19.8766 24.9381 20.0326C24.9381 20.0326 25.0774 19.8872 25.1026 19.861C25.1201 19.8909 25.1983 20.0242 25.1983 20.0242C25.1983 20.0242 25.2765 19.8909 25.2941 19.861C25.3192 19.8872 25.4585 20.0326 25.4585 20.0326C25.4597 19.8766 25.4556 19.6598 25.3351 19.5399Z" fill="#383739"/>
<path d="M24.0119 19.8757L24.1134 19.9758V20.1753L24.3465 19.962L23.9299 19.5506L23.5132 19.962L23.7463 20.1753V19.9758L23.8477 19.8757V20.2291L23.668 20.3814L23.9299 20.6034L24.1917 20.3814L24.0119 20.2291V19.8757Z" fill="#383739"/>
<path d="M22.7436 20.2721L22.845 20.3722V20.5717L23.0781 20.3584L22.6614 19.947L22.2448 20.3584L22.4779 20.5717V20.3722L22.5794 20.2721V20.6255L22.3996 20.7778L22.6614 20.9998L22.9233 20.7778L22.7436 20.6255V20.2721Z" fill="#383739"/>
<path d="M25.1982 19.9572C25.1774 19.9218 25.1091 19.8053 25.1091 19.8053C25.1091 19.8053 25.0129 19.9058 24.9735 19.9467C24.9783 19.7705 25.0174 19.6314 25.0856 19.5637C25.1175 19.5319 25.1554 19.5158 25.1982 19.5158C25.2411 19.5158 25.279 19.5319 25.3109 19.5636C25.379 19.6314 25.4182 19.7705 25.4229 19.9467C25.3836 19.9057 25.2874 19.8053 25.2874 19.8053C25.2577 19.8559 25.2279 19.9066 25.1982 19.9572Z" fill="white"/>
<path d="M22.6133 20.6408V20.191L22.4438 20.3582V20.4947L22.2938 20.3574L22.6614 19.9945L23.029 20.3574L22.8789 20.4947V20.3582L22.7095 20.191V20.6408L22.871 20.7778L22.6614 20.9555L22.4518 20.7778L22.6133 20.6408Z" fill="white"/>
<path d="M23.8817 20.2445V19.7946L23.7122 19.9619V20.0984L23.5622 19.9611L23.9298 19.5981L24.2974 19.9611L24.1474 20.0984V19.9619L23.9779 19.7946V20.2445L24.1394 20.3814L23.9298 20.5591L23.7202 20.3814L23.8817 20.2445Z" fill="#D22630"/>
<path d="M21.4931 20.1219L21.3566 20.3081L21.7066 20.6271L21.3803 20.8918V20.7043L21.2438 20.589V20.9291L21.5521 21.1534L20.9944 21.5593L20.4368 21.1534L20.7451 20.9291V20.589L20.6086 20.7043V20.8918L20.2823 20.6271L20.6323 20.3081L20.4958 20.1219H21.4931Z" fill="#383739"/>
<path d="M20.5625 20.1554L20.6776 20.3125L20.3342 20.6256L20.5747 20.8207V20.6888L20.7792 20.516V20.946L20.4942 21.1534L20.9946 21.5175L21.4949 21.1534L21.21 20.946V20.516L21.4144 20.6888V20.8207L21.655 20.6256L21.3115 20.3125L21.4267 20.1554H20.5625Z" fill="#D22630"/>
<path d="M20.7397 21.1534L20.9945 20.968L21.2493 21.1534L20.9945 21.3388L20.9844 21.3315L20.7397 21.1534Z" fill="#383739"/>
<path d="M20.9945 21.2971C21.0114 21.2849 21.1622 21.1751 21.192 21.1534C21.1622 21.1317 21.0114 21.0219 20.9945 21.0097C20.9777 21.0219 20.8267 21.1317 20.797 21.1534C20.8267 21.1751 20.9777 21.2849 20.9945 21.2971Z" fill="#00843D"/>
<path d="M25.5092 18.7801H24.9509V18.5604H23.2443L22.0563 17.7899H22.0512H19.9328L18.7449 18.5604H17.0382V18.7801H16.4799V19.1653H17.0382V19.385H18.7449L19.9328 20.1555H22.0563L23.2443 19.385H24.9509V19.1653H25.5092V18.7801Z" fill="#383739"/>
<path d="M19.9429 17.8247L18.7537 18.5922H17.0728V18.8121H16.5139V19.1316H17.0728V19.3515H18.7537L19.9429 20.1232H22.0482L23.2332 19.3515H24.9183V19.1316H25.4771V18.8121H24.9183V18.5922H23.2332L22.0482 17.8247H19.9429ZM19.9681 17.9367H22.0188L23.1071 18.642V18.7499H24.3216V19.198H23.1071V19.3058L22.0188 20.007H19.9681L18.8839 19.3058V19.198H17.6653V18.7499H18.8839V18.642L19.9681 17.9367Z" fill="#D22630"/>
<path d="M22.0102 17.9714L23.0716 18.6594V18.7815H24.288V19.1638H23.0716V19.286L22.0102 19.974H19.9788L18.9173 19.286V19.1638H17.701V18.7815H18.9173V18.6594L19.9788 17.9714H22.0102Z" fill="#D22630"/>
<path d="M19.4517 19.3635L19.9113 19.7042L20.2136 19.48L20.0379 19.3497L19.9113 19.4436L19.8033 19.3635L21.534 18.0805H21.1825L19.4517 19.3635ZM20.4549 19.8649H20.8064L22.5373 18.5819L22.0777 18.2413L21.7753 18.4654L21.9511 18.5956L22.0777 18.5018L22.1858 18.5819L20.4549 19.8649ZM21.1825 19.8649H21.534L19.8033 18.5819L19.9113 18.5018L20.0379 18.5956L20.2136 18.4654L19.9113 18.2413L19.4517 18.5819L21.1825 19.8649ZM22.1858 19.3635L22.0777 19.4436L21.9511 19.3497L21.7753 19.48L22.0777 19.7042L22.5373 19.3635L20.8064 18.0805H20.4549L22.1858 19.3635Z" fill="#383739"/>
<path d="M19.1037 18.9727L19.4126 19.1753L19.7215 18.9727L19.4126 18.7701L19.1037 18.9727Z" fill="#383739"/>
<path d="M20.6856 18.9727L20.9945 19.1753L21.3034 18.9727L20.9945 18.7701L20.6856 18.9727Z" fill="#383739"/>
<path d="M22.8855 18.9727L22.5766 19.1753L22.2677 18.9727L22.5766 18.7701L22.8855 18.9727Z" fill="#383739"/>
<path d="M22.4807 19.3635L22.0778 19.6622L21.832 19.48L21.9511 19.3917L22.0778 19.4856L22.2424 19.3635L20.5569 18.1141H20.7952L22.4807 19.3635ZM21.4321 19.8313H21.1939L19.5084 18.5819L19.9114 18.2832L20.1571 18.4654L20.038 18.5537L19.9114 18.4598L19.7467 18.5819L21.4321 19.8313ZM20.7952 19.8313H20.5569L22.2424 18.5819L22.0778 18.4598L21.9511 18.5537L21.832 18.4654L22.0778 18.2832L22.4807 18.5819L20.7952 19.8313ZM21.1939 18.1141H21.4321L19.7467 19.3635L19.9114 19.4856L20.038 19.3917L20.1571 19.48L19.9114 19.6622L19.5084 19.3635L21.1939 18.1141Z" fill="#FFC72C"/>
<path d="M19.4125 18.8105L19.66 18.9727L19.4125 19.135L19.1651 18.9727L19.4125 18.8105Z" fill="#00843D"/>
<path d="M20.9946 18.8105L21.242 18.9727L20.9946 19.135L20.7472 18.9727L20.9946 18.8105Z" fill="#00843D"/>
<path d="M22.5767 18.8105L22.3292 18.9727L22.5767 19.135L22.824 18.9727L22.5767 18.8105Z" fill="#00843D"/>
<path d="M15.5612 27.4752L15.44 27.6444L15.6573 27.8084L15.44 27.9725L15.5612 28.1418L15.8136 28.1707L16.0581 27.9842L16.6675 28.3665V28.049L16.2839 27.8084L16.6675 27.5679V27.2505L16.0581 27.6327L15.8136 27.4463L15.5612 27.4752Z" fill="#383739"/>
<path d="M15.5612 26.3724L15.44 26.5417L15.6573 26.7057L15.44 26.8697L15.5612 27.039L15.8136 27.0679L16.0581 26.8814L16.6675 27.2637V26.9463L16.2839 26.7057L16.6675 26.4651V26.1477L16.0581 26.5299L15.8136 26.3435L15.5612 26.3724Z" fill="#383739"/>
<path d="M15.5612 29.2446L15.44 29.0753L15.6573 28.9113L15.44 28.7472L15.5612 28.5779L15.8136 28.549L16.0581 28.7355L16.6675 28.3532V28.6707L16.2839 28.9113L16.6675 29.1518V29.4693L16.0581 29.087L15.8136 29.2735L15.5612 29.2446Z" fill="#383739"/>
<path d="M26.4279 27.4752L26.5491 27.6444L26.3319 27.8084L26.5491 27.9725L26.4279 28.1418L26.1755 28.1707L25.9311 27.9842L25.3216 28.3665V28.049L25.7052 27.8084L25.3216 27.5679V27.2505L25.9311 27.6327L26.1755 27.4463L26.4279 27.4752Z" fill="#383739"/>
<path d="M26.4279 26.3724L26.5491 26.5417L26.3319 26.7057L26.5491 26.8697L26.4279 27.039L26.1755 27.0679L25.9311 26.8814L25.3216 27.2637V26.9463L25.7052 26.7057L25.3216 26.4651V26.1477L25.9311 26.5299L26.1755 26.3435L26.4279 26.3724Z" fill="#383739"/>
<path d="M26.4279 29.2446L26.5491 29.0753L26.3319 28.9113L26.5491 28.7472L26.4279 28.5779L26.1755 28.549L25.9311 28.7355L25.3216 28.3532V28.6707L25.7052 28.9113L25.3216 29.1518V29.4693L25.9311 29.087L26.1755 29.2735L26.4279 29.2446Z" fill="#383739"/>
<path d="M23.9879 24.4655V24.9242H24.3258V25.1269H24.6578V24.7578H24.3617V24.4655H23.9879Z" fill="#383739"/>
<path d="M24.984 25.1889V25.6476H25.3216V25.8504H25.6539V25.4812H25.3579V25.1889H24.984Z" fill="#383739"/>
<path d="M18.0013 24.4655V24.9242H17.6632V25.1269H17.3314V24.7578H17.6274V24.4655H18.0013Z" fill="#383739"/>
<path d="M23.9879 31.1515V30.6928H24.3258V30.4901H24.6578V30.8592H24.3617V31.1515H23.9879Z" fill="#383739"/>
<path d="M18.0013 31.1515V30.6928H17.6632V30.4901H17.3314V30.8592H17.6274V31.1515H18.0013Z" fill="#383739"/>
<path d="M24.984 30.4281V29.9694H25.3216V29.7667H25.6539V30.1358H25.3579V30.4281H24.984Z" fill="#383739"/>
<path d="M17.0052 25.1889V25.6476H16.6675V25.8504H16.3353V25.4812H16.6313V25.1889H17.0052Z" fill="#383739"/>
<path d="M17.0052 30.4281V29.9694H16.6675V29.7667H16.3353V30.1358H16.6313V30.4281H17.0052Z" fill="#383739"/>
<path d="M22.2445 24.4549C22.223 24.4342 21.9866 24.2076 21.9866 24.2076L21.7333 24.4394C21.7333 24.4394 21.9318 24.6296 21.9541 24.651L21.6691 24.9243H22.0923L22.2445 24.7783L22.3968 24.9243H22.8199L22.5349 24.651C22.5572 24.6296 22.7557 24.4394 22.7557 24.4394L22.5024 24.2076C22.4163 24.2899 22.3305 24.3724 22.2445 24.4549Z" fill="#383739"/>
<path d="M20.9946 24.4549C20.9731 24.4342 20.7367 24.2076 20.7367 24.2076L20.4834 24.4394C20.4834 24.4394 20.6818 24.6296 20.7042 24.651L20.4192 24.9243H20.8423L20.9946 24.7783L21.1469 24.9243H21.57L21.285 24.651C21.3073 24.6296 21.5058 24.4394 21.5058 24.4394L21.2525 24.2076C21.1664 24.2899 21.0805 24.3724 20.9946 24.4549Z" fill="#383739"/>
<path d="M19.7447 24.4549C19.7663 24.4342 20.0026 24.2076 20.0026 24.2076L20.2559 24.4394C20.2559 24.4394 20.0574 24.6296 20.0351 24.651L20.3202 24.9243H19.897L19.7447 24.7783L19.5924 24.9243H19.1693L19.4543 24.651C19.432 24.6296 19.2335 24.4394 19.2335 24.4394L19.4868 24.2076C19.5729 24.2899 19.6588 24.3724 19.7447 24.4549Z" fill="#383739"/>
<path d="M22.2445 31.1622C22.223 31.1828 21.9866 31.4093 21.9866 31.4093L21.7333 31.1776C21.7333 31.1776 21.9318 30.9874 21.9541 30.966L21.6691 30.6928H22.0923L22.2445 30.8387L22.3968 30.6928H22.8199L22.5349 30.966C22.5572 30.9874 22.7557 31.1776 22.7557 31.1776L22.5024 31.4093C22.4163 31.327 22.3305 31.2445 22.2445 31.1622Z" fill="#383739"/>
<path d="M20.9946 31.1622C20.9731 31.1828 20.7367 31.4093 20.7367 31.4093L20.4834 31.1776C20.4834 31.1776 20.6818 30.9874 20.7042 30.966L20.4192 30.6928H20.8423L20.9946 30.8387L21.1469 30.6928H21.57L21.285 30.966C21.3073 30.9874 21.5058 31.1776 21.5058 31.1776L21.2525 31.4093C21.1664 31.327 21.0805 31.2445 20.9946 31.1622Z" fill="#383739"/>
<path d="M19.7447 31.1622C19.7663 31.1828 20.0026 31.4093 20.0026 31.4093L20.2559 31.1776C20.2559 31.1776 20.0574 30.9874 20.0351 30.966L20.3202 30.6928H19.897L19.7447 30.8387L19.5924 30.6928H19.1693L19.4543 30.966C19.432 30.9874 19.2335 31.1776 19.2335 31.1776L19.4868 31.4093C19.5729 31.327 19.6588 31.2445 19.7447 31.1622Z" fill="#383739"/>
<path d="M16.6335 28.0675V28.3054L16.0561 27.9432L15.8037 28.1358L15.5802 28.1102L15.4867 27.9796L15.7133 27.8085L15.4867 27.6374L15.5802 27.5068L15.8037 27.4812L16.0561 27.6737L16.6335 27.3116V27.5494L16.2205 27.8085L16.6335 28.0675Z" fill="#00843D"/>
<path d="M16.6335 26.9647V27.2027L16.0561 26.8405L15.8037 27.033L15.5802 27.0074L15.4867 26.8768L15.7133 26.7057L15.4867 26.5347L15.5802 26.4041L15.8037 26.3784L16.0561 26.5709L16.6335 26.2088V26.4467L16.2205 26.7057L16.6335 26.9647Z" fill="#00843D"/>
<path d="M16.6335 28.6523V28.4144L16.0561 28.7765L15.8037 28.584L15.5802 28.6096L15.4867 28.7402L15.7133 28.9113L15.4867 29.0824L15.5802 29.213L15.8037 29.2386L16.0561 29.0461L16.6335 29.4082V29.1704L16.2205 28.9113L16.6335 28.6523Z" fill="#00843D"/>
<path d="M25.3557 28.0675V28.3054L25.9331 27.9432L26.1854 28.1358L26.409 28.1102L26.5025 27.9796L26.2759 27.8085L26.5025 27.6374L26.409 27.5068L26.1854 27.4812L25.9331 27.6737L25.3557 27.3116V27.5494L25.7687 27.8085L25.3557 28.0675Z" fill="#00843D"/>
<path d="M25.3557 26.9647V27.2027L25.9331 26.8405L26.1854 27.033L26.409 27.0074L26.5025 26.8768L26.2759 26.7057L26.5025 26.5347L26.409 26.4041L26.1854 26.3784L25.9331 26.5709L25.3557 26.2088V26.4467L25.7687 26.7057L25.3557 26.9647Z" fill="#00843D"/>
<path d="M25.3557 28.6523V28.4144L25.9331 28.7765L26.1854 28.584L26.409 28.6096L26.5025 28.7402L26.2759 28.9113L26.5025 29.0824L26.409 29.213L26.1854 29.2386L25.9331 29.0461L25.3557 29.4082V29.1704L25.7687 28.9113L25.3557 28.6523Z" fill="#00843D"/>
<path d="M24.3278 24.4991V24.7915H24.6238V25.0934H24.3599V24.8907H24.0219V24.4991H24.3278Z" fill="#00843D"/>
<path d="M25.3239 25.2225V25.5147H25.6199V25.8168H25.3559V25.6141H25.018V25.2225H25.3239Z" fill="#00843D"/>
<path d="M17.6614 24.4991V24.7915H17.3654V25.0934H17.6293V24.8907H17.9672V24.4991H17.6614Z" fill="#00843D"/>
<path d="M24.3278 31.1178V30.8255H24.6238V30.5235H24.3599V30.7263H24.0219V31.1178H24.3278Z" fill="#00843D"/>
<path d="M17.6614 31.1178V30.8255H17.3653V30.5235H17.6293V30.7263H17.9672V31.1178H17.6614Z" fill="#00843D"/>
<path d="M25.3239 30.3945V30.1022H25.6199V29.8002H25.3559V30.0029H25.018V30.3945H25.3239Z" fill="#00843D"/>
<path d="M16.6653 25.2225V25.5147H16.3693V25.8168H16.6332V25.6141H16.9711V25.2225H16.6653Z" fill="#00843D"/>
<path d="M16.6654 30.3945V30.1022H16.3693V29.8002H16.6332V30.0029H16.9712V30.3945H16.6654Z" fill="#00843D"/>
<path d="M21.9861 24.2539C22.0072 24.2741 22.2446 24.5016 22.2446 24.5016C22.2446 24.5016 22.4819 24.2741 22.503 24.2539C22.523 24.2722 22.6843 24.4198 22.7064 24.44C22.6835 24.4618 22.4861 24.651 22.4861 24.651L22.7361 24.8907H22.4107L22.2446 24.7315L22.0784 24.8907H21.753L22.003 24.651C22.003 24.651 21.8056 24.4618 21.7827 24.44C21.8048 24.4198 21.9662 24.2722 21.9861 24.2539Z" fill="#00843D"/>
<path d="M20.7362 24.2539C20.7573 24.2741 20.9946 24.5016 20.9946 24.5016C20.9946 24.5016 21.2319 24.2741 21.253 24.2539C21.273 24.2722 21.4343 24.4198 21.4564 24.44C21.4336 24.4618 21.2362 24.651 21.2362 24.651L21.4862 24.8907H21.1607L20.9946 24.7315L20.8285 24.8907H20.503L20.753 24.651C20.753 24.651 20.5556 24.4618 20.5328 24.44C20.5549 24.4198 20.7162 24.2722 20.7362 24.2539Z" fill="#00843D"/>
<path d="M20.0032 24.2539C19.982 24.2741 19.7447 24.5016 19.7447 24.5016C19.7447 24.5016 19.5074 24.2741 19.4864 24.2539C19.4664 24.2722 19.305 24.4198 19.283 24.44C19.3058 24.4618 19.5032 24.651 19.5032 24.651L19.2532 24.8907H19.5787L19.7447 24.7315L19.9109 24.8907H20.2363L19.9863 24.651C19.9863 24.651 20.1837 24.4618 20.2066 24.44C20.1845 24.4198 20.0232 24.2722 20.0032 24.2539Z" fill="#00843D"/>
<path d="M21.9861 31.3631C22.0072 31.3428 22.2446 31.1153 22.2446 31.1153C22.2446 31.1153 22.4819 31.3428 22.503 31.3631C22.523 31.3448 22.6843 31.1972 22.7064 31.1771C22.6835 31.1552 22.4861 30.966 22.4861 30.966L22.7361 30.7263H22.4107L22.2446 30.8855L22.0784 30.7263H21.753L22.003 30.966C22.003 30.966 21.8056 31.1552 21.7827 31.1771C21.8048 31.1972 21.9662 31.3448 21.9861 31.3631Z" fill="#00843D"/>
<path d="M20.7362 31.3631C20.7573 31.3428 20.9946 31.1153 20.9946 31.1153C20.9946 31.1153 21.2319 31.3428 21.253 31.3631C21.273 31.3448 21.4343 31.1972 21.4564 31.1771C21.4336 31.1552 21.2362 30.966 21.2362 30.966L21.4862 30.7263H21.1607L20.9946 30.8855L20.8285 30.7263H20.503L20.753 30.966C20.753 30.966 20.5556 31.1552 20.5328 31.1771C20.5549 31.1972 20.7162 31.3448 20.7362 31.3631Z" fill="#00843D"/>
<path d="M20.0032 31.3631C19.982 31.3428 19.7447 31.1153 19.7447 31.1153C19.7447 31.1153 19.5074 31.3428 19.4864 31.3631C19.4664 31.3448 19.305 31.1972 19.283 31.1771C19.3058 31.1552 19.5032 30.966 19.5032 30.966L19.2532 30.7263H19.5787L19.7447 30.8855L19.9109 30.7263H20.2363L19.9863 30.966C19.9863 30.966 20.1837 31.1552 20.2066 31.1771C20.1845 31.1972 20.0232 31.3448 20.0032 31.3631Z" fill="#00843D"/>
<path d="M17.6293 30.003V30.7263H24.3599V30.003H25.3556V25.614H24.3599V24.8907H17.6293V25.614H16.6335V30.003H17.6293Z" fill="#383739"/>
<path d="M17.6653 24.9236V25.6456H16.6694V29.9688H17.6653V30.6908H24.3257V29.9688H25.3217V25.6456H24.3257V24.9236L17.6653 24.9236ZM18.0939 25.2016H23.8972V25.8987L24.1367 26.073H25.0402V29.5457H24.1325L23.8972 29.7157V30.4169H18.0939V29.7199L17.8544 29.5457H16.9467V26.073H17.8502L18.0939 25.8987L18.0939 25.2016Z" fill="#FFC72C"/>
<path d="M18.1275 25.2348V25.8738L19.0015 25.2348H18.1275ZM22.9851 25.2348L23.8592 25.8738V25.2348H22.9851ZM16.9845 26.1062V26.7036L17.8081 26.1062H16.9845ZM24.1787 26.1062L25.0065 26.7078V26.1062H24.1787ZM25.0065 28.9067L24.1787 29.5125H25.0065V28.9067ZM16.9845 28.9108V29.5125H17.8081L16.9845 28.9108ZM18.1275 29.7448V30.3796H18.9973L18.1275 29.7448ZM23.8592 29.7448L22.9894 30.3796H23.8592V29.7448Z" fill="#D22630"/>
<path d="M22.9288 25.2355C22.9377 25.2419 24.9927 26.7406 25.0064 26.7506V28.8663C24.9927 28.8764 22.9377 30.375 22.9288 30.3815H19.0603C19.0514 30.375 16.9964 28.8764 16.9827 28.8663V26.7506C16.9964 26.7406 19.0514 25.2419 19.0603 25.2355H22.9288Z" fill="#00843D"/>
<path d="M17.4775 29.11L17.2386 28.8362L17.4629 28.5793L17.2386 28.3223L17.4629 28.0654L17.2386 27.8085L17.4629 27.5515L17.2386 27.2946L17.4628 27.0377L17.2386 26.7807L17.4775 26.507H24.5116L24.7505 26.7807L24.5262 27.0377L24.7505 27.2946L24.5262 27.5515L24.7505 27.8085L24.5262 28.0654L24.7505 28.3223L24.5262 28.5793L24.7505 28.8362L24.5116 29.11H17.4775ZM22.3127 25.5665L22.0355 25.3306L21.7752 25.552L21.515 25.3306L21.2548 25.552L20.9945 25.3306L20.7343 25.552L20.4741 25.3306L20.2139 25.552L19.9536 25.3306L19.6764 25.5665V30.0505L19.9536 30.2864L20.2139 30.065L20.4741 30.2863L20.7343 30.0649L20.9945 30.2863L21.2548 30.0649L21.515 30.2863L21.7752 30.065L22.0355 30.2864L22.3127 30.0505V25.5665Z" fill="#383739"/>
<path d="M21.7582 25.5818L21.515 25.3749L21.2718 25.5818V30.0351L21.515 30.242L21.7582 30.0351V25.5818Z" fill="#FFC72C"/>
<path d="M20.7173 25.5818L20.474 25.3749L20.2308 25.5818V30.0351L20.474 30.242L20.7173 30.0351V25.5818Z" fill="#FFC72C"/>
<path d="M17.493 29.0765L17.2835 28.8363L17.493 28.5961H24.496L24.7056 28.8363L24.496 29.0765H17.493Z" fill="#FFC72C"/>
<path d="M24.4961 27.5683L24.7056 27.8085L24.4961 28.0486H17.4931L17.2835 27.8085L17.4931 27.5683H24.4961Z" fill="#FFC72C"/>
<path d="M24.496 27.0209L24.7056 26.7807L24.496 26.5406H17.493L17.2835 26.7807L17.493 27.0209H24.496Z" fill="#FFC72C"/>
<path d="M22.2787 25.5818L22.0355 25.3749L21.7923 25.5818V30.0351L22.0355 30.242L22.2787 30.0351L22.2787 25.5818Z" fill="#D22630"/>
<path d="M20.1968 25.5818L19.9536 25.3749L19.7103 25.5818V30.0351L19.9536 30.242L20.1968 30.0351V25.5818Z" fill="#D22630"/>
<path d="M17.4931 28.5625L17.2835 28.3223L17.4931 28.0822H24.496L24.7056 28.3223L24.496 28.5625H17.4931Z" fill="#D22630"/>
<path d="M17.4931 27.5348L17.2835 27.2946L17.4931 27.0544H24.496L24.7056 27.2946L24.496 27.5348H17.4931Z" fill="#D22630"/>
<path d="M21.2378 30.0351L20.9946 30.242L20.7513 30.0351V25.5818L20.9946 25.3749L21.2378 25.5818V30.0351Z" fill="#D22630"/>
<path d="M23.3456 25.6687H18.6266V26.0387H18.0235V29.5782H18.6266V29.9482H23.3626V29.5782H23.9657V26.0387H23.3626V25.6687H23.3456Z" fill="#383739"/>
<path d="M18.6612 25.7036V26.0729H18.0561V29.5456H18.6612V29.9149H19.157L18.1695 29.0975V26.5209L19.157 25.7036H18.6612ZM22.834 25.7036L23.8173 26.5209V29.0975L22.834 29.9149H23.3298V29.5456H23.9308V26.0729H23.3298V25.7036L22.834 25.7036Z" fill="#D22630"/>
<path d="M19.2116 25.7036C19.2023 25.7113 18.215 26.5277 18.2031 26.5375V29.0809C18.215 29.0908 19.2023 29.9071 19.2116 29.9148H22.7793C22.7886 29.9071 23.7716 29.0907 23.7836 29.0809V26.5375C23.7716 26.5277 22.7886 25.7113 22.7793 25.7036H19.2116ZM19.262 25.8446H22.7246L23.6407 26.6039V29.0145L22.7246 29.7696H19.262L18.3502 29.0145V26.6039L19.262 25.8446Z" fill="#00843D"/>
<path d="M20.1791 29.0526L20.3341 29.1188L20.3626 29.2975L20.1675 29.467L20.4509 29.7376H20.1782L19.9832 29.5522L19.7882 29.7376H19.5155L19.799 29.467L19.6038 29.2975L19.6324 29.1188L19.7873 29.0526L19.9832 29.2073L19.9939 29.1989L20.1791 29.0526Z" fill="#00843D"/>
<path d="M21.1905 29.0526L21.3455 29.1188L21.374 29.2975L21.1789 29.467L21.4623 29.7376H21.1896L20.9946 29.5522L20.7996 29.7376H20.5269L20.8103 29.467L20.6152 29.2975L20.6438 29.1188L20.7987 29.0526L20.9946 29.2073L21.0052 29.1989L21.1905 29.0526Z" fill="#00843D"/>
<path d="M21.8101 29.0526L21.6551 29.1188L21.6266 29.2975L21.8217 29.467L21.5383 29.7376H21.811L22.006 29.5522L22.201 29.7376H22.4737L22.1903 29.467L22.3854 29.2975L22.3568 29.1188L22.2019 29.0526L22.006 29.2073L21.9953 29.1989L21.8101 29.0526Z" fill="#00843D"/>
<path d="M20.1791 26.5643L20.3341 26.4982L20.3626 26.3195L20.1675 26.15L20.4509 25.8794H20.1782L19.9832 26.0647L19.7882 25.8794H19.5155L19.799 26.15L19.6038 26.3194L19.6324 26.4982L19.7873 26.5643L19.9832 26.4097L19.9939 26.418L20.1791 26.5643Z" fill="#00843D"/>
<path d="M21.1905 26.5643L21.3455 26.4982L21.374 26.3195L21.1789 26.15L21.4623 25.8794H21.1896L20.9946 26.0647L20.7996 25.8794H20.5269L20.8103 26.15L20.6152 26.3194L20.6438 26.4982L20.7987 26.5643L20.9946 26.4097L21.0052 26.418L21.1905 26.5643Z" fill="#00843D"/>
<path d="M21.8101 26.5643L21.6551 26.4982L21.6266 26.3195L21.8217 26.15L21.5383 25.8794H21.811L22.006 26.0647L22.201 25.8794H22.4737L22.1903 26.15L22.3854 26.3194L22.3568 26.4982L22.2019 26.5643L22.006 26.4097L21.9953 26.418L21.8101 26.5643Z" fill="#00843D"/>
<path d="M23.605 26.8497L23.4503 26.9762L23.605 27.1027V27.3123L23.3671 27.1187C23.3671 27.1187 23.2071 27.2618 23.1963 27.2715C23.1826 27.2698 23.0285 27.2507 23.0133 27.2488C23.0065 27.2364 22.9583 27.1488 22.9488 27.1313C22.9647 27.1156 23.1063 26.9762 23.1063 26.9762C23.1063 26.9762 22.9647 26.8368 22.9488 26.8211C22.9583 26.8036 23.0065 26.7159 23.0133 26.7036C23.0285 26.7017 23.1826 26.6826 23.1963 26.6809C23.2071 26.6905 23.3671 26.8337 23.3671 26.8337L23.605 26.6401V26.8497Z" fill="#00843D"/>
<path d="M23.605 27.682L23.4503 27.8085L23.605 27.9349V28.1446L23.3671 27.951C23.3671 27.951 23.2071 28.0941 23.1963 28.1038C23.1826 28.1021 23.0285 28.0829 23.0133 28.0811C23.0065 28.0687 22.9583 27.9811 22.9488 27.9636C22.9647 27.9479 23.1063 27.8085 23.1063 27.8085C23.1063 27.8085 22.9647 27.6691 22.9488 27.6534C22.9583 27.6359 23.0065 27.5482 23.0133 27.5359C23.0285 27.534 23.1826 27.5149 23.1963 27.5132C23.2071 27.5228 23.3671 27.6659 23.3671 27.6659L23.605 27.4724V27.682Z" fill="#00843D"/>
<path d="M23.605 28.7673L23.4503 28.6408L23.605 28.5144V28.3047L23.3671 28.4983C23.3671 28.4983 23.2071 28.3551 23.1963 28.3455C23.1826 28.3472 23.0285 28.3664 23.0133 28.3682C23.0065 28.3806 22.9583 28.4682 22.9488 28.4857C22.9647 28.5014 23.1063 28.6408 23.1063 28.6408C23.1063 28.6408 22.9647 28.7802 22.9488 28.7959C22.9583 28.8134 23.0065 28.901 23.0133 28.9134C23.0285 28.9153 23.1826 28.9344 23.1963 28.9361C23.2071 28.9265 23.3671 28.7833 23.3671 28.7833L23.605 28.9769V28.7673Z" fill="#00843D"/>
<path d="M18.3843 26.8497L18.5389 26.9762L18.3843 27.1027V27.3123L18.6222 27.1187C18.6222 27.1187 18.7822 27.2618 18.7929 27.2715C18.8066 27.2698 18.9608 27.2507 18.976 27.2488C18.9828 27.2364 19.0309 27.1488 19.0405 27.1313C19.0246 27.1156 18.883 26.9762 18.883 26.9762C18.883 26.9762 19.0246 26.8368 19.0405 26.8211C19.0309 26.8036 18.9828 26.7159 18.976 26.7036C18.9608 26.7017 18.8066 26.6826 18.7929 26.6809C18.7822 26.6905 18.6222 26.8337 18.6222 26.8337L18.3843 26.6401V26.8497Z" fill="#00843D"/>
<path d="M18.3843 27.682L18.5389 27.8085L18.3843 27.9349V28.1446L18.6222 27.951C18.6222 27.951 18.7822 28.0941 18.7929 28.1038C18.8066 28.1021 18.9608 28.0829 18.976 28.0811C18.9828 28.0687 19.0309 27.9811 19.0405 27.9636C19.0246 27.9479 18.883 27.8085 18.883 27.8085C18.883 27.8085 19.0246 27.6691 19.0405 27.6534C19.0309 27.6359 18.9828 27.5482 18.976 27.5359C18.9608 27.534 18.8066 27.5149 18.7929 27.5132C18.7822 27.5228 18.6222 27.6659 18.6222 27.6659L18.3843 27.4724V27.682Z" fill="#00843D"/>
<path d="M18.3843 28.7673L18.5389 28.6408L18.3843 28.5144V28.3047L18.6222 28.4983C18.6222 28.4983 18.7822 28.3551 18.7929 28.3455C18.8066 28.3472 18.9608 28.3664 18.976 28.3682C18.9828 28.3806 19.0309 28.4682 19.0405 28.4857C19.0246 28.5014 18.883 28.6408 18.883 28.6408C18.883 28.6408 19.0246 28.7802 19.0405 28.7959C19.0309 28.8134 18.9828 28.901 18.976 28.9134C18.9608 28.9153 18.8066 28.9344 18.7929 28.9361C18.7822 28.9265 18.6222 28.7833 18.6222 28.7833L18.3843 28.9769V28.7673Z" fill="#00843D"/>
<path d="M19.2747 25.8779C19.2655 25.8855 18.4336 26.5732 18.3965 26.604C18.4715 26.6654 18.544 26.7296 18.6192 26.7907C18.6382 26.7737 18.7831 26.6455 18.7831 26.6455L18.9974 26.6745L19.0814 26.828C19.0814 26.828 18.9507 26.9572 18.9301 26.9774C18.9507 26.9976 19.0814 27.1268 19.0814 27.1268L18.9974 27.2803L18.7831 27.3052C18.7831 27.3052 18.6382 27.1811 18.6192 27.1641L18.3839 27.3591V27.4255C18.463 27.4902 18.5397 27.5559 18.6192 27.6205C18.6382 27.6035 18.7831 27.4794 18.7831 27.4794L18.9974 27.5043L19.0814 27.6578C19.0814 27.6578 18.9507 27.787 18.9301 27.8072C18.9507 27.8274 19.0814 27.9566 19.0814 27.9566L18.9974 28.1142L18.7831 28.1391C18.7831 28.1391 18.6382 28.0109 18.6192 27.9939L18.3839 28.1889V28.2594L18.6192 28.4545C18.6382 28.4375 18.7831 28.3092 18.7831 28.3092L18.9974 28.3383L19.0814 28.4918C19.0814 28.4918 18.9507 28.6209 18.9301 28.6412C18.9507 28.6614 19.0814 28.7905 19.0814 28.7905L18.9974 28.944L18.7831 28.9731C18.7831 28.9731 18.6382 28.8449 18.6192 28.8279C18.5443 28.8888 18.4712 28.9496 18.3965 29.0104C18.4336 29.0412 19.2655 29.7289 19.2747 29.7365H19.468L19.7496 29.4668L19.5689 29.3091L19.6025 29.0934L19.7916 29.0146L19.9849 29.1639L20.174 29.0146L20.3631 29.0934L20.4009 29.3091L20.216 29.4668L20.4891 29.724L20.7623 29.4668L20.5774 29.3091L20.611 29.0934L20.8043 29.0146L20.9934 29.1639L21.1867 29.0146L21.3758 29.0934L21.4094 29.3091L21.2287 29.4668L21.4977 29.7282L21.7708 29.4668L21.5901 29.3091L21.6237 29.0934L21.817 29.0146L22.0061 29.1639L22.1952 29.0146L22.3885 29.0934L22.4221 29.3091L22.2415 29.4668L22.523 29.7365H22.7121C22.7213 29.7289 23.5532 29.0412 23.5904 29.0104C23.5155 28.9496 23.4426 28.8889 23.3676 28.8279C23.3486 28.8449 23.208 28.9731 23.208 28.9731L22.9936 28.944L22.9054 28.7905C22.9054 28.7905 23.0362 28.6614 23.0567 28.6412C23.0362 28.6209 22.9054 28.4918 22.9054 28.4918L22.9936 28.3383L23.208 28.3092C23.208 28.3092 23.3486 28.4375 23.3676 28.4545L23.603 28.2594V28.1889L23.3676 27.9939C23.3486 28.0109 23.208 28.1391 23.208 28.1391L22.9936 28.1142L22.9054 27.9566C22.9054 27.9566 23.0362 27.8274 23.0567 27.8072C23.0362 27.787 22.9054 27.6578 22.9054 27.6578L22.9936 27.5043L23.208 27.4794C23.208 27.4794 23.3486 27.6035 23.3676 27.6205C23.4465 27.5563 23.5242 27.4936 23.603 27.4296V27.355L23.3676 27.1641C23.3486 27.1811 23.208 27.3052 23.208 27.3052L22.9936 27.2803L22.9054 27.1268C22.9054 27.1268 23.0362 26.9976 23.0567 26.9774C23.0362 26.9572 22.9054 26.828 22.9054 26.828L22.9936 26.6745L23.208 26.6455C23.208 26.6455 23.3486 26.7737 23.3676 26.7907C23.4429 26.7294 23.5193 26.6694 23.5946 26.6081C23.5656 26.5842 22.7213 25.8855 22.7121 25.8779H22.523L22.2414 26.1476L22.4221 26.3053L22.3885 26.521L22.1952 26.604L22.0061 26.4546L21.817 26.604L21.6237 26.521L21.5901 26.3053L21.7708 26.1476L21.5019 25.8904L21.2287 26.1476L21.4094 26.3053L21.3758 26.521L21.1867 26.604L20.9934 26.4546L20.8043 26.604L20.611 26.521L20.5774 26.3053L20.7623 26.1476L20.4891 25.8904L20.216 26.1476L20.4009 26.3053L20.3631 26.521L20.174 26.604L19.9849 26.4546L19.7916 26.604L19.6025 26.521L19.5689 26.3053L19.7496 26.1476L19.4638 25.8779L19.2747 25.8779ZM18.3839 27.7242V27.8944L18.4847 27.8072L18.3839 27.7242Z" fill="#D22630"/>
<path d="M19.9848 29.5996L19.8377 29.7364H20.1277L19.9848 29.5996Z" fill="white"/>
<path d="M20.9934 29.5996L20.8506 29.7364H21.1405L20.9934 29.5996Z" fill="white"/>
<path d="M22.006 29.5996L21.8591 29.7364H22.1532L22.006 29.5996Z" fill="white"/>
<path d="M19.8336 25.8779L19.9848 26.0189L20.1319 25.8779H19.8336Z" fill="white"/>
<path d="M20.8463 25.8779L20.9934 26.0189L21.1447 25.8779H20.8463Z" fill="white"/>
<path d="M21.8591 25.8779L22.0061 26.0189L22.1532 25.8779H21.8591Z" fill="white"/>
<path d="M23.6029 26.8944L23.5021 26.9774L23.6029 27.0562V26.8944Z" fill="white"/>
<path d="M23.6029 27.7242L23.5021 27.8072L23.6029 27.8901V27.7242Z" fill="white"/>
<path d="M23.6029 28.5581L23.5021 28.6411L23.6029 28.7241V28.5581Z" fill="white"/>
<path d="M18.3838 26.8903V27.0604L18.4847 26.9774L18.3838 26.8903Z" fill="white"/>
<path d="M18.3838 27.7242V27.8943L18.4847 27.8072L18.3838 27.7242Z" fill="white"/>
<path d="M18.3838 28.554V28.7241L18.4847 28.6411L18.3838 28.554Z" fill="white"/>
<path d="M21.8596 27.5305V27.2335H21.5552V26.9079H20.434V27.2335H20.1296V27.5305H19.7092V28.0865H20.1296V28.3834H20.434V28.709H21.5552V28.3834H21.8596V28.0865H22.28V27.5305H21.8596Z" fill="#383739"/>
<path d="M20.9775 26.9415V27.2771L20.4956 27.5476V27.7917H19.7432V27.564H20.1635V27.2671H20.468V26.9415H20.9775Z" fill="#FFC72C"/>
<path d="M21.0116 28.6755V28.3399L21.4934 28.0694V27.8253H22.2459V28.0529H21.8256V28.3499H21.5211V28.6755H21.0116Z" fill="#FFC72C"/>
<path d="M21.4935 27.7917V27.5476L21.0116 27.2771V26.9415H21.5212V27.2671H21.8256V27.564H22.246V27.7917H21.4935Z" fill="white"/>
<path d="M19.7432 27.8253H20.4956V28.0694L20.9776 28.3399V28.6755H20.468V28.3499H20.1636V28.0529H19.7432V27.8253Z" fill="white"/>
<path d="M20.5297 27.8253V28.0516L20.9776 28.303V27.8253H20.5297Z" fill="#D22630"/>
<path d="M20.9775 27.314L20.5296 27.5654V27.7917H20.9775V27.314Z" fill="#00843D"/>
<path d="M21.4595 27.7917V27.5654L21.0116 27.314V27.7917H21.4595Z" fill="#D22630"/>
<path d="M21.0116 28.303L21.4595 28.0515V27.8253H21.0116V28.303Z" fill="#00843D"/>
<path d="M16.9205 33.7089V34.6267H16.0347V35.4591H15.1369V37.8294H16.0347V38.6619H16.9205V39.5797H20.1414L20.7079 39.9157L20.4357 40.0772H19.2872L19.1881 39.9669H20.2289L19.9357 39.6753H18.4469L19.1214 40.3687H20.5176L20.9945 40.0858L21.4715 40.3687H22.8677L23.5423 39.6753H22.0534L21.7602 39.9669H22.801L22.7019 40.0772H21.5534L21.2812 39.9157L21.8477 39.5797H25.0686V38.6619H25.9544V37.8294H26.8522V35.4591H25.9544V34.6267H25.0686V33.7089H21.8477L21.2812 33.3728L21.5534 33.2114H22.7019L22.801 33.3217H21.7602L22.0534 33.6132H23.5423L22.8677 32.9198H21.4715L20.9945 33.2028L20.5176 32.9198H19.1214L18.4469 33.6132H19.9357L20.2289 33.3217H19.1881L19.2872 33.2114H20.4357L20.7079 33.3728L20.1414 33.7089H16.9205Z" fill="#D22630"/>
<path d="M21.838 39.5447H25.0359V38.6278H25.9183V37.7938H26.8176V35.4911H25.9183V34.6613H25.0359V33.7444H21.838L20.5101 32.9519H19.136L18.5267 33.5784H19.9218L20.1487 33.3544H19.1108L19.2705 33.176H20.4471L21.9515 34.0721H24.6997V34.9891H25.5864V35.823H26.4856V37.466H25.5864V38.3H24.6997V39.2169H21.9515L20.4471 40.109H19.2705L19.1108 39.9347H20.1487L19.9218 39.7106H18.5267L19.136 40.3371H20.5101L21.838 39.5447ZM20.0353 39.2169H17.2871V38.3H16.4046V37.466H15.5053V35.823H16.4046V34.9891H17.2871V34.0721H20.0353L21.5439 33.176H22.7163L22.876 33.3544H21.8422L22.0691 33.5784H23.4643L22.855 32.9519H21.4808L20.1529 33.7444H16.9551V34.6613H16.0684V35.4911H15.1692V37.7938H16.0684V38.6278H16.9551V39.5447H20.1529L21.4808 40.3371H22.855L23.4643 39.7106H22.0691L21.8422 39.9347H22.876L22.7163 40.109H21.5439L20.0353 39.2169Z" fill="#FFC72C"/>
<path d="M24.4334 38.0347V38.9525H21.8787L20.9945 39.4771L20.1104 38.9525H17.5557V38.0347H16.6698V37.2022H15.7721V36.0863H16.6698V35.2538H17.5557V34.336H20.1056H20.1104L20.9945 33.8115L21.8787 34.336H24.4334V35.2538H25.3192V36.0863H26.217V37.2022H25.3192V38.0347H24.4334Z" fill="#00843D"/>
<path d="M17.8902 37.7132V38.6015H19.2945L17.8902 37.6819V37.7132Z" fill="#383739"/>
<path d="M17.8902 35.5754V34.687H19.2945L17.8902 35.6066V35.5754Z" fill="#383739"/>
<path d="M24.099 37.7132V38.6015H22.6947L24.099 37.6819V37.7132Z" fill="#383739"/>
<path d="M24.099 35.5754V34.687H22.6947L24.099 35.6066V35.5754Z" fill="#383739"/>
<path d="M17.9242 37.7444L19.1817 38.5679H17.9242V37.7444Z" fill="#D22630"/>
<path d="M17.9242 35.5441C17.9731 35.5121 19.096 34.7767 19.1817 34.7206H17.9242V35.5441Z" fill="#D22630"/>
<path d="M24.0649 37.7444C24.016 37.7765 22.8931 38.5118 22.8075 38.5679H24.0649V37.7444Z" fill="#D22630"/>
<path d="M24.0649 35.5441C24.016 35.5121 22.8931 34.7767 22.8075 34.7206H24.0649V35.5441Z" fill="#D22630"/>
<path d="M19.6813 36.4007V35.947H19.5246L18.7728 35.4829L18.7638 35.4885L18.021 35.947H17.8643V36.4007H17.5108V36.8879H17.8643V37.3415H18.021L18.7728 37.8056L19.5246 37.3415H19.6813V36.8879H20.2194V36.4007H19.6813Z" fill="#383739"/>
<path d="M18.7728 35.5226L19.4605 35.9471H18.0852L18.7728 35.5226ZM19.4604 37.3415L18.7728 37.766L18.0853 37.3415H19.4604Z" fill="#D22630"/>
<path d="M19.2939 36.4343V36.8544H18.4363V36.4343H19.2939Z" fill="#D22630"/>
<path d="M19.6474 36.8879V37.3079H18.7898V36.8879H19.6474Z" fill="#FFC72C"/>
<path d="M18.7558 36.8879V37.3079H17.8983V36.8879H18.7558Z" fill="#FFC72C"/>
<path d="M20.1854 36.4343V36.8544H19.3279V36.4343H20.1854Z" fill="#FFC72C"/>
<path d="M18.4024 36.4343V36.8544H17.5448V36.4343H18.4024Z" fill="#FFC72C"/>
<path d="M19.6474 35.9807V36.4007H18.7898V35.9807H19.6474Z" fill="#FFC72C"/>
<path d="M18.7558 35.9807V36.4007H17.8983V35.9807H18.7558Z" fill="#FFC72C"/>
<path d="M18.1663 36.5276V36.761H17.7811V36.5276H18.1663Z" fill="#383739"/>
<path d="M18.5197 36.074V36.3074H18.1346V36.074H18.5197Z" fill="#383739"/>
<path d="M19.4112 36.074V36.3074H19.026V36.074H19.4112Z" fill="#383739"/>
<path d="M19.0577 36.5276V36.761H18.6725V36.5276H19.0577Z" fill="#383739"/>
<path d="M19.9493 36.5276V36.761H19.5641V36.5276H19.9493Z" fill="#383739"/>
<path d="M19.4112 36.9812V37.2146H19.026V36.9812H19.4112Z" fill="#383739"/>
<path d="M18.5197 36.9812V37.2146H18.1346V36.9812H18.5197Z" fill="#383739"/>
<path d="M18.1299 36.5634H17.8173V36.7252H18.1299V36.5634Z" fill="white"/>
<path d="M18.4834 36.1098H18.1707V36.2715H18.4834V36.1098Z" fill="white"/>
<path d="M19.3749 36.1098H19.0623V36.2715H19.3749V36.1098Z" fill="white"/>
<path d="M19.0215 36.5634H18.7088V36.7252H19.0215V36.5634Z" fill="white"/>
<path d="M19.913 36.5634H19.6003V36.7252H19.913V36.5634Z" fill="white"/>
<path d="M19.3749 37.017H19.0623V37.1788H19.3749V37.017Z" fill="white"/>
<path d="M18.4834 37.017H18.1707V37.1788H18.4834V37.017Z" fill="white"/>
<path d="M22.3078 36.4007V35.947H22.4645L23.2163 35.4829L23.2253 35.4885L23.9681 35.947H24.1248V36.4007H24.4782V36.8879H24.1248V37.3415H23.9681L23.2163 37.8056L22.4645 37.3415H22.3078V36.8879H21.7697V36.4007H22.3078Z" fill="#383739"/>
<path d="M23.2163 35.5226L22.5285 35.9471H23.9039L23.2163 35.5226ZM22.5286 37.3415L23.2163 37.766L23.9038 37.3415H22.5286Z" fill="#D22630"/>
<path d="M22.6952 36.4343V36.8544H23.5527V36.4343H22.6952Z" fill="#D22630"/>
<path d="M22.3417 36.8879V37.3079H23.1993V36.8879H22.3417Z" fill="#FFC72C"/>
<path d="M23.2332 36.8879V37.3079H24.0908V36.8879H23.2332Z" fill="#FFC72C"/>
<path d="M21.8037 36.4343V36.8544H22.6612V36.4343H21.8037Z" fill="#FFC72C"/>
<path d="M23.5867 36.4343V36.8544H24.4442V36.4343H23.5867Z" fill="#FFC72C"/>
<path d="M22.3417 35.9807V36.4007H23.1993V35.9807H22.3417Z" fill="#FFC72C"/>
<path d="M23.2332 35.9807V36.4007H24.0908V35.9807H23.2332Z" fill="#FFC72C"/>
<path d="M23.8228 36.5276V36.761H24.208V36.5276H23.8228Z" fill="#383739"/>
<path d="M23.4693 36.074V36.3074H23.8545V36.074H23.4693Z" fill="#383739"/>
<path d="M22.5779 36.074V36.3074H22.9631V36.074H22.5779Z" fill="#383739"/>
<path d="M22.9314 36.5276V36.761H23.3166V36.5276H22.9314Z" fill="#383739"/>
<path d="M22.0398 36.5276V36.761H22.425V36.5276H22.0398Z" fill="#383739"/>
<path d="M22.5779 36.9812V37.2146H22.9631V36.9812H22.5779Z" fill="#383739"/>
<path d="M23.4693 36.9812V37.2146H23.8545V36.9812H23.4693Z" fill="#383739"/>
<path d="M23.8591 36.5634H24.1718V36.7252H23.8591V36.5634Z" fill="white"/>
<path d="M23.5057 36.1098H23.8183V36.2715H23.5057V36.1098Z" fill="white"/>
<path d="M22.6142 36.1098H22.9268V36.2715H22.6142V36.1098Z" fill="white"/>
<path d="M22.9676 36.5634H23.2803V36.7252H22.9676V36.5634Z" fill="white"/>
<path d="M22.0761 36.5634H22.3888V36.7252H22.0761V36.5634Z" fill="white"/>
<path d="M22.6142 37.017H22.9268V37.1788H22.6142V37.017Z" fill="white"/>
<path d="M23.5057 37.017H23.8183V37.1788H23.5057V37.017Z" fill="white"/>
<path d="M21.9031 35.6429V36.0965H21.7464L20.9945 36.5606L20.9855 36.5551L20.2427 36.0965H20.086V35.6429H19.6403V35.1557H20.086V34.7021H20.2427L20.9945 34.2379L21.7464 34.7021H21.9031V35.1557H22.3488V35.6429H21.9031Z" fill="#383739"/>
<path d="M20.9946 36.521L21.6822 36.0965H20.3069L20.9946 36.521ZM21.6822 34.7021L20.9946 34.2775L20.307 34.7021H21.6822Z" fill="#FFC72C"/>
<path d="M21.8691 35.1557V34.7356H21.0115V35.1557H21.8691Z" fill="#D22630"/>
<path d="M20.9776 35.1557V34.7356H20.12V35.1557H20.9776Z" fill="#D22630"/>
<path d="M22.3148 35.6093V35.1892H21.4573V35.6093H22.3148Z" fill="#D22630"/>
<path d="M21.4233 35.6093V35.1892H20.5658V35.6093H21.4233Z" fill="#D22630"/>
<path d="M20.5318 35.6093V35.1892H19.6743V35.6093H20.5318Z" fill="#D22630"/>
<path d="M21.8691 36.0629V35.6428H21.0115V36.0629H21.8691Z" fill="#D22630"/>
<path d="M20.9776 36.0629V35.6428H20.12V36.0629H20.9776Z" fill="#D22630"/>
<path d="M20.7414 34.8289V35.0623H20.3562V34.8289H20.7414Z" fill="#383739"/>
<path d="M21.6329 34.8289V35.0623H21.2477V34.8289H21.6329Z" fill="#383739"/>
<path d="M20.2956 35.2826V35.516H19.9104V35.2826H20.2956Z" fill="#383739"/>
<path d="M21.1872 35.2826V35.516H20.802V35.2826H21.1872Z" fill="#383739"/>
<path d="M22.0787 35.2826V35.516H21.6935V35.2826H22.0787Z" fill="#383739"/>
<path d="M20.7414 35.7362V35.9696H20.3562V35.7362H20.7414Z" fill="#383739"/>
<path d="M21.6329 35.7362V35.9696H21.2477V35.7362H21.6329Z" fill="#383739"/>
<path d="M20.7052 34.8647H20.3925V35.0265H20.7052V34.8647Z" fill="white"/>
<path d="M21.5967 34.8647H21.284V35.0265H21.5967V34.8647Z" fill="white"/>
<path d="M20.2594 35.3184H19.9467V35.4801H20.2594V35.3184Z" fill="white"/>
<path d="M21.151 35.3184H20.8383V35.4801H21.151V35.3184Z" fill="white"/>
<path d="M22.0424 35.3184H21.7297V35.4801H22.0424V35.3184Z" fill="white"/>
<path d="M20.7052 35.772H20.3925V35.9338H20.7052V35.772Z" fill="white"/>
<path d="M21.5967 35.772H21.284V35.9338H21.5967V35.772Z" fill="white"/>
<path d="M21.9031 38.133V38.5866H21.7464L20.9945 39.0507L20.9855 39.0451L20.2427 38.5866H20.086V38.133H19.6403V37.6458H20.086V37.1922H20.2427L20.9945 36.728L21.7464 37.1922H21.9031V37.6458H22.3488V38.133H21.9031Z" fill="#383739"/>
<path d="M20.9946 39.0111L21.6822 38.5865H20.3069L20.9946 39.0111ZM21.6822 37.1921L20.9946 36.7676L20.307 37.1921H21.6822Z" fill="#FFC72C"/>
<path d="M21.8691 37.6457V37.2257H21.0115V37.6457H21.8691Z" fill="#D22630"/>
<path d="M20.9776 37.6457V37.2257H20.12V37.6457H20.9776Z" fill="#D22630"/>
<path d="M22.3148 38.0994V37.6793H21.4573V38.0994H22.3148Z" fill="#D22630"/>
<path d="M21.4233 38.0994V37.6793H20.5658V38.0994H21.4233Z" fill="#D22630"/>
<path d="M20.5318 38.0994V37.6793H19.6743V38.0994H20.5318Z" fill="#D22630"/>
<path d="M21.8691 38.553V38.1329H21.0115V38.553H21.8691Z" fill="#D22630"/>
<path d="M20.9776 38.553V38.1329H20.12V38.553H20.9776Z" fill="#D22630"/>
<path d="M20.7414 37.319V37.5524H20.3562V37.319H20.7414Z" fill="#383739"/>
<path d="M21.6329 37.319V37.5524H21.2477V37.319H21.6329Z" fill="#383739"/>
<path d="M20.2956 37.7726V38.006H19.9104V37.7726H20.2956Z" fill="#383739"/>
<path d="M21.1872 37.7726V38.006H20.802V37.7726H21.1872Z" fill="#383739"/>
<path d="M22.0787 37.7726V38.006H21.6935V37.7726H22.0787Z" fill="#383739"/>
<path d="M20.7414 38.2263V38.4597H20.3562V38.2263H20.7414Z" fill="#383739"/>
<path d="M21.6329 38.2263V38.4597H21.2477V38.2263H21.6329Z" fill="#383739"/>
<path d="M20.7052 37.3548H20.3925V37.5166H20.7052V37.3548Z" fill="white"/>
<path d="M21.5967 37.3548H21.284V37.5166H21.5967V37.3548Z" fill="white"/>
<path d="M20.2594 37.8084H19.9467V37.9702H20.2594V37.8084Z" fill="white"/>
<path d="M21.151 37.8084H20.8383V37.9702H21.151V37.8084Z" fill="white"/>
<path d="M22.0424 37.8084H21.7297V37.9702H22.0424V37.8084Z" fill="white"/>
<path d="M20.7052 38.2621H20.3925V38.4238H20.7052V38.2621Z" fill="white"/>
<path d="M21.5967 38.2621H21.284V38.4238H21.5967V38.2621Z" fill="white"/>
<path d="M16.1295 43.5494L19.4657 41.7766H19.47H22.5233L25.8596 43.5494V46.4704L22.5233 48.2432H19.4657L16.1295 46.4704V43.5494Z" fill="#383739"/>
<path d="M19.4764 41.8102L16.1651 43.5693V46.4487L19.4764 48.2079H22.5145L25.826 46.4487V43.5693L22.5145 41.8102H19.4764ZM19.5352 42.0466H22.4558L25.5907 43.7103V46.3118L22.4558 47.9755H19.5334L16.3987 46.3118V43.7103L19.5352 42.0466Z" fill="#00843D"/>
<path d="M21.0116 44.9931V47.9416H22.4472L25.5559 46.2897V45.0267L20.9776 45.0267V42.0782H19.542L16.4333 43.73V44.9931L21.0116 44.9931Z" fill="#FFC72C"/>
<path d="M20.9775 44.9931V47.9416H19.5419L16.4332 46.2897V45.0267L21.0115 45.0267V42.0782H22.4471L25.5558 43.73V44.9931L20.9775 44.9931Z" fill="white"/>
<path d="M21.2735 47.7765V46.9243L20.9945 47.0991L20.7154 46.9243V47.7765H19.8473L20.4331 47.3524V46.7474L19.5398 46.1878H18.9156V43.8321H19.5398L20.4331 43.2725V42.6676L19.8473 42.2434H19.8993H20.7154V43.0957L20.9945 42.9208L21.2735 43.0957V42.2434H22.1417L21.5559 42.6676V43.2725L22.4492 43.8321H23.0734V46.1878H22.4492L21.5559 46.7474V47.3524L22.1417 47.7765H21.2735Z" fill="#383739"/>
<path d="M21.3086 42.2789V43.1585L21.0102 42.9718V43.2208L22.3759 44.0795H22.8256V44.9924H23.0399V43.8639H22.439L21.5229 43.2913V42.6523L22.0397 42.2789H21.3086ZM18.9511 45.0256V46.1542H19.5479L20.4682 46.7308V47.3698L19.9513 47.7431H20.6825V46.8635L20.9766 47.0503V46.793L19.6109 45.9425H19.1654V45.0256L18.9511 45.0256Z" fill="#FFC72C"/>
<path d="M19.9512 42.2789L20.4681 42.6523V43.2913L19.5478 43.8639H18.9511V44.9924H19.1654V44.0795H19.6109L20.9766 43.2249V42.9718L20.6825 43.1585V42.2789L19.9512 42.2789ZM22.8255 45.0256V45.9425H22.3759L21.0102 46.793V47.0503L21.3086 46.8635V47.7431H22.0397L21.5229 47.3698V46.7308L22.4389 46.1541H23.0399V45.0256L22.8255 45.0256Z" fill="white"/>
<path d="M19.1979 45.9075H19.6214L20.9945 46.7677L22.3676 45.9075H22.7911V44.1124H22.3726H22.3676L20.9945 43.2523L19.6214 44.1124H19.1979V45.9075Z" fill="#D22630"/>
<path d="M21.945 45.4365H22.2382V45.2996H22.0176V45.0506H22.489V45.6855H22.0371L22.0371 46.1187H21.1069V45.4963H21.5163V45.7453H21.3577V45.8697H21.7863V45.6318L20.044 44.5834H19.7508V44.7203H19.9714V44.9693H19.5V44.3344H19.9519V43.9013H19.9689H20.882V44.5236H20.4726V44.2747H20.6312V44.1502H20.2027V44.3882L21.945 45.4365ZM21.7863 44.3882V44.1502H21.3577V44.2747H21.5163V44.5236H21.1069V43.9013H22.0371V44.3344H22.489V44.9693H22.0176V44.7203H22.2382V44.5834H21.945L20.2027 45.6318V45.8697H20.6312V45.7452H20.4726V45.4963H20.882V46.1187H19.9519V45.6855H19.5V45.0506H19.9714V45.2996H19.7508V45.4365H20.044L21.7863 44.3882Z" fill="#383739"/>
<path d="M21.8203 45.6129V45.9033H21.3237V45.7117H21.4823V45.5299H21.1409V46.0851H22.0031V45.6519H22.455V45.0842H22.0516V45.266H22.2722V45.4701H21.9355L20.1687 44.4071V44.1167H20.6652V44.3083H20.5067V44.4901H20.848V43.9348H19.9859V44.368H19.534V44.9358H19.9374V44.7539H19.7168V44.5498H20.0535L21.8203 45.6129ZM21.9355 44.5498H22.2722V44.7539H22.0516V44.9358H22.455V44.368H22.0032V43.9348H21.141V44.4901H21.4823V44.3083H21.3238V44.1167H21.8203V44.4071L20.0535 45.4701H19.7168V45.266H19.9374V45.0842H19.534V45.6519H19.9859V46.0851H20.848V45.5298H20.5067V45.7117H20.6652V45.9033H20.1687V45.6129L21.9355 44.5498Z" fill="white"/>
<path d="M24.8856 45.1576V46.0789H24.4885V45.7535H24.0882V46.0789H23.6911V45.1576H24.0882V45.483H24.4885V45.1576H24.8856Z" fill="#383739"/>
<path d="M23.4647 46.3808V47.3021H23.0676V46.9767H22.6673V47.3021H22.2702V46.3808H22.6673V46.7062H23.0676V46.3808H23.4647Z" fill="#383739"/>
<path d="M24.8856 44.8622V43.9408H24.4885V44.2662H24.0882V43.9408H23.6911V44.8622H24.0882V44.5368H24.4885V44.8622H24.8856Z" fill="#383739"/>
<path d="M17.1035 45.1576V46.0789H17.5006V45.7535H17.9009V46.0789H18.298V45.1576H17.9009V45.483H17.5006V45.1576H17.1035Z" fill="#383739"/>
<path d="M17.1035 44.8622V43.9408H17.5006V44.2662H17.9009V43.9408H18.298V44.8622H17.9009V44.5368H17.5006V44.8622H17.1035Z" fill="#383739"/>
<path d="M23.4647 43.6391V42.7177H23.0676V43.0431H22.6673V42.7177H22.2702V43.6391H22.6673V43.3137H23.0676V43.6391H23.4647Z" fill="#383739"/>
<path d="M18.5245 46.3808V47.3021H18.9216V46.9767H19.3219V47.3021H19.719V46.3808H19.3219V46.7062H18.9216V46.3808H18.5245Z" fill="#383739"/>
<path d="M18.5245 43.6391V42.7177H18.9216V43.0431H19.3219V42.7177H19.719V43.6391H19.3219V43.3137H18.9216V43.6391H18.5245Z" fill="#383739"/>
<path d="M23.7016 42.9934V43.6931H25.0183L23.7016 42.9934Z" fill="#383739"/>
<path d="M18.2875 47.0265V46.3268H16.9707L18.2875 47.0265Z" fill="#383739"/>
<path d="M18.2875 42.9934V43.6931H16.9707L18.2875 42.9934Z" fill="#383739"/>
<path d="M23.7016 47.0265V46.3268H25.0183L23.7016 47.0265Z" fill="#383739"/>
<path d="M24.5225 45.72V46.0454H24.8516V45.1912H24.5225V45.5166H24.0542V45.1912H23.7251V46.0454H24.0542V45.72H24.5225Z" fill="#D22630"/>
<path d="M23.1016 46.9431V47.2685H23.4306V46.4143H23.1016V46.7397H22.6332V46.4143H22.3042V47.2685H22.6332V46.9431H23.1016Z" fill="#D22630"/>
<path d="M24.5225 44.2998V43.9744H24.8516V44.8286H24.5225V44.5032H24.0542V44.8286H23.7251V43.9744H24.0542V44.2998H24.5225Z" fill="#D22630"/>
<path d="M17.4666 45.72V46.0454H17.1375V45.1912H17.4666V45.5166H17.9349V45.1912H18.264V46.0454H17.9349V45.72H17.4666Z" fill="#D22630"/>
<path d="M17.4666 44.2998V43.9744H17.1375V44.8286H17.4666V44.5032H17.9349V44.8286H18.264V43.9744H17.9349V44.2998H17.4666Z" fill="#D22630"/>
<path d="M23.1016 43.0767V42.7513H23.4306V43.6055H23.1016V43.2801H22.6332V43.6055H22.3042V42.7513H22.6332V43.0767H23.1016Z" fill="#D22630"/>
<path d="M18.8875 46.9431V47.2685H18.5585V46.4143H18.8875V46.7397H19.3559V46.4143H19.685V47.2685H19.3559V46.9431H18.8875Z" fill="#D22630"/>
<path d="M18.8875 43.0767V42.7513H18.5585V43.6055H18.8875V43.2801H19.3559V43.6055H19.685V42.7513H19.3559V43.0767H18.8875Z" fill="#D22630"/>
<path d="M23.7374 43.0506V43.6605H24.8847L23.7374 43.0506ZM17.1064 46.3615L18.2536 46.9715V46.3615H17.1064Z" fill="#FFC72C"/>
<path d="M18.2535 43.0506L17.1064 43.6605H18.2535V43.0506ZM23.7374 46.3615V46.9715L24.8847 46.3615H23.7374Z" fill="white"/>
<path d="M26.3814 47.5812C26.318 47.8481 26.1031 48.0496 26.0519 48.3264C25.9493 48.0378 25.8548 47.7958 25.9254 47.4801C25.9759 47.2542 26.1683 47.0932 26.1906 46.8611C26.4004 47.0473 26.4455 47.3114 26.3814 47.5812ZM26.4346 48.6995C26.2567 48.9404 26.0093 49.1252 25.7362 49.2483C25.79 49.0374 25.6891 48.8785 25.577 48.711C25.4421 48.5094 25.3763 48.3113 25.4863 48.0791C25.5376 48.1998 25.6065 48.3001 25.6873 48.4033C25.8068 48.5643 25.8854 48.7075 25.9038 48.914C26.0421 48.8128 26.1028 48.6618 26.1767 48.5156C26.2894 48.3062 26.4713 48.1312 26.6801 48.0168C26.6246 48.2516 26.5819 48.5 26.4346 48.6995ZM25.4367 49.4175C25.4747 49.5513 25.5075 49.6839 25.5002 49.8237C25.6177 49.6987 25.7739 49.6045 25.9132 49.5037C26.1029 49.3523 26.324 49.2454 26.4791 49.0525C26.4559 49.3364 26.3329 49.5679 26.0992 49.7406C25.8523 49.9231 25.5544 50.0212 25.3112 50.2128C25.3476 49.9547 25.2515 49.7478 25.1696 49.5105C25.1014 49.2837 25.1674 49.0535 25.3232 48.8807C25.3208 49.0722 25.3821 49.2367 25.4367 49.4175ZM24.8824 50.2896C24.8313 50.4854 24.6891 50.6448 24.5921 50.8195C24.8538 50.7393 25.0847 50.5992 25.3213 50.4673C25.6031 50.3158 25.9091 50.2194 26.1642 50.0193C26.0372 50.4834 25.7226 50.7524 25.2623 50.8896C24.9475 50.9835 24.6823 50.9367 24.3004 51.0891C24.3441 50.8338 24.4213 50.5583 24.5436 50.3281C24.6384 50.1617 24.7436 49.9975 24.8022 49.8141C24.8871 49.9647 24.9273 50.1179 24.8824 50.2896ZM23.9194 50.9997C23.8293 51.1521 23.7103 51.2804 23.5628 51.3816C23.9343 51.4049 24.2333 51.1725 24.5955 51.1624C24.8193 51.1562 25.0317 51.2247 25.2598 51.2042C24.9891 51.3845 24.7056 51.542 24.3759 51.5841C23.9474 51.6389 23.5522 51.5324 23.0795 51.574C23.3004 51.4201 23.411 51.2141 23.5487 50.9925C23.728 50.7158 23.8972 50.5186 24.246 50.4741C24.106 50.6295 24.0245 50.8219 23.9194 50.9997ZM22.5999 51.6086C23.2544 51.7184 23.8816 51.8606 24.5501 51.8671C23.8019 52.1247 23.0968 52.1713 22.3547 51.9053C21.9537 51.7616 21.6461 51.6847 21.3432 51.7061C20.9006 51.7375 20.3626 51.91 19.7673 52.5299L19.5333 52.345C20.3866 51.5944 21.503 51.4244 22.5999 51.6085L22.5999 51.6086Z" fill="#FFC72C"/>
</g>
<rect x="8" y="8" width="67" height="43" rx="10" stroke="url(#paint0_linear_1527_3010)" stroke-width="4" shape-rendering="crispEdges"/>
</g>
<defs>
<filter id="filter0_dii_1527_3010" x="-1" y="-1" width="85" height="61" filterUnits="userSpaceOnUse" color-interpolation-filters="sRGB">
<feFlood flood-opacity="0" result="BackgroundImageFix"/>
<feColorMatrix in="SourceAlpha" type="matrix" values="0 0 0 0 0 0 0 0 0 0 0 0 0 0 0 0 0 0 127 0" result="hardAlpha"/>
<feOffset/>
<feGaussianBlur stdDeviation="3"/>
<feComposite in2="hardAlpha" operator="out"/>
<feColorMatrix type="matrix" values="0 0 0 0 0 0 0 0 0 0 0 0 0 0 0 0 0 0 0.7 0"/>
<feBlend mode="normal" in2="BackgroundImageFix" result="effect1_dropShadow_1527_3010"/>
<feBlend mode="normal" in="SourceGraphic" in2="effect1_dropShadow_1527_3010" result="shape"/>
<feColorMatrix in="SourceAlpha" type="matrix" values="0 0 0 0 0 0 0 0 0 0 0 0 0 0 0 0 0 0 127 0" result="hardAlpha"/>
<feOffset dx="7" dy="-7"/>
<feGaussianBlur stdDeviation="4"/>
<feComposite in2="hardAlpha" operator="arithmetic" k2="-1" k3="1"/>
<feColorMatrix type="matrix" values="0 0 0 0 0 0 0 0 0 0 0 0 0 0 0 0 0 0 0.52 0"/>
<feBlend mode="normal" in2="shape" result="effect2_innerShadow_1527_3010"/>
<feColorMatrix in="SourceAlpha" type="matrix" values="0 0 0 0 0 0 0 0 0 0 0 0 0 0 0 0 0 0 127 0" result="hardAlpha"/>
<feOffset dx="-7" dy="7"/>
<feGaussianBlur stdDeviation="3.5"/>
<feComposite in2="hardAlpha" operator="arithmetic" k2="-1" k3="1"/>
<feColorMatrix type="matrix" values="0 0 0 0 0 0 0 0 0 0 0 0 0 0 0 0 0 0 0.52 0"/>
<feBlend mode="normal" in2="effect2_innerShadow_1527_3010" result="effect3_innerShadow_1527_3010"/>
</filter>
<linearGradient id="paint0_linear_1527_3010" x1="77" y1="56.7302" x2="77" y2="17.1905" gradientUnits="userSpaceOnUse">
<stop stop-color="#D77701"/>
<stop offset="1" stop-color="#FFD52B"/>
</linearGradient>
<clipPath id="clip0_1527_3010">
<rect x="6" y="6" width="71" height="47" rx="12" fill="white"/>
</clipPath>
</defs>
</svg>
