<svg width="27" height="33" viewBox="0 0 27 33" fill="none" xmlns="http://www.w3.org/2000/svg">
<path d="M18.4852 1.29346C22.6249 11.1474 26.0849 12.647 26.0849 12.647L22.0671 9.87368L18.4179 3.63759L18.4852 1.29346Z" fill="url(#paint0_linear_1472_4281)"/>
<path d="M8.96044 25.9341L7.53792 26.1444C7.53792 26.1444 7.53442 26.0052 7.52539 25.751C7.47105 24.2324 7.2239 18.6015 6.39672 13.9266C6.29919 13.3765 6.19408 12.839 6.07988 12.3237L8.64014 13.2059L8.65967 13.9899L8.78916 19.1174L8.96044 25.9341Z" fill="url(#paint1_linear_1472_4281)"/>
<path d="M7.59155 19.3527L7.91119 25.806L7.52543 25.751C7.47109 24.2323 7.22394 18.6014 6.39676 13.9265L8.65971 13.9899L8.7892 19.1174L7.59155 19.3527Z" fill="url(#paint2_linear_1472_4281)"/>
<path d="M16.273 19.1278L17.2854 19.595C13.7343 19.8478 8.39165 20.2955 8.39165 20.2955L8.28442 19.7977L17.0598 18.5332L16.273 19.1278Z" fill="url(#paint3_radial_1472_4281)"/>
<path d="M25.7292 14.7092L14.0979 14.4463L8.92471 5.6998L18.2756 4.25977L25.7292 14.7092Z" fill="url(#paint4_linear_1472_4281)"/>
<path d="M19.3779 7.83303C17.6713 16.0335 18.0268 25.2199 18.0268 25.2199L16.3913 25.9129L16.4268 7.47171L18.0268 5.60718L19.3779 7.83303Z" fill="url(#paint5_linear_1472_4281)"/>
<path d="M26.3339 12.7895L25.7295 14.7093C22.7905 11.9591 20.4051 8.67163 18.7022 5.02448L19.0935 3.95776C19.0935 3.95776 21.338 8.32841 22.8253 9.89713C23.0836 10.1694 23.3419 10.4243 23.5961 10.6617C23.6609 10.7223 23.7256 10.7821 23.7897 10.8399C24.578 11.5643 25.4294 12.2168 26.3339 12.7895Z" fill="url(#paint6_linear_1472_4281)"/>
<path d="M18.8443 0.509033L18.7134 4.856L18.7023 5.21948L16.6517 5.46386L16.6441 5.46458L15.6901 5.57806L9.30236 6.3384L8.12076 6.47906L7.52126 6.55079L7.50245 6.55287L6.28944 5.68592C7.56923 4.37061 7.60474 4.05031 7.60474 4.05031C14.3247 3.26836 18.8443 0.509033 18.8443 0.509033Z" fill="url(#paint7_linear_1472_4281)"/>
<path d="M17.0787 4.55005L17.9557 5.273C17.9557 5.273 13.0134 14.5172 12.7293 14.6237C12.6513 14.653 12.5838 14.6774 12.5274 14.6962C12.3777 14.7477 12.3025 14.7665 12.3025 14.7665L1.38702 16.7571C0.314735 15.8749 0.0536188 14.1244 0.00835985 13.7401C0.00210005 13.6907 0 13.6642 0 13.6642C0.0974114 13.6985 0.19667 13.7273 0.297311 13.7505C0.827209 13.8821 2.50566 12.5195 5.61812 12.8461C9.22908 13.2249 11.0513 12.6971 11.5923 12.4938C11.6525 12.4723 11.7115 12.4476 11.7691 12.42L17.0787 4.55005Z" fill="url(#paint8_linear_1472_4281)"/>
<path d="M12.5276 14.696C12.3779 14.7476 12.3027 14.7664 12.3027 14.7664L9.34904 15.3053L4.5697 16.1764L1.38696 16.757C0.314676 15.8749 0.0535597 14.1244 0.00830078 13.74L0.297252 13.7505C0.579248 13.8208 1.18711 13.4671 2.16403 13.1705C3.28122 12.8276 4.4568 12.7172 5.6183 12.846C6.39031 12.9294 7.16604 12.9738 7.94252 12.979C10.0398 12.9873 11.1831 12.6475 11.5925 12.4937C11.7859 13.2726 12.1015 14.0159 12.5276 14.696Z" fill="url(#paint9_linear_1472_4281)"/>
<path d="M18.9158 0.366455L17.1024 3.38861L18.7025 5.21974L20.6222 2.76651L18.9158 0.366455Z" fill="url(#paint10_linear_1472_4281)"/>
<path style="mix-blend-mode:multiply" opacity="0.4" d="M5.47573 16.0107L3.39629 16.437L1.81363 13.4269L0.498001 13.4863L1.22095 14.8848L0.990615 13.4311C2.10782 13.0882 3.2834 12.9778 4.44492 13.1066C5.32292 13.1985 3.3959 13.6824 4.06921 13.6845C4.4114 14.5297 4.8862 15.315 5.47573 16.0107Z" fill="url(#paint11_linear_1472_4281)"/>
<path d="M17.0785 4.55029C17.0785 4.55029 16.917 4.90403 16.6441 5.46456C16.6002 5.55366 16.5535 5.64836 16.5048 5.74794L16.5027 5.7514C15.6546 7.46429 14.0197 10.5579 12.6257 11.9582C12.3823 12.2224 12.0919 12.4392 11.7693 12.5974C8.6757 13.9134 0.000556946 13.6641 0.000556946 13.6641C0.992656 13.1853 1.94946 12.6367 2.86373 12.0222C3.77579 11.4099 4.63374 10.7206 5.42817 9.96189C5.88735 9.52187 6.32027 9.05525 6.72469 8.56443C6.86393 8.39453 6.99228 8.2309 7.10974 8.07354C7.49184 7.57201 7.83009 7.03854 8.12074 6.47903C8.23494 6.25343 8.28438 6.12671 8.28438 6.12671L9.09209 5.98188L16.1852 4.71047L17.0785 4.55029Z" fill="url(#paint12_linear_1472_4281)"/>
<path d="M16.6757 26.8553C16.569 19.2465 17.3156 6.55322 17.3156 6.55322L16.4268 8.22431L16.1423 26.2864L16.6757 26.8553Z" fill="url(#paint13_linear_1472_4281)"/>
<path d="M11.0579 8.25928L10.7633 8.8092L9.20895 11.7091C9.20895 11.7091 8.77319 12.2901 4.0651 12.0861C3.69217 12.0698 3.29235 12.0494 2.86397 12.0225C2.78237 12.0176 2.7 12.0119 2.61591 12.007L2.69346 11.7639L2.77178 11.6986L4.48775 10.2657L6.50646 8.57991L6.72433 8.56443L10.4631 8.30085L10.6075 8.29107L11.0579 8.25928Z" fill="url(#paint14_linear_1472_4281)"/>
<path d="M16.2492 4.59766L16.1852 4.71039L15.69 5.5779L14.941 6.89329L14.3643 7.90427L11.6078 7.96853L10.2847 7.99983L7.10961 8.07351L6.75591 8.08182L7.52121 6.55066L7.71537 6.16233L9.0532 5.9172L16.2492 4.59766Z" fill="url(#paint15_linear_1472_4281)"/>
<path d="M10.655 12.965L11.7691 13.0835L12.1721 12.301L10.655 12.965Z" fill="#F18E36"/>
<path style="mix-blend-mode:multiply" opacity="0.5" d="M18.7023 5.21947L17.9559 5.27309L16.8418 5.09552L16.6517 5.46385L16.5048 5.74795L16.5027 5.75141L16.1065 6.51732L14.941 6.89335L11.6078 7.96843L10.6079 8.29081L10.4812 8.33186L5.42819 9.9619L4.48753 10.2655L6.50679 8.57976L6.72471 8.56444C6.86395 8.39454 6.9923 8.23091 7.10976 8.07355L6.75601 8.08191L7.52126 6.55078L7.50246 6.55286L6.28944 5.6859C10.5912 5.46099 17.1022 3.38892 17.1022 3.38892L17.9127 4.31567L18.7023 5.21947Z" fill="url(#paint16_linear_1472_4281)"/>
<path d="M18.2935 1.57544C16.7824 2.3221 13.6891 3.47764 13.6891 3.47764L10.9868 4.65097L13.7602 3.56653L17.849 2.17987L18.6312 3.97544L18.2935 1.57544Z" fill="url(#paint17_linear_1472_4281)"/>
<path d="M17.2209 2.40488C17.3587 2.3696 17.503 2.36842 17.6413 2.40146C17.7797 2.4345 17.9079 2.50076 18.0149 2.5945L17.849 2.17969L17.2209 2.40488Z" fill="#F18E36"/>
<path d="M22.4178 31.7705H3.3062L3.3103 31.7558L4.02755 28.6992L4.84431 25.224C5.71678 25.0353 6.59837 24.8915 7.48559 24.7932C7.91478 24.7401 8.39539 24.6871 8.92739 24.6373C9.21218 24.6103 9.5108 24.5843 9.82495 24.559C10.7356 24.488 11.7711 24.4276 12.9281 24.3901C13.2398 24.3795 13.5441 24.3735 13.8411 24.3721C14.6775 24.3664 15.4559 24.3925 16.1716 24.4398C16.2466 24.4447 16.3201 24.4504 16.3943 24.4562C16.4857 24.4619 16.5771 24.4692 16.6668 24.4766C17.0242 24.5059 17.3634 24.5396 17.6843 24.5777C17.7953 24.5908 17.9047 24.6039 18.0107 24.6177C19.2075 24.752 20.3888 24.9993 21.539 25.3561L21.6034 25.8278L21.889 27.9126L21.9902 28.6494L22.1844 30.0667L22.4178 31.7705Z" fill="url(#paint18_linear_1472_4281)"/>
<path d="M7.48777 31.8687L3.8608 31.7705L3.31002 31.7559L2.2405 31.7266C2.2405 31.7266 3.16031 29.0244 3.4667 28.7751C3.64499 28.7052 3.83746 28.6792 4.0279 28.6992C5.04659 28.6999 7.05537 28.9839 7.21483 29.0954C7.39584 29.2207 7.47037 31.2921 7.485 31.7705C7.48708 31.8332 7.48777 31.8687 7.48777 31.8687Z" fill="#698095"/>
<path d="M10.596 31.7703C10.5919 31.9388 10.5884 32.046 10.5884 32.046L8.13046 31.9827L7.82824 31.975C7.82824 31.975 7.81296 31.8963 7.79135 31.7703C7.71826 31.3365 7.5755 30.3464 7.76005 30.1264C7.87979 29.9836 8.55867 29.8673 9.21806 29.8012C9.66011 29.7316 10.1095 29.7213 10.5542 29.7705C10.6336 29.8534 10.61 31.1833 10.596 31.7703Z" fill="#8D8979"/>
<path d="M17.9483 32.1882L14.2168 32.0921L11.0313 32.0107C11.0313 32.0107 11.0306 31.9222 11.0306 31.7705C11.0299 31.3603 11.0348 30.4927 11.0745 29.7032C11.1155 28.8982 11.1928 28.1755 11.3377 28.0996C11.6789 27.922 15.8002 27.0684 16.1066 27.1749C16.4137 27.2822 17.2088 27.1749 17.7777 29.0953C17.8787 29.9835 17.9321 30.8765 17.9378 31.7705C17.9448 32.0239 17.9483 32.1882 17.9483 32.1882Z" fill="#698095"/>
<path d="M23.9112 32.3663L18.2552 32.1171C18.2552 32.1171 18.2392 31.9813 18.2169 31.7703C18.1801 31.411 18.1257 30.8317 18.1041 30.3283C18.0839 29.8339 18.0958 29.412 18.187 29.3437C18.3875 29.194 20.7577 28.6168 21.9901 28.6495C22.1781 28.6466 22.365 28.677 22.5423 28.7394C23.0305 28.9509 23.4582 29.2809 23.7866 29.6995L23.9112 32.3663Z" fill="#698095"/>
<path style="mix-blend-mode:multiply" opacity="0.5" d="M12.3026 31.8687L14.2167 32.0922L11.0312 32.0107C11.0312 32.0107 11.0305 31.9223 11.0305 31.7705H10.7353L11.0744 29.7032L11.3376 28.0996C11.9823 28.775 12.1244 29.9483 12.1244 29.9483L12.2936 31.7705L12.3026 31.8687Z" fill="url(#paint19_linear_1472_4281)"/>
<path style="mix-blend-mode:multiply" opacity="0.5" d="M23.9113 32.3666L18.2553 32.1173C18.2553 32.1173 18.2393 31.9815 18.217 31.7706H17.9831L18.1042 30.3286L18.1871 29.344C18.1871 29.344 19.1292 30.2687 19.7335 30.4107C20.0573 30.4866 21.1965 30.2777 22.1845 30.0667C23.0423 29.8836 23.7867 29.6998 23.7867 29.6998L23.9113 32.3666Z" fill="url(#paint20_linear_1472_4281)"/>
<path d="M19.1645 30.1382C19.9112 30.2923 20.3378 30.3989 20.3378 30.3989L19.8401 30.6419L19.1645 30.1382Z" fill="#96ACBE"/>
<path style="mix-blend-mode:multiply" opacity="0.8" d="M9.88441 25.095C9.47567 24.8639 4.84467 25.2238 4.84467 25.2238L4.0279 28.699C3.83746 28.679 3.64499 28.7051 3.4667 28.7749C3.16031 29.0242 2.2405 31.7265 2.2405 31.7265L3.31002 31.7558L3.30653 31.7704H3.8608L7.48777 31.8686C7.48777 31.8686 7.48708 31.833 7.485 31.7704H7.79135C7.81295 31.8964 7.82824 31.9751 7.82824 31.9751L8.13045 31.9828L8.14646 31.7704L8.28434 29.9482L9.21805 29.8013L9.63582 29.7351C9.63582 29.7351 9.51885 28.4894 9.88441 25.095Z" fill="url(#paint21_linear_1472_4281)"/>
<path d="M17.4341 18.6301L16.7231 20.384V22.2331L18.0504 19.2938L17.4341 18.6301Z" fill="url(#paint22_linear_1472_4281)"/>
<path d="M24.0533 21.2725L23.9467 22.0906C23.9467 22.0906 20.9603 21.9486 20.8531 21.6993C20.7465 21.4507 20.8176 19.5303 20.7111 19.3883C20.6762 19.3417 19.3888 19.4169 17.6696 19.538C17.3709 19.3229 17.1133 18.9657 17.5116 18.4636L18.6605 18.2979C19.361 18.1938 20.0667 18.1285 20.7744 18.1023C20.9019 18.0928 21.03 18.1111 21.1497 18.1559C21.2326 18.2081 21.2451 18.4775 21.2277 18.8396C21.1859 19.7163 20.9722 21.1318 21.1734 21.308C21.4575 21.5572 24.0533 21.2725 24.0533 21.2725Z" fill="url(#paint23_radial_1472_4281)"/>
<path d="M25.0163 20.8379L24.9745 22.2681L24.9648 22.6002C23.7609 22.5981 22.5617 22.4501 21.3935 22.1595C21.3178 22.0133 21.2959 21.8452 21.3315 21.6846C21.4058 21.4536 21.5678 21.2611 21.7827 21.1484L25.0163 20.8379Z" fill="url(#paint24_linear_1472_4281)"/>
<path d="M21.2277 18.8396C20.9346 18.7247 20.5349 18.5089 20.5273 18.1796L20.7745 18.1023C20.902 18.0928 21.03 18.1111 21.1498 18.1559C21.2326 18.2081 21.2452 18.4775 21.2277 18.8396Z" fill="#CAC8E8"/>
<path d="M10.5957 19.2819L12.4623 18.9797L12.4091 20.2658L10.6492 20.3309L10.5957 19.2819Z" fill="#543460"/>
<path d="M12.8357 18.9855L12.7645 24.3899L13.0016 24.3664L13.144 18.9146L12.8357 18.9855Z" fill="#543460"/>
<path style="mix-blend-mode:multiply" opacity="0.4" d="M23.7898 10.84L23.6672 12.3628L23.3353 10.3953C23.4 10.4558 23.7257 10.7822 23.7898 10.84Z" fill="url(#paint25_linear_1472_4281)"/>
<path style="mix-blend-mode:multiply" opacity="0.5" d="M5.32166 12.1827L9.20902 12.2064L10.4653 9.48047C10.4653 9.48047 9.49348 11.5427 8.99569 11.8034C8.49792 12.0642 5.32166 12.1827 5.32166 12.1827Z" fill="url(#paint26_linear_1472_4281)"/>
<path style="mix-blend-mode:multiply" opacity="0.5" d="M19.129 9.07749L17.2447 7.47736L16.4268 8.27757L17.3156 6.55307L18.0269 5.60718L19.378 7.83301L19.129 9.07749Z" fill="url(#paint27_linear_1472_4281)"/>
<path style="mix-blend-mode:multiply" opacity="0.5" d="M24.9745 22.2681L24.9648 22.6002C23.7609 22.5981 22.5617 22.4501 21.3935 22.1595C21.3178 22.0133 21.2959 21.8452 21.3315 21.6846C23.5534 22.8516 24.7823 21.7828 24.7823 21.7828L24.9745 22.2681Z" fill="url(#paint28_linear_1472_4281)"/>
<path d="M25.0163 20.8376C24.2645 22.1078 24.9644 22.6004 24.9644 22.6004C24.9644 22.6004 25.4829 21.9264 25.4569 21.6931C25.3491 21.3895 25.2009 21.1017 25.0163 20.8376Z" fill="url(#paint29_linear_1472_4281)"/>
<g style="mix-blend-mode:screen" opacity="0.4">
<path d="M4.26166 12.1163L2.77906 12.0796L2.59467 12.0747L2.61586 12.007L2.69341 11.7638L2.72033 11.679L2.77174 11.6985C2.90308 11.7491 3.02549 11.7932 3.13971 11.8323C3.44186 11.9384 3.75106 12.0232 4.06505 12.0861C4.19557 12.1106 4.26166 12.1163 4.26166 12.1163Z" fill="#0CA8B8"/>
</g>
<g style="mix-blend-mode:multiply" opacity="0.4">
<path fill-rule="evenodd" clip-rule="evenodd" d="M5.47408 28.0922C6.29367 28.1118 6.24082 27.7795 6.17992 27.7449C5.88333 27.7152 5.58398 27.7299 5.29174 27.7886C5.19344 27.8443 5.47408 28.0922 5.47408 28.0922Z" fill="url(#paint30_linear_1472_4281)"/>
<path fill-rule="evenodd" clip-rule="evenodd" d="M11.3144 26.5542C12.163 26.7352 13.4954 26.1993 13.5346 25.9286C13.5187 25.6194 13.4526 25.3149 13.3389 25.0269C13.3389 25.0269 11.5259 25.0098 11.1915 25.2381C10.8571 25.4665 10.4242 26.3642 11.3144 26.5542Z" fill="url(#paint31_linear_1472_4281)"/>
<path fill-rule="evenodd" clip-rule="evenodd" d="M13.9816 26.4618C14.4816 26.1424 15.0842 26.0247 15.6677 26.1325L15.4927 26.7537L14.1868 26.6761L13.9816 26.4618Z" fill="url(#paint32_linear_1472_4281)"/>
</g>
<g style="mix-blend-mode:screen" opacity="0.6">
<path d="M21.889 27.9125C21.7406 28.0873 21.5439 28.2144 21.3236 28.2779C21.1032 28.3413 20.869 28.3382 20.6504 28.2691C19.455 27.8497 18.972 26.2569 17.8981 24.8453C17.8288 24.7547 17.7586 24.6658 17.6843 24.5776C17.7953 24.5907 17.9047 24.6038 18.0107 24.6177C19.2075 24.7519 20.3888 24.9992 21.539 25.3561L21.6034 25.8277L21.889 27.9125Z" fill="#FFEB9B"/>
</g>
<g style="mix-blend-mode:screen" opacity="0.6">
<path d="M21.539 25.3561L21.6035 25.8278C20.3896 25.4249 19.1522 25.0968 17.8982 24.8454C16.4871 24.5444 15.049 24.388 13.6062 24.3786L13.8412 24.3721C14.6776 24.3664 15.456 24.3925 16.1716 24.4398C16.2467 24.4447 16.3201 24.4504 16.3943 24.4562C16.4857 24.4619 16.5772 24.4692 16.6669 24.4766C17.0243 24.5059 17.3634 24.5396 17.6844 24.5777C17.7954 24.5908 17.9047 24.6039 18.0108 24.6177C19.2075 24.752 20.3889 24.9993 21.539 25.3561Z" fill="#FFEB9B"/>
</g>
<path d="M8.28433 19.7976L7.70599 22.5192L7.76166 23.769L8.56712 20.3524L8.28433 19.7976Z" fill="url(#paint33_linear_1472_4281)"/>
<defs>
<linearGradient id="paint0_linear_1472_4281" x1="23.7727" y1="1.94039" x2="18.4069" y2="20.0821" gradientUnits="userSpaceOnUse">
<stop stop-color="#096083"/>
<stop offset="1" stop-color="#003E54"/>
</linearGradient>
<linearGradient id="paint1_linear_1472_4281" x1="6.07988" y1="19.2341" x2="8.96044" y2="19.2341" gradientUnits="userSpaceOnUse">
<stop stop-color="#F18E36"/>
<stop offset="1" stop-color="#DB6221"/>
</linearGradient>
<linearGradient id="paint2_linear_1472_4281" x1="15.3351" y1="25.1698" x2="6.58847" y2="18.7698" gradientUnits="userSpaceOnUse">
<stop offset="0.02235" stop-color="#D86A39"/>
<stop offset="0.99441" stop-color="#971C36"/>
</linearGradient>
<radialGradient id="paint3_radial_1472_4281" cx="0" cy="0" r="1" gradientUnits="userSpaceOnUse" gradientTransform="translate(13.9735 18.2982) scale(4.49676 4.49676)">
<stop stop-color="#7E7EB4"/>
<stop offset="1" stop-color="#604E6D"/>
</radialGradient>
<linearGradient id="paint4_linear_1472_4281" x1="26.8817" y1="16.1435" x2="17.3468" y2="10.0896" gradientUnits="userSpaceOnUse">
<stop offset="0.02235" stop-color="#D86A39"/>
<stop offset="0.99441" stop-color="#971C36"/>
</linearGradient>
<linearGradient id="paint5_linear_1472_4281" x1="16.3913" y1="15.7601" x2="19.3779" y2="15.7601" gradientUnits="userSpaceOnUse">
<stop stop-color="#F18E36"/>
<stop offset="1" stop-color="#DB6221"/>
</linearGradient>
<linearGradient id="paint6_linear_1472_4281" x1="23.4041" y1="5.79281" x2="19.6433" y2="19.0114" gradientUnits="userSpaceOnUse">
<stop stop-color="#F18E36"/>
<stop offset="1" stop-color="#DB6221"/>
</linearGradient>
<linearGradient id="paint7_linear_1472_4281" x1="17.3194" y1="-1.8395" x2="7.75954" y2="12.6131" gradientUnits="userSpaceOnUse">
<stop offset="0.02235" stop-color="#D86A39"/>
<stop offset="0.99441" stop-color="#971C36"/>
</linearGradient>
<linearGradient id="paint8_linear_1472_4281" x1="22.0878" y1="11.6729" x2="9.98118" y2="10.7129" gradientUnits="userSpaceOnUse">
<stop stop-color="#F18E36"/>
<stop offset="1" stop-color="#DB6221"/>
</linearGradient>
<linearGradient id="paint9_linear_1472_4281" x1="13.7507" y1="3.98892" x2="1.82251" y2="20.2951" gradientUnits="userSpaceOnUse">
<stop offset="0.02235" stop-color="#D86A39"/>
<stop offset="0.99441" stop-color="#971C36"/>
</linearGradient>
<linearGradient id="paint10_linear_1472_4281" x1="19.0299" y1="2.56833" x2="17.2876" y2="7.86609" gradientUnits="userSpaceOnUse">
<stop stop-color="#F18E36"/>
<stop offset="1" stop-color="#DB6221"/>
</linearGradient>
<linearGradient id="paint11_linear_1472_4281" x1="4.9416" y1="17.583" x2="2.34606" y2="12.9608" gradientUnits="userSpaceOnUse">
<stop stop-color="white"/>
<stop offset="0.98278" stop-color="#A80038"/>
</linearGradient>
<linearGradient id="paint12_linear_1472_4281" x1="0.000556946" y1="9.11659" x2="17.0785" y2="9.11659" gradientUnits="userSpaceOnUse">
<stop stop-color="#096083"/>
<stop offset="1" stop-color="#003E54"/>
</linearGradient>
<linearGradient id="paint13_linear_1472_4281" x1="21.3582" y1="24.6767" x2="12.2383" y2="8.41007" gradientUnits="userSpaceOnUse">
<stop offset="0.02235" stop-color="#D86A39"/>
<stop offset="0.99441" stop-color="#971C36"/>
</linearGradient>
<linearGradient id="paint14_linear_1472_4281" x1="4.7777" y1="8.23798" x2="17.5927" y2="20.032" gradientUnits="userSpaceOnUse">
<stop stop-color="#0A698F"/>
<stop offset="1" stop-color="#004760"/>
</linearGradient>
<linearGradient id="paint15_linear_1472_4281" x1="8.76632" y1="3.82148" x2="21.7083" y2="15.7324" gradientUnits="userSpaceOnUse">
<stop stop-color="#096083"/>
<stop offset="1" stop-color="#003E54"/>
</linearGradient>
<linearGradient id="paint16_linear_1472_4281" x1="11.9977" y1="5.58936" x2="10.5532" y2="13.3115" gradientUnits="userSpaceOnUse">
<stop stop-color="#700065"/>
<stop offset="1" stop-color="white"/>
</linearGradient>
<linearGradient id="paint17_linear_1472_4281" x1="19.6149" y1="6.06623" x2="12.3054" y2="1.72727" gradientUnits="userSpaceOnUse">
<stop offset="0.02235" stop-color="#D86A39"/>
<stop offset="0.99441" stop-color="#971C36"/>
</linearGradient>
<linearGradient id="paint18_linear_1472_4281" x1="9.59201" y1="31.6183" x2="21.3255" y2="22.5515" gradientUnits="userSpaceOnUse">
<stop stop-color="#A6BFDC"/>
<stop offset="0.25409" stop-color="#C4D9DB"/>
<stop offset="0.5102" stop-color="#DBECDA"/>
<stop offset="0.75163" stop-color="#E9F8D9"/>
<stop offset="0.96138" stop-color="#EEFCD9"/>
</linearGradient>
<linearGradient id="paint19_linear_1472_4281" x1="10.7353" y1="30.0959" x2="14.2167" y2="30.0959" gradientUnits="userSpaceOnUse">
<stop stop-color="#700065"/>
<stop offset="1" stop-color="white"/>
</linearGradient>
<linearGradient id="paint20_linear_1472_4281" x1="17.2369" y1="34.825" x2="24.988" y2="26.7539" gradientUnits="userSpaceOnUse">
<stop stop-color="#700065"/>
<stop offset="1" stop-color="white"/>
</linearGradient>
<linearGradient id="paint21_linear_1472_4281" x1="3.04432" y1="31.0045" x2="12.3399" y2="24.5221" gradientUnits="userSpaceOnUse">
<stop stop-color="#4F4A8C"/>
<stop offset="1" stop-color="white"/>
</linearGradient>
<linearGradient id="paint22_linear_1472_4281" x1="16.2273" y1="21.7606" x2="18.6984" y2="17.9028" gradientUnits="userSpaceOnUse">
<stop offset="0.02235" stop-color="#D86A39"/>
<stop offset="0.99441" stop-color="#971C36"/>
</linearGradient>
<radialGradient id="paint23_radial_1472_4281" cx="0" cy="0" r="1" gradientUnits="userSpaceOnUse" gradientTransform="translate(21.8848 17.2681) scale(3.52549)">
<stop stop-color="#CAC8E8"/>
<stop offset="1" stop-color="#9A8DA0"/>
</radialGradient>
<linearGradient id="paint24_linear_1472_4281" x1="24.6873" y1="19.8671" x2="22.6266" y2="22.8609" gradientUnits="userSpaceOnUse">
<stop offset="0.02235" stop-color="#D86A39"/>
<stop offset="0.99441" stop-color="#971C36"/>
</linearGradient>
<linearGradient id="paint25_linear_1472_4281" x1="24.1623" y1="8.61139" x2="22.9902" y2="13.5186" gradientUnits="userSpaceOnUse">
<stop stop-color="white"/>
<stop offset="0.98278" stop-color="#A80038"/>
</linearGradient>
<linearGradient id="paint26_linear_1472_4281" x1="8.58354" y1="8.49855" x2="6.09466" y2="16.9133" gradientUnits="userSpaceOnUse">
<stop stop-color="#700065"/>
<stop offset="1" stop-color="white"/>
</linearGradient>
<linearGradient id="paint27_linear_1472_4281" x1="21.9391" y1="14.5574" x2="17.4947" y2="7.37518" gradientUnits="userSpaceOnUse">
<stop stop-color="white"/>
<stop offset="0.98278" stop-color="#A80038"/>
</linearGradient>
<linearGradient id="paint28_linear_1472_4281" x1="23.743" y1="20.8716" x2="23.0953" y2="22.2552" gradientUnits="userSpaceOnUse">
<stop stop-color="white"/>
<stop offset="0.98278" stop-color="#A80038"/>
</linearGradient>
<linearGradient id="paint29_linear_1472_4281" x1="24.6682" y1="21.719" x2="25.4579" y2="21.719" gradientUnits="userSpaceOnUse">
<stop stop-color="#F18E36"/>
<stop offset="1" stop-color="#DB6221"/>
</linearGradient>
<linearGradient id="paint30_linear_1472_4281" x1="13.1942" y1="20.353" x2="12.4635" y2="33.4452" gradientUnits="userSpaceOnUse">
<stop stop-color="#4F4A8C"/>
<stop offset="1" stop-color="white"/>
</linearGradient>
<linearGradient id="paint31_linear_1472_4281" x1="17.9787" y1="19.9501" x2="17.2481" y2="33.0418" gradientUnits="userSpaceOnUse">
<stop stop-color="#4F4A8C"/>
<stop offset="1" stop-color="white"/>
</linearGradient>
<linearGradient id="paint32_linear_1472_4281" x1="21.1815" y1="20.129" x2="20.4509" y2="33.2203" gradientUnits="userSpaceOnUse">
<stop stop-color="#4F4A8C"/>
<stop offset="1" stop-color="white"/>
</linearGradient>
<linearGradient id="paint33_linear_1472_4281" x1="7.47673" y1="24.7624" x2="8.83783" y2="17.9013" gradientUnits="userSpaceOnUse">
<stop offset="0.02235" stop-color="#D86A39"/>
<stop offset="0.99441" stop-color="#971C36"/>
</linearGradient>
</defs>
</svg>
