<svg width="32" height="30" viewBox="0 0 32 30" fill="none" xmlns="http://www.w3.org/2000/svg">
<path d="M14.4999 11.666C14.6341 11.666 14.7684 11.6174 14.8709 11.5201L15.1507 11.2544C15.3556 11.0599 15.3556 10.7445 15.1507 10.55C14.9458 10.3554 14.6136 10.3554 14.4087 10.55L14.1288 10.8156C13.7973 11.1304 14.0366 11.666 14.4999 11.666Z" fill="white"/>
<path d="M16.7387 11.9317C16.873 11.9317 17.0073 11.8831 17.1097 11.7858L17.3896 11.5201C17.5945 11.3256 17.5945 11.0102 17.3896 10.8156C17.1847 10.6211 16.8524 10.6211 16.6475 10.8156L16.3676 11.0813C16.0361 11.3961 16.2755 11.9317 16.7387 11.9317Z" fill="white"/>
<path d="M14.4999 13.7914C14.6341 13.7914 14.7684 13.7428 14.8709 13.6455L15.1507 13.3798C15.3556 13.1853 15.3556 12.8699 15.1507 12.6754C14.9458 12.4808 14.6136 12.4808 14.4087 12.6754L14.1288 12.9411C13.7973 13.2558 14.0366 13.7914 14.4999 13.7914Z" fill="white"/>
<path d="M7.7486 15.9169H24.6096C24.8994 15.9169 25.1343 15.6938 25.1343 15.4187C25.1343 15.1436 24.8994 14.9206 24.6096 14.9206H23.9799V8.69206C23.9799 7.44073 22.9136 6.42639 21.5937 6.42639C21.0425 6.42639 20.5047 6.60934 20.0796 6.94044L19.75 7.19711C19.0126 6.78508 18.0457 6.8792 17.4132 7.47966L16.6217 8.23108C16.4168 8.42562 16.4168 8.74101 16.6217 8.93555L18.6006 10.8142C18.8055 11.0087 19.1377 11.0087 19.3426 10.8142C20.1829 10.0165 20.1307 10.0627 20.1342 10.0627C20.7441 9.48377 20.8581 8.60957 20.4763 7.92018L20.7453 7.71069C20.9821 7.52618 21.2814 7.4239 21.5878 7.4227C22.3048 7.41659 22.9305 7.96996 22.9305 8.69206V14.9206C22.3929 14.9206 8.28112 14.9206 7.7486 14.9206C7.45881 14.9206 7.22388 15.1437 7.22388 15.4188C7.22388 15.6939 7.45881 15.9169 7.7486 15.9169Z" fill="white"/>
<path d="M8.65594 16.9131L8.87951 18.0804C9.21222 19.8177 10.5701 21.1669 12.2962 21.6078V22.3263C12.2962 22.6014 12.5312 22.8244 12.821 22.8244C13.1107 22.8244 13.3457 22.6014 13.3457 22.3263V21.7583C13.5095 21.7642 18.8677 21.7635 19.0127 21.7583V22.3263C19.0127 22.6014 19.2476 22.8244 19.5374 22.8244C19.8272 22.8244 20.0621 22.6014 20.0621 22.3263V21.6078C21.7883 21.1669 23.1461 19.8177 23.4788 18.0805L23.7024 16.9132H8.65594V16.9131Z" fill="white"/>
<rect x="0.507446" y="0.0501709" width="31.3433" height="29.7555" rx="5" fill="white" fill-opacity="0.2"/>
</svg>
