<svg width="32" height="30" viewBox="0 0 32 30" fill="none" xmlns="http://www.w3.org/2000/svg">
<rect x="0.388062" y="0.0501709" width="31.3433" height="29.7555" rx="5" fill="white" fill-opacity="0.2"/>
<g clip-path="url(#clip0_365_1037)">
<path d="M25.0149 14.5028V22.1542H23.2239V19.6037H8.89554V22.1542H7.10449V8.5517H8.89554V17.0533H16.0597V11.1022H21.4329C22.3829 11.1022 23.294 11.4604 23.9658 12.0982C24.6375 12.7359 25.0149 13.6009 25.0149 14.5028ZM12.4776 16.2031C11.7651 16.2031 11.0818 15.9344 10.5779 15.4561C10.0741 14.9778 9.79106 14.3291 9.79106 13.6526C9.79106 12.9762 10.0741 12.3275 10.5779 11.8492C11.0818 11.3709 11.7651 11.1022 12.4776 11.1022C13.1901 11.1022 13.8735 11.3709 14.3773 11.8492C14.8811 12.3275 15.1642 12.9762 15.1642 13.6526C15.1642 14.3291 14.8811 14.9778 14.3773 15.4561C13.8735 15.9344 13.1901 16.2031 12.4776 16.2031Z" fill="white"/>
</g>
<defs>
<clipPath id="clip0_365_1037">
<rect width="26.8657" height="25.5047" fill="white" transform="translate(2.62689 2.17554)"/>
</clipPath>
</defs>
</svg>
