<svg width="39" height="37" viewBox="0 0 39 37" fill="none" xmlns="http://www.w3.org/2000/svg">
<ellipse cx="19.5821" cy="18.3197" rx="19.0299" ry="18.0658" fill="black" fill-opacity="0.24"/>
<g clip-path="url(#clip0_365_1018)">
<path d="M13.7053 9.81818H25.459C25.6817 9.81818 25.8952 9.90215 26.0527 10.0516C26.2101 10.2011 26.2986 10.4038 26.2986 10.6152V25.8726C26.2987 25.9438 26.2786 26.0138 26.2405 26.0752C26.2025 26.1366 26.1477 26.1872 26.0821 26.2218C26.0164 26.2563 25.9422 26.2734 25.8672 26.2714C25.7921 26.2695 25.719 26.2484 25.6555 26.2105L19.5821 22.5944L13.5088 26.2097C13.4453 26.2476 13.3723 26.2686 13.2973 26.2706C13.2224 26.2727 13.1482 26.2556 13.0826 26.2211C13.0169 26.1867 12.9622 26.1363 12.9241 26.075C12.8859 26.0137 12.8658 25.9438 12.8657 25.8726V10.6152C12.8657 10.4038 12.9542 10.2011 13.1116 10.0516C13.2691 9.90215 13.4826 9.81818 13.7053 9.81818ZM24.6195 11.4122H14.5448V23.7119L19.5821 20.7143L24.6195 23.7119V11.4122Z" fill="white"/>
</g>
<defs>
<clipPath id="clip0_365_1018">
<rect width="26.8657" height="25.5047" fill="white" transform="translate(6.14929 5.56738)"/>
</clipPath>
</defs>
</svg>
