<svg width="72" height="48" viewBox="0 0 72 48" fill="none" xmlns="http://www.w3.org/2000/svg">
<g filter="url(#filter0_d_365_564)">
<rect x="11" y="4" width="46" height="40" rx="16" fill="white" fill-opacity="0.25" shape-rendering="crispEdges"/>
<path d="M29.9175 29.8068L37.8084 22.2535C38.7558 21.3467 38.7558 19.8764 37.8084 18.9695C36.861 18.0626 35.325 18.0626 34.3776 18.9695L26.5439 26.4681C24.7438 28.1911 24.7438 30.9847 26.5439 32.7077C28.3439 34.4308 31.2624 34.4308 33.0624 32.7077L41.0105 25.0997C43.6632 22.5605 43.6632 18.4436 41.0105 15.9044C38.3578 13.3652 34.0569 13.3652 31.4042 15.9044L25 22.0346" stroke="url(#paint0_linear_365_564)" stroke-width="1.5" stroke-linecap="round"/>
</g>
<defs>
<filter id="filter0_d_365_564" x="-4" y="-11" width="76" height="70" filterUnits="userSpaceOnUse" color-interpolation-filters="sRGB">
<feFlood flood-opacity="0" result="BackgroundImageFix"/>
<feColorMatrix in="SourceAlpha" type="matrix" values="0 0 0 0 0 0 0 0 0 0 0 0 0 0 0 0 0 0 127 0" result="hardAlpha"/>
<feOffset/>
<feGaussianBlur stdDeviation="7.5"/>
<feComposite in2="hardAlpha" operator="out"/>
<feColorMatrix type="matrix" values="0 0 0 0 0 0 0 0 0 0 0 0 0 0 0 0 0 0 0.05 0"/>
<feBlend mode="normal" in2="BackgroundImageFix" result="effect1_dropShadow_365_564"/>
<feBlend mode="normal" in="SourceGraphic" in2="effect1_dropShadow_365_564" result="shape"/>
</filter>
<linearGradient id="paint0_linear_365_564" x1="34" y1="14" x2="34" y2="34" gradientUnits="userSpaceOnUse">
<stop stop-color="#7FBBFB"/>
<stop offset="1" stop-color="#A3EEBE"/>
</linearGradient>
</defs>
</svg>
