<svg width="24" height="24" viewBox="0 0 24 24" fill="none" xmlns="http://www.w3.org/2000/svg">
<path d="M2.40002 20.4L1.61916 19.7753C1.37902 20.0755 1.3322 20.4867 1.49872 20.8332C1.66524 21.1796 2.01562 21.4 2.40002 21.4V20.4ZM7.68002 13.8L8.46089 13.1753C8.27112 12.9381 7.98381 12.8 7.68002 12.8C7.37624 12.8 7.08893 12.9381 6.89915 13.1753L7.68002 13.8ZM9.60002 16.2L8.81915 16.8247C9.00893 17.0619 9.29624 17.2 9.60002 17.2C9.90381 17.2 10.1911 17.0619 10.3809 16.8247L9.60002 16.2ZM13.92 10.8L14.7009 10.1753C14.5111 9.93807 14.2238 9.79998 13.92 9.79998C13.6162 9.79998 13.3289 9.93807 13.1392 10.1753L13.92 10.8ZM21.6 20.4V21.4C21.9844 21.4 22.3348 21.1796 22.5013 20.8332C22.6678 20.4867 22.621 20.0755 22.3809 19.7753L21.6 20.4ZM7.40002 5.39998C7.40002 5.8418 7.04185 6.19998 6.60002 6.19998V8.19998C8.14642 8.19998 9.40002 6.94637 9.40002 5.39998H7.40002ZM6.60002 6.19998C6.1582 6.19998 5.80002 5.8418 5.80002 5.39998H3.80002C3.80002 6.94637 5.05363 8.19998 6.60002 8.19998V6.19998ZM5.80002 5.39998C5.80002 4.95815 6.1582 4.59998 6.60002 4.59998V2.59998C5.05363 2.59998 3.80002 3.85358 3.80002 5.39998H5.80002ZM6.60002 4.59998C7.04185 4.59998 7.40002 4.95815 7.40002 5.39998H9.40002C9.40002 3.85358 8.14642 2.59998 6.60002 2.59998V4.59998ZM3.18089 21.0247L8.46089 14.4247L6.89915 13.1753L1.61916 19.7753L3.18089 21.0247ZM6.89915 14.4247L8.81915 16.8247L10.3809 15.5753L8.46089 13.1753L6.89915 14.4247ZM10.3809 16.8247L14.7009 11.4247L13.1392 10.1753L8.81915 15.5753L10.3809 16.8247ZM13.1392 11.4247L20.8192 21.0247L22.3809 19.7753L14.7009 10.1753L13.1392 11.4247ZM21.6 19.4H2.40002V21.4H21.6V19.4Z" fill="black"/>
</svg>
