<svg width="40" height="46" viewBox="0 0 40 46" fill="none" xmlns="http://www.w3.org/2000/svg">
<rect x="40" width="46" height="40" rx="16" transform="rotate(90 40 0)" fill="url(#paint0_linear_365_1124)"/>
<path d="M16.9985 30.3514L23.6763 27.3469C27.8921 25.4502 30 24.5018 30 23C30 21.4982 27.8921 20.5498 23.6764 18.6531L16.9985 15.6486C14.4386 14.4969 13.1587 13.9211 12.3529 14.0087C11.1888 14.1353 10.2485 14.9234 10.0256 15.9593C9.87139 16.6764 10.419 17.866 11.5143 20.2452C11.9195 21.1255 12.1221 21.5656 12.2257 22.0166C12.3746 22.6653 12.3746 23.3347 12.2257 23.9834C12.1221 24.4344 11.9195 24.8745 11.5143 25.7548C10.419 28.134 9.87139 29.3236 10.0256 30.0407C10.2485 31.0766 11.1888 31.8647 12.3529 31.9913C13.1587 32.0789 14.4386 31.5031 16.9985 30.3514Z" stroke="white" stroke-width="1.5"/>
<defs>
<linearGradient id="paint0_linear_365_1124" x1="63" y1="0" x2="63" y2="40" gradientUnits="userSpaceOnUse">
<stop stop-color="#4285F4"/>
<stop offset="1" stop-color="#6BFA79" stop-opacity="0.51"/>
</linearGradient>
</defs>
</svg>
