<svg width="24" height="24" viewBox="0 0 24 24" fill="none" xmlns="http://www.w3.org/2000/svg">
<path d="M16.4706 10.0212C16.4706 8.68891 15.95 7.41123 15.0233 6.46918C14.0967 5.52714 12.8399 4.9979 11.5294 4.9979C10.2189 4.9979 8.9621 5.52714 8.03545 6.46918C7.1088 7.41123 6.58821 8.68891 6.58821 10.0212V16.7188H16.4706V10.0212ZM18.1176 17.2773L18.447 17.7235C18.4929 17.7857 18.5209 17.8596 18.5277 17.9371C18.5346 18.0145 18.5201 18.0923 18.4859 18.1619C18.4517 18.2314 18.3991 18.2899 18.3341 18.3307C18.2691 18.3716 18.1941 18.3933 18.1176 18.3933H4.94115C4.86468 18.3933 4.78972 18.3716 4.72468 18.3307C4.65963 18.2899 4.60706 18.2314 4.57286 18.1619C4.53866 18.0923 4.52419 18.0145 4.53105 17.9371C4.53792 17.8596 4.56586 17.7857 4.61174 17.7235L4.94115 17.2773V10.0212C4.94115 8.24483 5.63527 6.54125 6.8708 5.28519C8.10634 4.02913 9.78208 3.32349 11.5294 3.32349C13.2767 3.32349 14.9524 4.02913 16.188 5.28519C17.4235 6.54125 18.1176 8.24483 18.1176 10.0212V17.2773ZM9.47056 19.2305H13.5882C13.5882 19.7856 13.3713 20.3179 12.9852 20.7105C12.5991 21.103 12.0754 21.3235 11.5294 21.3235C10.9834 21.3235 10.4597 21.103 10.0736 20.7105C9.68748 20.3179 9.47056 19.7856 9.47056 19.2305Z" fill="white"/>
<circle cx="16" cy="5" r="3" fill="url(#paint0_linear_365_606)"/>
<defs>
<linearGradient id="paint0_linear_365_606" x1="16" y1="2" x2="16" y2="8" gradientUnits="userSpaceOnUse">
<stop stop-color="#0B8ED9"/>
<stop offset="1" stop-color="#FBFDFF"/>
</linearGradient>
</defs>
</svg>
