<svg width="190" height="75" viewBox="0 0 190 75" fill="none" xmlns="http://www.w3.org/2000/svg">
<g filter="url(#filter0_d_446_13347)">
<rect x="23" y="16" width="144" height="29.12" rx="14.56" fill="url(#paint0_linear_446_13347)"/>
<path d="M84.2976 28.972V34.56H83.3731V27.2669H84.1538L88.6119 32.9679V27.2772H89.5363V34.56H88.694L84.2976 28.972ZM96.2289 33.7383V34.56H91.2778V27.2669H96.1364V28.0887H92.2022V30.4512H95.6228V31.2216H92.2022V33.7383H96.2289ZM100.168 27.308H101.041L102.007 29.8452L102.982 27.308H103.856L102.592 30.482L103.845 33.4917L106.311 27.2669H107.317L104.266 34.56H103.465L102.017 31.1189L100.558 34.56H99.757L96.7165 27.2669H97.7129L100.188 33.4917L101.431 30.482L100.168 27.308Z" fill="white"/>
</g>
<defs>
<filter id="filter0_d_446_13347" x="0.743946" y="0.591962" width="188.512" height="73.6322" filterUnits="userSpaceOnUse" color-interpolation-filters="sRGB">
<feFlood flood-opacity="0" result="BackgroundImageFix"/>
<feColorMatrix in="SourceAlpha" type="matrix" values="0 0 0 0 0 0 0 0 0 0 0 0 0 0 0 0 0 0 127 0" result="hardAlpha"/>
<feMorphology radius="1.712" operator="dilate" in="SourceAlpha" result="effect1_dropShadow_446_13347"/>
<feOffset dy="6.84802"/>
<feGaussianBlur stdDeviation="10.272"/>
<feColorMatrix type="matrix" values="0 0 0 0 0.211765 0 0 0 0 0.231373 0 0 0 0 0.392157 0 0 0 0.08 0"/>
<feBlend mode="normal" in2="BackgroundImageFix" result="effect1_dropShadow_446_13347"/>
<feBlend mode="normal" in="SourceGraphic" in2="effect1_dropShadow_446_13347" result="shape"/>
</filter>
<linearGradient id="paint0_linear_446_13347" x1="95" y1="1.99998" x2="95" y2="54.2667" gradientUnits="userSpaceOnUse">
<stop offset="0.140112" stop-color="#A7F2BE"/>
<stop offset="1" stop-color="#81BDF9"/>
</linearGradient>
</defs>
</svg>
