<svg width="28" height="28" viewBox="0 0 28 28" fill="none" xmlns="http://www.w3.org/2000/svg">
<rect width="28" height="28" rx="5" fill="#0A8ED9" fill-opacity="0.5"/>
<g clip-path="url(#clip0_45_10083)">
<path d="M19.9993 16.9462V19.3034C19.9994 19.4721 19.9355 19.6347 19.8204 19.7581C19.7053 19.8816 19.5477 19.9569 19.3794 19.9687C19.0881 19.9887 18.8501 19.9993 18.6661 19.9993C12.7751 19.9993 8 15.2243 8 9.33326C8 9.14927 8.01 8.91128 8.03066 8.61997C8.04248 8.4516 8.11771 8.29399 8.24119 8.17893C8.36466 8.06387 8.52719 7.99992 8.69596 8H11.0532C11.1359 7.99992 11.2156 8.03057 11.277 8.08601C11.3383 8.14145 11.3769 8.21771 11.3851 8.29998C11.4005 8.45331 11.4145 8.5753 11.4278 8.66796C11.5603 9.59253 11.8318 10.4918 12.2331 11.3351C12.2964 11.4685 12.2551 11.6278 12.1351 11.7131L10.6965 12.7411C11.5761 14.7906 13.2094 16.4239 15.2589 17.3035L16.2855 15.8676C16.3275 15.8089 16.3887 15.7668 16.4585 15.7487C16.5283 15.7305 16.6023 15.7374 16.6675 15.7682C17.5108 16.1688 18.4098 16.4396 19.334 16.5715C19.4267 16.5849 19.5487 16.5995 19.7007 16.6142C19.7828 16.6226 19.8589 16.6612 19.9142 16.7226C19.9695 16.7839 20.0001 16.8636 20 16.9462H19.9993Z" fill="white"/>
</g>
<defs>
<clipPath id="clip0_45_10083">
<rect width="24" height="24" fill="white" transform="translate(2 2)"/>
</clipPath>
</defs>
</svg>
