<svg width="26" height="24" viewBox="0 0 26 24" fill="none" xmlns="http://www.w3.org/2000/svg">
<path d="M17.5897 15.5128L21.0627 18.8855L19.9153 20L16.4431 16.6266C15.1512 17.6325 13.5442 18.1797 11.8884 18.1774C7.85988 18.1774 4.59039 15.0017 4.59039 11.0887C4.59039 7.17574 7.85988 4 11.8884 4C15.9168 4 19.1863 7.17574 19.1863 11.0887C19.1887 12.6971 18.6254 14.2579 17.5897 15.5128ZM15.9631 14.9284C16.9922 13.9005 17.5669 12.5225 17.5646 11.0887C17.5646 8.04214 15.0241 5.57527 11.8884 5.57527C8.75186 5.57527 6.21216 8.04214 6.21216 11.0887C6.21216 14.1345 8.75186 16.6021 11.8884 16.6021C13.3645 16.6044 14.7831 16.0462 15.8414 15.0466L15.9631 14.9284Z" fill="#838383"/>
</svg>
