<svg width="30" height="30" viewBox="0 0 30 30" fill="none" xmlns="http://www.w3.org/2000/svg">
<g clip-path="url(#clip0_755_25253)">
<path d="M20.5624 18.8176C23.3757 18.7679 23.9948 14.8978 21.3401 13.9761L18.2749 17.3003C18.6574 18.2009 19.5591 18.8176 20.5624 18.8176Z" fill="white"/>
<path d="M29.6416 13.7949C29.2475 11.4306 28.1398 9.6058 26.42 8.46637C25.6189 9.33585 23.4119 11.7286 22.5788 12.6324C23.919 13.3587 24.7769 14.7652 24.7769 16.3345C24.7863 19.9715 20.3974 21.903 17.7229 19.447C17.4678 20.0112 17.1102 20.5305 16.6596 20.981C14.8737 22.9172 9.34184 23.3852 6.98049 23.3164C6.91149 20.9492 7.38145 15.42 9.31594 13.6374C10.303 12.6508 11.5907 12.1448 12.8871 12.12C14.3057 10.8075 16.273 8.98699 17.6859 7.67944C15.7234 8.1966 12.8488 9.56576 11.9721 8.2731C11.5617 7.30473 13.4271 5.05454 11.9553 3.16615C10.7491 1.65166 8.04965 1.93614 6.52414 3.01211C-0.90344 8.14035 -1.89662 19.4075 4.58757 25.6755C12.5254 33.6743 26.3722 30.0506 29.4143 19.211C29.5794 18.5288 30.0522 16.2924 29.6416 13.7949Z" fill="white"/>
<path d="M16.6596 13.6376C17.1419 14.1199 17.5175 14.6801 17.7748 15.2899C18.7573 14.2259 23.9445 8.59801 24.8058 7.66466L29.4114 2.66963C29.9145 2.12386 29.9278 1.31616 29.442 0.829811C28.9551 0.343463 28.1462 0.357309 27.6005 0.862119L20.8649 7.09581C19.4023 8.44887 16.4934 11.142 15.001 12.523C15.6044 12.7756 16.1693 13.1472 16.6596 13.6376Z" fill="white"/>
<path d="M14.5122 14.2C13.1981 13.5605 11.6057 13.798 10.54 14.86C9.43937 15.8331 8.81444 19.5367 8.75098 21.5454C10.7655 21.4799 14.4601 20.8586 15.4358 19.7563C16.0901 19.1021 16.4501 18.2327 16.4501 17.3085C16.4499 16.383 16.0895 15.5135 15.4358 14.8606V14.86C15.1589 14.5825 14.8462 14.3627 14.5122 14.2Z" fill="white"/>
</g>
<defs>
<clipPath id="clip0_755_25253">
<rect width="29.5302" height="29.5302" fill="white" transform="translate(0.277832 0.47401)"/>
</clipPath>
</defs>
</svg>
