<svg width="30" height="30" viewBox="0 0 30 30" fill="none" xmlns="http://www.w3.org/2000/svg">
<rect width="30" height="30" rx="8" fill="#39C3F2"/>
<g clip-path="url(#clip0_755_25636)">
<path d="M17.3036 17.3176C18.7326 17.2923 19.047 15.3265 17.6986 14.8583L16.1416 16.5468C16.3359 17.0043 16.7939 17.3176 17.3036 17.3176Z" fill="white"/>
<path d="M21.9152 14.7664C21.715 13.5655 21.1524 12.6386 20.2788 12.0598C19.8719 12.5015 18.7508 13.7169 18.3276 14.1759C19.0084 14.5449 19.4442 15.2593 19.4442 16.0564C19.4489 17.9039 17.2196 18.885 15.861 17.6375C15.7315 17.9241 15.5498 18.1878 15.3209 18.4167C14.4138 19.4002 11.6038 19.6379 10.4044 19.603C10.3693 18.4005 10.608 15.5919 11.5907 14.6864C12.0921 14.1853 12.7462 13.9283 13.4046 13.9157C14.1253 13.249 15.1246 12.3243 15.8423 11.6601C14.8454 11.9228 13.3852 12.6182 12.9399 11.9616C12.7314 11.4697 13.679 10.3267 12.9314 9.36753C12.3187 8.59824 10.9475 8.74274 10.1726 9.28928C6.3997 11.8942 5.89521 17.6174 9.18888 20.8013C13.2209 24.8643 20.2545 23.0236 21.7997 17.5176C21.8836 17.1711 22.1238 16.0351 21.9152 14.7664Z" fill="white"/>
<path d="M15.321 14.6863C15.566 14.9313 15.7568 15.2159 15.8875 15.5256C16.3865 14.9852 19.0214 12.1265 19.4589 11.6524L21.7984 9.11512C22.0539 8.83789 22.0607 8.42762 21.8139 8.18057C21.5666 7.93353 21.1557 7.94056 20.8785 8.19698L17.4571 11.3634C16.7142 12.0507 15.2366 13.4187 14.4785 14.1202C14.785 14.2485 15.0719 14.4372 15.321 14.6863Z" fill="white"/>
<path d="M14.2301 14.9721C13.5626 14.6473 12.7538 14.7679 12.2125 15.3074C11.6534 15.8017 11.3359 17.6829 11.3037 18.7032C12.327 18.67 14.2037 18.3544 14.6993 17.7945C15.0316 17.4622 15.2145 17.0205 15.2145 16.5511C15.2144 16.081 15.0313 15.6393 14.6993 15.3076V15.3074C14.5586 15.1664 14.3998 15.0547 14.2301 14.9721Z" fill="white"/>
</g>
<defs>
<clipPath id="clip0_755_25636">
<rect width="15" height="15" fill="white" transform="translate(7 8)"/>
</clipPath>
</defs>
</svg>
