<svg width="36" height="36" viewBox="0 0 36 36" fill="none" xmlns="http://www.w3.org/2000/svg">
<rect width="36" height="36" rx="13" fill="#FFBF47"/>
<path fill-rule="evenodd" clip-rule="evenodd" d="M15.7487 11.472H21.9171C24.1906 11.472 25.4565 12.7821 25.4565 15.0269V22.6298C25.4565 24.9114 24.1906 26.192 21.9171 26.192H15.7487C13.5112 26.192 12.2085 24.9114 12.2085 22.6298V15.0269C12.2085 12.7821 13.5112 11.472 15.7487 11.472ZM15.9475 14.9018V14.8944H18.1474C18.4646 14.8944 18.7222 15.152 18.7222 15.4678C18.7222 15.7923 18.4646 16.0499 18.1474 16.0499H15.9475C15.6303 16.0499 15.3734 15.7923 15.3734 15.4759C15.3734 15.1594 15.6303 14.9018 15.9475 14.9018ZM15.9475 19.3767H21.7177C22.0342 19.3767 22.2918 19.1191 22.2918 18.8026C22.2918 18.4861 22.0342 18.2278 21.7177 18.2278H15.9475C15.6303 18.2278 15.3734 18.4861 15.3734 18.8026C15.3734 19.1191 15.6303 19.3767 15.9475 19.3767ZM15.9474 22.7402H21.7177C22.0113 22.7107 22.2329 22.4598 22.2329 22.1661C22.2329 21.8643 22.0113 21.6141 21.7177 21.5847H15.9474C15.7266 21.5626 15.5132 21.6656 15.3954 21.857C15.2777 22.041 15.2777 22.2839 15.3954 22.4752C15.5132 22.6592 15.7266 22.7696 15.9474 22.7402Z" fill="white"/>
</svg>
