<svg width="29" height="29" viewBox="0 0 29 29" fill="none" xmlns="http://www.w3.org/2000/svg">
<path fill-rule="evenodd" clip-rule="evenodd" d="M13.7816 3.0107C20.0466 3.0107 25.1426 8.1067 25.1426 14.3717C25.1426 17.3275 24.0083 20.0234 22.152 22.0466L25.8046 25.6915C26.1464 26.0334 26.1476 26.5864 25.8057 26.9282C25.6354 27.1009 25.4102 27.186 25.1862 27.186C24.9634 27.186 24.7394 27.1009 24.5679 26.9305L20.8713 23.2442C18.9267 24.8015 16.4611 25.7339 13.7816 25.7339C7.5166 25.7339 2.41943 20.6367 2.41943 14.3717C2.41943 8.1067 7.5166 3.0107 13.7816 3.0107ZM13.7816 4.7607C8.48143 4.7607 4.16943 9.07153 4.16943 14.3717C4.16943 19.6719 8.48143 23.9839 13.7816 23.9839C19.0806 23.9839 23.3926 19.6719 23.3926 14.3717C23.3926 9.07153 19.0806 4.7607 13.7816 4.7607Z" fill="#626262"/>
</svg>
