<svg width="29" height="29" viewBox="0 0 29 29" fill="none" xmlns="http://www.w3.org/2000/svg">
<path fill-rule="evenodd" clip-rule="evenodd" d="M14.0233 3.23416C16.91 3.23416 19.2637 5.57083 19.2952 8.45369L19.5509 8.45487C22.7732 8.45487 25.3936 11.074 25.3936 14.294V20.7294C25.3936 23.9482 22.7732 26.5674 19.5509 26.5674H8.48622C5.26506 26.5674 2.64355 23.9482 2.64355 20.7294V14.294C2.64355 11.074 5.26506 8.45487 8.48622 8.45487L8.72422 8.45382L8.73162 8.22693C8.80489 6.9034 9.34998 5.68921 10.2853 4.76366C11.2863 3.77083 12.6303 3.27499 14.0233 3.23416ZM19.5509 10.2049L19.2954 10.2038L19.2955 12.0495C19.2955 12.5325 18.9035 12.9245 18.4205 12.9245C17.9375 12.9245 17.5455 12.5325 17.5455 12.0495L17.5454 10.2038H10.4731L10.4732 12.0495C10.4732 12.5325 10.0812 12.9245 9.59817 12.9245C9.11517 12.9245 8.72317 12.5325 8.72317 12.0495L8.72306 10.2038L8.48622 10.2049C6.22989 10.2049 4.39355 12.0389 4.39355 14.294V20.7294C4.39355 22.9834 6.22989 24.8174 8.48622 24.8174H19.5509C21.8072 24.8174 23.6436 22.9834 23.6436 20.7294V14.294C23.6436 12.0389 21.8072 10.2049 19.5509 10.2049ZM14.0198 4.98416C13.0737 5.01683 12.187 5.34349 11.5173 6.00616C10.8574 6.66036 10.4875 7.52757 10.4736 8.45371L17.5431 8.45382L17.5395 8.30522C17.4321 6.45626 15.8952 4.98416 14.0198 4.98416Z" fill="#626262"/>
</svg>
