<svg width="14" height="18" viewBox="0 0 14 18" fill="none" xmlns="http://www.w3.org/2000/svg">
<path fill-rule="evenodd" clip-rule="evenodd" d="M4.4172 0.666664H9.55886C11.8172 0.666664 13.6422 1.55833 13.6672 3.825V16.475C13.6672 16.6167 13.6339 16.7583 13.5672 16.8833C13.4589 17.0833 13.2755 17.2333 13.0505 17.3C12.8339 17.3667 12.5922 17.3333 12.3922 17.2167L6.9922 14.5167L1.58386 17.2167C1.4597 17.2825 1.3172 17.325 1.17553 17.325C0.708862 17.325 0.333862 16.9417 0.333862 16.475V3.825C0.333862 1.55833 2.1672 0.666664 4.4172 0.666664ZM3.85059 7.01667H10.1256C10.4839 7.01667 10.7756 6.72417 10.7756 6.35834C10.7756 5.99167 10.4839 5.7 10.1256 5.7H3.85059C3.49225 5.7 3.20059 5.99167 3.20059 6.35834C3.20059 6.72417 3.49225 7.01667 3.85059 7.01667Z" fill="#AAAACF"/>
</svg>
