<svg width="29" height="29" viewBox="0 0 29 29" fill="none" xmlns="http://www.w3.org/2000/svg">
<path fill-rule="evenodd" clip-rule="evenodd" d="M19.0802 2.068C19.5632 2.068 19.9552 2.46 19.9552 2.943L19.9558 3.93211C21.6592 4.0489 23.074 4.63239 24.0753 5.63578C25.1685 6.73362 25.7436 8.31212 25.7378 10.2056V20.8491C25.7378 24.7365 23.2691 27.1515 19.2966 27.1515H9.42896C5.45646 27.1515 2.98779 24.7026 2.98779 20.7605V10.2033C2.98779 6.53667 5.18936 4.1831 8.77993 3.93251L8.78064 2.943C8.78064 2.46 9.17264 2.068 9.65564 2.068C10.1386 2.068 10.5306 2.46 10.5306 2.943L10.5303 3.91017H18.2046L18.2052 2.943C18.2052 2.46 18.5972 2.068 19.0802 2.068ZM23.9878 12.456H4.73779V20.7605C4.73779 23.7541 6.40379 25.4015 9.42896 25.4015H19.2966C22.3218 25.4015 23.9878 23.7845 23.9878 20.8491L23.9878 12.456ZM19.5559 19.797C20.0389 19.797 20.4309 20.189 20.4309 20.672C20.4309 21.155 20.0389 21.547 19.5559 21.547C19.0729 21.547 18.6762 21.155 18.6762 20.672C18.6762 20.189 19.0624 19.797 19.5454 19.797H19.5559ZM14.3788 19.797C14.8618 19.797 15.2538 20.189 15.2538 20.672C15.2538 21.155 14.8618 21.547 14.3788 21.547C13.8958 21.547 13.4991 21.155 13.4991 20.672C13.4991 20.189 13.8853 19.797 14.3683 19.797H14.3788ZM9.19084 19.797C9.67384 19.797 10.0658 20.189 10.0658 20.672C10.0658 21.155 9.67384 21.547 9.19084 21.547C8.70784 21.547 8.31001 21.155 8.31001 20.672C8.31001 20.189 8.69734 19.797 9.18034 19.797H9.19084ZM19.5559 15.2625C20.0389 15.2625 20.4309 15.6545 20.4309 16.1375C20.4309 16.6205 20.0389 17.0125 19.5559 17.0125C19.0729 17.0125 18.6762 16.6205 18.6762 16.1375C18.6762 15.6545 19.0624 15.2625 19.5454 15.2625H19.5559ZM14.3788 15.2625C14.8618 15.2625 15.2538 15.6545 15.2538 16.1375C15.2538 16.6205 14.8618 17.0125 14.3788 17.0125C13.8958 17.0125 13.4991 16.6205 13.4991 16.1375C13.4991 15.6545 13.8853 15.2625 14.3683 15.2625H14.3788ZM9.19084 15.2625C9.67384 15.2625 10.0658 15.6545 10.0658 16.1375C10.0658 16.6205 9.67384 17.0125 9.19084 17.0125C8.70784 17.0125 8.31001 16.6205 8.31001 16.1375C8.31001 15.6545 8.69734 15.2625 9.18034 15.2625H9.19084ZM18.2046 5.66017H10.5303L10.5306 6.7825C10.5306 7.2655 10.1386 7.6575 9.65564 7.6575C9.17264 7.6575 8.78064 7.2655 8.78064 6.7825L8.78002 5.68665C6.16642 5.90621 4.73779 7.4905 4.73779 10.2033V10.706H23.9878L23.9878 10.2033C23.9925 8.76245 23.6051 7.64245 22.8363 6.87245C22.1614 6.19556 21.1748 5.7913 19.9562 5.68721L19.9552 6.7825C19.9552 7.2655 19.5632 7.6575 19.0802 7.6575C18.5972 7.6575 18.2052 7.2655 18.2052 6.7825L18.2046 5.66017Z" fill="#626262"/>
</svg>
