<svg width="18" height="16" viewBox="0 0 18 16" fill="none" xmlns="http://www.w3.org/2000/svg">
<path d="M3.22314 15.6602H14.562C16.2969 15.6602 17.1602 14.7969 17.1602 13.0869V2.95166C17.1602 1.2417 16.2969 0.378418 14.562 0.378418H3.22314C1.48828 0.378418 0.616699 1.2334 0.616699 2.95166V13.0869C0.616699 14.8052 1.48828 15.6602 3.22314 15.6602ZM3.09863 14.3237C2.35986 14.3237 1.95312 13.9336 1.95312 13.1616V5.33398C1.95312 4.57031 2.35986 4.17188 3.09863 4.17188H14.6699C15.4087 4.17188 15.8237 4.57031 15.8237 5.33398V13.1616C15.8237 13.9336 15.4087 14.3237 14.6699 14.3237H3.09863ZM7.27393 7.15186H7.76367C8.0542 7.15186 8.14551 7.06885 8.14551 6.77832V6.28857C8.14551 5.99805 8.0542 5.90674 7.76367 5.90674H7.27393C6.9834 5.90674 6.88379 5.99805 6.88379 6.28857V6.77832C6.88379 7.06885 6.9834 7.15186 7.27393 7.15186ZM10.0298 7.15186H10.5195C10.8101 7.15186 10.9097 7.06885 10.9097 6.77832V6.28857C10.9097 5.99805 10.8101 5.90674 10.5195 5.90674H10.0298C9.73926 5.90674 9.63965 5.99805 9.63965 6.28857V6.77832C9.63965 7.06885 9.73926 7.15186 10.0298 7.15186ZM12.7856 7.15186H13.2754C13.5659 7.15186 13.6655 7.06885 13.6655 6.77832V6.28857C13.6655 5.99805 13.5659 5.90674 13.2754 5.90674H12.7856C12.4951 5.90674 12.4038 5.99805 12.4038 6.28857V6.77832C12.4038 7.06885 12.4951 7.15186 12.7856 7.15186ZM4.51807 9.86621H4.99951C5.29834 9.86621 5.38965 9.7832 5.38965 9.49268V9.00293C5.38965 8.7124 5.29834 8.62939 4.99951 8.62939H4.51807C4.21924 8.62939 4.12793 8.7124 4.12793 9.00293V9.49268C4.12793 9.7832 4.21924 9.86621 4.51807 9.86621ZM7.27393 9.86621H7.76367C8.0542 9.86621 8.14551 9.7832 8.14551 9.49268V9.00293C8.14551 8.7124 8.0542 8.62939 7.76367 8.62939H7.27393C6.9834 8.62939 6.88379 8.7124 6.88379 9.00293V9.49268C6.88379 9.7832 6.9834 9.86621 7.27393 9.86621ZM10.0298 9.86621H10.5195C10.8101 9.86621 10.9097 9.7832 10.9097 9.49268V9.00293C10.9097 8.7124 10.8101 8.62939 10.5195 8.62939H10.0298C9.73926 8.62939 9.63965 8.7124 9.63965 9.00293V9.49268C9.63965 9.7832 9.73926 9.86621 10.0298 9.86621ZM12.7856 9.86621H13.2754C13.5659 9.86621 13.6655 9.7832 13.6655 9.49268V9.00293C13.6655 8.7124 13.5659 8.62939 13.2754 8.62939H12.7856C12.4951 8.62939 12.4038 8.7124 12.4038 9.00293V9.49268C12.4038 9.7832 12.4951 9.86621 12.7856 9.86621ZM4.51807 12.5889H4.99951C5.29834 12.5889 5.38965 12.4976 5.38965 12.207V11.7173C5.38965 11.4268 5.29834 11.3438 4.99951 11.3438H4.51807C4.21924 11.3438 4.12793 11.4268 4.12793 11.7173V12.207C4.12793 12.4976 4.21924 12.5889 4.51807 12.5889ZM7.27393 12.5889H7.76367C8.0542 12.5889 8.14551 12.4976 8.14551 12.207V11.7173C8.14551 11.4268 8.0542 11.3438 7.76367 11.3438H7.27393C6.9834 11.3438 6.88379 11.4268 6.88379 11.7173V12.207C6.88379 12.4976 6.9834 12.5889 7.27393 12.5889ZM10.0298 12.5889H10.5195C10.8101 12.5889 10.9097 12.4976 10.9097 12.207V11.7173C10.9097 11.4268 10.8101 11.3438 10.5195 11.3438H10.0298C9.73926 11.3438 9.63965 11.4268 9.63965 11.7173V12.207C9.63965 12.4976 9.73926 12.5889 10.0298 12.5889Z" fill="black"/>
</svg>
