<svg width="24" height="25" viewBox="0 0 24 25" fill="none" xmlns="http://www.w3.org/2000/svg">
<path fill-rule="evenodd" clip-rule="evenodd" d="M2.88862 4.21311C2.8909 4.21311 2.83388 4.27241 2.76204 4.34311C2.48606 4.6111 1.91473 5.16876 1.90897 6.33538C1.8999 7.96728 2.97301 10.9973 8.14014 16.1633C13.2833 21.3042 16.3088 22.3898 17.9441 22.3898H17.9681C19.1347 22.3841 19.6912 21.8117 19.9603 21.5368C20.0424 21.4524 20.1086 21.3909 20.1553 21.3521C21.2912 20.2094 21.8728 19.3587 21.8671 18.8136C21.8591 18.2571 21.1669 17.5991 20.2101 16.689C19.9056 16.3994 19.5749 16.0846 19.2259 15.7356C18.3216 14.8336 17.8734 14.9876 16.8881 15.3342C15.5253 15.8121 13.6551 16.4621 10.7494 13.5552C7.83907 10.6472 8.49024 8.77924 8.96692 7.41647C9.31132 6.43117 9.4687 5.98186 8.56322 5.07639C8.20856 4.72286 7.89039 4.38759 7.59731 4.07968C6.69298 3.12859 6.04067 2.44093 5.48758 2.43295H5.47846C4.93221 2.43295 4.08376 3.01683 2.88292 4.21767C2.88634 4.21425 2.88862 4.21311 2.88862 4.21311ZM17.9452 24.1004C15.1034 24.1004 11.3982 21.8379 6.93132 17.3733C2.44729 12.8904 0.181327 9.17382 0.198337 6.32626C0.208697 4.44461 1.19514 3.48097 1.56577 3.11947C1.58515 3.09552 1.6513 3.03052 1.6741 3.00771C3.30943 1.37124 4.41219 0.709816 5.50925 0.722185C6.78307 0.739466 7.68968 1.69284 8.83692 2.90051C9.12088 3.1993 9.42878 3.52431 9.77204 3.86643C11.437 5.5314 10.9626 6.88961 10.5817 7.97983C10.1666 9.16926 9.80739 10.1956 11.9582 12.3464C14.1112 14.4972 15.1376 14.138 16.3225 13.7194C17.4138 13.3385 18.7686 12.8619 20.4359 14.5268C20.7734 14.8644 21.0939 15.1689 21.3892 15.4506C22.6026 16.6035 23.5605 17.5147 23.5767 18.7919C23.5902 19.881 22.9288 20.9906 21.2957 22.6248L20.5727 22.1344L21.184 22.732C20.8225 23.1026 19.86 24.0902 17.9772 24.1004H17.9452Z" fill="white"/>
</svg>
