<svg width="10" height="10" viewBox="0 0 10 10" fill="none" xmlns="http://www.w3.org/2000/svg">
<path d="M6.66667 5C6.66667 5.92083 5.92083 6.66667 5 6.66667C4.07917 6.66667 3.33333 5.92083 3.33333 5C3.33333 4.07917 4.07917 3.33333 5 3.33333C5.92083 3.33333 6.66667 4.07917 6.66667 5ZM10 2.08333V7.91667C10 9.06667 9.06667 10 7.91667 10H2.08333C0.933333 10 0 9.06667 0 7.91667V2.08333C0 0.933333 0.933333 0 2.08333 0H7.91667C9.06667 0 10 0.933333 10 2.08333ZM7.5 5C7.5 3.62083 6.37917 2.5 5 2.5C3.62083 2.5 2.5 3.62083 2.5 5C2.5 6.37917 3.62083 7.5 5 7.5C6.37917 7.5 7.5 6.37917 7.5 5Z" fill="white"/>
</svg>
