<svg width="31" height="13" viewBox="0 0 31 13" fill="none" xmlns="http://www.w3.org/2000/svg">
<path d="M2.78551 12.0267L7.17366 12.0267C8.38344 12.0267 9.36774 11.0424 9.36774 9.83267L9.36774 7.83807C9.36774 6.92155 10.1136 6.176 11.0296 6.17586L19.6788 6.17954C20.5974 6.17955 21.3409 6.92292 21.3409 7.84173C21.3409 8.163 21.3409 9.08553 21.3409 9.83632C21.3409 11.0408 22.3137 12.0304 23.5362 12.0304L27.9162 12.0235C29.126 12.0234 30.1103 11.0392 30.1103 9.83259C30.1142 8.93365 30.1155 8.64367 30.1172 8.2406C30.1172 3.87792 26.568 0.328625 22.2055 0.328625L8.50344 0.325042C4.13048 0.325008 0.591464 3.86368 0.591497 8.23698L0.591465 9.8327C0.591464 11.0425 1.57569 12.0267 2.78551 12.0267ZM28.6476 9.82942C28.6476 10.2327 28.3196 10.5607 27.9151 10.5608L23.535 10.5677C23.1308 10.5677 22.8037 10.2406 22.8037 9.83635L22.8037 9.10497L28.6508 9.10497L28.6476 9.82942ZM8.50319 1.78777L22.2053 1.79139C25.5806 1.79139 28.3234 4.34862 28.6267 7.64224L22.7966 7.64224C22.6943 6.00798 21.3393 4.71678 19.679 4.71678L11.0302 4.71316C11.0302 4.71316 11.03 4.71316 11.03 4.71316C9.3715 4.71313 8.01446 6.00219 7.91207 7.63855H2.08184C2.38205 4.35325 5.10465 1.78777 8.50319 1.78777ZM2.05413 9.83274V9.10132L7.90501 9.10135L7.90504 9.83267C7.90501 10.2359 7.57698 10.564 7.17366 10.564H2.78551C2.38219 10.564 2.05409 10.2359 2.05413 9.83274Z" fill="white"/>
</svg>
