<svg width="26" height="26" viewBox="0 0 26 26" fill="none" xmlns="http://www.w3.org/2000/svg">
<path fill-rule="evenodd" clip-rule="evenodd" d="M12.9445 0.722015C16.2208 0.722015 19.2999 1.99584 21.6126 4.3097C26.3931 9.09023 26.3931 16.8677 21.6126 21.6482C19.2691 23.9929 16.1136 25.2336 12.9171 25.2336C11.1746 25.2336 9.42065 24.8653 7.77962 24.1058C7.29609 23.9119 6.84336 23.7295 6.51835 23.7295C6.1443 23.7317 5.64138 23.9051 5.15557 24.0727C4.15887 24.4148 2.91812 24.8414 2.0001 23.9268C1.08551 23.011 1.50745 21.7737 1.84729 20.7781C2.01493 20.2878 2.18713 19.7814 2.18713 19.3983C2.18713 19.0835 2.03546 18.6821 1.80282 18.1039C-0.333143 13.491 0.654439 7.93159 4.27747 4.31084C6.59019 1.99698 9.66811 0.722015 12.9445 0.722015ZM12.9456 2.43261C10.1254 2.43261 7.47628 3.52967 5.48629 5.52079C2.36845 8.63635 1.52 13.4203 3.37314 17.4265C3.63999 18.0868 3.89772 18.73 3.89772 19.3983C3.89772 20.0654 3.6685 20.7371 3.46665 21.3301C3.30015 21.8182 3.04813 22.5549 3.21006 22.7168C3.36858 22.881 4.10983 22.6221 4.59906 22.4545C5.18637 22.2538 5.85236 22.0234 6.51264 22.0189C7.17407 22.0189 7.79787 22.2698 8.45816 22.5355C12.5031 24.4057 17.2871 23.555 20.4038 20.4394C24.516 16.3249 24.516 9.63192 20.4038 5.51965C18.4127 3.52853 15.7647 2.43261 12.9456 2.43261ZM17.4466 12.3115C18.0761 12.3115 18.587 12.8213 18.587 13.4519C18.587 14.0825 18.0761 14.5923 17.4466 14.5923C16.8171 14.5923 16.3017 14.0825 16.3017 13.4519C16.3017 12.8213 16.8069 12.3115 17.4364 12.3115H17.4466ZM12.875 12.3115C13.5045 12.3115 14.0154 12.8213 14.0154 13.4519C14.0154 14.0825 13.5045 14.5923 12.875 14.5923C12.2455 14.5923 11.7301 14.0825 11.7301 13.4519C11.7301 12.8213 12.2341 12.3115 12.8648 12.3115H12.875ZM8.30295 12.3115C8.93245 12.3115 9.44334 12.8213 9.44334 13.4519C9.44334 14.0825 8.93245 14.5923 8.30295 14.5923C7.67345 14.5923 7.15799 14.0825 7.15799 13.4519C7.15799 12.8213 7.66319 12.3115 8.29269 12.3115H8.30295Z" fill="white"/>
</svg>
