<svg width="27" height="25" viewBox="0 0 27 25" fill="none" xmlns="http://www.w3.org/2000/svg">
<mask id="path-1-inside-1_815_481" fill="white">
<path d="M0 4.28704C0 2.07791 1.79086 0.287048 4 0.287048H22.3218C24.531 0.287048 26.3218 2.07791 26.3218 4.28705V20.216C26.3218 22.4251 24.531 24.216 22.3218 24.216H1C0.447715 24.216 0 23.7683 0 23.216V4.28704Z"/>
</mask>
<path d="M0 4.28704C0 2.07791 1.79086 0.287048 4 0.287048H22.3218C24.531 0.287048 26.3218 2.07791 26.3218 4.28705V20.216C26.3218 22.4251 24.531 24.216 22.3218 24.216H1C0.447715 24.216 0 23.7683 0 23.216V4.28704Z" stroke="white" stroke-width="4" mask="url(#path-1-inside-1_815_481)"/>
<rect x="5.98218" y="11.0551" width="14.3574" height="2.39289" rx="1.19645" fill="white"/>
<rect x="5.98218" y="6.26928" width="14.3574" height="2.39289" rx="1.19645" fill="white"/>
<rect x="5.98218" y="15.8409" width="14.3574" height="2.39289" rx="1.19645" fill="white"/>
</svg>
