<svg width="24" height="4" viewBox="0 0 24 4" fill="none" xmlns="http://www.w3.org/2000/svg">
<path d="M21 2C21 2.55228 21.4477 3 22 3C22.5523 3 23 2.55228 23 2C23 1.44771 22.5523 0.999999 22 0.999999C21.4477 0.999999 21 1.44771 21 2Z" stroke="white" stroke-width="2"/>
<path d="M11 2C11 2.55228 11.4477 3 12 3C12.5523 3 13 2.55228 13 2C13 1.44771 12.5523 0.999999 12 0.999999C11.4477 0.999999 11 1.44771 11 2Z" stroke="white" stroke-width="2"/>
<path d="M0.999997 2C0.999997 2.55228 1.44771 3 2 3C2.55228 3 3 2.55228 3 2C3 1.44771 2.55228 0.999999 2 0.999999C1.44771 0.999999 0.999997 1.44771 0.999997 2Z" stroke="white" stroke-width="2"/>
</svg>
