<svg width="29" height="23" viewBox="0 0 29 23" fill="none" xmlns="http://www.w3.org/2000/svg">
<path d="M2.54688 22.3906H3.91797C4.79688 22.3906 5.47656 21.7109 5.47656 20.8438V18.8867C8.07812 19.0508 11.8398 19.168 14.8516 19.168C17.8633 19.168 21.6367 19.0508 24.2383 18.8867V20.8438C24.2383 21.7109 24.9062 22.3906 25.7852 22.3906H27.168C28.0469 22.3906 28.7148 21.7109 28.7148 20.8438V14.0938C28.7148 12.1133 28.3164 11.0117 27.2383 9.60547L26.2422 8.32812C25.8203 6.21875 25.0352 4.00391 24.6367 3.13672C24.0039 1.8125 22.7969 1.02734 21.2383 0.816406C20.4531 0.710938 17.8867 0.652344 14.8516 0.652344C11.8281 0.652344 9.26172 0.722656 8.47656 0.816406C6.91797 1.00391 5.69922 1.8125 5.07812 3.13672C4.66797 4.00391 3.89453 6.21875 3.46094 8.32812L2.47656 9.60547C1.38672 11.0117 0.988281 12.1133 0.988281 14.0938V20.8438C0.988281 21.7109 1.66797 22.3906 2.54688 22.3906ZM5.82812 7.34375C6.09766 6.06641 6.67188 4.39062 7.05859 3.71094C7.375 3.16016 7.71484 2.91406 8.34766 2.83203C9.23828 2.71484 11.2305 2.63281 14.8516 2.63281C18.4844 2.63281 20.4766 2.69141 21.3555 2.83203C21.9883 2.92578 22.3164 3.16016 22.6445 3.71094C23.043 4.37891 23.582 6.06641 23.8867 7.34375C23.9922 7.77734 23.8047 7.94141 23.3594 7.91797C21.4141 7.78906 19.0938 7.67188 14.8516 7.67188C10.6211 7.67188 8.30078 7.78906 6.35547 7.91797C5.89844 7.94141 5.72266 7.77734 5.82812 7.34375ZM6.40234 16.0039C5.33594 16.0039 4.51562 15.1836 4.51562 14.1172C4.51562 13.0391 5.33594 12.2305 6.40234 12.2305C7.46875 12.2305 8.28906 13.0391 8.28906 14.1172C8.28906 15.1836 7.46875 16.0039 6.40234 16.0039ZM23.3008 16.0039C22.2344 16.0039 21.4258 15.1836 21.4258 14.1172C21.4258 13.0391 22.2344 12.2305 23.3008 12.2305C24.3789 12.2305 25.1875 13.0391 25.1875 14.1172C25.1875 15.1836 24.3789 16.0039 23.3008 16.0039ZM11.7578 15.5352C10.9492 15.5352 10.3984 14.9844 10.3984 14.1758C10.3984 13.3789 10.9492 12.8281 11.7578 12.8281H17.957C18.7539 12.8281 19.3047 13.3789 19.3047 14.1758C19.3047 14.9844 18.7539 15.5352 17.957 15.5352H11.7578Z" fill="black"/>
</svg>
