<svg width="35" height="35" viewBox="0 0 35 35" fill="none" xmlns="http://www.w3.org/2000/svg">
<path d="M17.1232 3.21039C9.4518 3.21039 3.21045 9.45174 3.21045 17.1232C3.21045 24.7946 9.4518 31.036 17.1232 31.036C24.7947 31.036 31.036 24.7946 31.036 17.1232C31.036 9.45174 24.7947 3.21039 17.1232 3.21039ZM19.2637 23.5445H14.9828C14.699 23.5445 14.4268 23.4317 14.226 23.231C14.0253 23.0303 13.9126 22.7581 13.9126 22.4742C13.9126 22.1904 14.0253 21.9182 14.226 21.7175C14.4268 21.5168 14.699 21.404 14.9828 21.404H19.2637C19.5475 21.404 19.8197 21.5168 20.0204 21.7175C20.2211 21.9182 20.3339 22.1904 20.3339 22.4742C20.3339 22.7581 20.2211 23.0303 20.0204 23.231C19.8197 23.4317 19.5475 23.5445 19.2637 23.5445ZM22.4743 19.2636H11.7722C11.4883 19.2636 11.2161 19.1508 11.0154 18.9501C10.8147 18.7494 10.7019 18.4772 10.7019 18.1934C10.7019 17.9095 10.8147 17.6373 11.0154 17.4366C11.2161 17.2359 11.4883 17.1232 11.7722 17.1232H22.4743C22.7581 17.1232 23.0304 17.2359 23.2311 17.4366C23.4318 17.6373 23.5445 17.9095 23.5445 18.1934C23.5445 18.4772 23.4318 18.7494 23.2311 18.9501C23.0304 19.1508 22.7581 19.2636 22.4743 19.2636ZM24.6147 14.9827H9.63173C9.3479 14.9827 9.07568 14.87 8.87498 14.6693C8.67427 14.4686 8.56152 14.1964 8.56152 13.9125C8.56152 13.6287 8.67427 13.3565 8.87498 13.1558C9.07568 12.9551 9.3479 12.8423 9.63173 12.8423H24.6147C24.8986 12.8423 25.1708 12.9551 25.3715 13.1558C25.5722 13.3565 25.6849 13.6287 25.6849 13.9125C25.6849 14.1964 25.5722 14.4686 25.3715 14.6693C25.1708 14.87 24.8986 14.9827 24.6147 14.9827Z" fill="#5669FF"/>
</svg>
