<svg width="37" height="36" viewBox="0 0 37 36" fill="none" xmlns="http://www.w3.org/2000/svg">
<path d="M28.869 9.2381C27.9787 8.19532 25.9111 8.62996 24.1965 10.0687L20.5787 13.1044C20.076 13.5262 19.8197 13.6036 19.2372 13.511L7.68315 11.9928C7.31385 11.9355 6.99005 12.0236 6.72074 12.2496L5.6794 13.1234C5.44599 13.3193 5.48459 13.6387 5.81221 13.7922L14.6808 18.0533L10.5573 22.4006L6.43161 20.7836C6.12659 20.6571 5.84623 20.7241 5.54999 20.9727L5.16397 21.2966C4.93057 21.4924 4.90602 21.7731 5.10186 22.0065L12.1675 30.427C12.3634 30.6604 12.6365 30.676 12.8699 30.4801L13.2559 30.1562C13.5522 29.9076 13.6668 29.6432 13.6027 29.3298L12.7267 24.986L17.724 21.6801L20.3804 31.1538C20.4671 31.4941 20.7825 31.5966 21.0159 31.4008L22.0573 30.527C22.3266 30.301 22.462 29.9884 22.4773 29.6238L22.9809 17.9726C22.9985 17.3919 23.1192 17.1529 23.6219 16.7311L27.2397 13.6954C28.9543 12.2567 29.7338 10.287 28.869 9.2381Z" fill="black"/>
</svg>
