<svg width="20" height="18" viewBox="0 0 20 18" fill="none" xmlns="http://www.w3.org/2000/svg">
<path d="M19.3267 9.00684C19.3184 8.03564 17.9985 7.33008 16.4131 7.33008H13.0679C12.603 7.33008 12.4287 7.25537 12.1548 6.93994L6.57666 0.855469C6.40234 0.65625 6.18652 0.556641 5.9375 0.556641H4.97461C4.75879 0.556641 4.63428 0.747559 4.74219 0.97998L7.61426 7.33008L3.39746 7.81152L1.89502 5.05566C1.78711 4.84814 1.60449 4.75684 1.33057 4.75684H0.973633C0.757812 4.75684 0.616699 4.89795 0.616699 5.11377V12.8999C0.616699 13.1157 0.757812 13.2485 0.973633 13.2485H1.33057C1.60449 13.2485 1.78711 13.1572 1.89502 12.958L3.39746 10.2021L7.61426 10.6836L4.74219 17.0337C4.63428 17.2578 4.75879 17.457 4.97461 17.457H5.9375C6.18652 17.457 6.40234 17.3491 6.57666 17.1582L12.1548 11.0654C12.4287 10.7583 12.603 10.6836 13.0679 10.6836H16.4131C17.9985 10.6836 19.3184 9.96973 19.3267 9.00684Z" fill="black"/>
</svg>
