<svg width="30" height="30" viewBox="0 0 30 30" fill="none" xmlns="http://www.w3.org/2000/svg">
<rect width="30" height="30" rx="8" fill="#29D697"/>
<g clip-path="url(#clip0_755_25617)">
<path d="M21.6102 20.7533L15.7284 14.8715L8.85657 7.99963H8.31953L8.20988 8.27828C7.92045 9.01375 7.79679 9.76597 7.85231 10.4535C7.91559 11.2373 8.21333 11.9158 8.7134 12.4159L14.078 17.7805L14.7855 17.0729L19.7451 22.6186C20.2384 23.1119 21.0876 23.1412 21.6102 22.6186C22.1245 22.1043 22.1245 21.2676 21.6102 20.7533Z" fill="white"/>
<path d="M11.5916 16.5388L7.39006 20.7403C6.87584 21.2545 6.87584 22.0912 7.39006 22.6054C7.87855 23.0939 8.72362 23.1371 9.25524 22.6054L13.4568 18.4039L11.5916 16.5388Z" fill="white"/>
<path d="M21.3633 10.497L18.9799 12.8803L18.3582 12.2585L20.7415 9.8752L20.1197 9.25346L17.7364 11.6368L17.1147 11.015L19.498 8.63172L18.8763 8.01001L15.7676 11.1187C15.3873 11.499 15.1603 12.004 15.1281 12.5406C15.12 12.6766 15.0892 12.8103 15.0381 12.9375L17.0575 14.9569C17.1847 14.9058 17.3185 14.875 17.4544 14.8669C17.9911 14.8348 18.496 14.6077 18.8763 14.2274L21.985 11.1187L21.3633 10.497Z" fill="white"/>
</g>
<defs>
<clipPath id="clip0_755_25617">
<rect width="15" height="15" fill="white" transform="translate(7 8)"/>
</clipPath>
</defs>
</svg>
