<svg width="30" height="30" viewBox="0 0 30 30" fill="none" xmlns="http://www.w3.org/2000/svg">
<g clip-path="url(#clip0_755_25278)">
<path d="M28.9435 25.5825L17.3635 14.0025L3.83423 0.473253H2.77691L2.56102 1.02184C1.9912 2.46982 1.74774 3.9508 1.85704 5.30447C1.98163 6.84751 2.56782 8.18342 3.55235 9.16794L14.114 19.7296L15.5071 18.3365L25.2713 29.2548C26.2426 30.2261 27.9145 30.2838 28.9435 29.2548C29.956 28.2423 29.956 26.595 28.9435 25.5825Z" fill="#B6B6B6"/>
<path d="M9.21912 17.2852L0.947278 25.557C-0.0651084 26.5694 -0.0651084 28.2168 0.947278 29.2292C1.90902 30.1909 3.57278 30.2758 4.61943 29.2292L12.8913 20.9573L9.21912 17.2852Z" fill="#B6B6B6"/>
<path d="M28.4573 5.38993L23.765 10.0821L22.5409 8.85807L27.2332 4.1658L26.0091 2.94173L21.3169 7.63394L20.0928 6.40987L24.7851 1.71766L23.5611 0.493649L17.4407 6.614C16.692 7.36273 16.2449 8.35689 16.1817 9.41346C16.1657 9.68115 16.105 9.94446 16.0044 10.1949L19.9802 14.1707C20.2306 14.0699 20.494 14.0093 20.7616 13.9933C21.8182 13.9303 22.8123 13.4831 23.5611 12.7343L29.6814 6.61405L28.4573 5.38993Z" fill="#B6B6B6"/>
</g>
<defs>
<clipPath id="clip0_755_25278">
<rect width="29.5318" height="29.5318" fill="white" transform="translate(0.179199 0.47401)"/>
</clipPath>
</defs>
</svg>
