<svg width="20" height="20" viewBox="0 0 20 20" fill="none" xmlns="http://www.w3.org/2000/svg">
<g clip-path="url(#clip0_755_25513)">
<path d="M19.1308 16.6993L11.4292 8.99765L2.43108 -0.000427246H1.72787L1.58428 0.364429C1.20531 1.32746 1.04338 2.31243 1.11608 3.21274C1.19894 4.23898 1.58881 5.12747 2.2436 5.78227L9.26798 12.8066L10.1945 11.8801L16.6885 19.1417C17.3345 19.7877 18.4464 19.8261 19.1308 19.1417C19.8042 18.4683 19.8042 17.3727 19.1308 16.6993Z" fill="#29D697"/>
<path d="M6.01232 11.1808L0.510851 16.6823C-0.162471 17.3556 -0.162471 18.4512 0.510851 19.1245C1.15049 19.7642 2.25703 19.8207 2.95314 19.1245L8.45464 13.623L6.01232 11.1808Z" fill="#29D697"/>
<path d="M18.8076 3.26956L15.6869 6.39027L14.8727 5.57616L17.9935 2.45541L17.1794 1.6413L14.0586 4.76201L13.2445 3.9479L16.3653 0.827193L15.5512 0.0131226L11.4807 4.08367C10.9827 4.58164 10.6854 5.24284 10.6433 5.94554C10.6327 6.12358 10.5923 6.2987 10.5254 6.46527L13.1696 9.10949C13.3362 9.04247 13.5113 9.00215 13.6893 8.99153C14.392 8.9496 15.0532 8.65218 15.5512 8.15421L19.6218 4.0837L18.8076 3.26956Z" fill="#29D697"/>
</g>
<defs>
<clipPath id="clip0_755_25513">
<rect width="19.6411" height="19.6411" fill="white"/>
</clipPath>
</defs>
</svg>
