<svg width="24" height="24" viewBox="0 0 24 24" fill="none" xmlns="http://www.w3.org/2000/svg">
<path fill-rule="evenodd" clip-rule="evenodd" d="M12.3257 2.20969C12.4854 2.06635 12.6966 1.99122 12.9128 2.00086C17.4836 2.13769 21.3037 5.45583 21.996 9.89066C22.0004 9.91714 22.0004 9.94414 21.996 9.97062C22.0109 10.1805 21.94 10.3875 21.7989 10.5459C21.6579 10.7043 21.4583 10.801 21.2443 10.8147L13.5648 11.3211C13.3109 11.3436 13.059 11.2601 12.8711 11.091C12.6832 10.9218 12.5767 10.6828 12.5777 10.4326L12.0616 2.88935V2.76496C12.071 2.55281 12.166 2.35303 12.3257 2.20969ZM11.7989 13.2936L18.4551 12.8671L18.5004 12.8849C18.7862 12.8896 19.0584 13.0055 19.2571 13.2071C19.4558 13.4087 19.5648 13.6795 19.5599 13.96C19.2976 17.7821 16.4954 20.9755 12.682 21.7983C8.86864 22.621 4.95944 20.8755 3.08705 17.5139C2.53648 16.5457 2.18857 15.4794 2.06372 14.3776C2.0153 14.051 1.9941 13.7212 2.00033 13.3913C2.01295 9.32711 4.90654 5.81911 8.95534 4.95954C9.44547 4.8678 9.93688 5.11252 10.1507 5.55483C10.204 5.63509 10.2466 5.72168 10.2775 5.8125C10.3534 6.98402 10.4321 8.14446 10.5105 9.3C10.5724 10.2127 10.6341 11.1223 10.6941 12.0319C10.691 12.2462 10.7247 12.4595 10.7937 12.6628C10.9562 13.0628 11.3606 13.3166 11.7989 13.2936Z" fill="#D5D5E1"/>
</svg>
