<svg width="32" height="32" viewBox="0 0 32 32" fill="none" xmlns="http://www.w3.org/2000/svg">
<rect width="32" height="32" rx="12" fill="#32A7E2"/>
<path fill-rule="evenodd" clip-rule="evenodd" d="M15.2234 16.0044L15.2244 16.2405C15.2325 17.1768 15.2889 18.0122 15.3863 18.5416C15.3863 18.5511 15.4924 19.0762 15.5601 19.251C15.6663 19.5036 15.8583 19.718 16.099 19.8539C16.2917 19.9508 16.4939 20 16.7055 20C16.8719 19.9923 17.1462 19.9086 17.3421 19.8384L17.5048 19.776C18.5826 19.3479 20.6429 17.949 21.432 17.0934L21.4902 17.0336L21.7498 16.7534C21.9135 16.539 22 16.2768 22 15.9949C22 15.7422 21.9229 15.4896 21.7687 15.2855C21.7226 15.2193 21.6482 15.1345 21.582 15.0628L21.3293 14.7983C20.4597 13.9171 18.5768 12.6812 17.6008 12.2717C17.6008 12.2629 16.9942 12.0095 16.7055 12H16.667C16.2241 12 15.8103 12.2526 15.5986 12.6609C15.5408 12.7725 15.4854 12.9912 15.4432 13.1832L15.3674 13.5458C15.2808 14.1289 15.2234 15.0233 15.2234 16.0044ZM11.0022 14.9878C10.4487 14.9878 10 15.4409 10 15.9997C10 16.5585 10.4487 17.0116 11.0022 17.0116L13.4683 16.7935C13.9025 16.7935 14.2545 16.4388 14.2545 15.9997C14.2545 15.5613 13.9025 15.2059 13.4683 15.2059L11.0022 14.9878Z" fill="white"/>
</svg>
