<svg width="20" height="20" viewBox="0 0 20 20" fill="none" xmlns="http://www.w3.org/2000/svg">
<circle opacity="0.1" cx="10" cy="10" r="10" fill="white"/>
<path d="M10.9031 15.1125C12.2648 13.9141 14.6875 11.4656 14.6875 9.21875C14.6875 7.97555 14.1936 6.78326 13.3146 5.90419C12.4355 5.02511 11.2432 4.53125 10 4.53125C8.7568 4.53125 7.56451 5.02511 6.68544 5.90419C5.80636 6.78326 5.3125 7.97555 5.3125 9.21875C5.3125 11.4656 7.73438 13.9141 9.09687 15.1125C9.3454 15.3343 9.66687 15.4569 10 15.4569C10.3331 15.4569 10.6546 15.3343 10.9031 15.1125ZM8.4375 9.21875C8.4375 8.80435 8.60212 8.40692 8.89515 8.1139C9.18817 7.82087 9.5856 7.65625 10 7.65625C10.4144 7.65625 10.8118 7.82087 11.1049 8.1139C11.3979 8.40692 11.5625 8.80435 11.5625 9.21875C11.5625 9.63315 11.3979 10.0306 11.1049 10.3236C10.8118 10.6166 10.4144 10.7812 10 10.7812C9.5856 10.7812 9.18817 10.6166 8.89515 10.3236C8.60212 10.0306 8.4375 9.63315 8.4375 9.21875Z" fill="white"/>
</svg>
