<svg width="30" height="30" viewBox="0 0 30 30" fill="none" xmlns="http://www.w3.org/2000/svg">
<rect x="6.10352e-05" y="1.52588e-05" width="30" height="30" rx="12" fill="#FF8700"/>
<path d="M18.6133 16.8853C18.4586 17.0351 18.3876 17.2518 18.4228 17.4644L18.9536 20.4019C18.9984 20.6509 18.8933 20.9029 18.6849 21.0468C18.4807 21.196 18.2091 21.2139 17.9864 21.0945L15.342 19.7153C15.25 19.6664 15.1479 19.6401 15.0435 19.6371H14.8817C14.8255 19.6455 14.7706 19.6634 14.7204 19.6908L12.0755 21.0766C11.9447 21.1423 11.7966 21.1656 11.6516 21.1423C11.2981 21.0754 11.0623 20.7387 11.1202 20.3834L11.6516 17.4459C11.6868 17.2315 11.6157 17.0136 11.4611 16.8614L9.30512 14.7717C9.12481 14.5967 9.06212 14.334 9.14451 14.097C9.22452 13.8606 9.42871 13.688 9.6753 13.6492L12.6427 13.2187C12.8684 13.1954 13.0666 13.0581 13.1681 12.8551L14.4757 10.1743C14.5067 10.1146 14.5467 10.0597 14.5951 10.0131L14.6488 9.97131C14.6769 9.94027 14.7091 9.91459 14.7449 9.89369L14.81 9.86981L14.9115 9.82802H15.1629C15.3874 9.8513 15.585 9.98564 15.6883 10.1863L17.0132 12.8551C17.1087 13.0503 17.2944 13.1859 17.5087 13.2187L20.4761 13.6492C20.7269 13.685 20.9364 13.8582 21.0194 14.097C21.0976 14.3364 21.0302 14.5991 20.8463 14.7717L18.6133 16.8853Z" fill="white"/>
</svg>
