<svg width="30" height="30" viewBox="0 0 30 30" fill="none" xmlns="http://www.w3.org/2000/svg">
<rect x="6.10352e-05" y="7.62939e-06" width="30" height="30" rx="12" fill="#22B07D"/>
<path d="M18.6133 16.2617C18.4586 16.4116 18.3876 16.6283 18.4228 16.8409L18.9536 19.7784C18.9984 20.0274 18.8933 20.2793 18.6849 20.4232C18.4807 20.5725 18.2091 20.5904 17.9864 20.471L15.342 19.0918C15.25 19.0428 15.1479 19.0165 15.0435 19.0136H14.8817C14.8255 19.0219 14.7706 19.0398 14.7204 19.0673L12.0755 20.4531C11.9447 20.5187 11.7966 20.542 11.6516 20.5187C11.2981 20.4519 11.0623 20.1151 11.1202 19.7599L11.6516 16.8223C11.6868 16.608 11.6157 16.3901 11.4611 16.2378L9.30512 14.1481C9.12481 13.9732 9.06212 13.7105 9.14451 13.4734C9.22452 13.237 9.42871 13.0645 9.6753 13.0257L12.6427 12.5952C12.8684 12.5719 13.0666 12.4346 13.1681 12.2316L14.4757 9.55077C14.5067 9.49106 14.5467 9.43613 14.5951 9.38956L14.6488 9.34777C14.6769 9.31672 14.7091 9.29105 14.7449 9.27015L14.81 9.24627L14.9115 9.20448H15.1629C15.3874 9.22776 15.585 9.3621 15.6883 9.56271L17.0132 12.2316C17.1087 12.4268 17.2944 12.5623 17.5087 12.5952L20.4761 13.0257C20.7269 13.0615 20.9364 13.2346 21.0194 13.4734C21.0976 13.7129 21.0302 13.9756 20.8463 14.1481L18.6133 16.2617Z" fill="white"/>
</svg>
