<svg width="32" height="32" viewBox="0 0 32 32" fill="none" xmlns="http://www.w3.org/2000/svg">
<rect width="32" height="32" rx="12" fill="#FF8700"/>
<path fill-rule="evenodd" clip-rule="evenodd" d="M19.8466 13.5879H22.6673C22.6673 11.3231 21.3103 10 19.011 10H12.9903C10.691 10 9.33398 11.3231 9.33398 13.559V18.441C9.33398 20.677 10.691 22 12.9903 22H19.011C21.3103 22 22.6673 20.677 22.6673 18.441V18.233H19.8466C18.5375 18.233 17.4762 17.1984 17.4762 15.922C17.4762 14.6457 18.5375 13.611 19.8466 13.611V13.5879ZM19.8463 14.5816H22.1692C22.4442 14.5816 22.667 14.7989 22.667 15.0669V16.754C22.6638 17.0207 22.4428 17.2362 22.1692 17.2393H19.8996C19.2369 17.248 18.6573 16.8056 18.507 16.1762C18.4317 15.7855 18.5374 15.3824 18.7957 15.0748C19.054 14.7673 19.4386 14.5867 19.8463 14.5816ZM19.9479 16.3553H20.1672C20.4487 16.3553 20.6768 16.1329 20.6768 15.8585C20.6768 15.5841 20.4487 15.3616 20.1672 15.3616H19.9479C19.8133 15.3601 19.6837 15.4111 19.5879 15.5034C19.4922 15.5957 19.4383 15.7214 19.4383 15.8527C19.4383 16.1281 19.6655 16.3522 19.9479 16.3553ZM12.4929 13.5879H16.2558C16.5373 13.5879 16.7655 13.3654 16.7655 13.091C16.7655 12.8166 16.5373 12.5941 16.2558 12.5941H12.4929C12.2137 12.5941 11.9865 12.8131 11.9833 13.0852C11.9832 13.3606 12.2105 13.5847 12.4929 13.5879Z" fill="white"/>
</svg>
