<svg width="126" height="52" viewBox="0 0 126 52" fill="none" xmlns="http://www.w3.org/2000/svg">
<rect y="12" width="4" height="35" rx="2" fill="#262135"/>
<rect x="10" y="5" width="4" height="25" rx="2" fill="#262135"/>
<rect x="19" y="11" width="4" height="25" rx="2" fill="#262135"/>
<rect x="29" y="22" width="4" height="27" rx="2" fill="#262135"/>
<rect x="38" y="14" width="4" height="35" rx="2" fill="#262135"/>
<rect x="47" y="18" width="4" height="19" rx="2" fill="#262135"/>
<rect x="56" y="10" width="4" height="37" rx="2" fill="#262135"/>
<rect x="66" y="10" width="4" height="27" rx="2" fill="#262135" fill-opacity="0.22"/>
<rect x="75" y="14" width="4" height="23" rx="2" fill="#262135" fill-opacity="0.22"/>
<rect x="85" y="4" width="4" height="18" rx="2" fill="#262135" fill-opacity="0.22"/>
<rect x="94" width="5" height="37" rx="2.5" fill="#262135" fill-opacity="0.22"/>
<rect x="104" y="11" width="4" height="29" rx="2" fill="#262135" fill-opacity="0.22"/>
<rect x="114" y="14" width="4" height="28" rx="2" fill="#262135" fill-opacity="0.22"/>
<rect x="122" y="16" width="4" height="36" rx="2" fill="#262135" fill-opacity="0.22"/>
</svg>
