<svg width="34" height="35" viewBox="0 0 34 35" fill="none" xmlns="http://www.w3.org/2000/svg">
<g filter="url(#filter0_d_0_525)">
<rect x="1" width="32" height="32" rx="12" fill="#22B07D"/>
</g>
<path fill-rule="evenodd" clip-rule="evenodd" d="M17.1024 19.0933L18.9968 17.18C19.1882 16.98 19.1882 16.6667 18.9902 16.4733C18.7988 16.28 18.4885 16.28 18.2971 16.4733L17.2476 17.54V14.3267C17.2476 14.0467 17.0298 13.8267 16.7592 13.8267C16.4885 13.8267 16.2641 14.0467 16.2641 14.3267V17.54L15.2146 16.4733C15.0232 16.28 14.713 16.28 14.5215 16.4733C14.3301 16.6667 14.3301 16.98 14.5215 17.18L16.4093 19.0933C16.4555 19.14 16.5083 19.1733 16.5677 19.2C16.6271 19.2267 16.6931 19.24 16.7592 19.24C16.8252 19.24 16.8846 19.2267 16.944 19.2C17.0034 19.1733 17.0562 19.14 17.1024 19.0933ZM21.8855 14.0171C22.0406 14.0153 22.2096 14.0133 22.3631 14.0133C22.5347 14.0133 22.6667 14.1467 22.6667 14.3133V19.6733C22.6667 21.3267 21.3334 22.6667 19.6964 22.6667H14.4489C12.7261 22.6667 11.3334 21.26 11.3334 19.5267V12.34C11.3334 10.6867 12.6601 9.33334 14.3103 9.33334H17.835C18 9.33334 18.1387 9.47334 18.1387 9.64V11.7867C18.1387 13.0067 19.1288 14.0067 20.3433 14.0133C20.6222 14.0133 20.8719 14.0155 21.0898 14.0173C21.2586 14.0187 21.4083 14.02 21.538 14.02C21.632 14.02 21.7537 14.0186 21.8855 14.0171ZM22.0697 13.0441C21.5278 13.0461 20.8882 13.0441 20.4282 13.0394C19.6981 13.0394 19.0968 12.4321 19.0968 11.6947V9.93741C19.0968 9.65007 19.442 9.50741 19.6387 9.71474C20.1474 10.2484 20.9263 11.0666 21.5843 11.7577C21.8501 12.0369 22.0962 12.2954 22.2968 12.5061C22.4895 12.7081 22.3483 13.0434 22.0697 13.0441Z" fill="white"/>
<defs>
<filter id="filter0_d_0_525" x="0" y="0" width="34" height="35" filterUnits="userSpaceOnUse" color-interpolation-filters="sRGB">
<feFlood flood-opacity="0" result="BackgroundImageFix"/>
<feColorMatrix in="SourceAlpha" type="matrix" values="0 0 0 0 0 0 0 0 0 0 0 0 0 0 0 0 0 0 127 0" result="hardAlpha"/>
<feOffset dy="2"/>
<feGaussianBlur stdDeviation="0.5"/>
<feColorMatrix type="matrix" values="0 0 0 0 0.25098 0 0 0 0 0.282353 0 0 0 0 0.321569 0 0 0 0.05 0"/>
<feBlend mode="normal" in2="BackgroundImageFix" result="effect1_dropShadow_0_525"/>
<feBlend mode="normal" in="SourceGraphic" in2="effect1_dropShadow_0_525" result="shape"/>
</filter>
</defs>
</svg>
