<svg width="30" height="30" viewBox="0 0 30 30" fill="none" xmlns="http://www.w3.org/2000/svg">
<rect x="6.10352e-05" y="1.52588e-05" width="30" height="30" rx="12" fill="#32A7E2"/>
<path d="M18.6133 16.3147C18.4586 16.4645 18.3876 16.6813 18.4228 16.8938L18.9536 19.8313C18.9984 20.0803 18.8933 20.3323 18.6849 20.4762C18.4807 20.6254 18.2091 20.6433 17.9864 20.5239L15.342 19.1447C15.25 19.0958 15.1479 19.0695 15.0435 19.0665H14.8817C14.8255 19.0749 14.7706 19.0928 14.7204 19.1202L12.0755 20.506C11.9447 20.5717 11.7966 20.595 11.6516 20.5717C11.2981 20.5048 11.0623 20.1681 11.1202 19.8128L11.6516 16.8753C11.6868 16.661 11.6157 16.443 11.4611 16.2908L9.30512 14.2011C9.12481 14.0261 9.06212 13.7634 9.14451 13.5264C9.22452 13.29 9.42871 13.1174 9.6753 13.0786L12.6427 12.6481C12.8684 12.6248 13.0666 12.4875 13.1681 12.2845L14.4757 9.60373C14.5067 9.54402 14.5467 9.48909 14.5951 9.44252L14.6488 9.40073C14.6769 9.36968 14.7091 9.344 14.7449 9.32311L14.81 9.29923L14.9115 9.25743H15.1629C15.3874 9.28072 15.585 9.41505 15.6883 9.61567L17.0132 12.2845C17.1087 12.4798 17.2944 12.6153 17.5087 12.6481L20.4761 13.0786C20.7269 13.1144 20.9364 13.2876 21.0194 13.5264C21.0976 13.7658 21.0302 14.0285 20.8463 14.2011L18.6133 16.3147Z" fill="white"/>
</svg>
