<svg width="32" height="32" viewBox="0 0 32 32" fill="none" xmlns="http://www.w3.org/2000/svg">
<rect width="32" height="32" rx="12" fill="#B548C6"/>
<path d="M15.4859 12.8603V10.1877C15.4859 9.90348 15.7126 9.66666 15.9993 9.66666C16.2559 9.66666 16.4734 9.86566 16.5078 10.1177L16.5126 10.1877V12.8603L19.6992 12.8605C21.2859 12.8605 22.5894 14.1599 22.6626 15.7803L22.6659 15.9241V19.2836C22.6659 20.9154 21.4076 22.2548 19.8445 22.33L19.7059 22.3333H12.2925C10.7059 22.3333 9.40858 21.0405 9.33574 19.4142L9.33252 19.2698L9.33252 15.9172C9.33252 14.2854 10.5845 12.9395 12.1472 12.8639L12.2859 12.8605H15.4859V17.1288L14.4192 16.0273C14.2192 15.8208 13.8925 15.8208 13.6925 16.0273C13.5925 16.1306 13.5459 16.2683 13.5459 16.406C13.5459 16.5106 13.5757 16.6196 13.6389 16.712L13.6925 16.7777L15.6325 18.7879C15.7259 18.8912 15.8592 18.9463 15.9992 18.9463C16.1103 18.9463 16.2214 18.908 16.3094 18.8355L16.3592 18.7879L18.2992 16.7777C18.4992 16.5712 18.4992 16.2339 18.2992 16.0273C18.1174 15.8396 17.8309 15.8225 17.63 15.9761L17.5725 16.0273L16.5125 17.1288V12.8605L15.4859 12.8603Z" fill="white"/>
</svg>
