<svg width="24" height="24" viewBox="0 0 24 24" fill="none" xmlns="http://www.w3.org/2000/svg">
<path d="M9.1349 20.7734V17.7156C9.1349 16.9351 9.77229 16.3023 10.5586 16.3023H13.4327C13.8103 16.3023 14.1724 16.4512 14.4394 16.7163C14.7064 16.9813 14.8564 17.3408 14.8564 17.7156V20.7734C14.854 21.0979 14.9822 21.4099 15.2125 21.6402C15.4428 21.8705 15.7562 22 16.0831 22H18.0439C18.9598 22.0024 19.8389 21.6429 20.4873 21.0008C21.1357 20.3588 21.5001 19.487 21.5001 18.5779V9.86689C21.5001 9.13249 21.1722 8.43587 20.6047 7.9647L13.9341 2.6759C12.7738 1.74859 11.1112 1.77853 9.98551 2.74701L3.46713 7.9647C2.87286 8.42198 2.51767 9.12067 2.50012 9.86689V18.569C2.50012 20.4639 4.0475 22 5.9563 22H7.87241C8.55135 22 9.10312 21.4562 9.10804 20.7823L9.1349 20.7734Z" fill="#5D5D9C"/>
</svg>
