<svg width="29" height="29" viewBox="0 0 29 29" fill="none" xmlns="http://www.w3.org/2000/svg">
<path fill-rule="evenodd" clip-rule="evenodd" d="M16.7201 18.731C18.1248 18.731 19.2681 19.8662 19.2681 21.2615V24.8502C19.2681 25.15 19.5085 25.3903 19.8165 25.3973H22.0401C23.7925 25.3973 25.217 23.9903 25.217 22.2613V12.0833C25.2088 11.4883 24.9253 10.9283 24.4388 10.5562L16.747 4.42185C15.7145 3.60401 14.2701 3.60401 13.2341 4.42418L5.59479 10.5538C5.08963 10.9377 4.80613 11.4977 4.80029 12.1032V22.2613C4.80029 23.9903 6.22479 25.3973 7.97713 25.3973H10.2218C10.538 25.3973 10.7946 25.1465 10.7946 24.8385C10.7946 24.7708 10.8028 24.7032 10.8168 24.639V21.2615C10.8168 19.8743 11.9531 18.7403 13.3473 18.731H16.7201ZM22.0401 27.1473H19.7955C18.5098 27.117 17.5181 26.1078 17.5181 24.8502V21.2615C17.5181 20.831 17.16 20.481 16.7201 20.481H13.3531C12.9226 20.4833 12.5668 20.8345 12.5668 21.2615V24.8385C12.5668 24.926 12.5551 25.01 12.5306 25.0893C12.4046 26.2443 11.4176 27.1473 10.2218 27.1473H7.97713C5.25996 27.1473 3.05029 24.9552 3.05029 22.2613V12.095C3.06196 10.9353 3.59629 9.87368 4.51913 9.17485L12.1433 3.05568C13.8221 1.72568 16.1613 1.72568 17.8366 3.05335L25.5156 9.17835C26.4175 9.86551 26.9518 10.9248 26.967 12.0705V22.2613C26.967 24.9552 24.7573 27.1473 22.0401 27.1473Z" fill="#FEB97A"/>
</svg>
