<svg width="31" height="21" viewBox="0 0 31 21" fill="none" xmlns="http://www.w3.org/2000/svg">
<path d="M3.80078 7.29297H6.77734V5.60547C6.77734 4.51562 7.38672 3.91797 8.5 3.91797H12.8711C13.9727 3.91797 14.582 4.51562 14.582 5.60547V7.29297H17.2422V5.60547C17.2422 4.51562 17.8516 3.91797 19.0234 3.91797H23.125C24.2969 3.91797 24.9062 4.51562 24.9062 5.60547V7.29297H27.8945V3.92969C27.8945 1.76172 26.7227 0.648438 24.6133 0.648438H7.07031C4.96094 0.648438 3.80078 1.76172 3.80078 3.92969V7.29297ZM0.988281 19.4219C0.988281 20.0312 1.375 20.418 1.98438 20.418H2.6875C3.28516 20.418 3.68359 20.0312 3.68359 19.4219V17.6875C3.8125 17.7227 4.19922 17.7461 4.48047 17.7461H27.1914C27.4727 17.7461 27.8594 17.7227 27.9883 17.6875V19.4219C27.9883 20.0312 28.3867 20.418 28.9844 20.418H29.6875C30.2969 20.418 30.6836 20.0312 30.6836 19.4219V12.4375C30.6836 10.1992 29.4414 8.96875 27.2031 8.96875H4.46875C2.23047 8.96875 0.988281 10.1992 0.988281 12.4375V19.4219Z" fill="black"/>
</svg>
