<svg width="40" height="40" viewBox="0 0 40 40" fill="none" xmlns="http://www.w3.org/2000/svg">
<g clip-path="url(#clip0_851_358)">
<path d="M26.2891 22.7852C25.7383 22.7852 25.1836 22.7187 24.6445 22.582L22.1211 21.7734C20.7383 21.332 19.2539 21.332 17.8711 21.7773L15.4336 22.5586C13.9375 22.9414 12.4141 22.8242 11.0664 22.2461L9.61328 21.625C9.16406 21.4336 8.67578 21.332 8.1875 21.332H0.667969C0.300781 21.332 0 21.0352 0 20.6641V19.332C0 18.9648 0.296875 18.6641 0.667969 18.6641H8.19922C9.04297 18.6641 9.88281 18.8359 10.6602 19.168L12.1172 19.793C12.9297 20.1406 13.8438 20.207 14.7031 19.9922L17.0508 19.2344C18.9688 18.6172 21.0273 18.6172 22.9453 19.2305L25.3828 20.0117C26.1602 20.207 27.0781 20.1367 27.8906 19.7891L29.3477 19.168C30.1289 18.8359 30.9688 18.6641 31.8203 18.6641H39.3398C39.707 18.6641 40.0078 18.9609 40.0078 19.332V20.6641C40.0078 21.0313 39.7109 21.332 39.3398 21.332H31.8164C31.3281 21.332 30.8438 21.4297 30.3945 21.625L28.9375 22.2461C28.0977 22.6055 27.1953 22.7852 26.2891 22.7852Z" fill="url(#paint0_linear_851_358)"/>
<path d="M2.21484 26H6.60156C6.96484 26 7.26172 25.707 7.26172 25.3398V14.6602C7.26172 14.2969 6.96875 14 6.60156 14H2.21484C1.85156 14 1.55469 14.2969 1.55469 14.6602V25.3398C1.55469 25.7031 1.84766 26 2.21484 26ZM37.7852 26H33.3984C33.0352 26 32.7383 25.707 32.7383 25.3398V14.6602C32.7383 14.2969 33.0312 14 33.3984 14H37.7891C38.1523 14 38.4492 14.2969 38.4492 14.6602V25.3398C38.4453 25.7031 38.1523 26 37.7852 26Z" fill="url(#paint1_linear_851_358)"/>
</g>
<defs>
<linearGradient id="paint0_linear_851_358" x1="20.0039" y1="18.6641" x2="20.0039" y2="22.7852" gradientUnits="userSpaceOnUse">
<stop stop-color="#FFA992"/>
<stop offset="1" stop-color="#FD0D92"/>
</linearGradient>
<linearGradient id="paint1_linear_851_358" x1="20.002" y1="14" x2="20.002" y2="26" gradientUnits="userSpaceOnUse">
<stop stop-color="#FFA992"/>
<stop offset="1" stop-color="#FD0D92"/>
</linearGradient>
<clipPath id="clip0_851_358">
<rect width="40" height="40" fill="white"/>
</clipPath>
</defs>
</svg>
