<svg width="40" height="40" viewBox="0 0 40 40" fill="none" xmlns="http://www.w3.org/2000/svg">
<path d="M23.5197 15.2305C23.5705 13.8047 22.4572 12.6055 21.0314 12.5508C19.6056 12.5 18.4064 13.6133 18.3517 15.0391C18.3517 15.082 18.3595 15.1211 18.3595 15.1601L17.7189 15.9023L16.7775 13.8008C16.3165 12.7734 15.1134 12.3125 14.0822 12.7734C13.0548 13.2344 12.5939 14.4375 13.0548 15.4687L15.3048 20.4922C15.59 21.1289 16.1798 21.5742 16.8673 21.6758C16.9415 21.6875 17.0158 21.6914 17.09 21.6953C17.7033 21.7187 18.3009 21.4609 18.7072 20.9922L21.59 17.6601C21.6017 17.6484 21.6017 17.6289 21.6134 17.6172C22.6759 17.3281 23.4767 16.3867 23.5197 15.2305Z" fill="white"/>
<path d="M19.0935 12.7773C19.6013 12.3789 20.2381 12.1328 20.9373 12.1328L21.0506 12.1367C21.4607 12.1523 21.8553 12.25 22.2146 12.418C23.4568 11.7188 24.3045 10.4062 24.3045 8.87891C24.3045 6.625 22.4802 4.80078 20.2263 4.80078C17.9724 4.80078 16.1482 6.625 16.1482 8.87891C16.1443 10.7344 17.3943 12.2852 19.0935 12.7773ZM30.4021 13.1328C29.8006 13.1367 29.2576 13.3516 28.8201 13.6953L23.5701 13.7188C23.8201 14.1836 23.9529 14.7031 23.9334 15.2422C23.8943 16.3398 23.2459 17.2695 22.2967 17.7578C22.3709 17.7656 22.4334 17.8008 22.5115 17.8008H22.5193L28.8357 17.7734C29.2771 18.1133 29.824 18.3242 30.4256 18.3203C31.8592 18.3125 33.0154 17.1484 33.0076 15.7148C33.0037 14.2852 31.8357 13.1289 30.4021 13.1328ZM25.1131 25.6719L21.867 21.4961C21.8357 21.457 21.8045 21.4219 21.7732 21.3828L22.2029 17.8086C22.0896 17.8633 21.9881 17.9375 21.867 17.9766L19.2967 20.9453C19.1951 21 19.0974 21.0625 19.0076 21.1328C18.7927 21.3008 18.6209 21.5 18.4959 21.7188C18.1052 21.9727 17.6443 22.1094 17.1677 22.1094H17.0779C16.9881 22.1055 16.8982 22.0977 16.8084 22.0859C15.9724 21.9648 15.2693 21.4297 14.9256 20.6602L14.2263 19.0977L13.8396 22.3086H13.8357L13.3396 26L10.3435 31.8516C9.83181 32.8555 10.2263 34.082 11.2302 34.5937C11.5037 34.7344 11.7967 34.8086 12.0818 34.8164C12.8513 34.8437 13.6013 34.4336 13.9724 33.707L17.1287 27.543C17.2342 27.3359 17.3045 27.1172 17.3357 26.8867L17.7888 23.5156L18.4099 23.5898C18.4724 23.7305 18.5545 23.8633 18.6521 23.9883L21.3435 27.4492L20.3865 32.7969C20.1873 33.9062 20.9256 34.9648 22.0349 35.1641C22.1326 35.1797 22.2263 35.1914 22.3201 35.1953C23.3201 35.2305 24.2185 34.5312 24.3982 33.5156L25.5076 27.2812C25.6131 26.7109 25.4685 26.125 25.1131 25.6719ZM17.1599 13.6328L17.8318 15.1367L17.9373 15.0156C17.9685 14.2617 18.2771 13.5898 18.7537 13.082L16.5271 12.8125C16.7849 13.0391 17.0115 13.3047 17.1599 13.6328Z" fill="white"/>
</svg>
