<svg width="40" height="40" viewBox="0 0 40 40" fill="none" xmlns="http://www.w3.org/2000/svg">
<path d="M19.3828 28.2578C19.7813 28.3437 20.1875 28.3945 20.5938 28.4375C20.6641 28.4453 20.7344 28.4609 20.8047 28.4687C22.2227 28.5859 23.6602 28.4297 25.0312 28.0078L11.0234 14C10.7461 14.9141 10.5781 15.8555 10.5313 16.8008V16.832C10.5039 17.3906 10.5352 17.9531 10.5938 18.5078C10.6406 18.9492 10.6992 19.3906 10.7969 19.8242C10.8125 19.8906 10.8008 19.957 10.8164 20.0234C10.8516 20.2539 10.8711 20.4844 10.8789 20.7148C10.8906 21.0039 10.8867 21.2851 10.8477 21.5703C10.8164 21.8398 10.7734 22.1055 10.7031 22.3633C10.6758 22.4609 10.6406 22.5547 10.6094 22.6523C10.3633 23.4101 9.96094 24.1133 9.375 24.6992L9.27344 24.8008L5.22266 28.8476C4.99219 29.0781 4.99219 29.4492 5.22266 29.6797L9.33203 33.7891C9.5625 34.0195 9.93359 34.0195 10.1641 33.7891L14.2148 29.7383L14.3164 29.6367C15.6406 28.3125 17.5508 27.8672 19.3828 28.2578ZM27.918 7.90624C24.2109 5.40624 19.2109 5.41796 15.5117 7.92577C13.668 9.17577 12.3633 10.8281 11.5391 12.6406L26.3867 27.4883C27.5742 26.9492 28.6914 26.1992 29.668 25.2226C34.5742 20.3164 33.9922 12 27.918 7.90624Z" fill="url(#paint0_linear_851_319)"/>
<path d="M27.9492 30.4649C27.9492 31.3931 28.318 32.2834 28.9743 32.9397C29.6307 33.5961 30.521 33.9649 31.4492 33.9649C32.3775 33.9649 33.2677 33.5961 33.9241 32.9397C34.5805 32.2834 34.9492 31.3931 34.9492 30.4649C34.9492 29.5366 34.5805 28.6464 33.9241 27.99C33.2677 27.3336 32.3775 26.9649 31.4492 26.9649C30.521 26.9649 29.6307 27.3336 28.9743 27.99C28.318 28.6464 27.9492 29.5366 27.9492 30.4649Z" fill="url(#paint1_linear_851_319)"/>
<defs>
<linearGradient id="paint0_linear_851_319" x1="19.0034" y1="6.03806" x2="19.0034" y2="33.9619" gradientUnits="userSpaceOnUse">
<stop stop-color="#FFA992"/>
<stop offset="1" stop-color="#FD0D92"/>
</linearGradient>
<linearGradient id="paint1_linear_851_319" x1="31.4492" y1="26.9649" x2="31.4492" y2="33.9649" gradientUnits="userSpaceOnUse">
<stop stop-color="#FFA992"/>
<stop offset="1" stop-color="#FD0D92"/>
</linearGradient>
</defs>
</svg>
