<svg width="40" height="40" viewBox="0 0 40 40" fill="none" xmlns="http://www.w3.org/2000/svg">
<path d="M17.2989 15.0774C17.6547 15.4332 18.0772 15.7155 18.5421 15.9081C19.0071 16.1007 19.5054 16.1999 20.0086 16.1999C20.5119 16.1999 21.0102 16.1008 21.4752 15.9082C21.9401 15.7156 22.3626 15.4333 22.7184 15.0775C23.0743 14.7216 23.3566 14.2991 23.5491 13.8342C23.7417 13.3692 23.8408 12.8709 23.8408 12.3676C23.8407 11.8644 23.7416 11.3661 23.549 10.9011C23.3563 10.4362 23.074 10.0138 22.7181 9.65795C22.3623 9.30207 21.9398 9.01977 21.4749 8.82716C21.01 8.63455 20.5116 8.53541 20.0084 8.5354C19.5051 8.53539 19.0068 8.63451 18.5419 8.82709C18.0769 9.01968 17.6544 9.30196 17.2986 9.65782C16.9427 10.0137 16.6605 10.4362 16.4679 10.9011C16.2753 11.3661 16.1762 11.8644 16.1763 12.3677C16.1763 12.8709 16.2755 13.3692 16.4681 13.8342C16.6607 14.2991 16.943 14.7215 17.2989 15.0774Z" fill="url(#paint0_linear_851_410)"/>
<path d="M30.121 23.4102L28.1015 22.3477C28.0546 22.2852 28.0077 22.2266 27.9569 22.1641L24.2304 17.3047C24.121 17.082 23.8983 16.9453 23.6522 16.9453H16.3671C16.121 16.9453 15.8983 17.0859 15.789 17.3047L12.0624 22.1641C12.0155 22.2266 11.9686 22.2852 11.9179 22.3477L9.89833 23.4102C9.29676 23.9219 9.22255 24.8281 9.73426 25.4297C10.246 26.0312 11.1522 26.1055 11.7538 25.5938L14.2304 24.1445C14.2772 24.082 14.3241 24.0234 14.3749 23.9609L15.9686 21.8672V33.3711C15.9686 34.4258 16.8241 35.2852 17.8827 35.2852C18.9374 35.2852 19.7968 34.4297 19.7968 33.3711V26.7969H20.2343V35.3828C20.2343 36.4375 21.0897 37.293 22.1444 37.293C23.1991 37.293 24.0546 36.4375 24.0546 35.3828V23.457L24.0975 21.9258L25.6444 23.9648C25.6913 24.0273 25.7382 24.0859 25.789 24.1484L28.2655 25.5977C28.8671 26.1094 29.7733 26.0391 30.285 25.4336C30.7968 24.8281 30.7225 23.9219 30.121 23.4102Z" fill="url(#paint1_linear_851_410)"/>
<path d="M31.0117 21.8516H29.3438V14.2344C29.3438 9.14453 25.2031 5 20.1094 5C15.0156 5 10.875 9.14062 10.875 14.2344V21.8555H9.20703V14.2344C9.20703 8.22266 14.0977 3.33594 20.1055 3.33594C26.1133 3.33594 31.0039 8.22656 31.0039 14.2344V21.8516H31.0117Z" fill="url(#paint2_linear_851_410)"/>
<defs>
<linearGradient id="paint0_linear_851_410" x1="20.0085" y1="8.5354" x2="20.0085" y2="16.1999" gradientUnits="userSpaceOnUse">
<stop stop-color="#FFA992"/>
<stop offset="1" stop-color="#FD0D92"/>
</linearGradient>
<linearGradient id="paint1_linear_851_410" x1="20.0097" y1="16.9453" x2="20.0097" y2="37.293" gradientUnits="userSpaceOnUse">
<stop stop-color="#FFA992"/>
<stop offset="1" stop-color="#FD0D92"/>
</linearGradient>
<linearGradient id="paint2_linear_851_410" x1="20.1094" y1="3.33594" x2="20.1094" y2="21.8555" gradientUnits="userSpaceOnUse">
<stop stop-color="#FFA992"/>
<stop offset="1" stop-color="#FD0D92"/>
</linearGradient>
</defs>
</svg>
