<svg width="80" height="80" viewBox="0 0 80 80" fill="none" xmlns="http://www.w3.org/2000/svg">
<mask id="mask0_582_913" style="mask-type:alpha" maskUnits="userSpaceOnUse" x="0" y="0" width="80" height="80">
<circle cx="40" cy="40" r="40" fill="#C4C4C4"/>
</mask>
<g mask="url(#mask0_582_913)">
<path d="M12 70.8572V87.4286L40 94.8572L68 87.4286V70.8572C68 68.1143 65.7143 65.7143 64 65.1429L47.4286 58.8572H33.7143C29.1429 60.381 19.2 63.7715 16 65.1429C12.8 66.5143 12 69.5238 12 70.8572Z" fill="white" stroke="#3E4958" stroke-width="2"/>
<path d="M30.2857 59.4286V48H49.7143V59.4286L40 63.4286L30.2857 59.4286Z" fill="white" stroke="#3E4958" stroke-width="2"/>
<path d="M58.2857 8.57141H36C22.8572 8.57141 21.7143 20.5714 21.7143 24C21.7143 26.7807 23.0476 30.8571 24 32.5714C24 45.1428 29.1429 53.1428 40 53.1428C52 53.1428 56.5714 44 56.5714 32.5714C56.5714 32.5714 58.2857 28.4746 58.2857 25.7143V8.57141Z" fill="white" stroke="#3E4958" stroke-width="2"/>
<path d="M28.5714 28.5714V24.3149C28.5714 23.8092 28.9471 23.3831 29.4489 23.3206C35.6887 22.543 44.3649 21.4041 52 26.8577" stroke="#3E4958" stroke-width="2" stroke-linecap="round"/>
<path d="M40 62.8572V82.8572" stroke="#3E4958" stroke-width="2" stroke-linecap="round"/>
<path d="M34.5761 68.7742L40 62.8571L30.2857 56.5714L26.8571 59.4286L33.0069 68.6531C33.3668 69.193 34.1376 69.2525 34.5761 68.7742Z" fill="white"/>
<path d="M40 62.8571L40.7372 63.5329L41.5368 62.6605L40.5433 62.0176L40 62.8571ZM34.5761 68.7742L33.8389 68.0984L33.8389 68.0984L34.5761 68.7742ZM33.0069 68.6531L33.8389 68.0984H33.8389L33.0069 68.6531ZM26.8571 59.4286L26.217 58.6603C25.8244 58.9875 25.7416 59.558 26.0251 59.9833L26.8571 59.4286ZM30.2857 56.5714L30.829 55.7318L30.211 55.332L29.6455 55.8032L30.2857 56.5714ZM39.2628 62.1814L33.8389 68.0984L35.3132 69.4499L40.7372 63.5329L39.2628 62.1814ZM33.8389 68.0984L27.6892 58.8739L26.0251 59.9833L32.1748 69.2078L33.8389 68.0984ZM27.4973 60.1968L30.9259 57.3396L29.6455 55.8032L26.217 58.6603L27.4973 60.1968ZM29.7425 57.411L39.4567 63.6967L40.5433 62.0176L30.829 55.7318L29.7425 57.411ZM33.8389 68.0984L32.1748 69.2078C32.8947 70.2876 34.4363 70.4065 35.3132 69.4499L33.8389 68.0984Z" fill="#3E4958"/>
<path d="M45.4239 68.7742L40 62.8571L49.7143 56.5714L53.1429 59.4286L46.9931 68.6531C46.6332 69.193 45.8624 69.2525 45.4239 68.7742Z" fill="white"/>
<path d="M40 62.8571L39.2628 63.5329L38.4632 62.6605L39.4567 62.0176L40 62.8571ZM45.4239 68.7742L46.1611 68.0984L46.1611 68.0984L45.4239 68.7742ZM46.9931 68.6531L46.1611 68.0984H46.1611L46.9931 68.6531ZM53.1429 59.4286L53.783 58.6603C54.1756 58.9875 54.2584 59.558 53.9749 59.9833L53.1429 59.4286ZM49.7143 56.5714L49.171 55.7318L49.789 55.332L50.3545 55.8032L49.7143 56.5714ZM40.7372 62.1814L46.1611 68.0984L44.6868 69.4499L39.2628 63.5329L40.7372 62.1814ZM46.1611 68.0984L52.3108 58.8739L53.9749 59.9833L47.8252 69.2078L46.1611 68.0984ZM52.5027 60.1968L49.0741 57.3396L50.3545 55.8032L53.783 58.6603L52.5027 60.1968ZM50.2575 57.411L40.5432 63.6967L39.4567 62.0176L49.171 55.7318L50.2575 57.411ZM46.1611 68.0984L47.8252 69.2078C47.1053 70.2876 45.5637 70.4065 44.6868 69.4499L46.1611 68.0984Z" fill="#3E4958"/>
</g>
</svg>
