<svg width="17" height="16" viewBox="0 0 17 16" fill="none" xmlns="http://www.w3.org/2000/svg">
<path d="M0.116699 5.65771C0.116699 9.19385 3.08008 12.6719 7.76172 15.6602C7.93604 15.7681 8.18506 15.8843 8.35938 15.8843C8.53369 15.8843 8.78271 15.7681 8.96533 15.6602C13.6387 12.6719 16.6021 9.19385 16.6021 5.65771C16.6021 2.71924 14.585 0.644043 11.8955 0.644043C10.3599 0.644043 9.11475 1.37451 8.35938 2.49512C7.62061 1.38281 6.35889 0.644043 4.82324 0.644043C2.13379 0.644043 0.116699 2.71924 0.116699 5.65771ZM1.45312 5.65771C1.45312 3.44971 2.88086 1.98047 4.80664 1.98047C6.36719 1.98047 7.26367 2.95166 7.79492 3.78174C8.01904 4.11377 8.16016 4.20508 8.35938 4.20508C8.55859 4.20508 8.68311 4.10547 8.92383 3.78174C9.49658 2.96826 10.3599 1.98047 11.9121 1.98047C13.8379 1.98047 15.2656 3.44971 15.2656 5.65771C15.2656 8.74561 12.0034 12.0742 8.53369 14.3818C8.45068 14.4399 8.39258 14.4814 8.35938 14.4814C8.32617 14.4814 8.26807 14.4399 8.19336 14.3818C4.71533 12.0742 1.45312 8.74561 1.45312 5.65771Z" fill="white"/>
</svg>
