<svg width="15" height="15" viewBox="0 0 15 15" fill="none" xmlns="http://www.w3.org/2000/svg">
<g clip-path="url(#clip0_755_25201)">
<path d="M13.125 6.25073C13.125 10.6257 7.5 14.3757 7.5 14.3757C7.5 14.3757 1.875 10.6257 1.875 6.25073C1.875 4.75889 2.46763 3.32815 3.52252 2.27326C4.57742 1.21836 6.00816 0.625732 7.5 0.625732C8.99184 0.625732 10.4226 1.21836 11.4775 2.27326C12.5324 3.32815 13.125 4.75889 13.125 6.25073Z" stroke="#5669FF" stroke-width="1.69811" stroke-linecap="round" stroke-linejoin="round"/>
<path d="M7.5 8.12518C8.53553 8.12518 9.375 7.28572 9.375 6.25018C9.375 5.21465 8.53553 4.37518 7.5 4.37518C6.46447 4.37518 5.625 5.21465 5.625 6.25018C5.625 7.28572 6.46447 8.12518 7.5 8.12518Z" stroke="#5669FF" stroke-width="1.69811" stroke-linecap="round" stroke-linejoin="round"/>
</g>
<defs>
<clipPath id="clip0_755_25201">
<rect width="15" height="15" fill="white" transform="translate(0 0.000274658)"/>
</clipPath>
</defs>
</svg>
