<svg width="17" height="16" viewBox="0 0 17 16" fill="none" xmlns="http://www.w3.org/2000/svg">
<path d="M0.809646 5.40904C0.618703 5.40476 0.433057 5.33448 0.286455 5.21097C0.139852 5.08746 0.0420273 4.91894 0.0107626 4.73602C-0.020502 4.5531 0.0168703 4.36794 0.116084 4.21419C0.215298 4.06045 0.369767 3.94832 0.551412 3.89821L15.5341 0.0228093C15.6691 -0.00993392 15.8121 -0.00738438 15.9486 0.0301991C16.0851 0.0677827 16.2103 0.139074 16.3116 0.236894C16.4129 0.334714 16.4868 0.455609 16.5257 0.587404C16.5646 0.7192 16.5672 0.857241 16.5333 0.987628L12.5196 15.4537C12.4706 15.632 12.3557 15.7846 12.196 15.8832C12.0363 15.9819 11.8428 16.0199 11.6512 15.9901C11.46 15.9578 11.2846 15.8607 11.1568 15.7165C11.029 15.5723 10.9573 15.3905 10.9547 15.2043C11.0527 10.0136 6.18535 5.31466 0.809646 5.40904Z" fill="#5491F5"/>
</svg>
