<svg width="50" height="50" viewBox="0 0 50 50" fill="none" xmlns="http://www.w3.org/2000/svg">
<path d="M25 50C38.8071 50 50 38.8071 50 25C50 11.1929 38.8071 0 25 0C11.1929 0 0 11.1929 0 25C0 38.8071 11.1929 50 25 50Z" fill="#3478F5" fill-opacity="0.2"/>
<path fill-rule="evenodd" clip-rule="evenodd" d="M16.1292 36.7809C13.5466 37.8128 11.0929 35.005 12.3304 32.4337L22.2892 11.7406C23.4061 9.41979 26.594 9.41979 27.7109 11.7406L37.6696 32.4337C38.9071 35.005 36.4534 37.8128 33.8708 36.7808L26.4507 33.8158C25.5169 33.4427 24.4831 33.4427 23.5494 33.8158L16.1292 36.7809Z" fill="white"/>
<path fill-rule="evenodd" clip-rule="evenodd" d="M14.1324 33.301L24.0912 12.6079C24.4813 11.7974 25.5185 11.7974 25.9086 12.6079L35.8674 33.301C36.1087 33.8024 35.9988 34.2967 35.6966 34.6425C35.4013 34.9804 35.0183 35.0857 34.6128 34.9236L27.1927 31.9586C25.7825 31.3951 24.2173 31.3951 22.8071 31.9586L15.387 34.9236C14.9815 35.0857 14.5985 34.9805 14.3031 34.6425C14.001 34.2967 13.8911 33.8024 14.1324 33.301Z" fill="#3478F5"/>
</svg>
