<svg width="17" height="18" viewBox="0 0 17 18" fill="none" xmlns="http://www.w3.org/2000/svg">
<path d="M2.01318 14.4189H15.1699C15.9502 14.4189 16.4233 14.0205 16.4233 13.4146C16.4233 12.5845 15.5767 11.8374 14.8628 11.0986C14.3149 10.5259 14.1655 9.34717 14.0991 8.39258C14.041 5.20508 13.1943 3.01367 10.9863 2.2168C10.6709 1.12939 9.81592 0.274414 8.5874 0.274414C7.36719 0.274414 6.50391 1.12939 6.19678 2.2168C3.98877 3.01367 3.14209 5.20508 3.08398 8.39258C3.01758 9.34717 2.86816 10.5259 2.32031 11.0986C1.59814 11.8374 0.759766 12.5845 0.759766 13.4146C0.759766 14.0205 1.22461 14.4189 2.01318 14.4189ZM8.5874 17.7476C9.99854 17.7476 11.0278 16.7183 11.1357 15.5562H6.04736C6.15527 16.7183 7.18457 17.7476 8.5874 17.7476Z" fill="black"/>
</svg>
