<svg width="18" height="19" viewBox="0 0 18 19" fill="none" xmlns="http://www.w3.org/2000/svg">
<path d="M12.8438 8.13525C13.126 8.20996 13.3418 8.20996 13.5576 8.07715C13.7734 7.94434 13.8896 7.77002 13.9644 7.48779L14.6533 4.72363C14.7529 4.375 14.562 4.04297 14.2134 3.95996C13.873 3.86865 13.5161 4.05957 13.4414 4.4165L13.0845 5.90234L10.8433 1.89307C10.4199 1.12939 9.64795 0.739258 8.87598 0.739258C8.0957 0.739258 7.33203 1.1377 6.90039 1.89307L4.60938 5.98535C4.39355 6.35889 4.50977 6.71582 4.8335 6.90674C5.16553 7.08936 5.55566 6.97314 5.74658 6.64111L8.0376 2.53223C8.22852 2.2002 8.55225 2.05908 8.87598 2.05908C9.19971 2.05908 9.51514 2.2002 9.69775 2.53223L11.9805 6.60791L10.4365 6.15137C10.0962 6.04346 9.75586 6.24268 9.65625 6.59131C9.56494 6.92334 9.74756 7.26367 10.1045 7.36328L12.8438 8.13525ZM2.48438 16.7349H6.93359C7.32373 16.7349 7.61426 16.4609 7.61426 16.0874C7.61426 15.7139 7.32373 15.4316 6.93359 15.4316H2.49268C1.91992 15.4316 1.53809 14.9585 1.53809 14.4438C1.53809 14.2944 1.56299 14.1118 1.6543 13.9541L3.7793 10.1523L4.12793 11.6382C4.20264 11.9951 4.55957 12.186 4.8999 12.0947C5.24854 12.0117 5.44775 11.6797 5.34814 11.3311L4.65088 8.56689C4.57617 8.29297 4.45996 8.10205 4.24414 7.97754C4.02832 7.84473 3.8125 7.83643 3.53027 7.91943L0.799316 8.69141C0.434082 8.79102 0.251465 9.13135 0.351074 9.46338C0.442383 9.81201 0.782715 10.0195 1.13135 9.90332L2.66699 9.44678L0.500488 13.3149C0.30127 13.6802 0.193359 14.0703 0.193359 14.4438C0.193359 15.7305 1.07324 16.7349 2.48438 16.7349ZM11.1753 18.7104C11.4326 18.9761 11.8228 18.9595 12.0635 18.7104C12.3208 18.4697 12.3208 18.0713 12.0552 17.814L10.918 16.7349H15.2593C16.6704 16.7349 17.5503 15.7305 17.5503 14.4438C17.5503 14.0703 17.4507 13.6885 17.2432 13.3149L15.0435 9.38867C14.8525 9.03174 14.4624 8.94873 14.147 9.13965C13.8232 9.33057 13.7153 9.7207 13.8979 10.0527L16.0811 13.9541C16.1724 14.1118 16.2139 14.2944 16.2139 14.4438C16.2139 14.9585 15.8154 15.4316 15.2427 15.4316H10.918L12.0552 14.3608C12.3208 14.1035 12.3208 13.7051 12.0635 13.4644C11.8228 13.207 11.4326 13.1987 11.1753 13.4644L9.1333 15.4399C8.92578 15.6392 8.83447 15.8384 8.83447 16.0874C8.83447 16.3364 8.92578 16.5273 9.1333 16.7266L11.1753 18.7104Z" fill="white"/>
</svg>
