<svg width="30" height="30" viewBox="0 0 30 30" fill="none" xmlns="http://www.w3.org/2000/svg">
<rect width="30" height="30" rx="8" fill="#6B7AED"/>
<g clip-path="url(#clip0_755_25606)">
<path d="M12.014 10.8149V18.3037C11.5372 17.8698 10.904 17.6051 10.2103 17.6051C8.73092 17.6051 7.52734 18.8087 7.52734 20.2881C7.52734 21.7675 8.73092 22.971 10.2103 22.971C11.6879 22.971 12.8901 21.7704 12.8931 20.2937H12.8933V14.9424L20.5981 12.627V16.4987C20.1214 16.065 19.4882 15.8002 18.7944 15.8002C17.315 15.8002 16.1115 17.0037 16.1115 18.4831C16.1115 19.9625 17.315 21.1661 18.7944 21.1661C20.2688 21.1661 21.469 19.9706 21.4771 18.4981H21.4774V7.97101L12.014 10.8149Z" fill="white"/>
</g>
<defs>
<clipPath id="clip0_755_25606">
<rect width="15" height="15" fill="white" transform="translate(7 8)"/>
</clipPath>
</defs>
</svg>
