<svg width="20" height="20" viewBox="0 0 20 20" fill="none" xmlns="http://www.w3.org/2000/svg">
<g clip-path="url(#clip0_755_25508)">
<path d="M6.5653 3.68581V13.4917C5.94103 12.9236 5.11191 12.577 4.20351 12.577C2.2664 12.577 0.69043 14.153 0.69043 16.0901C0.69043 18.0272 2.2664 19.6032 4.20351 19.6032C6.13823 19.6032 7.7124 18.0311 7.71645 16.0974H7.7166V9.09045L17.8054 6.05869V11.1283C17.1811 10.5603 16.352 10.2136 15.4436 10.2136C13.5065 10.2136 11.9305 11.7896 11.9305 13.7267C11.9305 15.6638 13.5065 17.2397 15.4436 17.2397C17.3741 17.2397 18.9458 15.6744 18.9564 13.7463H18.9567V-0.0379639L6.5653 3.68581Z" fill="#6B7AED"/>
</g>
<defs>
<clipPath id="clip0_755_25508">
<rect width="19.6411" height="19.6411" fill="white"/>
</clipPath>
</defs>
</svg>
