<svg width="20" height="8" viewBox="0 0 20 8" fill="none" xmlns="http://www.w3.org/2000/svg">
<path d="M2.22914 7.82079H5.01547C5.78364 7.82076 6.40863 7.1975 6.40864 6.43149V5.16851C6.40864 4.58816 6.88221 4.11608 7.46387 4.11599L12.9558 4.11833C13.5391 4.11833 14.0112 4.58903 14.0112 5.17082C14.0112 5.37425 14.0112 5.9584 14.0112 6.4338C14.0112 7.19648 14.6289 7.82312 15.4051 7.82308L18.1863 7.81871C18.9545 7.81869 19.5795 7.19545 19.5795 6.43144C19.5819 5.86223 19.5827 5.67862 19.5839 5.42339C19.5839 2.66093 17.3302 0.413507 14.5602 0.413507L5.85983 0.411238C3.08315 0.411216 0.835995 2.65191 0.836017 5.4211L0.835996 6.43151C0.835996 7.19757 1.46095 7.82079 2.22914 7.82079ZM18.6507 6.42944C18.6507 6.68477 18.4424 6.89251 18.1856 6.89255L15.4044 6.89692C15.1477 6.89692 14.94 6.68979 14.94 6.43382L14.94 5.97071L18.6527 5.97071L18.6507 6.42944ZM5.85968 1.33744L14.5601 1.33973C16.7033 1.33973 18.4448 2.95898 18.6375 5.04451L14.9355 5.04451C14.8705 4.00969 14.0101 3.1921 12.956 3.1921L7.46426 3.18981C7.46422 3.18981 7.46413 3.18981 7.46409 3.18981C6.41102 3.18979 5.54935 4.00602 5.48434 5.04217L1.78233 5.04217C1.97296 2.96191 3.70172 1.33744 5.85968 1.33744ZM1.76474 6.43154V5.9684L5.47985 5.96842L5.47987 6.43149C5.47985 6.68685 5.27156 6.8946 5.01547 6.8946H2.22914C1.97305 6.8946 1.76472 6.68685 1.76474 6.43154Z" fill="#FF0000"/>
</svg>
