<svg width="29" height="29" viewBox="0 0 29 29" fill="none" xmlns="http://www.w3.org/2000/svg">
<path fill-rule="evenodd" clip-rule="evenodd" d="M12.6997 24.3062C13.304 24.9757 14.0799 25.3435 14.8849 25.3435H14.8861C15.6946 25.3435 16.4739 24.9757 17.0794 24.3051C17.4037 23.9489 17.9567 23.9199 18.3149 24.2413C18.6742 24.5627 18.7034 25.1138 18.3802 25.47C17.4376 26.5108 16.1974 27.084 14.8861 27.084H14.8837C13.5759 27.0828 12.338 26.5096 11.3989 25.4688C11.0757 25.1126 11.1049 24.5615 11.4642 24.2413C11.8235 23.9187 12.3765 23.9477 12.6997 24.3062ZM14.943 2.13777C20.1288 2.13777 23.6125 6.15468 23.6125 9.9059C23.6125 11.8355 24.106 12.6535 24.6298 13.5214C25.1478 14.3776 25.7347 15.35 25.7347 17.1879C25.3275 21.8836 20.3983 22.2664 14.943 22.2664C9.48765 22.2664 4.55732 21.8836 4.1548 17.2621C4.15132 15.35 4.73815 14.3776 5.25615 13.5214L5.43902 13.2152C5.88927 12.4456 6.27348 11.6084 6.27348 9.9059C6.27348 6.15468 9.75715 2.13777 14.943 2.13777ZM14.943 3.8782C10.8655 3.8782 8.02348 7.05507 8.02348 9.9059C8.02348 12.3181 7.35032 13.4332 6.75532 14.4171C6.27815 15.2073 5.90132 15.8315 5.90132 17.1879C6.09615 19.3762 7.54865 20.526 14.943 20.526C22.2965 20.526 23.7945 19.3251 23.9882 17.1124C23.9847 15.8315 23.6078 15.2073 23.1307 14.4171C22.5357 13.4332 21.8625 12.3181 21.8625 9.9059C21.8625 7.05507 19.0205 3.8782 14.943 3.8782Z" fill="#626262"/>
</svg>
