<svg width="16" height="14" viewBox="0 0 16 14" fill="none" xmlns="http://www.w3.org/2000/svg">
<path d="M15.5312 7.00684C15.5312 6.79932 15.4482 6.6084 15.2822 6.45068L9.77881 0.963867C9.59619 0.78125 9.42188 0.714844 9.22266 0.714844C8.81592 0.714844 8.50049 1.01367 8.50049 1.42871C8.50049 1.62793 8.56689 1.81885 8.69971 1.95166L10.5591 3.84424L13.3481 6.39258L11.3477 6.26807H0.847168C0.415527 6.26807 0.116699 6.5752 0.116699 7.00684C0.116699 7.43848 0.415527 7.74561 0.847168 7.74561H11.3477L13.3564 7.62109L10.5591 10.1694L8.69971 12.062C8.56689 12.1865 8.50049 12.3857 8.50049 12.585C8.50049 13 8.81592 13.2988 9.22266 13.2988C9.42188 13.2988 9.59619 13.2241 9.76221 13.0664L15.2822 7.56299C15.4482 7.40527 15.5312 7.21436 15.5312 7.00684Z" fill="white"/>
</svg>
