<svg width="30" height="30" viewBox="0 0 30 30" fill="none" xmlns="http://www.w3.org/2000/svg">
<g opacity="0.05">
<path d="M28.0952 3.33337H1.90479C0.852885 3.33337 0 4.18621 0 5.23811V24.762C0 25.8138 0.852885 26.6667 1.90479 26.6667H28.0952C29.1471 26.6667 30 25.8138 30 24.7619V5.23811C30 4.18621 29.1472 3.33337 28.0952 3.33337ZM28.0952 5.23811V19.0909L24.3413 15.6781C23.7771 15.1652 22.9095 15.1857 22.3704 15.7253L18.5713 19.5238L11.0805 10.5762C10.5143 9.89999 9.47711 9.89334 8.90238 10.5614L1.90479 18.6938V5.23811H28.0952ZM20 10.2381C20 8.79143 21.1723 7.61905 22.619 7.61905C24.0657 7.61905 25.238 8.79143 25.238 10.2381C25.238 11.6848 24.0658 12.8571 22.619 12.8571C21.1723 12.8572 20 11.6848 20 10.2381Z" fill="black"/>
</g>
</svg>
