<svg width="16" height="19" viewBox="0 0 16 19" fill="none" xmlns="http://www.w3.org/2000/svg">
<path d="M7.97949 13.3022C8.15381 13.3022 8.29492 13.2524 8.46094 13.0864L11.2666 10.3721C11.3911 10.2476 11.4658 10.1147 11.4658 9.94043C11.4658 9.6001 11.2002 9.35938 10.8599 9.35938C10.6938 9.35938 10.5278 9.42578 10.4116 9.55859L9.1499 10.895L8.59375 11.4844L8.64355 10.2393V1.49023C8.64355 1.1416 8.33643 0.842773 7.97949 0.842773C7.62256 0.842773 7.32373 1.1416 7.32373 1.49023V10.2393L7.37354 11.4844L6.80908 10.895L5.55566 9.55859C5.43945 9.42578 5.25684 9.35938 5.09912 9.35938C4.75049 9.35938 4.50146 9.6001 4.50146 9.94043C4.50146 10.1147 4.56787 10.2476 4.69238 10.3721L7.49805 13.0864C7.67236 13.2524 7.81348 13.3022 7.97949 13.3022ZM3.22314 18.7642H12.7441C14.479 18.7642 15.3506 17.9009 15.3506 16.1909V7.90674C15.3506 6.19678 14.479 5.3335 12.7441 5.3335H10.4282V6.66992H12.7192C13.541 6.66992 14.0142 7.11816 14.0142 7.98145V16.1162C14.0142 16.9795 13.541 17.4277 12.7192 17.4277H3.23975C2.40967 17.4277 1.95312 16.9795 1.95312 16.1162V7.98145C1.95312 7.11816 2.40967 6.66992 3.23975 6.66992H5.53906V5.3335H3.22314C1.48828 5.3335 0.616699 6.19678 0.616699 7.90674V16.1909C0.616699 17.9009 1.48828 18.7642 3.22314 18.7642Z" fill="black"/>
</svg>
