<svg width="18" height="18" viewBox="0 0 18 18" fill="none" xmlns="http://www.w3.org/2000/svg">
<path d="M0.90918 7.44629C0.90918 11.0986 3.88086 14.0703 7.5332 14.0703C8.97754 14.0703 10.2974 13.6055 11.3848 12.8252L15.4688 16.9175C15.6597 17.1084 15.9087 17.1997 16.1743 17.1997C16.7388 17.1997 17.1289 16.7764 17.1289 16.2202C17.1289 15.9546 17.0293 15.7139 16.855 15.5396L12.7959 11.4556C13.6509 10.3433 14.1572 8.95703 14.1572 7.44629C14.1572 3.79395 11.1855 0.822266 7.5332 0.822266C3.88086 0.822266 0.90918 3.79395 0.90918 7.44629ZM2.32861 7.44629C2.32861 4.57422 4.66113 2.2417 7.5332 2.2417C10.4053 2.2417 12.7378 4.57422 12.7378 7.44629C12.7378 10.3184 10.4053 12.6509 7.5332 12.6509C4.66113 12.6509 2.32861 10.3184 2.32861 7.44629Z" fill="white"/>
</svg>
