<svg width="24" height="24" viewBox="0 0 24 24" fill="none" xmlns="http://www.w3.org/2000/svg">
<path fill-rule="evenodd" clip-rule="evenodd" d="M20.4023 13.5802C20.76 13.7702 21.036 14.0702 21.2301 14.3702C21.6083 14.9902 21.5776 15.7502 21.2097 16.4202L20.4943 17.6202C20.1162 18.2602 19.411 18.6602 18.6855 18.6602C18.3278 18.6602 17.9292 18.5602 17.6022 18.3602C17.3365 18.1902 17.0299 18.1302 16.7029 18.1302C15.6911 18.1302 14.8429 18.9602 14.8122 19.9502C14.8122 21.1002 13.872 22.0002 12.6968 22.0002H11.3069C10.1215 22.0002 9.18125 21.1002 9.18125 19.9502C9.16081 18.9602 8.31259 18.1302 7.30085 18.1302C6.96361 18.1302 6.65702 18.1902 6.40153 18.3602C6.0745 18.5602 5.66572 18.6602 5.31825 18.6602C4.58245 18.6602 3.87729 18.2602 3.49917 17.6202L2.79402 16.4202C2.4159 15.7702 2.39546 14.9902 2.77358 14.3702C2.93709 14.0702 3.24368 13.7702 3.59115 13.5802C3.87729 13.4402 4.06125 13.2102 4.23498 12.9402C4.74596 12.0802 4.43937 10.9502 3.57071 10.4402C2.55897 9.87018 2.23194 8.60018 2.81446 7.61018L3.49917 6.43018C4.09191 5.44018 5.35913 5.09018 6.38109 5.67018C7.27019 6.15018 8.425 5.83018 8.9462 4.98018C9.10972 4.70018 9.20169 4.40018 9.18125 4.10018C9.16081 3.71018 9.27323 3.34018 9.4674 3.04018C9.84553 2.42018 10.5302 2.02018 11.2763 2.00018H12.7172C13.4735 2.00018 14.1582 2.42018 14.5363 3.04018C14.7203 3.34018 14.8429 3.71018 14.8122 4.10018C14.7918 4.40018 14.8838 4.70018 15.0473 4.98018C15.5685 5.83018 16.7233 6.15018 17.6226 5.67018C18.6344 5.09018 19.9118 5.44018 20.4943 6.43018L21.179 7.61018C21.7718 8.60018 21.4447 9.87018 20.4228 10.4402C19.5541 10.9502 19.2475 12.0802 19.7687 12.9402C19.9322 13.2102 20.1162 13.4402 20.4023 13.5802ZM9.10961 12.0102C9.10961 13.5802 10.4075 14.8302 12.012 14.8302C13.6164 14.8302 14.8837 13.5802 14.8837 12.0102C14.8837 10.4402 13.6164 9.18016 12.012 9.18016C10.4075 9.18016 9.10961 10.4402 9.10961 12.0102Z" fill="#D5D5E1"/>
</svg>
