<svg width="30" height="30" viewBox="0 0 30 30" fill="none" xmlns="http://www.w3.org/2000/svg">
<path d="M10 15V16H15H20V15C20 13.3454 21.3395 12.0037 22.9932 12C22.9847 11.672 22.9657 11.4338 22.9231 11.2196C22.6075 9.63288 21.3671 8.39249 19.7804 8.07686C19.394 8 18.9293 8 18 8H15H12C11.0707 8 10.606 8 10.2196 8.07686C8.63288 8.39249 7.39249 9.63288 7.07686 11.2196C7.03426 11.4338 7.01527 11.672 7.00681 12C8.66053 12.0037 10 13.3454 10 15Z" fill="#1C274C"/>
<path d="M21.4444 21H8.55556C8.27849 21 8.00883 20.9683 7.75 20.9084V22C7.75 22.4142 7.41421 22.75 7 22.75C6.58579 22.75 6.25 22.4142 6.25 22V20.1513C5.48508 19.4991 5 18.5284 5 17.4444V15C5 13.8954 5.89543 13 7 13C8.10457 13 9 13.8954 9 15V16.2C9 16.6418 9.35817 17 9.8 17H20.2C20.6418 17 21 16.6418 21 16.2V15C21 13.8954 21.8954 13 23 13C24.1046 13 25 13.8954 25 15V17.4444C25 18.5284 24.5149 19.4991 23.75 20.1513V22C23.75 22.4142 23.4142 22.75 23 22.75C22.5858 22.75 22.25 22.4142 22.25 22V20.9084C21.9912 20.9683 21.7215 21 21.4444 21Z" fill="#1C274C"/>
</svg>
