<svg width="30" height="30" viewBox="0 0 30 30" fill="none" xmlns="http://www.w3.org/2000/svg">
<g clip-path="url(#clip0_755_25263)">
<path d="M14.3146 4.42774C14.1219 3.15886 13.7322 1.87441 13.1646 0.619381C10.2172 1.03384 7.54929 2.31823 5.42871 4.20505L12.7547 11.5311C14.1861 9.71081 14.7393 7.22451 14.3146 4.42774Z" fill="white"/>
<path d="M12.7626 13.986C11.0129 15.4306 8.76184 16.1854 6.23268 16.1854C5.5626 16.1854 4.87325 16.1325 4.16834 16.0255C2.93684 15.8385 1.69547 15.4876 0.477236 14.9871C0.475909 15.071 0.474121 15.1548 0.474121 15.2391C0.474121 19.0051 1.88482 22.441 4.20554 25.0493L14.0157 15.2391L12.7626 13.986Z" fill="white"/>
<path d="M11.5319 12.7535L4.20579 5.42749C2.31897 7.54807 1.03458 10.2159 0.620117 13.1634C1.87521 13.731 3.15971 14.1207 4.42842 14.3134C7.22536 14.7382 9.71161 14.1849 11.5319 12.7535Z" fill="white"/>
<path d="M26.0507 16.1625C23.2539 15.7376 20.7675 16.291 18.9473 17.7223L26.2733 25.0484C28.1601 22.9278 29.4445 20.26 29.859 17.3125C28.604 16.7449 27.3196 16.3552 26.0507 16.1625Z" fill="white"/>
<path d="M16.4917 17.7149L15.2389 16.4621L5.42871 26.2723C8.037 28.593 11.4729 30.0037 15.2389 30.0037C15.3232 30.0037 15.407 30.0019 15.4909 30.0005C14.9904 28.7823 14.6395 27.5409 14.4525 26.3094C13.9415 22.9439 14.6643 19.928 16.4917 17.7149Z" fill="white"/>
<path d="M13.9863 12.7621L15.2392 14.0149L25.0494 4.20475C22.4411 1.88398 19.0051 0.473335 15.2392 0.473335C15.1549 0.473335 15.071 0.475123 14.9871 0.476507C15.4876 1.69469 15.8385 2.93593 16.0256 4.16761C16.5366 7.53307 15.8137 10.549 13.9863 12.7621Z" fill="white"/>
<path d="M16.1633 26.0491C16.3559 27.3178 16.7458 28.6024 17.3133 29.8575C20.2608 29.443 22.9286 28.1586 25.0492 26.2718L17.7231 18.9457C16.2918 20.766 15.7386 23.2523 16.1633 26.0491Z" fill="white"/>
<path d="M17.7157 16.4906C19.9289 14.6631 22.9448 13.9403 26.3102 14.4513C27.5419 14.6384 28.7832 14.9893 30.0013 15.4898C30.0027 15.4059 30.0045 15.322 30.0045 15.2377C30.0045 11.4717 28.5938 8.03578 26.2731 5.42749L16.4629 15.2377L17.7157 16.4906Z" fill="white"/>
</g>
<defs>
<clipPath id="clip0_755_25263">
<rect width="29.5302" height="29.5302" fill="white" transform="translate(0.474121 0.47401)"/>
</clipPath>
</defs>
</svg>
