<svg width="30" height="30" viewBox="0 0 30 30" fill="none" xmlns="http://www.w3.org/2000/svg">
<rect width="30" height="30" rx="8" fill="#EE544A"/>
<g clip-path="url(#clip0_755_25651)">
<path d="M14.0302 10.0078C13.9323 9.36324 13.7344 8.7108 13.4461 8.0733C11.9489 8.28383 10.5938 8.93624 9.5166 9.89466L13.2379 13.616C13.965 12.6913 14.246 11.4284 14.0302 10.0078Z" fill="white"/>
<path d="M13.242 14.8618C12.3532 15.5956 11.2098 15.979 9.92509 15.9791C9.58472 15.9791 9.23456 15.9522 8.87649 15.8978C8.25095 15.8028 7.62039 15.6246 7.00158 15.3703C7.00091 15.4129 7 15.4555 7 15.4983C7 17.4113 7.71657 19.1566 8.89539 20.4815L13.8785 15.4983L13.242 14.8618Z" fill="white"/>
<path d="M12.6169 14.2362L8.89558 10.5149C7.93716 11.5921 7.28475 12.9472 7.07422 14.4444C7.71175 14.7327 8.36422 14.9307 9.00866 15.0285C10.4294 15.2443 11.6923 14.9632 12.6169 14.2362Z" fill="white"/>
<path d="M19.9915 15.9683C18.5709 15.7525 17.3079 16.0336 16.3833 16.7607L20.1046 20.482C21.063 19.4048 21.7154 18.0497 21.926 16.5525C21.2885 16.2642 20.6361 16.0663 19.9915 15.9683Z" fill="white"/>
<path d="M15.1361 16.7571L14.4997 16.1207L9.5166 21.1039C10.8415 22.2827 12.5868 22.9993 14.4997 22.9993C14.5425 22.9993 14.5851 22.9983 14.6278 22.9976C14.3735 22.3788 14.1953 21.7483 14.1003 21.1227C13.8407 19.4132 14.2079 17.8813 15.1361 16.7571Z" fill="white"/>
<path d="M13.8638 14.2408L14.5002 14.8772L19.4833 9.89405C18.1584 8.7152 16.4131 7.99866 14.5002 7.99866C14.4574 7.99866 14.4148 7.99957 14.3721 8.00027C14.6264 8.61905 14.8046 9.24955 14.8996 9.87518C15.1592 11.5847 14.792 13.1166 13.8638 14.2408Z" fill="white"/>
<path d="M14.9692 20.9902C15.0671 21.6347 15.2651 22.2872 15.5534 22.9247C17.0506 22.7142 18.4057 22.0618 19.4829 21.1033L15.7615 17.382C15.0345 18.3067 14.7535 19.5696 14.9692 20.9902Z" fill="white"/>
<path d="M15.758 16.1344C16.8821 15.2062 18.4141 14.839 20.1236 15.0986C20.7492 15.1936 21.3797 15.3719 21.9985 15.6261C21.9992 15.5835 22.0001 15.5409 22.0001 15.498C22.0001 13.5851 21.2835 11.8398 20.1047 10.5149L15.1216 15.4981L15.758 16.1344Z" fill="white"/>
</g>
<defs>
<clipPath id="clip0_755_25651">
<rect width="15" height="15" fill="white" transform="translate(7 8)"/>
</clipPath>
</defs>
</svg>
