<svg width="20" height="20" viewBox="0 0 20 20" fill="none" xmlns="http://www.w3.org/2000/svg">
<g clip-path="url(#clip0_755_25495)">
<path d="M9.20607 2.62914C9.0779 1.78519 8.81873 0.930877 8.44122 0.0961304C6.48079 0.371796 4.70634 1.22607 3.2959 2.48103L8.16858 7.35375C9.1206 6.14302 9.48856 4.48933 9.20607 2.62914Z" fill="#EE544A"/>
<path d="M8.17331 8.98492C7.00957 9.9458 5.51232 10.4478 3.83013 10.4478C3.38445 10.4478 2.92595 10.4126 2.4571 10.3415C1.638 10.2171 0.812344 9.98371 0.00207152 9.65077C0.00118921 9.70658 0 9.76236 0 9.81841C0 12.3232 0.938285 14.6085 2.48184 16.3434L9.00679 9.81841L8.17331 8.98492Z" fill="#EE544A"/>
<path d="M7.3543 8.16577L2.48158 3.29309C1.22662 4.70353 0.372346 6.47794 0.0966797 8.43837C0.931465 8.81589 1.78582 9.07513 2.62965 9.2033C4.48996 9.48583 6.14361 9.11779 7.3543 8.16577Z" fill="#EE544A"/>
<path d="M17.0112 10.4339C15.151 10.1514 13.4973 10.5194 12.2866 11.4714L17.1593 16.3441C18.4143 14.9337 19.2685 13.1592 19.5442 11.1988C18.7095 10.8213 17.8552 10.5621 17.0112 10.4339Z" fill="#EE544A"/>
<path d="M10.6541 11.4668L9.82085 10.6335L3.2959 17.1584C5.03072 18.702 7.31603 19.6403 9.82085 19.6403C9.8769 19.6403 9.93267 19.6391 9.98849 19.6382C9.65559 18.8279 9.4222 18.0022 9.29779 17.1831C8.95791 14.9447 9.43869 12.9388 10.6541 11.4668Z" fill="#EE544A"/>
<path d="M8.9873 8.17185L9.82059 9.00514L16.3455 2.48019C14.6107 0.936599 12.3254 -0.00164795 9.82059 -0.00164795C9.76455 -0.00164795 9.70877 -0.000458741 9.65295 0.000461936C9.98586 0.810696 10.2192 1.63627 10.3437 2.45549C10.6835 4.69392 10.2028 6.69984 8.9873 8.17185Z" fill="#EE544A"/>
<path d="M10.435 17.0096C10.5631 17.8534 10.8224 18.7078 11.1999 19.5426C13.1603 19.2669 14.9347 18.4127 16.3452 17.1577L11.4724 12.285C10.5205 13.4957 10.1525 15.1494 10.435 17.0096Z" fill="#EE544A"/>
<path d="M11.4676 10.6514C12.9396 9.43589 14.9455 8.95514 17.1839 9.29502C18.0031 9.41943 18.8288 9.65286 19.639 9.98572C19.6399 9.92991 19.6411 9.87413 19.6411 9.81804C19.6411 7.31323 18.7028 5.02791 17.1592 3.29309L10.6343 9.81808L11.4676 10.6514Z" fill="#EE544A"/>
</g>
<defs>
<clipPath id="clip0_755_25495">
<rect width="19.6411" height="19.6411" fill="white"/>
</clipPath>
</defs>
</svg>
