<svg width="16" height="17" viewBox="0 0 16 17" fill="none" xmlns="http://www.w3.org/2000/svg">
<path d="M4.15913 15.6712L6.12936 13.7064C6.67252 13.1647 6.67252 12.2833 6.12936 11.7417L5.23381 10.8486C4.8223 10.4382 4.82243 9.77048 5.23366 9.36026L9.11869 5.48933C9.53116 5.07801 10.1988 5.07794 10.6113 5.48933C10.7555 5.63318 11.1697 6.04623 11.5068 6.38239C12.0476 6.9217 12.9287 6.92923 13.4776 6.38187L15.4411 4.41763C15.9842 3.87595 15.9842 2.99456 15.4425 2.45432C15.0407 2.05007 14.911 1.91968 14.7308 1.73842C12.772 -0.214955 9.58486 -0.214955 7.62615 1.73832L1.47248 7.87168C-0.490941 9.82962 -0.491095 12.9986 1.47248 14.9567L2.18893 15.6712C2.73212 16.2129 3.61594 16.2129 4.15913 15.6712ZM14.7843 3.10781C14.9654 3.28836 14.9654 3.58211 14.7839 3.76325L12.8203 5.72748C12.6389 5.90847 12.3451 5.90847 12.1636 5.72748L11.8352 5.4L14.4605 2.78202L14.7843 3.10781ZM2.12912 8.52672L8.28285 2.39333C9.79833 0.882056 12.178 0.798989 13.793 2.13786L11.1753 4.74824C10.3956 4.06233 9.20746 4.09092 8.46205 4.83427L4.5772 8.70508C4.57717 8.70511 4.57711 8.70517 4.57708 8.7052C3.83244 9.44775 3.80191 10.6325 4.49065 11.411L1.87294 14.0215C0.532668 12.4161 0.603214 10.0484 2.12912 8.52672ZM2.84566 15.0163L2.51726 14.6888L5.14426 12.0691L5.47263 12.3966C5.65368 12.5772 5.65371 12.8709 5.47263 13.0515L3.5024 15.0163C3.32131 15.1969 3.02669 15.1969 2.84566 15.0163Z" fill="#40D81A"/>
</svg>
