<svg width="16" height="12" viewBox="0 0 16 12" fill="none" xmlns="http://www.w3.org/2000/svg">
<path fill-rule="evenodd" clip-rule="evenodd" d="M2.91666 0.333313C1.81209 0.333313 0.916656 1.22874 0.916656 2.33331V2.91201C0.916656 3.14325 1.06373 3.34485 1.26207 3.46374C2.03718 3.92835 2.56949 4.88957 2.56949 5.99998C2.56949 7.11039 2.03718 8.07161 1.26207 8.53622C1.06373 8.65511 0.916656 8.8567 0.916656 9.08795V9.66665C0.916656 10.7712 1.81209 11.6666 2.91666 11.6666H13.0833C14.1879 11.6666 15.0833 10.7712 15.0833 9.66665V9.08789C15.0833 8.85665 14.9363 8.65506 14.7379 8.53617C13.9629 8.07154 13.4306 7.11035 13.4306 5.99998C13.4306 4.88961 13.9629 3.92842 14.7379 3.46379C14.9363 3.34489 15.0833 3.14331 15.0833 2.91207V2.33331C15.0833 1.22874 14.1879 0.333313 13.0833 0.333313H2.91666ZM9.37499 1.04165V3.52081C9.37499 3.93503 9.71078 4.27081 10.125 4.27081C10.5392 4.27081 10.875 3.93503 10.875 3.52081V1.04165H9.37499ZM10.875 8.47915C10.875 8.06493 10.5392 7.72915 10.125 7.72915C9.71078 7.72915 9.37499 8.06493 9.37499 8.47915V10.9583H10.875V8.47915Z" fill="black"/>
</svg>
