<svg width="34" height="34" viewBox="0 0 34 34" fill="none" xmlns="http://www.w3.org/2000/svg">
<rect x="0.406738" y="0.288193" width="33.0714" height="33.0714" rx="15.9655" fill="#FEB97A"/>
<path fill-rule="evenodd" clip-rule="evenodd" d="M16.9426 8.27095C21.6587 8.27095 25.4956 12.1078 25.4956 16.8239C25.4956 21.54 21.6587 25.3769 16.9426 25.3769C12.2265 25.3769 8.38965 21.54 8.38965 16.8239C8.38965 12.1078 12.2265 8.27095 16.9426 8.27095ZM16.9426 9.55389C12.9338 9.55389 9.67259 12.8151 9.67259 16.8239C9.67259 20.8327 12.9338 24.0939 16.9426 24.0939C20.9514 24.0939 24.2126 20.8327 24.2126 16.8239C24.2126 12.8151 20.9514 9.55389 16.9426 9.55389ZM16.6528 12.629C17.0078 12.629 17.2943 12.9164 17.2943 13.2705V17.0526L20.2066 18.7889C20.5102 18.971 20.6103 19.3645 20.429 19.669C20.3084 19.87 20.0954 19.982 19.8773 19.982C19.7653 19.982 19.6524 19.9529 19.5489 19.8922L16.3244 17.9686C16.1311 17.8523 16.0114 17.6428 16.0114 17.417V13.2705C16.0114 12.9164 16.2987 12.629 16.6528 12.629Z" fill="white"/>
</svg>
