<svg width="21" height="30" viewBox="0 0 21 30" fill="none" xmlns="http://www.w3.org/2000/svg">
<path d="M4.26953 24.0312H4.82031L2.24219 28.168C1.9375 28.6602 2.21875 29.1875 2.76953 29.1875H3.42578C3.75391 29.1875 3.92969 29.0703 4.10547 28.7891L4.78516 27.7109H16.9492L17.6172 28.7891C17.793 29.0703 17.9805 29.1875 18.3086 29.1875H18.9648C19.5039 29.1875 19.75 28.6484 19.457 28.168L16.9141 24.0312H17.418C19.5039 24.0312 20.6992 22.6016 20.6992 20.5977V12.1953C20.6992 9.07812 20.3008 6.03125 19.8203 4.09766C19.3398 2.10547 17.9922 0.617188 15.918 0.394531C15.168 0.3125 13.2109 0.160156 10.8438 0.160156C8.47656 0.160156 6.50781 0.3125 5.76953 0.394531C3.68359 0.617188 2.34766 2.10547 1.86719 4.09766C1.38672 6.03125 0.988281 9.07812 0.988281 12.1953V20.5977C0.988281 22.6016 2.18359 24.0312 4.26953 24.0312ZM7.84375 3.80469C7.41016 3.80469 7.12891 3.51172 7.12891 3.07812C7.12891 2.64453 7.41016 2.375 7.84375 2.375H13.832C14.2773 2.375 14.5586 2.64453 14.5586 3.07812C14.5586 3.51172 14.2773 3.80469 13.832 3.80469H7.84375ZM10.8438 16.2969C8.125 16.2734 5.62891 16.1562 4.36328 16.0039C3.66016 15.9102 3.39062 15.4531 3.39062 14.7969V12.1016C3.39062 9.73438 3.64844 7.82422 3.83594 6.99219C3.95312 6.47656 4.26953 6.10156 4.77344 6.04297C6.09766 5.87891 7.72656 5.79688 10.8438 5.78516C13.9492 5.77344 15.5781 5.87891 16.8672 6.04297C17.3945 6.10156 17.7227 6.47656 17.8398 6.99219C18.0273 7.82422 18.2852 9.73438 18.2852 12.1016V14.7969C18.2852 15.4648 18.0156 15.9219 17.3125 16.0039C15.4258 16.2031 12.9297 16.2969 10.8438 16.2969ZM16.2695 21.582C15.3438 21.582 14.6406 20.8906 14.6406 19.9648C14.6406 19.0508 15.3438 18.3477 16.2695 18.3477C17.1836 18.3477 17.8867 19.0508 17.8867 19.9648C17.8867 20.8906 17.1719 21.582 16.2695 21.582ZM5.39453 21.5703C4.46875 21.5703 3.80078 20.9023 3.80078 19.9648C3.80078 19.0391 4.46875 18.3594 5.39453 18.3594C6.33203 18.3594 7.01172 19.0391 7.01172 19.9648C7.01172 20.9023 6.30859 21.5703 5.39453 21.5703ZM5.875 25.9531L7.05859 24.0312H14.6758L15.8594 25.9531H5.875Z" fill="black"/>
</svg>
