<svg width="36" height="36" viewBox="0 0 36 36" fill="none" xmlns="http://www.w3.org/2000/svg">
<rect width="36" height="36" rx="13" fill="#12CDD9"/>
<path fill-rule="evenodd" clip-rule="evenodd" d="M18.9665 13.2535H21.0131C23.4731 13.2535 24.6731 14.5668 24.6665 17.2601V20.5068C24.6665 23.0801 23.0798 24.6668 20.4998 24.6668H15.4931C12.9265 24.6668 11.3331 23.0801 11.3331 20.5001V15.4935C11.3331 12.7335 12.5598 11.3335 14.9798 11.3335H16.0331C16.6538 11.3268 17.2331 11.6135 17.6131 12.1001L18.1998 12.8801C18.3865 13.1135 18.6665 13.2535 18.9665 13.2535ZM14.9132 20.1935H21.0865C21.3598 20.1935 21.5798 19.9668 21.5798 19.6935C21.5798 19.4135 21.3598 19.1935 21.0865 19.1935H14.9132C14.6332 19.1935 14.4132 19.4135 14.4132 19.6935C14.4132 19.9668 14.6332 20.1935 14.9132 20.1935Z" fill="white"/>
</svg>
