<svg width="18" height="18" viewBox="0 0 18 18" fill="none" xmlns="http://www.w3.org/2000/svg">
<path d="M10.298 16.3333V12.9788C10.298 12.3712 10.0218 11.7966 9.54735 11.417L8.49972 10.5789M8.49972 10.5789L9.57867 5.9035M8.49972 10.5789L7.42077 9.85964M9.57867 5.9035L8.14007 5.54385M9.57867 5.9035L10.9195 8.04879C11.2114 8.51591 11.6831 8.84193 12.2232 8.94996L13.1752 9.14034M7.42077 9.85964L8.14007 5.54385M7.42077 9.85964L7.10158 11.6152C6.88821 12.7887 5.70162 13.5158 4.55914 13.1731L3.10498 12.7368M8.14007 5.54385L6.36845 6.42966C5.69088 6.76844 5.26288 7.46097 5.26288 8.21851V9.14034M10.6576 3.02631C10.6576 3.42356 10.3356 3.7456 9.93831 3.7456C9.54106 3.7456 9.21902 3.42356 9.21902 3.02631C9.21902 2.62905 9.54106 2.30701 9.93831 2.30701C10.3356 2.30701 10.6576 2.62905 10.6576 3.02631Z" stroke="black" stroke-width="2" stroke-linecap="round" stroke-linejoin="round"/>
</svg>
