<svg width="24" height="24" viewBox="0 0 24 24" fill="none" xmlns="http://www.w3.org/2000/svg">
<path d="M12.56 2.171C12.3946 2.05923 12.1996 1.9995 12 1.9995C11.8004 1.9995 11.6054 2.05923 11.44 2.171L3.44 7.571C3.30443 7.66264 3.19342 7.78614 3.11671 7.93068C3.03999 8.07522 2.99992 8.23637 3 8.4V21C3 21.2652 3.10536 21.5196 3.29289 21.7071C3.48043 21.8946 3.73478 22 4 22H20C20.2652 22 20.5196 21.8946 20.7071 21.7071C20.8946 21.5196 21 21.2652 21 21V8.4C21.0001 8.23637 20.96 8.07522 20.8833 7.93068C20.8066 7.78614 20.6956 7.66264 20.56 7.571L12.56 2.171ZM14 20H10V14H14V20ZM19 20H16V13C16 12.7348 15.8946 12.4804 15.7071 12.2929C15.5196 12.1054 15.2652 12 15 12H9C8.73478 12 8.48043 12.1054 8.29289 12.2929C8.10536 12.4804 8 12.7348 8 13V20H5V8.932L12 4.207L19 8.932V20Z" fill="white"/>
</svg>
