<svg width="21" height="19" viewBox="0 0 21 19" fill="none" xmlns="http://www.w3.org/2000/svg">
<path opacity="0.4" d="M18.201 9.94105L10.3885 17.6785L2.57604 9.94105C2.06073 9.43961 1.65483 8.8369 1.3839 8.17088C1.11297 7.50486 0.982873 6.78996 1.00181 6.07119C1.02074 5.35242 1.18829 4.64536 1.49391 3.99452C1.79953 3.34369 2.2366 2.76319 2.77759 2.28957C3.31858 1.81595 3.95177 1.45948 4.6373 1.24259C5.32283 1.02571 6.04584 0.953116 6.7608 1.02938C7.47576 1.10565 8.16718 1.32913 8.79153 1.68574C9.41588 2.04236 9.95963 2.52438 10.3885 3.10147C10.8193 2.52857 11.3637 2.05076 11.9876 1.69793C12.6115 1.3451 13.3016 1.12485 14.0145 1.05097C14.7275 0.977081 15.448 1.05115 16.131 1.26854C16.814 1.48593 17.4448 1.84196 17.9839 2.31434C18.523 2.78673 18.9588 3.3653 19.264 4.01385C19.5692 4.6624 19.7372 5.36697 19.7576 6.08345C19.778 6.79994 19.6503 7.51292 19.3824 8.17777C19.1146 8.84262 18.7124 9.44503 18.201 9.9473" stroke="white" stroke-width="2" stroke-linecap="round" stroke-linejoin="round"/>
</svg>
