<svg width="34" height="34" viewBox="0 0 34 34" fill="none" xmlns="http://www.w3.org/2000/svg">
<g clip-path="url(#clip0_919_8148)">
<circle cx="16.9999" cy="10.2001" r="4.53333" fill="#171717"/>
<path d="M26.0667 23.2333C26.0667 26.05 26.0667 28.3333 17 28.3333C7.93335 28.3333 7.93335 26.05 7.93335 23.2333C7.93335 20.4166 11.9926 18.1333 17 18.1333C22.0074 18.1333 26.0667 20.4166 26.0667 23.2333Z" fill="#171717"/>
</g>
<defs>
<clipPath id="clip0_919_8148">
<path d="M0 17C0 7.61116 7.61116 0 17 0C26.3888 0 34 7.61116 34 17V29.1429C34 31.8254 31.8254 34 29.1429 34H4.85714C2.17462 34 0 31.8254 0 29.1429V17Z" fill="white"/>
</clipPath>
</defs>
</svg>
