<svg width="34" height="34" viewBox="0 0 34 34" fill="none" xmlns="http://www.w3.org/2000/svg">
<path fill-rule="evenodd" clip-rule="evenodd" d="M6.25511 12.2659C5.66669 13.3409 5.66669 14.6376 5.66669 17.2312V18.955C5.66669 23.376 5.66669 25.5865 6.99447 26.96C8.32225 28.3334 10.4593 28.3334 14.7334 28.3334H19.2667C23.5408 28.3334 25.6778 28.3334 27.0056 26.96C28.3334 25.5865 28.3334 23.376 28.3334 18.955V17.2312C28.3334 14.6376 28.3334 13.3409 27.7449 12.2659C27.1565 11.1908 26.0815 10.5237 23.9314 9.18929L21.6648 7.78253C19.392 6.37201 18.2557 5.66675 17 5.66675C15.7444 5.66675 14.608 6.37201 12.3353 7.78253L10.0686 9.18929C7.91856 10.5237 6.84354 11.1908 6.25511 12.2659ZM13.6 22.9501C13.1306 22.9501 12.75 23.3306 12.75 23.8001C12.75 24.2695 13.1306 24.6501 13.6 24.6501H20.4C20.8695 24.6501 21.25 24.2695 21.25 23.8001C21.25 23.3306 20.8695 22.9501 20.4 22.9501H13.6Z" fill="white"/>
</svg>
