<svg width="34" height="34" viewBox="0 0 34 34" fill="none" xmlns="http://www.w3.org/2000/svg">
<g clip-path="url(#clip0_917_7258)">
<path d="M17 26.3334C23.2593 26.3334 28.3334 21.2593 28.3334 15.0001C28.3334 8.74085 23.2593 3.66675 17 3.66675C10.7408 3.66675 5.66671 8.74085 5.66671 15.0001C5.66671 16.8131 6.09241 18.5266 6.8493 20.0462C7.05044 20.45 7.11738 20.9116 7.00077 21.3474L6.32575 23.8703C6.03272 24.9655 7.03466 25.9674 8.12984 25.6744L10.6527 24.9993C11.0885 24.8827 11.5501 24.9497 11.9539 25.1508C13.4735 25.9077 15.1871 26.3334 17 26.3334Z" fill="black" stroke="white" stroke-width="1.5"/>
<path d="M12.4667 13.3H21.5333" stroke="white" stroke-width="1.5" stroke-linecap="round"/>
<path d="M12.4667 17.2666H18.7" stroke="white" stroke-width="1.5" stroke-linecap="round"/>
</g>
<defs>
<clipPath id="clip0_917_7258">
<path d="M0 17C0 7.61116 7.61116 0 17 0C26.3888 0 34 7.61116 34 17V29.1429C34 31.8254 31.8254 34 29.1429 34H4.85714C2.17462 34 0 31.8254 0 29.1429V17Z" fill="white"/>
</clipPath>
</defs>
</svg>
