<svg width="30" height="28" viewBox="0 0 30 28" fill="none" xmlns="http://www.w3.org/2000/svg">
<path fill-rule="evenodd" clip-rule="evenodd" d="M13.4606 3.89575H16.5394C18.1427 3.89575 19.3997 3.89574 20.4039 3.98326C21.4274 4.07247 22.2655 4.25744 23.0044 4.67246C23.7781 5.10707 24.4286 5.70336 24.9027 6.41258C25.3554 7.08984 25.5572 7.8581 25.6545 8.79635C25.75 9.71685 25.75 10.8691 25.75 12.3388V13.3171C25.75 14.3633 25.75 15.1836 25.7007 15.8462C25.6505 16.5204 25.5468 17.0814 25.3123 17.6003C24.7287 18.8918 23.6093 19.9179 22.2004 20.4529C21.3955 20.7585 20.4786 20.8263 19.2233 20.8462C18.7842 20.8531 18.5061 20.8582 18.2941 20.8797C18.096 20.8998 18.0192 20.9293 17.9742 20.9532C17.9268 20.9785 17.8622 21.0246 17.7501 21.1656C17.6287 21.3182 17.4916 21.5292 17.2742 21.866L16.7321 22.7055C15.9585 23.9035 14.0415 23.9035 13.2679 22.7055L12.7258 21.866C12.5083 21.5292 12.3712 21.3182 12.2499 21.1656C12.1377 21.0246 12.0731 20.9785 12.0257 20.9532C11.9808 20.9293 11.904 20.8998 11.7059 20.8797C11.4939 20.8582 11.2158 20.8531 10.7767 20.8462C9.52138 20.8263 8.60454 20.7585 7.79957 20.4529C6.39066 19.9179 5.27128 18.8918 4.68769 17.6003C4.45323 17.0814 4.3495 16.5204 4.29932 15.8462C4.24999 15.1836 4.25 14.3633 4.25 13.3171L4.25 12.3388C4.24999 10.8691 4.24999 9.71686 4.34547 8.79635C4.44279 7.8581 4.64457 7.08984 5.09732 6.41258C5.57144 5.70336 6.22194 5.10707 6.99563 4.67246C7.73445 4.25744 8.57256 4.07247 9.59611 3.98326C10.6003 3.89574 11.8573 3.89575 13.4606 3.89575ZM9.73809 5.35209C8.82434 5.43173 8.24291 5.58446 7.77938 5.84484C7.20752 6.16608 6.72672 6.60681 6.37628 7.13102C6.09223 7.55592 5.92561 8.08889 5.83873 8.9265C5.75079 9.77434 5.75 10.8613 5.75 12.3749V13.2916C5.75 14.3688 5.75041 15.1422 5.79584 15.7526C5.84081 16.3568 5.92737 16.7507 6.07351 17.0741C6.50486 18.0287 7.33223 18.7871 8.3736 19.1825C8.88923 19.3783 9.54706 19.4515 10.8025 19.4714L10.8343 19.4719C11.2323 19.4781 11.5811 19.4836 11.871 19.513C12.1825 19.5447 12.4871 19.6086 12.7799 19.7646C13.0702 19.9194 13.2795 20.1262 13.4621 20.3557C13.6307 20.5679 13.804 20.8363 14.0004 21.1404L14.5587 22.0051C14.7515 22.3036 15.2485 22.3036 15.4412 22.0051L15.9996 21.1404C16.1959 20.8363 16.3692 20.5679 16.5379 20.3557C16.7204 20.1262 16.9298 19.9194 17.2201 19.7646C17.5129 19.6086 17.8175 19.5447 18.129 19.513C18.4189 19.4836 18.7676 19.4781 19.1656 19.4719L19.1975 19.4714C20.4529 19.4515 21.1108 19.3783 21.6264 19.1825C22.6678 18.7871 23.4951 18.0287 23.9265 17.0741C24.0726 16.7507 24.1592 16.3568 24.2042 15.7526C24.2496 15.1422 24.25 14.3688 24.25 13.2916V12.3749C24.25 10.8613 24.2492 9.77434 24.1613 8.9265C24.0744 8.08889 23.9078 7.55592 23.6237 7.13102C23.2733 6.60681 22.7925 6.16608 22.2206 5.84484C21.7571 5.58446 21.1757 5.43173 20.2619 5.35209C19.337 5.27148 18.1512 5.27075 16.5 5.27075H13.5C11.8488 5.27075 10.663 5.27148 9.73809 5.35209Z" fill="white"/>
<path d="M12.7799 19.7646C12.4871 19.6086 12.1825 19.5447 11.871 19.513C11.5811 19.4836 11.2323 19.4781 10.8343 19.4719L10.8025 19.4714C9.54706 19.4515 8.88923 19.3783 8.3736 19.1825C7.33223 18.7871 6.50486 18.0287 6.07351 17.0741C5.92737 16.7507 5.84081 16.3568 5.79584 15.7526C5.75041 15.1422 5.75 14.3688 5.75 13.2916V12.3749C5.75 10.8613 5.75079 9.77434 5.83873 8.9265C5.92561 8.08889 6.09223 7.55592 6.37628 7.13102C6.72672 6.60681 7.20752 6.16608 7.77938 5.84484C8.24291 5.58446 8.82434 5.43173 9.73809 5.35209C10.663 5.27148 11.8488 5.27075 13.5 5.27075H16.5C18.1512 5.27075 19.337 5.27148 20.2619 5.35209C21.1757 5.43173 21.7571 5.58446 22.2206 5.84484C22.7925 6.16608 23.2733 6.60681 23.6237 7.13102C23.9078 7.55592 24.0744 8.08889 24.1613 8.9265C24.2492 9.77434 24.25 10.8613 24.25 12.3749V13.2916C24.25 14.3688 24.2496 15.1422 24.2042 15.7526C24.1592 16.3568 24.0726 16.7507 23.9265 17.0741C23.4951 18.0287 22.6678 18.7871 21.6264 19.1825C21.1108 19.3783 20.4529 19.4515 19.1975 19.4714L19.1656 19.4719C18.7676 19.4781 18.4189 19.4836 18.129 19.513C17.8175 19.5447 17.5129 19.6086 17.2201 19.7646C16.9298 19.9194 16.7204 20.1262 16.5379 20.3557C16.3692 20.5679 16.1959 20.8363 15.9996 21.1404L15.4412 22.0051C15.2485 22.3036 14.7515 22.3036 14.5587 22.0051L14.0004 21.1404C13.804 20.8363 13.6307 20.5679 13.4621 20.3557C13.2795 20.1262 13.0702 19.9194 12.7799 19.7646ZM12.7799 19.7646L12.4028 20.3589M13.4606 3.89575C11.8573 3.89575 10.6003 3.89574 9.59611 3.98326C8.57256 4.07247 7.73445 4.25744 6.99563 4.67246C6.22194 5.10707 5.57144 5.70336 5.09732 6.41258C4.64457 7.08984 4.44279 7.8581 4.34547 8.79635C4.24999 9.71686 4.24999 10.8691 4.25 12.3388L4.25 13.3171C4.25 14.3633 4.24999 15.1836 4.29932 15.8462C4.3495 16.5204 4.45323 17.0814 4.68769 17.6003C5.27128 18.8918 6.39066 19.9179 7.79957 20.4529C8.60454 20.7585 9.52138 20.8263 10.7767 20.8462C11.2158 20.8531 11.4939 20.8582 11.7059 20.8797C11.904 20.8998 11.9808 20.9293 12.0257 20.9532C12.0731 20.9785 12.1377 21.0246 12.2499 21.1656C12.3712 21.3182 12.5083 21.5292 12.7258 21.866L13.2679 22.7055C14.0415 23.9035 15.9585 23.9035 16.7321 22.7055L17.2742 21.866C17.4916 21.5292 17.6287 21.3182 17.7501 21.1656C17.8622 21.0246 17.9268 20.9785 17.9742 20.9532C18.0192 20.9293 18.096 20.8998 18.2941 20.8797C18.5061 20.8582 18.7842 20.8531 19.2233 20.8462C20.4786 20.8263 21.3955 20.7585 22.2004 20.4529C23.6093 19.9179 24.7287 18.8918 25.3123 17.6003C25.5468 17.0814 25.6505 16.5204 25.7007 15.8462C25.75 15.1836 25.75 14.3633 25.75 13.3171V12.3388C25.75 10.8691 25.75 9.71685 25.6545 8.79635C25.5572 7.8581 25.3554 7.08984 24.9027 6.41258C24.4286 5.70336 23.7781 5.10707 23.0044 4.67246C22.2655 4.25744 21.4274 4.07247 20.4039 3.98326C19.3997 3.89574 18.1427 3.89575 16.5394 3.89575H13.4606Z" stroke="white"/>
</svg>
