<svg width="30" height="19" viewBox="0 0 30 19" fill="none" xmlns="http://www.w3.org/2000/svg">
<path d="M15 0C8.45748 0 2.78666 3.80982 0 9.375C2.78666 14.9402 8.45748 18.75 15 18.75C21.5423 18.75 27.2132 14.9402 30 9.375C27.2133 3.80982 21.5423 0 15 0ZM22.396 4.9718C24.1586 6.09604 25.6522 7.60189 26.7741 9.375C25.6522 11.1481 24.1585 12.654 22.396 13.7782C20.1813 15.1908 17.6238 15.9375 15 15.9375C12.3762 15.9375 9.81867 15.1908 7.604 13.7782C5.8415 12.6539 4.34795 11.148 3.22605 9.375C4.34789 7.60184 5.8415 6.09598 7.604 4.9718C7.71879 4.89855 7.83475 4.8276 7.95141 4.75793C7.65967 5.55855 7.5 6.42264 7.5 7.32422C7.5 11.4663 10.8579 14.8242 15 14.8242C19.1421 14.8242 22.5 11.4663 22.5 7.32422C22.5 6.42264 22.3403 5.55856 22.0487 4.75787C22.1651 4.82754 22.2812 4.89855 22.396 4.9718ZM15 6.38672C15 7.94004 13.7408 9.19922 12.1875 9.19922C10.6342 9.19922 9.375 7.94004 9.375 6.38672C9.375 4.8334 10.6342 3.57422 12.1875 3.57422C13.7408 3.57422 15 4.8334 15 6.38672Z" fill="white"/>
</svg>
