<svg width="30" height="30" viewBox="0 0 30 30" fill="none" xmlns="http://www.w3.org/2000/svg">
<path d="M7.49905 0.0142059C5.3196 0.14114 3.57126 0.953043 2.08397 2.52655C1.3535 3.30014 0.745168 4.33717 0.409869 5.37659C0.249405 5.87475 0.12726 6.43758 0.0458306 7.05309C-0.00925427 7.46263 -0.0164393 8.88765 0.0338556 9.34031C0.2518 11.297 0.958323 13.1028 2.15582 14.753C2.27078 14.9135 2.51028 15.1937 3.62874 16.487C4.29215 17.2534 5.92075 19.1454 6.30874 19.6005C6.82845 20.2112 7.29068 20.9297 7.70262 21.7703C8.23191 22.8505 8.55045 23.8803 8.7181 25.0515C8.89293 26.2633 8.8594 27.8488 8.62469 29.3265C8.60553 29.4511 8.58158 29.6259 8.5744 29.7121C8.56003 29.8606 8.56242 29.8726 8.61511 29.9109C8.64625 29.9325 8.68457 29.9492 8.70373 29.9492C8.79713 29.9492 9.78148 29.4559 11.0077 28.7924C15.8288 26.1891 20.0105 23.272 23.1982 20.2854C27.72 16.0487 30 11.8646 30 7.80272C30 6.53098 29.7773 5.5179 29.2695 4.47847C28.8744 3.67136 28.3762 2.99837 27.6601 2.30861C25.9884 0.699173 23.8545 -0.107939 21.5936 0.0142059C19.9961 0.0980301 18.6813 0.584213 17.491 1.52545C17.1772 1.77692 16.5377 2.41638 16.2719 2.75168C15.8911 3.22589 15.5366 3.75758 15.2421 4.29406C15.1487 4.46171 15.0816 4.5623 15.06 4.55751C15.0409 4.55272 14.981 4.43776 14.9259 4.29885C14.5643 3.40312 13.9847 2.59122 13.2494 1.95894C11.6615 0.591398 9.58748 -0.110334 7.49905 0.0142059ZM11.6256 5.03172C12.7129 5.19218 13.829 5.98732 14.4158 7.01716C14.5954 7.33091 14.7678 7.77159 14.8421 8.10449C14.8756 8.26017 14.9235 8.32244 15.005 8.32244C15.0409 8.32244 15.0888 8.30328 15.1103 8.27933C15.1295 8.25777 15.2253 8.07096 15.3211 7.86739C15.7402 6.96687 16.1019 6.43039 16.624 5.93223C17.2754 5.30953 17.9364 5.02932 18.8274 5.00058C19.6584 4.97424 20.3147 5.15626 20.9757 5.59933C21.9696 6.26274 22.736 7.34767 23.0425 8.5284C23.1862 9.07925 23.2102 9.29959 23.2078 10.1187C23.2078 10.9234 23.1886 11.1629 23.0641 11.8191C22.6737 13.91 21.5529 16.0774 19.7446 18.2377C19.2369 18.8436 18.8872 19.222 18.1831 19.9286C17.4838 20.6279 17.0599 21.0231 16.4443 21.5524C15.2157 22.6038 13.9296 23.5714 12.4902 24.5198C11.6903 25.0467 11.5945 25.0946 11.64 24.9485C11.6472 24.9269 11.6711 24.7233 11.6951 24.5006C11.7454 23.9881 11.7526 22.6732 11.707 22.2613C11.5729 21.0734 11.2879 20.0723 10.8017 19.064C10.5431 18.5275 10.5742 18.573 8.84024 16.1062C8.38998 15.4667 7.96607 14.8488 7.89662 14.7314C7.60922 14.2453 7.3769 13.7255 7.17572 13.1124C6.97215 12.4993 6.85719 11.9341 6.79492 11.2443C6.76139 10.8875 6.76139 10.0085 6.79492 9.67321C6.93383 8.22663 7.43438 7.07464 8.31095 6.16934C8.93125 5.53466 9.65694 5.14668 10.4569 5.03172C10.773 4.98621 11.3191 4.98621 11.6256 5.03172Z" fill="url(#paint0_linear_918_7874)"/>
<defs>
<linearGradient id="paint0_linear_918_7874" x1="15" y1="29.9492" x2="15" y2="5.91278e-05" gradientUnits="userSpaceOnUse">
<stop stop-color="#FF7575"/>
<stop offset="1" stop-color="#F5B4B4"/>
</linearGradient>
</defs>
</svg>
