
<svg width="34" height="32" viewBox="0 0 34 32" fill="none" xmlns="http://www.w3.org/2000/svg">
<path d="M17 26.3334C23.2592 26.3334 28.3333 21.2593 28.3333 15.0001C28.3333 8.74085 23.2592 3.66675 17 3.66675C10.7408 3.66675 5.66665 8.74085 5.66665 15.0001C5.66665 16.8131 6.09234 18.5266 6.84924 20.0462C7.05038 20.45 7.11732 20.9116 7.00071 21.3474L6.32569 23.8703C6.03266 24.9655 7.0346 25.9674 8.12977 25.6744L10.6526 24.9993C11.0884 24.8827 11.55 24.9497 11.9538 25.1508C13.4735 25.9077 15.187 26.3334 17 26.3334Z" stroke="white" stroke-width="1.5"/>
<path d="M12.4667 13.3H21.5333" stroke="white" stroke-width="1.5" stroke-linecap="round"/>
<path d="M12.4667 17.2666H18.7" stroke="white" stroke-width="1.5" stroke-linecap="round"/>
</svg>
