<svg width="34" height="34" viewBox="0 0 34 34" fill="none" xmlns="http://www.w3.org/2000/svg">
<path fill-rule="evenodd" clip-rule="evenodd" d="M17 4.81665C14.0269 4.81665 11.6167 7.22685 11.6167 10.2C11.6167 13.1731 14.0269 15.5833 17 15.5833C19.9731 15.5833 22.3833 13.1731 22.3833 10.2C22.3833 7.22685 19.9731 4.81665 17 4.81665ZM13.3167 10.2C13.3167 8.16573 14.9658 6.51665 17 6.51665C19.0343 6.51665 20.6833 8.16573 20.6833 10.2C20.6833 12.2342 19.0343 13.8833 17 13.8833C14.9658 13.8833 13.3167 12.2342 13.3167 10.2Z" fill="white"/>
<path fill-rule="evenodd" clip-rule="evenodd" d="M17 17.2833C14.378 17.2833 11.9623 17.8793 10.1722 18.8862C8.40876 19.8782 7.08334 21.3815 7.08334 23.2333L7.08327 23.3489C7.08199 24.6656 7.08038 26.3182 8.52994 27.4987C9.24334 28.0796 10.2414 28.4927 11.5897 28.7656C12.9418 29.0393 14.7041 29.1833 17 29.1833C19.2959 29.1833 21.0582 29.0393 22.4103 28.7656C23.7587 28.4927 24.7567 28.0796 25.4701 27.4987C26.9196 26.3182 26.918 24.6656 26.9167 23.3489L26.9167 23.2333C26.9167 21.3815 25.5913 19.8782 23.8278 18.8862C22.0378 17.8793 19.622 17.2833 17 17.2833ZM8.78334 23.2333C8.78334 22.2685 9.48757 21.2218 11.0056 20.3679C12.497 19.529 14.6147 18.9833 17 18.9833C19.3854 18.9833 21.503 19.529 22.9944 20.3679C24.5124 21.2218 25.2167 22.2685 25.2167 23.2333C25.2167 24.7155 25.171 25.5499 24.3966 26.1805C23.9767 26.5224 23.2747 26.8562 22.073 27.0994C20.8752 27.3419 19.2375 27.4833 17 27.4833C14.7626 27.4833 13.1248 27.3419 11.927 27.0994C10.7253 26.8562 10.0233 26.5224 9.60341 26.1805C8.82903 25.5499 8.78334 24.7155 8.78334 23.2333Z" fill="white"/>
</svg>
