<svg width="34" height="34" viewBox="0 0 34 34" fill="none" xmlns="http://www.w3.org/2000/svg">
<path d="M6 17.5644C6 14.9709 6 13.6741 6.58843 12.5991C7.17685 11.5241 8.25187 10.8569 10.4019 9.52254L12.6686 8.11579C14.9413 6.70526 16.0777 6 17.3333 6C18.589 6 19.7254 6.70526 21.9981 8.11578L24.2648 9.52254C26.4148 10.8569 27.4898 11.5241 28.0782 12.5991C28.6667 13.6741 28.6667 14.9709 28.6667 17.5644V19.2883C28.6667 23.7093 28.6667 25.9198 27.3389 27.2932C26.0111 28.6667 23.8741 28.6667 19.6 28.6667H15.0667C10.7926 28.6667 8.65557 28.6667 7.32778 27.2932C6 25.9198 6 23.7093 6 19.2883V17.5644Z" stroke="#B7B7B7" stroke-width="1.5"/>
<path d="M20.7333 24.1335H13.9333" stroke="#B7B7B7" stroke-width="1.5" stroke-linecap="round"/>
</svg>
