<svg width="34" height="34" viewBox="0 0 34 34" fill="none" xmlns="http://www.w3.org/2000/svg">
<g clip-path="url(#clip0_919_8143)">
<path d="M16.9999 26.3334C23.2591 26.3334 28.3333 21.2593 28.3333 15.0001C28.3333 8.74085 23.2591 3.66675 16.9999 3.66675C10.7407 3.66675 5.66659 8.74085 5.66659 15.0001C5.66659 16.8131 6.09228 18.5266 6.84917 20.0462C7.05031 20.45 7.11726 20.9116 7.00065 21.3474L6.32563 23.8703C6.0326 24.9655 7.03453 25.9674 8.12971 25.6744L10.6526 24.9993C11.0884 24.8827 11.55 24.9497 11.9538 25.1508C13.4734 25.9077 15.1869 26.3334 16.9999 26.3334Z" stroke="#B7B7B7" stroke-width="1.5"/>
<path opacity="0.5" d="M12.4666 13.3H21.5332" stroke="#B7B7B7" stroke-width="1.5" stroke-linecap="round"/>
<path opacity="0.5" d="M12.4666 17.2666H18.6999" stroke="#B7B7B7" stroke-width="1.5" stroke-linecap="round"/>
</g>
<defs>
<clipPath id="clip0_919_8143">
<path d="M0 17C0 7.61116 7.61116 0 17 0C26.3888 0 34 7.61116 34 17V29.1429C34 31.8254 31.8254 34 29.1429 34H4.85714C2.17462 34 0 31.8254 0 29.1429V17Z" fill="white"/>
</clipPath>
</defs>
</svg>
