<svg width="34" height="34" viewBox="0 0 34 34" fill="none" xmlns="http://www.w3.org/2000/svg">
<path d="M5.66669 17.2312C5.66669 14.6376 5.66669 13.3409 6.25511 12.2659C6.84354 11.1908 7.91856 10.5237 10.0686 9.18929L12.3353 7.78253C14.608 6.37201 15.7444 5.66675 17 5.66675C18.2557 5.66675 19.392 6.37201 21.6648 7.78253L23.9314 9.18929C26.0815 10.5237 27.1565 11.1908 27.7449 12.2659C28.3334 13.3409 28.3334 14.6376 28.3334 17.2312V18.955C28.3334 23.376 28.3334 25.5865 27.0056 26.96C25.6778 28.3334 23.5408 28.3334 19.2667 28.3334H14.7334C10.4593 28.3334 8.32225 28.3334 6.99447 26.96C5.66669 25.5865 5.66669 23.376 5.66669 18.955V17.2312Z" stroke="white" stroke-width="1.5"/>
<path d="M20.4 23.8H13.6" stroke="white" stroke-width="1.5" stroke-linecap="round"/>
</svg>
