<svg width="22" height="22" viewBox="0 0 22 22" fill="none" xmlns="http://www.w3.org/2000/svg">
<path d="M21.0879 12.6055C20.7319 12.1359 20.5403 11.5708 20.5403 10.9908C20.5403 10.4109 20.7319 9.8458 21.0879 9.37616L21.8173 8.41287C21.9065 8.29524 21.9652 8.15905 21.9886 8.0155C22.012 7.87195 21.9993 7.72515 21.9517 7.58719C21.9036 7.45066 21.8232 7.32663 21.7166 7.22477C21.61 7.12291 21.4803 7.04599 21.3374 7.00003L20.1568 6.63306C19.5785 6.45475 19.0744 6.10541 18.7173 5.63545C18.3601 5.1655 18.1685 4.59924 18.17 4.0184V2.82575C18.1699 2.68095 18.1339 2.53823 18.065 2.40926C17.9961 2.2803 17.8963 2.16875 17.7736 2.08374C17.651 1.99873 17.509 1.94268 17.3594 1.92016C17.2097 1.89765 17.0566 1.90931 16.9126 1.9542L15.7224 2.32117C15.1446 2.49988 14.5224 2.4994 13.9449 2.3198C13.3674 2.1402 12.8641 1.79066 12.5069 1.32118L11.7775 0.357881C11.6843 0.246238 11.5661 0.156089 11.4315 0.0941315C11.2969 0.0321739 11.1494 0 11 0C10.8506 0 10.7031 0.0321739 10.5685 0.0941315C10.4339 0.156089 10.3157 0.246238 10.2225 0.357881L9.49306 1.32118C9.1359 1.79066 8.63259 2.1402 8.05507 2.3198C7.47756 2.4994 6.85542 2.49988 6.27761 2.32117L5.08741 1.9542C4.94338 1.90931 4.79028 1.89765 4.64062 1.92016C4.49097 1.94268 4.34902 1.99873 4.22638 2.08374C4.10373 2.16875 4.00389 2.2803 3.935 2.40926C3.86611 2.53823 3.83014 2.68095 3.83003 2.82575V4.0184C3.8315 4.59924 3.63985 5.1655 3.28273 5.63545C2.92562 6.10541 2.42151 6.45475 1.84317 6.63306L0.662573 7.00003C0.519741 7.04599 0.389968 7.12291 0.283401 7.22477C0.176834 7.32663 0.0963626 7.45066 0.0482787 7.58719C0.000681926 7.72515 -0.0119555 7.87195 0.0114064 8.0155C0.0347683 8.15905 0.0934616 8.29524 0.182656 8.41287L0.91213 9.37616C1.26808 9.8458 1.45973 10.4109 1.45973 10.9908C1.45973 11.5708 1.26808 12.1359 0.91213 12.6055L0.182656 13.5688C0.0934616 13.6864 0.0347683 13.8226 0.0114064 13.9662C-0.0119555 14.1097 0.000681926 14.2565 0.0482787 14.3945C0.0963626 14.531 0.176834 14.655 0.283401 14.7569C0.389968 14.8588 0.519741 14.9357 0.662573 14.9816L1.84317 15.3486C2.42151 15.5269 2.92562 15.8763 3.28273 16.3462C3.63985 16.8162 3.8315 17.3824 3.83003 17.9633V19.1559C3.83014 19.3007 3.86611 19.4434 3.935 19.5724C4.00389 19.7014 4.10373 19.8129 4.22638 19.8979C4.34902 19.9829 4.49097 20.039 4.64062 20.0615C4.79028 20.084 4.94338 20.0723 5.08741 20.0275L6.26801 19.6605C6.84705 19.4788 7.47155 19.4777 8.05126 19.6575C8.63098 19.8372 9.13589 20.1885 9.49306 20.6605L10.2225 21.6238C10.3121 21.7404 10.4292 21.8352 10.5643 21.9006C10.6993 21.9659 10.8486 22 11 22C11.1514 22 11.3006 21.9659 11.4357 21.9006C11.5708 21.8352 11.6879 21.7404 11.7775 21.6238L12.5069 20.6605C12.8647 20.1891 13.3696 19.8384 13.9492 19.6587C14.5287 19.479 15.1529 19.4796 15.732 19.6605L16.9126 20.0275C17.0566 20.0723 17.2097 20.084 17.3594 20.0615C17.509 20.039 17.651 19.9829 17.7736 19.8979C17.8963 19.8129 17.9961 19.7014 18.065 19.5724C18.1339 19.4434 18.1699 19.3007 18.17 19.1559V17.9633C18.1685 17.3824 18.3601 16.8162 18.7173 16.3462C19.0744 15.8763 19.5785 15.5269 20.1568 15.3486L21.3374 14.9816C21.4803 14.9357 21.61 14.8588 21.7166 14.7569C21.8232 14.655 21.9036 14.531 21.9517 14.3945C21.9993 14.2565 22.012 14.1097 21.9886 13.9662C21.9652 13.8226 21.9065 13.6864 21.8173 13.5688L21.0879 12.6055ZM15.5208 9.8046L10.7216 14.3917C10.5417 14.5637 10.2976 14.6603 10.043 14.6603C9.78853 14.6603 9.54443 14.5637 9.36444 14.3917L6.48493 11.6394C6.39326 11.5548 6.32014 11.4536 6.26983 11.3417C6.21953 11.2297 6.19305 11.1093 6.19194 10.9875C6.19084 10.8657 6.21512 10.7449 6.26338 10.6322C6.31165 10.5194 6.38292 10.417 6.47304 10.3308C6.56316 10.2447 6.67033 10.1766 6.78829 10.1305C6.90625 10.0843 7.03264 10.0611 7.16008 10.0622C7.28753 10.0632 7.41348 10.0885 7.53058 10.1366C7.64769 10.1847 7.7536 10.2546 7.84214 10.3422L10.0402 12.4459L14.1607 8.50736C14.3418 8.34025 14.5842 8.24778 14.8359 8.24987C15.0876 8.25196 15.3283 8.34844 15.5063 8.51854C15.6842 8.68864 15.7852 8.91874 15.7873 9.15928C15.7895 9.39983 15.6928 9.63157 15.5179 9.8046H15.5208Z" fill="url(#paint0_linear_919_8121)"/>
<defs>
<linearGradient id="paint0_linear_919_8121" x1="11" y1="0" x2="11" y2="22" gradientUnits="userSpaceOnUse">
<stop stop-color="#A7F3BD"/>
<stop offset="1" stop-color="#4F94EC"/>
</linearGradient>
</defs>
</svg>
