<svg width="25" height="25" viewBox="0 0 25 25" fill="none" xmlns="http://www.w3.org/2000/svg">
<path d="M10.4189 1.50909H14.5971V2.21214H16.106V1.41068C16.1062 0.632858 15.4737 0 14.6963 0H10.3198C9.54232 0 8.90985 0.632858 8.90985 1.41068V2.21214H10.4189V1.50909Z" fill="#FF7575"/>
<path d="M19.5908 8.19092H5.42531C5.03716 8.19092 4.73161 8.52203 4.76289 8.90903L5.94716 23.5529C6.01315 24.3704 6.69503 25 7.51424 25H17.5017C18.3209 25 19.0028 24.3704 19.0688 23.5527L20.253 8.90903C20.2845 8.52203 19.979 8.19092 19.5908 8.19092ZM8.85529 23.4381C8.83946 23.439 8.82363 23.4396 8.80799 23.4396C8.41241 23.4396 8.08034 23.1316 8.05573 22.7314L7.31358 10.7096C7.28802 10.2936 7.60445 9.93557 8.02026 9.91001C8.43472 9.88483 8.79426 10.2005 8.81982 10.6167L9.56177 22.6385C9.58752 23.0545 9.27109 23.4123 8.85529 23.4381ZM13.271 22.6851C13.271 23.1016 12.9332 23.4394 12.5164 23.4394C12.0997 23.4394 11.7619 23.1016 11.7619 22.6851V10.663C11.7619 10.2463 12.0997 9.90849 12.5164 9.90849C12.933 9.90849 13.271 10.2463 13.271 10.663V22.6851ZM17.7025 10.7075L16.9939 22.7293C16.9705 23.1302 16.6378 23.4394 16.2415 23.4394C16.2266 23.4394 16.2116 23.439 16.1965 23.4383C15.7805 23.4137 15.4631 23.0566 15.4877 22.6406L16.1961 10.6186C16.2205 10.2026 16.5764 9.88522 16.9936 9.90982C17.4096 9.93423 17.7269 10.2915 17.7025 10.7075Z" fill="#FF7575"/>
<path d="M22.2001 5.86238L21.7046 4.37694C21.5739 3.98536 21.2073 3.72119 20.7944 3.72119H4.22162C3.80887 3.72119 3.44208 3.98536 3.31162 4.37694L2.81609 5.86238C2.72053 6.14886 2.84489 6.44107 3.07702 6.58679C3.17162 6.64611 3.28358 6.68178 3.40661 6.68178H21.6096C21.7326 6.68178 21.8448 6.64611 21.9392 6.5866C22.1713 6.44088 22.2957 6.14867 22.2001 5.86238Z" fill="#FF7575"/>
</svg>
