<svg width="20" height="22" viewBox="0 0 20 22" fill="none" xmlns="http://www.w3.org/2000/svg">
<path d="M17.3514 14.0015L14.3469 7.32365C12.4502 3.10789 11.5018 1 10 1C8.49818 1 7.54982 3.10788 5.6531 7.32365L2.64864 14.0015C1.49694 16.5614 0.921082 17.8413 1.0087 18.6471C1.1353 19.8112 1.92343 20.7515 2.95934 20.9744C3.67636 21.1286 4.86598 20.581 7.24524 19.4857C8.12547 19.0805 8.56559 18.8779 9.01659 18.7743C9.66534 18.6254 10.3347 18.6254 10.9834 18.7743C11.4344 18.8779 11.8745 19.0805 12.7548 19.4857C15.134 20.581 16.3236 21.1286 17.0407 20.9744C18.0766 20.7515 18.8647 19.8112 18.9913 18.6471C19.0789 17.8413 18.5031 16.5614 17.3514 14.0015Z" stroke="white" stroke-width="1.5"/>
</svg>
